<svg viewBox="0 0 317.5 212.65" fill="none" xmlns="http://www.w3.org/2000/svg" xmlns:xlink="http://www.w3.org/1999/xlink" id="aa516db1" x="0" y="0"><g id="Revised Dashboard" data-node-id="1432:24567"><g id="Frame 1321314495" data-node-id="1432:24765"><g id="Frame 1321314448" data-node-id="1432:24805"><g id="container" data-node-id="1432:24812"><g id="graph" data-node-id="1432:24814"><path id="Vector 2" data-node-id="1432:24815" d="M0,14.53h317.5" stroke="black" stroke-opacity="0.1" stroke-width="0.425" stroke-dasharray="1.28 1.28"/><path id="Vector 2.1" data-node-id="1432:24816" d="M0,52.29h317.5" stroke="black" stroke-opacity="0.1" stroke-width="0.425" stroke-dasharray="1.28 1.28"/><path id="Vector 2.4" data-node-id="1432:24817" d="M0,90.9h317.5" stroke="black" stroke-opacity="0.1" stroke-width="0.425" stroke-dasharray="1.28 1.28"/><path id="Vector 2.4_2" data-node-id="1432:24818" d="M0,128.03h317.5" stroke="black" stroke-opacity="0.1" stroke-width="0.425" stroke-dasharray="1.28 1.28"/><path id="Vector 2.5" data-node-id="1432:24819" d="M0,166.63h317.5" stroke="black" stroke-opacity="0.1" stroke-width="0.425" stroke-dasharray="1.28 1.28"/><path id="Vector 2.3" data-node-id="1432:24820" d="M0,210.3h317.5" stroke="black" stroke-opacity="0.1" stroke-width="0.425"/><path id="Vector 4" data-node-id="1432:24821" d="M59.0219,39.84c-27.5027,-31.81 -50.5219,-34.25 -50.5219,-34.25v204.71h300.5v-142.33c-21.615,0 -33.213,-50.04 -49.469,-47.66c-16.257,2.37 -33.3,62.23 -51.049,68.75c-17.748,6.53 -29.171,-28.3 -49.469,-21.09c-20.297,7.2 -29.259,97.32 -50.522,94.67c-21.263,-2.66 -21.966,-90.99 -49.4691,-122.8z" fill="url(#paint3_linear_1432_24567)"/><g id="Frame 1321314497" data-node-id="1432:24822">
<line id="Line 1" data-node-id="1432:24823" opacity="0.5" x1="8.9666" y1="212.1500000000001" x2="8.9666" y2="11.550000000000182" stroke="#B1B1B1" stroke-width="0.425"/>
<line id="Line 2" data-node-id="1432:24824" opacity="0.5" x1="54.0166" y1="212.1500000000001" x2="54.0166" y2="11.550000000000182" stroke="#B1B1B1" stroke-width="0.425"/>
<line id="Line 3" data-node-id="1432:24825" opacity="0.5" x1="99.067" y1="212.1500000000001" x2="99.067" y2="11.550000000000182" stroke="#B1B1B1" stroke-width="0.425"/>
<g id="Rectangle 23" data-node-id="1432:24826" opacity="0.5">
<mask id="path-208-inside-1_1432_24567" fill="white">
<path d="M144.329,0.5h40.8v211.65h-40.8z"/>
</mask>
<path d="M144.329,0.5h40.8v211.65h-40.8z" fill="white"/>
<path d="M185.129,0.5h-0.85v211.65h0.85h0.85v-211.65zM144.329,212.15h0.85v-211.65h-0.85h-0.85v211.65z" fill="#E5E7EB" mask="url(#path-208-inside-1_1432_24567)"/>
</g>
<line id="Line 6" data-node-id="1432:24827" opacity="0.5" x1="229.96699999999998" y1="212.1500000000001" x2="229.96699999999998" y2="11.550000000000182" stroke="#B1B1B1" stroke-width="0.425"/>
<line id="Line 7" data-node-id="1432:24828" opacity="0.5" x1="275.017" y1="212.1500000000001" x2="275.017" y2="11.550000000000182" stroke="#B1B1B1" stroke-width="0.425"/>
<circle id="Ellipse 2" data-node-id="1432:24829" cx="185.684" cy="80.5300000000002" r="5.90907" fill="#344BFD" stroke="white" stroke-width="2.55"/>
<path id="6hr 30m" data-node-id="1432:24830" d="M176.273,70.38c-0.318,0 -0.625,-0.05 -0.92,-0.16c-0.294,-0.1 -0.558,-0.27 -0.791,-0.51c-0.234,-0.23 -0.419,-0.54 -0.556,-0.93c-0.134,-0.39 -0.202,-0.87 -0.202,-1.43c0.002,-0.52 0.062,-0.98 0.178,-1.39c0.119,-0.41 0.288,-0.76 0.507,-1.05c0.222,-0.28 0.486,-0.5 0.794,-0.65c0.308,-0.15 0.653,-0.23 1.036,-0.23c0.412,0 0.776,0.08 1.092,0.25c0.316,0.15 0.57,0.37 0.761,0.64c0.193,0.28 0.31,0.59 0.35,0.93h-1.289c-0.05,-0.22 -0.156,-0.39 -0.317,-0.51c-0.161,-0.12 -0.36,-0.19 -0.597,-0.19c-0.403,0 -0.709,0.18 -0.918,0.53c-0.207,0.35 -0.313,0.83 -0.317,1.43h0.042c0.093,-0.19 0.218,-0.34 0.375,-0.47c0.159,-0.13 0.339,-0.23 0.54,-0.3c0.203,-0.07 0.417,-0.11 0.643,-0.11c0.366,0 0.692,0.09 0.978,0.26c0.286,0.18 0.511,0.41 0.676,0.71c0.165,0.3 0.247,0.64 0.247,1.03c0,0.42 -0.097,0.79 -0.292,1.12c-0.194,0.32 -0.464,0.58 -0.812,0.76c-0.346,0.19 -0.749,0.28 -1.208,0.27zM176.267,69.36c0.201,0 0.382,-0.05 0.541,-0.15c0.159,-0.09 0.283,-0.22 0.374,-0.39c0.09,-0.16 0.136,-0.35 0.136,-0.55c0,-0.21 -0.046,-0.39 -0.136,-0.56c-0.089,-0.16 -0.211,-0.29 -0.368,-0.39c-0.157,-0.09 -0.336,-0.14 -0.538,-0.14c-0.151,0 -0.29,0.03 -0.419,0.08c-0.127,0.06 -0.239,0.14 -0.335,0.24c-0.095,0.1 -0.169,0.22 -0.224,0.35c-0.054,0.13 -0.081,0.27 -0.081,0.42c0,0.2 0.045,0.38 0.136,0.55c0.092,0.16 0.217,0.29 0.374,0.39c0.159,0.1 0.339,0.15 0.54,0.15zM180.81,67.62v2.68h-1.286v-6.18h1.25v2.36h0.054c0.105,-0.27 0.274,-0.49 0.507,-0.64c0.234,-0.16 0.526,-0.24 0.879,-0.24c0.322,0 0.602,0.07 0.842,0.21c0.241,0.14 0.428,0.34 0.561,0.61c0.135,0.26 0.201,0.57 0.199,0.93v2.95h-1.285v-2.72c0.002,-0.29 -0.071,-0.51 -0.218,-0.67c-0.145,-0.16 -0.348,-0.24 -0.609,-0.24c-0.176,0 -0.33,0.04 -0.465,0.11c-0.133,0.08 -0.238,0.19 -0.314,0.33c-0.075,0.14 -0.113,0.31 -0.115,0.51zM184.828,70.3v-4.64h1.247v0.81h0.048c0.085,-0.28 0.227,-0.5 0.426,-0.65c0.199,-0.15 0.429,-0.22 0.688,-0.22c0.065,0 0.134,0 0.208,0.01c0.075,0.01 0.14,0.02 0.197,0.03v1.14c-0.061,-0.01 -0.144,-0.03 -0.251,-0.04c-0.107,-0.02 -0.204,-0.03 -0.293,-0.03c-0.189,0 -0.358,0.05 -0.507,0.13c-0.147,0.08 -0.263,0.19 -0.35,0.34c-0.084,0.14 -0.127,0.31 -0.127,0.5v2.62zM192.547,70.38c-0.451,0 -0.853,-0.07 -1.205,-0.23c-0.35,-0.15 -0.627,-0.37 -0.83,-0.64c-0.201,-0.28 -0.305,-0.6 -0.311,-0.96h1.316c0.008,0.15 0.058,0.29 0.148,0.4c0.093,0.11 0.216,0.2 0.368,0.26c0.153,0.07 0.325,0.1 0.517,0.1c0.199,0 0.375,-0.04 0.528,-0.11c0.153,-0.07 0.273,-0.17 0.359,-0.29c0.087,-0.13 0.13,-0.27 0.13,-0.43c0,-0.17 -0.046,-0.31 -0.139,-0.44c-0.091,-0.13 -0.221,-0.23 -0.392,-0.3c-0.169,-0.07 -0.371,-0.11 -0.604,-0.11h-0.577v-0.96h0.577c0.197,0 0.371,-0.04 0.522,-0.1c0.153,-0.07 0.272,-0.17 0.356,-0.29c0.085,-0.12 0.127,-0.26 0.127,-0.43c0,-0.15 -0.037,-0.29 -0.112,-0.4c-0.072,-0.12 -0.175,-0.21 -0.308,-0.28c-0.13,-0.07 -0.283,-0.1 -0.458,-0.1c-0.177,0 -0.339,0.03 -0.486,0.1c-0.147,0.06 -0.265,0.15 -0.353,0.26c-0.089,0.12 -0.136,0.26 -0.142,0.42h-1.253c0.006,-0.36 0.108,-0.67 0.305,-0.95c0.197,-0.27 0.463,-0.48 0.797,-0.63c0.336,-0.16 0.715,-0.24 1.138,-0.24c0.426,0 0.8,0.08 1.12,0.24c0.32,0.15 0.568,0.36 0.745,0.62c0.179,0.27 0.268,0.56 0.266,0.89c0.002,0.34 -0.106,0.63 -0.323,0.86c-0.216,0.23 -0.496,0.38 -0.842,0.44v0.05c0.454,0.06 0.801,0.22 1.038,0.47c0.239,0.26 0.358,0.58 0.356,0.96c0.002,0.36 -0.099,0.67 -0.305,0.94c-0.203,0.28 -0.484,0.49 -0.842,0.65c-0.358,0.16 -0.769,0.23 -1.231,0.23zM198.288,70.44c-0.519,-0.01 -0.965,-0.13 -1.34,-0.39c-0.372,-0.25 -0.659,-0.62 -0.86,-1.1c-0.199,-0.48 -0.298,-1.06 -0.296,-1.73c0,-0.68 0.1,-1.25 0.299,-1.73c0.201,-0.47 0.488,-0.83 0.86,-1.08c0.375,-0.25 0.82,-0.38 1.337,-0.38c0.518,0 0.962,0.13 1.335,0.38c0.374,0.25 0.662,0.61 0.863,1.08c0.201,0.48 0.301,1.05 0.299,1.73c0,0.67 -0.101,1.25 -0.302,1.73c-0.199,0.49 -0.485,0.85 -0.857,1.11c-0.373,0.25 -0.818,0.38 -1.338,0.38zM198.288,69.35c0.355,0 0.637,-0.18 0.849,-0.53c0.211,-0.36 0.316,-0.89 0.314,-1.6c0,-0.47 -0.049,-0.86 -0.145,-1.18c-0.095,-0.31 -0.23,-0.54 -0.405,-0.7c-0.173,-0.16 -0.377,-0.23 -0.613,-0.23c-0.352,0 -0.633,0.17 -0.845,0.52c-0.211,0.36 -0.318,0.88 -0.32,1.59c0,0.47 0.048,0.87 0.142,1.18c0.097,0.32 0.233,0.56 0.408,0.72c0.175,0.15 0.38,0.23 0.615,0.23zM201.729,70.3v-4.64h1.225v0.82h0.055c0.096,-0.27 0.257,-0.48 0.483,-0.64c0.225,-0.16 0.495,-0.24 0.809,-0.24c0.317,0 0.588,0.08 0.811,0.24c0.224,0.16 0.373,0.37 0.447,0.64h0.049c0.094,-0.26 0.265,-0.48 0.513,-0.63c0.249,-0.17 0.544,-0.25 0.884,-0.25c0.433,0 0.784,0.14 1.053,0.42c0.272,0.27 0.408,0.66 0.408,1.16v3.12h-1.283v-2.86c0,-0.26 -0.068,-0.45 -0.205,-0.58c-0.137,-0.13 -0.308,-0.2 -0.513,-0.2c-0.234,0 -0.416,0.08 -0.547,0.23c-0.13,0.14 -0.196,0.34 -0.196,0.58v2.83h-1.246v-2.89c0,-0.23 -0.066,-0.41 -0.197,-0.54c-0.128,-0.14 -0.298,-0.21 -0.51,-0.21c-0.143,0 -0.271,0.04 -0.386,0.11c-0.113,0.07 -0.202,0.17 -0.269,0.3c-0.066,0.13 -0.099,0.28 -0.099,0.45v2.78z" fill="#344BFD"/>
</g><path id="Vector 5" data-node-id="1432:24831" d="M8.5,5.59c0,0 23.0192,2.44 50.5219,34.25c27.5031,31.81 28.2061,120.14 49.4691,122.8c21.263,2.65 30.225,-87.47 50.522,-94.67c20.298,-7.21 31.721,27.62 49.469,21.09c17.749,-6.52 34.792,-66.38 51.049,-68.75c16.256,-2.38 27.854,47.66 49.469,47.66" stroke="#7A5FFF" stroke-width="0.85"/></g></g></g></g></g><defs><mask id="path-208-inside-1_1432_24567" fill="white">
<path d="M172.829 2138.85H213.629V2350.5H172.829V2138.85Z"/>
</mask><linearGradient id="paint3_linear_1432_24567" x1="161.386" y1="210.30000000000018" x2="161.386" y2="5.5900000000001455" gradientUnits="userSpaceOnUse">
<stop stop-color="#F3F3FF"/>
<stop offset="1" stop-color="#C1BCFF"/>
</linearGradient></defs></svg>