<svg viewBox="0 0 390 315" x="0" y="0" fill="none" xmlns="http://www.w3.org/2000/svg"><defs><mask id="path-333-inside-1_1432_22677" fill="white" xmlns="http://www.w3.org/2000/svg">
<path d="M179.8,38.291h48v248.999h-48z"/>
</mask><linearGradient id="paint4_linear_1432_22677" x1="198.06999999999994" y1="287" x2="198.06999999999994" y2="44.403999999999996" gradientUnits="userSpaceOnUse" xmlns="http://www.w3.org/2000/svg">
<stop stop-color="#F3F3FF"/>
<stop offset="1" stop-color="#C1BCFF"/>
</linearGradient></defs><g id="container_2" xmlns="http://www.w3.org/2000/svg">
<rect x="0.25" y="0.25" width="389.5" height="314.5" rx="2.75" stroke="black" stroke-opacity="0.1" stroke-width="0.5"/>
<path id="y-axis" d="M17.37,11.636v8.364h-1.09v-3.792h-4.26v3.792h-1.1v-8.364h1.1v3.672h4.26v-3.672zM22.1,20.108c-0.62,0 -1.18,-0.14 -1.68,-0.42c-0.5,-0.28 -0.89,-0.676 -1.18,-1.188c-0.28,-0.52 -0.42,-1.12 -0.42,-1.8c0,-0.672 0.15,-1.264 0.44,-1.776c0.29,-0.52 0.69,-0.916 1.2,-1.188c0.5,-0.28 1.06,-0.42 1.69,-0.42c0.62,0 1.19,0.14 1.69,0.42c0.5,0.272 0.9,0.664 1.19,1.176c0.29,0.512 0.44,1.108 0.44,1.788c0,0.68 -0.15,1.28 -0.45,1.8c-0.3,0.512 -0.7,0.908 -1.22,1.188c-0.51,0.28 -1.08,0.42 -1.7,0.42zM22.1,19.148c0.39,0 0.76,-0.092 1.1,-0.276c0.35,-0.184 0.62,-0.46 0.83,-0.828c0.22,-0.368 0.33,-0.816 0.33,-1.344c0,-0.528 -0.11,-0.976 -0.32,-1.344c-0.2,-0.368 -0.48,-0.64 -0.81,-0.816c-0.34,-0.184 -0.7,-0.276 -1.09,-0.276c-0.4,0 -0.77,0.092 -1.11,0.276c-0.33,0.176 -0.59,0.448 -0.79,0.816c-0.2,0.368 -0.3,0.816 -0.3,1.344c0,0.536 0.1,0.988 0.29,1.356c0.2,0.368 0.46,0.644 0.79,0.828c0.33,0.176 0.69,0.264 1.08,0.264zM32.74,13.424v6.576h-1.09v-0.972c-0.21,0.336 -0.5,0.6 -0.88,0.792c-0.37,0.184 -0.77,0.276 -1.22,0.276c-0.51,0 -0.97,-0.104 -1.38,-0.312c-0.41,-0.216 -0.73,-0.536 -0.97,-0.96c-0.24,-0.424 -0.35,-0.94 -0.35,-1.548v-3.852h1.08v3.708c0,0.648 0.16,1.148 0.49,1.5c0.33,0.344 0.78,0.516 1.34,0.516c0.59,0 1.05,-0.18 1.38,-0.54c0.34,-0.36 0.51,-0.884 0.51,-1.572v-3.612zM35.68,14.492c0.19,-0.376 0.46,-0.668 0.81,-0.876c0.36,-0.208 0.8,-0.312 1.31,-0.312v1.128h-0.29c-1.22,0 -1.83,0.664 -1.83,1.992v3.576h-1.1v-6.576h1.1zM41.39,20.108c-0.51,0 -0.96,-0.084 -1.36,-0.252c-0.4,-0.176 -0.71,-0.416 -0.95,-0.72c-0.23,-0.312 -0.36,-0.668 -0.38,-1.068h1.13c0.03,0.328 0.18,0.596 0.45,0.804c0.28,0.208 0.65,0.312 1.1,0.312c0.41,0 0.74,-0.092 0.98,-0.276c0.24,-0.184 0.36,-0.416 0.36,-0.696c0,-0.288 -0.13,-0.5 -0.38,-0.636c-0.26,-0.144 -0.66,-0.284 -1.19,-0.42c-0.49,-0.128 -0.89,-0.256 -1.2,-0.384c-0.31,-0.136 -0.57,-0.332 -0.79,-0.588c-0.22,-0.264 -0.33,-0.608 -0.33,-1.032c0,-0.336 0.1,-0.644 0.3,-0.924c0.2,-0.28 0.49,-0.5 0.85,-0.66c0.37,-0.168 0.79,-0.252 1.26,-0.252c0.73,0 1.32,0.184 1.77,0.552c0.45,0.368 0.69,0.872 0.72,1.512h-1.09c-0.03,-0.344 -0.17,-0.62 -0.42,-0.828c-0.25,-0.208 -0.59,-0.312 -1.01,-0.312c-0.39,0 -0.71,0.084 -0.94,0.252c-0.23,0.168 -0.35,0.388 -0.35,0.66c0,0.216 0.07,0.396 0.21,0.54c0.14,0.136 0.32,0.248 0.53,0.336c0.21,0.08 0.51,0.172 0.88,0.276c0.48,0.128 0.86,0.256 1.16,0.384c0.29,0.12 0.54,0.304 0.75,0.552c0.22,0.248 0.33,0.572 0.34,0.972c0,0.36 -0.1,0.684 -0.3,0.972c-0.2,0.288 -0.49,0.516 -0.85,0.684c-0.36,0.16 -0.78,0.24 -1.25,0.24z" fill="black" fill-opacity="0.5"/>
<g id="graph">
<path id="vector_196" d="M10,55h370" stroke="black" stroke-opacity="0.1" stroke-width="0.5" stroke-dasharray="1.5 1.5"/>
<path id="Vector 2.1" d="M10,99.75h370" stroke="black" stroke-opacity="0.1" stroke-width="0.5" stroke-dasharray="1.5 1.5"/>
<path id="Vector 2.4" d="M10,145.5h370" stroke="black" stroke-opacity="0.1" stroke-width="0.5" stroke-dasharray="1.5 1.5"/>
<path id="Vector 2.4_2" d="M10,189.5h370" stroke="black" stroke-opacity="0.1" stroke-width="0.5" stroke-dasharray="1.5 1.5"/>
<path id="Vector 2.5" d="M10,235.25h370" stroke="black" stroke-opacity="0.1" stroke-width="0.5" stroke-dasharray="1.5 1.5"/>
<path id="Vector 2.3" d="M10,287h370" stroke="black" stroke-opacity="0.1" stroke-width="0.5"/>
<path id="vector_197" d="M78.84,84.989c-32.03,-37.699 -58.84,-40.586 -58.84,-40.586v242.597h350v-168.68c-25.18,0 -38.68,-59.292 -57.62,-56.48c-18.93,2.813 -38.78,73.75 -59.46,81.48c-20.67,7.73 -33.97,-33.536 -57.61,-25c-23.64,8.54 -34.08,115.34 -58.85,112.2c-24.76,-3.15 -25.58,-107.83 -57.62,-145.531z" fill="url(#paint4_linear_1432_22677)"/>
<g id="row_17">
<line id="line_2" opacity="0.5" x1="20.549999999999955" y1="287.28999999999996" x2="20.549999999999955" y2="51.291000000000054" stroke="#B1B1B1" stroke-width="0.5"/>
<line id="line_3" opacity="0.5" x1="73.54999999999995" y1="287.28999999999996" x2="73.54999999999995" y2="51.291000000000054" stroke="#B1B1B1" stroke-width="0.5"/>
<line id="line_4" opacity="0.5" x1="126.54999999999995" y1="287.28999999999996" x2="126.54999999999995" y2="51.291000000000054" stroke="#B1B1B1" stroke-width="0.5"/>
<g id="rectangle_20" opacity="0.5">
<mask id="path-333-inside-1_1432_22677" fill="white">
<path d="M1186.8 920.291H1234.8V1169.29H1186.8V920.291Z"/>
</mask>
<path d="M179.8,38.291h48v248.999h-48z" fill="white"/>
<path d="M227.8,38.291h-1v248.999h1h1v-248.999zM179.8,287.29h1v-248.999h-1h-1v248.999z" fill="#E5E7EB" mask="url(#path-333-inside-1_1432_22677)"/>
</g>
<line id="line_5" opacity="0.5" x1="280.54999999999995" y1="287.28999999999996" x2="280.54999999999995" y2="51.291000000000054" stroke="#B1B1B1" stroke-width="0.5"/>
<line id="line_6" opacity="0.5" x1="333.54999999999995" y1="287.28999999999996" x2="333.54999999999995" y2="51.291000000000054" stroke="#B1B1B1" stroke-width="0.5"/>
<circle id="ellipse_11" cx="228.45000000000005" cy="132.45000000000005" r="6.95184" fill="#344BFD" stroke="white" stroke-width="3"/>
<path id="text_64" d="M217.38,121.1c-0.37,0 -0.73,-0.07 -1.08,-0.19c-0.35,-0.12 -0.66,-0.32 -0.93,-0.6c-0.28,-0.28 -0.5,-0.64 -0.66,-1.1c-0.15,-0.46 -0.23,-1.02 -0.23,-1.683c0,-0.611 0.07,-1.157 0.21,-1.638c0.14,-0.483 0.33,-0.892 0.59,-1.228c0.26,-0.336 0.57,-0.592 0.94,-0.767c0.36,-0.178 0.76,-0.267 1.21,-0.267c0.49,0 0.92,0.095 1.29,0.284c0.37,0.187 0.67,0.442 0.89,0.764c0.23,0.322 0.37,0.683 0.42,1.083h-1.52c-0.06,-0.253 -0.18,-0.452 -0.37,-0.597c-0.19,-0.144 -0.43,-0.216 -0.71,-0.216c-0.47,0 -0.83,0.206 -1.08,0.618c-0.24,0.412 -0.36,0.972 -0.37,1.679h0.05c0.11,-0.215 0.26,-0.399 0.44,-0.55c0.19,-0.154 0.4,-0.271 0.64,-0.352c0.24,-0.082 0.49,-0.124 0.75,-0.124c0.43,0 0.82,0.102 1.15,0.306c0.34,0.201 0.61,0.478 0.8,0.83c0.19,0.353 0.29,0.758 0.29,1.208c0,0.5 -0.11,0.93 -0.34,1.32c-0.23,0.38 -0.55,0.68 -0.96,0.9c-0.41,0.21 -0.88,0.32 -1.42,0.32zM217.37,119.89c0.24,0 0.45,-0.06 0.64,-0.17c0.19,-0.11 0.33,-0.27 0.44,-0.46c0.11,-0.19 0.16,-0.41 0.16,-0.65c0,-0.25 -0.05,-0.46 -0.16,-0.654c-0.1,-0.192 -0.25,-0.344 -0.43,-0.458c-0.19,-0.114 -0.4,-0.17 -0.64,-0.17c-0.17,0 -0.34,0.033 -0.49,0.099c-0.15,0.066 -0.28,0.159 -0.39,0.277c-0.11,0.118 -0.2,0.256 -0.27,0.416c-0.06,0.15 -0.09,0.31 -0.09,0.49c0,0.23 0.05,0.45 0.16,0.64c0.11,0.2 0.25,0.35 0.44,0.47c0.18,0.11 0.4,0.17 0.63,0.17zM222.72,117.846v3.154h-1.51v-7.273h1.47v2.78h0.06c0.12,-0.322 0.32,-0.574 0.6,-0.756c0.27,-0.185 0.62,-0.277 1.03,-0.277c0.38,0 0.71,0.083 0.99,0.249c0.28,0.163 0.5,0.398 0.66,0.706c0.16,0.306 0.24,0.671 0.23,1.098v3.473h-1.51v-3.204c0,-0.336 -0.08,-0.597 -0.25,-0.784c-0.17,-0.187 -0.41,-0.281 -0.72,-0.281c-0.21,0 -0.39,0.044 -0.55,0.131c-0.15,0.088 -0.28,0.216 -0.37,0.384c-0.08,0.166 -0.13,0.366 -0.13,0.6zM227.45,121v-5.455h1.46v0.952h0.06c0.1,-0.339 0.27,-0.595 0.5,-0.767c0.23,-0.176 0.5,-0.263 0.81,-0.263c0.08,0 0.16,0.005 0.24,0.014c0.09,0.01 0.17,0.023 0.24,0.039v1.342c-0.08,-0.021 -0.17,-0.04 -0.3,-0.056c-0.13,-0.017 -0.24,-0.025 -0.34,-0.025c-0.23,0 -0.43,0.048 -0.6,0.145c-0.17,0.095 -0.31,0.228 -0.41,0.398c-0.1,0.171 -0.15,0.367 -0.15,0.59v3.086zM236.53,121.1c-0.53,0 -1.01,-0.09 -1.42,-0.27c-0.41,-0.19 -0.74,-0.44 -0.98,-0.76c-0.23,-0.33 -0.36,-0.7 -0.36,-1.13h1.54c0.01,0.18 0.07,0.34 0.18,0.47c0.11,0.13 0.25,0.24 0.43,0.31c0.18,0.07 0.38,0.11 0.61,0.11c0.23,0 0.44,-0.04 0.62,-0.12c0.18,-0.09 0.32,-0.2 0.42,-0.35c0.11,-0.14 0.16,-0.31 0.16,-0.51c0,-0.19 -0.06,-0.36 -0.17,-0.51c-0.1,-0.15 -0.26,-0.27 -0.46,-0.355c-0.2,-0.086 -0.43,-0.128 -0.71,-0.128h-0.68v-1.13h0.68c0.23,0 0.44,-0.04 0.62,-0.12c0.18,-0.081 0.31,-0.192 0.41,-0.334c0.1,-0.144 0.15,-0.313 0.15,-0.504c0,-0.183 -0.04,-0.342 -0.13,-0.48c-0.08,-0.139 -0.2,-0.248 -0.36,-0.326c-0.15,-0.079 -0.33,-0.118 -0.54,-0.118c-0.21,0 -0.4,0.038 -0.57,0.114c-0.17,0.073 -0.31,0.179 -0.42,0.316c-0.1,0.137 -0.16,0.298 -0.16,0.483h-1.48c0.01,-0.419 0.13,-0.788 0.36,-1.108c0.23,-0.32 0.55,-0.569 0.94,-0.749c0.39,-0.183 0.84,-0.274 1.34,-0.274c0.5,0 0.94,0.091 1.31,0.274c0.38,0.182 0.67,0.428 0.88,0.738c0.21,0.308 0.32,0.654 0.31,1.037c0.01,0.408 -0.12,0.747 -0.38,1.02c-0.25,0.272 -0.58,0.445 -0.99,0.518v0.057c0.54,0.068 0.95,0.254 1.23,0.557c0.28,0.302 0.42,0.682 0.41,1.132c0.01,0.41 -0.11,0.78 -0.35,1.1c-0.24,0.32 -0.57,0.58 -1,0.76c-0.42,0.19 -0.9,0.28 -1.44,0.28zM243.28,121.16c-0.61,0 -1.14,-0.15 -1.58,-0.45c-0.43,-0.3 -0.77,-0.73 -1.01,-1.3c-0.23,-0.56 -0.35,-1.24 -0.35,-2.04c0,-0.793 0.12,-1.469 0.36,-2.027c0.23,-0.559 0.57,-0.984 1.01,-1.275c0.44,-0.294 0.96,-0.441 1.57,-0.441c0.61,0 1.13,0.147 1.57,0.441c0.44,0.293 0.78,0.719 1.02,1.278c0.23,0.556 0.35,1.231 0.35,2.024c0,0.8 -0.12,1.48 -0.36,2.05c-0.23,0.56 -0.57,0.99 -1.01,1.29c-0.43,0.3 -0.96,0.45 -1.57,0.45zM243.28,119.88c0.42,0 0.75,-0.21 1,-0.62c0.25,-0.42 0.37,-1.05 0.37,-1.89c0,-0.551 -0.06,-1.011 -0.17,-1.378c-0.11,-0.367 -0.27,-0.642 -0.48,-0.827c-0.2,-0.185 -0.44,-0.277 -0.72,-0.277c-0.41,0 -0.74,0.207 -0.99,0.621c-0.25,0.415 -0.38,1.035 -0.38,1.861c0,0.559 0.06,1.03 0.17,1.4c0.11,0.37 0.27,0.65 0.48,0.84c0.2,0.18 0.44,0.27 0.72,0.27zM247.33,121v-5.455h1.44v0.962h0.06c0.12,-0.319 0.31,-0.571 0.57,-0.756c0.27,-0.185 0.58,-0.277 0.95,-0.277c0.38,0 0.7,0.093 0.96,0.28c0.26,0.185 0.44,0.436 0.52,0.753h0.06c0.11,-0.312 0.31,-0.562 0.61,-0.749c0.29,-0.189 0.64,-0.284 1.04,-0.284c0.5,0 0.92,0.162 1.24,0.486c0.31,0.322 0.47,0.779 0.47,1.371v3.669h-1.5v-3.371c0,-0.303 -0.09,-0.53 -0.25,-0.681c-0.16,-0.152 -0.36,-0.228 -0.6,-0.228c-0.27,0 -0.49,0.088 -0.64,0.263c-0.16,0.173 -0.23,0.401 -0.23,0.686v3.331h-1.47v-3.402c0,-0.268 -0.08,-0.481 -0.23,-0.64c-0.15,-0.158 -0.35,-0.238 -0.6,-0.238c-0.17,0 -0.32,0.043 -0.46,0.128c-0.13,0.083 -0.23,0.2 -0.31,0.352c-0.08,0.149 -0.12,0.324 -0.12,0.525v3.275z" fill="#344BFD"/>
</g>
<path id="vector_198" d="M20,44.403c0,0 26.81,2.887 58.84,40.586c32.04,37.701 32.86,142.381 57.62,145.531c24.77,3.14 35.21,-103.66 58.85,-112.2c23.64,-8.536 36.94,32.73 57.61,25c20.68,-7.73 40.53,-78.667 59.46,-81.48c18.94,-2.812 32.44,56.48 57.62,56.48" stroke="#7A5FFF"/>
<g id="col_19">
<path id="text_65" d="M6.38,51.6v-0.83h1.88v7.23h-0.92v-6.4zM9.82,54.31c0,-1.147 0.19,-2.04 0.56,-2.68c0.38,-0.647 1.03,-0.97 1.96,-0.97c0.93,0 1.58,0.323 1.95,0.97c0.38,0.64 0.56,1.533 0.56,2.68c0,1.167 -0.18,2.073 -0.56,2.72c-0.37,0.647 -1.02,0.97 -1.95,0.97c-0.93,0 -1.58,-0.323 -1.96,-0.97c-0.37,-0.647 -0.56,-1.553 -0.56,-2.72zM13.95,54.31c0,-0.58 -0.04,-1.07 -0.12,-1.47c-0.07,-0.407 -0.23,-0.733 -0.47,-0.98c-0.23,-0.247 -0.57,-0.37 -1.02,-0.37c-0.45,0 -0.8,0.123 -1.04,0.37c-0.23,0.247 -0.39,0.573 -0.47,0.98c-0.07,0.4 -0.11,0.89 -0.11,1.47c0,0.6 0.04,1.103 0.11,1.51c0.08,0.407 0.24,0.733 0.47,0.98c0.24,0.247 0.59,0.37 1.04,0.37c0.45,0 0.79,-0.123 1.02,-0.37c0.24,-0.247 0.4,-0.573 0.47,-0.98c0.08,-0.407 0.12,-0.91 0.12,-1.51z" fill="#2E2E30"/>
<path id="text_66" d="M7.94,99.24c-0.37,-0.147 -0.66,-0.36 -0.86,-0.64c-0.2,-0.28 -0.3,-0.62 -0.3,-1.02c0,-0.36 0.09,-0.683 0.27,-0.97c0.18,-0.293 0.45,-0.523 0.8,-0.69c0.36,-0.173 0.79,-0.26 1.3,-0.26c0.51,0 0.94,0.087 1.29,0.26c0.36,0.167 0.63,0.397 0.81,0.69c0.19,0.287 0.28,0.61 0.28,0.97c0,0.387 -0.1,0.727 -0.31,1.02c-0.21,0.287 -0.49,0.5 -0.85,0.64c0.41,0.127 0.74,0.35 0.98,0.67c0.25,0.313 0.37,0.693 0.37,1.14c0,0.433 -0.11,0.813 -0.32,1.14c-0.21,0.32 -0.52,0.57 -0.91,0.75c-0.39,0.173 -0.83,0.26 -1.34,0.26c-0.51,0 -0.95,-0.087 -1.34,-0.26c-0.38,-0.18 -0.68,-0.43 -0.89,-0.75c-0.21,-0.327 -0.32,-0.707 -0.32,-1.14c0,-0.447 0.12,-0.83 0.36,-1.15c0.24,-0.32 0.57,-0.54 0.98,-0.66zM10.65,97.69c0,-0.407 -0.13,-0.72 -0.4,-0.94c-0.27,-0.22 -0.63,-0.33 -1.1,-0.33c-0.46,0 -0.82,0.11 -1.09,0.33c-0.27,0.22 -0.4,0.537 -0.4,0.95c0,0.373 0.14,0.673 0.41,0.9c0.28,0.227 0.64,0.34 1.08,0.34c0.45,0 0.81,-0.113 1.08,-0.34c0.28,-0.233 0.42,-0.537 0.42,-0.91zM9.15,99.64c-0.49,0 -0.9,0.117 -1.21,0.35c-0.31,0.227 -0.47,0.57 -0.47,1.03c0,0.427 0.15,0.77 0.45,1.03c0.31,0.26 0.72,0.39 1.23,0.39c0.51,0 0.92,-0.13 1.22,-0.39c0.3,-0.26 0.45,-0.603 0.45,-1.03c0,-0.447 -0.15,-0.787 -0.46,-1.02c-0.31,-0.24 -0.71,-0.36 -1.21,-0.36z" fill="#2E2E30"/>
<path id="text_67" d="M10.65,142.49c-0.15,-0.74 -0.6,-1.11 -1.37,-1.11c-0.59,0 -1.04,0.23 -1.33,0.69c-0.29,0.45 -0.44,1.2 -0.43,2.25c0.15,-0.35 0.41,-0.62 0.76,-0.81c0.36,-0.2 0.76,-0.3 1.2,-0.3c0.69,0 1.23,0.21 1.64,0.64c0.41,0.43 0.62,1.02 0.62,1.77c0,0.45 -0.09,0.86 -0.27,1.22c-0.17,0.36 -0.44,0.65 -0.8,0.86c-0.35,0.21 -0.78,0.32 -1.29,0.32c-0.69,0 -1.22,-0.15 -1.61,-0.46c-0.39,-0.31 -0.66,-0.73 -0.81,-1.27c-0.15,-0.54 -0.23,-1.21 -0.23,-2c0,-2.45 0.85,-3.67 2.56,-3.67c0.65,0 1.17,0.18 1.54,0.53c0.37,0.35 0.59,0.8 0.66,1.34zM9.29,143.98c-0.29,0 -0.56,0.06 -0.81,0.18c-0.25,0.11 -0.46,0.29 -0.62,0.53c-0.15,0.23 -0.23,0.52 -0.23,0.86c0,0.51 0.15,0.92 0.44,1.24c0.29,0.31 0.71,0.47 1.26,0.47c0.47,0 0.84,-0.14 1.11,-0.43c0.28,-0.29 0.42,-0.69 0.42,-1.18c0,-0.52 -0.13,-0.93 -0.4,-1.22c-0.27,-0.3 -0.66,-0.45 -1.17,-0.45z" fill="#2E2E30"/>
<path id="text_68" d="M6.4,191.39v-0.69l3.51,-4.86h1.09v4.76h1v0.79h-1v1.61h-0.9v-1.61zM10.14,186.79l-2.69,3.81h2.69z" fill="#2E2E30"/>
<path id="text_69" d="M6.51,237.27c0.85,-0.68 1.51,-1.24 1.99,-1.67c0.48,-0.44 0.88,-0.9 1.21,-1.37c0.33,-0.48 0.5,-0.95 0.5,-1.41c0,-0.43 -0.11,-0.77 -0.32,-1.02c-0.21,-0.25 -0.54,-0.38 -1.01,-0.38c-0.45,0 -0.81,0.14 -1.06,0.43c-0.25,0.28 -0.38,0.66 -0.4,1.13h-0.88c0.03,-0.75 0.25,-1.32 0.68,-1.73c0.43,-0.41 0.98,-0.61 1.65,-0.61c0.69,0 1.23,0.19 1.63,0.57c0.41,0.38 0.61,0.9 0.61,1.57c0,0.55 -0.17,1.09 -0.5,1.62c-0.33,0.52 -0.7,0.98 -1.12,1.38c-0.42,0.39 -0.96,0.85 -1.61,1.38h3.44v0.76h-4.81z" fill="#2E2E30"/>
<path id="text_70" d="M6.62,279.31c0,-1.15 0.19,-2.04 0.56,-2.68c0.37,-0.65 1.03,-0.97 1.96,-0.97c0.93,0 1.58,0.32 1.95,0.97c0.37,0.64 0.56,1.53 0.56,2.68c0,1.17 -0.19,2.07 -0.56,2.72c-0.37,0.65 -1.02,0.97 -1.95,0.97c-0.93,0 -1.59,-0.32 -1.96,-0.97c-0.37,-0.65 -0.56,-1.55 -0.56,-2.72zM10.75,279.31c0,-0.58 -0.04,-1.07 -0.12,-1.47c-0.07,-0.41 -0.23,-0.73 -0.47,-0.98c-0.23,-0.25 -0.57,-0.37 -1.02,-0.37c-0.45,0 -0.8,0.12 -1.04,0.37c-0.23,0.25 -0.39,0.57 -0.47,0.98c-0.07,0.4 -0.11,0.89 -0.11,1.47c0,0.6 0.04,1.1 0.11,1.51c0.08,0.41 0.24,0.73 0.47,0.98c0.24,0.25 0.59,0.37 1.04,0.37c0.45,0 0.79,-0.12 1.02,-0.37c0.24,-0.25 0.4,-0.57 0.47,-0.98c0.08,-0.41 0.12,-0.91 0.12,-1.51z" fill="#2E2E30"/>
</g>
</g>
<path id="x-axis" d="M353.9,294.64c0.92,0 1.7,0.17 2.37,0.51c0.67,0.34 1.18,0.82 1.53,1.45c0.36,0.64 0.54,1.38 0.54,2.24c0,0.85 -0.18,1.6 -0.54,2.23c-0.35,0.62 -0.86,1.1 -1.53,1.44c-0.67,0.33 -1.45,0.49 -2.37,0.49h-2.6v-8.36zM353.9,302.1c1.08,0 1.91,-0.28 2.48,-0.85c0.56,-0.58 0.85,-1.38 0.85,-2.41c0,-1.04 -0.29,-1.86 -0.87,-2.44c-0.56,-0.58 -1.38,-0.88 -2.46,-0.88h-1.51v6.58zM359.38,299.69c0,-0.67 0.13,-1.26 0.4,-1.77c0.28,-0.51 0.65,-0.9 1.12,-1.18c0.48,-0.28 1.01,-0.42 1.6,-0.42c0.57,0 1.07,0.12 1.5,0.37c0.42,0.25 0.74,0.56 0.94,0.93v-1.2h1.11v6.58h-1.11v-1.22c-0.21,0.38 -0.54,0.7 -0.97,0.96c-0.42,0.24 -0.92,0.37 -1.49,0.37c-0.58,0 -1.11,-0.15 -1.58,-0.43c-0.47,-0.29 -0.84,-0.7 -1.12,-1.22c-0.27,-0.52 -0.4,-1.11 -0.4,-1.77zM364.94,299.7c0,-0.5 -0.1,-0.93 -0.3,-1.3c-0.2,-0.36 -0.47,-0.64 -0.81,-0.84c-0.34,-0.2 -0.71,-0.3 -1.12,-0.3c-0.41,0 -0.78,0.1 -1.11,0.29c-0.34,0.19 -0.61,0.47 -0.81,0.84c-0.2,0.37 -0.3,0.8 -0.3,1.3c0,0.5 0.1,0.94 0.3,1.32c0.2,0.37 0.47,0.65 0.81,0.85c0.33,0.19 0.7,0.29 1.11,0.29c0.41,0 0.78,-0.1 1.12,-0.29c0.34,-0.2 0.61,-0.48 0.81,-0.85c0.2,-0.38 0.3,-0.81 0.3,-1.31zM373.56,296.42l-3.96,9.68h-1.13l1.29,-3.17l-2.65,-6.51h1.21l2.07,5.33l2.04,-5.33zM376.98,303.11c-0.5,0 -0.95,-0.09 -1.35,-0.25c-0.4,-0.18 -0.72,-0.42 -0.95,-0.72c-0.23,-0.32 -0.36,-0.67 -0.39,-1.07h1.13c0.03,0.33 0.19,0.59 0.46,0.8c0.28,0.21 0.64,0.31 1.09,0.31c0.42,0 0.74,-0.09 0.98,-0.27c0.24,-0.19 0.36,-0.42 0.36,-0.7c0,-0.29 -0.12,-0.5 -0.38,-0.63c-0.26,-0.15 -0.65,-0.29 -1.19,-0.42c-0.49,-0.13 -0.89,-0.26 -1.2,-0.39c-0.3,-0.13 -0.57,-0.33 -0.79,-0.59c-0.22,-0.26 -0.32,-0.6 -0.32,-1.03c0,-0.33 0.1,-0.64 0.3,-0.92c0.2,-0.28 0.48,-0.5 0.85,-0.66c0.37,-0.17 0.79,-0.25 1.26,-0.25c0.73,0 1.31,0.18 1.76,0.55c0.45,0.37 0.69,0.87 0.72,1.51h-1.09c-0.02,-0.34 -0.16,-0.62 -0.42,-0.83c-0.25,-0.21 -0.58,-0.31 -1.01,-0.31c-0.39,0 -0.7,0.08 -0.93,0.25c-0.24,0.17 -0.35,0.39 -0.35,0.66c0,0.22 0.07,0.4 0.2,0.54c0.15,0.14 0.32,0.25 0.53,0.34c0.22,0.08 0.51,0.17 0.89,0.27c0.47,0.13 0.85,0.26 1.15,0.39c0.3,0.12 0.55,0.3 0.76,0.55c0.21,0.25 0.32,0.57 0.33,0.97c0,0.36 -0.1,0.69 -0.3,0.97c-0.2,0.29 -0.48,0.52 -0.85,0.69c-0.36,0.16 -0.78,0.24 -1.25,0.24z" fill="black" fill-opacity="0.5"/>
</g></svg>