<svg viewBox="0 0 102.8059 51.934" fill="none" xmlns="http://www.w3.org/2000/svg" xmlns:xlink="http://www.w3.org/1999/xlink" id="7133749d" x="0" y="0"><g id="Revised Dashboard" data-node-id="1432:22677" clip-path="url(#clip0_1432_22677)"><g id="col_6" data-node-id="1432:22976"><g id="frame_17" data-node-id="1432:22990"><g id="col_8" data-node-id="1432:22991"><g id="frame_21" data-node-id="1432:23018"><g id="frame_22" data-node-id="1432:23020"><g id="row_7" data-node-id="1432:23021"><g id="group_156" data-node-id="1432:23054"><g id="group_157" data-node-id="1432:23056"><g id="group_158" data-node-id="1432:23057">
<path id="ellipse_8" data-node-id="1432:23058" d="M100.08,44.956c1.419,-0.167 2.438,-1.459 2.188,-2.866c-2.008,-11.267 -7.919,-21.559 -16.791,-29.135c-9.54,-8.147 -21.834,-12.581 -34.526,-12.452c-12.692,0.129 -24.888,4.811 -34.252,13.149c-8.709,7.755 -14.399,18.164 -16.164,29.471c-0.221,1.411 0.824,2.68 2.246,2.818c1.411,0.137 2.659,-0.894 2.885,-2.293c1.63,-10.087 6.732,-19.368 14.511,-26.295c8.428,-7.505 19.405,-11.718 30.828,-11.834c11.422,-0.116 22.487,3.875 31.073,11.207c7.927,6.768 13.227,15.945 15.072,25.999c0.255,1.392 1.523,2.396 2.93,2.231z" fill="#E9EDF0"/>
<path id="ellipse_9" data-node-id="1432:23059" d="M2.777,45.974c-1.421,-0.137 -2.467,-1.405 -2.248,-2.817c1.223,-7.868 4.355,-15.353 9.151,-21.829c5.316,-7.176 12.487,-12.857 20.786,-16.465c8.299,-3.609 17.432,-5.017 26.47,-4.082c8.169,0.846 15.999,3.578 22.845,7.954c1.199,0.767 1.447,2.392 0.591,3.529c-0.825,1.097 -2.371,1.33 -3.529,0.594c-6.135,-3.898 -13.143,-6.332 -20.451,-7.089c-8.135,-0.841 -16.354,0.426 -23.824,3.673c-7.469,3.248 -13.923,8.361 -18.707,14.82c-4.27,5.765 -7.074,12.419 -8.2,19.417c-0.225,1.399 -1.473,2.431 -2.884,2.295z" fill="#4B62FF"/>
</g><g id="group_160" data-node-id="1432:23067">
<ellipse id="ellipse_10" data-node-id="1432:23068" cx="51.200000000000045" cy="36.93399999999997" rx="14.5014" ry="14.5" fill="#ECEAF8"/>
<g id="bxs:smile" data-node-id="1432:23069">
<path id="vector_181" data-node-id="1432:23070" d="M51.397,44.324c3.905,0 7.083,-3.264 7.083,-7.277c0,-4.012 -3.178,-7.277 -7.083,-7.277c-3.906,0 -7.084,3.265 -7.084,7.277c0,4.013 3.178,7.277 7.084,7.277zM53.871,34.864c0.141,-0.004 0.282,0.022 0.413,0.075c0.132,0.053 0.252,0.132 0.353,0.234c0.101,0.101 0.181,0.222 0.236,0.356c0.055,0.133 0.083,0.277 0.083,0.422c0,0.145 -0.028,0.289 -0.083,0.423c-0.055,0.133 -0.136,0.255 -0.237,0.356c-0.101,0.101 -0.221,0.18 -0.353,0.233c-0.131,0.053 -0.272,0.079 -0.413,0.075c-0.276,-0.008 -0.538,-0.126 -0.73,-0.329c-0.193,-0.203 -0.3,-0.475 -0.3,-0.758c0,-0.284 0.108,-0.556 0.3,-0.759c0.193,-0.203 0.455,-0.321 0.731,-0.328zM50.824,39.899c0.378,0.078 0.767,0.078 1.145,0c0.179,-0.038 0.358,-0.095 0.531,-0.169c0.166,-0.073 0.329,-0.163 0.481,-0.268c0.147,-0.104 0.288,-0.223 0.419,-0.356c0.129,-0.133 0.246,-0.277 0.346,-0.431l1.175,0.813c-0.306,0.465 -0.695,0.865 -1.147,1.18c-0.461,0.319 -0.978,0.542 -1.522,0.657c-0.565,0.117 -1.146,0.117 -1.71,0c-0.545,-0.114 -1.062,-0.337 -1.522,-0.657c-0.452,-0.315 -0.842,-0.716 -1.148,-1.181l1.174,-0.813c0.102,0.154 0.218,0.299 0.346,0.43c0.391,0.404 0.889,0.68 1.432,0.795zM48.917,34.864c0.14,0 0.278,0.028 0.407,0.083c0.129,0.055 0.246,0.136 0.345,0.237c0.099,0.102 0.177,0.222 0.23,0.354c0.054,0.133 0.081,0.275 0.081,0.418c0,0.144 -0.028,0.286 -0.081,0.418c-0.054,0.133 -0.132,0.253 -0.231,0.354c-0.098,0.102 -0.216,0.182 -0.344,0.237c-0.129,0.055 -0.268,0.083 -0.407,0.083c-0.282,0 -0.552,-0.115 -0.752,-0.32c-0.199,-0.205 -0.311,-0.483 -0.311,-0.772c0,-0.29 0.112,-0.568 0.312,-0.772c0.199,-0.205 0.47,-0.32 0.751,-0.32z" fill="#344BFD"/>
</g>
</g></g></g></g></g></g></g></g></g></g><defs><clipPath id="clip0_1432_22677">
<rect width="1440" height="1262" fill="white" x="-729.102" y="-741.092"/>
</clipPath></defs></svg>