<svg viewBox="0 0 83.4854 42.2657" fill="none" xmlns="http://www.w3.org/2000/svg" xmlns:xlink="http://www.w3.org/1999/xlink" id="44710474" x="0" y="0"><g id="Revised Dashboard" data-node-id="1432:24567"><g id="Frame 1321314574" data-node-id="1432:24585"><g id="Frame 1321314585" data-node-id="1432:24597"><g id="Frame 1321314373" data-node-id="1432:24623"><g id="Frame 427318939" data-node-id="1432:24631"><g id="Frame 1321314488" data-node-id="1432:24632"><g id="Graph 35" data-node-id="1432:24665"><g id="Group 1000002313_3" data-node-id="1432:24667"><g id="Group 1000002314_2" data-node-id="1432:24668">
<path id="Ellipse 17_2" data-node-id="1432:24669" d="M81.1817,36.5185c1.15,-0.135 1.976,-1.182 1.773,-2.322c-1.627,-9.129 -6.416,-17.467 -13.604,-23.605c-7.731,-6.601 -17.691,-10.193 -27.9744,-10.089c-10.2829,0.104 -20.1648,3.898 -27.752,10.654c-7.0559,6.283 -11.6659,14.717 -13.0963,23.877c-0.1786,1.144 0.6681,2.172 1.8199,2.284c1.1431,0.111 2.1546,-0.724 2.3378,-1.858c1.3203,-8.173 5.4545,-15.693 11.7573,-21.305c6.8285,-6.08 15.7221,-9.494 24.9768,-9.588c9.2549,-0.094 18.2199,3.139 25.1769,9.08c6.422,5.484 10.716,12.919 12.211,21.065c0.207,1.128 1.234,1.941 2.374,1.807z" fill="#E9EDF0"/>
<path id="Ellipse 18_2" data-node-id="1432:24670" d="M2.3451,37.3435c-1.1518,-0.11 -1.9992,-1.138 -1.8215,-2.282c0.991,-6.375 3.5282,-12.44 7.4142,-17.686c4.3067,-5.815 10.1169,-10.417 16.8412,-13.341c6.7243,-2.924 14.1234,-4.064 21.4467,-3.307c6.619,0.685 12.963,2.899 18.509,6.445c0.972,0.621 1.172,1.937 0.479,2.859c-0.669,0.889 -1.921,1.078 -2.859,0.481c-4.971,-3.158 -10.649,-5.13 -16.57,-5.743c-6.5914,-0.682 -13.2507,0.344 -19.3025,2.976c-6.0519,2.631 -11.281,6.773 -15.1571,12.007c-3.4597,4.671 -5.7315,10.062 -6.6434,15.732c-0.1824,1.134 -1.1934,1.969 -2.3366,1.859z" fill="#4B62FF"/>
</g><g id="Group 2" data-node-id="1432:24678">
<ellipse id="Ellipse 1" data-node-id="1432:24679" cx="41.577999999999996" cy="30.01750000000004" rx="11.7493" ry="11.7482" fill="#ECEAF8"/>
<g id="bxs:smile" data-node-id="1432:24680">
<path id="Vector_74" data-node-id="1432:24681" d="M41.737,36.0095c3.1645,0 5.7387,-2.645 5.7387,-5.896c0,-3.252 -2.5742,-5.896 -5.7387,-5.896c-3.1645,0 -5.739,2.644 -5.739,5.896c0,3.251 2.5745,5.896 5.739,5.896zM43.7417,28.3445c0.1144,-0.003 0.2282,0.017 0.3348,0.06c0.1066,0.043 0.2037,0.108 0.2857,0.19c0.0819,0.082 0.147,0.18 0.1915,0.288c0.0444,0.109 0.0673,0.225 0.0673,0.343c-0.0001,0.117 -0.023,0.234 -0.0675,0.342c-0.0446,0.108 -0.1098,0.206 -0.1918,0.288c-0.082,0.082 -0.1791,0.147 -0.2857,0.19c-0.1066,0.043 -0.2205,0.063 -0.3349,0.06c-0.2235,-0.006 -0.4359,-0.102 -0.5918,-0.266c-0.156,-0.165 -0.2432,-0.385 -0.2432,-0.615c0.0001,-0.23 0.0875,-0.45 0.2436,-0.615c0.1561,-0.164 0.3685,-0.259 0.592,-0.265zM41.2733,32.4235c0.3061,0.063 0.6213,0.063 0.9274,0c0.1452,-0.03 0.2898,-0.077 0.4305,-0.137c0.1342,-0.059 0.2662,-0.132 0.3896,-0.217c0.1194,-0.084 0.2336,-0.181 0.3392,-0.288c0.105,-0.108 0.1992,-0.225 0.2807,-0.349l0.9515,0.658c-0.2474,0.377 -0.5628,0.701 -0.9292,0.956c-0.3732,0.259 -0.7922,0.44 -1.2333,0.533c-0.4572,0.094 -0.9282,0.094 -1.3854,-0.001c-0.4412,-0.092 -0.8602,-0.272 -1.2327,-0.532c-0.3664,-0.255 -0.6821,-0.58 -0.9303,-0.956l0.9515,-0.659c0.0821,0.124 0.1762,0.242 0.2801,0.348c0.3168,0.327 0.7204,0.551 1.1604,0.644zM39.7283,28.3445c0.1131,0 0.2251,0.023 0.3296,0.067c0.1044,0.045 0.1993,0.11 0.2793,0.192c0.0799,0.082 0.1433,0.18 0.1866,0.287c0.0432,0.108 0.0654,0.223 0.0654,0.339c0,0.116 -0.0224,0.231 -0.0657,0.338c-0.0433,0.108 -0.1067,0.205 -0.1867,0.287c-0.08,0.082 -0.175,0.148 -0.2795,0.192c-0.1045,0.044 -0.2164,0.067 -0.3295,0.067c-0.2284,0 -0.4474,-0.093 -0.6089,-0.259c-0.1614,-0.166 -0.2521,-0.391 -0.252,-0.626c0.0001,-0.234 0.0909,-0.459 0.2524,-0.625c0.1616,-0.166 0.3807,-0.259 0.609,-0.259z" fill="#344BFD"/>
</g>
</g></g></g></g></g></g></g></g></g><defs/></svg>