<svg viewBox="0 0 148.9604 54" x="0" y="0" fill="none" xmlns="http://www.w3.org/2000/svg"><defs><mask id="mask0_1477_20898" style="mask-type:luminance" maskUnits="userSpaceOnUse" x="8.480200000000004" y="22" width="28" height="23" xmlns="http://www.w3.org/2000/svg">
<g id="SVGID_00000165928890544357328630000010163460873986055059_" data-node-id="1477:20917">
<path id="Vector_6" data-node-id="1477:20918" d="M35.5996,35.5458c-0.6668,-0.6528 -1.6168,-0.6213 -2.4643,-0.316c-0.4318,0.1555 -0.8361,0.3706 -1.2242,0.6025c-0.2328,0.139 -0.6963,0.6455 -0.9805,0.5906c-0.1961,-0.0376 -0.2265,-0.3356 -0.2866,-0.4777c-0.527,-1.2469 -1.6619,-2.404 -2.5715,-3.4289c-1.0206,-1.1494 -2.11,-2.2447 -3.1953,-3.3414c-1.8517,-1.8714 -3.5549,-3.9282 -4.6915,-6.2462c-0.3547,0.293 -1.0669,0.8836 -1.2138,1.0242c-1.4169,1.3571 -2.9607,2.6225 -4.6251,3.7181c-0.7719,0.5081 -1.5756,0.9812 -2.4317,1.3599c-0.7619,0.3371 -1.591,0.6167 -2.4464,0.6244c-0.0054,0 -0.0091,-0.0023 -0.0146,-0.0027c-0.1944,0.5699 -0.3467,1.1578 -0.451,1.7619c-1.2413,7.182 2.7626,12.1298 9.9734,13.172c4.2563,0.6152 8.355,-0.9873 11.0149,-3.9024c1.0369,0.9677 3.0738,0.6628 4.6089,-0.7113c1.5672,-1.402 2.1371,-3.3122 0.9993,-4.427z" fill="white"/>
</g>
</mask><mask id="mask1_1477_20898" style="mask-type:luminance" maskUnits="userSpaceOnUse" x="8.480200000000004" y="22" width="28" height="23" xmlns="http://www.w3.org/2000/svg">
<g id="SVGID_00000165928890544357328630000010163460873986055059__2" data-node-id="1477:20921">
<path id="Vector_8" data-node-id="1477:20922" d="M35.5996,35.5458c-0.6668,-0.6528 -1.6168,-0.6213 -2.4643,-0.316c-0.4318,0.1555 -0.8361,0.3706 -1.2242,0.6025c-0.2328,0.139 -0.6963,0.6455 -0.9805,0.5906c-0.1961,-0.0376 -0.2265,-0.3356 -0.2866,-0.4777c-0.527,-1.2469 -1.6619,-2.404 -2.5715,-3.4289c-1.0206,-1.1494 -2.11,-2.2447 -3.1953,-3.3414c-1.8517,-1.8714 -3.5549,-3.9282 -4.6915,-6.2462c-0.3547,0.293 -1.0669,0.8836 -1.2138,1.0242c-1.4169,1.3571 -2.9607,2.6225 -4.6251,3.7181c-0.7719,0.5081 -1.5756,0.9812 -2.4317,1.3599c-0.7619,0.3371 -1.591,0.6167 -2.4464,0.6244c-0.0054,0 -0.0091,-0.0023 -0.0146,-0.0027c-0.1944,0.5699 -0.3467,1.1578 -0.451,1.7619c-1.2413,7.182 2.7626,12.1298 9.9734,13.172c4.2563,0.6152 8.355,-0.9873 11.0149,-3.9024c1.0369,0.9677 3.0738,0.6628 4.6089,-0.7113c1.5672,-1.402 2.1371,-3.3122 0.9993,-4.427z" fill="white"/>
</g>
</mask><mask id="mask2_1477_20898" style="mask-type:luminance" maskUnits="userSpaceOnUse" x="8.480200000000004" y="22" width="28" height="23" xmlns="http://www.w3.org/2000/svg">
<g id="SVGID_00000165928890544357328630000010163460873986055059__3" data-node-id="1477:20925">
<path id="Vector_10" data-node-id="1477:20926" d="M35.5996,35.5458c-0.6668,-0.6528 -1.6168,-0.6213 -2.4643,-0.316c-0.4318,0.1555 -0.8361,0.3706 -1.2242,0.6025c-0.2328,0.139 -0.6963,0.6455 -0.9805,0.5906c-0.1961,-0.0376 -0.2265,-0.3356 -0.2866,-0.4777c-0.527,-1.2469 -1.6619,-2.404 -2.5715,-3.4289c-1.0206,-1.1494 -2.11,-2.2447 -3.1953,-3.3414c-1.8517,-1.8714 -3.5549,-3.9282 -4.6915,-6.2462c-0.3547,0.293 -1.0669,0.8836 -1.2138,1.0242c-1.4169,1.3571 -2.9607,2.6225 -4.6251,3.7181c-0.7719,0.5081 -1.5756,0.9812 -2.4317,1.3599c-0.7619,0.3371 -1.591,0.6167 -2.4464,0.6244c-0.0054,0 -0.0091,-0.0023 -0.0146,-0.0027c-0.1944,0.5699 -0.3467,1.1578 -0.451,1.7619c-1.2413,7.182 2.7626,12.1298 9.9734,13.172c4.2563,0.6152 8.355,-0.9873 11.0149,-3.9024c1.0369,0.9677 3.0738,0.6628 4.6089,-0.7113c1.5672,-1.402 2.1371,-3.3122 0.9993,-4.427z" fill="white"/>
</g>
</mask><mask id="mask3_1477_20898" style="mask-type:luminance" maskUnits="userSpaceOnUse" x="8.480200000000004" y="22" width="28" height="23" xmlns="http://www.w3.org/2000/svg">
<g id="SVGID_00000165928890544357328630000010163460873986055059__4" data-node-id="1477:20929">
<path id="Vector_12" data-node-id="1477:20930" d="M35.5996,35.5458c-0.6668,-0.6528 -1.6168,-0.6213 -2.4643,-0.316c-0.4318,0.1555 -0.8361,0.3706 -1.2242,0.6025c-0.2328,0.139 -0.6963,0.6455 -0.9805,0.5906c-0.1961,-0.0376 -0.2265,-0.3356 -0.2866,-0.4777c-0.527,-1.2469 -1.6619,-2.404 -2.5715,-3.4289c-1.0206,-1.1494 -2.11,-2.2447 -3.1953,-3.3414c-1.8517,-1.8714 -3.5549,-3.9282 -4.6915,-6.2462c-0.3547,0.293 -1.0669,0.8836 -1.2138,1.0242c-1.4169,1.3571 -2.9607,2.6225 -4.6251,3.7181c-0.7719,0.5081 -1.5756,0.9812 -2.4317,1.3599c-0.7619,0.3371 -1.591,0.6167 -2.4464,0.6244c-0.0054,0 -0.0091,-0.0023 -0.0146,-0.0027c-0.1944,0.5699 -0.3467,1.1578 -0.451,1.7619c-1.2413,7.182 2.7626,12.1298 9.9734,13.172c4.2563,0.6152 8.355,-0.9873 11.0149,-3.9024c1.0369,0.9677 3.0738,0.6628 4.6089,-0.7113c1.5672,-1.402 2.1371,-3.3122 0.9993,-4.427z" fill="white"/>
</g>
</mask></defs><g id="Frame 427318911" xmlns="http://www.w3.org/2000/svg">
<g id="Group">
<g id="Group_2">
<g id="Group_3">
<g id="Group_4">
<path id="Vector" d="M46.4687,36.8727c0,0 2.9153,-0.9386 3.401,-4.0791c0.4857,-3.1406 -3.3371,-3.6367 -3.3371,-3.6367c2.1229,-1.2846 1.9135,-3.8756 1.9135,-3.8756c0.592,-4.6452 -3.2587,-5.2296 -3.2587,-5.2296c0,0 1.6815,-1.4939 1.2563,-3.7189c-0.8261,-4.3257 -5.4096,-3.6909 -5.4096,-3.6909c-0.2111,-2.2162 -1.7912,-4.1086 -4.0243,-4.6831c-0.0338,-0.0089 -0.0676,-0.0173 -0.1014,-0.0254c-2.2824,-0.5626 -4.7032,0.3794 -6.0367,2.2719l-0.1874,0.2661c-0.053,-0.2757 -0.1669,-0.5645 -0.3121,-0.8475c-0.7498,-1.4635 -2.1722,-2.4977 -3.8194,-2.909c-3.9142,-0.977 -6.1369,1.6939 -6.1369,1.6939c-1.4061,-2.0357 -5.2352,-1.7212 -5.2352,-1.7212c-8.4542,0.9966 -7.3393,9.0661 -7.3393,9.0661c0,0 -3.55,-2.6832 -6.7139,2.3571c-3.1644,5.0399 1.3368,9.1943 1.3368,9.1943c-0.7869,0.2074 -1.6544,1.5334 -1.6544,1.5334c-2.4409,5.1455 4.5138,7.3714 4.5138,7.3714c-3.146,5.0499 3.8958,5.5906 3.8958,5.5906c0.3914,2.9378 3.0956,0.8805 3.0956,0.8805c-0.5483,3.5622 2.4813,2.1913 2.4813,2.1913c0.4432,2.1824 2.6329,0.1225 2.6329,0.1225l0.4051,-0.0311c-0.0426,0.8982 0.6442,1.7031 1.6323,1.846c0.872,0.1259 1.6919,-0.3069 2.052,-1.0054c0.4126,0.8383 1.3168,1.4923 2.4534,1.6567c1.6923,0.2446 3.2587,-0.6863 3.5382,-2.0853c0.2617,0.4409 0.7286,0.7727 1.3094,0.8564c0.7881,0.1141 1.5313,-0.2604 1.8847,-0.8752c1.0297,2.798 3.6312,0.8925 3.6312,0.8925c2.0108,1.6409 3.164,-0.5553 3.164,-0.5553c0,0 1.8034,1.6609 4.2417,-0.7853c1.3669,-1.3714 0.4749,-3.9574 0.4749,-3.9574c0,0 2.2243,1.9631 4.2125,0.1452c2.1984,-2.0112 0.04,-4.2239 0.04,-4.2239z" fill="#1A0000" stroke="#1A0000" stroke-width="0.298591" stroke-miterlimit="10" stroke-linecap="round"/>
<g id="Group_5">
<g id="Group_6">
<path id="Vector_2" d="M4.3283,10.5465c0.5404,-0.0342 1.2213,-0.0001 1.2363,0.6417c0.0059,0.2542 -0.0951,0.5456 -0.2353,0.7626c-0.0768,0.1187 -0.1657,0.2408 -0.3188,0.2861c-0.2841,0.0841 -0.4256,-0.1966 -0.2904,-0.3971c0.2867,-0.4243 1.0819,-0.3598 1.394,-0.0099c0.3088,0.3456 0.1244,0.9281 -0.3496,1.0441c0.0467,0.0741 0.0939,0.1482 0.1406,0.2224c0.3722,-0.2654 0.8558,0.0265 0.9538,0.3928c0.053,0.1974 0.0213,0.4086 -0.0551,0.5972c-0.0534,0.1321 -0.1422,0.2515 -0.123,0.3994c0.0358,0.2768 0.3897,0.4877 0.5482,0.7062c0.2228,0.3072 0.3622,0.6482 0.4339,1.0104c0.0334,0.1682 0.3117,0.0967 0.2788,-0.0707c-0.0847,-0.4286 -0.2658,-0.8337 -0.5475,-1.1847c-0.1965,-0.245 -0.4427,-0.3541 -0.3471,-0.7116c0.0534,-0.1989 0.1323,-0.3621 0.1247,-0.5737c-0.0242,-0.6836 -0.819,-1.2182 -1.4712,-0.7535c-0.1197,0.0853 0.0121,0.2538 0.1407,0.2223c0.5541,-0.1359 0.8482,-0.7261 0.6542,-1.215c-0.2095,-0.5288 -0.9246,-0.7423 -1.4754,-0.578c-0.2779,0.083 -0.5574,0.2704 -0.6313,0.5438c-0.0634,0.2347 0.0422,0.5039 0.2933,0.6002c0.6935,0.2666 1.1003,-0.6501 1.1596,-1.124c0.0421,-0.3368 -0.0505,-0.6801 -0.3576,-0.889c-0.3284,-0.2235 -0.7677,-0.2116 -1.1554,-0.1874c-0.1848,0.0111 -0.1865,0.2769 -0.0004,0.2654z" fill="#1A0000"/>
</g>
</g>
<g id="Group_7">
<g id="Group_8">
<path id="Vector_3" d="M49.9341,17.0164c-0.5821,-0.3479 -1.3594,-0.5856 -1.7946,0.0784c-0.2804,0.4282 -0.4673,1.3433 0.126,1.6282c0.2428,0.1168 0.5203,0.0484 0.6764,-0.1555c0.1844,-0.2412 0.1214,-0.5553 -0.0447,-0.7892c-0.3304,-0.465 -1.0648,-0.6866 -1.6014,-0.3882c-0.5307,0.2953 -0.6371,1.0395 -0.1894,1.4358c0.1264,0.1118 0.2879,-0.0288 0.227,-0.1612c-0.3342,-0.727 -1.3786,-0.5008 -1.7091,0.0956c-0.0938,0.1689 -0.1193,0.3398 -0.1568,0.5226c-0.0635,0.3084 -0.3935,0.3195 -0.6547,0.4267c-0.4389,0.1801 -0.8178,0.4558 -1.1216,0.7972c-0.1168,0.1314 0.0864,0.3207 0.2045,0.1882c0.2595,-0.2919 0.57,-0.5315 0.9371,-0.7008c0.2692,-0.1241 0.7319,-0.1494 0.8708,-0.4336c0.0605,-0.1233 0.0426,-0.2685 0.0718,-0.3986c0.0405,-0.1817 0.1281,-0.3614 0.2708,-0.4947c0.3079,-0.2876 0.8553,-0.2657 1.0381,0.1318c0.0755,-0.0538 0.151,-0.1076 0.227,-0.1609c-0.3167,-0.2804 -0.2399,-0.8042 0.131,-1.0185c0.4556,-0.263 1.2087,0.0212 1.3106,0.515c0.0338,0.1651 -0.0297,0.4267 -0.298,0.374c-0.2274,-0.0445 -0.2724,-0.3091 -0.2774,-0.4804c-0.0063,-0.2169 0.0417,-0.4477 0.1314,-0.6482c0.106,-0.2369 0.2925,-0.4409 0.5896,-0.4612c0.3242,-0.0219 0.6317,0.172 0.8908,0.3268c0.1552,0.0937 0.3004,-0.1363 0.1448,-0.2293z" fill="#1A0000"/>
</g>
</g>
</g>
<path id="Vector_4" d="M10.3178,40.2651l-0.6539,-0.9232l-0.7022,0.8026l0.1657,-1.2715l-0.7661,-0.4428l0.9647,-0.0419l0.464,-0.9166l0.2883,0.9693l0.9834,0.1789l-0.7748,0.3929z" fill="white" stroke="white" stroke-width="0.0711279" stroke-miterlimit="10" stroke-linecap="round"/>
<path id="Vector_5" d="M9.622,30.0879c0,0 -0.0045,-13.3744 13.9961,-12.2392c13.271,1.076 10.7771,17.5445 7.2726,19.2027l-0.234,0.4216c0,0 2.1525,-9.6992 -2.5202,-14.5452c-3.0451,-3.1579 -8.1663,-3.5761 -11.8961,-1.1179c-1.9431,1.2807 -4.7962,4.7373 -6.6184,8.278z" fill="#FFD44D" stroke="#FFD44D" stroke-width="0.272303" stroke-miterlimit="10"/>
</g>
</g>
<g id="Group_9">
<g id="Clip path group">
<mask id="mask0_1477_20898" style="mask-type:luminance" maskUnits="userSpaceOnUse" x="45" y="58" width="28" height="23">
<g id="SVGID_00000165928890544357328630000010163460873986055059_">
<path id="Vector_6" d="M72.1194 71.5458C71.4526 70.893 70.5026 70.9245 69.6551 71.2298C69.2233 71.3853 68.819 71.6004 68.4309 71.8323C68.1981 71.9713 67.7346 72.4778 67.4504 72.4229C67.2543 72.3853 67.2239 72.0873 67.1638 71.9452C66.6368 70.6983 65.5019 69.5412 64.5923 68.5163C63.5717 67.3669 62.4823 66.2716 61.397 65.1749C59.5453 63.3035 57.8421 61.2467 56.7055 58.9287C56.3508 59.2217 55.6386 59.8123 55.4917 59.9529C54.0748 61.31 52.531 62.5754 50.8666 63.671C50.0947 64.1791 49.291 64.6522 48.4349 65.0309C47.673 65.368 46.8439 65.6476 45.9885 65.6553C45.9831 65.6553 45.9794 65.653 45.9739 65.6526C45.7795 66.2225 45.6272 66.8104 45.5229 67.4145C44.2816 74.5965 48.2855 79.5443 55.4963 80.5865C59.7526 81.2017 63.8513 79.5992 66.5112 76.6841C67.5481 77.6518 69.585 77.3469 71.1201 75.9728C72.6873 74.5708 73.2572 72.6606 72.1194 71.5458Z" fill="white"/>
</g>
</mask>
<g mask="url(#mask0_1477_20898)">
<path id="Vector_7" d="M35.5996,35.5458c-0.6668,-0.6528 -1.6168,-0.6213 -2.4643,-0.316c-0.4318,0.1555 -0.8361,0.3706 -1.2242,0.6025c-0.2328,0.139 -0.6963,0.6455 -0.9805,0.5906c-0.1961,-0.0376 -0.2265,-0.3356 -0.2866,-0.4777c-0.527,-1.2469 -1.6619,-2.404 -2.5715,-3.4289c-1.0206,-1.1494 -2.11,-2.2447 -3.1953,-3.3414c-1.8517,-1.8714 -3.5549,-3.9282 -4.6915,-6.2462c-0.3547,0.293 -1.0669,0.8836 -1.2138,1.0242c-1.4169,1.3571 -2.9607,2.6225 -4.6251,3.7181c-0.7719,0.5081 -1.5756,0.9812 -2.4317,1.3599c-0.7619,0.3371 -1.591,0.6167 -2.4464,0.6244c-0.0054,0 -0.0091,-0.0023 -0.0146,-0.0027c-0.1944,0.5699 -0.3467,1.1578 -0.451,1.7619c-1.2413,7.182 2.7626,12.1298 9.9734,13.172c4.2563,0.6152 8.355,-0.9873 11.0149,-3.9024c1.0369,0.9677 3.0738,0.6628 4.6089,-0.7113c1.5672,-1.402 2.1371,-3.3122 0.9993,-4.427z" fill="#CD5428" stroke="#CD5428" stroke-width="0.280389" stroke-miterlimit="10"/>
</g>
</g>
<g id="Clip path group_2">
<mask id="mask1_1477_20898" style="mask-type:luminance" maskUnits="userSpaceOnUse" x="45" y="58" width="28" height="23">
<g id="SVGID_00000165928890544357328630000010163460873986055059__2">
<path id="Vector_8" d="M72.1194 71.5458C71.4526 70.893 70.5026 70.9245 69.6551 71.2298C69.2233 71.3853 68.819 71.6004 68.4309 71.8323C68.1981 71.9713 67.7346 72.4778 67.4504 72.4229C67.2543 72.3853 67.2239 72.0873 67.1638 71.9452C66.6368 70.6983 65.5019 69.5412 64.5923 68.5163C63.5717 67.3669 62.4823 66.2716 61.397 65.1749C59.5453 63.3035 57.8421 61.2467 56.7055 58.9287C56.3508 59.2217 55.6386 59.8123 55.4917 59.9529C54.0748 61.31 52.531 62.5754 50.8666 63.671C50.0947 64.1791 49.291 64.6522 48.4349 65.0309C47.673 65.368 46.8439 65.6476 45.9885 65.6553C45.9831 65.6553 45.9794 65.653 45.9739 65.6526C45.7795 66.2225 45.6272 66.8104 45.5229 67.4145C44.2816 74.5965 48.2855 79.5443 55.4963 80.5865C59.7526 81.2017 63.8513 79.5992 66.5112 76.6841C67.5481 77.6518 69.585 77.3469 71.1201 75.9728C72.6873 74.5708 73.2572 72.6606 72.1194 71.5458Z" fill="white"/>
</g>
</mask>
<g mask="url(#mask1_1477_20898)">
<path id="Vector_9" opacity="0.49" d="M26.7194,40.9028c-0.6305,1.6401 -2.5861,2.4992 -4.3682,1.9189c-1.782,-0.5802 -2.7154,-2.3801 -2.085,-4.0203c0.6305,-1.6402 2.5861,-2.4992 4.3682,-1.919c1.7821,0.5803 2.7154,2.3802 2.085,4.0204z" fill="#8B2A0C" stroke="#8B2A0C" stroke-width="0.337564" stroke-miterlimit="10"/>
</g>
</g>
<g id="Clip path group_3">
<mask id="mask2_1477_20898" style="mask-type:luminance" maskUnits="userSpaceOnUse" x="45" y="58" width="28" height="23">
<g id="SVGID_00000165928890544357328630000010163460873986055059__3">
<path id="Vector_10" d="M72.1194 71.5458C71.4526 70.893 70.5026 70.9245 69.6551 71.2298C69.2233 71.3853 68.819 71.6004 68.4309 71.8323C68.1981 71.9713 67.7346 72.4778 67.4504 72.4229C67.2543 72.3853 67.2239 72.0873 67.1638 71.9452C66.6368 70.6983 65.5019 69.5412 64.5923 68.5163C63.5717 67.3669 62.4823 66.2716 61.397 65.1749C59.5453 63.3035 57.8421 61.2467 56.7055 58.9287C56.3508 59.2217 55.6386 59.8123 55.4917 59.9529C54.0748 61.31 52.531 62.5754 50.8666 63.671C50.0947 64.1791 49.291 64.6522 48.4349 65.0309C47.673 65.368 46.8439 65.6476 45.9885 65.6553C45.9831 65.6553 45.9794 65.653 45.9739 65.6526C45.7795 66.2225 45.6272 66.8104 45.5229 67.4145C44.2816 74.5965 48.2855 79.5443 55.4963 80.5865C59.7526 81.2017 63.8513 79.5992 66.5112 76.6841C67.5481 77.6518 69.585 77.3469 71.1201 75.9728C72.6873 74.5708 73.2572 72.6606 72.1194 71.5458Z" fill="white"/>
</g>
</mask>
<g mask="url(#mask2_1477_20898)">
<path id="Vector_11" opacity="0.49" d="M13.1315,38.3329c-0.5641,1.4677 -2.3144,2.2369 -3.9096,1.7173c-1.5947,-0.5192 -2.4304,-2.1301 -1.8659,-3.5983c0.5641,-1.4677 2.3145,-2.2369 3.9096,-1.7173c1.5947,0.5192 2.43,2.1302 1.8659,3.5983z" fill="#8B2A0C" stroke="#8B2A0C" stroke-width="0.302111" stroke-miterlimit="10"/>
</g>
</g>
<g id="Clip path group_4">
<mask id="mask3_1477_20898" style="mask-type:luminance" maskUnits="userSpaceOnUse" x="45" y="58" width="28" height="23">
<g id="SVGID_00000165928890544357328630000010163460873986055059__4">
<path id="Vector_12" d="M72.1194 71.5458C71.4526 70.893 70.5026 70.9245 69.6551 71.2298C69.2233 71.3853 68.819 71.6004 68.4309 71.8323C68.1981 71.9713 67.7346 72.4778 67.4504 72.4229C67.2543 72.3853 67.2239 72.0873 67.1638 71.9452C66.6368 70.6983 65.5019 69.5412 64.5923 68.5163C63.5717 67.3669 62.4823 66.2716 61.397 65.1749C59.5453 63.3035 57.8421 61.2467 56.7055 58.9287C56.3508 59.2217 55.6386 59.8123 55.4917 59.9529C54.0748 61.31 52.531 62.5754 50.8666 63.671C50.0947 64.1791 49.291 64.6522 48.4349 65.0309C47.673 65.368 46.8439 65.6476 45.9885 65.6553C45.9831 65.6553 45.9794 65.653 45.9739 65.6526C45.7795 66.2225 45.6272 66.8104 45.5229 67.4145C44.2816 74.5965 48.2855 79.5443 55.4963 80.5865C59.7526 81.2017 63.8513 79.5992 66.5112 76.6841C67.5481 77.6518 69.585 77.3469 71.1201 75.9728C72.6873 74.5708 73.2572 72.6606 72.1194 71.5458Z" fill="white"/>
</g>
</mask>
<g mask="url(#mask3_1477_20898)">
<g id="Group_10">
<g id="Group_11">
<path id="Vector_13" d="M32.6146,42.3178l-0.6534,-0.9232l-0.7026,0.8026l0.1656,-1.2719l-0.766,-0.4427l0.9647,-0.0415l0.4639,-0.9167l0.2888,0.9693l0.983,0.179l-0.7748,0.3928z" fill="white" stroke="white" stroke-width="0.0711279" stroke-miterlimit="10" stroke-linecap="round"/>
<g id="Group_12">
<g id="Group_13">
<path id="Vector_14" d="M31.9365,36.889c0.5036,-0.4178 1.0857,-0.7807 1.7812,-0.9478c0.3434,-0.0814 0.7423,-0.0991 1.112,0.0553c0.3663,0.1636 0.6279,0.4647 0.721,0.8383c0.0759,0.3772 -0.0534,0.7247 -0.2107,1.0181c-0.169,0.2934 -0.3751,0.5557 -0.6071,0.7926c-0.4602,0.4762 -0.9964,0.8737 -1.5739,1.2047c0.4728,-0.4485 0.9201,-0.912 1.316,-1.3971c0.1903,-0.2469 0.3751,-0.4957 0.5024,-0.7615c0.1297,-0.2604 0.2149,-0.5403 0.1569,-0.7811c-0.0459,-0.2319 -0.2433,-0.472 -0.4811,-0.5826c-0.2433,-0.1228 -0.5579,-0.129 -0.8696,-0.0887c-0.6283,0.098 -1.2525,0.3553 -1.8471,0.6498z" fill="#8B2A0C"/>
</g>
<g id="Group_14">
<path id="Vector_15" d="M29.9687,40.7114c0.1557,-0.1932 0.2729,-0.4083 0.3843,-0.6229c0.1093,-0.2162 0.2065,-0.4382 0.2896,-0.6644c0.1765,-0.4493 0.3046,-0.9136 0.4327,-1.3802c-0.0309,0.2389 -0.0722,0.477 -0.1306,0.7124c-0.0601,0.2346 -0.1306,0.4674 -0.2166,0.6955c-0.1807,0.4508 -0.3993,0.9051 -0.7594,1.2596z" fill="#8B2A0C"/>
</g>
</g>
</g>
<g id="Group_15">
<g id="Group_16">
<path id="Vector_16" d="M20.1519,22.4714c-0.4611,0.192 -0.8958,0.4877 -1.0932,0.9312c-0.1652,0.371 -0.1485,0.8395 0.1544,1.149c0.262,0.2677 0.7623,0.391 1.0556,0.0941c0.2245,-0.2273 0.2295,-0.6244 -0.0834,-0.7861c-0.3993,-0.2062 -0.9722,-0.0223 -1.2864,0.2381c-0.3417,0.2834 -0.4915,0.74 -0.3918,1.1517c0.0901,0.3725 0.4552,0.7247 0.8992,0.5918c0.3601,-0.1075 0.4815,-0.5757 0.106,-0.7431c-0.4298,-0.1916 -0.9238,0.1114 -1.102,0.4708c-0.2382,0.4797 0.0284,1.0088 0.3726,1.3771c0.1148,0.1229 0.3071,-0.0557 0.1932,-0.1778c-0.247,-0.2642 -0.4615,-0.6332 -0.358,-0.9923c0.0451,-0.1559 0.1556,-0.2984 0.3017,-0.3882c0.0963,-0.0592 0.5941,-0.2166 0.5516,0.0748c-0.0334,0.2281 -0.3922,0.1567 -0.5074,0.0596c-0.1485,-0.1256 -0.2078,-0.3242 -0.2141,-0.5043c-0.0121,-0.3506 0.1886,-0.6854 0.5204,-0.8583c0.2127,-0.1109 0.9538,-0.2772 0.8862,0.1467c-0.0672,0.4225 -0.6317,0.247 -0.8057,-0.003c-0.4765,-0.6859 0.3233,-1.3583 0.94,-1.6152c0.159,-0.0661 0.0205,-0.2827 -0.1389,-0.2166z" fill="#1A0000"/>
</g>
</g>
<g id="Group_17">
<g id="Group_18">
<g id="Group_19">
<g id="Group_20">
<path id="Vector_17" d="M15.5068,35.1907c0.1118,-0.3022 0.3121,-0.5876 0.6021,-0.7946c0.2841,-0.2096 0.6764,-0.3275 1.0515,-0.2834c0.1848,0.0192 0.3726,0.0676 0.5415,0.1544c0.164,0.0945 0.3071,0.2204 0.4014,0.371c0.1949,0.2987 0.2266,0.6459 0.1674,0.9593c-0.0535,-0.3134 -0.1657,-0.6141 -0.3564,-0.8414c-0.1907,-0.2289 -0.4719,-0.351 -0.784,-0.3752c-0.3079,-0.04 -0.6163,0.0395 -0.8916,0.1878c-0.2742,0.1528 -0.5212,0.3694 -0.7319,0.6221z" fill="#8B2A0C"/>
</g>
</g>
<g id="Group_21" opacity="0.53">
<g id="Group_22">
<path id="Vector_18" d="M15.5244,35.1929c0,0 0.6513,-1.136 1.838,-0.8595c1.0189,0.2373 0.9071,1.3618 0.9071,1.3618" fill="#8B2A0C"/>
<path id="Vector_19" d="M15.5244,35.1934c0.1239,-0.298 0.3363,-0.5761 0.6342,-0.7731c0.2925,-0.1993 0.6893,-0.3037 1.0623,-0.2465c0.184,0.0257 0.3693,0.0802 0.5349,0.1732c0.1602,0.0998 0.2979,0.2312 0.386,0.3844c0.1827,0.3053 0.1998,0.6536 0.1277,0.9643c-0.0405,-0.3149 -0.1402,-0.6195 -0.3217,-0.8529c-0.1811,-0.2355 -0.4573,-0.3672 -0.7682,-0.4025c-0.3058,-0.0507 -0.6175,0.018 -0.8987,0.1567c-0.28,0.1436 -0.5358,0.3514 -0.7565,0.5964z" fill="#8B2A0C"/>
</g>
</g>
</g>
<g id="Group_23">
<path id="Vector_20" d="M9.503,32.076c-0.108,1.6383 1.2576,3.045 3.0501,3.1413c1.7925,0.0964 3.333,-1.1532 3.4406,-2.7914c0.1081,-1.6383 -1.2576,-3.045 -3.05,-3.1413c-1.7921,-0.0968 -3.3326,1.1532 -3.4407,2.7914z" fill="white"/>
<path id="Vector_21" d="M11.0832,31.514c-0.2428,1.2423 0.5625,2.4282 1.7992,2.649c1.2367,0.2208 2.4359,-0.6075 2.6791,-1.8495c0.2433,-1.2419 -0.5624,-2.4281 -1.7991,-2.6489c-1.2368,-0.2209 -2.4363,0.6071 -2.6792,1.8494z" fill="#280707" stroke="#280707" stroke-width="0.282609" stroke-miterlimit="10"/>
<g id="Group_24">
<g id="Group_25">
<path id="Vector_22" d="M16.0716,31.8192c-0.1702,-0.3272 -0.3605,-0.6425 -0.5908,-0.9259c-0.2228,-0.2865 -0.4657,-0.5553 -0.749,-0.7745c-0.2883,-0.2124 -0.5983,-0.3837 -0.9267,-0.505c-0.3363,-0.1018 -0.683,-0.1686 -1.0422,-0.1602c-0.7302,-0.0019 -1.4479,0.1867 -2.0137,0.5868c-0.5875,0.3856 -0.9755,1.02 -1.205,1.6813l-0.0384,0.111l-0.0905,-0.0319c-0.2145,-0.0753 -0.4273,-0.1555 -0.638,-0.2431l0.0096,-0.0315l0.6609,0.1659l-0.025,0.0154c0.1389,-0.7162 0.5161,-1.4083 1.1295,-1.8814c0.6087,-0.4746 1.419,-0.7047 2.2106,-0.6939c0.3988,-0.0015 0.7948,0.0722 1.1657,0.2058c0.3647,0.1475 0.6989,0.3533 0.9868,0.606c0.5625,0.5177 0.9601,1.1709 1.1908,1.8679z" fill="black"/>
</g>
<g id="Group_26">
<path id="Vector_23" d="M9.5355,31.2791l-0.6117,-0.4559l0.7715,0.1418z" fill="black"/>
</g>
<g id="Group_27">
<path id="Vector_24" d="M9.8413,30.6139l-0.5103,-0.5211l0.7194,0.2323z" fill="black"/>
</g>
</g>
<g id="Group_28">
<path id="Vector_25" d="M15.0848,34.4572c-0.3972,0.2988 -0.8641,0.5223 -1.3614,0.6667c-0.497,0.1459 -1.0344,0.2004 -1.563,0.1375c-0.2662,-0.0258 -0.5203,-0.1072 -0.7724,-0.1863c-0.2353,-0.116 -0.4815,-0.2135 -0.6792,-0.379c-0.2203,-0.1363 -0.3843,-0.3284 -0.5579,-0.505c-0.159,-0.1882 -0.2871,-0.3975 -0.4156,-0.5983c0.353,0.3425 0.6985,0.6785 1.1208,0.9113c0.4063,0.2492 0.8682,0.4086 1.3477,0.4589c0.4777,0.0622 0.9705,0.0272 1.4541,-0.0657c0.4823,-0.0998 0.9638,-0.2412 1.4269,-0.4401z" fill="black"/>
</g>
</g>
<g id="Group_29">
<path id="Vector_26" d="M27.0996,34.9771c-0.459,1.6955 -2.3888,2.7331 -4.3106,2.318c-1.9218,-0.4155 -3.1081,-2.1268 -2.6495,-3.8222c0.459,-1.6955 2.3887,-2.7331 4.311,-2.318c1.9218,0.4151 3.1076,2.1264 2.6491,3.8222z" fill="white"/>
<path id="Vector_27" d="M27.0903,34.2043c-0.1749,1.3099 -1.4087,2.2684 -2.7564,2.1413c-1.3477,-0.1271 -2.2986,-1.2922 -2.1238,-2.6022c0.1749,-1.3099 1.4087,-2.2684 2.7564,-2.1413c1.3477,0.1275 2.2986,1.2923 2.1238,2.6022z" fill="#280707" stroke="#280707" stroke-width="0.299669" stroke-miterlimit="10"/>
<g id="Group_30">
<g id="Group_31">
<path id="Vector_28" d="M20.2815,32.9413c0.3838,-0.7012 0.9913,-1.3049 1.7645,-1.7177c0.3872,-0.2074 0.8274,-0.3372 1.2826,-0.3906c0.4557,-0.0361 0.9234,-0.013 1.3619,0.1041c0.865,0.2097 1.6707,0.7139 2.1805,1.4197c0.2537,0.3541 0.386,0.765 0.4577,1.1663c0.0735,0.4055 0.0564,0.8107 -0.05,1.2089l-0.1052,-0.1183c0.245,0.0277 0.4899,0.0607 0.7344,0.1018l-0.0008,0.0346l-0.7369,-0.0158l-0.0234,-0.0003l0.003,-0.0227c0.0984,-0.7554 -0.0731,-1.5576 -0.5454,-2.1878c-0.4731,-0.6317 -1.2196,-1.0553 -2.0161,-1.2615c-0.3964,-0.1156 -0.8153,-0.1436 -1.2284,-0.121c-0.4118,0.0434 -0.8149,0.149 -1.1904,0.3145c-0.7423,0.3457 -1.3786,0.8794 -1.8563,1.5046z" fill="black"/>
</g>
<g id="Group_32">
<path id="Vector_29" d="M27.1662,33.8955l0.8412,0.0784l-0.7861,0.286z" fill="black"/>
</g>
<g id="Group_33">
<path id="Vector_30" d="M27.0217,33.1568l0.817,-0.0269l-0.7056,0.3802z" fill="black"/>
</g>
</g>
<g id="Group_34">
<path id="Vector_31" d="M20.4267,35.874c0.2082,0.1636 0.4164,0.3218 0.6426,0.457c0.2161,0.1456 0.4444,0.2746 0.6788,0.3879c0.469,0.225 0.9626,0.399 1.4742,0.4693c0.5094,0.0841 1.0356,0.0529 1.5392,-0.0776c0.5153,-0.1083 0.9809,-0.3564 1.4637,-0.5956c-0.2028,0.1655 -0.4072,0.3402 -0.6359,0.4834c-0.2403,0.126 -0.4765,0.2681 -0.7464,0.3461c-0.2579,0.1125 -0.5433,0.1386 -0.8228,0.1885c-0.2838,0.0081 -0.5708,0.0188 -0.8516,-0.0299c-0.5612,-0.0853 -1.0957,-0.2858 -1.5572,-0.5749c-0.4606,-0.2873 -0.8754,-0.6356 -1.1846,-1.0542z" fill="black"/>
</g>
</g>
<g id="Group_35">
<path id="Vector_32" opacity="0.49" d="M18.6607,36.8034c-0.0918,0.5337 -0.6889,1.4911 -2.0174,1.3248c-0.9188,-0.1148 -1.5159,-1.0902 -1.4241,-1.624c0,0 0.8846,-0.1705 1.815,-0.1183c0.6468,0.0365 1.6265,0.4175 1.6265,0.4175z" fill="#8B2A0C"/>
<g id="Group_36">
<path id="Vector_33" d="M14.622,36.0205c0.343,0.2711 0.7044,0.5046 1.082,0.6936c0.3797,0.1843 0.7815,0.3175 1.1929,0.3536c0.4089,0.0415 0.8315,0 1.2279,-0.1432c0.2082,-0.0488 0.3897,-0.1613 0.5917,-0.2412c0.1927,-0.096 0.3722,-0.2154 0.5754,-0.3149c-0.1465,0.1563 -0.2988,0.3153 -0.4703,0.4559c-0.1877,0.1194 -0.3605,0.2711 -0.5808,0.3502c-0.4118,0.2108 -0.9096,0.283 -1.3844,0.2396c-0.4773,-0.0491 -0.9296,-0.2204 -1.3072,-0.4696c-0.3776,-0.2493 -0.7035,-0.5592 -0.9272,-0.924z" fill="#3B130E"/>
</g>
</g>
<g id="Group_37">
<path id="Vector_34" d="M10.5784,28.3858c0.0868,-0.3933 0.3275,-0.7542 0.6517,-1.0323c0.3192,-0.2868 0.7231,-0.4877 1.145,-0.6186c0.4285,-0.1126 0.8724,-0.1571 1.3047,-0.1168c0.2157,0.0127 0.426,0.0668 0.6334,0.1079c0.2023,0.0734 0.4034,0.1325 0.5929,0.2251l0.0041,0.0019c0.0092,0.0046 0.0126,0.015 0.008,0.023c-0.0038,0.0066 -0.0117,0.01 -0.0192,0.0089l-0.605,-0.0765c-0.2032,-0.0046 -0.4064,-0.0253 -0.6092,-0.0169c-0.406,0.0096 -0.8099,0.0661 -1.1963,0.1755c-0.7664,0.2201 -1.4787,0.6798 -1.8755,1.3338c-0.005,0.0084 -0.0167,0.0115 -0.0254,0.0065c-0.0075,-0.0039 -0.0109,-0.0115 -0.0092,-0.0184z" fill="#2E2E2E"/>
</g>
<g id="Group_38">
<path id="Vector_35" d="M27.696,30.6214c-0.2324,-0.3222 -0.5044,-0.5841 -0.7777,-0.8222c-0.2808,-0.2323 -0.5779,-0.4336 -0.9017,-0.601c-0.1635,-0.0818 -0.3263,-0.1655 -0.5032,-0.2285c-0.1673,-0.0845 -0.3534,-0.1271 -0.532,-0.2001l-1.1541,-0.3587l-0.0062,-0.0019c-0.0096,-0.003 -0.0146,-0.0126 -0.0117,-0.0215c0.0029,-0.0073 0.0104,-0.0119 0.0183,-0.0115l0.6134,0.0334c0.2019,0.0319 0.4072,0.0484 0.6067,0.0933c0.401,0.083 0.7907,0.212 1.1545,0.3925c0.7089,0.3813 1.298,0.9843 1.53,1.7185c0.003,0.0088 -0.0029,0.018 -0.0125,0.0207c-0.0079,0.002 -0.0158,-0.0007 -0.02,-0.0069z" fill="#2E2E2E"/>
</g>
</g>
</g>
</g>
</g>
</g>
</g>
<path id="SIMBI" d="M64.0682,34.148c1.272,0 2.184,-0.228 2.736,-0.684c0.576,-0.48 0.864,-1.044 0.864,-1.692c0,-0.6 -0.228,-1.08 -0.684,-1.44c-0.432,-0.384 -1.08,-0.72 -1.944,-1.008l-1.9078,-0.612c-1.296,-0.432 -2.436,-0.912 -3.42,-1.44c-0.984,-0.528 -1.752,-1.2 -2.304,-2.016c-0.552,-0.84 -0.828,-1.908 -0.828,-3.204c0,-1.992 0.756,-3.576 2.268,-4.752c1.512,-1.176 3.612,-1.764 6.2998,-1.764c1.368,0 2.58,0.132 3.636,0.396c1.08,0.264 1.92,0.66 2.52,1.188c0.624,0.504 0.936,1.128 0.936,1.872c0,0.528 -0.132,0.996 -0.396,1.404c-0.264,0.408 -0.576,0.744 -0.936,1.008c-0.552,-0.36 -1.296,-0.684 -2.232,-0.972c-0.912,-0.288 -1.908,-0.432 -2.988,-0.432c-1.152,0 -2.028,0.192 -2.6278,0.576c-0.576,0.384 -0.864,0.876 -0.864,1.476c0,0.48 0.192,0.876 0.576,1.188c0.408,0.288 0.9958,0.552 1.7638,0.792l1.98,0.648c2.184,0.672 3.864,1.56 5.04,2.664c1.176,1.104 1.764,2.592 1.764,4.464c0,2.016 -0.78,3.66 -2.34,4.932c-1.56,1.248 -3.816,1.872 -6.768,1.872c-1.4638,0 -2.7718,-0.168 -3.9238,-0.504c-1.152,-0.312 -2.064,-0.756 -2.736,-1.332c-0.672,-0.6 -1.008,-1.296 -1.008,-2.088c0,-0.624 0.18,-1.152 0.54,-1.584c0.36,-0.432 0.768,-0.768 1.224,-1.008c0.648,0.528 1.452,1.008 2.412,1.44c0.984,0.408 2.1,0.612 3.3478,0.612zM76.0182,22.808h5.472v15.156c-0.24,0.048 -0.6,0.108 -1.08,0.18c-0.456,0.072 -0.936,0.108 -1.44,0.108c-1.08,0 -1.848,-0.192 -2.304,-0.576c-0.432,-0.384 -0.648,-1.044 -0.648,-1.98zM81.4902,29.648h-5.472v-13.536c0.264,-0.048 0.636,-0.108 1.116,-0.18c0.48,-0.072 0.96,-0.108 1.44,-0.108c1.032,0 1.776,0.18 2.232,0.54c0.456,0.36 0.684,1.032 0.684,2.016zM99.9562,32.564c-0.288,0.192 -0.648,0.372 -1.08,0.54c-0.432,0.144 -0.936,0.216 -1.512,0.216c-0.744,0 -1.368,-0.096 -1.872,-0.288c-0.48,-0.192 -0.804,-0.516 -0.972,-0.972c-0.816,-2.28 -1.512,-4.188 -2.088,-5.724c-0.552,-1.536 -0.984,-2.856 -1.296,-3.96h-0.18c-0.072,1.512 -0.132,2.904 -0.18,4.176c-0.048,1.272 -0.096,2.496 -0.144,3.672c-0.024,1.176 -0.06,2.388 -0.108,3.636c-0.048,1.224 -0.108,2.568 -0.18,4.032c-0.288,0.072 -0.648,0.144 -1.08,0.216c-0.432,0.096 -0.864,0.144 -1.296,0.144c-0.912,0 -1.62,-0.144 -2.124,-0.432c-0.504,-0.312 -0.756,-0.852 -0.756,-1.62c0,-0.528 0.024,-1.308 0.072,-2.34c0.048,-1.056 0.108,-2.256 0.18,-3.6c0.096,-1.368 0.192,-2.808 0.288,-4.32c0.096,-1.512 0.192,-3 0.288,-4.464c0.12,-1.488 0.216,-2.856 0.288,-4.104c0.192,-0.288 0.576,-0.576 1.152,-0.864c0.576,-0.312 1.368,-0.468 2.376,-0.468c1.08,0 1.944,0.18 2.592,0.54c0.648,0.336 1.116,0.888 1.404,1.656c0.36,0.888 0.744,1.908 1.152,3.06c0.408,1.128 0.816,2.28 1.224,3.456c0.408,1.152 0.78,2.208 1.116,3.168h0.18c0.696,-2.136 1.392,-4.212 2.088,-6.228c0.696,-2.016 1.308,-3.708 1.836,-5.076c0.312,-0.168 0.72,-0.3 1.224,-0.396c0.528,-0.12 1.08,-0.18 1.656,-0.18c1.032,0 1.86,0.156 2.484,0.468c0.648,0.288 1.032,0.732 1.152,1.332c0.096,0.456 0.192,1.176 0.288,2.16c0.12,0.984 0.24,2.124 0.36,3.42c0.12,1.272 0.24,2.616 0.36,4.032c0.12,1.392 0.228,2.748 0.324,4.068c0.12,1.32 0.216,2.52 0.288,3.6c0.072,1.056 0.12,1.896 0.144,2.52c-0.36,0.216 -0.744,0.372 -1.152,0.468c-0.384,0.096 -0.876,0.144 -1.476,0.144c-0.744,0 -1.392,-0.132 -1.944,-0.396c-0.552,-0.288 -0.852,-0.828 -0.9,-1.62c-0.096,-1.896 -0.18,-3.696 -0.252,-5.4c-0.072,-1.704 -0.132,-3.264 -0.18,-4.68c-0.048,-1.416 -0.096,-2.616 -0.144,-3.6h-0.18c-0.312,1.032 -0.756,2.34 -1.332,3.924c-0.552,1.56 -1.248,3.588 -2.088,6.084zM124.4352,24.896v3.888h-8.028v-3.888zM121.7352,28.784l0.432,-2.988c1.992,0 3.636,0.24 4.932,0.72c1.32,0.48 2.316,1.152 2.988,2.016c0.672,0.864 1.008,1.908 1.008,3.132c0,2.328 -0.864,4.056 -2.592,5.184c-1.728,1.128 -4.188,1.692 -7.38,1.692c-0.576,0 -1.236,-0.024 -1.98,-0.072c-0.72,-0.048 -1.464,-0.132 -2.232,-0.252c-0.744,-0.12 -1.428,-0.288 -2.052,-0.504c-1.248,-0.456 -1.872,-1.26 -1.872,-2.412v-17.208c0,-0.48 0.132,-0.84 0.396,-1.08c0.264,-0.264 0.624,-0.48 1.08,-0.648c0.816,-0.264 1.8,-0.456 2.952,-0.576c1.152,-0.12 2.34,-0.18 3.564,-0.18c2.952,0 5.244,0.516 6.876,1.548c1.632,1.008 2.448,2.568 2.448,4.68c0,1.152 -0.336,2.136 -1.008,2.952c-0.672,0.816 -1.656,1.44 -2.952,1.872c-1.272,0.408 -2.82,0.612 -4.644,0.612l-0.252,-2.376c1.176,0 2.04,-0.228 2.592,-0.684c0.552,-0.456 0.828,-1.104 0.828,-1.944c0,-0.792 -0.324,-1.404 -0.972,-1.836c-0.648,-0.432 -1.608,-0.648 -2.88,-0.648c-0.456,0 -0.948,0.012 -1.476,0.036c-0.504,0.024 -0.912,0.072 -1.224,0.144v14.04c0.384,0.12 0.876,0.204 1.476,0.252c0.6,0.024 1.164,0.036 1.692,0.036c1.224,0 2.196,-0.228 2.916,-0.684c0.744,-0.456 1.116,-1.176 1.116,-2.16c0,-0.912 -0.324,-1.584 -0.972,-2.016c-0.624,-0.432 -1.56,-0.648 -2.808,-0.648zM134.0202,22.808h5.472v15.156c-0.24,0.048 -0.6,0.108 -1.08,0.18c-0.456,0.072 -0.936,0.108 -1.44,0.108c-1.08,0 -1.848,-0.192 -2.304,-0.576c-0.432,-0.384 -0.648,-1.044 -0.648,-1.98zM139.4922,29.648h-5.472v-13.536c0.264,-0.048 0.636,-0.108 1.116,-0.18c0.48,-0.072 0.96,-0.108 1.44,-0.108c1.032,0 1.776,0.18 2.232,0.54c0.456,0.36 0.684,1.032 0.684,2.016z" fill="#FDFDFF"/>
</g></svg>