<svg viewBox="0 0 94.5 150" x="0" y="0" fill="none" xmlns="http://www.w3.org/2000/svg"><defs><mask id="mask0_1432_24567" style="mask-type:luminance" maskUnits="userSpaceOnUse" x="19" y="74" width="40" height="45" xmlns="http://www.w3.org/2000/svg">
<g id="SVGID_00000155853510008029307610000012987496748626437795_" data-node-id="I1432:24595;149:6949">
<path id="Vector_55" data-node-id="I1432:24595;149:6950" d="M40.85,76.808c0,0 -0.794,5.17 3.78,5.968c4.727,0.825 6.003,-4.122 6.003,-4.122l4.076,1.133c0,0 1.105,33.438 3.663,37.413c0,0 -19.391,5.959 -38.856,-4.117l17.909,-38.479z" fill="white"/>
</g>
</mask><mask id="mask1_1432_24567" style="mask-type:luminance" maskUnits="userSpaceOnUse" x="19" y="74" width="40" height="45" xmlns="http://www.w3.org/2000/svg">
<g id="SVGID_00000155853510008029307610000012987496748626437795__2" data-node-id="I1432:24595;149:6953">
<path id="Vector_57" data-node-id="I1432:24595;149:6954" d="M40.85,76.808c0,0 -0.794,5.17 3.78,5.968c4.727,0.825 6.003,-4.122 6.003,-4.122l4.076,1.133c0,0 1.105,33.438 3.663,37.413c0,0 -19.391,5.959 -38.856,-4.117l17.909,-38.479z" fill="white"/>
</g>
</mask><mask id="mask2_1432_24567" style="mask-type:luminance" maskUnits="userSpaceOnUse" x="19" y="74" width="40" height="45" xmlns="http://www.w3.org/2000/svg">
<g id="SVGID_00000155853510008029307610000012987496748626437795__3" data-node-id="I1432:24595;149:6957">
<path id="Vector_59" data-node-id="I1432:24595;149:6958" d="M40.85,76.808c0,0 -0.794,5.17 3.78,5.968c4.727,0.825 6.003,-4.122 6.003,-4.122l4.076,1.133c0,0 1.105,33.438 3.663,37.413c0,0 -19.391,5.959 -38.856,-4.117l17.909,-38.479z" fill="white"/>
</g>
</mask><mask id="mask3_1432_24567" style="mask-type:luminance" maskUnits="userSpaceOnUse" x="19" y="74" width="40" height="45" xmlns="http://www.w3.org/2000/svg">
<g id="SVGID_00000155853510008029307610000012987496748626437795__4" data-node-id="I1432:24595;149:6961">
<path id="Vector_61" data-node-id="I1432:24595;149:6962" d="M40.85,76.808c0,0 -0.794,5.17 3.78,5.968c4.727,0.825 6.003,-4.122 6.003,-4.122l4.076,1.133c0,0 1.105,33.438 3.663,37.413c0,0 -19.391,5.959 -38.856,-4.117l17.909,-38.479z" fill="white"/>
</g>
</mask><mask id="mask4_1432_24567" style="mask-type:luminance" maskUnits="userSpaceOnUse" x="19" y="74" width="40" height="45" xmlns="http://www.w3.org/2000/svg">
<g id="SVGID_00000155853510008029307610000012987496748626437795__5" data-node-id="I1432:24595;149:6965">
<path id="Vector_63" data-node-id="I1432:24595;149:6966" d="M40.85,76.808c0,0 -0.794,5.17 3.78,5.968c4.727,0.825 6.003,-4.122 6.003,-4.122l4.076,1.133c0,0 1.105,33.438 3.663,37.413c0,0 -19.391,5.959 -38.856,-4.117l17.909,-38.479z" fill="white"/>
</g>
</mask><mask id="mask5_1432_24567" style="mask-type:luminance" maskUnits="userSpaceOnUse" x="19" y="74" width="40" height="45" xmlns="http://www.w3.org/2000/svg">
<g id="SVGID_00000155853510008029307610000012987496748626437795__6" data-node-id="I1432:24595;149:6969">
<path id="Vector_65" data-node-id="I1432:24595;149:6970" d="M40.85,76.808c0,0 -0.794,5.17 3.78,5.968c4.727,0.825 6.003,-4.122 6.003,-4.122l4.076,1.133c0,0 1.105,33.438 3.663,37.413c0,0 -19.391,5.959 -38.856,-4.117l17.909,-38.479z" fill="white"/>
</g>
</mask><mask id="mask6_1432_24567" style="mask-type:luminance" maskUnits="userSpaceOnUse" x="19" y="74" width="40" height="45" xmlns="http://www.w3.org/2000/svg">
<g id="SVGID_00000155853510008029307610000012987496748626437795__7" data-node-id="I1432:24595;149:6973">
<path id="Vector_67" data-node-id="I1432:24595;149:6974" d="M40.85,76.808c0,0 -0.794,5.17 3.78,5.968c4.727,0.825 6.003,-4.122 6.003,-4.122l4.076,1.133c0,0 1.105,33.438 3.663,37.413c0,0 -19.391,5.959 -38.856,-4.117l17.909,-38.479z" fill="white"/>
</g>
</mask></defs><g id="last waving" xmlns="http://www.w3.org/2000/svg">
<g id="Group">
<path id="Vector_8" d="M52.379,112.531l1.858,9.262c0,0 9.497,6.108 10.953,10.236c0,0 -0.637,3.857 -5.071,7.103l0.005,-3.094c0,0 -15.261,-6.563 -16.974,-10.214c-1.713,-3.652 -0.916,-7.816 -0.916,-7.816z" fill="#B44A24" stroke="#B44A24" stroke-width="0.45915" stroke-miterlimit="10"/>
<path id="Vector_9" d="M52.075,132.193c1.976,-2.478 3.917,-4.985 6.106,-7.293c0.072,-0.077 0.1,-0.157 0.098,-0.231c2.775,2.131 6.097,5.054 6.91,7.36c0,0 -0.636,3.857 -5.071,7.103l0.005,-3.094c0,0 -3.944,-1.697 -8.048,-3.845z" fill="white" stroke="white" stroke-width="0.45915" stroke-miterlimit="10"/>
<path id="Vector_10" d="M57.318,134.773c0.121,-0.139 0.238,-0.279 0.359,-0.417c1.683,-1.925 3.449,-3.79 5.177,-5.678c1.1,1.156 1.97,2.316 2.335,3.351c0,0 -0.636,3.858 -5.071,7.104l0.005,-3.094c0,0 -1.13,-0.488 -2.805,-1.266z" fill="black" stroke="black" stroke-width="0.45915" stroke-miterlimit="10"/>
<path id="Vector_11" opacity="0.49" d="M43.525,126.657c0.554,0.725 2.128,0.401 3.515,-0.724c1.386,-1.125 2.06,-2.626 1.506,-3.351c-0.554,-0.726 -2.128,-0.402 -3.514,0.724c-1.387,1.125 -2.062,2.626 -1.507,3.351z" fill="#8B2A0C" stroke="#8B2A0C" stroke-width="0.22215" stroke-miterlimit="10"/>
</g>
<path id="Vector_12" opacity="0.39" d="M38.828,150.001c14.536,0 26.32,-2.429 26.32,-5.425c0,-2.995 -11.784,-5.424 -26.32,-5.424c-14.536,0 -26.32,2.429 -26.32,5.424c0,2.996 11.784,5.425 26.32,5.425z" fill="#7A5FFF"/>
<g id="animation 2">
<g id="Group_2">
<g id="Group_3">
<g id="Group_4">
<path id="Vector_13" d="M89.227,55.112c0,0 5.137,-2.478 5.271,-8.758c0.135,-6.28 -7.018,-6.428 -7.018,-6.428c3.595,-2.986 2.584,-8.034 2.584,-8.034c-0.034,-9.263 -7.259,-9.576 -7.259,-9.576c0,0 2.732,-3.302 1.412,-7.585c-2.565,-8.326 -10.844,-6.084 -10.844,-6.084c-0.924,-4.311 -4.288,-7.6898 -8.535,-8.3354c-0.064,-0.01 -0.128,-0.0193 -0.193,-0.028c-4.334,-0.611 -8.56,1.7664 -10.556,5.7764l-0.28,0.564c-0.165,-0.531 -0.444,-1.074 -0.78,-1.599c-1.734,-2.715 -4.6,-4.4405 -7.729,-4.8914c-7.436,-1.0721 -10.88,4.6614 -10.88,4.6614c-3.079,-3.697 -10.047,-2.248 -10.047,-2.248c-15.313,3.793 -11.311,19.417 -11.311,19.417c0,0 -7.179,-4.506 -11.782,6.09c-4.602,10.597 4.683,17.789 4.683,17.789c-1.397,0.578 -2.673,3.374 -2.673,3.374c-3.246,10.646 10.086,13.514 10.086,13.514c-4.567,10.611 8.518,10.148 8.518,10.148c1.43,5.691 5.908,1.06 5.908,1.06c-0.147,7.123 5.095,3.77 5.095,3.77c1.343,4.195 4.873,-0.33 4.873,-0.33l0.738,-0.149c0.139,1.776 1.597,3.209 3.449,3.275c1.635,0.059 3.039,-0.97 3.531,-2.422c0.962,1.559 2.784,2.648 4.914,2.725c3.173,0.113 5.829,-2.056 6.005,-4.868c0.588,0.81 1.527,1.361 2.616,1.401c1.478,0.053 2.754,-0.844 3.255,-2.13c2.572,5.278 6.897,0.968 6.897,0.968c4.095,2.79 5.687,-1.779 5.687,-1.779c0,0 3.719,2.874 7.613,-2.464c2.183,-2.993 -0.084,-7.884 -0.084,-7.884c0,0 4.567,3.378 7.785,-0.628c3.557,-4.43 -0.949,-8.312 -0.949,-8.312z" fill="#1A0000" stroke="#8B2A0C" stroke-width="0.922117" stroke-miterlimit="10" stroke-linecap="round"/>
<g id="Group_5">
<g id="Group_6">
<path id="Vector_14" d="M5.375,12.872c1.025,-0.238 2.303,-0.28 2.411,1.073c0.036,0.451 -0.045,0.923 -0.195,1.348c-0.108,0.304 -0.314,0.678 -0.669,0.736c-0.432,0.07 -0.603,-0.38 -0.471,-0.72c0.366,-0.948 1.859,-1.06 2.535,-0.418c0.638,0.606 0.444,1.754 -0.357,2.105c0.106,0.137 0.211,0.274 0.318,0.411c0.515,-0.56 1.403,-0.347 1.768,0.273c0.185,0.314 0.245,0.688 0.222,1.047c-0.024,0.349 -0.211,0.694 -0.151,1.047c0.092,0.533 0.763,0.829 1.112,1.179c0.538,0.54 0.933,1.191 1.186,1.908c0.112,0.315 0.618,0.179 0.506,-0.139c-0.283,-0.802 -0.719,-1.535 -1.321,-2.139c-0.355,-0.356 -0.975,-0.639 -0.924,-1.195c0.037,-0.408 0.152,-0.746 0.093,-1.169c-0.09,-0.65 -0.459,-1.263 -1.08,-1.525c-0.61,-0.257 -1.327,-0.151 -1.781,0.342c-0.212,0.23 0.051,0.527 0.317,0.411c0.937,-0.41 1.259,-1.663 0.772,-2.533c-0.552,-0.984 -1.931,-1.187 -2.871,-0.679c-0.476,0.256 -0.911,0.723 -0.919,1.29c-0.007,0.494 0.307,0.963 0.819,1.027c1.313,0.167 1.703,-1.72 1.61,-2.677c-0.061,-0.623 -0.345,-1.204 -0.923,-1.495c-0.663,-0.334 -1.457,-0.174 -2.143,-0.014c-0.331,0.078 -0.192,0.583 0.136,0.506z" fill="#1A0000"/>
</g>
</g>
<g id="Group_7">
<g id="Group_8">
<path id="Vector_15" d="M92.895,16.836c-1.031,-0.733 -2.41,-1.251 -3.255,0.03c-0.534,0.81 -0.932,2.522 0.042,3.164c0.427,0.28 0.956,0.203 1.279,-0.197c0.352,-0.438 0.292,-1.041 0.036,-1.511c-0.513,-0.945 -1.778,-1.463 -2.782,-1.01c-1.087,0.489 -1.398,2.016 -0.581,2.876c0.172,0.182 0.531,-0.005 0.437,-0.254c-0.52,-1.394 -2.321,-1.241 -3.05,-0.121c-0.215,0.328 -0.333,0.695 -0.395,1.079c-0.105,0.647 -0.701,0.637 -1.214,0.839c-0.822,0.323 -1.538,0.838 -2.126,1.494c-0.224,0.25 0.146,0.622 0.371,0.37c0.526,-0.587 1.16,-1.065 1.894,-1.36c0.488,-0.196 1.214,-0.201 1.477,-0.731c0.116,-0.236 0.097,-0.53 0.161,-0.779c0.09,-0.354 0.267,-0.698 0.537,-0.949c0.54,-0.5 1.552,-0.477 1.84,0.296c0.146,-0.085 0.292,-0.17 0.438,-0.254c-0.613,-0.645 -0.283,-1.8 0.549,-2.079c0.846,-0.284 2.135,0.367 2.135,1.349c0,0.523 -0.599,0.791 -0.915,0.305c-0.133,-0.206 -0.143,-0.474 -0.141,-0.71c0.006,-0.454 0.133,-0.965 0.347,-1.366c0.629,-1.18 1.793,-0.639 2.65,-0.029c0.277,0.196 0.538,-0.258 0.266,-0.452z" fill="#1A0000"/>
</g>
</g>
</g>
<path id="Vector_16" d="M68.44,56.394c0,0 10.566,-28.966 -21.252,-29.967c-27.146,-0.855 -22.575,28.207 -22.575,28.207l0.848,-0.07c0,0 0.085,-24.323 23.126,-22.027c21.483,2.142 18.54,24.397 18.54,24.397z" fill="#FFD44D" stroke="#FFD44D" stroke-width="0.213641" stroke-miterlimit="10"/>
</g>
<g id="Group_9">
<path id="Vector_17" d="M72.606,56.734c-1.724,-1.104 -4.028,-0.789 -5.937,0.592c0.157,-0.904 0.266,-1.826 0.31,-2.769c0.013,-0.295 0.004,-0.585 0.006,-0.879c-0.304,-0.01 -0.608,-0.02 -0.912,-0.04c-3,-0.2 -5.926,-0.97 -8.567,-2.42c-2.196,-1.206 -4.139,-2.836 -5.704,-4.79c-1.473,-1.838 -2.505,-4.212 -3.187,-7.576c-2.147,3.238 -5.377,6.179 -8.162,8.07c-4.292,2.912 -9.318,5.114 -14.534,5.546c-0.003,0.06 -0.01,0.118 -0.013,0.179c-0.029,0.633 -0.026,1.26 -0.002,1.881c-1.096,-0.755 -2.363,-1.077 -3.61,-0.805c-2.826,0.617 -4.475,4.048 -3.684,7.663c0.792,3.615 3.724,6.045 6.55,5.429c1.473,-0.322 2.622,-1.413 3.277,-2.892c3.333,6.228 9.623,10.57 17.015,10.914c7.449,0.347 14.163,-3.451 18.05,-9.423c0.308,1.084 0.931,2.006 1.861,2.6c2.435,1.559 6.03,0.298 8.03,-2.817c2.001,-3.114 1.648,-6.904 -0.787,-8.463z" fill="#CD5428" stroke="#CD5428" stroke-width="0.865822" stroke-miterlimit="10"/>
<path id="Vector_18" d="M42.591,72.946l-0.465,5.039l-2.854,-1.531c0,0 -2.734,6.999 3.783,9.081c6.518,2.082 9.08,-5.983 9.08,-5.983l-4.069,-1.269l0.302,-4.957z" fill="#CD5428" stroke="#CD5428" stroke-width="0.849259" stroke-miterlimit="10"/>
<g id="Group_10">
<g id="Group_11">
<g id="Group_12">
<path id="Vector_19" d="M26.58,57.664c-0.77,-0.934 -1.702,-1.794 -2.771,-2.151c-1.058,-0.375 -2.232,0.179 -2.837,1.068c-0.609,0.913 -0.63,2.156 -0.479,3.319c0.167,1.178 0.485,2.355 0.9,3.506c-0.636,-1.048 -1.126,-2.197 -1.393,-3.42c-0.256,-1.199 -0.321,-2.594 0.426,-3.767c0.378,-0.574 0.938,-0.992 1.566,-1.238c0.639,-0.246 1.383,-0.223 1.995,0.032c1.237,0.518 2.038,1.572 2.593,2.651z" fill="#8B2A0C"/>
</g>
<g id="Group_13">
<path id="Vector_20" d="M28.529,64.792c-0.408,-0.884 -0.568,-1.857 -0.681,-2.815c-0.047,-0.483 -0.071,-0.967 -0.076,-1.45c-0.004,-0.484 0.021,-0.967 0.062,-1.449c0.041,0.966 0.072,1.927 0.178,2.882c0.043,0.479 0.109,0.954 0.19,1.428c0.087,0.471 0.177,0.945 0.327,1.404z" fill="#8B2A0C"/>
</g>
<path id="Vector_21" d="M27.481,68.867l-1.461,-1.604l-1.004,1.762l-0.104,-2.518l-1.511,-0.639l1.714,-0.36l0.542,-1.914l0.822,1.799l1.816,0.063l-1.263,0.988z" fill="white" stroke="white" stroke-width="0.219596" stroke-miterlimit="10" stroke-linecap="round"/>
</g>
<g id="Group_14">
<g id="Group_15">
<path id="Vector_22" d="M38.903,46.41c-0.712,-0.154 -1.394,-0.184 -2.045,-0.179c-0.653,0.023 -1.286,0.105 -1.906,0.268c-0.62,0.164 -1.227,0.4 -1.841,0.674c-0.308,0.134 -0.604,0.304 -0.927,0.445c-0.32,0.149 -0.614,0.34 -0.967,0.48l-0.013,0.005c-0.016,0.006 -0.034,-0.002 -0.041,-0.018c-0.005,-0.013 -0.001,-0.027 0.009,-0.035l0.797,-0.705c0.292,-0.203 0.565,-0.433 0.871,-0.614c0.603,-0.378 1.259,-0.672 1.946,-0.87c1.383,-0.338 2.905,-0.22 4.153,0.493c0.015,0.008 0.02,0.028 0.012,0.043c-0.007,0.012 -0.021,0.018 -0.034,0.015z" fill="#2E2E2E"/>
</g>
<g id="Group_16">
<path id="Vector_23" d="M54.672,47.493c0.56,-0.506 1.298,-0.808 2.061,-0.897c0.766,-0.109 1.555,0 2.292,0.238c0.723,0.277 1.394,0.667 1.944,1.182c0.286,0.243 0.513,0.547 0.753,0.826c0.195,0.322 0.404,0.622 0.558,0.96l0.004,0.007c0.007,0.017 0,0.036 -0.016,0.043c-0.013,0.006 -0.027,0.003 -0.037,-0.006l-0.745,-0.749c-0.276,-0.219 -0.531,-0.465 -0.821,-0.662c-0.571,-0.412 -1.196,-0.741 -1.856,-0.978c-1.313,-0.458 -2.82,-0.486 -4.104,0.094c-0.016,0.008 -0.036,0 -0.043,-0.016c-0.006,-0.014 -0.002,-0.029 0.008,-0.038z" fill="#2E2E2E"/>
</g>
<path id="Vector_24" opacity="0.49" d="M40.794,64.91c-0.565,3.108 -3.548,5.17 -6.66,4.605c-3.113,-0.564 -5.178,-3.543 -4.612,-6.651c0.565,-3.109 3.547,-5.171 6.66,-4.606c3.113,0.565 5.177,3.543 4.612,6.652z" fill="#8B2A0C" stroke="#8B2A0C" stroke-width="0.962035" stroke-miterlimit="10"/>
<path id="Vector_25" opacity="0.49" d="M61.835,66.531c-0.566,3.109 -3.548,5.171 -6.661,4.607c-3.113,-0.565 -5.178,-3.543 -4.612,-6.652c0.565,-3.108 3.548,-5.17 6.661,-4.606c3.112,0.565 5.177,3.543 4.612,6.651z" fill="#8B2A0C" stroke="#8B2A0C" stroke-width="0.962035" stroke-miterlimit="10"/>
<g id="Group_17">
<g id="Group_18">
<g id="Group_19">
<path id="Vector_26" d="M42.971,60.324c0.172,-0.737 0.559,-1.44 1.14,-1.985c0.572,-0.548 1.399,-0.901 2.222,-0.869c0.405,0.01 0.822,0.087 1.207,0.259c0.376,0.191 0.713,0.46 0.948,0.796c0.48,0.667 0.634,1.475 0.562,2.226c-0.19,-0.726 -0.482,-1.416 -0.948,-1.912c-0.462,-0.502 -1.097,-0.736 -1.78,-0.733c-0.676,-0.035 -1.329,0.211 -1.895,0.613c-0.565,0.411 -1.044,0.975 -1.456,1.605z" fill="#8B2A0C"/>
</g>
</g>
<g id="Group_20" opacity="0.53">
<g id="Group_21">
<path id="Vector_27" d="M49.076,60.985c0,0 0.009,-2.667 -2.251,-3.031c-2.632,-0.424 -3.808,2.375 -3.808,2.375" fill="#8B2A0C"/>
<path id="Vector_28" d="M49.076,60.985c-0.162,-0.733 -0.428,-1.433 -0.874,-1.947c-0.443,-0.519 -1.07,-0.777 -1.751,-0.799c-0.675,-0.06 -1.335,0.162 -1.916,0.541c-0.581,0.39 -1.082,0.935 -1.518,1.549c0.198,-0.731 0.612,-1.419 1.213,-1.942c0.594,-0.526 1.433,-0.847 2.254,-0.783c0.404,0.026 0.818,0.117 1.196,0.305c0.369,0.205 0.694,0.487 0.917,0.831c0.455,0.685 0.578,1.498 0.479,2.245z" fill="#8B2A0C"/>
</g>
</g>
</g>
<g id="Group_22">
<g id="Group_23">
<path id="Vector_29" d="M40.594,58.591c-0.055,-0.773 -0.1,-1.505 -0.272,-2.222c-0.137,-0.712 -0.341,-1.403 -0.67,-2.001c-0.645,-1.21 -1.746,-1.939 -3.082,-2.076c-1.3,-0.208 -2.523,0.321 -3.429,1.36c-0.949,1.002 -1.571,2.382 -2.073,3.762l-0.077,0.211l-0.163,-0.075c-0.454,-0.209 -0.899,-0.441 -1.347,-0.667l0.028,-0.071l1.398,0.532l-0.056,0.032c0.307,-1.473 0.852,-2.926 1.795,-4.124c0.469,-0.595 1.071,-1.1 1.771,-1.414c0.703,-0.309 1.493,-0.401 2.248,-0.295c0.755,0.095 1.5,0.359 2.12,0.81c0.627,0.445 1.088,1.087 1.397,1.779c0.599,1.404 0.657,2.977 0.486,4.453z" fill="black"/>
</g>
<g id="Group_24">
<path id="Vector_30" d="M31.158,56.452l-1.652,-1.183l1.996,0.387z" fill="black"/>
</g>
<g id="Group_25">
<path id="Vector_31" d="M31.806,55.027l-1.606,-1.431l2.073,0.578z" fill="black"/>
</g>
</g>
<g id="Group_26">
<g id="Group_27">
<path id="Vector_32" d="M50.803,58.757c-0.045,-0.754 0.062,-1.531 0.222,-2.296c0.196,-0.758 0.503,-1.504 0.961,-2.195c0.455,-0.691 1.133,-1.286 1.941,-1.635c0.809,-0.353 1.703,-0.428 2.537,-0.339c0.848,0.087 1.706,0.419 2.4,0.964c0.685,0.556 1.175,1.291 1.485,2.049c0.572,1.544 0.671,3.13 0.41,4.662l-0.199,-0.19c0.499,-0.028 1.001,-0.032 1.502,-0.043l0.01,0.076l-1.485,0.186l-0.048,0.005l0.001,-0.05c0.048,-1.488 -0.142,-3.021 -0.767,-4.379c-0.31,-0.677 -0.765,-1.29 -1.351,-1.742c-0.589,-0.451 -1.307,-0.71 -2.045,-0.789c-0.735,-0.094 -1.497,-0.026 -2.186,0.245c-0.694,0.265 -1.284,0.756 -1.747,1.336c-0.914,1.191 -1.359,2.668 -1.568,4.157z" fill="black"/>
</g>
<g id="Group_28">
<path id="Vector_33" d="M60.608,58.13l2.032,0.106l-1.891,0.749z" fill="black"/>
</g>
<g id="Group_29">
<path id="Vector_34" d="M60.314,56.505l2.152,-0.061l-1.905,1.001z" fill="black"/>
</g>
</g>
<g id="Group_30">
<path id="Vector_35" opacity="0.49" d="M48.729,63.432c0.004,1.014 -1.212,2.975 -3.167,2.984c-1.953,0.009 -3.046,-2.155 -2.939,-3.167c0,0 1.034,-0.259 2.988,-0.267c1.954,-0.009 3.118,0.45 3.118,0.45z" fill="#8B2A0C"/>
<g id="Group_31">
<path id="Vector_36" d="M42.318,60.668c0.019,0.51 0.07,1.014 0.209,1.485c0.117,0.472 0.309,0.917 0.594,1.269c0.545,0.72 1.444,1.054 2.387,1.038c0.939,0.064 1.849,-0.213 2.56,-0.823c0.36,-0.299 0.669,-0.676 0.923,-1.095c0.274,-0.411 0.48,-0.873 0.657,-1.352l0.002,-0.006c0.004,-0.012 0.018,-0.018 0.03,-0.014c0.01,0.005 0.016,0.016 0.015,0.026c-0.19,1.004 -0.639,1.977 -1.374,2.702c-0.736,0.738 -1.802,1.066 -2.826,1.029c-1.015,-0.009 -2.108,-0.414 -2.676,-1.302c-0.574,-0.87 -0.676,-1.958 -0.547,-2.965c0.001,-0.013 0.013,-0.022 0.026,-0.02c0.011,0.001 0.019,0.011 0.02,0.022z" fill="#3B130E"/>
</g>
</g>
<g id="Group_32">
<g id="Group_33">
<path id="Vector_37" d="M48.633,37.789c-0.259,0.938 -0.78,1.783 -1.212,2.647c-0.368,0.736 -0.59,1.541 -0.259,2.339c0.301,0.727 1.122,1.321 1.931,1.036c0.625,-0.221 0.939,-1.065 0.535,-1.618c-0.489,-0.671 -1.595,-0.312 -2.143,0.078c-0.729,0.519 -1.105,1.412 -0.967,2.298c0.12,0.765 0.692,1.62 1.566,1.511c0.656,-0.082 1.239,-0.961 0.585,-1.457c-0.744,-0.565 -1.743,0.214 -2.02,0.91c-0.411,1.033 0.229,2.082 1.005,2.737c0.241,0.204 0.594,-0.144 0.35,-0.35c-0.563,-0.475 -1.125,-1.192 -0.964,-1.981c0.071,-0.351 0.297,-0.692 0.613,-0.87c0.139,-0.078 0.434,-0.189 0.6,-0.105c0.394,0.199 0.1,0.54 -0.175,0.617c-1.005,0.283 -1.194,-1.391 -0.999,-1.984c0.228,-0.69 1.099,-1.472 1.884,-1.243c0.445,0.13 0.453,0.708 0.061,0.948c-0.335,0.205 -0.816,0.022 -1.077,-0.223c-0.551,-0.518 -0.547,-1.378 -0.272,-2.029c0.446,-1.06 1.126,-2.011 1.436,-3.129c0.085,-0.308 -0.392,-0.439 -0.478,-0.132z" fill="#1A0000"/>
</g>
</g>
</g>
<g id="Group_34">
<g id="Group_35">
<g id="Group_36">
<path id="Vector_38" d="M66.381,59.739c0.737,-0.965 1.711,-1.862 3.018,-2.157c0.647,-0.145 1.384,-0.037 1.97,0.316c0.574,0.353 1.054,0.863 1.324,1.494c0.531,1.284 0.222,2.647 -0.241,3.783c-0.477,1.157 -1.16,2.203 -1.97,3.125c0.609,-1.062 1.13,-2.164 1.5,-3.295c0.352,-1.119 0.55,-2.346 0.111,-3.352c-0.441,-0.98 -1.499,-1.73 -2.606,-1.546c-1.115,0.164 -2.182,0.847 -3.106,1.632z" fill="#8B2A0C"/>
</g>
<g id="Group_37">
<path id="Vector_39" d="M63.214,66.417c0.229,-0.426 0.4,-0.876 0.568,-1.326c0.162,-0.451 0.311,-0.908 0.437,-1.372c0.272,-0.922 0.471,-1.862 0.681,-2.806c-0.044,0.481 -0.104,0.962 -0.193,1.438c-0.09,0.475 -0.198,0.947 -0.329,1.414c-0.279,0.924 -0.608,1.853 -1.164,2.652z" fill="#8B2A0C"/>
</g>
</g>
<path id="Vector_40" d="M68.048,70.405l-1.461,-1.605l-1.005,1.763l-0.103,-2.519l-1.511,-0.638l1.714,-0.36l0.542,-1.915l0.822,1.8l1.816,0.063l-1.263,0.987z" fill="white" stroke="white" stroke-width="0.219596" stroke-miterlimit="10" stroke-linecap="round"/>
</g>
</g>
</g>
<g id="Group_38">
<g id="Group_39">
<path id="Vector_41" d="M26.108,113.794c0,0 1.701,22.443 5.627,28.23l-1.434,3.876l8.815,-0.091l-1.063,-4.549l1.405,-26.485z" fill="#B44A24" stroke="#B44A24" stroke-width="0.85447" stroke-miterlimit="10"/>
<path id="Vector_42" d="M38.506,132.73c-3.263,0.084 -6.524,0.26 -9.789,0.309c0.804,3.816 1.804,7.197 3.018,8.985l-1.434,3.876l8.815,-0.091l-1.063,-4.549z" fill="white" stroke="white" stroke-width="0.85447" stroke-miterlimit="10"/>
<path id="Vector_43" d="M38.15,139.442c-1.174,-0.104 -2.384,0.085 -3.532,0.266c-1.269,0.201 -2.542,0.435 -3.827,0.511c0.3,0.702 0.613,1.317 0.945,1.805l-1.435,3.876l8.816,-0.091l-1.064,-4.549z" fill="black" stroke="black" stroke-width="0.85447" stroke-miterlimit="10"/>
<path id="Vector_44" d="M50.184,133.842c-3.198,0.125 -6.402,0.136 -9.604,0.199l0.226,7.25l-1.164,4.524l8.812,0.285l-1.349,-3.907c1.189,-1.673 2.218,-4.789 3.079,-8.351z" fill="white" stroke="white" stroke-width="0.85447" stroke-miterlimit="10"/>
<path id="Vector_45" opacity="0.49" d="M36.05,128.418c-0.043,1.041 -1.512,1.828 -3.281,1.755c-1.769,-0.072 -3.169,-0.975 -3.125,-2.017c0.042,-1.041 1.511,-1.827 3.28,-1.755c1.769,0.073 3.168,0.976 3.126,2.017z" fill="#8B2A0C" stroke="#8B2A0C" stroke-width="0.413417" stroke-miterlimit="10"/>
</g>
<g id="Group_40">
<g id="Group_41">
<g id="Group_42">
<path id="Vector_46" d="M71.264,99.515c0.707,0.265 1.389,0.614 2.044,0.984c1.302,0.736 2.563,1.643 3.495,2.827c0.149,0.189 0.345,0.388 0.377,0.638c0.029,0.226 -0.068,0.353 -0.319,0.364c0,0 0.129,0.849 -0.431,0.706c0,0 0.086,0.664 -0.613,0.385c-0.547,-0.218 -2.345,-1.29 -3.104,-1.748c-0.113,-0.068 -0.248,0.044 -0.204,0.169c0.206,0.572 0.59,1.636 0.466,1.742c-0.501,0.425 -3.496,-1.994 -4.004,-2.69c0,0 -13.837,-10.32 -15.324,-16.185l1.221,-6.919z" fill="#CD5428" stroke="#CD5428" stroke-width="0.174095" stroke-miterlimit="10"/>
</g>
<g id="Group_43">
<path id="Vector_47" d="M74.925,102.766c0.375,0.232 0.704,0.521 1.057,0.78c0.322,0.296 0.67,0.562 0.971,0.884c-0.375,-0.233 -0.703,-0.521 -1.056,-0.78c-0.323,-0.296 -0.67,-0.562 -0.972,-0.884z" fill="#280707"/>
</g>
<g id="Group_44">
<path id="Vector_48" d="M74.333,103.473c0.414,0.245 0.785,0.547 1.179,0.819c0.364,0.309 0.753,0.589 1.097,0.926c-0.415,-0.245 -0.785,-0.548 -1.179,-0.82c-0.365,-0.309 -0.753,-0.589 -1.097,-0.925z" fill="#280707"/>
</g>
</g>
<g id="Group_45">
<g id="Group_46">
<path id="Vector_49" d="M60.951,87.107c-2.84,-3.417 -6.084,-7.32 -6.084,-7.32l-1.221,6.919c0.422,1.665 1.839,3.687 3.651,5.731c1.602,-1.458 2.743,-3.381 3.654,-5.33z" fill="white" stroke="white" stroke-width="0.174095" stroke-miterlimit="10"/>
</g>
</g>
</g>
<g id="Group_47">
<path id="Vector_50" d="M35.78,85.465l-23.619,-30.348c-0.167,-0.213 0.129,-0.463 0.343,-0.291l2.771,2.253l-2.53,-4.168c-0.089,-0.155 0.137,-0.29 0.255,-0.153l3.541,3.875l-2.236,-4.613c-0.082,-0.226 0.25,-0.367 0.389,-0.165l2.952,4.199c0,0 -1.583,-4.454 -1.421,-4.385c0.162,0.07 2.396,4.187 2.396,4.187l0.405,-2.123c0.006,-0.154 0.218,-0.211 0.318,-0.086l1.779,4.113l18.898,19.92z" fill="#B44A24" stroke="#B44A24" stroke-width="0.681492" stroke-miterlimit="10"/>
<path id="Vector_51" d="M29.952,67.534c-2.114,1.325 -3.967,3.083 -4.886,5.349l8.088,10.053l4.102,-7.948z" fill="white" stroke="white" stroke-width="0.681492" stroke-miterlimit="10"/>
<g id="Group_48">
<path id="Vector_52" d="M10.163,57.031c0.447,-0.517 0.973,-0.943 1.458,-1.417c0.536,-0.414 1.031,-0.877 1.604,-1.249l0.008,0.01l-3.061,2.666z" fill="#8B2A0C"/>
</g>
<g id="Group_49">
<path id="Vector_53" d="M14.68,55.305c-0.157,0.13 -0.297,0.275 -0.422,0.428c-0.121,0.156 -0.213,0.334 -0.248,0.521c-0.05,0.182 -0.044,0.383 0.028,0.566c0.064,0.185 0.175,0.352 0.286,0.524c-0.149,-0.137 -0.294,-0.294 -0.368,-0.493c-0.091,-0.19 -0.118,-0.415 -0.074,-0.626c0.122,-0.414 0.43,-0.744 0.798,-0.92z" fill="#8B2A0C"/>
</g>
<g id="Group_50">
<path id="Vector_54" d="M20.23,66.374c0.302,-0.432 0.689,-0.779 1.029,-1.171c0.398,-0.335 0.75,-0.717 1.187,-1.013l0.009,0.01l-2.215,2.183z" fill="#8B2A0C"/>
</g>
</g>
<g id="Group_51">
<g id="Clip path group">
<mask id="mask0_1432_24567" style="mask-type:luminance" maskUnits="userSpaceOnUse" x="249" y="173" width="40" height="45">
<g id="SVGID_00000155853510008029307610000012987496748626437795_">
<path id="Vector_55" d="M270.85 175.808C270.85 175.808 270.056 180.978 274.63 181.776C279.357 182.601 280.633 177.654 280.633 177.654L284.709 178.787C284.709 178.787 285.814 212.225 288.372 216.2C288.372 216.2 268.981 222.159 249.516 212.083L267.425 173.604L270.85 175.808Z" fill="white"/>
</g>
</mask>
<g mask="url(#mask0_1432_24567)">
<path id="Vector_56" d="M40.85,76.808c0,0 -0.794,5.17 3.78,5.968c4.727,0.825 6.003,-4.122 6.003,-4.122l4.076,1.133c0,0 1.105,33.438 3.663,37.413c0,0 -19.391,5.959 -38.856,-4.117l17.909,-38.479z" fill="#7A5FFF" stroke="#7A5FFF" stroke-width="0.85447" stroke-miterlimit="10"/>
</g>
</g>
<g id="Clip path group_2">
<mask id="mask1_1432_24567" style="mask-type:luminance" maskUnits="userSpaceOnUse" x="249" y="173" width="40" height="45">
<g id="SVGID_00000155853510008029307610000012987496748626437795__2">
<path id="Vector_57" d="M270.85 175.808C270.85 175.808 270.056 180.978 274.63 181.776C279.357 182.601 280.633 177.654 280.633 177.654L284.709 178.787C284.709 178.787 285.814 212.225 288.372 216.2C288.372 216.2 268.981 222.159 249.516 212.083L267.425 173.604L270.85 175.808Z" fill="white"/>
</g>
</mask>
<g mask="url(#mask1_1432_24567)">
<path id="Vector_58" d="M35.128,93.301l0.772,-6.314c0.007,-0.055 -0.027,-0.114 -0.074,-0.132l-4.495,-1.663c-0.092,-0.034 -0.103,-0.186 -0.016,-0.206l5.26,-1.174c0.025,-0.005 0.044,-0.024 0.054,-0.051l1.571,-4.523c0.031,-0.09 0.146,-0.06 0.168,0.042l1.026,4.758c0.011,0.052 0.051,0.092 0.094,0.095l4.695,0.317c0.088,0.006 0.134,0.148 0.063,0.199l-3.748,2.722c-0.033,0.024 -0.043,0.076 -0.025,0.124l1.899,4.973c0.038,0.1 -0.048,0.18 -0.123,0.114l-3.903,-3.404c-0.039,-0.034 -0.089,-0.031 -0.115,0.007l-2.945,4.223c-0.054,0.077 -0.171,-0.001 -0.158,-0.107z" fill="#FFD44D"/>
</g>
</g>
<g id="Clip path group_3">
<mask id="mask2_1432_24567" style="mask-type:luminance" maskUnits="userSpaceOnUse" x="249" y="173" width="40" height="45">
<g id="SVGID_00000155853510008029307610000012987496748626437795__3">
<path id="Vector_59" d="M270.85 175.808C270.85 175.808 270.056 180.978 274.63 181.776C279.357 182.601 280.633 177.654 280.633 177.654L284.709 178.787C284.709 178.787 285.814 212.225 288.372 216.2C288.372 216.2 268.981 222.159 249.516 212.083L267.425 173.604L270.85 175.808Z" fill="white"/>
</g>
</mask>
<g mask="url(#mask2_1432_24567)">
<path id="Vector_60" d="M44.93,111.127l3.274,-5.441c0.028,-0.048 0.023,-0.116 -0.014,-0.152l-3.413,-3.39c-0.069,-0.069 -0.018,-0.213 0.07,-0.194l5.265,1.119c0.024,0.005 0.049,-0.003 0.07,-0.024l3.271,-3.475c0.064,-0.068 0.156,0.007 0.135,0.109l-1.004,4.77c-0.011,0.051 0.009,0.105 0.047,0.126l4.143,2.245c0.078,0.042 0.061,0.19 -0.024,0.208l-4.518,0.923c-0.04,0.008 -0.071,0.051 -0.074,0.103l-0.297,5.33c-0.005,0.107 -0.116,0.144 -0.159,0.052l-2.164,-4.731c-0.022,-0.048 -0.068,-0.066 -0.108,-0.042l-4.398,2.628c-0.081,0.048 -0.157,-0.073 -0.102,-0.164z" fill="#FFD44D"/>
</g>
</g>
<g id="Clip path group_4">
<mask id="mask3_1432_24567" style="mask-type:luminance" maskUnits="userSpaceOnUse" x="249" y="173" width="40" height="45">
<g id="SVGID_00000155853510008029307610000012987496748626437795__4">
<path id="Vector_61" d="M270.85 175.808C270.85 175.808 270.056 180.978 274.63 181.776C279.357 182.601 280.633 177.654 280.633 177.654L284.709 178.787C284.709 178.787 285.814 212.225 288.372 216.2C288.372 216.2 268.981 222.159 249.516 212.083L267.425 173.604L270.85 175.808Z" fill="white"/>
</g>
</mask>
<g mask="url(#mask3_1432_24567)">
<path id="Vector_62" d="M24.245,113.952l-0.243,-6.353c-0.002,-0.056 -0.044,-0.108 -0.094,-0.118l-4.704,-0.909c-0.096,-0.018 -0.131,-0.166 -0.048,-0.2l5.008,-2.016c0.024,-0.009 0.039,-0.031 0.044,-0.059l0.831,-4.717c0.017,-0.093 0.134,-0.083 0.173,0.014l1.771,4.526c0.02,0.05 0.066,0.083 0.109,0.078l4.686,-0.452c0.088,-0.009 0.155,0.124 0.094,0.186l-3.267,3.295c-0.029,0.03 -0.031,0.082 -0.005,0.126l2.667,4.596c0.054,0.093 -0.018,0.184 -0.104,0.132l-4.395,-2.721c-0.044,-0.028 -0.093,-0.016 -0.113,0.026l-2.235,4.644c-0.042,0.087 -0.171,0.029 -0.175,-0.078z" fill="#FFD44D"/>
</g>
</g>
<g id="Clip path group_5">
<mask id="mask4_1432_24567" style="mask-type:luminance" maskUnits="userSpaceOnUse" x="249" y="173" width="40" height="45">
<g id="SVGID_00000155853510008029307610000012987496748626437795__5">
<path id="Vector_63" d="M270.85 175.808C270.85 175.808 270.056 180.978 274.63 181.776C279.357 182.601 280.633 177.654 280.633 177.654L284.709 178.787C284.709 178.787 285.814 212.225 288.372 216.2C288.372 216.2 268.981 222.159 249.516 212.083L267.425 173.604L270.85 175.808Z" fill="white"/>
</g>
</mask>
<g mask="url(#mask4_1432_24567)">
<path id="Vector_64" d="M48.74,87.813l1.189,-1.976c0.011,-0.017 0.008,-0.042 -0.005,-0.055l-1.239,-1.232c-0.026,-0.025 -0.007,-0.077 0.025,-0.07l1.912,0.406c0.009,0.002 0.018,-0.001 0.026,-0.008l1.188,-1.263c0.024,-0.025 0.057,0.002 0.049,0.04l-0.365,1.732c-0.004,0.019 0.004,0.038 0.018,0.046l1.505,0.815c0.028,0.015 0.022,0.069 -0.009,0.076l-1.642,0.335c-0.014,0.003 -0.025,0.019 -0.026,0.037l-0.108,1.936c-0.002,0.039 -0.042,0.053 -0.057,0.019l-0.786,-1.719c-0.008,-0.017 -0.026,-0.024 -0.039,-0.015l-1.598,0.954c-0.031,0.019 -0.058,-0.025 -0.038,-0.058z" fill="#FFD44D"/>
</g>
</g>
<g id="Clip path group_6">
<mask id="mask5_1432_24567" style="mask-type:luminance" maskUnits="userSpaceOnUse" x="249" y="173" width="40" height="45">
<g id="SVGID_00000155853510008029307610000012987496748626437795__6">
<path id="Vector_65" d="M270.85 175.808C270.85 175.808 270.056 180.978 274.63 181.776C279.357 182.601 280.633 177.654 280.633 177.654L284.709 178.787C284.709 178.787 285.814 212.225 288.372 216.2C288.372 216.2 268.981 222.159 249.516 212.083L267.425 173.604L270.85 175.808Z" fill="white"/>
</g>
</mask>
<g mask="url(#mask5_1432_24567)">
<path id="Vector_66" d="M37.413,102.79l0.575,-2.237c0.005,-0.02 -0.005,-0.043 -0.02,-0.051l-1.541,-0.816c-0.031,-0.016 -0.028,-0.072 0.005,-0.075l1.948,-0.169c0.01,-0.001 0.018,-0.007 0.022,-0.016l0.779,-1.554c0.015,-0.03 0.055,-0.014 0.058,0.024l0.145,1.763c0.002,0.02 0.015,0.036 0.03,0.039l1.674,0.341c0.032,0.006 0.041,0.059 0.014,0.074l-1.477,0.8c-0.013,0.007 -0.019,0.025 -0.015,0.044l0.449,1.883c0.01,0.039 -0.026,0.063 -0.049,0.036l-1.244,-1.415c-0.012,-0.014 -0.031,-0.016 -0.042,-0.003l-1.258,1.38c-0.025,0.023 -0.063,-0.01 -0.053,-0.048z" fill="#FFD44D"/>
</g>
</g>
<g id="Clip path group_7">
<mask id="mask6_1432_24567" style="mask-type:luminance" maskUnits="userSpaceOnUse" x="249" y="173" width="40" height="45">
<g id="SVGID_00000155853510008029307610000012987496748626437795__7">
<path id="Vector_67" d="M270.85 175.808C270.85 175.808 270.056 180.978 274.63 181.776C279.357 182.601 280.633 177.654 280.633 177.654L284.709 178.787C284.709 178.787 285.814 212.225 288.372 216.2C288.372 216.2 268.981 222.159 249.516 212.083L267.425 173.604L270.85 175.808Z" fill="white"/>
</g>
</mask>
<g mask="url(#mask6_1432_24567)">
<path id="Vector_68" d="M36.413,120.143l1.189,-1.976c0.011,-0.017 0.009,-0.042 -0.005,-0.055l-1.24,-1.232c-0.025,-0.025 -0.006,-0.077 0.026,-0.07l1.912,0.406c0.01,0.002 0.018,-0.001 0.025,-0.008l1.189,-1.263c0.024,-0.025 0.057,0.002 0.05,0.04l-0.365,1.732c-0.004,0.019 0.004,0.038 0.017,0.046l1.505,0.815c0.028,0.015 0.023,0.069 -0.008,0.076l-1.642,0.335c-0.014,0.003 -0.026,0.019 -0.027,0.037l-0.107,1.936c-0.003,0.039 -0.043,0.053 -0.058,0.019l-0.786,-1.719c-0.008,-0.017 -0.025,-0.024 -0.039,-0.015l-1.598,0.954c-0.031,0.02 -0.058,-0.024 -0.038,-0.058z" fill="#FFD44D"/>
</g>
</g>
</g>
</g>
</g>
</g>
<path id="Vector_69" d="M48.803,139.959c-2.668,-0.143 -5.336,-0.278 -8.008,-0.268c-0.105,0 -0.18,-0.042 -0.235,-0.103l0.056,1.962l-1.273,5.409l9.643,0.341l-1.477,-4.671c0.453,-0.695 0.883,-1.608 1.294,-2.67z" fill="#CCC1FF" stroke="#CCC1FF" stroke-width="0.85447" stroke-miterlimit="10"/>
</g></svg>