<svg viewBox="0 0 403 54" x="0" y="0" fill="none" xmlns="http://www.w3.org/2000/svg"><defs><mask id="mask0_1432_23675" style="mask-type:luminance" maskUnits="userSpaceOnUse" x="8" y="23" width="29" height="22" xmlns="http://www.w3.org/2000/svg">
<g id="SVGID_00000165928890544357328630000010163460873986055059_" data-node-id="1432:23695">
<path id="Vector_7" data-node-id="1432:23696" d="M36.3111,35.3374c-0.6801,-0.6369 -1.6491,-0.6062 -2.5135,-0.3083c-0.4404,0.1517 -0.8528,0.3615 -1.2486,0.5878c-0.2375,0.1356 -0.7103,0.6298 -1.0002,0.5762c-0.2,-0.0367 -0.2311,-0.3274 -0.2923,-0.466c-0.5375,-1.2166 -1.6951,-2.3454 -2.6229,-3.3454c-1.041,-1.1213 -2.1522,-2.1898 -3.2591,-3.2598c-1.8888,-1.8258 -3.626,-3.8324 -4.7853,-6.0939c-0.3617,0.2859 -1.0882,0.8621 -1.238,0.9993c-1.4453,1.324 -3.02,2.5585 -4.7176,3.6274c-0.7874,0.4957 -1.607,0.9572 -2.4803,1.3267c-0.7771,0.3289 -1.6228,0.6016 -2.4952,0.6091c-0.0056,0 -0.0094,-0.0022 -0.0149,-0.0026c-0.1983,0.556 -0.3537,1.1296 -0.4601,1.719c-1.2661,7.0068 2.8178,11.8339 10.1728,12.8507c4.3413,0.6002 8.5219,-0.9632 11.235,-3.8073c1.0575,0.9442 3.1352,0.6467 4.7009,-0.6938c1.5985,-1.3679 2.1799,-3.2314 1.0193,-4.3191z" fill="white"/>
</g>
</mask><mask id="mask1_1432_23675" style="mask-type:luminance" maskUnits="userSpaceOnUse" x="8" y="23" width="29" height="22" xmlns="http://www.w3.org/2000/svg">
<g id="SVGID_00000165928890544357328630000010163460873986055059__2" data-node-id="1432:23699">
<path id="Vector_9" data-node-id="1432:23700" d="M36.3111,35.3374c-0.6801,-0.6369 -1.6491,-0.6062 -2.5135,-0.3083c-0.4404,0.1517 -0.8528,0.3615 -1.2486,0.5878c-0.2375,0.1356 -0.7103,0.6298 -1.0002,0.5762c-0.2,-0.0367 -0.2311,-0.3274 -0.2923,-0.466c-0.5375,-1.2166 -1.6951,-2.3454 -2.6229,-3.3454c-1.041,-1.1213 -2.1522,-2.1898 -3.2591,-3.2598c-1.8888,-1.8258 -3.626,-3.8324 -4.7853,-6.0939c-0.3617,0.2859 -1.0882,0.8621 -1.238,0.9993c-1.4453,1.324 -3.02,2.5585 -4.7176,3.6274c-0.7874,0.4957 -1.607,0.9572 -2.4803,1.3267c-0.7771,0.3289 -1.6228,0.6016 -2.4952,0.6091c-0.0056,0 -0.0094,-0.0022 -0.0149,-0.0026c-0.1983,0.556 -0.3537,1.1296 -0.4601,1.719c-1.2661,7.0068 2.8178,11.8339 10.1728,12.8507c4.3413,0.6002 8.5219,-0.9632 11.235,-3.8073c1.0575,0.9442 3.1352,0.6467 4.7009,-0.6938c1.5985,-1.3679 2.1799,-3.2314 1.0193,-4.3191z" fill="white"/>
</g>
</mask><mask id="mask2_1432_23675" style="mask-type:luminance" maskUnits="userSpaceOnUse" x="8" y="23" width="29" height="22" xmlns="http://www.w3.org/2000/svg">
<g id="SVGID_00000165928890544357328630000010163460873986055059__3" data-node-id="1432:23703">
<path id="Vector_11" data-node-id="1432:23704" d="M36.3111,35.3374c-0.6801,-0.6369 -1.6491,-0.6062 -2.5135,-0.3083c-0.4404,0.1517 -0.8528,0.3615 -1.2486,0.5878c-0.2375,0.1356 -0.7103,0.6298 -1.0002,0.5762c-0.2,-0.0367 -0.2311,-0.3274 -0.2923,-0.466c-0.5375,-1.2166 -1.6951,-2.3454 -2.6229,-3.3454c-1.041,-1.1213 -2.1522,-2.1898 -3.2591,-3.2598c-1.8888,-1.8258 -3.626,-3.8324 -4.7853,-6.0939c-0.3617,0.2859 -1.0882,0.8621 -1.238,0.9993c-1.4453,1.324 -3.02,2.5585 -4.7176,3.6274c-0.7874,0.4957 -1.607,0.9572 -2.4803,1.3267c-0.7771,0.3289 -1.6228,0.6016 -2.4952,0.6091c-0.0056,0 -0.0094,-0.0022 -0.0149,-0.0026c-0.1983,0.556 -0.3537,1.1296 -0.4601,1.719c-1.2661,7.0068 2.8178,11.8339 10.1728,12.8507c4.3413,0.6002 8.5219,-0.9632 11.235,-3.8073c1.0575,0.9442 3.1352,0.6467 4.7009,-0.6938c1.5985,-1.3679 2.1799,-3.2314 1.0193,-4.3191z" fill="white"/>
</g>
</mask><mask id="mask3_1432_23675" style="mask-type:luminance" maskUnits="userSpaceOnUse" x="8" y="23" width="29" height="22" xmlns="http://www.w3.org/2000/svg">
<g id="SVGID_00000165928890544357328630000010163460873986055059__4" data-node-id="1432:23707">
<path id="Vector_13" data-node-id="1432:23708" d="M36.3111,35.3374c-0.6801,-0.6369 -1.6491,-0.6062 -2.5135,-0.3083c-0.4404,0.1517 -0.8528,0.3615 -1.2486,0.5878c-0.2375,0.1356 -0.7103,0.6298 -1.0002,0.5762c-0.2,-0.0367 -0.2311,-0.3274 -0.2923,-0.466c-0.5375,-1.2166 -1.6951,-2.3454 -2.6229,-3.3454c-1.041,-1.1213 -2.1522,-2.1898 -3.2591,-3.2598c-1.8888,-1.8258 -3.626,-3.8324 -4.7853,-6.0939c-0.3617,0.2859 -1.0882,0.8621 -1.238,0.9993c-1.4453,1.324 -3.02,2.5585 -4.7176,3.6274c-0.7874,0.4957 -1.607,0.9572 -2.4803,1.3267c-0.7771,0.3289 -1.6228,0.6016 -2.4952,0.6091c-0.0056,0 -0.0094,-0.0022 -0.0149,-0.0026c-0.1983,0.556 -0.3537,1.1296 -0.4601,1.719c-1.2661,7.0068 2.8178,11.8339 10.1728,12.8507c4.3413,0.6002 8.5219,-0.9632 11.235,-3.8073c1.0575,0.9442 3.1352,0.6467 4.7009,-0.6938c1.5985,-1.3679 2.1799,-3.2314 1.0193,-4.3191z" fill="white"/>
</g>
</mask></defs><g id="Frame 1321314742" xmlns="http://www.w3.org/2000/svg">
<g id="Frame 427318911">
<g id="Group">
<g id="Group_2">
<g id="Group_3">
<g id="Group_4">
<path id="Vector_2" d="M47.397,36.6319c0,0 2.974,-0.9157 3.469,-3.9796c0.496,-3.064 -3.404,-3.548 -3.404,-3.548c2.166,-1.2533 1.952,-3.7811 1.952,-3.7811c0.604,-4.5318 -3.324,-5.1021 -3.324,-5.1021c0,0 1.716,-1.4574 1.282,-3.6281c-0.843,-4.2202 -5.518,-3.6009 -5.518,-3.6009c-0.215,-2.1621 -1.827,-4.0084 -4.1046,-4.5689c-0.0345,-0.0086 -0.069,-0.0169 -0.1034,-0.0248c-2.328,-0.5488 -4.7972,0.3702 -6.1574,2.2165l-0.1911,0.2597c-0.054,-0.269 -0.1702,-0.5508 -0.3183,-0.8269c-0.7648,-1.4278 -2.2156,-2.4368 -3.8958,-2.838c-3.9924,-0.9532 -6.2595,1.6526 -6.2595,1.6526c-1.4342,-1.9861 -5.3398,-1.6792 -5.3398,-1.6792c-8.6232,0.9722 -7.486,8.8449 -7.486,8.8449c0,0 -3.6209,-2.6178 -6.8481,2.2996c-3.2276,4.917 1.3636,8.9701 1.3636,8.9701c-0.8027,0.2023 -1.6875,1.496 -1.6875,1.496c-2.4896,5.02 4.604,7.1915 4.604,7.1915c-3.2089,4.9268 3.9737,5.4543 3.9737,5.4543c0.3992,2.8661 3.1574,0.8591 3.1574,0.8591c-0.5592,3.4753 2.5309,2.1378 2.5309,2.1378c0.452,2.1291 2.6855,0.1195 2.6855,0.1195l0.4132,-0.0304c-0.0434,0.8764 0.6571,1.6616 1.6649,1.801c0.8895,0.1229 1.7257,-0.2993 2.093,-0.9808c0.4209,0.8178 1.3432,1.4559 2.5025,1.6162c1.7261,0.2387 3.3238,-0.6695 3.6089,-2.0344c0.2669,0.4302 0.7431,0.7539 1.3355,0.8355c0.8039,0.1113 1.5619,-0.254 1.9224,-0.8538c1.0503,2.7297 3.7038,0.8707 3.7038,0.8707c2.0509,1.6009 3.2272,-0.5418 3.2272,-0.5418c0,0 1.839,1.6204 4.327,-0.7661c1.394,-1.3379 0.484,-3.8609 0.484,-3.8609c0,0 2.269,1.9153 4.297,0.1416c2.242,-1.962 0.04,-4.1208 0.04,-4.1208z" fill="#1A0000" stroke="#1A0000" stroke-width="0.203916" stroke-miterlimit="10" stroke-linecap="round"/>
<g id="Group_5">
<g id="Group_6">
<path id="Vector_3" d="M4.4149,10.9477c0.5511,-0.0333 1.2456,0 1.261,0.6261c0.0059,0.248 -0.0971,0.5324 -0.2401,0.744c-0.0783,0.1158 -0.1689,0.2349 -0.3251,0.2792c-0.2898,0.082 -0.4341,-0.1919 -0.2962,-0.3874c0.2924,-0.414 1.1035,-0.3511 1.4219,-0.0098c0.3149,0.3372 0.1268,0.9056 -0.3567,1.0187c0.0477,0.0723 0.0958,0.1446 0.1434,0.2169c0.3797,-0.2588 0.8729,0.0259 0.9729,0.3833c0.0541,0.1926 0.0217,0.3987 -0.0561,0.5826c-0.0545,0.1289 -0.1452,0.2454 -0.1256,0.3897c0.0366,0.2701 0.3975,0.4758 0.5592,0.689c0.2273,0.2997 0.3694,0.6324 0.4426,0.9857c0.0341,0.1641 0.3179,0.0944 0.2843,-0.069c-0.0864,-0.4181 -0.2711,-0.8133 -0.5583,-1.1558c-0.2005,-0.239 -0.4516,-0.3454 -0.3541,-0.6942c0.0544,-0.1941 0.1349,-0.3533 0.1272,-0.5598c-0.0247,-0.6668 -0.8354,-1.1884 -1.5006,-0.735c-0.1221,0.0831 0.0123,0.2476 0.1434,0.2169c0.5652,-0.1326 0.8652,-0.7085 0.6673,-1.1854c-0.2136,-0.5159 -0.9431,-0.7242 -1.5048,-0.5639c-0.2835,0.0809 -0.5686,0.2638 -0.6439,0.5305c-0.0647,0.2289 0.043,0.4916 0.2992,0.5856c0.7073,0.26 1.1222,-0.6343 1.1827,-1.0966c0.0429,-0.3286 -0.0515,-0.6635 -0.3648,-0.8673c-0.3349,-0.2181 -0.783,-0.2065 -1.1784,-0.1829c-0.1885,0.0109 -0.1902,0.2702 -0.0004,0.2589z" fill="#1A0000"/>
</g>
</g>
<g id="Group_7">
<g id="Group_8">
<path id="Vector_4" d="M50.932,17.2609c-0.594,-0.3395 -1.387,-0.5714 -1.831,0.0764c-0.286,0.4177 -0.476,1.3105 0.129,1.5885c0.248,0.1139 0.531,0.0472 0.69,-0.1517c0.188,-0.2353 0.124,-0.5418 -0.046,-0.7699c-0.337,-0.4537 -1.086,-0.6699 -1.633,-0.3788c-0.541,0.2881 -0.65,1.0142 -0.193,1.4008c0.129,0.1091 0.293,-0.0281 0.231,-0.1573c-0.341,-0.7092 -1.406,-0.4886 -1.743,0.0933c-0.096,0.1648 -0.122,0.3315 -0.16,0.5099c-0.065,0.3008 -0.401,0.3117 -0.668,0.4162c-0.447,0.1757 -0.834,0.4447 -1.144,0.7778c-0.119,0.1281 0.088,0.3128 0.209,0.1836c0.265,-0.2848 0.581,-0.5185 0.956,-0.6838c0.274,-0.121 0.746,-0.1457 0.888,-0.4229c0.062,-0.1203 0.043,-0.2619 0.073,-0.3889c0.041,-0.1773 0.131,-0.3526 0.276,-0.4826c0.314,-0.2806 0.873,-0.2593 1.059,0.1285c0.077,-0.0524 0.154,-0.1049 0.232,-0.157c-0.323,-0.2735 -0.245,-0.7845 0.133,-0.9936c0.465,-0.2566 1.233,0.0206 1.337,0.5025c0.035,0.1611 -0.03,0.4162 -0.304,0.3649c-0.232,-0.0435 -0.278,-0.3016 -0.283,-0.4687c-0.006,-0.2117 0.043,-0.4369 0.134,-0.6324c0.108,-0.2312 0.299,-0.4302 0.602,-0.45c0.33,-0.0214 0.644,0.1678 0.908,0.3188c0.159,0.0914 0.307,-0.133 0.148,-0.2236z" fill="#1A0000"/>
</g>
</g>
</g>
<path id="Vector_5" d="M10.5236,39.9415l-0.6668,-0.9007l-0.7163,0.7831l0.169,-1.2405l-0.7814,-0.432l0.9839,-0.0408l0.4733,-0.8944l0.2941,0.9457l1.0031,0.1746l-0.7904,0.3832z" fill="white" stroke="white" stroke-width="0.0485751" stroke-miterlimit="10" stroke-linecap="round"/>
<path id="Vector_6" d="M9.8145,30.0119c0,0 -0.0047,-13.0482 14.2757,-11.9407c13.5362,1.0498 10.9925,17.1166 7.418,18.7343l-0.2388,0.4114c0,0 2.1956,-9.4627 -2.5705,-14.1905c-3.1059,-3.0808 -8.3295,-3.4888 -12.1338,-1.0906c-1.982,1.2494 -4.8921,4.6217 -6.7506,8.0761z" fill="#FFD44D" stroke="#FFD44D" stroke-width="0.185963" stroke-miterlimit="10"/>
</g>
</g>
<g id="Group_9">
<g id="Clip path group">
<mask id="mask0_1432_23675" style="mask-type:luminance" maskUnits="userSpaceOnUse" x="69" y="63" width="29" height="22">
<g id="SVGID_00000165928890544357328630000010163460873986055059_">
<path id="Vector_7" d="M97.3111 75.3374C96.631 74.7005 95.662 74.7312 94.7976 75.0291C94.3572 75.1808 93.9448 75.3906 93.549 75.6169C93.3115 75.7525 92.8387 76.2467 92.5488 76.1931C92.3488 76.1564 92.3177 75.8657 92.2565 75.7271C91.719 74.5105 90.5614 73.3817 89.6336 72.3817C88.5926 71.2604 87.4814 70.1919 86.3745 69.1219C84.4857 67.2961 82.7485 65.2895 81.5892 63.028C81.2275 63.3139 80.501 63.8901 80.3512 64.0273C78.9059 65.3513 77.3312 66.5858 75.6336 67.6547C74.8462 68.1504 74.0266 68.6119 73.1533 68.9814C72.3762 69.3103 71.5305 69.583 70.6581 69.5905C70.6525 69.5905 70.6487 69.5883 70.6432 69.5879C70.4449 70.1439 70.2895 70.7175 70.1831 71.3069C68.917 78.3137 73.0009 83.1408 80.3559 84.1576C84.6972 84.7578 88.8778 83.1944 91.5909 80.3503C92.6484 81.2945 94.7261 80.997 96.2918 79.6565C97.8903 78.2886 98.4717 76.4251 97.3111 75.3374Z" fill="white"/>
</g>
</mask>
<g mask="url(#mask0_1432_23675)">
<path id="Vector_8" d="M36.3111,35.337c-0.6801,-0.6369 -1.6491,-0.6062 -2.5135,-0.3083c-0.4404,0.1517 -0.8528,0.3615 -1.2486,0.5878c-0.2375,0.1356 -0.7103,0.6298 -1.0002,0.5762c-0.2,-0.0367 -0.2311,-0.3274 -0.2923,-0.4661c-0.5375,-1.2165 -1.6951,-2.3453 -2.6229,-3.3453c-1.041,-1.1213 -2.1522,-2.1899 -3.2591,-3.2599c-1.8888,-1.8257 -3.626,-3.8323 -4.7853,-6.0938c-0.3617,0.2859 -1.0882,0.8621 -1.238,0.9992c-1.4453,1.3241 -3.02,2.5586 -4.7176,3.6275c-0.7874,0.4956 -1.607,0.9572 -2.4803,1.3266c-0.7771,0.329 -1.6228,0.6017 -2.4952,0.6092c-0.0056,0 -0.0094,-0.0022 -0.0149,-0.0026c-0.1983,0.556 -0.3537,1.1296 -0.4601,1.7189c-1.2661,7.0069 2.8178,11.834 10.1728,12.8508c4.3413,0.6002 8.5219,-0.9633 11.235,-3.8073c1.0575,0.9441 3.1352,0.6467 4.7009,-0.6939c1.5985,-1.3678 2.1799,-3.2314 1.0193,-4.319z" fill="#CD5428" stroke="#CD5428" stroke-width="0.191485" stroke-miterlimit="10"/>
</g>
</g>
<g id="Clip path group_2">
<mask id="mask1_1432_23675" style="mask-type:luminance" maskUnits="userSpaceOnUse" x="69" y="63" width="29" height="22">
<g id="SVGID_00000165928890544357328630000010163460873986055059__2">
<path id="Vector_9" d="M97.3111 75.3374C96.631 74.7005 95.662 74.7312 94.7976 75.0291C94.3572 75.1808 93.9448 75.3906 93.549 75.6169C93.3115 75.7525 92.8387 76.2467 92.5488 76.1931C92.3488 76.1564 92.3177 75.8657 92.2565 75.7271C91.719 74.5105 90.5614 73.3817 89.6336 72.3817C88.5926 71.2604 87.4814 70.1919 86.3745 69.1219C84.4857 67.2961 82.7485 65.2895 81.5892 63.028C81.2275 63.3139 80.501 63.8901 80.3512 64.0273C78.9059 65.3513 77.3312 66.5858 75.6336 67.6547C74.8462 68.1504 74.0266 68.6119 73.1533 68.9814C72.3762 69.3103 71.5305 69.583 70.6581 69.5905C70.6525 69.5905 70.6487 69.5883 70.6432 69.5879C70.4449 70.1439 70.2895 70.7175 70.1831 71.3069C68.917 78.3137 73.0009 83.1408 80.3559 84.1576C84.6972 84.7578 88.8778 83.1944 91.5909 80.3503C92.6484 81.2945 94.7261 80.997 96.2918 79.6565C97.8903 78.2886 98.4717 76.4251 97.3111 75.3374Z" fill="white"/>
</g>
</mask>
<g mask="url(#mask1_1432_23675)">
<path id="Vector_10" opacity="0.49" d="M27.2529,40.5629c-0.643,1.6001 -2.6377,2.4382 -4.4554,1.8721c-1.8177,-0.5661 -2.7697,-2.3221 -2.1267,-3.9223c0.6431,-1.6001 2.6378,-2.4382 4.4555,-1.8721c1.8177,0.5661 2.7697,2.3221 2.1266,3.9223z" fill="#8B2A0C" stroke="#8B2A0C" stroke-width="0.230532" stroke-miterlimit="10"/>
</g>
</g>
<g id="Clip path group_3">
<mask id="mask2_1432_23675" style="mask-type:luminance" maskUnits="userSpaceOnUse" x="69" y="63" width="29" height="22">
<g id="SVGID_00000165928890544357328630000010163460873986055059__3">
<path id="Vector_11" d="M97.3111 75.3374C96.631 74.7005 95.662 74.7312 94.7976 75.0291C94.3572 75.1808 93.9448 75.3906 93.549 75.6169C93.3115 75.7525 92.8387 76.2467 92.5488 76.1931C92.3488 76.1564 92.3177 75.8657 92.2565 75.7271C91.719 74.5105 90.5614 73.3817 89.6336 72.3817C88.5926 71.2604 87.4814 70.1919 86.3745 69.1219C84.4857 67.2961 82.7485 65.2895 81.5892 63.028C81.2275 63.3139 80.501 63.8901 80.3512 64.0273C78.9059 65.3513 77.3312 66.5858 75.6336 67.6547C74.8462 68.1504 74.0266 68.6119 73.1533 68.9814C72.3762 69.3103 71.5305 69.583 70.6581 69.5905C70.6525 69.5905 70.6487 69.5883 70.6432 69.5879C70.4449 70.1439 70.2895 70.7175 70.1831 71.3069C68.917 78.3137 73.0009 83.1408 80.3559 84.1576C84.6972 84.7578 88.8778 83.1944 91.5909 80.3503C92.6484 81.2945 94.7261 80.997 96.2918 79.6565C97.8903 78.2886 98.4717 76.4251 97.3111 75.3374Z" fill="white"/>
</g>
</mask>
<g mask="url(#mask2_1432_23675)">
<path id="Vector_12" opacity="0.49" d="M13.3941,38.0567c-0.5754,1.432 -2.3608,2.1824 -3.9878,1.6755c-1.6266,-0.5065 -2.479,-2.0782 -1.9032,-3.5105c0.5754,-1.432 2.3607,-2.1824 3.9877,-1.6755c1.6266,0.5065 2.4786,2.0782 1.9033,3.5105z" fill="#8B2A0C" stroke="#8B2A0C" stroke-width="0.20632" stroke-miterlimit="10"/>
</g>
</g>
<g id="Clip path group_4">
<mask id="mask3_1432_23675" style="mask-type:luminance" maskUnits="userSpaceOnUse" x="69" y="63" width="29" height="22">
<g id="SVGID_00000165928890544357328630000010163460873986055059__4">
<path id="Vector_13" d="M97.3111 75.3374C96.631 74.7005 95.662 74.7312 94.7976 75.0291C94.3572 75.1808 93.9448 75.3906 93.549 75.6169C93.3115 75.7525 92.8387 76.2467 92.5488 76.1931C92.3488 76.1564 92.3177 75.8657 92.2565 75.7271C91.719 74.5105 90.5614 73.3817 89.6336 72.3817C88.5926 71.2604 87.4814 70.1919 86.3745 69.1219C84.4857 67.2961 82.7485 65.2895 81.5892 63.028C81.2275 63.3139 80.501 63.8901 80.3512 64.0273C78.9059 65.3513 77.3312 66.5858 75.6336 67.6547C74.8462 68.1504 74.0266 68.6119 73.1533 68.9814C72.3762 69.3103 71.5305 69.583 70.6581 69.5905C70.6525 69.5905 70.6487 69.5883 70.6432 69.5879C70.4449 70.1439 70.2895 70.7175 70.1831 71.3069C68.917 78.3137 73.0009 83.1408 80.3559 84.1576C84.6972 84.7578 88.8778 83.1944 91.5909 80.3503C92.6484 81.2945 94.7261 80.997 96.2918 79.6565C97.8903 78.2886 98.4717 76.4251 97.3111 75.3374Z" fill="white"/>
</g>
</mask>
<g mask="url(#mask3_1432_23675)">
<g id="Group_10">
<g id="Group_11">
<path id="Vector_14" d="M33.2656,41.9446l-0.6665,-0.9007l-0.7167,0.783l0.169,-1.2408l-0.7814,-0.432l0.984,-0.0405l0.4732,-0.8943l0.2945,0.9457l1.0027,0.1746l-0.7903,0.3832z" fill="white" stroke="white" stroke-width="0.0485751" stroke-miterlimit="10" stroke-linecap="round"/>
<g id="Group_12">
<g id="Group_13">
<path id="Vector_15" d="M32.5735,36.6477c0.5137,-0.4076 1.1073,-0.7616 1.8168,-0.9246c0.3503,-0.0794 0.7571,-0.0967 1.1342,0.0539c0.3736,0.1596 0.6405,0.4534 0.7354,0.8179c0.0774,0.3679 -0.0545,0.707 -0.2149,0.9932c-0.1724,0.2863 -0.3826,0.5422 -0.6193,0.7733c-0.4694,0.4646 -1.0162,0.8524 -1.6053,1.1753c0.4822,-0.4376 0.9385,-0.8898 1.3423,-1.363c0.1941,-0.2409 0.3826,-0.4837 0.5124,-0.7429c0.1324,-0.254 0.2192,-0.5272 0.1601,-0.7621c-0.0469,-0.2263 -0.2482,-0.4604 -0.4907,-0.5683c-0.2482,-0.1199 -0.569,-0.1259 -0.887,-0.0866c-0.6409,0.0956 -1.2776,0.3466 -1.884,0.6339z" fill="#8B2A0C"/>
</g>
<g id="Group_14">
<path id="Vector_16" d="M30.5667,40.3778c0.1587,-0.1885 0.2783,-0.3983 0.3919,-0.6077c0.1115,-0.211 0.2107,-0.4275 0.2954,-0.6482c0.18,-0.4383 0.3106,-0.8913 0.4413,-1.3465c-0.0315,0.233 -0.0736,0.4653 -0.1332,0.695c-0.0613,0.2289 -0.1332,0.4559 -0.2209,0.6785c-0.1843,0.4398 -0.4073,0.883 -0.7745,1.2289z" fill="#8B2A0C"/>
</g>
</g>
</g>
<g id="Group_15">
<g id="Group_16">
<path id="Vector_17" d="M20.5535,22.5843c-0.4702,0.1874 -0.9137,0.4759 -1.115,0.9086c-0.1685,0.3619 -0.1515,0.819 0.1575,1.121c0.2672,0.2611 0.7775,0.3814 1.0767,0.0918c0.229,-0.2218 0.2341,-0.6092 -0.0851,-0.767c-0.4073,-0.2012 -0.9916,-0.0217 -1.3121,0.2323c-0.3486,0.2765 -0.5013,0.722 -0.3996,1.1236c0.0919,0.3634 0.4643,0.707 0.9171,0.5774c0.3673,-0.1049 0.4911,-0.5616 0.1081,-0.725c-0.4383,-0.1869 -0.9422,0.1087 -1.124,0.4593c-0.243,0.468 0.029,0.9843 0.3801,1.3436c0.117,0.1198 0.3132,-0.0544 0.197,-0.1735c-0.2519,-0.2578 -0.4707,-0.6178 -0.3651,-0.9681c0.0459,-0.1521 0.1587,-0.2911 0.3077,-0.3788c0.0983,-0.0577 0.606,-0.2113 0.5626,0.0731c-0.034,0.2225 -0.4001,0.1528 -0.5175,0.058c-0.1515,-0.1225 -0.212,-0.3162 -0.2183,-0.4919c-0.0124,-0.3421 0.1923,-0.6688 0.5307,-0.8374c0.217,-0.1082 0.9729,-0.2705 0.9039,0.1432c-0.0685,0.4121 -0.6443,0.2409 -0.8218,-0.003c-0.486,-0.6692 0.3298,-1.3252 0.9588,-1.5758c0.1622,-0.0645 0.0209,-0.2758 -0.1417,-0.2114z" fill="#1A0000"/>
</g>
</g>
<g id="Group_17">
<g id="Group_18">
<g id="Group_19">
<g id="Group_20">
<path id="Vector_18" d="M15.8164,34.9909c0.1141,-0.2949 0.3183,-0.5732 0.6141,-0.7752c0.2899,-0.2045 0.6899,-0.3196 1.0725,-0.2765c0.1885,0.0188 0.38,0.066 0.5524,0.1506c0.1673,0.0922 0.3132,0.2151 0.4094,0.362c0.1988,0.2914 0.2311,0.6301 0.1707,0.9359c-0.0545,-0.3058 -0.169,-0.5991 -0.3635,-0.8209c-0.1945,-0.2233 -0.4813,-0.3425 -0.7996,-0.3661c-0.3141,-0.0389 -0.6286,0.0386 -0.9095,0.1832c-0.2796,0.1492 -0.5316,0.3605 -0.7465,0.607z" fill="#8B2A0C"/>
</g>
</g>
<g id="Group_21" opacity="0.53">
<g id="Group_22">
<path id="Vector_19" d="M15.834,34.991c0,0 0.6643,-1.1082 1.8747,-0.8385c1.0393,0.2316 0.9252,1.3286 0.9252,1.3286" fill="#8B2A0C"/>
<path id="Vector_20" d="M15.834,34.9918c0.1264,-0.2908 0.343,-0.562 0.6469,-0.7542c0.2983,-0.1945 0.703,-0.2964 1.0835,-0.2406c0.1877,0.0251 0.3767,0.0783 0.5456,0.169c0.1634,0.0974 0.3039,0.2256 0.3937,0.375c0.1864,0.2979 0.2038,0.6377 0.1302,0.9408c-0.0413,-0.3072 -0.143,-0.6043 -0.3281,-0.8321c-0.1847,-0.2297 -0.4665,-0.3582 -0.7835,-0.3926c-0.312,-0.0495 -0.6299,0.0176 -0.9167,0.1528c-0.2856,0.1401 -0.5465,0.3428 -0.7716,0.5819z" fill="#8B2A0C"/>
</g>
</g>
</g>
<g id="Group_23">
<path id="Vector_21" d="M9.6931,31.9537c-0.1102,1.5983 1.2827,2.9707 3.1111,3.0647c1.8283,0.094 3.3995,-1.1251 3.5093,-2.7234c0.1102,-1.5983 -1.2827,-2.9706 -3.111,-3.0647c-1.8279,-0.0944 -3.3991,1.1251 -3.5094,2.7234z" fill="white"/>
<path id="Vector_22" d="M11.3048,31.4047c-0.2477,1.212 0.5737,2.369 1.8351,2.5844c1.2615,0.2154 2.4846,-0.5927 2.7327,-1.8044c0.2481,-1.2116 -0.5737,-2.3689 -1.8351,-2.5843c-1.2614,-0.2155 -2.485,0.5923 -2.7327,1.8043z" fill="#280707" stroke="#280707" stroke-width="0.193001" stroke-miterlimit="10"/>
<g id="Group_24">
<g id="Group_25">
<path id="Vector_23" d="M16.3927,31.7033c-0.1736,-0.3192 -0.3677,-0.6268 -0.6026,-0.9033c-0.2273,-0.2795 -0.475,-0.5417 -0.764,-0.7557c-0.294,-0.2072 -0.6102,-0.3743 -0.9452,-0.4926c-0.343,-0.0993 -0.6967,-0.1645 -1.0631,-0.1563c-0.7448,-0.0018 -1.4768,0.1821 -2.0539,0.5725c-0.5992,0.3762 -0.995,0.9951 -1.229,1.6403l-0.0392,0.1082l-0.0923,-0.0311c-0.2188,-0.0734 -0.4358,-0.1517 -0.6508,-0.2371l0.0098,-0.0307l0.6741,0.1618l-0.0255,0.015c0.1417,-0.6987 0.5265,-1.3739 1.1521,-1.8355c0.6209,-0.463 1.4474,-0.6875 2.2547,-0.677c0.4069,-0.0015 0.8107,0.0705 1.1891,0.2009c0.372,0.1438 0.7128,0.3446 1.0065,0.5912c0.5737,0.505 0.9793,1.1423 1.2146,1.8223z" fill="black"/>
</g>
<g id="Group_26">
<path id="Vector_24" d="M9.7255,31.1748l-0.6239,-0.4447l0.7869,0.1382z" fill="black"/>
</g>
<g id="Group_27">
<path id="Vector_25" d="M10.0378,30.5274l-0.5205,-0.5084l0.7337,0.2267z" fill="black"/>
</g>
</g>
<g id="Group_28">
<path id="Vector_26" d="M15.3866,34.2775c-0.4052,0.2915 -0.8814,0.5096 -1.3887,0.6504c-0.5069,0.1424 -1.055,0.1956 -1.5942,0.1342c-0.2715,-0.0251 -0.5307,-0.1046 -0.7878,-0.1817c-0.24,-0.1132 -0.4911,-0.2084 -0.6928,-0.3698c-0.2247,-0.133 -0.392,-0.3204 -0.569,-0.4927c-0.1622,-0.1836 -0.2928,-0.3878 -0.4239,-0.5837c0.36,0.3342 0.7124,0.662 1.1431,0.889c0.4145,0.2432 0.8856,0.3987 1.3746,0.4477c0.4873,0.0607 0.9899,0.0267 1.4832,-0.064c0.492,-0.0974 0.9831,-0.2353 1.4555,-0.4294z" fill="black"/>
</g>
</g>
<g id="Group_29">
<path id="Vector_27" d="M27.6403,34.7843c-0.4681,1.6541 -2.4365,2.6664 -4.3967,2.2614c-1.9602,-0.4054 -3.1702,-2.0749 -2.7025,-3.729c0.4682,-1.6541 2.4365,-2.6664 4.3972,-2.2614c1.9602,0.405 3.1697,2.0745 2.702,3.729z" fill="white"/>
<path id="Vector_28" d="M27.6313,34.0292c-0.1783,1.278 -1.4367,2.2131 -2.8114,2.0891c-1.3746,-0.124 -2.3445,-1.2607 -2.1662,-2.5387c0.1783,-1.2779 1.4368,-2.2131 2.8114,-2.0891c1.3747,0.1244 2.3446,1.2608 2.1662,2.5387z" fill="#280707" stroke="#280707" stroke-width="0.204652" stroke-miterlimit="10"/>
<g id="Group_30">
<g id="Group_31">
<path id="Vector_29" d="M20.6851,32.797c0.3915,-0.6841 1.0111,-1.2731 1.7998,-1.6758c0.3949,-0.2023 0.8439,-0.329 1.3082,-0.3811c0.4647,-0.0352 0.9418,-0.0127 1.3891,0.1016c0.8822,0.2045 1.704,0.6965 2.2241,1.3851c0.2588,0.3454 0.3937,0.7463 0.4669,1.1378c0.0749,0.3957 0.0574,0.7909 -0.0511,1.1795l-0.1072,-0.1154c0.2498,0.0269 0.4996,0.0592 0.749,0.0992l-0.0009,0.0338l-0.7515,-0.0154l-0.0239,-0.0004l0.003,-0.0221c0.1004,-0.7369 -0.0745,-1.5196 -0.5562,-2.1344c-0.4827,-0.6163 -1.244,-1.0296 -2.0565,-1.2308c-0.4043,-0.1127 -0.8316,-0.1401 -1.2529,-0.118c-0.42,0.0424 -0.8312,0.1454 -1.2142,0.3069c-0.7571,0.3372 -1.4061,0.8579 -1.8934,1.4679z" fill="black"/>
</g>
<g id="Group_32">
<path id="Vector_30" d="M27.7075,33.728l0.858,0.0764l-0.8018,0.2791z" fill="black"/>
</g>
<g id="Group_33">
<path id="Vector_31" d="M27.5605,33.0085l0.8333,-0.0262l-0.7196,0.3709z" fill="black"/>
</g>
</g>
<g id="Group_34">
<path id="Vector_32" d="M20.8345,35.6606c0.2123,0.1596 0.4247,0.3139 0.6554,0.4458c0.2204,0.142 0.4532,0.2679 0.6924,0.3784c0.4784,0.2196 0.9818,0.3893 1.5036,0.4579c0.5196,0.082 1.0563,0.0517 1.57,-0.0757c0.5256,-0.1057 1.0005,-0.3477 1.4929,-0.5811c-0.2068,0.1615 -0.4153,0.3319 -0.6486,0.4717c-0.2451,0.1229 -0.486,0.2615 -0.7613,0.3376c-0.2631,0.1097 -0.5542,0.1352 -0.8393,0.1839c-0.2894,0.0079 -0.5822,0.0184 -0.8686,-0.0292c-0.5724,-0.0832 -1.1176,-0.2788 -1.5883,-0.5609c-0.4698,-0.2802 -0.8929,-0.62 -1.2082,-1.0284z" fill="black"/>
</g>
</g>
<g id="Group_35">
<path id="Vector_33" opacity="0.49" d="M19.0334,36.565c-0.0937,0.5207 -0.7027,1.4548 -2.0577,1.2925c-0.9372,-0.112 -1.5462,-1.0636 -1.4526,-1.5844c0,0 0.9023,-0.1663 1.8513,-0.1154c0.6597,0.0356 1.659,0.4073 1.659,0.4073z" fill="#8B2A0C"/>
<g id="Group_36">
<path id="Vector_34" d="M14.9141,35.8025c0.3498,0.2645 0.7183,0.4923 1.1035,0.6766c0.3873,0.1798 0.7971,0.3098 1.2167,0.345c0.4171,0.0405 0.8482,0.0001 1.2525,-0.1397c0.2124,-0.0476 0.3975,-0.1574 0.6035,-0.2353c0.1966,-0.0937 0.3796,-0.2102 0.5869,-0.3072c-0.1494,0.1525 -0.3047,0.3076 -0.4796,0.4447c-0.1915,0.1165 -0.3677,0.2645 -0.5924,0.3417c-0.4201,0.2057 -0.9278,0.2761 -1.4121,0.2338c-0.4869,-0.048 -0.9482,-0.2151 -1.3334,-0.4582c-0.3851,-0.2432 -0.7175,-0.5455 -0.9456,-0.9014z" fill="#3B130E"/>
</g>
</g>
<g id="Group_37">
<path id="Vector_35" d="M10.79,28.354c0.0885,-0.3836 0.3341,-0.7358 0.6647,-1.007c0.3256,-0.2799 0.7376,-0.4759 1.1678,-0.6036c0.4371,-0.1098 0.8899,-0.1533 1.3308,-0.1139c0.2201,0.0123 0.4346,0.0652 0.6461,0.1053c0.2064,0.0715 0.4115,0.1292 0.6047,0.2195l0.0043,0.0019c0.0094,0.0045 0.0128,0.0146 0.0081,0.0225c-0.0039,0.0063 -0.0119,0.0097 -0.0196,0.0086l-0.6171,-0.0746c-0.2073,-0.0045 -0.4145,-0.0247 -0.6213,-0.0165c-0.4141,0.0094 -0.8261,0.0645 -1.2202,0.1713c-0.7818,0.2146 -1.5083,0.6631 -1.913,1.3011c-0.0051,0.0083 -0.017,0.0113 -0.026,0.0064c-0.0076,-0.0037 -0.011,-0.0112 -0.0093,-0.018z" fill="#2E2E2E"/>
</g>
<g id="Group_38">
<path id="Vector_36" d="M28.2496,30.5327c-0.2371,-0.3143 -0.5146,-0.5698 -0.7933,-0.8021c-0.2864,-0.2267 -0.5894,-0.423 -0.9197,-0.5864c-0.1668,-0.0798 -0.3328,-0.1614 -0.5133,-0.2229c-0.1706,-0.0824 -0.3604,-0.124 -0.5426,-0.1952l-1.1771,-0.3499l-0.0064,-0.0019c-0.0098,-0.003 -0.0149,-0.0124 -0.0119,-0.021c0.0029,-0.0071 0.0106,-0.0116 0.0187,-0.0112l0.6256,0.0326c0.206,0.0311 0.4154,0.0472 0.6188,0.091c0.409,0.081 0.8065,0.2068 1.1776,0.3829c0.7231,0.3721 1.324,0.9603 1.5606,1.6766c0.003,0.0086 -0.003,0.0176 -0.0128,0.0202c-0.0081,0.0019 -0.0161,-0.0007 -0.0204,-0.0067z" fill="#2E2E2E"/>
</g>
</g>
</g>
</g>
</g>
</g>
</g>
</g>
<g id="SIMBI Alert!">
<path d="M72.108,34.148c1.272,0 2.184,-0.228 2.736,-0.684c0.576,-0.48 0.864,-1.044 0.864,-1.692c0,-0.6 -0.228,-1.08 -0.684,-1.44c-0.432,-0.384 -1.08,-0.72 -1.944,-1.008l-1.908,-0.612c-1.296,-0.432 -2.436,-0.912 -3.42,-1.44c-0.984,-0.528 -1.752,-1.2 -2.304,-2.016c-0.552,-0.84 -0.828,-1.908 -0.828,-3.204c0,-1.992 0.756,-3.576 2.268,-4.752c1.512,-1.176 3.612,-1.764 6.3,-1.764c1.368,0 2.58,0.132 3.636,0.396c1.08,0.264 1.92,0.66 2.52,1.188c0.624,0.504 0.936,1.128 0.936,1.872c0,0.528 -0.132,0.996 -0.396,1.404c-0.264,0.408 -0.576,0.744 -0.936,1.008c-0.552,-0.36 -1.296,-0.684 -2.232,-0.972c-0.912,-0.288 -1.908,-0.432 -2.988,-0.432c-1.152,0 -2.028,0.192 -2.628,0.576c-0.576,0.384 -0.864,0.876 -0.864,1.476c0,0.48 0.192,0.876 0.576,1.188c0.408,0.288 0.996,0.552 1.764,0.792l1.98,0.648c2.184,0.672 3.864,1.56 5.04,2.664c1.176,1.104 1.764,2.592 1.764,4.464c0,2.016 -0.78,3.66 -2.34,4.932c-1.56,1.248 -3.816,1.872 -6.768,1.872c-1.464,0 -2.772,-0.168 -3.924,-0.504c-1.152,-0.312 -2.064,-0.756 -2.736,-1.332c-0.672,-0.6 -1.008,-1.296 -1.008,-2.088c0,-0.624 0.18,-1.152 0.54,-1.584c0.36,-0.432 0.768,-0.768 1.224,-1.008c0.648,0.528 1.452,1.008 2.412,1.44c0.984,0.408 2.1,0.612 3.348,0.612zM84.058,22.808h5.472v15.156c-0.24,0.048 -0.6,0.108 -1.08,0.18c-0.456,0.072 -0.936,0.108 -1.44,0.108c-1.08,0 -1.848,-0.192 -2.304,-0.576c-0.432,-0.384 -0.648,-1.044 -0.648,-1.98zM89.53,29.648h-5.472v-13.536c0.264,-0.048 0.636,-0.108 1.116,-0.18c0.48,-0.072 0.96,-0.108 1.44,-0.108c1.032,0 1.776,0.18 2.232,0.54c0.456,0.36 0.684,1.032 0.684,2.016zM107.996,32.564c-0.288,0.192 -0.648,0.372 -1.08,0.54c-0.432,0.144 -0.936,0.216 -1.512,0.216c-0.744,0 -1.368,-0.096 -1.872,-0.288c-0.48,-0.192 -0.804,-0.516 -0.972,-0.972c-0.816,-2.28 -1.512,-4.188 -2.088,-5.724c-0.552,-1.536 -0.984,-2.856 -1.296,-3.96h-0.18c-0.072,1.512 -0.132,2.904 -0.18,4.176c-0.048,1.272 -0.096,2.496 -0.144,3.672c-0.024,1.176 -0.06,2.388 -0.108,3.636c-0.048,1.224 -0.108,2.568 -0.18,4.032c-0.288,0.072 -0.648,0.144 -1.08,0.216c-0.432,0.096 -0.864,0.144 -1.296,0.144c-0.912,0 -1.62,-0.144 -2.124,-0.432c-0.504,-0.312 -0.756,-0.852 -0.756,-1.62c0,-0.528 0.024,-1.308 0.072,-2.34c0.048,-1.056 0.108,-2.256 0.18,-3.6c0.096,-1.368 0.192,-2.808 0.288,-4.32c0.096,-1.512 0.192,-3 0.288,-4.464c0.12,-1.488 0.216,-2.856 0.288,-4.104c0.192,-0.288 0.576,-0.576 1.152,-0.864c0.576,-0.312 1.368,-0.468 2.376,-0.468c1.08,0 1.944,0.18 2.592,0.54c0.648,0.336 1.116,0.888 1.404,1.656c0.36,0.888 0.744,1.908 1.152,3.06c0.408,1.128 0.816,2.28 1.224,3.456c0.408,1.152 0.78,2.208 1.116,3.168h0.18c0.696,-2.136 1.392,-4.212 2.088,-6.228c0.696,-2.016 1.308,-3.708 1.836,-5.076c0.312,-0.168 0.72,-0.3 1.224,-0.396c0.528,-0.12 1.08,-0.18 1.656,-0.18c1.032,0 1.86,0.156 2.484,0.468c0.648,0.288 1.032,0.732 1.152,1.332c0.096,0.456 0.192,1.176 0.288,2.16c0.12,0.984 0.24,2.124 0.36,3.42c0.12,1.272 0.24,2.616 0.36,4.032c0.12,1.392 0.228,2.748 0.324,4.068c0.12,1.32 0.216,2.52 0.288,3.6c0.072,1.056 0.12,1.896 0.144,2.52c-0.36,0.216 -0.744,0.372 -1.152,0.468c-0.384,0.096 -0.876,0.144 -1.476,0.144c-0.744,0 -1.392,-0.132 -1.944,-0.396c-0.552,-0.288 -0.852,-0.828 -0.9,-1.62c-0.096,-1.896 -0.18,-3.696 -0.252,-5.4c-0.072,-1.704 -0.132,-3.264 -0.18,-4.68c-0.048,-1.416 -0.096,-2.616 -0.144,-3.6h-0.18c-0.312,1.032 -0.756,2.34 -1.332,3.924c-0.552,1.56 -1.248,3.588 -2.088,6.084zM132.475,24.896v3.888h-8.028v-3.888zM129.775,28.784l0.432,-2.988c1.992,0 3.636,0.24 4.932,0.72c1.32,0.48 2.316,1.152 2.988,2.016c0.672,0.864 1.008,1.908 1.008,3.132c0,2.328 -0.864,4.056 -2.592,5.184c-1.728,1.128 -4.188,1.692 -7.38,1.692c-0.576,0 -1.236,-0.024 -1.98,-0.072c-0.72,-0.048 -1.464,-0.132 -2.232,-0.252c-0.744,-0.12 -1.428,-0.288 -2.052,-0.504c-1.248,-0.456 -1.872,-1.26 -1.872,-2.412v-17.208c0,-0.48 0.132,-0.84 0.396,-1.08c0.264,-0.264 0.624,-0.48 1.08,-0.648c0.816,-0.264 1.8,-0.456 2.952,-0.576c1.152,-0.12 2.34,-0.18 3.564,-0.18c2.952,0 5.244,0.516 6.876,1.548c1.632,1.008 2.448,2.568 2.448,4.68c0,1.152 -0.336,2.136 -1.008,2.952c-0.672,0.816 -1.656,1.44 -2.952,1.872c-1.272,0.408 -2.82,0.612 -4.644,0.612l-0.252,-2.376c1.176,0 2.04,-0.228 2.592,-0.684c0.552,-0.456 0.828,-1.104 0.828,-1.944c0,-0.792 -0.324,-1.404 -0.972,-1.836c-0.648,-0.432 -1.608,-0.648 -2.88,-0.648c-0.456,0 -0.948,0.012 -1.476,0.036c-0.504,0.024 -0.912,0.072 -1.224,0.144v14.04c0.384,0.12 0.876,0.204 1.476,0.252c0.6,0.024 1.164,0.036 1.692,0.036c1.224,0 2.196,-0.228 2.916,-0.684c0.744,-0.456 1.116,-1.176 1.116,-2.16c0,-0.912 -0.324,-1.584 -0.972,-2.016c-0.624,-0.432 -1.56,-0.648 -2.808,-0.648zM142.06,22.808h5.472v15.156c-0.24,0.048 -0.6,0.108 -1.08,0.18c-0.456,0.072 -0.936,0.108 -1.44,0.108c-1.08,0 -1.848,-0.192 -2.304,-0.576c-0.432,-0.384 -0.648,-1.044 -0.648,-1.98zM147.532,29.648h-5.472v-13.536c0.264,-0.048 0.636,-0.108 1.116,-0.18c0.48,-0.072 0.96,-0.108 1.44,-0.108c1.032,0 1.776,0.18 2.232,0.54c0.456,0.36 0.684,1.032 0.684,2.016zM167.109,35.024h-6.288l-1.008,2.976h-4.296l6.096,-16.848h4.752l6.096,16.848h-4.344zM166.053,31.856l-2.088,-6.168l-2.064,6.168zM178.421,20.24v17.76h-4.104v-17.76zM194.019,31.088c0,0.384 -0.024,0.784 -0.072,1.2h-9.288c0.064,0.832 0.328,1.472 0.792,1.92c0.48,0.432 1.064,0.648 1.752,0.648c1.024,0 1.736,-0.432 2.136,-1.296h4.368c-0.224,0.88 -0.632,1.672 -1.224,2.376c-0.576,0.704 -1.304,1.256 -2.184,1.656c-0.88,0.4 -1.864,0.6 -2.952,0.6c-1.312,0 -2.48,-0.28 -3.504,-0.84c-1.024,-0.56 -1.824,-1.36 -2.4,-2.4c-0.576,-1.04 -0.864,-2.256 -0.864,-3.648c0,-1.392 0.28,-2.608 0.84,-3.648c0.576,-1.04 1.376,-1.84 2.4,-2.4c1.024,-0.56 2.2,-0.84 3.528,-0.84c1.296,0 2.448,0.272 3.456,0.816c1.008,0.544 1.792,1.32 2.352,2.328c0.576,1.008 0.864,2.184 0.864,3.528zM189.819,30.008c0,-0.704 -0.24,-1.264 -0.72,-1.68c-0.48,-0.416 -1.08,-0.624 -1.8,-0.624c-0.688,0 -1.272,0.2 -1.752,0.6c-0.464,0.4 -0.752,0.968 -0.864,1.704zM200.288,26.84c0.48,-0.736 1.08,-1.312 1.8,-1.728c0.72,-0.432 1.52,-0.648 2.4,-0.648v4.344h-1.128c-1.024,0 -1.792,0.224 -2.304,0.672c-0.512,0.432 -0.768,1.2 -0.768,2.304v6.216h-4.104v-13.392h4.104zM213.913,34.52v3.48h-2.088c-1.488,0 -2.648,-0.36 -3.48,-1.08c-0.832,-0.736 -1.248,-1.928 -1.248,-3.576v-5.328h-1.632v-3.408h1.632v-3.264h4.104v3.264h2.688v3.408h-2.688v5.376c0,0.4 0.096,0.688 0.288,0.864c0.192,0.176 0.512,0.264 0.96,0.264zM221.599,20.552l-0.48,11.496h-3.48l-0.48,-11.496zM219.439,38.192c-0.72,0 -1.312,-0.208 -1.776,-0.624c-0.448,-0.432 -0.672,-0.96 -0.672,-1.584c0,-0.64 0.224,-1.176 0.672,-1.608c0.464,-0.432 1.056,-0.648 1.776,-0.648c0.704,0 1.28,0.216 1.728,0.648c0.464,0.432 0.696,0.968 0.696,1.608c0,0.624 -0.232,1.152 -0.696,1.584c-0.448,0.416 -1.024,0.624 -1.728,0.624z" fill="black"/>
</g>
</g></svg>