<svg width="52" height="41" viewBox="0 0 52 41" fill="none" xmlns="http://www.w3.org/2000/svg">
<path d="M47.4993 29.7334C47.4993 29.7334 50.4729 28.8178 50.9682 25.7538C51.4636 22.6899 47.5644 22.2058 47.5644 22.2058C49.7298 20.9526 49.5161 18.4248 49.5161 18.4248C50.1201 13.8929 46.1923 13.3227 46.1923 13.3227C46.1923 13.3227 47.9074 11.8653 47.4738 9.69452C46.6311 5.47438 41.9561 6.09368 41.9561 6.09368C41.7407 3.93153 40.129 2.08523 37.8513 1.52474C37.8168 1.51612 37.7824 1.50788 37.7479 1.50001C35.42 0.951135 32.9507 1.87016 31.5906 3.71648L31.3995 3.97612C31.3454 3.70712 31.2292 3.42538 31.0811 3.14925C30.3163 1.72143 28.8655 0.712477 27.1853 0.311219C23.1929 -0.64191 20.9258 1.96384 20.9258 1.96384C19.4916 -0.0222224 15.586 0.284613 15.586 0.284613C6.96285 1.25685 8.10001 9.12953 8.10001 9.12953C8.10001 9.12953 4.47914 6.5118 1.25194 11.4292C-1.97569 16.3462 2.61551 20.3992 2.61551 20.3992C1.81286 20.6015 0.928069 21.8952 0.928069 21.8952C-1.5616 26.9153 5.53204 29.0868 5.53204 29.0868C2.32314 34.0135 9.50572 34.541 9.50572 34.541C9.90492 37.4072 12.6631 35.4001 12.6631 35.4001C12.1039 38.8755 15.1941 37.5379 15.1941 37.5379C15.646 39.6671 17.8795 37.6574 17.8795 37.6574L18.2927 37.6271C18.2493 38.5034 18.9499 39.2887 19.9576 39.4281C20.8471 39.551 21.6834 39.1287 22.0507 38.4472C22.4716 39.2651 23.3938 39.9031 24.5531 40.0635C26.2793 40.3022 27.8769 39.394 28.162 38.0291C28.4289 38.4592 28.9051 38.7829 29.4975 38.8646C30.3015 38.9759 31.0594 38.6106 31.4199 38.0107C32.4702 40.7405 35.1238 38.8815 35.1238 38.8815C37.1746 40.4824 38.3509 38.3397 38.3509 38.3397C38.3509 38.3397 40.1903 39.9601 42.6774 37.5735C44.0717 36.2356 43.1618 33.7127 43.1618 33.7127C43.1618 33.7127 45.4305 35.6279 47.4584 33.8543C49.7008 31.8922 47.4993 29.7334 47.4993 29.7334Z" fill="#1A0000" stroke="#1A0000" stroke-width="0.203916" stroke-miterlimit="10" stroke-linecap="round"/>
<path d="M4.51679 4.04944C5.06792 4.0161 5.76247 4.04944 5.7778 4.67549C5.78375 4.92351 5.68076 5.20787 5.53777 5.41956C5.45946 5.53533 5.36881 5.65446 5.21262 5.69867C4.9228 5.78072 4.77852 5.50685 4.91641 5.31128C5.20879 4.89728 6.01995 4.96023 6.33829 5.30154C6.65322 5.63873 6.46512 6.20708 5.98165 6.32023C6.02932 6.39254 6.0774 6.46485 6.12507 6.53716C6.50469 6.27827 6.99794 6.56302 7.09795 6.92044C7.152 7.11301 7.11966 7.31907 7.04178 7.50303C6.98731 7.63191 6.89666 7.74843 6.91623 7.89268C6.95283 8.1628 7.31373 8.36849 7.47545 8.58167C7.70271 8.88139 7.84485 9.21409 7.91805 9.56739C7.9521 9.73149 8.23596 9.6618 8.20234 9.49845C8.11595 9.08033 7.93125 8.68507 7.64398 8.34263C7.44353 8.1036 7.19243 7.9972 7.28989 7.6484C7.34437 7.45432 7.4248 7.2951 7.41714 7.08866C7.39246 6.42177 6.58173 5.90025 5.91654 6.35358C5.79439 6.43676 5.92888 6.60122 6.05996 6.5705C6.62513 6.43787 6.92517 5.86203 6.72727 5.3851C6.51363 4.86919 5.78418 4.66088 5.2224 4.82123C4.93897 4.90216 4.65382 5.08499 4.5785 5.35174C4.51381 5.58066 4.62148 5.8433 4.87768 5.93734C5.585 6.19735 5.99995 5.30304 6.06038 4.84072C6.10337 4.51214 6.00888 4.1772 5.69565 3.97338C5.36072 3.75533 4.91258 3.76695 4.51721 3.79055C4.32868 3.80141 4.32698 4.06068 4.51679 4.04944Z" fill="#1A0000"/>
<path d="M51.0338 10.3626C50.4401 10.0231 49.6472 9.79121 49.2034 10.439C48.9174 10.8567 48.7267 11.7496 49.3319 12.0275C49.5796 12.1414 49.8626 12.0748 50.0218 11.8758C50.2099 11.6405 50.1456 11.334 49.9762 11.1059C49.6392 10.6522 48.8901 10.436 48.3428 10.7271C47.8015 11.0152 47.693 11.7413 48.1496 12.1279C48.2786 12.237 48.4433 12.0999 48.3811 11.9706C48.0402 11.2614 46.975 11.482 46.6379 12.0639C46.5422 12.2287 46.5162 12.3955 46.4779 12.5738C46.4132 12.8746 46.0766 12.8855 45.8102 12.99C45.3625 13.1658 44.976 13.4348 44.6662 13.7678C44.547 13.896 44.7543 14.0807 44.8748 13.9514C45.1395 13.6667 45.4561 13.4329 45.8306 13.2677C46.1051 13.1466 46.5771 13.1219 46.7188 12.8447C46.7805 12.7244 46.7622 12.5828 46.792 12.4558C46.8333 12.2786 46.9227 12.1032 47.0682 11.9732C47.3823 11.6926 47.9407 11.714 48.1271 12.1017C48.2041 12.0493 48.2811 11.9968 48.3586 11.9447C48.0356 11.6712 48.1139 11.1602 48.4922 10.9511C48.957 10.6945 49.7251 10.9718 49.829 11.4536C49.8634 11.6147 49.7988 11.8698 49.5251 11.8185C49.2932 11.775 49.2472 11.5169 49.2421 11.3498C49.2357 11.1381 49.2847 10.9129 49.3762 10.7174C49.4843 10.4862 49.6745 10.2873 49.9775 10.2674C50.3082 10.246 50.6218 10.4352 50.8861 10.5862C51.0444 10.6776 51.1925 10.4532 51.0338 10.3626Z" fill="#1A0000"/>
<path d="M10.6256 33.0426L9.95868 32.142L9.24242 32.925L9.41138 31.6845L8.63 31.2525L9.61396 31.2117L10.0872 30.3174L10.3813 31.263L11.3844 31.4376L10.5941 31.8209L10.6256 33.0426Z" fill="white" stroke="white" stroke-width="0.0485751" stroke-miterlimit="10" stroke-linecap="round"/>
<path d="M9.91638 23.1139C9.91638 23.1139 9.9117 10.0657 24.1922 11.1732C37.7283 12.2229 35.1846 28.2898 31.6101 29.9075L31.3713 30.3189C31.3713 30.3189 33.5669 20.8562 28.8008 16.1284C25.6949 13.0476 20.4713 12.6396 16.667 15.0378C14.6851 16.2872 11.7749 19.6595 9.91638 23.1139Z" fill="#FFD44D" stroke="#FFD44D" stroke-width="0.185963" stroke-miterlimit="10"/>
<mask id="mask0_1432_28390" style="mask-type:luminance" maskUnits="userSpaceOnUse" x="9" y="16" width="29" height="22">
<path d="M36.4131 28.4393C35.733 27.8023 34.7639 27.8331 33.8996 28.1309C33.4591 28.2827 33.0467 28.4925 32.6509 28.7188C32.4134 28.8544 31.9406 29.3485 31.6508 29.295C31.4508 29.2583 31.4197 28.9675 31.3584 28.8289C30.8209 27.6124 29.6633 26.4835 28.7355 25.4836C27.6945 24.3622 26.5833 23.2937 25.4764 22.2237C23.5876 20.398 21.8504 18.3913 20.6911 16.1299C20.3294 16.4157 19.6029 16.992 19.4531 17.1291C18.0078 18.4531 16.4332 19.6876 14.7355 20.7565C13.9482 21.2522 13.1285 21.7138 12.2552 22.0832C11.4781 22.4121 10.6325 22.6849 9.76001 22.6924C9.75447 22.6924 9.75064 22.6901 9.74511 22.6898C9.54679 23.2458 9.39145 23.8194 9.28506 24.4087C8.01894 31.4155 12.1028 36.2426 19.4578 37.2594C23.7992 37.8596 27.9797 36.2962 30.6928 33.4522C31.7504 34.3963 33.8281 34.0988 35.3938 32.7583C36.9923 31.3904 37.5736 29.5269 36.4131 28.4393Z" fill="white"/>
</mask>
<g mask="url(#mask0_1432_28390)">
<path d="M36.4131 28.4393C35.733 27.8023 34.7639 27.8331 33.8996 28.1309C33.4591 28.2827 33.0467 28.4925 32.6509 28.7188C32.4134 28.8544 31.9406 29.3485 31.6508 29.295C31.4508 29.2583 31.4197 28.9675 31.3584 28.8289C30.8209 27.6124 29.6633 26.4835 28.7355 25.4836C27.6945 24.3622 26.5833 23.2937 25.4764 22.2237C23.5876 20.398 21.8504 18.3913 20.6911 16.1299C20.3294 16.4157 19.6029 16.992 19.4531 17.1291C18.0078 18.4531 16.4332 19.6876 14.7355 20.7565C13.9482 21.2522 13.1285 21.7138 12.2552 22.0832C11.4781 22.4121 10.6325 22.6849 9.76001 22.6924C9.75447 22.6924 9.75064 22.6901 9.74511 22.6898C9.54679 23.2458 9.39145 23.8194 9.28506 24.4087C8.01894 31.4155 12.1028 36.2426 19.4578 37.2594C23.7992 37.8596 27.9797 36.2962 30.6928 33.4522C31.7504 34.3963 33.8281 34.0988 35.3938 32.7583C36.9923 31.3904 37.5736 29.5269 36.4131 28.4393Z" fill="#CD5428" stroke="#CD5428" stroke-width="0.191485" stroke-miterlimit="10"/>
</g>
<mask id="mask1_1432_28390" style="mask-type:luminance" maskUnits="userSpaceOnUse" x="9" y="16" width="29" height="22">
<path d="M36.4131 28.4393C35.733 27.8023 34.7639 27.8331 33.8996 28.1309C33.4591 28.2827 33.0467 28.4925 32.6509 28.7188C32.4134 28.8544 31.9406 29.3485 31.6508 29.295C31.4508 29.2583 31.4197 28.9675 31.3584 28.8289C30.8209 27.6124 29.6633 26.4835 28.7355 25.4836C27.6945 24.3622 26.5833 23.2937 25.4764 22.2237C23.5876 20.398 21.8504 18.3913 20.6911 16.1299C20.3294 16.4157 19.6029 16.992 19.4531 17.1291C18.0078 18.4531 16.4332 19.6876 14.7355 20.7565C13.9482 21.2522 13.1285 21.7138 12.2552 22.0832C11.4781 22.4121 10.6325 22.6849 9.76001 22.6924C9.75447 22.6924 9.75064 22.6901 9.74511 22.6898C9.54679 23.2458 9.39145 23.8194 9.28506 24.4087C8.01894 31.4155 12.1028 36.2426 19.4578 37.2594C23.7992 37.8596 27.9797 36.2962 30.6928 33.4522C31.7504 34.3963 33.8281 34.0988 35.3938 32.7583C36.9923 31.3904 37.5736 29.5269 36.4131 28.4393Z" fill="white"/>
</mask>
<g mask="url(#mask1_1432_28390)">
<path opacity="0.49" d="M27.3548 33.6645C26.7118 35.2647 24.7171 36.1028 22.8994 35.5367C21.0817 34.9706 20.1297 33.2146 20.7728 31.6144C21.4158 30.0143 23.4105 29.1762 25.2282 29.7423C27.0459 30.3084 27.9979 32.0644 27.3548 33.6645Z" fill="#8B2A0C" stroke="#8B2A0C" stroke-width="0.230532" stroke-miterlimit="10"/>
</g>
<mask id="mask2_1432_28390" style="mask-type:luminance" maskUnits="userSpaceOnUse" x="9" y="16" width="29" height="22">
<path d="M36.4131 28.4393C35.733 27.8023 34.7639 27.8331 33.8996 28.1309C33.4591 28.2827 33.0467 28.4925 32.6509 28.7188C32.4134 28.8544 31.9406 29.3485 31.6508 29.295C31.4508 29.2583 31.4197 28.9675 31.3584 28.8289C30.8209 27.6124 29.6633 26.4835 28.7355 25.4836C27.6945 24.3622 26.5833 23.2937 25.4764 22.2237C23.5876 20.398 21.8504 18.3913 20.6911 16.1299C20.3294 16.4157 19.6029 16.992 19.4531 17.1291C18.0078 18.4531 16.4332 19.6876 14.7355 20.7565C13.9482 21.2522 13.1285 21.7138 12.2552 22.0832C11.4781 22.4121 10.6325 22.6849 9.76001 22.6924C9.75447 22.6924 9.75064 22.6901 9.74511 22.6898C9.54679 23.2458 9.39145 23.8194 9.28506 24.4087C8.01894 31.4155 12.1028 36.2426 19.4578 37.2594C23.7992 37.8596 27.9797 36.2962 30.6928 33.4522C31.7504 34.3963 33.8281 34.0988 35.3938 32.7583C36.9923 31.3904 37.5736 29.5269 36.4131 28.4393Z" fill="white"/>
</mask>
<g mask="url(#mask2_1432_28390)">
<path opacity="0.49" d="M13.496 31.1582C12.9206 32.5901 11.1353 33.3405 9.50826 32.8336C7.88168 32.3271 7.02923 30.7554 7.60505 29.3231C8.18044 27.8911 9.96576 27.1407 11.5928 27.6476C13.2193 28.1541 14.0714 29.7258 13.496 31.1582Z" fill="#8B2A0C" stroke="#8B2A0C" stroke-width="0.20632" stroke-miterlimit="10"/>
</g>
<mask id="mask3_1432_28390" style="mask-type:luminance" maskUnits="userSpaceOnUse" x="9" y="16" width="29" height="22">
<path d="M36.4131 28.4393C35.733 27.8023 34.7639 27.8331 33.8996 28.1309C33.4591 28.2827 33.0467 28.4925 32.6509 28.7188C32.4134 28.8544 31.9406 29.3485 31.6508 29.295C31.4508 29.2583 31.4197 28.9675 31.3584 28.8289C30.8209 27.6124 29.6633 26.4835 28.7355 25.4836C27.6945 24.3622 26.5833 23.2937 25.4764 22.2237C23.5876 20.398 21.8504 18.3913 20.6911 16.1299C20.3294 16.4157 19.6029 16.992 19.4531 17.1291C18.0078 18.4531 16.4332 19.6876 14.7355 20.7565C13.9482 21.2522 13.1285 21.7138 12.2552 22.0832C11.4781 22.4121 10.6325 22.6849 9.76001 22.6924C9.75447 22.6924 9.75064 22.6901 9.74511 22.6898C9.54679 23.2458 9.39145 23.8194 9.28506 24.4087C8.01894 31.4155 12.1028 36.2426 19.4578 37.2594C23.7992 37.8596 27.9797 36.2962 30.6928 33.4522C31.7504 34.3963 33.8281 34.0988 35.3938 32.7583C36.9923 31.3904 37.5736 29.5269 36.4131 28.4393Z" fill="white"/>
</mask>
<g mask="url(#mask3_1432_28390)">
<path d="M33.3675 35.0456L32.7011 34.1449L31.9844 34.9279L32.1533 33.6871L31.3719 33.2551L32.3559 33.2146L32.8292 32.3203L33.1237 33.266L34.1263 33.4405L33.336 33.8238L33.3675 35.0456Z" fill="white" stroke="white" stroke-width="0.0485751" stroke-miterlimit="10" stroke-linecap="round"/>
<path d="M32.6755 29.7492C33.1892 29.3415 33.7829 28.9875 34.4923 28.8245C34.8426 28.7451 35.2495 28.7278 35.6265 28.8784C36.0002 29.0381 36.267 29.3318 36.3619 29.6963C36.4394 30.0642 36.3075 30.4033 36.147 30.6895C35.9747 30.9758 35.7644 31.2317 35.5278 31.4628C35.0584 31.9274 34.5115 32.3152 33.9225 32.6381C34.4047 32.2005 34.8609 31.7483 35.2648 31.2751C35.4588 31.0342 35.6474 30.7914 35.7772 30.5322C35.9095 30.2782 35.9964 30.005 35.9372 29.7701C35.8904 29.5438 35.6891 29.3097 35.4465 29.2018C35.1984 29.0819 34.8775 29.0759 34.5596 29.1152C33.9187 29.2108 33.282 29.4618 32.6755 29.7492Z" fill="#8B2A0C"/>
<path d="M30.6686 33.4793C30.8273 33.2909 30.9469 33.0811 31.0605 32.8716C31.172 32.6607 31.2712 32.4441 31.3559 32.2235C31.5359 31.7851 31.6666 31.3322 31.7972 30.877C31.7657 31.11 31.7236 31.3423 31.664 31.5719C31.6027 31.8009 31.5308 32.0279 31.4431 32.2504C31.2589 32.6903 31.0359 33.1335 30.6686 33.4793Z" fill="#8B2A0C"/>
<path d="M20.6555 15.6859C20.1852 15.8732 19.7417 16.1617 19.5404 16.5945C19.3719 16.9564 19.3889 17.4135 19.6979 17.7154C19.9652 17.9766 20.4754 18.0968 20.7746 17.8072C21.0036 17.5854 21.0087 17.198 20.6895 17.0403C20.2822 16.8391 19.6979 17.0186 19.3774 17.2726C19.0289 17.5491 18.8761 17.9945 18.9778 18.3962C19.0697 18.7596 19.4421 19.1032 19.8949 18.9735C20.2622 18.8686 20.3861 18.4119 20.003 18.2486C19.5647 18.0616 19.0608 18.3572 18.8791 18.7079C18.6361 19.1758 18.908 19.6921 19.2591 20.0514C19.3762 20.1713 19.5723 19.9971 19.4562 19.878C19.2042 19.6202 18.9855 19.2601 19.091 18.9098C19.137 18.7577 19.2497 18.6187 19.3987 18.5311C19.497 18.4734 20.0047 18.3198 19.9613 18.6041C19.9273 18.8267 19.5613 18.757 19.4438 18.6622C19.2923 18.5397 19.2319 18.346 19.2255 18.1703C19.2132 17.8282 19.4179 17.5015 19.7562 17.3329C19.9732 17.2246 20.7291 17.0624 20.6601 17.476C20.5916 17.8881 20.0158 17.7169 19.8383 17.473C19.3523 16.8039 20.1682 16.1479 20.7972 15.8972C20.9593 15.8328 20.818 15.6215 20.6555 15.6859Z" fill="#1A0000"/>
<path d="M15.9183 28.0929C16.0324 27.798 16.2367 27.5197 16.5325 27.3177C16.8223 27.1132 17.2223 26.9981 17.6049 27.0412C17.7935 27.0599 17.985 27.1072 18.1573 27.1918C18.3246 27.284 18.4706 27.4069 18.5667 27.5537C18.7655 27.8452 18.7978 28.1839 18.7374 28.4897C18.6829 28.1839 18.5684 27.8906 18.374 27.6688C18.1795 27.4455 17.8926 27.3263 17.5743 27.3027C17.2602 27.2638 16.9457 27.3413 16.6648 27.4859C16.3852 27.6351 16.1333 27.8464 15.9183 28.0929Z" fill="#8B2A0C"/>
<g opacity="0.53">
<path d="M15.9359 28.0927C15.9359 28.0927 16.6002 26.9845 17.8106 27.2542C18.8499 27.4858 18.7358 28.5828 18.7358 28.5828" fill="#8B2A0C"/>
<path d="M15.9359 28.0939C16.0623 27.8032 16.2789 27.5319 16.5828 27.3397C16.8811 27.1453 17.2859 27.0434 17.6663 27.0992C17.854 27.1243 18.043 27.1775 18.2119 27.2682C18.3754 27.3656 18.5158 27.4937 18.6056 27.6432C18.792 27.941 18.8095 28.2809 18.7358 28.584C18.6946 28.2767 18.5928 27.9796 18.4077 27.7518C18.223 27.5222 17.9413 27.3937 17.6242 27.3592C17.3123 27.3097 16.9943 27.3768 16.7075 27.5121C16.4219 27.6522 16.161 27.8549 15.9359 28.0939Z" fill="#8B2A0C"/>
</g>
<path d="M9.79506 25.0547C9.68483 26.653 11.0778 28.0253 12.9061 28.1194C14.7344 28.2134 16.3056 26.9943 16.4154 25.396C16.5257 23.7977 15.1327 22.4253 13.3044 22.3313C11.4765 22.2369 9.90528 23.4564 9.79506 25.0547Z" fill="white"/>
<path d="M11.4067 24.5061C11.1591 25.7181 11.9804 26.8751 13.2419 27.0905C14.5033 27.3059 15.7264 26.4978 15.9745 25.2861C16.2227 24.0745 15.4008 22.9172 14.1394 22.7018C12.878 22.4863 11.6544 23.2941 11.4067 24.5061Z" fill="#280707" stroke="#280707" stroke-width="0.193001" stroke-miterlimit="10"/>
<path d="M16.4946 24.8045C16.321 24.4852 16.1269 24.1776 15.892 23.9011C15.6647 23.6217 15.417 23.3594 15.1281 23.1455C14.834 22.9383 14.5178 22.7712 14.1828 22.6528C13.8398 22.5535 13.4862 22.4883 13.1197 22.4966C12.375 22.4947 11.643 22.6786 11.0659 23.069C10.4667 23.4452 10.0709 24.0641 9.83679 24.7093L9.79764 24.8176L9.70528 24.7865C9.48653 24.713 9.26949 24.6347 9.05457 24.5493L9.06435 24.5186L9.73848 24.6804L9.71294 24.6954C9.85466 23.9967 10.2394 23.3216 10.865 22.86C11.4859 22.3969 12.3124 22.1725 13.1197 22.183C13.5266 22.1815 13.9305 22.2534 14.3088 22.3838C14.6808 22.5277 15.0217 22.7285 15.3153 22.975C15.889 23.48 16.2946 24.1173 16.5299 24.7973L16.4946 24.8045Z" fill="black"/>
<path d="M9.8274 24.2758L9.20349 23.8311L9.9904 23.9693L9.8274 24.2758Z" fill="black"/>
<path d="M10.1397 23.6285L9.61926 23.1201L10.353 23.3468L10.1397 23.6285Z" fill="black"/>
<path d="M15.4885 27.3785C15.0834 27.67 14.6071 27.888 14.0998 28.0289C13.593 28.1713 13.0448 28.2245 12.5056 28.163C12.2341 28.1379 11.9749 28.0585 11.7178 27.9813C11.4778 27.8682 11.2267 27.773 11.025 27.6116C10.8003 27.4785 10.633 27.2912 10.456 27.1189C10.2938 26.9353 10.1632 26.7311 10.0321 26.5352C10.3921 26.8694 10.7445 27.1972 11.1752 27.4242C11.5897 27.6674 12.0609 27.8229 12.5499 27.8719C13.0372 27.9326 13.5398 27.8985 14.033 27.8079C14.525 27.7105 15.0161 27.5726 15.4885 27.3785Z" fill="black"/>
<path d="M27.7422 27.8856C27.2741 29.5397 25.3058 30.552 23.3455 30.147C21.3853 29.7416 20.1754 28.0721 20.6431 26.418C21.1112 24.7639 23.0795 23.7516 25.0402 24.1566C27.0004 24.5616 28.21 26.2311 27.7422 27.8856Z" fill="white"/>
<path d="M27.7333 27.1308C27.5549 28.4087 26.2965 29.3439 24.9218 29.2199C23.5472 29.0958 22.5773 27.9591 22.7556 26.6812C22.9339 25.4032 24.1924 24.4681 25.567 24.5921C26.9417 24.7165 27.9116 25.8528 27.7333 27.1308Z" fill="#280707" stroke="#280707" stroke-width="0.204652" stroke-miterlimit="10"/>
<path d="M20.787 25.8983C21.1785 25.2142 21.7982 24.6252 22.5868 24.2225C22.9817 24.0201 23.4307 23.8935 23.895 23.8414C24.3598 23.8062 24.8368 23.8287 25.2841 23.943C26.1664 24.1475 26.9882 24.6395 27.5082 25.3281C27.767 25.6735 27.9019 26.0744 27.9751 26.4659C28.05 26.8616 28.0325 27.2568 27.924 27.6453L27.8168 27.5299C28.0666 27.5569 28.3164 27.5891 28.5658 27.6292L28.565 27.6629L27.8134 27.6476L27.7896 27.6472L27.7925 27.6251C27.893 26.8882 27.718 26.1055 27.2363 25.4907C26.7537 24.8744 25.9923 24.4611 25.1799 24.2599C24.7756 24.1472 24.3483 24.1198 23.9269 24.1419C23.5069 24.1842 23.0958 24.2873 22.7128 24.4488C21.9556 24.7859 21.3066 25.3067 20.8193 25.9167L20.787 25.8983Z" fill="black"/>
<path d="M27.8094 26.8291L28.6674 26.9055L27.8656 27.1847L27.8094 26.8291Z" fill="black"/>
<path d="M27.6625 26.1102L28.4958 26.084L27.7761 26.4549L27.6625 26.1102Z" fill="black"/>
<path d="M20.9364 28.7617C21.1488 28.9213 21.3611 29.0757 21.5918 29.2076C21.8123 29.3496 22.045 29.4754 22.2842 29.586C22.7626 29.8055 23.2661 29.9752 23.7878 30.0438C24.3075 30.1258 24.8441 30.0955 25.3578 29.9681C25.8834 29.8625 26.3583 29.6204 26.8507 29.387C26.6439 29.5485 26.4354 29.719 26.2022 29.8587C25.957 29.9816 25.7161 30.1202 25.4408 30.1963C25.1778 30.3061 24.8867 30.3315 24.6015 30.3802C24.3121 30.3881 24.0193 30.3986 23.7329 30.351C23.1605 30.2678 22.6153 30.0723 22.1446 29.7902C21.6748 29.5099 21.2518 29.1701 20.9364 28.7617Z" fill="black"/>
<path opacity="0.49" d="M19.1353 29.667C19.0417 30.1877 18.4326 31.1218 17.0776 30.9595C16.1405 30.8475 15.5314 29.8959 15.6251 29.3751C15.6251 29.3751 16.5273 29.2087 17.4764 29.2597C18.136 29.2953 19.1353 29.667 19.1353 29.667Z" fill="#8B2A0C"/>
<path d="M15.016 28.9043C15.3658 29.1688 15.7344 29.3966 16.1195 29.5809C16.5068 29.7608 16.9166 29.8908 17.3363 29.926C17.7533 29.9664 18.1845 29.926 18.5888 29.7862C18.8011 29.7387 18.9863 29.6289 19.1922 29.5509C19.3889 29.4573 19.5719 29.3408 19.7791 29.2437C19.6297 29.3962 19.4744 29.5513 19.2995 29.6885C19.108 29.805 18.9318 29.953 18.7071 30.0301C18.287 30.2358 17.7793 30.3063 17.295 30.2639C16.8081 30.216 16.3468 30.0489 15.9616 29.8057C15.5765 29.5626 15.2441 29.2602 15.016 28.9043Z" fill="#3B130E"/>
<path d="M10.8919 21.4556C10.9804 21.0719 11.226 20.7198 11.5567 20.4485C11.8822 20.1686 12.2942 19.9727 12.7245 19.8449C13.1615 19.7352 13.6144 19.6917 14.0553 19.731C14.2753 19.7434 14.4898 19.7962 14.7013 19.8363C14.9077 19.9079 15.1128 19.9656 15.3061 20.0559L15.3103 20.0577C15.3197 20.0622 15.3231 20.0724 15.3184 20.0802C15.3146 20.0866 15.3065 20.09 15.2988 20.0888L14.6817 20.0143C14.4745 20.0098 14.2672 19.9896 14.0604 19.9978C13.6463 20.0072 13.2343 20.0622 12.8402 20.169C12.0584 20.3837 11.332 20.8322 10.9272 21.4702C10.9221 21.4784 10.9102 21.4814 10.9013 21.4766C10.8936 21.4728 10.8902 21.4653 10.8919 21.4586V21.4556Z" fill="#2E2E2E"/>
<path d="M28.3515 23.634C28.1145 23.3197 27.837 23.0641 27.5582 22.8319C27.2718 22.6052 26.9688 22.4089 26.6385 22.2455C26.4717 22.1657 26.3057 22.084 26.1253 22.0226C25.9546 21.9402 25.7648 21.8986 25.5827 21.8274L24.4055 21.4775L24.3991 21.4756C24.3893 21.4726 24.3842 21.4632 24.3872 21.4546C24.3902 21.4475 24.3978 21.443 24.4059 21.4434L25.0315 21.476C25.2375 21.5071 25.4469 21.5232 25.6503 21.567C26.0593 21.6479 26.4568 21.7738 26.8279 21.9499C27.551 22.3219 28.1519 22.9102 28.3885 23.6265C28.3915 23.6351 28.3856 23.6441 28.3758 23.6467C28.3677 23.6486 28.3596 23.646 28.3553 23.64L28.3515 23.634Z" fill="#2E2E2E"/>
</g>
</svg>
