<svg viewBox="0 0 167.9978 168.9999" x="0" y="0" fill="none" xmlns="http://www.w3.org/2000/svg"><defs><mask id="mask4_1432_22678" style="mask-type:luminance" maskUnits="userSpaceOnUse" x="26" y="42" width="67" height="58" xmlns="http://www.w3.org/2000/svg">
<g id="SVGID_00000165928890544357328630000010163460873986055059__5" data-node-id="1432:22797">
<path id="vector_46" data-node-id="1432:22798" d="M91.478,75.301c-1.626,-1.693 -3.941,-1.611 -6.006,-0.82c-1.053,0.403 -2.038,0.961 -2.984,1.562c-0.568,0.361 -1.697,1.674 -2.39,1.532c-0.478,-0.098 -0.552,-0.87 -0.699,-1.239c-1.284,-3.233 -4.05,-6.233 -6.267,-8.89c-2.4874,-2.98 -5.1427,-5.82 -7.7877,-8.663c-4.5132,-4.852 -8.6643,-10.185 -11.4345,-16.194c-0.8644,0.759 -2.6003,2.291 -2.9582,2.655c-3.4536,3.519 -7.2162,6.799 -11.2728,9.64c-1.8813,1.317 -3.8399,2.544 -5.9267,3.525c-1.8569,0.875 -3.8776,1.599 -5.9623,1.619c-0.0132,0 -0.0224,-0.006 -0.0356,-0.007c-0.4739,1.478 -0.8451,3.002 -1.0993,4.568c-3.0254,18.621 6.7331,31.449 24.3078,34.151c10.3738,1.595 20.3632,-2.56 26.8463,-10.118c2.527,2.509 7.492,1.719 11.233,-1.844c3.82,-3.635 5.209,-8.587 2.436,-11.477z" fill="white"/>
</g>
</mask><mask id="mask5_1432_22678" style="mask-type:luminance" maskUnits="userSpaceOnUse" x="26" y="42" width="67" height="58" xmlns="http://www.w3.org/2000/svg">
<g id="SVGID_00000165928890544357328630000010163460873986055059__6" data-node-id="1432:22801">
<path id="vector_48" data-node-id="1432:22802" d="M91.478,75.301c-1.626,-1.693 -3.941,-1.611 -6.006,-0.82c-1.053,0.403 -2.038,0.961 -2.984,1.562c-0.568,0.361 -1.697,1.674 -2.39,1.532c-0.478,-0.098 -0.552,-0.87 -0.699,-1.239c-1.284,-3.233 -4.05,-6.233 -6.267,-8.89c-2.4874,-2.98 -5.1427,-5.82 -7.7877,-8.663c-4.5132,-4.852 -8.6643,-10.185 -11.4345,-16.194c-0.8644,0.759 -2.6003,2.291 -2.9582,2.655c-3.4536,3.519 -7.2162,6.799 -11.2728,9.64c-1.8813,1.317 -3.8399,2.544 -5.9267,3.525c-1.8569,0.875 -3.8776,1.599 -5.9623,1.619c-0.0132,0 -0.0224,-0.006 -0.0356,-0.007c-0.4739,1.478 -0.8451,3.002 -1.0993,4.568c-3.0254,18.621 6.7331,31.449 24.3078,34.151c10.3738,1.595 20.3632,-2.56 26.8463,-10.118c2.527,2.509 7.492,1.719 11.233,-1.844c3.82,-3.635 5.209,-8.587 2.436,-11.477z" fill="white"/>
</g>
</mask><mask id="mask6_1432_22678" style="mask-type:luminance" maskUnits="userSpaceOnUse" x="26" y="42" width="67" height="58" xmlns="http://www.w3.org/2000/svg">
<g id="SVGID_00000165928890544357328630000010163460873986055059__7" data-node-id="1432:22805">
<path id="vector_50" data-node-id="1432:22806" d="M91.478,75.301c-1.626,-1.693 -3.941,-1.611 -6.006,-0.82c-1.053,0.403 -2.038,0.961 -2.984,1.562c-0.568,0.361 -1.697,1.674 -2.39,1.532c-0.478,-0.098 -0.552,-0.87 -0.699,-1.239c-1.284,-3.233 -4.05,-6.233 -6.267,-8.89c-2.4874,-2.98 -5.1427,-5.82 -7.7877,-8.663c-4.5132,-4.852 -8.6643,-10.185 -11.4345,-16.194c-0.8644,0.759 -2.6003,2.291 -2.9582,2.655c-3.4536,3.519 -7.2162,6.799 -11.2728,9.64c-1.8813,1.317 -3.8399,2.544 -5.9267,3.525c-1.8569,0.875 -3.8776,1.599 -5.9623,1.619c-0.0132,0 -0.0224,-0.006 -0.0356,-0.007c-0.4739,1.478 -0.8451,3.002 -1.0993,4.568c-3.0254,18.621 6.7331,31.449 24.3078,34.151c10.3738,1.595 20.3632,-2.56 26.8463,-10.118c2.527,2.509 7.492,1.719 11.233,-1.844c3.82,-3.635 5.209,-8.587 2.436,-11.477z" fill="white"/>
</g>
</mask><mask id="mask7_1432_22678" style="mask-type:luminance" maskUnits="userSpaceOnUse" x="26" y="42" width="67" height="58" xmlns="http://www.w3.org/2000/svg">
<g id="SVGID_00000165928890544357328630000010163460873986055059__8" data-node-id="1432:22809">
<path id="vector_52" data-node-id="1432:22810" d="M91.478,75.301c-1.626,-1.693 -3.941,-1.611 -6.006,-0.82c-1.053,0.403 -2.038,0.961 -2.984,1.562c-0.568,0.361 -1.697,1.674 -2.39,1.532c-0.478,-0.098 -0.552,-0.87 -0.699,-1.239c-1.284,-3.233 -4.05,-6.233 -6.267,-8.89c-2.4874,-2.98 -5.1427,-5.82 -7.7877,-8.663c-4.5132,-4.852 -8.6643,-10.185 -11.4345,-16.194c-0.8644,0.759 -2.6003,2.291 -2.9582,2.655c-3.4536,3.519 -7.2162,6.799 -11.2728,9.64c-1.8813,1.317 -3.8399,2.544 -5.9267,3.525c-1.8569,0.875 -3.8776,1.599 -5.9623,1.619c-0.0132,0 -0.0224,-0.006 -0.0356,-0.007c-0.4739,1.478 -0.8451,3.002 -1.0993,4.568c-3.0254,18.621 6.7331,31.449 24.3078,34.151c10.3738,1.595 20.3632,-2.56 26.8463,-10.118c2.527,2.509 7.492,1.719 11.233,-1.844c3.82,-3.635 5.209,-8.587 2.436,-11.477z" fill="white"/>
</g>
</mask><mask id="mask8_1432_22678" style="mask-type:luminance" maskUnits="userSpaceOnUse" x="46" y="100" width="40" height="58" xmlns="http://www.w3.org/2000/svg">
<g id="SVGID_00000021811605315644006680000000064717756826091703_" data-node-id="1432:22875">
<path id="vector_83" data-node-id="1432:22876" d="M49.8583,102.534c0,0 1.3128,5.251 6.7982,4.993c5.4854,-0.259 6.1016,-6.722 6.1016,-6.722c0,0 4.5203,-1.633 8.3918,3.387c3.8711,5.019 6.0211,20.284 6.0211,20.284c0,0 21.076,26.004 -3.871,32.847c0,0 -13.549,2.421 -21.2909,-2.948l-5.8067,-50.934c0,0 0.96,-0.907 3.6559,-0.907z" fill="white"/>
</g>
</mask><mask id="mask9_1432_22678" style="mask-type:luminance" maskUnits="userSpaceOnUse" x="46" y="100" width="40" height="58" xmlns="http://www.w3.org/2000/svg">
<g id="SVGID_00000021811605315644006680000000064717756826091703__2" data-node-id="1432:22879">
<path id="vector_85" data-node-id="1432:22880" d="M49.8583,102.534c0,0 1.3128,5.251 6.7982,4.993c5.4854,-0.259 6.1016,-6.722 6.1016,-6.722c0,0 4.5203,-1.633 8.3918,3.387c3.8711,5.019 6.0211,20.284 6.0211,20.284c0,0 21.076,26.004 -3.871,32.847c0,0 -13.549,2.421 -21.2909,-2.948l-5.8067,-50.934c0,0 0.96,-0.907 3.6559,-0.907z" fill="white"/>
</g>
</mask><mask id="mask10_1432_22678" style="mask-type:luminance" maskUnits="userSpaceOnUse" x="46" y="100" width="40" height="58" xmlns="http://www.w3.org/2000/svg">
<g id="SVGID_00000021811605315644006680000000064717756826091703__3" data-node-id="1432:22883">
<path id="vector_87" data-node-id="1432:22884" d="M49.8583,102.534c0,0 1.3128,5.251 6.7982,4.993c5.4854,-0.259 6.1016,-6.722 6.1016,-6.722c0,0 4.5203,-1.633 8.3918,3.387c3.8711,5.019 6.0211,20.284 6.0211,20.284c0,0 21.076,26.004 -3.871,32.847c0,0 -13.549,2.421 -21.2909,-2.948l-5.8067,-50.934c0,0 0.96,-0.907 3.6559,-0.907z" fill="white"/>
</g>
</mask><mask id="mask11_1432_22678" style="mask-type:luminance" maskUnits="userSpaceOnUse" x="46" y="100" width="40" height="58" xmlns="http://www.w3.org/2000/svg">
<g id="SVGID_00000021811605315644006680000000064717756826091703__4" data-node-id="1432:22887">
<path id="vector_89" data-node-id="1432:22888" d="M49.8583,102.534c0,0 1.3128,5.251 6.7982,4.993c5.4854,-0.259 6.1016,-6.722 6.1016,-6.722c0,0 4.5203,-1.633 8.3918,3.387c3.8711,5.019 6.0211,20.284 6.0211,20.284c0,0 21.076,26.004 -3.871,32.847c0,0 -13.549,2.421 -21.2909,-2.948l-5.8067,-50.934c0,0 0.96,-0.907 3.6559,-0.907z" fill="white"/>
</g>
</mask><mask id="mask12_1432_22678" style="mask-type:luminance" maskUnits="userSpaceOnUse" x="46" y="100" width="40" height="58" xmlns="http://www.w3.org/2000/svg">
<g id="SVGID_00000021811605315644006680000000064717756826091703__5" data-node-id="1432:22891">
<path id="vector_91" data-node-id="1432:22892" d="M49.8583,102.534c0,0 1.3128,5.251 6.7982,4.993c5.4854,-0.259 6.1016,-6.722 6.1016,-6.722c0,0 4.5203,-1.633 8.3918,3.387c3.8711,5.019 6.0211,20.284 6.0211,20.284c0,0 21.076,26.004 -3.871,32.847c0,0 -13.549,2.421 -21.2909,-2.948l-5.8067,-50.934c0,0 0.96,-0.907 3.6559,-0.907z" fill="white"/>
</g>
</mask><mask id="mask13_1432_22678" style="mask-type:luminance" maskUnits="userSpaceOnUse" x="46" y="100" width="40" height="58" xmlns="http://www.w3.org/2000/svg">
<g id="SVGID_00000021811605315644006680000000064717756826091703__6" data-node-id="1432:22895">
<path id="vector_93" data-node-id="1432:22896" d="M49.8583,102.534c0,0 1.3128,5.251 6.7982,4.993c5.4854,-0.259 6.1016,-6.722 6.1016,-6.722c0,0 4.5203,-1.633 8.3918,3.387c3.8711,5.019 6.0211,20.284 6.0211,20.284c0,0 21.076,26.004 -3.871,32.847c0,0 -13.549,2.421 -21.2909,-2.948l-5.8067,-50.934c0,0 0.96,-0.907 3.6559,-0.907z" fill="white"/>
</g>
</mask><mask id="mask14_1432_22678" style="mask-type:luminance" maskUnits="userSpaceOnUse" x="46" y="100" width="40" height="58" xmlns="http://www.w3.org/2000/svg">
<g id="SVGID_00000021811605315644006680000000064717756826091703__7" data-node-id="1432:22899">
<path id="vector_95" data-node-id="1432:22900" d="M49.8583,102.534c0,0 1.3128,5.251 6.7982,4.993c5.4854,-0.259 6.1016,-6.722 6.1016,-6.722c0,0 4.5203,-1.633 8.3918,3.387c3.8711,5.019 6.0211,20.284 6.0211,20.284c0,0 21.076,26.004 -3.871,32.847c0,0 -13.549,2.421 -21.2909,-2.948l-5.8067,-50.934c0,0 0.96,-0.907 3.6559,-0.907z" fill="white"/>
</g>
</mask></defs><g id="group_40" xmlns="http://www.w3.org/2000/svg">
<g id="group_41">
<path id="vector_39" opacity="0.39" d="M50.1686,169c27.7074,0 50.1684,-4.538 50.1684,-10.137c0,-5.598 -22.461,-10.136 -50.1684,-10.136c-27.7074,0 -50.1686,4.538 -50.1686,10.136c0,5.599 22.4612,10.137 50.1686,10.137z" fill="#7A5FFF"/>
<g id="group_42">
<g id="group_43">
<g id="group_44">
<g id="group_45">
<path id="vector_40" d="M117.97,78.746c0,0 7.105,-2.433 8.289,-10.575c1.183,-8.143 -8.134,-9.429 -8.134,-9.429c5.174,-3.331 4.664,-10.048 4.664,-10.048c1.443,-12.044 -7.942,-13.559 -7.942,-13.559c0,0 4.098,-3.873 3.062,-9.642c-2.014,-11.215 -13.185,-9.569 -13.185,-9.569c-0.515,-5.746 -4.366,-10.652 -9.808,-12.142c-0.083,-0.023 -0.165,-0.045 -0.247,-0.066c-5.563,-1.458 -11.463,0.984 -14.713,5.891l-0.457,0.69c-0.129,-0.715 -0.407,-1.464 -0.761,-2.198c-1.827,-3.794 -5.294,-6.476 -9.3088,-7.542c-9.5399,-2.533 -14.9571,4.392 -14.9571,4.392c-3.4271,-5.278 -12.7595,-4.463 -12.7595,-4.463c-20.6052,2.584 -17.888,23.506 -17.888,23.506c0,0 -8.6521,-6.957 -16.3635,6.111c-7.7125,13.067 3.2583,23.838 3.2583,23.838c-1.918,0.538 -4.0322,3.975 -4.0322,3.975c-5.9491,13.341 11.0012,19.112 11.0012,19.112c-7.6677,13.093 9.4952,14.495 9.4952,14.495c0.9539,7.616 7.5446,2.283 7.5446,2.283c-1.3362,9.235 6.0478,5.681 6.0478,5.681c1.08,5.658 6.4168,0.317 6.4168,0.317l0.9875,-0.08c-0.1037,2.329 1.5701,4.415 3.9783,4.786c2.1253,0.326 4.1236,-0.796 5.0012,-2.607c1.0058,2.174 3.2095,3.869 5.9796,4.295c4.1247,0.635 7.9423,-1.779 8.6237,-5.406c0.6376,1.143 1.7759,2.003 3.1909,2.22c1.921,0.296 3.732,-0.675 4.594,-2.269c2.51,7.255 8.85,2.314 8.85,2.314c4.901,4.255 7.712,-1.44 7.712,-1.44c0,0 4.395,4.307 10.338,-2.036c3.331,-3.555 1.157,-10.26 1.157,-10.26c0,0 5.421,5.09 10.267,0.377c5.358,-5.215 0.098,-10.952 0.098,-10.952z" fill="#1A0000" stroke="#8B2A0C" stroke-width="0.9416" stroke-miterlimit="10" stroke-linecap="round"/>
<g id="group_46">
<g id="group_47">
<path id="vector_41" d="M15.2672,10.494c1.317,-0.089 2.9766,0 3.0132,1.663c0.0143,0.66 -0.2318,1.415 -0.5735,1.978c-0.1872,0.307 -0.4038,0.624 -0.777,0.742c-0.6925,0.218 -1.0373,-0.51 -0.7078,-1.03c0.6987,-1.1 2.637,-0.933 3.3976,-0.026c0.7526,0.896 0.3031,2.407 -0.8522,2.707c0.1139,0.192 0.2288,0.385 0.3427,0.577c0.9071,-0.688 2.0858,0.068 2.3247,1.018c0.1292,0.512 0.0519,1.06 -0.1342,1.549c-0.1301,0.342 -0.3468,0.652 -0.3,1.035c0.0875,0.718 0.9498,1.265 1.3363,1.831c0.543,0.797 0.8827,1.681 1.0576,2.62c0.0813,0.436 0.7596,0.25 0.6793,-0.184c-0.2064,-1.111 -0.6478,-2.161 -1.3342,-3.071c-0.479,-0.635 -1.079,-0.918 -0.8461,-1.845c0.1302,-0.516 0.3224,-0.939 0.304,-1.488c-0.0589,-1.772 -1.9962,-3.158 -3.5857,-1.953c-0.2918,0.221 0.0295,0.658 0.3427,0.576c1.3505,-0.352 2.0675,-1.882 1.5946,-3.15c-0.5105,-1.371 -2.2535,-1.924 -3.5959,-1.498c-0.6773,0.215 -1.3586,0.701 -1.5386,1.41c-0.1546,0.608 0.1027,1.306 0.7149,1.556c1.6901,0.691 2.6817,-1.686 2.8261,-2.914c0.1027,-0.874 -0.1231,-1.764 -0.8716,-2.305c-0.8003,-0.58 -1.8711,-0.549 -2.8159,-0.486c-0.4505,0.029 -0.4545,0.718 -0.001,0.688z" fill="#1A0000"/>
</g>
</g>
<g id="group_48">
<g id="group_49">
<path id="vector_42" d="M126.411,27.265c-1.419,-0.902 -3.313,-1.518 -4.374,0.204c-0.683,1.11 -1.139,3.482 0.307,4.221c0.592,0.303 1.269,0.126 1.649,-0.403c0.449,-0.625 0.296,-1.44 -0.109,-2.046c-0.805,-1.206 -2.595,-1.78 -3.903,-1.007c-1.294,0.766 -1.553,2.695 -0.462,3.723c0.308,0.29 0.702,-0.075 0.554,-0.418c-0.815,-1.885 -3.36,-1.299 -4.166,0.248c-0.229,0.438 -0.291,0.881 -0.382,1.355c-0.155,0.799 -0.959,0.828 -1.596,1.106c-1.07,0.467 -1.993,1.182 -2.733,2.067c-0.285,0.34 0.21,0.831 0.498,0.488c0.633,-0.757 1.389,-1.378 2.284,-1.817c0.656,-0.322 1.784,-0.388 2.122,-1.124c0.148,-0.32 0.104,-0.696 0.175,-1.034c0.099,-0.471 0.313,-0.937 0.66,-1.282c0.751,-0.746 2.085,-0.689 2.53,0.341c0.185,-0.139 0.369,-0.279 0.554,-0.417c-0.772,-0.727 -0.585,-2.085 0.319,-2.64c1.11,-0.682 2.946,0.054 3.194,1.335c0.083,0.428 -0.072,1.106 -0.726,0.97c-0.554,-0.116 -0.664,-0.802 -0.676,-1.246c-0.015,-0.563 0.102,-1.161 0.32,-1.681c0.258,-0.614 0.713,-1.143 1.437,-1.195c0.79,-0.057 1.54,0.446 2.171,0.847c0.379,0.243 0.732,-0.354 0.353,-0.595z" fill="#1A0000"/>
</g>
</g>
</g>
<path id="vector_43" d="M29.8632,87.543l-1.5936,-2.393l-1.7115,2.08l0.4037,-3.296l-1.8671,-1.148l2.3512,-0.109l1.1308,-2.376l0.7027,2.513l2.3969,0.464l-1.8884,1.018z" fill="white" stroke="white" stroke-width="0.2243" stroke-miterlimit="10" stroke-linecap="round"/>
<path id="vector_44" d="M28.1653,61.154c0,0 -0.0112,-34.675 34.1121,-31.732c32.3446,2.79 26.2666,45.487 17.7256,49.786l-0.571,1.094c0,0 5.247,-25.148 -6.142,-37.712c-7.4217,-8.187 -19.9037,-9.271 -28.9941,-2.898c-4.7358,3.321 -11.6897,12.282 -16.1306,21.462z" fill="#FFD44D" stroke="#FFD44D" stroke-width="0.8587" stroke-miterlimit="10"/>
</g>
<path id="vector_45" d="M52.0827,96.352l0.4718,6.183h-3.6284c-0.4383,0 -0.721,0.453 -0.5207,0.836l4.8671,9.276h6.2521l5.2759,-10.843c0.2461,-0.507 -0.1485,-1.088 -0.72,-1.061l-3.2308,0.153v-5.158z" fill="#B44A24" stroke="#B44A24" stroke-width="0.4592" stroke-miterlimit="10"/>
</g>
<g id="group_50">
<g id="Clip path group_5">
<mask id="mask4_1432_22678" style="mask-type:luminance" maskUnits="userSpaceOnUse" x="53" y="842" width="67" height="58">
<g id="SVGID_00000165928890544357328630000010163460873986055059__5">
<path id="vector_46" d="M118.478 875.301C116.852 873.608 114.537 873.69 112.472 874.481C111.419 874.884 110.434 875.442 109.488 876.043C108.92 876.404 107.791 877.717 107.098 877.575C106.62 877.477 106.546 876.705 106.399 876.336C105.115 873.103 102.349 870.103 100.132 867.446C97.6446 864.466 94.9893 861.626 92.3443 858.783C87.8311 853.931 83.68 848.598 80.9098 842.589C80.0454 843.348 78.3095 844.88 77.9516 845.244C74.498 848.763 70.7354 852.043 66.6788 854.884C64.7975 856.201 62.8389 857.428 60.7521 858.409C58.8952 859.284 56.8745 860.008 54.7898 860.028C54.7766 860.028 54.7674 860.022 54.7542 860.021C54.2803 861.499 53.9091 863.023 53.6549 864.589C50.6295 883.21 60.388 896.038 77.9627 898.74C88.3365 900.335 98.3259 896.18 104.809 888.622C107.336 891.131 112.301 890.341 116.042 886.778C119.862 883.143 121.251 878.191 118.478 875.301Z" fill="white"/>
</g>
</mask>
<g mask="url(#mask4_1432_22678)">
<path id="vector_47" d="M91.478,75.301c-1.625,-1.693 -3.941,-1.611 -6.006,-0.82c-1.053,0.403 -2.038,0.961 -2.984,1.562c-0.567,0.361 -1.697,1.674 -2.39,1.532c-0.477,-0.098 -0.552,-0.87 -0.698,-1.239c-1.285,-3.233 -4.051,-6.233 -6.268,-8.89c-2.487,-2.98 -5.1422,-5.82 -7.7873,-8.663c-4.5131,-4.852 -8.6643,-10.185 -11.4344,-16.194c-0.8644,0.759 -2.6003,2.291 -2.9583,2.655c-3.4535,3.519 -7.2162,6.799 -11.2727,9.64c-1.8814,1.317 -3.84,2.544 -5.9267,3.525c-1.8569,0.875 -3.8776,1.599 -5.9623,1.619c-0.0132,0 -0.0224,-0.006 -0.0356,-0.007c-0.4739,1.478 -0.8451,3.002 -1.0993,4.568c-3.0254,18.621 6.7331,31.449 24.3078,34.151c10.3738,1.595 20.3632,-2.56 26.8458,-10.118c2.527,2.509 7.492,1.719 11.233,-1.844c3.82,-3.635 5.209,-8.587 2.436,-11.477z" fill="#CD5428" stroke="#CD5428" stroke-width="0.8842" stroke-miterlimit="10"/>
</g>
</g>
<g id="Clip path group_6">
<mask id="mask5_1432_22678" style="mask-type:luminance" maskUnits="userSpaceOnUse" x="53" y="842" width="67" height="58">
<g id="SVGID_00000165928890544357328630000010163460873986055059__6">
<path id="vector_48" d="M118.478 875.301C116.852 873.608 114.537 873.69 112.472 874.481C111.419 874.884 110.434 875.442 109.488 876.043C108.92 876.404 107.791 877.717 107.098 877.575C106.62 877.477 106.546 876.705 106.399 876.336C105.115 873.103 102.349 870.103 100.132 867.446C97.6446 864.466 94.9893 861.626 92.3443 858.783C87.8311 853.931 83.68 848.598 80.9098 842.589C80.0454 843.348 78.3095 844.88 77.9516 845.244C74.498 848.763 70.7354 852.043 66.6788 854.884C64.7975 856.201 62.8389 857.428 60.7521 858.409C58.8952 859.284 56.8745 860.008 54.7898 860.028C54.7766 860.028 54.7674 860.022 54.7542 860.021C54.2803 861.499 53.9091 863.023 53.6549 864.589C50.6295 883.21 60.388 896.038 77.9627 898.74C88.3365 900.335 98.3259 896.18 104.809 888.622C107.336 891.131 112.301 890.341 116.042 886.778C119.862 883.143 121.251 878.191 118.478 875.301Z" fill="white"/>
</g>
</mask>
<g mask="url(#mask5_1432_22678)">
<path id="vector_49" opacity="0.49" d="M69.8346,89.191c-1.5366,4.252 -6.3029,6.479 -10.6463,4.975c-4.3433,-1.504 -6.6182,-6.171 -5.0816,-10.423c1.5366,-4.253 6.303,-6.48 10.6463,-4.976c4.3434,1.505 6.6182,6.171 5.0816,10.424z" fill="#8B2A0C" stroke="#8B2A0C" stroke-width="1.0645" stroke-miterlimit="10"/>
</g>
</g>
<g id="Clip path group_7">
<mask id="mask6_1432_22678" style="mask-type:luminance" maskUnits="userSpaceOnUse" x="53" y="842" width="67" height="58">
<g id="SVGID_00000165928890544357328630000010163460873986055059__7">
<path id="vector_50" d="M118.478 875.301C116.852 873.608 114.537 873.69 112.472 874.481C111.419 874.884 110.434 875.442 109.488 876.043C108.92 876.404 107.791 877.717 107.098 877.575C106.62 877.477 106.546 876.705 106.399 876.336C105.115 873.103 102.349 870.103 100.132 867.446C97.6446 864.466 94.9893 861.626 92.3443 858.783C87.8311 853.931 83.68 848.598 80.9098 842.589C80.0454 843.348 78.3095 844.88 77.9516 845.244C74.498 848.763 70.7354 852.043 66.6788 854.884C64.7975 856.201 62.8389 857.428 60.7521 858.409C58.8952 859.284 56.8745 860.008 54.7898 860.028C54.7766 860.028 54.7674 860.022 54.7542 860.021C54.2803 861.499 53.9091 863.023 53.6549 864.589C50.6295 883.21 60.388 896.038 77.9627 898.74C88.3365 900.335 98.3259 896.18 104.809 888.622C107.336 891.131 112.301 890.341 116.042 886.778C119.862 883.143 121.251 878.191 118.478 875.301Z" fill="white"/>
</g>
</mask>
<g mask="url(#mask6_1432_22678)">
<path id="vector_51" opacity="0.49" d="M36.7165,82.528c-1.3749,3.805 -5.641,5.8 -9.5287,4.452c-3.8868,-1.346 -5.9237,-5.522 -4.5478,-9.329c1.3749,-3.805 5.641,-5.799 9.5287,-4.452c3.8868,1.346 5.9227,5.523 4.5478,9.329z" fill="#8B2A0C" stroke="#8B2A0C" stroke-width="0.9527" stroke-miterlimit="10"/>
</g>
</g>
<g id="Clip path group_8">
<mask id="mask7_1432_22678" style="mask-type:luminance" maskUnits="userSpaceOnUse" x="53" y="842" width="67" height="58">
<g id="SVGID_00000165928890544357328630000010163460873986055059__8">
<path id="vector_52" d="M118.478 875.301C116.852 873.608 114.537 873.69 112.472 874.481C111.419 874.884 110.434 875.442 109.488 876.043C108.92 876.404 107.791 877.717 107.098 877.575C106.62 877.477 106.546 876.705 106.399 876.336C105.115 873.103 102.349 870.103 100.132 867.446C97.6446 864.466 94.9893 861.626 92.3443 858.783C87.8311 853.931 83.68 848.598 80.9098 842.589C80.0454 843.348 78.3095 844.88 77.9516 845.244C74.498 848.763 70.7354 852.043 66.6788 854.884C64.7975 856.201 62.8389 857.428 60.7521 858.409C58.8952 859.284 56.8745 860.008 54.7898 860.028C54.7766 860.028 54.7674 860.022 54.7542 860.021C54.2803 861.499 53.9091 863.023 53.6549 864.589C50.6295 883.21 60.388 896.038 77.9627 898.74C88.3365 900.335 98.3259 896.18 104.809 888.622C107.336 891.131 112.301 890.341 116.042 886.778C119.862 883.143 121.251 878.191 118.478 875.301Z" fill="white"/>
</g>
</mask>
<g mask="url(#mask7_1432_22678)">
<g id="group_51">
<g id="group_52">
<path id="vector_53" d="M84.198,92.858l-1.592,-2.394l-1.713,2.081l0.404,-3.298l-1.867,-1.148l2.351,-0.107l1.131,-2.377l0.704,2.513l2.396,0.464l-1.889,1.019z" fill="white" stroke="white" stroke-width="0.2243" stroke-miterlimit="10" stroke-linecap="round"/>
<g id="group_53">
<g id="group_54">
<path id="vector_54" d="M82.543,78.781c1.228,-1.083 2.646,-2.024 4.342,-2.457c0.836,-0.211 1.809,-0.257 2.71,0.143c0.893,0.425 1.53,1.205 1.757,2.174c0.185,0.978 -0.13,1.879 -0.514,2.639c-0.412,0.761 -0.914,1.441 -1.479,2.055c-1.122,1.235 -2.429,2.266 -3.836,3.124c1.152,-1.163 2.242,-2.365 3.207,-3.622c0.464,-0.641 0.914,-1.286 1.225,-1.975c0.316,-0.675 0.523,-1.401 0.382,-2.025c-0.112,-0.601 -0.593,-1.224 -1.173,-1.51c-0.592,-0.319 -1.359,-0.335 -2.119,-0.23c-1.531,0.254 -3.053,0.921 -4.502,1.684z" fill="#8B2A0C"/>
</g>
<g id="group_55">
<path id="vector_55" d="M77.747,88.693c0.379,-0.501 0.665,-1.059 0.936,-1.615c0.267,-0.561 0.504,-1.136 0.706,-1.723c0.43,-1.164 0.743,-2.368 1.055,-3.578c-0.076,0.619 -0.176,1.237 -0.319,1.847c-0.146,0.608 -0.318,1.212 -0.527,1.803c-0.441,1.169 -0.974,2.347 -1.851,3.266z" fill="#8B2A0C"/>
</g>
</g>
</g>
<g id="group_56">
<g id="group_57">
<path id="vector_56" d="M53.8256,41.402c-1.1237,0.498 -2.1834,1.265 -2.6644,2.415c-0.4027,0.962 -0.362,2.176 0.3763,2.979c0.6386,0.694 1.8579,1.013 2.5728,0.244c0.5472,-0.59 0.5594,-1.619 -0.2033,-2.038c-0.9732,-0.535 -2.3695,-0.058 -3.1353,0.617c-0.8328,0.735 -1.1979,1.919 -0.9549,2.986c0.2197,0.966 1.1095,1.879 2.1915,1.534c0.8776,-0.278 1.1736,-1.492 0.2583,-1.926c-1.0474,-0.497 -2.2515,0.288 -2.6857,1.22c-0.5807,1.244 0.0692,2.616 0.9081,3.571c0.2797,0.318 0.7485,-0.145 0.4709,-0.461c-0.602,-0.685 -1.1248,-1.642 -0.8726,-2.573c0.1099,-0.404 0.3794,-0.774 0.7353,-1.007c0.2349,-0.153 1.4481,-0.561 1.3444,0.195c-0.0814,0.591 -0.9559,0.406 -1.2366,0.154c-0.362,-0.326 -0.5065,-0.84 -0.5217,-1.307c-0.0295,-0.909 0.4597,-1.778 1.2681,-2.226c0.5187,-0.287 2.3248,-0.719 2.16,0.381c-0.1637,1.095 -1.5397,0.64 -1.9637,-0.008c-1.1614,-1.779 0.7881,-3.522 2.2912,-4.188c0.3874,-0.171 0.0498,-0.733 -0.3387,-0.562z" fill="#1A0000"/>
</g>
</g>
<g id="group_58">
<g id="group_59">
<g id="group_60">
<g id="group_61">
<path id="vector_57" d="M42.4956,74.375c0.2725,-0.783 0.7607,-1.523 1.4675,-2.06c0.6925,-0.543 1.6484,-0.849 2.5626,-0.734c0.4505,0.049 0.9082,0.175 1.32,0.4c0.3997,0.245 0.7485,0.571 0.9783,0.962c0.4749,0.774 0.5522,1.674 0.4078,2.487c-0.1302,-0.813 -0.4037,-1.592 -0.8685,-2.182c-0.4647,-0.593 -1.1501,-0.91 -1.9108,-0.972c-0.7505,-0.104 -1.502,0.102 -2.1732,0.486c-0.6681,0.397 -1.2701,0.958 -1.7837,1.613z" fill="#8B2A0C"/>
</g>
</g>
<g id="group_62" opacity="0.53">
<g id="group_63">
<path id="vector_58" d="M42.5415,74.384c0,0 1.5874,-2.945 4.4796,-2.228c2.4834,0.615 2.2108,3.53 2.2108,3.53" fill="#8B2A0C"/>
<path id="vector_59" d="M42.5415,74.384c0.302,-0.772 0.8197,-1.493 1.5458,-2.004c0.7128,-0.517 1.6799,-0.788 2.5891,-0.639c0.4485,0.067 0.9,0.208 1.3037,0.449c0.3905,0.259 0.7261,0.599 0.9407,0.997c0.4454,0.791 0.4871,1.694 0.3111,2.5c-0.0986,-0.817 -0.3417,-1.606 -0.784,-2.212c-0.4414,-0.61 -1.1146,-0.952 -1.8722,-1.043c-0.7454,-0.132 -1.5051,0.047 -2.1905,0.406c-0.6824,0.372 -1.3057,0.911 -1.8437,1.546z" fill="#8B2A0C"/>
</g>
</g>
</g>
<g id="group_64">
<path id="vector_60" d="M27.8703,66.307c-0.2634,4.247 3.0651,7.894 7.4339,8.144c4.3687,0.25 8.1232,-2.99 8.3856,-7.237c0.2634,-4.247 -3.065,-7.895 -7.4338,-8.144c-4.3678,-0.251 -8.1223,2.989 -8.3857,7.237z" fill="white"/>
<path id="vector_61" d="M31.7196,64.852c-0.5919,3.221 1.3708,6.296 4.385,6.868c3.0142,0.573 5.9369,-1.575 6.5298,-4.795c0.5928,-3.22 -1.3709,-6.295 -4.3851,-6.868c-3.0142,-0.572 -5.9379,1.574 -6.5297,4.795z" fill="#280707" stroke="#280707" stroke-width="0.8912" stroke-miterlimit="10"/>
<g id="group_65">
<g id="group_66">
<path id="vector_62" d="M43.8743,65.643c-0.4149,-0.849 -0.8786,-1.666 -1.44,-2.401c-0.543,-0.742 -1.1349,-1.439 -1.8254,-2.008c-0.7027,-0.551 -1.4583,-0.995 -2.2586,-1.309c-0.8197,-0.264 -1.6647,-0.437 -2.5403,-0.415c-1.7797,-0.005 -3.5288,0.483 -4.9078,1.521c-1.4318,1 -2.3776,2.644 -2.9369,4.359l-0.0935,0.288l-0.2207,-0.083c-0.5227,-0.195 -1.0414,-0.403 -1.5549,-0.63l0.0234,-0.082l1.6108,0.43l-0.061,0.04c0.3386,-1.857 1.2579,-3.651 2.7528,-4.878c1.4838,-1.23 3.4586,-1.827 5.3878,-1.799c0.9722,-0.004 1.9372,0.187 2.8413,0.534c0.8888,0.382 1.7034,0.916 2.4051,1.571c1.3708,1.342 2.3399,3.036 2.9023,4.843z" fill="black"/>
</g>
<g id="group_67">
<path id="vector_63" d="M27.9435,64.241l-1.4909,-1.182l1.8804,0.367z" fill="black"/>
</g>
<g id="group_68">
<path id="vector_64" d="M28.689,62.517l-1.2437,-1.351l1.7532,0.603z" fill="black"/>
</g>
</g>
<g id="group_69">
<path id="vector_65" d="M41.4725,72.484c-0.9681,0.775 -2.1061,1.354 -3.3183,1.728c-1.2112,0.379 -2.521,0.52 -3.8094,0.357c-0.6488,-0.067 -1.2682,-0.278 -1.8824,-0.483c-0.5735,-0.301 -1.1735,-0.554 -1.6556,-0.983c-0.5369,-0.353 -0.9366,-0.851 -1.3596,-1.309c-0.3875,-0.488 -0.6997,-1.031 -1.0129,-1.551c0.8604,0.888 1.7024,1.759 2.7315,2.362c0.9905,0.647 2.1163,1.06 3.2847,1.19c1.1644,0.161 2.3654,0.071 3.5441,-0.17c1.1755,-0.259 2.3491,-0.625 3.4779,-1.141z" fill="black"/>
</g>
</g>
<g id="group_70">
<path id="vector_66" d="M70.7544,73.83c-1.1187,4.396 -5.822,7.086 -10.506,6.01c-4.684,-1.078 -7.5752,-5.514 -6.4576,-9.91c1.1187,-4.396 5.822,-7.086 10.507,-6.01c4.6841,1.076 7.5742,5.513 6.4566,9.91z" fill="white"/>
<path id="vector_67" d="M70.7334,71.824c-0.4261,3.396 -3.4332,5.881 -6.7179,5.551c-3.2847,-0.329 -5.6023,-3.35 -5.1762,-6.746c0.4261,-3.396 3.4332,-5.881 6.7179,-5.552c3.2847,0.331 5.6023,3.351 5.1762,6.747z" fill="#280707" stroke="#280707" stroke-width="0.945" stroke-miterlimit="10"/>
<g id="group_71">
<g id="group_72">
<path id="vector_68" d="M54.1355,68.55c0.9356,-1.818 2.4162,-3.383 4.3006,-4.454c0.9437,-0.537 2.0166,-0.874 3.1261,-1.012c1.1105,-0.094 2.2505,-0.034 3.3193,0.27c2.1081,0.543 4.0718,1.851 5.3145,3.681c0.6183,0.918 0.9406,1.983 1.1156,3.023c0.1789,1.052 0.1372,2.102 -0.1221,3.135l-0.2562,-0.307c0.5969,0.072 1.1938,0.157 1.7898,0.264l-0.0021,0.089l-1.7959,-0.04l-0.0569,-0.001l0.0071,-0.059c0.24,-1.959 -0.178,-4.039 -1.3291,-5.672c-1.1532,-1.638 -2.9725,-2.736 -4.9139,-3.271c-0.9661,-0.3 -1.9871,-0.372 -2.9938,-0.314c-1.0038,0.113 -1.9861,0.387 -2.9014,0.816c-1.8091,0.896 -3.3599,2.28 -4.5243,3.901z" fill="black"/>
</g>
<g id="group_73">
<path id="vector_69" d="M70.9182,71.023l2.0501,0.203l-1.9159,0.742z" fill="black"/>
</g>
<g id="group_74">
<path id="vector_70" d="M70.5637,69.108l1.9912,-0.07l-1.7197,0.986z" fill="black"/>
</g>
</g>
<g id="group_75">
<path id="vector_71" d="M54.4897,76.152c0.5075,0.424 1.015,0.834 1.5661,1.185c0.5268,0.377 1.0831,0.712 1.6546,1.005c1.143,0.584 2.3461,1.035 3.5928,1.217c1.2417,0.218 2.5241,0.137 3.7515,-0.201c1.2559,-0.281 2.3908,-0.924 3.5674,-1.544c-0.4942,0.429 -0.9925,0.882 -1.5498,1.253c-0.5857,0.327 -1.1613,0.695 -1.8193,0.897c-0.6284,0.292 -1.324,0.36 -2.0054,0.489c-0.6915,0.021 -1.3911,0.049 -2.0755,-0.078c-1.3678,-0.221 -2.6705,-0.74 -3.7952,-1.49c-1.1227,-0.745 -2.1336,-1.648 -2.8872,-2.733z" fill="black"/>
</g>
</g>
<g id="group_76">
<path id="vector_72" opacity="0.49" d="M50.193,78.56c-0.2237,1.384 -1.6789,3.866 -4.9169,3.435c-2.2392,-0.297 -3.6945,-2.826 -3.4708,-4.21c0,0 2.1559,-0.442 4.4237,-0.307c1.5763,0.095 3.964,1.082 3.964,1.082z" fill="#8B2A0C"/>
<g id="group_77">
<path id="vector_73" d="M40.3511,76.528c0.8359,0.703 1.7166,1.308 2.6369,1.798c0.9254,0.478 1.9047,0.824 2.9074,0.917c0.9966,0.108 2.0268,0 2.9929,-0.371c0.5074,-0.127 0.9498,-0.418 1.442,-0.625c0.4698,-0.249 0.9071,-0.559 1.4023,-0.817c-0.3569,0.405 -0.7281,0.818 -1.146,1.182c-0.4577,0.31 -0.8787,0.703 -1.4156,0.908c-1.0037,0.547 -2.217,0.734 -3.3742,0.621c-1.1634,-0.127 -2.2658,-0.571 -3.1861,-1.217c-0.9203,-0.647 -1.7145,-1.45 -2.2596,-2.396z" fill="#3B130E"/>
</g>
</g>
<g id="group_78">
<path id="vector_74" d="M30.492,56.739c0.2115,-1.02 0.7983,-1.956 1.5884,-2.677c0.778,-0.744 1.7624,-1.264 2.7905,-1.604c1.0444,-0.292 2.1264,-0.407 3.18,-0.302c0.5257,0.032 1.0383,0.173 1.5437,0.279c0.4932,0.19 0.9834,0.344 1.4451,0.584l0.0101,0.005c0.0224,0.012 0.0305,0.039 0.0194,0.059c-0.0092,0.017 -0.0285,0.026 -0.0468,0.023l-1.4746,-0.198c-0.4952,-0.012 -0.9905,-0.065 -1.4847,-0.044c-0.9895,0.025 -1.9739,0.172 -2.9156,0.455c-1.8681,0.571 -3.604,1.763 -4.5711,3.458c-0.0122,0.022 -0.0407,0.03 -0.062,0.017c-0.0184,-0.01 -0.0265,-0.03 -0.0224,-0.048z" fill="#2E2E2E"/>
</g>
<g id="group_79">
<path id="vector_75" d="M72.2089,62.535c-0.5664,-0.835 -1.2295,-1.514 -1.8956,-2.131c-0.6844,-0.603 -1.4084,-1.125 -2.1976,-1.559c-0.3986,-0.212 -0.7952,-0.429 -1.2264,-0.592c-0.4078,-0.219 -0.8613,-0.33 -1.2966,-0.519l-2.8128,-0.93l-0.0153,-0.005c-0.0234,-0.008 -0.0356,-0.033 -0.0284,-0.055c0.0071,-0.019 0.0254,-0.031 0.0447,-0.03l1.4949,0.086c0.4922,0.083 0.9925,0.126 1.4786,0.242c0.9773,0.215 1.9271,0.55 2.8139,1.018c1.7278,0.988 3.1637,2.552 3.7291,4.455c0.0071,0.023 -0.0071,0.047 -0.0305,0.054c-0.0194,0.005 -0.0387,-0.002 -0.0488,-0.018z" fill="#2E2E2E"/>
</g>
</g>
</g>
</g>
</g>
</g>
<g id="group_80">
<g id="group_81">
<path id="vector_76" d="M19.8625,152.149c0,0 6.6162,-43.301 22.0574,-30.989l0.5827,30.989l-7.0972,-1.728l-4.4359,9.776l-15.8775,-2.449c0,0 1.6536,-1.824 4.7705,-5.599z" fill="#9E332D" stroke="#9E332D" stroke-width="0.7319" stroke-miterlimit="10"/>
<path id="vector_77" opacity="0.49" d="M40.897,123.878c-0.36,1.365 -2.6176,1.979 -5.044,1.373c-2.4264,-0.606 -4.1013,-2.205 -3.7413,-3.57c0.36,-1.365 2.6176,-1.98 5.044,-1.373c2.4254,0.606 4.1003,2.205 3.7413,3.57z" fill="#8B2A0C" stroke="#8B2A0C" stroke-width="0.4387" stroke-miterlimit="10"/>
<path id="vector_78" d="M21.1551,145.49c-0.8746,3.912 -1.2945,6.658 -1.2945,6.658c-3.117,3.775 -4.7705,5.598 -4.7705,5.598l15.8774,2.449l4.1339,-9.11c-4.5803,-2.022 -9.2338,-3.884 -13.9463,-5.595z" fill="white" stroke="white" stroke-width="0.7319" stroke-miterlimit="10"/>
<path id="vector_79" d="M26.2856,153.23c-1.2092,-0.296 -2.4163,-0.6 -3.6102,-0.951c-0.8817,-0.26 -1.7674,-0.733 -2.6816,-0.938c-0.0885,0.518 -0.1332,0.807 -0.1332,0.807c-3.117,3.775 -4.7705,5.598 -4.7705,5.598l15.8774,2.449l2.3115,-5.094c-2.3298,-0.631 -4.6453,-1.297 -6.9934,-1.871z" fill="black" stroke="black" stroke-width="0.7319" stroke-miterlimit="10"/>
</g>
<path id="vector_80" d="M38.5422,126.936c-1.3729,7.847 -2.223,15.805 -2.0044,23.76l5.9633,1.452l-0.5827,-30.989c-0.6864,-0.548 -1.3555,-0.982 -2.0094,-1.32c-0.4851,2.361 -0.9519,4.724 -1.3668,7.097z" fill="#7A5FFF" stroke="#7A5FFF" stroke-width="0.6888" stroke-miterlimit="10"/>
<g id="group_82">
<path id="vector_81" d="M46.3397,103.456c0,0 -5.2718,-1.313 -5.0277,20.776c0.244,22.091 -0.0082,29.613 -0.0082,29.613c0,0 -6.5775,2.388 -5.2362,2.746c1.3414,0.358 12.9273,-1.074 12.9273,-1.074c0,0 3.958,-39.881 -2.6552,-52.061z" fill="#B44A24" stroke="#B44A24" stroke-width="0.7324" stroke-miterlimit="10"/>
<path id="vector_82" d="M49.5949,120.263c0.0813,-0.017 0.1617,-0.04 0.2441,-0.058c-0.4699,-6.868 -1.501,-13.072 -3.4983,-16.749c0,0 -4.6128,-1.146 -5.0084,16.794c2.6776,0.693 5.5565,0.577 8.2626,0.013z" fill="white" stroke="white" stroke-width="0.7324" stroke-miterlimit="10"/>
</g>
<g id="group_83">
<g id="Clip path group_9">
<mask id="mask8_1432_22678" style="mask-type:luminance" maskUnits="userSpaceOnUse" x="73" y="900" width="40" height="58">
<g id="SVGID_00000021811605315644006680000000064717756826091703_">
<path id="vector_83" d="M76.8583 902.534C76.8583 902.534 78.1711 907.785 83.6565 907.527C89.1419 907.268 89.7581 900.805 89.7581 900.805C89.7581 900.805 94.2784 899.172 98.1499 904.192C102.021 909.211 104.171 924.476 104.171 924.476C104.171 924.476 125.247 950.48 100.3 957.323C100.3 957.323 86.751 959.744 79.0091 954.375L73.2024 903.441C73.2024 903.441 74.1624 902.534 76.8583 902.534Z" fill="white"/>
</g>
</mask>
<g mask="url(#mask8_1432_22678)">
<path id="vector_84" d="M49.8576,102.534c0,0 1.3128,5.251 6.7982,4.993c5.4853,-0.259 6.1016,-6.722 6.1016,-6.722c0,0 4.5203,-1.633 8.3918,3.387c3.8718,5.019 6.0208,20.284 6.0208,20.284c0,0 21.076,26.004 -3.871,32.847c0,0 -13.5487,2.421 -21.2906,-2.948l-5.8067,-50.934c0,0 0.96,-0.907 3.6559,-0.907z" fill="#7A5FFF" stroke="#7A5FFF" stroke-width="0.6888" stroke-miterlimit="10"/>
</g>
</g>
<g id="Clip path group_10">
<mask id="mask9_1432_22678" style="mask-type:luminance" maskUnits="userSpaceOnUse" x="73" y="900" width="40" height="58">
<g id="SVGID_00000021811605315644006680000000064717756826091703__2">
<path id="vector_85" d="M76.8583 902.534C76.8583 902.534 78.1711 907.785 83.6565 907.527C89.1419 907.268 89.7581 900.805 89.7581 900.805C89.7581 900.805 94.2784 899.172 98.1499 904.192C102.021 909.211 104.171 924.476 104.171 924.476C104.171 924.476 125.247 950.48 100.3 957.323C100.3 957.323 86.751 959.744 79.0091 954.375L73.2024 903.441C73.2024 903.441 74.1624 902.534 76.8583 902.534Z" fill="white"/>
</g>
</mask>
<g mask="url(#mask9_1432_22678)">
<path id="vector_86" d="M52.506,126.524l-3.1423,-8.265c-0.0275,-0.073 -0.1078,-0.125 -0.179,-0.116l-6.7291,0.815c-0.1362,0.017 -0.2501,-0.164 -0.1535,-0.243l5.8423,-4.796c0.0274,-0.022 0.0397,-0.058 0.0335,-0.098l-0.9742,-6.569c-0.0193,-0.13 0.1444,-0.166 0.239,-0.055l4.3881,5.205c0.0478,0.057 0.124,0.081 0.181,0.057l6.1016,-2.6c0.1149,-0.048 0.2634,0.098 0.2085,0.206l-2.9339,5.737c-0.0264,0.051 -0.0051,0.122 0.0488,0.17l5.6237,4.913c0.1129,0.099 0.0559,0.252 -0.0813,0.218l-7.1176,-1.706c-0.0712,-0.017 -0.1322,0.018 -0.1403,0.082l-0.9478,7.074c-0.0163,0.131 -0.2146,0.109 -0.2675,-0.029z" fill="#FFD44D"/>
</g>
</g>
<g id="Clip path group_11">
<mask id="mask10_1432_22678" style="mask-type:luminance" maskUnits="userSpaceOnUse" x="73" y="900" width="40" height="58">
<g id="SVGID_00000021811605315644006680000000064717756826091703__3">
<path id="vector_87" d="M76.8583 902.534C76.8583 902.534 78.1711 907.785 83.6565 907.527C89.1419 907.268 89.7581 900.805 89.7581 900.805C89.7581 900.805 94.2784 899.172 98.1499 904.192C102.021 909.211 104.171 924.476 104.171 924.476C104.171 924.476 125.247 950.48 100.3 957.323C100.3 957.323 86.751 959.744 79.0091 954.375L73.2024 903.441C73.2024 903.441 74.1624 902.534 76.8583 902.534Z" fill="white"/>
</g>
</mask>
<g mask="url(#mask10_1432_22678)">
<path id="vector_88" d="M76.427,142.23l0.568,-8.784c0.005,-0.077 -0.047,-0.157 -0.116,-0.178l-6.4944,-2.001c-0.1322,-0.041 -0.1607,-0.251 -0.0397,-0.283l7.3401,-1.974c0.035,-0.009 0.06,-0.037 0.071,-0.075l1.845,-6.361c0.037,-0.126 0.201,-0.093 0.241,0.047l1.847,6.513c0.02,0.071 0.08,0.124 0.141,0.125l6.664,0.126c0.126,0.003 0.202,0.196 0.106,0.271l-5.073,4.014c-0.044,0.036 -0.055,0.108 -0.025,0.173l3.099,6.752c0.062,0.136 -0.053,0.251 -0.166,0.165l-5.8,-4.447c-0.058,-0.045 -0.128,-0.037 -0.162,0.018l-3.812,6.036c-0.07,0.111 -0.243,0.009 -0.234,-0.137z" fill="#FFD44D"/>
</g>
</g>
<g id="Clip path group_12">
<mask id="mask11_1432_22678" style="mask-type:luminance" maskUnits="userSpaceOnUse" x="73" y="900" width="40" height="58">
<g id="SVGID_00000021811605315644006680000000064717756826091703__4">
<path id="vector_89" d="M76.8583 902.534C76.8583 902.534 78.1711 907.785 83.6565 907.527C89.1419 907.268 89.7581 900.805 89.7581 900.805C89.7581 900.805 94.2784 899.172 98.1499 904.192C102.021 909.211 104.171 924.476 104.171 924.476C104.171 924.476 125.247 950.48 100.3 957.323C100.3 957.323 86.751 959.744 79.0091 954.375L73.2024 903.441C73.2024 903.441 74.1624 902.534 76.8583 902.534Z" fill="white"/>
</g>
</mask>
<g mask="url(#mask11_1432_22678)">
<path id="vector_90" d="M52.2919,158.88l-4.443,-7.668c-0.0386,-0.067 -0.1261,-0.105 -0.1963,-0.085l-6.4992,1.878c-0.1322,0.037 -0.2736,-0.122 -0.1912,-0.216l4.9759,-5.671c0.0234,-0.027 0.0295,-0.063 0.0173,-0.101l-2.0298,-6.338c-0.0397,-0.124 0.1149,-0.187 0.2257,-0.091l5.1732,4.444c0.0569,0.049 0.1362,0.06 0.1871,0.028l5.5901,-3.541c0.1058,-0.067 0.2756,0.054 0.239,0.169l-1.9566,6.138c-0.0173,0.055 0.0142,0.121 0.0752,0.16l6.3437,3.959c0.1281,0.08 0.0966,0.239 -0.0447,0.229l-7.2925,-0.551c-0.0732,-0.006 -0.1271,0.038 -0.1251,0.103l0.2187,7.142c0.0071,0.13 -0.1933,0.14 -0.2675,0.012z" fill="#FFD44D"/>
</g>
</g>
<g id="Clip path group_13">
<mask id="mask12_1432_22678" style="mask-type:luminance" maskUnits="userSpaceOnUse" x="73" y="900" width="40" height="58">
<g id="SVGID_00000021811605315644006680000000064717756826091703__5">
<path id="vector_91" d="M76.8583 902.534C76.8583 902.534 78.1711 907.785 83.6565 907.527C89.1419 907.268 89.7581 900.805 89.7581 900.805C89.7581 900.805 94.2784 899.172 98.1499 904.192C102.021 909.211 104.171 924.476 104.171 924.476C104.171 924.476 125.247 950.48 100.3 957.323C100.3 957.323 86.751 959.744 79.0091 954.375L73.2024 903.441C73.2024 903.441 74.1624 902.534 76.8583 902.534Z" fill="white"/>
</g>
</mask>
<g mask="url(#mask12_1432_22678)">
<path id="vector_92" d="M66.0267,111.097l0.2064,-3.191c0.0021,-0.028 -0.0173,-0.057 -0.0427,-0.065l-2.3593,-0.727c-0.0478,-0.014 -0.058,-0.09 -0.0142,-0.102l2.6664,-0.717c0.0122,-0.003 0.0213,-0.013 0.0254,-0.027l0.6702,-2.311c0.0132,-0.046 0.0732,-0.034 0.0874,0.017l0.6712,2.366c0.0071,0.026 0.0295,0.045 0.0519,0.046l2.4203,0.045c0.0457,0.001 0.0732,0.071 0.0386,0.099l-1.8427,1.459c-0.0162,0.013 -0.0203,0.038 -0.0091,0.062l1.1257,2.453c0.0224,0.049 -0.0193,0.091 -0.06,0.059l-2.107,-1.616c-0.0214,-0.015 -0.0468,-0.012 -0.059,0.006l-1.3851,2.193c-0.0254,0.042 -0.0875,0.005 -0.0844,-0.049z" fill="#FFD44D"/>
</g>
</g>
<g id="Clip path group_14">
<mask id="mask13_1432_22678" style="mask-type:luminance" maskUnits="userSpaceOnUse" x="73" y="900" width="40" height="58">
<g id="SVGID_00000021811605315644006680000000064717756826091703__6">
<path id="vector_93" d="M76.8583 902.534C76.8583 902.534 78.1711 907.785 83.6565 907.527C89.1419 907.268 89.7581 900.805 89.7581 900.805C89.7581 900.805 94.2784 899.172 98.1499 904.192C102.021 909.211 104.171 924.476 104.171 924.476C104.171 924.476 125.247 950.48 100.3 957.323C100.3 957.323 86.751 959.744 79.0091 954.375L73.2024 903.441C73.2024 903.441 74.1624 902.534 76.8583 902.534Z" fill="white"/>
</g>
</mask>
<g mask="url(#mask13_1432_22678)">
<path id="vector_94" d="M61.5568,136.753l-0.7352,-3.122c-0.0061,-0.028 -0.0326,-0.05 -0.059,-0.05l-2.465,-0.023c-0.0499,-0.001 -0.0824,-0.071 -0.0438,-0.095l2.337,-1.45c0.0112,-0.007 0.0173,-0.019 0.0173,-0.033l-0.0347,-2.409c-0.001,-0.048 0.0601,-0.053 0.0885,-0.009l1.3312,2.079c0.0143,0.023 0.0407,0.035 0.062,0.029l2.3248,-0.648c0.0437,-0.012 0.0905,0.047 0.065,0.083l-1.3342,1.926c-0.0122,0.017 -0.0081,0.044 0.0092,0.063l1.7908,2.032c0.0356,0.041 0.0081,0.092 -0.0397,0.074l-2.4833,-0.948c-0.0254,-0.01 -0.0488,0 -0.0549,0.022l-0.6824,2.501c-0.0112,0.047 -0.0814,0.03 -0.0936,-0.022z" fill="#FFD44D"/>
</g>
</g>
<g id="Clip path group_15">
<mask id="mask14_1432_22678" style="mask-type:luminance" maskUnits="userSpaceOnUse" x="73" y="900" width="40" height="58">
<g id="SVGID_00000021811605315644006680000000064717756826091703__7">
<path id="vector_95" d="M76.8583 902.534C76.8583 902.534 78.1711 907.785 83.6565 907.527C89.1419 907.268 89.7581 900.805 89.7581 900.805C89.7581 900.805 94.2784 899.172 98.1499 904.192C102.021 909.211 104.171 924.476 104.171 924.476C104.171 924.476 125.247 950.48 100.3 957.323C100.3 957.323 86.751 959.744 79.0091 954.375L73.2024 903.441C73.2024 903.441 74.1624 902.534 76.8583 902.534Z" fill="white"/>
</g>
</mask>
<g mask="url(#mask14_1432_22678)">
<path id="vector_96" d="M71.6038,158.756l0.2064,-3.192c0.0021,-0.027 -0.0173,-0.056 -0.0417,-0.064l-2.3593,-0.727c-0.0478,-0.015 -0.0579,-0.091 -0.0142,-0.103l2.6664,-0.717c0.0122,-0.002 0.0224,-0.012 0.0265,-0.026l0.6701,-2.311c0.0132,-0.046 0.0732,-0.034 0.0875,0.017l0.6715,2.365c0.007,0.026 0.029,0.045 0.05,0.046l2.421,0.046c0.046,0.001 0.073,0.071 0.038,0.098l-1.842,1.459c-0.017,0.013 -0.021,0.039 -0.009,0.063l1.125,2.452c0.023,0.05 -0.019,0.092 -0.06,0.06l-2.107,-1.616c-0.021,-0.016 -0.047,-0.014 -0.059,0.006l-1.3838,2.192c-0.0274,0.041 -0.0905,0.005 -0.0864,-0.048z" fill="#FFD44D"/>
</g>
</g>
</g>
<g id="group_84">
<path id="vector_97" d="M54.8149,123.878c0,0 1.3983,-14.926 7.9433,-23.073c0,0 5.8241,-1.816 9.4779,5.108c0.5186,0.983 0.4719,2.167 -0.1566,3.088l-10.7643,15.786z" fill="#9E332D" stroke="#9E332D" stroke-width="0.7319" stroke-miterlimit="10"/>
<path id="vector_98" d="M63.4511,114.874c1.4207,0.308 2.9431,0.345 4.4227,0.293l4.2051,-6.166c0.6284,-0.921 0.6752,-2.104 0.1566,-3.088c-3.6539,-6.924 -9.4779,-5.108 -9.4779,-5.108c-2.4966,3.107 -4.2417,7.199 -5.4488,11.074c1.8682,1.322 3.8125,2.492 6.1423,2.995z" fill="white" stroke="white" stroke-width="0.7324" stroke-miterlimit="10"/>
</g>
<g id="group_85">
<path id="vector_99" d="M41.4757,155.121c0,0 4.744,-42.885 20.8014,-38.762c0,0 5.9501,1.979 12.6879,16.988c0,0 -1.179,13.194 -20.4695,22.417l-5.5362,6.367l-7.6453,-0.455z" fill="#CD5428" stroke="#CD5428" stroke-width="0.9305" stroke-miterlimit="10"/>
<path id="vector_100" d="M57.3453,149.509c-0.0641,0.009 -0.1343,0.005 -0.2116,-0.023c-4.6392,-1.63 -10.0717,-1.129 -14.8981,-1.653c-0.7586,4.226 -1.1624,7.149 -1.1624,7.149l0.239,6.694l7.6454,0.455l5.5362,-6.367c0.2115,-0.101 0.4078,-0.205 0.6152,-0.307c0.2756,-0.825 0.5522,-1.65 0.8959,-2.454c0.4912,-1.147 1.0638,-2.26 1.4756,-3.438c-0.0447,-0.018 -0.0895,-0.038 -0.1352,-0.056z" fill="white"/>
<g id="group_86">
<path id="vector_101" d="M54.6973,156.233c0.8501,-2.151 1.7227,-4.294 2.6227,-6.423l2.7375,-6.376l2.8363,-6.333c0.9579,-2.106 1.9434,-4.199 2.9522,-6.284c-0.8502,2.151 -1.7217,4.293 -2.6227,6.423l-2.7376,6.374l-2.8373,6.333c-0.9569,2.106 -1.9433,4.201 -2.9511,6.286z" fill="#8B2A0C"/>
</g>
<g id="group_87">
<path id="vector_102" d="M41.5753,154.965c-0.0305,0 -0.0518,-0.011 -0.0793,-0.016c-0.0122,0.109 -0.0193,0.171 -0.0193,0.171l-0.1627,6.557l10.3981,0.823l2.6288,-6.557c-4.0535,-1.236 -8.6104,-0.98 -12.7656,-0.978z" fill="black" stroke="black" stroke-width="0.9305" stroke-miterlimit="10"/>
<g id="vector_103">
<path d="M41.314,158.964c0,0 -4.6494,3.24 -4.3403,3.168c0.3082,-0.073 11.9857,0 11.9857,0" fill="black"/>
<path d="M41.314,158.964c0,0 -4.6494,3.24 -4.3403,3.168c0.3082,-0.073 11.9857,0 11.9857,0" stroke="black" stroke-width="0.9305" stroke-miterlimit="10"/>
</g>
</g>
<path id="vector_104" opacity="0.49" d="M62.6672,121.711c-0.0671,1.408 -2.1488,2.461 -4.6504,2.352c-2.5017,-0.108 -4.4746,-1.338 -4.4075,-2.746c0.0671,-1.407 2.1498,-2.461 4.6505,-2.352c2.5016,0.107 4.4745,1.337 4.4074,2.746z" fill="#8B2A0C" stroke="#8B2A0C" stroke-width="0.4387" stroke-miterlimit="10"/>
</g>
</g>
</g>
</g>
<g id="group_88">
<g id="group_89">
<g id="group_90">
<path id="vector_105" d="M90,46.594c0,21.074 17.453,38.182 38.999,38.182c21.525,0 38.999,-17.087 38.999,-38.182c0,-21.075 -17.453,-38.183 -38.999,-38.183c-21.546,0 -38.999,17.108 -38.999,38.183z" fill="#7A5FFF"/>
</g>
</g>
</g>
<path id="text_9" d="M103.64,37l-2.296,-2.544v2.544h-0.728v-5.576h0.728v2.584l2.304,-2.584h0.92l-2.528,2.792l2.552,2.784zM109.405,34.64c0,0.139 -0.008,0.285 -0.024,0.44h-3.504c0.027,0.432 0.173,0.771 0.44,1.016c0.272,0.24 0.6,0.36 0.984,0.36c0.315,0 0.576,-0.072 0.784,-0.216c0.213,-0.149 0.363,-0.347 0.448,-0.592h0.784c-0.117,0.421 -0.352,0.765 -0.704,1.032c-0.352,0.261 -0.789,0.392 -1.312,0.392c-0.416,0 -0.789,-0.093 -1.12,-0.28c-0.325,-0.187 -0.581,-0.451 -0.768,-0.792c-0.187,-0.347 -0.28,-0.747 -0.28,-1.2c0,-0.453 0.091,-0.851 0.272,-1.192c0.181,-0.341 0.435,-0.603 0.76,-0.784c0.331,-0.187 0.709,-0.28 1.136,-0.28c0.416,0 0.784,0.091 1.104,0.272c0.32,0.181 0.565,0.432 0.736,0.752c0.176,0.315 0.264,0.672 0.264,1.072zM108.653,34.488c0,-0.277 -0.061,-0.515 -0.184,-0.712c-0.123,-0.203 -0.291,-0.355 -0.504,-0.456c-0.208,-0.107 -0.44,-0.16 -0.696,-0.16c-0.368,0 -0.683,0.117 -0.944,0.352c-0.256,0.235 -0.403,0.56 -0.44,0.976zM114.366,34.64c0,0.139 -0.008,0.285 -0.024,0.44h-3.504c0.027,0.432 0.173,0.771 0.44,1.016c0.272,0.24 0.6,0.36 0.984,0.36c0.315,0 0.576,-0.072 0.784,-0.216c0.213,-0.149 0.363,-0.347 0.448,-0.592h0.784c-0.117,0.421 -0.352,0.765 -0.704,1.032c-0.352,0.261 -0.789,0.392 -1.312,0.392c-0.416,0 -0.789,-0.093 -1.12,-0.28c-0.325,-0.187 -0.581,-0.451 -0.768,-0.792c-0.187,-0.347 -0.28,-0.747 -0.28,-1.2c0,-0.453 0.091,-0.851 0.272,-1.192c0.181,-0.341 0.435,-0.603 0.76,-0.784c0.331,-0.187 0.709,-0.28 1.136,-0.28c0.416,0 0.784,0.091 1.104,0.272c0.32,0.181 0.565,0.432 0.736,0.752c0.176,0.315 0.264,0.672 0.264,1.072zM113.614,34.488c0,-0.277 -0.061,-0.515 -0.184,-0.712c-0.123,-0.203 -0.291,-0.355 -0.504,-0.456c-0.208,-0.107 -0.44,-0.16 -0.696,-0.16c-0.368,0 -0.683,0.117 -0.944,0.352c-0.256,0.235 -0.403,0.56 -0.44,0.976zM116.055,33.424c0.144,-0.251 0.357,-0.459 0.64,-0.624c0.288,-0.171 0.621,-0.256 1,-0.256c0.389,0 0.741,0.093 1.056,0.28c0.32,0.187 0.571,0.451 0.752,0.792c0.181,0.336 0.272,0.728 0.272,1.176c0,0.443 -0.091,0.837 -0.272,1.184c-0.181,0.347 -0.432,0.616 -0.752,0.808c-0.315,0.192 -0.667,0.288 -1.056,0.288c-0.373,0 -0.704,-0.083 -0.992,-0.248c-0.283,-0.171 -0.499,-0.381 -0.648,-0.632v2.888h-0.728v-6.464h0.728zM119.031,34.792c0,-0.331 -0.067,-0.619 -0.2,-0.864c-0.133,-0.245 -0.315,-0.432 -0.544,-0.56c-0.224,-0.128 -0.472,-0.192 -0.744,-0.192c-0.267,0 -0.515,0.067 -0.744,0.2c-0.224,0.128 -0.405,0.317 -0.544,0.568c-0.133,0.245 -0.2,0.531 -0.2,0.856c0,0.331 0.067,0.621 0.2,0.872c0.139,0.245 0.32,0.435 0.544,0.568c0.229,0.128 0.477,0.192 0.744,0.192c0.272,0 0.52,-0.064 0.744,-0.192c0.229,-0.133 0.411,-0.323 0.544,-0.568c0.133,-0.251 0.2,-0.544 0.2,-0.88zM124.418,37.072c-0.336,0 -0.637,-0.056 -0.904,-0.168c-0.267,-0.117 -0.477,-0.277 -0.632,-0.48c-0.155,-0.208 -0.24,-0.445 -0.256,-0.712h0.752c0.021,0.219 0.123,0.397 0.304,0.536c0.187,0.139 0.429,0.208 0.728,0.208c0.277,0 0.496,-0.061 0.656,-0.184c0.16,-0.123 0.24,-0.277 0.24,-0.464c0,-0.192 -0.085,-0.333 -0.256,-0.424c-0.171,-0.096 -0.435,-0.189 -0.792,-0.28c-0.325,-0.085 -0.592,-0.171 -0.8,-0.256c-0.203,-0.091 -0.379,-0.221 -0.528,-0.392c-0.144,-0.176 -0.216,-0.405 -0.216,-0.688c0,-0.224 0.067,-0.429 0.2,-0.616c0.133,-0.187 0.323,-0.333 0.568,-0.44c0.245,-0.112 0.525,-0.168 0.84,-0.168c0.485,0 0.877,0.123 1.176,0.368c0.299,0.245 0.459,0.581 0.48,1.008h-0.728c-0.016,-0.229 -0.109,-0.413 -0.28,-0.552c-0.165,-0.139 -0.389,-0.208 -0.672,-0.208c-0.261,0 -0.469,0.056 -0.624,0.168c-0.155,0.112 -0.232,0.259 -0.232,0.44c0,0.144 0.045,0.264 0.136,0.36c0.096,0.091 0.213,0.165 0.352,0.224c0.144,0.053 0.341,0.115 0.592,0.184c0.315,0.085 0.571,0.171 0.768,0.256c0.197,0.08 0.365,0.203 0.504,0.368c0.144,0.165 0.219,0.381 0.224,0.648c0,0.24 -0.067,0.456 -0.2,0.648c-0.133,0.192 -0.323,0.344 -0.568,0.456c-0.24,0.107 -0.517,0.16 -0.832,0.16zM127.934,33.216v2.584c0,0.213 0.045,0.365 0.136,0.456c0.09,0.085 0.248,0.128 0.472,0.128h0.536v0.616h-0.656c-0.406,0 -0.71,-0.093 -0.912,-0.28c-0.203,-0.187 -0.304,-0.493 -0.304,-0.92v-2.584h-0.568v-0.6h0.568v-1.104h0.728v1.104h1.144v0.6zM133.848,32.616v4.384h-0.728v-0.648c-0.139,0.224 -0.334,0.4 -0.584,0.528c-0.246,0.123 -0.518,0.184 -0.816,0.184c-0.342,0 -0.648,-0.069 -0.92,-0.208c-0.272,-0.144 -0.488,-0.357 -0.648,-0.64c-0.155,-0.283 -0.232,-0.627 -0.232,-1.032v-2.568h0.72v2.472c0,0.432 0.109,0.765 0.328,1c0.218,0.229 0.517,0.344 0.896,0.344c0.389,0 0.696,-0.12 0.92,-0.36c0.224,-0.24 0.336,-0.589 0.336,-1.048v-2.408zM134.805,34.792c0,-0.448 0.091,-0.84 0.272,-1.176c0.181,-0.341 0.429,-0.605 0.744,-0.792c0.32,-0.187 0.677,-0.28 1.072,-0.28c0.341,0 0.659,0.08 0.952,0.24c0.293,0.155 0.517,0.36 0.672,0.616v-2.32h0.736v5.92h-0.736v-0.824c-0.144,0.261 -0.357,0.477 -0.64,0.648c-0.283,0.165 -0.613,0.248 -0.992,0.248c-0.389,0 -0.744,-0.096 -1.064,-0.288c-0.315,-0.192 -0.563,-0.461 -0.744,-0.808c-0.181,-0.347 -0.272,-0.741 -0.272,-1.184zM138.517,34.8c0,-0.331 -0.067,-0.619 -0.2,-0.864c-0.133,-0.245 -0.315,-0.432 -0.544,-0.56c-0.224,-0.133 -0.472,-0.2 -0.744,-0.2c-0.272,0 -0.52,0.064 -0.744,0.192c-0.224,0.128 -0.403,0.315 -0.536,0.56c-0.133,0.245 -0.2,0.533 -0.2,0.864c0,0.336 0.067,0.629 0.2,0.88c0.133,0.245 0.312,0.435 0.536,0.568c0.224,0.128 0.472,0.192 0.744,0.192c0.272,0 0.52,-0.064 0.744,-0.192c0.229,-0.133 0.411,-0.323 0.544,-0.568c0.133,-0.251 0.2,-0.541 0.2,-0.872zM144.259,32.616l-2.64,6.448h-0.752l0.864,-2.112l-1.768,-4.336h0.808l1.376,3.552l1.36,-3.552zM145.367,31.904c-0.139,0 -0.256,-0.048 -0.352,-0.144c-0.096,-0.096 -0.144,-0.213 -0.144,-0.352c0,-0.139 0.048,-0.256 0.144,-0.352c0.096,-0.096 0.213,-0.144 0.352,-0.144c0.133,0 0.245,0.048 0.336,0.144c0.096,0.096 0.144,0.213 0.144,0.352c0,0.139 -0.048,0.256 -0.144,0.352c-0.091,0.096 -0.203,0.144 -0.336,0.144zM145.719,32.616v4.384h-0.728v-4.384zM149.096,32.536c0.533,0 0.965,0.163 1.296,0.488c0.33,0.32 0.496,0.784 0.496,1.392v2.584h-0.72v-2.48c0,-0.437 -0.11,-0.771 -0.328,-1c-0.219,-0.235 -0.518,-0.352 -0.896,-0.352c-0.384,0 -0.691,0.12 -0.92,0.36c-0.224,0.24 -0.336,0.589 -0.336,1.048v2.424h-0.728v-4.384h0.728v0.624c0.144,-0.224 0.338,-0.397 0.584,-0.52c0.25,-0.123 0.525,-0.184 0.824,-0.184zM153.885,32.544c0.379,0 0.709,0.083 0.992,0.248c0.288,0.165 0.501,0.373 0.64,0.624v-0.8h0.736v4.48c0,0.4 -0.085,0.755 -0.256,1.064c-0.171,0.315 -0.416,0.56 -0.736,0.736c-0.315,0.176 -0.683,0.264 -1.104,0.264c-0.576,0 -1.056,-0.136 -1.44,-0.408c-0.384,-0.272 -0.611,-0.643 -0.68,-1.112h0.72c0.08,0.267 0.245,0.48 0.496,0.64c0.251,0.165 0.552,0.248 0.904,0.248c0.4,0 0.725,-0.125 0.976,-0.376c0.256,-0.251 0.384,-0.603 0.384,-1.056v-0.92c-0.144,0.256 -0.357,0.469 -0.64,0.64c-0.283,0.171 -0.613,0.256 -0.992,0.256c-0.389,0 -0.744,-0.096 -1.064,-0.288c-0.315,-0.192 -0.563,-0.461 -0.744,-0.808c-0.181,-0.347 -0.272,-0.741 -0.272,-1.184c0,-0.448 0.091,-0.84 0.272,-1.176c0.181,-0.341 0.429,-0.605 0.744,-0.792c0.32,-0.187 0.675,-0.28 1.064,-0.28zM155.517,34.8c0,-0.331 -0.067,-0.619 -0.2,-0.864c-0.133,-0.245 -0.315,-0.432 -0.544,-0.56c-0.224,-0.133 -0.472,-0.2 -0.744,-0.2c-0.272,0 -0.52,0.064 -0.744,0.192c-0.224,0.128 -0.403,0.315 -0.536,0.56c-0.133,0.245 -0.2,0.533 -0.2,0.864c0,0.336 0.067,0.629 0.2,0.88c0.133,0.245 0.312,0.435 0.536,0.568c0.224,0.128 0.472,0.192 0.744,0.192c0.272,0 0.52,-0.064 0.744,-0.192c0.229,-0.133 0.411,-0.323 0.544,-0.568c0.133,-0.251 0.2,-0.541 0.2,-0.872zM158.235,35.992l-0.896,2.152h-0.488l0.584,-2.152zM102.528,47.072c-0.411,0 -0.784,-0.093 -1.12,-0.28c-0.331,-0.187 -0.592,-0.451 -0.784,-0.792c-0.187,-0.347 -0.28,-0.747 -0.28,-1.2c0,-0.448 0.096,-0.843 0.288,-1.184c0.197,-0.347 0.464,-0.611 0.8,-0.792c0.336,-0.187 0.712,-0.28 1.128,-0.28c0.416,0 0.792,0.093 1.128,0.28c0.336,0.181 0.6,0.443 0.792,0.784c0.197,0.341 0.296,0.739 0.296,1.192c0,0.453 -0.101,0.853 -0.304,1.2c-0.197,0.341 -0.467,0.605 -0.808,0.792c-0.341,0.187 -0.72,0.28 -1.136,0.28zM102.528,46.432c0.261,0 0.507,-0.061 0.736,-0.184c0.229,-0.123 0.413,-0.307 0.552,-0.552c0.144,-0.245 0.216,-0.544 0.216,-0.896c0,-0.352 -0.069,-0.651 -0.208,-0.896c-0.139,-0.245 -0.32,-0.427 -0.544,-0.544c-0.224,-0.123 -0.467,-0.184 -0.728,-0.184c-0.267,0 -0.512,0.061 -0.736,0.184c-0.219,0.117 -0.395,0.299 -0.528,0.544c-0.133,0.245 -0.2,0.544 -0.2,0.896c0,0.357 0.064,0.659 0.192,0.904c0.133,0.245 0.309,0.429 0.528,0.552c0.219,0.117 0.459,0.176 0.72,0.176zM106.461,43.328c0.128,-0.251 0.31,-0.445 0.544,-0.584c0.24,-0.139 0.531,-0.208 0.872,-0.208v0.752h-0.192c-0.816,0 -1.224,0.443 -1.224,1.328v2.384h-0.728v-4.384h0.728zM111.578,41.424v5.576h-0.728v-5.576zM112.931,41.424h0.808l-0.768,1.816h-0.512zM119.841,42.536c0.341,0 0.645,0.072 0.912,0.216c0.267,0.139 0.477,0.349 0.632,0.632c0.155,0.283 0.232,0.627 0.232,1.032v2.584h-0.72v-2.48c0,-0.437 -0.109,-0.771 -0.328,-1c-0.213,-0.235 -0.504,-0.352 -0.872,-0.352c-0.379,0 -0.68,0.123 -0.904,0.368c-0.224,0.24 -0.336,0.589 -0.336,1.048v2.416h-0.72v-2.48c0,-0.437 -0.109,-0.771 -0.328,-1c-0.213,-0.235 -0.504,-0.352 -0.872,-0.352c-0.379,0 -0.68,0.123 -0.904,0.368c-0.224,0.24 -0.336,0.589 -0.336,1.048v2.416h-0.728v-4.384h0.728v0.632c0.144,-0.229 0.336,-0.405 0.576,-0.528c0.245,-0.123 0.515,-0.184 0.808,-0.184c0.368,0 0.693,0.083 0.976,0.248c0.283,0.165 0.493,0.408 0.632,0.728c0.123,-0.309 0.325,-0.549 0.608,-0.72c0.283,-0.171 0.597,-0.256 0.944,-0.256zM125.832,43.216v2.584c0,0.213 0.045,0.365 0.136,0.456c0.091,0.085 0.248,0.128 0.472,0.128h0.536v0.616h-0.656c-0.405,0 -0.709,-0.093 -0.912,-0.28c-0.203,-0.187 -0.304,-0.493 -0.304,-0.92v-2.584h-0.568v-0.6h0.568v-1.104h0.728v1.104h1.144v0.6zM131.858,44.64c0,0.139 -0.008,0.285 -0.024,0.44h-3.504c0.027,0.432 0.174,0.771 0.44,1.016c0.272,0.24 0.6,0.36 0.984,0.36c0.315,0 0.576,-0.072 0.784,-0.216c0.214,-0.149 0.363,-0.347 0.448,-0.592h0.784c-0.117,0.421 -0.352,0.765 -0.704,1.032c-0.352,0.261 -0.789,0.392 -1.312,0.392c-0.416,0 -0.789,-0.093 -1.12,-0.28c-0.325,-0.187 -0.581,-0.451 -0.768,-0.792c-0.186,-0.347 -0.28,-0.747 -0.28,-1.2c0,-0.453 0.091,-0.851 0.272,-1.192c0.182,-0.341 0.435,-0.603 0.76,-0.784c0.331,-0.187 0.71,-0.28 1.136,-0.28c0.416,0 0.784,0.091 1.104,0.272c0.32,0.181 0.566,0.432 0.736,0.752c0.176,0.315 0.264,0.672 0.264,1.072zM131.106,44.488c0,-0.277 -0.061,-0.515 -0.184,-0.712c-0.122,-0.203 -0.29,-0.355 -0.504,-0.456c-0.208,-0.107 -0.44,-0.16 -0.696,-0.16c-0.368,0 -0.682,0.117 -0.944,0.352c-0.256,0.235 -0.402,0.56 -0.44,0.976zM133.547,41.08v5.92h-0.728v-5.92zM135.516,41.08v5.92h-0.728v-5.92zM137.133,41.904c-0.139,0 -0.256,-0.048 -0.352,-0.144c-0.096,-0.096 -0.144,-0.213 -0.144,-0.352c0,-0.139 0.048,-0.256 0.144,-0.352c0.096,-0.096 0.213,-0.144 0.352,-0.144c0.133,0 0.245,0.048 0.336,0.144c0.096,0.096 0.144,0.213 0.144,0.352c0,0.139 -0.048,0.256 -0.144,0.352c-0.091,0.096 -0.203,0.144 -0.336,0.144zM137.485,42.616v4.384h-0.728v-4.384zM140.861,42.536c0.534,0 0.966,0.163 1.296,0.488c0.331,0.32 0.496,0.784 0.496,1.392v2.584h-0.72v-2.48c0,-0.437 -0.109,-0.771 -0.328,-1c-0.218,-0.235 -0.517,-0.352 -0.896,-0.352c-0.384,0 -0.69,0.12 -0.92,0.36c-0.224,0.24 -0.336,0.589 -0.336,1.048v2.424h-0.728v-4.384h0.728v0.624c0.144,-0.224 0.339,-0.397 0.584,-0.52c0.251,-0.123 0.526,-0.184 0.824,-0.184zM145.651,42.544c0.378,0 0.709,0.083 0.992,0.248c0.288,0.165 0.501,0.373 0.64,0.624v-0.8h0.736v4.48c0,0.4 -0.086,0.755 -0.256,1.064c-0.171,0.315 -0.416,0.56 -0.736,0.736c-0.315,0.176 -0.683,0.264 -1.104,0.264c-0.576,0 -1.056,-0.136 -1.44,-0.408c-0.384,-0.272 -0.611,-0.643 -0.68,-1.112h0.72c0.08,0.267 0.245,0.48 0.496,0.64c0.25,0.165 0.552,0.248 0.904,0.248c0.4,0 0.725,-0.125 0.976,-0.376c0.256,-0.251 0.384,-0.603 0.384,-1.056v-0.92c-0.144,0.256 -0.358,0.469 -0.64,0.64c-0.283,0.171 -0.614,0.256 -0.992,0.256c-0.39,0 -0.744,-0.096 -1.064,-0.288c-0.315,-0.192 -0.563,-0.461 -0.744,-0.808c-0.182,-0.347 -0.272,-0.741 -0.272,-1.184c0,-0.448 0.09,-0.84 0.272,-1.176c0.181,-0.341 0.429,-0.605 0.744,-0.792c0.32,-0.187 0.674,-0.28 1.064,-0.28zM147.283,44.8c0,-0.331 -0.067,-0.619 -0.2,-0.864c-0.134,-0.245 -0.315,-0.432 -0.544,-0.56c-0.224,-0.133 -0.472,-0.2 -0.744,-0.2c-0.272,0 -0.52,0.064 -0.744,0.192c-0.224,0.128 -0.403,0.315 -0.536,0.56c-0.134,0.245 -0.2,0.533 -0.2,0.864c0,0.336 0.066,0.629 0.2,0.88c0.133,0.245 0.312,0.435 0.536,0.568c0.224,0.128 0.472,0.192 0.744,0.192c0.272,0 0.52,-0.064 0.744,-0.192c0.229,-0.133 0.41,-0.323 0.544,-0.568c0.133,-0.251 0.2,-0.541 0.2,-0.872zM104.392,52.616l-2.64,6.448h-0.752l0.864,-2.112l-1.768,-4.336h0.808l1.376,3.552l1.36,-3.552zM107.036,57.072c-0.411,0 -0.784,-0.093 -1.12,-0.28c-0.331,-0.187 -0.592,-0.451 -0.784,-0.792c-0.187,-0.347 -0.28,-0.747 -0.28,-1.2c0,-0.448 0.096,-0.843 0.288,-1.184c0.197,-0.347 0.464,-0.611 0.8,-0.792c0.336,-0.187 0.712,-0.28 1.128,-0.28c0.416,0 0.792,0.093 1.128,0.28c0.336,0.181 0.6,0.443 0.792,0.784c0.197,0.341 0.296,0.739 0.296,1.192c0,0.453 -0.102,0.853 -0.304,1.2c-0.198,0.341 -0.467,0.605 -0.808,0.792c-0.342,0.187 -0.72,0.28 -1.136,0.28zM107.036,56.432c0.261,0 0.506,-0.061 0.736,-0.184c0.229,-0.123 0.413,-0.307 0.552,-0.552c0.144,-0.245 0.216,-0.544 0.216,-0.896c0,-0.352 -0.07,-0.651 -0.208,-0.896c-0.139,-0.245 -0.32,-0.427 -0.544,-0.544c-0.224,-0.123 -0.467,-0.184 -0.728,-0.184c-0.267,0 -0.512,0.061 -0.736,0.184c-0.219,0.117 -0.395,0.299 -0.528,0.544c-0.134,0.245 -0.2,0.544 -0.2,0.896c0,0.357 0.064,0.659 0.192,0.904c0.133,0.245 0.309,0.429 0.528,0.552c0.218,0.117 0.458,0.176 0.72,0.176zM114.129,52.616v4.384h-0.728v-0.648c-0.139,0.224 -0.333,0.4 -0.584,0.528c-0.245,0.123 -0.517,0.184 -0.816,0.184c-0.341,0 -0.648,-0.069 -0.92,-0.208c-0.272,-0.144 -0.488,-0.357 -0.648,-0.64c-0.155,-0.283 -0.232,-0.627 -0.232,-1.032v-2.568h0.72v2.472c0,0.432 0.109,0.765 0.328,1c0.219,0.229 0.517,0.344 0.896,0.344c0.389,0 0.696,-0.12 0.92,-0.36c0.224,-0.24 0.336,-0.589 0.336,-1.048v-2.408zM116.086,53.328c0.128,-0.251 0.31,-0.445 0.544,-0.584c0.24,-0.139 0.531,-0.208 0.872,-0.208v0.752h-0.192c-0.816,0 -1.224,0.443 -1.224,1.328v2.384h-0.728v-4.384h0.728zM121.203,53.432c0.15,-0.261 0.368,-0.475 0.656,-0.64c0.288,-0.165 0.616,-0.248 0.984,-0.248c0.395,0 0.75,0.093 1.064,0.28c0.315,0.187 0.563,0.451 0.744,0.792c0.182,0.336 0.272,0.728 0.272,1.176c0,0.443 -0.09,0.837 -0.272,1.184c-0.181,0.347 -0.432,0.616 -0.752,0.808c-0.314,0.192 -0.666,0.288 -1.056,0.288c-0.378,0 -0.712,-0.083 -1,-0.248c-0.282,-0.165 -0.496,-0.376 -0.64,-0.632v0.808h-0.728v-5.92h0.728zM124.179,54.792c0,-0.331 -0.066,-0.619 -0.2,-0.864c-0.133,-0.245 -0.314,-0.432 -0.544,-0.56c-0.224,-0.128 -0.472,-0.192 -0.744,-0.192c-0.266,0 -0.514,0.067 -0.744,0.2c-0.224,0.128 -0.405,0.317 -0.544,0.568c-0.133,0.245 -0.2,0.531 -0.2,0.856c0,0.331 0.067,0.621 0.2,0.872c0.139,0.245 0.32,0.435 0.544,0.568c0.23,0.128 0.478,0.192 0.744,0.192c0.272,0 0.52,-0.064 0.744,-0.192c0.23,-0.133 0.411,-0.323 0.544,-0.568c0.134,-0.251 0.2,-0.544 0.2,-0.88zM126.61,53.328c0.128,-0.251 0.309,-0.445 0.544,-0.584c0.24,-0.139 0.53,-0.208 0.872,-0.208v0.752h-0.192c-0.816,0 -1.224,0.443 -1.224,1.328v2.384h-0.728v-4.384h0.728zM128.594,54.792c0,-0.448 0.091,-0.84 0.272,-1.176c0.181,-0.341 0.429,-0.605 0.744,-0.792c0.32,-0.187 0.675,-0.28 1.064,-0.28c0.384,0 0.717,0.083 1,0.248c0.283,0.165 0.493,0.373 0.632,0.624v-0.8h0.736v4.384h-0.736v-0.816c-0.144,0.256 -0.36,0.469 -0.648,0.64c-0.283,0.165 -0.613,0.248 -0.992,0.248c-0.389,0 -0.741,-0.096 -1.056,-0.288c-0.315,-0.192 -0.563,-0.461 -0.744,-0.808c-0.181,-0.347 -0.272,-0.741 -0.272,-1.184zM132.306,54.8c0,-0.331 -0.067,-0.619 -0.2,-0.864c-0.133,-0.245 -0.315,-0.432 -0.544,-0.56c-0.224,-0.133 -0.472,-0.2 -0.744,-0.2c-0.272,0 -0.52,0.064 -0.744,0.192c-0.224,0.128 -0.403,0.315 -0.536,0.56c-0.133,0.245 -0.2,0.533 -0.2,0.864c0,0.336 0.067,0.629 0.2,0.88c0.133,0.245 0.312,0.435 0.536,0.568c0.224,0.128 0.472,0.192 0.744,0.192c0.272,0 0.52,-0.064 0.744,-0.192c0.229,-0.133 0.411,-0.323 0.544,-0.568c0.133,-0.251 0.2,-0.541 0.2,-0.872zM134.648,51.904c-0.138,0 -0.256,-0.048 -0.352,-0.144c-0.096,-0.096 -0.144,-0.213 -0.144,-0.352c0,-0.139 0.048,-0.256 0.144,-0.352c0.096,-0.096 0.214,-0.144 0.352,-0.144c0.134,0 0.246,0.048 0.336,0.144c0.096,0.096 0.144,0.213 0.144,0.352c0,0.139 -0.048,0.256 -0.144,0.352c-0.09,0.096 -0.202,0.144 -0.336,0.144zM135,52.616v4.384h-0.728v-4.384zM138.377,52.536c0.533,0 0.965,0.163 1.296,0.488c0.331,0.32 0.496,0.784 0.496,1.392v2.584h-0.72v-2.48c0,-0.437 -0.109,-0.771 -0.328,-1c-0.219,-0.235 -0.517,-0.352 -0.896,-0.352c-0.384,0 -0.691,0.12 -0.92,0.36c-0.224,0.24 -0.336,0.589 -0.336,1.048v2.424h-0.728v-4.384h0.728v0.624c0.144,-0.224 0.339,-0.397 0.584,-0.52c0.251,-0.123 0.525,-0.184 0.824,-0.184zM147.267,52.616l-2.64,6.448h-0.752l0.864,-2.112l-1.768,-4.336h0.808l1.376,3.552l1.36,-3.552zM149.911,57.072c-0.411,0 -0.784,-0.093 -1.12,-0.28c-0.331,-0.187 -0.592,-0.451 -0.784,-0.792c-0.187,-0.347 -0.28,-0.747 -0.28,-1.2c0,-0.448 0.096,-0.843 0.288,-1.184c0.197,-0.347 0.464,-0.611 0.8,-0.792c0.336,-0.187 0.712,-0.28 1.128,-0.28c0.416,0 0.792,0.093 1.128,0.28c0.336,0.181 0.6,0.443 0.792,0.784c0.197,0.341 0.296,0.739 0.296,1.192c0,0.453 -0.102,0.853 -0.304,1.2c-0.198,0.341 -0.467,0.605 -0.808,0.792c-0.342,0.187 -0.72,0.28 -1.136,0.28zM149.911,56.432c0.261,0 0.506,-0.061 0.736,-0.184c0.229,-0.123 0.413,-0.307 0.552,-0.552c0.144,-0.245 0.216,-0.544 0.216,-0.896c0,-0.352 -0.07,-0.651 -0.208,-0.896c-0.139,-0.245 -0.32,-0.427 -0.544,-0.544c-0.224,-0.123 -0.467,-0.184 -0.728,-0.184c-0.267,0 -0.512,0.061 -0.736,0.184c-0.219,0.117 -0.395,0.299 -0.528,0.544c-0.134,0.245 -0.2,0.544 -0.2,0.896c0,0.357 0.064,0.659 0.192,0.904c0.133,0.245 0.309,0.429 0.528,0.552c0.218,0.117 0.458,0.176 0.72,0.176zM157.004,52.616v4.384h-0.728v-0.648c-0.139,0.224 -0.333,0.4 -0.584,0.528c-0.245,0.123 -0.517,0.184 -0.816,0.184c-0.341,0 -0.648,-0.069 -0.92,-0.208c-0.272,-0.144 -0.488,-0.357 -0.648,-0.64c-0.155,-0.283 -0.232,-0.627 -0.232,-1.032v-2.568h0.72v2.472c0,0.432 0.109,0.765 0.328,1c0.219,0.229 0.517,0.344 0.896,0.344c0.389,0 0.696,-0.12 0.92,-0.36c0.224,-0.24 0.336,-0.589 0.336,-1.048v-2.408zM102.424,62.544c0.379,0 0.709,0.083 0.992,0.248c0.288,0.165 0.501,0.373 0.64,0.624v-0.8h0.736v4.48c0,0.4 -0.085,0.755 -0.256,1.064c-0.171,0.315 -0.416,0.56 -0.736,0.736c-0.315,0.176 -0.683,0.264 -1.104,0.264c-0.576,0 -1.056,-0.136 -1.44,-0.408c-0.384,-0.272 -0.611,-0.643 -0.68,-1.112h0.72c0.08,0.267 0.245,0.48 0.496,0.64c0.251,0.165 0.552,0.248 0.904,0.248c0.4,0 0.725,-0.125 0.976,-0.376c0.256,-0.251 0.384,-0.603 0.384,-1.056v-0.92c-0.144,0.256 -0.357,0.469 -0.64,0.64c-0.283,0.171 -0.613,0.256 -0.992,0.256c-0.389,0 -0.744,-0.096 -1.064,-0.288c-0.315,-0.192 -0.563,-0.461 -0.744,-0.808c-0.181,-0.347 -0.272,-0.741 -0.272,-1.184c0,-0.448 0.091,-0.84 0.272,-1.176c0.181,-0.341 0.429,-0.605 0.744,-0.792c0.32,-0.187 0.675,-0.28 1.064,-0.28zM104.056,64.8c0,-0.331 -0.067,-0.619 -0.2,-0.864c-0.133,-0.245 -0.315,-0.432 -0.544,-0.56c-0.224,-0.133 -0.472,-0.2 -0.744,-0.2c-0.272,0 -0.52,0.064 -0.744,0.192c-0.224,0.128 -0.403,0.315 -0.536,0.56c-0.133,0.245 -0.2,0.533 -0.2,0.864c0,0.336 0.067,0.629 0.2,0.88c0.133,0.245 0.312,0.435 0.536,0.568c0.224,0.128 0.472,0.192 0.744,0.192c0.272,0 0.52,-0.064 0.744,-0.192c0.229,-0.133 0.411,-0.323 0.544,-0.568c0.133,-0.251 0.2,-0.541 0.2,-0.872zM105.75,64.792c0,-0.448 0.091,-0.84 0.272,-1.176c0.182,-0.341 0.43,-0.605 0.744,-0.792c0.32,-0.187 0.675,-0.28 1.064,-0.28c0.384,0 0.718,0.083 1,0.248c0.283,0.165 0.494,0.373 0.632,0.624v-0.8h0.736v4.384h-0.736v-0.816c-0.144,0.256 -0.36,0.469 -0.648,0.64c-0.282,0.165 -0.613,0.248 -0.992,0.248c-0.389,0 -0.741,-0.096 -1.056,-0.288c-0.314,-0.192 -0.562,-0.461 -0.744,-0.808c-0.181,-0.347 -0.272,-0.741 -0.272,-1.184zM109.462,64.8c0,-0.331 -0.066,-0.619 -0.2,-0.864c-0.133,-0.245 -0.314,-0.432 -0.544,-0.56c-0.224,-0.133 -0.472,-0.2 -0.744,-0.2c-0.272,0 -0.52,0.064 -0.744,0.192c-0.224,0.128 -0.402,0.315 -0.536,0.56c-0.133,0.245 -0.2,0.533 -0.2,0.864c0,0.336 0.067,0.629 0.2,0.88c0.134,0.245 0.312,0.435 0.536,0.568c0.224,0.128 0.472,0.192 0.744,0.192c0.272,0 0.52,-0.064 0.744,-0.192c0.23,-0.133 0.411,-0.323 0.544,-0.568c0.134,-0.251 0.2,-0.541 0.2,-0.872zM113.061,66.328l1.36,-3.712h0.776l-1.72,4.384h-0.848l-1.72,-4.384h0.784zM119.913,64.64c0,0.139 -0.008,0.285 -0.024,0.44h-3.504c0.027,0.432 0.173,0.771 0.44,1.016c0.272,0.24 0.6,0.36 0.984,0.36c0.315,0 0.576,-0.072 0.784,-0.216c0.213,-0.149 0.363,-0.347 0.448,-0.592h0.784c-0.117,0.421 -0.352,0.765 -0.704,1.032c-0.352,0.261 -0.789,0.392 -1.312,0.392c-0.416,0 -0.789,-0.093 -1.12,-0.28c-0.325,-0.187 -0.581,-0.451 -0.768,-0.792c-0.187,-0.347 -0.28,-0.747 -0.28,-1.2c0,-0.453 0.091,-0.851 0.272,-1.192c0.181,-0.341 0.435,-0.603 0.76,-0.784c0.331,-0.187 0.709,-0.28 1.136,-0.28c0.416,0 0.784,0.091 1.104,0.272c0.32,0.181 0.565,0.432 0.736,0.752c0.176,0.315 0.264,0.672 0.264,1.072zM119.161,64.488c0,-0.277 -0.061,-0.515 -0.184,-0.712c-0.123,-0.203 -0.291,-0.355 -0.504,-0.456c-0.208,-0.107 -0.44,-0.16 -0.696,-0.16c-0.368,0 -0.683,0.117 -0.944,0.352c-0.256,0.235 -0.403,0.56 -0.44,0.976zM126.895,62.616v4.384h-0.728v-0.648c-0.139,0.224 -0.334,0.4 -0.584,0.528c-0.246,0.123 -0.518,0.184 -0.816,0.184c-0.342,0 -0.648,-0.069 -0.92,-0.208c-0.272,-0.144 -0.488,-0.357 -0.648,-0.64c-0.155,-0.283 -0.232,-0.627 -0.232,-1.032v-2.568h0.72v2.472c0,0.432 0.109,0.765 0.328,1c0.218,0.229 0.517,0.344 0.896,0.344c0.389,0 0.696,-0.12 0.92,-0.36c0.224,-0.24 0.336,-0.589 0.336,-1.048v-2.408zM128.852,63.424c0.144,-0.251 0.357,-0.459 0.64,-0.624c0.288,-0.171 0.621,-0.256 1,-0.256c0.389,0 0.741,0.093 1.056,0.28c0.32,0.187 0.57,0.451 0.752,0.792c0.181,0.336 0.272,0.728 0.272,1.176c0,0.443 -0.091,0.837 -0.272,1.184c-0.182,0.347 -0.432,0.616 -0.752,0.808c-0.315,0.192 -0.667,0.288 -1.056,0.288c-0.374,0 -0.704,-0.083 -0.992,-0.248c-0.283,-0.171 -0.499,-0.381 -0.648,-0.632v2.888h-0.728v-6.464h0.728zM131.828,64.792c0,-0.331 -0.067,-0.619 -0.2,-0.864c-0.134,-0.245 -0.315,-0.432 -0.544,-0.56c-0.224,-0.128 -0.472,-0.192 -0.744,-0.192c-0.267,0 -0.515,0.067 -0.744,0.2c-0.224,0.128 -0.406,0.317 -0.544,0.568c-0.134,0.245 -0.2,0.531 -0.2,0.856c0,0.331 0.066,0.621 0.2,0.872c0.138,0.245 0.32,0.435 0.544,0.568c0.229,0.128 0.477,0.192 0.744,0.192c0.272,0 0.52,-0.064 0.744,-0.192c0.229,-0.133 0.41,-0.323 0.544,-0.568c0.133,-0.251 0.2,-0.544 0.2,-0.88zM133.762,67.048c-0.139,0 -0.256,-0.048 -0.352,-0.144c-0.096,-0.096 -0.144,-0.213 -0.144,-0.352c0,-0.139 0.048,-0.256 0.144,-0.352c0.096,-0.096 0.213,-0.144 0.352,-0.144c0.133,0 0.245,0.048 0.336,0.144c0.096,0.096 0.144,0.213 0.144,0.352c0,0.139 -0.048,0.256 -0.144,0.352c-0.091,0.096 -0.203,0.144 -0.336,0.144z" fill="white"/>
<g id="group_91">
<g id="group_92">
<g id="group_93">
<path id="vector_106" d="M116.53,80.863l-11.793,2.437l5.107,-9.944z" fill="#7A5FFF"/>
</g>
</g>
</g>
</g></svg>