<svg viewBox="0 0 189 300.0001" x="0" y="0" fill="none" xmlns="http://www.w3.org/2000/svg"><defs><mask id="mask0_1432_22978" style="mask-type:luminance" maskUnits="userSpaceOnUse" x="39" y="149" width="78" height="89" xmlns="http://www.w3.org/2000/svg">
<g id="SVGID_00000155853510008029307610000012987496748626437795_" data-node-id="I1432:22986;149:6949">
<path id="vector_47" data-node-id="I1432:22986;149:6950" d="M81.7,153.617c0,0 -1.586,10.34 7.562,11.935c9.452,1.65 12.005,-8.243 12.005,-8.243l8.151,2.266c0,0 2.21,66.875 7.327,74.827c0,0 -38.782,11.917 -77.712,-8.235l35.818,-76.959z" fill="white"/>
</g>
</mask><mask id="mask1_1432_22978" style="mask-type:luminance" maskUnits="userSpaceOnUse" x="39" y="149" width="78" height="89" xmlns="http://www.w3.org/2000/svg">
<g id="SVGID_00000155853510008029307610000012987496748626437795__2" data-node-id="I1432:22986;149:6953">
<path id="vector_49" data-node-id="I1432:22986;149:6954" d="M81.7,153.617c0,0 -1.586,10.34 7.562,11.935c9.452,1.65 12.005,-8.243 12.005,-8.243l8.151,2.266c0,0 2.21,66.875 7.327,74.827c0,0 -38.782,11.917 -77.712,-8.235l35.818,-76.959z" fill="white"/>
</g>
</mask><mask id="mask2_1432_22978" style="mask-type:luminance" maskUnits="userSpaceOnUse" x="39" y="149" width="78" height="89" xmlns="http://www.w3.org/2000/svg">
<g id="SVGID_00000155853510008029307610000012987496748626437795__3" data-node-id="I1432:22986;149:6957">
<path id="vector_51" data-node-id="I1432:22986;149:6958" d="M81.7,153.617c0,0 -1.586,10.34 7.562,11.935c9.452,1.65 12.005,-8.243 12.005,-8.243l8.151,2.266c0,0 2.21,66.875 7.327,74.827c0,0 -38.782,11.917 -77.712,-8.235l35.818,-76.959z" fill="white"/>
</g>
</mask><mask id="mask3_1432_22978" style="mask-type:luminance" maskUnits="userSpaceOnUse" x="39" y="149" width="78" height="89" xmlns="http://www.w3.org/2000/svg">
<g id="SVGID_00000155853510008029307610000012987496748626437795__4" data-node-id="I1432:22986;149:6961">
<path id="vector_53" data-node-id="I1432:22986;149:6962" d="M81.7,153.617c0,0 -1.586,10.34 7.562,11.935c9.452,1.65 12.005,-8.243 12.005,-8.243l8.151,2.266c0,0 2.21,66.875 7.327,74.827c0,0 -38.782,11.917 -77.712,-8.235l35.818,-76.959z" fill="white"/>
</g>
</mask><mask id="mask4_1432_22978" style="mask-type:luminance" maskUnits="userSpaceOnUse" x="39" y="149" width="78" height="89" xmlns="http://www.w3.org/2000/svg">
<g id="SVGID_00000155853510008029307610000012987496748626437795__5" data-node-id="I1432:22986;149:6965">
<path id="vector_55" data-node-id="I1432:22986;149:6966" d="M81.7,153.617c0,0 -1.586,10.34 7.562,11.935c9.452,1.65 12.005,-8.243 12.005,-8.243l8.151,2.266c0,0 2.21,66.875 7.327,74.827c0,0 -38.782,11.917 -77.712,-8.235l35.818,-76.959z" fill="white"/>
</g>
</mask><mask id="mask5_1432_22978" style="mask-type:luminance" maskUnits="userSpaceOnUse" x="39" y="149" width="78" height="89" xmlns="http://www.w3.org/2000/svg">
<g id="SVGID_00000155853510008029307610000012987496748626437795__6" data-node-id="I1432:22986;149:6969">
<path id="vector_57" data-node-id="I1432:22986;149:6970" d="M81.7,153.617c0,0 -1.586,10.34 7.562,11.935c9.452,1.65 12.005,-8.243 12.005,-8.243l8.151,2.266c0,0 2.21,66.875 7.327,74.827c0,0 -38.782,11.917 -77.712,-8.235l35.818,-76.959z" fill="white"/>
</g>
</mask><mask id="mask6_1432_22978" style="mask-type:luminance" maskUnits="userSpaceOnUse" x="39" y="149" width="78" height="89" xmlns="http://www.w3.org/2000/svg">
<g id="SVGID_00000155853510008029307610000012987496748626437795__7" data-node-id="I1432:22986;149:6973">
<path id="vector_59" data-node-id="I1432:22986;149:6974" d="M81.7,153.617c0,0 -1.586,10.34 7.562,11.935c9.452,1.65 12.005,-8.243 12.005,-8.243l8.151,2.266c0,0 2.21,66.875 7.327,74.827c0,0 -38.782,11.917 -77.712,-8.235l35.818,-76.959z" fill="white"/>
</g>
</mask></defs><g id="last waving" xmlns="http://www.w3.org/2000/svg">
<g id="group">
<path id="vector" d="M104.76,225.061l3.716,18.525c0,0 18.993,12.215 21.905,20.47c0,0 -1.273,7.716 -10.142,14.208l0.01,-6.188c0,0 -30.522,-13.127 -33.949,-20.43c-3.426,-7.302 -1.831,-15.631 -1.831,-15.631z" fill="#B44A24" stroke="#B44A24" stroke-width="0.9183" stroke-miterlimit="10"/>
<path id="vector_2" d="M104.151,264.385c3.953,-4.956 7.834,-9.97 12.212,-14.587c0.145,-0.153 0.201,-0.314 0.197,-0.462c5.55,4.263 12.194,10.109 13.819,14.72c0,0 -1.272,7.715 -10.141,14.207l0.009,-6.188c0,0 -7.888,-3.395 -16.096,-7.69z" fill="white" stroke="white" stroke-width="0.9183" stroke-miterlimit="10"/>
<path id="vector_3" d="M114.637,269.544c0.242,-0.276 0.477,-0.557 0.719,-0.833c3.366,-3.851 6.898,-7.581 10.352,-11.356c2.201,2.313 3.941,4.632 4.671,6.702c0,0 -1.272,7.716 -10.141,14.207l0.009,-6.187c0,0 -2.26,-0.976 -5.61,-2.533z" fill="black" stroke="black" stroke-width="0.9183" stroke-miterlimit="10"/>
<path id="vector_4" opacity="0.49" d="M87.052,253.314c1.108,1.451 4.255,0.802 7.029,-1.449c2.772,-2.249 4.121,-5.251 3.012,-6.702c-1.108,-1.451 -4.255,-0.802 -7.028,1.448c-2.774,2.251 -4.123,5.253 -3.013,6.703z" fill="#8B2A0C" stroke="#8B2A0C" stroke-width="0.4443" stroke-miterlimit="10"/>
</g>
<path id="vector_5" opacity="0.39" d="M77.656,300c29.072,0 52.64,-4.857 52.64,-10.848c0,-5.992 -23.568,-10.849 -52.64,-10.849c-29.073,0 -52.64,4.857 -52.64,10.849c0,5.991 23.567,10.848 52.64,10.848z" fill="#7A5FFF"/>
<g id="group_2">
<g id="group_3">
<g id="group_4">
<g id="group_5">
<path id="vector_6" d="M178.455,110.224c0,0 10.272,-4.956 10.541,-17.516c0.269,-12.561 -14.036,-12.855 -14.036,-12.855c7.189,-5.973 5.167,-16.07 5.167,-16.07c-0.067,-18.5243 -14.517,-19.1518 -14.517,-19.1518c0,0 5.465,-6.6032 2.824,-15.1696c-5.131,-16.6516 -21.688,-12.1666 -21.688,-12.1666c-1.848,-8.6224 -8.577,-15.3807 -17.07,-16.6717c-0.128,-0.0201 -0.256,-0.0388 -0.385,-0.056c-8.669,-1.2221 -17.121,3.5328 -21.113,11.5534l-0.561,1.1273c-0.329,-1.0612 -0.887,-2.1484 -1.559,-3.1982c-3.467,-5.4298 -9.199,-8.8808 -15.458,-9.7827c-14.873,-2.1441 -21.76,9.3232 -21.76,9.3232c-6.158,-7.3945 -20.094,-4.4964 -20.094,-4.4964c-30.626,7.5854 -22.622,38.8336 -22.622,38.8336c0,0 -14.358,-9.0116 -23.563,12.181c-9.205,21.1925 9.365,35.5765 9.365,35.5765c-2.794,1.158 -5.346,6.748 -5.346,6.748c-6.493,21.293 20.171,27.029 20.171,27.029c-9.133,21.223 17.037,20.295 17.037,20.295c2.861,11.383 11.816,2.121 11.816,2.121c-0.295,14.246 10.19,7.54 10.19,7.54c2.685,8.389 9.746,-0.661 9.746,-0.661l1.476,-0.297c0.277,3.551 3.194,6.418 6.898,6.55c3.271,0.118 6.078,-1.94 7.063,-4.844c1.924,3.118 5.567,5.296 9.828,5.45c6.345,0.227 11.657,-4.112 12.009,-9.735c1.177,1.62 3.055,2.721 5.232,2.8c2.955,0.106 5.508,-1.687 6.51,-4.258c5.143,10.555 13.793,1.934 13.793,1.934c8.192,5.581 11.374,-3.557 11.374,-3.557c0,0 7.438,5.749 15.227,-4.929c4.366,-5.985 -0.167,-15.766 -0.167,-15.766c0,0 9.133,6.755 15.569,-1.257c7.114,-8.861 -1.897,-16.624 -1.897,-16.624z" fill="#1A0000" stroke="#8B2A0C" stroke-width="1.84423" stroke-miterlimit="10" stroke-linecap="round"/>
<g id="group_6">
<g id="group_7">
<path id="vector_7" d="M10.752,25.745c2.05,-0.4768 4.605,-0.5601 4.821,2.1456c0.072,0.9018 -0.089,1.8453 -0.39,2.6955c-0.216,0.6089 -0.627,1.3571 -1.337,1.472c-0.865,0.1408 -1.206,-0.7597 -0.942,-1.439c0.732,-1.897 3.717,-2.1196 5.07,-0.8358c1.276,1.2107 0.888,3.507 -0.714,4.2093c0.211,0.2742 0.422,0.5485 0.635,0.8214c1.03,-1.1187 2.807,-0.6936 3.537,0.5472c0.369,0.6275 0.49,1.3757 0.442,2.0938c-0.046,0.6979 -0.421,1.3887 -0.3,2.0938c0.183,1.0656 1.526,1.6573 2.223,2.3581c1.077,1.0799 1.867,2.3825 2.373,3.8157c0.223,0.6305 1.235,0.359 1.011,-0.2786c-0.565,-1.6041 -1.437,-3.0689 -2.642,-4.2781c-0.709,-0.7109 -1.95,-1.2782 -1.848,-2.3883c0.075,-0.8171 0.305,-1.4921 0.187,-2.3394c-0.181,-1.2996 -0.919,-2.5246 -2.161,-3.0488c-1.22,-0.5156 -2.653,-0.303 -3.562,0.6836c-0.423,0.4595 0.103,1.0541 0.635,0.8214c1.873,-0.82 2.517,-3.326 1.543,-5.0651c-1.103,-1.9689 -3.861,-2.3739 -5.742,-1.3586c-0.951,0.5127 -1.821,1.4462 -1.838,2.5807c-0.014,0.9866 0.614,1.9244 1.638,2.0536c2.626,0.3332 3.407,-3.4394 3.22,-5.3552c-0.122,-1.2451 -0.69,-2.4069 -1.846,-2.9899c-1.325,-0.6678 -2.914,-0.3476 -4.286,-0.0273c-0.662,0.1565 -0.384,1.1661 0.273,1.0124z" fill="#1A0000"/>
</g>
</g>
<g id="group_8">
<g id="group_9">
<path id="vector_8" d="M185.789,33.6722c-2.062,-1.4663 -4.819,-2.5031 -6.509,0.0589c-1.068,1.6199 -1.865,5.0436 0.084,6.3274c0.854,0.5615 1.912,0.4064 2.557,-0.3935c0.704,-0.876 0.584,-2.0823 0.073,-3.0215c-1.027,-1.8899 -3.556,-2.9254 -5.565,-2.0192c-2.173,0.978 -2.796,4.0312 -1.162,5.7516c0.345,0.3633 1.062,-0.01 0.875,-0.5084c-1.041,-2.7889 -4.642,-2.4816 -6.101,-0.2427c-0.429,0.6563 -0.665,1.3902 -0.79,2.1585c-0.209,1.2939 -1.402,1.2738 -2.427,1.6774c-1.644,0.6476 -3.077,1.6773 -4.252,2.9885c-0.448,0.5012 0.291,1.2436 0.741,0.7396c1.053,-1.1733 2.32,-2.1283 3.789,-2.72c0.976,-0.3921 2.428,-0.4021 2.953,-1.462c0.233,-0.471 0.194,-1.0584 0.322,-1.5581c0.181,-0.708 0.534,-1.3945 1.074,-1.8971c1.08,-1.001 3.104,-0.9536 3.68,0.5917c0.292,-0.1695 0.584,-0.339 0.876,-0.5084c-1.225,-1.2896 -0.565,-3.5989 1.099,-4.1575c1.691,-0.5673 4.27,0.7338 4.27,2.6984c0,1.0455 -1.198,1.5826 -1.831,0.6089c-0.266,-0.4107 -0.286,-0.9478 -0.28,-1.4189c0.011,-0.909 0.264,-1.9301 0.693,-2.7329c1.257,-2.3595 3.585,-1.2767 5.301,-0.0574c0.552,0.3921 1.075,-0.5156 0.53,-0.9033z" fill="#1A0000"/>
</g>
</g>
</g>
<path id="vector_9" d="M136.88,112.787c0,0 21.133,-57.9308 -42.503,-59.9341c-54.293,-1.709 -45.151,56.4141 -45.151,56.4141l1.697,-0.139c0,0 0.17,-48.6466 46.252,-44.0539c42.966,4.2829 37.079,48.7939 37.079,48.7939z" fill="#FFD44D" stroke="#FFD44D" stroke-width="0.427281" stroke-miterlimit="10"/>
</g>
<g id="group_10">
<path id="vector_10" d="M145.212,113.468c-3.449,-2.208 -8.056,-1.577 -11.875,1.185c0.315,-1.808 0.533,-3.654 0.62,-5.538c0.028,-0.592 0.009,-1.172 0.013,-1.759c-0.608,-0.02 -1.216,-0.039 -1.823,-0.079c-6,-0.401 -11.853,-1.94 -17.135,-4.841c-4.391,-2.412 -8.278,-5.672 -11.409,-9.579c-2.945,-3.677 -5.009,-8.424 -6.372,-15.154c-4.296,6.477 -10.754,12.359 -16.325,16.14c-8.583,5.825 -18.635,10.23 -29.067,11.093c-0.007,0.119 -0.02,0.237 -0.026,0.357c-0.059,1.267 -0.053,2.521 -0.006,3.763c-2.19,-1.509 -4.725,-2.154 -7.219,-1.61c-5.652,1.234 -8.949,8.096 -7.367,15.326c1.583,7.23 7.448,12.091 13.099,10.857c2.947,-0.643 5.245,-2.825 6.554,-5.783c6.667,12.457 19.246,21.141 34.029,21.829c14.899,0.693 28.328,-6.904 36.101,-18.846c0.616,2.167 1.862,4.011 3.722,5.2c4.869,3.118 12.061,0.596 16.061,-5.635c4,-6.229 3.294,-13.807 -1.575,-16.926z" fill="#CD5428" stroke="#CD5428" stroke-width="1.73164" stroke-miterlimit="10"/>
<path id="vector_11" d="M85.182,145.892l-0.93,10.077l-5.708,-3.062c0,0 -5.468,13.998 7.567,18.163c13.035,4.164 18.16,-11.966 18.16,-11.966l-8.139,-2.539l0.605,-9.913z" fill="#CD5428" stroke="#CD5428" stroke-width="1.69852" stroke-miterlimit="10"/>
<g id="group_11">
<g id="group_12">
<g id="group_13">
<path id="vector_12" d="M53.164,115.328c-1.541,-1.869 -3.404,-3.588 -5.543,-4.302c-2.116,-0.751 -4.463,0.358 -5.674,2.135c-1.218,1.826 -1.26,4.312 -0.958,6.639c0.334,2.356 0.971,4.71 1.8,7.012c-1.272,-2.097 -2.251,-4.394 -2.785,-6.84c-0.513,-2.398 -0.642,-5.189 0.852,-7.534c0.755,-1.149 1.876,-1.985 3.132,-2.477c1.278,-0.491 2.765,-0.445 3.989,0.065c2.474,1.036 4.077,3.143 5.187,5.302z" fill="#8B2A0C"/>
</g>
<g id="group_14">
<path id="vector_13" d="M57.061,129.582c-0.815,-1.766 -1.136,-3.712 -1.362,-5.629c-0.093,-0.965 -0.142,-1.933 -0.152,-2.9c-0.008,-0.968 0.041,-1.934 0.123,-2.898c0.082,1.932 0.146,3.855 0.357,5.765c0.086,0.956 0.219,1.907 0.38,2.855c0.174,0.942 0.353,1.89 0.654,2.807z" fill="#8B2A0C"/>
</g>
<path id="vector_14" d="M54.965,137.734l-2.922,-3.209l-2.01,3.525l-0.207,-5.037l-3.021,-1.278l3.427,-0.719l1.084,-3.829l1.644,3.599l3.633,0.126l-2.527,1.975z" fill="white" stroke="white" stroke-width="0.439192" stroke-miterlimit="10" stroke-linecap="round"/>
</g>
<g id="group_15">
<g id="group_16">
<path id="vector_15" d="M77.806,92.82c-1.424,-0.308 -2.787,-0.368 -4.09,-0.357c-1.306,0.045 -2.571,0.21 -3.811,0.535c-1.241,0.329 -2.454,0.8 -3.682,1.348c-0.617,0.269 -1.209,0.609 -1.853,0.891c-0.64,0.298 -1.229,0.68 -1.935,0.959l-0.026,0.01c-0.033,0.013 -0.069,-0.003 -0.081,-0.036c-0.011,-0.026 -0.003,-0.053 0.017,-0.07l1.595,-1.409c0.582,-0.407 1.129,-0.866 1.741,-1.228c1.205,-0.757 2.517,-1.344 3.892,-1.741c2.767,-0.675 5.81,-0.441 8.306,0.986c0.03,0.017 0.04,0.056 0.023,0.086c-0.014,0.024 -0.042,0.036 -0.067,0.03z" fill="#2E2E2E"/>
</g>
<g id="group_17">
<path id="vector_16" d="M109.346,94.985c1.12,-1.011 2.595,-1.614 4.121,-1.794c1.532,-0.216 3.111,0.002 4.585,0.477c1.445,0.553 2.787,1.334 3.889,2.364c0.57,0.487 1.025,1.094 1.504,1.652c0.391,0.644 0.808,1.245 1.117,1.92l0.007,0.014c0.015,0.033 0,0.072 -0.031,0.086c-0.026,0.012 -0.055,0.006 -0.074,-0.013l-1.491,-1.498c-0.551,-0.438 -1.061,-0.929 -1.642,-1.324c-1.141,-0.823 -2.392,-1.482 -3.71,-1.956c-2.628,-0.914 -5.641,-0.97 -8.209,0.19c-0.033,0.014 -0.072,0 -0.086,-0.033c-0.012,-0.027 -0.005,-0.058 0.015,-0.076z" fill="#2E2E2E"/>
</g>
<path id="vector_17" opacity="0.49" d="M81.589,129.819c-1.131,6.217 -7.096,10.342 -13.321,9.211c-6.226,-1.128 -10.356,-7.085 -9.224,-13.302c1.13,-6.217 7.095,-10.342 13.321,-9.211c6.225,1.13 10.354,7.085 9.224,13.302z" fill="#8B2A0C" stroke="#8B2A0C" stroke-width="1.92407" stroke-miterlimit="10"/>
<path id="vector_18" opacity="0.49" d="M123.67,133.062c-1.13,6.217 -7.096,10.341 -13.321,9.213c-6.226,-1.129 -10.356,-7.086 -9.224,-13.303c1.13,-6.217 7.096,-10.341 13.321,-9.213c6.224,1.131 10.354,7.086 9.224,13.303z" fill="#8B2A0C" stroke="#8B2A0C" stroke-width="1.92407" stroke-miterlimit="10"/>
<g id="group_18">
<g id="group_19">
<g id="group_20">
<path id="vector_19" d="M85.945,120.648c0.344,-1.475 1.119,-2.88 2.281,-3.97c1.145,-1.095 2.798,-1.801 4.444,-1.738c0.809,0.02 1.643,0.175 2.414,0.518c0.751,0.382 1.425,0.921 1.896,1.591c0.96,1.335 1.268,2.952 1.124,4.452c-0.379,-1.452 -0.965,-2.83 -1.897,-3.823c-0.923,-1.003 -2.194,-1.472 -3.559,-1.466c-1.352,-0.07 -2.658,0.422 -3.789,1.227c-1.132,0.821 -2.09,1.948 -2.914,3.209z" fill="#8B2A0C"/>
</g>
</g>
<g id="group_21" opacity="0.53">
<g id="group_22">
<path id="vector_20" d="M98.151,121.97c0,0 0.018,-5.336 -4.502,-6.064c-5.264,-0.847 -7.617,4.751 -7.617,4.751" fill="#8B2A0C"/>
<path id="vector_21" d="M98.151,121.969c-0.323,-1.465 -0.855,-2.865 -1.748,-3.893c-0.886,-1.038 -2.139,-1.554 -3.502,-1.598c-1.349,-0.121 -2.671,0.323 -3.833,1.082c-1.162,0.779 -2.163,1.869 -3.036,3.097c0.397,-1.461 1.226,-2.838 2.428,-3.883c1.186,-1.052 2.866,-1.694 4.507,-1.567c0.808,0.053 1.637,0.235 2.393,0.611c0.736,0.41 1.388,0.974 1.834,1.662c0.908,1.369 1.156,2.996 0.957,4.489z" fill="#8B2A0C"/>
</g>
</g>
</g>
<g id="group_23">
<g id="group_24">
<path id="vector_22" d="M81.189,117.182c-0.111,-1.547 -0.201,-3.011 -0.545,-4.444c-0.273,-1.424 -0.682,-2.806 -1.34,-4.002c-1.29,-2.42 -3.492,-3.879 -6.164,-4.153c-2.6,-0.415 -5.045,0.643 -6.858,2.72c-1.899,2.004 -3.141,4.765 -4.146,7.525l-0.154,0.421l-0.327,-0.15c-0.907,-0.418 -1.797,-0.882 -2.692,-1.332l0.055,-0.143l2.795,1.064l-0.112,0.064c0.614,-2.947 1.704,-5.852 3.591,-8.248c0.938,-1.19 2.142,-2.2 3.542,-2.828c1.405,-0.619 2.986,-0.802 4.497,-0.59c1.51,0.19 3,0.717 4.24,1.619c1.254,0.89 2.176,2.175 2.793,3.558c1.197,2.808 1.314,5.954 0.973,8.907z" fill="black"/>
</g>
<g id="group_25">
<path id="vector_23" d="M62.317,112.903l-3.305,-2.366l3.992,0.775z" fill="black"/>
</g>
<g id="group_26">
<path id="vector_24" d="M63.611,110.054l-3.211,-2.863l4.146,1.156z" fill="black"/>
</g>
</g>
<g id="group_27">
<g id="group_28">
<path id="vector_25" d="M101.608,117.515c-0.091,-1.508 0.122,-3.062 0.443,-4.593c0.392,-1.515 1.005,-3.007 1.923,-4.389c0.908,-1.383 2.265,-2.573 3.881,-3.27c1.618,-0.706 3.405,-0.857 5.074,-0.677c1.695,0.173 3.412,0.837 4.8,1.927c1.371,1.111 2.35,2.582 2.97,4.097c1.144,3.089 1.341,6.261 0.821,9.325l-0.399,-0.38c0.999,-0.056 2.002,-0.064 3.005,-0.086l0.018,0.151l-2.969,0.372l-0.097,0.012l0.003,-0.101c0.095,-2.976 -0.285,-6.043 -1.534,-8.759c-0.62,-1.353 -1.53,-2.579 -2.702,-3.484c-1.178,-0.902 -2.615,-1.42 -4.09,-1.578c-1.47,-0.188 -2.995,-0.052 -4.372,0.491c-1.388,0.53 -2.569,1.512 -3.493,2.673c-1.828,2.381 -2.72,5.335 -3.137,8.313z" fill="black"/>
</g>
<g id="group_29">
<path id="vector_26" d="M121.218,116.26l4.062,0.212l-3.78,1.498z" fill="black"/>
</g>
<g id="group_30">
<path id="vector_27" d="M120.63,113.01l4.303,-0.121l-3.81,2.002z" fill="black"/>
</g>
</g>
<g id="group_31">
<path id="vector_28" opacity="0.49" d="M97.457,126.862c0.009,2.03 -2.425,5.952 -6.333,5.969c-3.908,0.017 -6.092,-4.31 -5.878,-6.333c0,0 2.068,-0.519 5.975,-0.536c3.908,-0.017 6.236,0.9 6.236,0.9z" fill="#8B2A0C"/>
<g id="group_32">
<path id="vector_29" d="M84.635,121.335c0.037,1.021 0.139,2.028 0.418,2.97c0.233,0.945 0.618,1.834 1.188,2.537c1.09,1.441 2.888,2.108 4.774,2.077c1.879,0.128 3.698,-0.425 5.12,-1.646c0.72,-0.597 1.337,-1.351 1.845,-2.19c0.549,-0.821 0.961,-1.745 1.314,-2.704l0.005,-0.012c0.008,-0.024 0.036,-0.036 0.059,-0.027c0.021,0.009 0.033,0.03 0.03,0.052c-0.38,2.007 -1.277,3.953 -2.748,5.404c-1.471,1.475 -3.603,2.131 -5.652,2.056c-2.029,-0.017 -4.215,-0.827 -5.351,-2.602c-1.148,-1.74 -1.353,-3.918 -1.095,-5.931c0.003,-0.026 0.026,-0.043 0.052,-0.04c0.023,0.003 0.039,0.021 0.041,0.044z" fill="#3B130E"/>
</g>
</g>
<g id="group_33">
<g id="group_34">
<path id="vector_30" d="M97.267,75.578c-0.519,1.875 -1.56,3.566 -2.424,5.295c-0.737,1.472 -1.18,3.08 -0.518,4.677c0.602,1.455 2.243,2.641 3.861,2.071c1.251,-0.441 1.878,-2.128 1.071,-3.234c-0.977,-1.343 -3.191,-0.625 -4.287,0.155c-1.458,1.038 -2.208,2.825 -1.932,4.595c0.238,1.531 1.383,3.24 3.13,3.022c1.313,-0.164 2.478,-1.922 1.171,-2.914c-1.488,-1.13 -3.486,0.43 -4.04,1.821c-0.822,2.065 0.458,4.163 2.009,5.473c0.484,0.409 1.188,-0.287 0.701,-0.699c-1.126,-0.951 -2.249,-2.384 -1.929,-3.963c0.143,-0.7 0.596,-1.384 1.227,-1.739c0.278,-0.156 0.869,-0.377 1.199,-0.211c0.788,0.398 0.2,1.082 -0.349,1.235c-2.011,0.566 -2.389,-2.783 -1.998,-3.968c0.456,-1.38 2.198,-2.944 3.768,-2.486c0.89,0.26 0.905,1.416 0.121,1.896c-0.67,0.409 -1.631,0.045 -2.153,-0.447c-1.103,-1.035 -1.094,-2.755 -0.545,-4.058c0.893,-2.118 2.252,-4.021 2.872,-6.257c0.171,-0.616 -0.784,-0.877 -0.955,-0.264z" fill="#1A0000"/>
</g>
</g>
</g>
<g id="group_35">
<g id="group_36">
<g id="group_37">
<path id="vector_31" d="M132.763,119.479c1.472,-1.93 3.421,-3.725 6.035,-4.315c1.295,-0.289 2.767,-0.073 3.939,0.633c1.149,0.705 2.109,1.725 2.649,2.987c1.062,2.569 0.445,5.295 -0.481,7.567c-0.955,2.314 -2.322,4.406 -3.941,6.249c1.218,-2.123 2.259,-4.327 3,-6.589c0.705,-2.239 1.1,-4.693 0.222,-6.704c-0.882,-1.96 -2.997,-3.461 -5.212,-3.092c-2.231,0.327 -4.365,1.693 -6.211,3.264z" fill="#8B2A0C"/>
</g>
<g id="group_38">
<path id="vector_32" d="M126.43,132.834c0.457,-0.852 0.8,-1.752 1.135,-2.651c0.325,-0.904 0.622,-1.817 0.874,-2.745c0.544,-1.844 0.942,-3.725 1.362,-5.612c-0.088,0.962 -0.209,1.923 -0.386,2.875c-0.179,0.951 -0.396,1.896 -0.658,2.829c-0.558,1.847 -1.215,3.707 -2.327,5.304z" fill="#8B2A0C"/>
</g>
</g>
<path id="vector_33" d="M136.098,140.811l-2.922,-3.21l-2.011,3.526l-0.206,-5.038l-3.022,-1.276l3.428,-0.72l1.084,-3.83l1.644,3.6l3.633,0.127l-2.527,1.973z" fill="white" stroke="white" stroke-width="0.439192" stroke-miterlimit="10" stroke-linecap="round"/>
</g>
</g>
</g>
<g id="group_39">
<g id="group_40">
<path id="vector_34" d="M52.218,227.588c0,0 3.402,44.885 11.254,56.46l-2.869,7.752l17.631,-0.182l-2.127,-9.098l2.81,-52.971z" fill="#B44A24" stroke="#B44A24" stroke-width="1.70894" stroke-miterlimit="10"/>
<path id="vector_35" d="M77.013,265.46c-6.526,0.167 -13.048,0.52 -19.577,0.617c1.608,7.632 3.608,14.394 6.036,17.971l-2.869,7.752l17.631,-0.182l-2.127,-9.098z" fill="white" stroke="white" stroke-width="1.70894" stroke-miterlimit="10"/>
<path id="vector_36" d="M76.301,278.885c-2.347,-0.208 -4.767,0.169 -7.062,0.533c-2.54,0.4 -5.085,0.87 -7.655,1.022c0.6,1.403 1.227,2.633 1.89,3.609l-2.87,7.752l17.632,-0.182l-2.127,-9.098z" fill="black" stroke="black" stroke-width="1.70894" stroke-miterlimit="10"/>
<path id="vector_37" opacity="0.49" d="M72.101,256.837c-0.085,2.082 -3.023,3.654 -6.561,3.509c-3.537,-0.145 -6.337,-1.95 -6.251,-4.034c0.085,-2.082 3.023,-3.654 6.56,-3.509c3.538,0.145 6.337,1.951 6.252,4.034z" fill="#8B2A0C" stroke="#8B2A0C" stroke-width="0.826834" stroke-miterlimit="10"/>
</g>
<g id="group_41">
<g id="group_42">
<g id="group_43">
<path id="vector_38" d="M142.53,199.029c1.412,0.53 2.777,1.228 4.087,1.968c2.604,1.472 5.125,3.287 6.989,5.654c0.299,0.379 0.69,0.775 0.755,1.276c0.058,0.451 -0.135,0.705 -0.638,0.728c0,0 0.258,1.698 -0.862,1.412c0,0 0.173,1.327 -1.227,0.77c-1.093,-0.437 -4.689,-2.581 -6.206,-3.496c-0.228,-0.136 -0.498,0.088 -0.409,0.338c0.413,1.144 1.179,3.273 0.932,3.484c-1.002,0.85 -6.992,-3.988 -8.007,-5.38c0,0 -27.675,-20.639 -30.649,-32.37l2.442,-13.838z" fill="#CD5428" stroke="#CD5428" stroke-width="0.34819" stroke-miterlimit="10"/>
</g>
<g id="group_44">
<path id="vector_39" d="M149.851,205.531c0.749,0.465 1.406,1.042 2.112,1.561c0.646,0.591 1.341,1.123 1.943,1.767c-0.749,-0.465 -1.406,-1.042 -2.112,-1.561c-0.646,-0.591 -1.341,-1.123 -1.943,-1.767z" fill="#280707"/>
</g>
<g id="group_45">
<path id="vector_40" d="M148.665,206.945c0.828,0.49 1.57,1.094 2.359,1.639c0.729,0.619 1.505,1.177 2.194,1.851c-0.83,-0.49 -1.57,-1.095 -2.358,-1.639c-0.73,-0.619 -1.506,-1.178 -2.195,-1.851z" fill="#280707"/>
</g>
</g>
<g id="group_46">
<g id="group_47">
<path id="vector_41" d="M121.899,174.213c-5.679,-6.832 -12.168,-14.639 -12.168,-14.639l-2.441,13.838c0.844,3.329 3.678,7.374 7.302,11.462c3.204,-2.917 5.485,-6.762 7.307,-10.661z" fill="white" stroke="white" stroke-width="0.34819" stroke-miterlimit="10"/>
</g>
</g>
</g>
<g id="group_48">
<path id="vector_42" d="M71.561,170.931l-47.237,-60.697c-0.334,-0.425 0.257,-0.925 0.686,-0.582l5.543,4.507l-5.061,-8.337c-0.179,-0.309 0.273,-0.58 0.51,-0.305l7.081,7.748l-4.472,-9.224c-0.162,-0.453 0.501,-0.735 0.78,-0.33l5.904,8.397c0,0 -3.168,-8.908 -2.844,-8.769c0.325,0.139 4.794,8.374 4.794,8.374l0.808,-4.247c0.012,-0.307 0.436,-0.423 0.637,-0.172l3.558,8.226l37.796,39.841z" fill="#B44A24" stroke="#B44A24" stroke-width="1.36298" stroke-miterlimit="10"/>
<path id="vector_43" d="M59.906,135.069c-4.229,2.649 -7.934,6.166 -9.771,10.697l16.175,20.106l8.205,-15.896z" fill="white" stroke="white" stroke-width="1.36298" stroke-miterlimit="10"/>
<g id="group_49">
<path id="vector_44" d="M20.328,114.061c0.893,-1.034 1.946,-1.886 2.915,-2.834c1.073,-0.828 2.063,-1.753 3.209,-2.497l0.017,0.02l-6.123,5.331z" fill="#8B2A0C"/>
</g>
<g id="group_50">
<path id="vector_45" d="M29.362,110.61c-0.315,0.26 -0.594,0.552 -0.846,0.856c-0.241,0.313 -0.425,0.669 -0.494,1.043c-0.101,0.364 -0.089,0.766 0.054,1.131c0.128,0.371 0.351,0.705 0.574,1.049c-0.299,-0.275 -0.588,-0.589 -0.738,-0.987c-0.181,-0.379 -0.234,-0.83 -0.148,-1.252c0.246,-0.827 0.862,-1.488 1.598,-1.84z" fill="#8B2A0C"/>
</g>
<g id="group_51">
<path id="vector_46" d="M40.463,132.749c0.603,-0.865 1.376,-1.558 2.058,-2.342c0.795,-0.671 1.499,-1.434 2.373,-2.025l0.019,0.018l-4.431,4.368z" fill="#8B2A0C"/>
</g>
</g>
<g id="group_52">
<g id="Clip path group">
<mask id="mask0_1432_22978" style="mask-type:luminance" maskUnits="userSpaceOnUse" x="459" y="183" width="78" height="89">
<g id="SVGID_00000155853510008029307610000012987496748626437795_">
<path id="vector_47" d="M501.7 187.617C501.7 187.617 500.114 197.957 509.262 199.552C518.714 201.202 521.267 191.309 521.267 191.309L529.418 193.575C529.418 193.575 531.628 260.45 536.745 268.402C536.745 268.402 497.963 280.319 459.033 260.167L494.851 183.208L501.7 187.617Z" fill="white"/>
</g>
</mask>
<g mask="url(#mask0_1432_22978)">
<path id="vector_48" d="M81.7,153.617c0,0 -1.586,10.34 7.562,11.935c9.452,1.65 12.005,-8.243 12.005,-8.243l8.151,2.266c0,0 2.21,66.875 7.327,74.827c0,0 -38.782,11.917 -77.712,-8.235l35.818,-76.959z" fill="#7A5FFF" stroke="#7A5FFF" stroke-width="1.70894" stroke-miterlimit="10"/>
</g>
</g>
<g id="Clip path group_2">
<mask id="mask1_1432_22978" style="mask-type:luminance" maskUnits="userSpaceOnUse" x="459" y="183" width="78" height="89">
<g id="SVGID_00000155853510008029307610000012987496748626437795__2">
<path id="vector_49" d="M501.7 187.617C501.7 187.617 500.114 197.957 509.262 199.552C518.714 201.202 521.267 191.309 521.267 191.309L529.418 193.575C529.418 193.575 531.628 260.45 536.745 268.402C536.745 268.402 497.963 280.319 459.033 260.167L494.851 183.208L501.7 187.617Z" fill="white"/>
</g>
</mask>
<g mask="url(#mask1_1432_22978)">
<path id="vector_50" d="M70.257,186.601l1.544,-12.626c0.013,-0.111 -0.053,-0.23 -0.148,-0.264l-8.991,-3.328c-0.182,-0.067 -0.205,-0.372 -0.031,-0.41l10.521,-2.348c0.049,-0.011 0.088,-0.049 0.106,-0.102l3.142,-9.048c0.062,-0.178 0.292,-0.119 0.337,0.085l2.052,9.517c0.023,0.103 0.102,0.184 0.189,0.189l9.389,0.634c0.177,0.011 0.267,0.296 0.126,0.398l-7.495,5.444c-0.066,0.049 -0.088,0.152 -0.05,0.248l3.798,9.947c0.076,0.199 -0.097,0.359 -0.248,0.227l-7.804,-6.807c-0.078,-0.069 -0.178,-0.062 -0.232,0.014l-5.889,8.444c-0.108,0.155 -0.342,-0.001 -0.316,-0.214z" fill="#FFD44D"/>
</g>
</g>
<g id="Clip path group_3">
<mask id="mask2_1432_22978" style="mask-type:luminance" maskUnits="userSpaceOnUse" x="459" y="183" width="78" height="89">
<g id="SVGID_00000155853510008029307610000012987496748626437795__3">
<path id="vector_51" d="M501.7 187.617C501.7 187.617 500.114 197.957 509.262 199.552C518.714 201.202 521.267 191.309 521.267 191.309L529.418 193.575C529.418 193.575 531.628 260.45 536.745 268.402C536.745 268.402 497.963 280.319 459.033 260.167L494.851 183.208L501.7 187.617Z" fill="white"/>
</g>
</mask>
<g mask="url(#mask2_1432_22978)">
<path id="vector_52" d="M89.86,222.254l6.548,-10.882c0.057,-0.096 0.046,-0.231 -0.028,-0.303l-6.825,-6.781c-0.138,-0.138 -0.036,-0.425 0.14,-0.388l10.529,2.239c0.049,0.01 0.1,-0.007 0.14,-0.049l6.542,-6.949c0.128,-0.136 0.313,0.013 0.27,0.217l-2.007,9.54c-0.022,0.103 0.018,0.211 0.095,0.253l8.284,4.489c0.157,0.085 0.123,0.381 -0.047,0.417l-9.036,1.846c-0.08,0.016 -0.142,0.102 -0.148,0.206l-0.594,10.66c-0.011,0.214 -0.233,0.287 -0.317,0.103l-4.329,-9.462c-0.043,-0.095 -0.137,-0.131 -0.216,-0.083l-8.795,5.256c-0.164,0.096 -0.315,-0.147 -0.206,-0.329z" fill="#FFD44D"/>
</g>
</g>
<g id="Clip path group_4">
<mask id="mask3_1432_22978" style="mask-type:luminance" maskUnits="userSpaceOnUse" x="459" y="183" width="78" height="89">
<g id="SVGID_00000155853510008029307610000012987496748626437795__4">
<path id="vector_53" d="M501.7 187.617C501.7 187.617 500.114 197.957 509.262 199.552C518.714 201.202 521.267 191.309 521.267 191.309L529.418 193.575C529.418 193.575 531.628 260.45 536.745 268.402C536.745 268.402 497.963 280.319 459.033 260.167L494.851 183.208L501.7 187.617Z" fill="white"/>
</g>
</mask>
<g mask="url(#mask3_1432_22978)">
<path id="vector_54" d="M48.491,227.905l-0.486,-12.707c-0.004,-0.112 -0.089,-0.217 -0.188,-0.237l-9.408,-1.816c-0.192,-0.038 -0.262,-0.334 -0.097,-0.401l10.017,-4.031c0.047,-0.019 0.079,-0.062 0.089,-0.118l1.661,-9.435c0.033,-0.185 0.269,-0.165 0.345,0.029l3.543,9.051c0.039,0.099 0.131,0.166 0.218,0.157l9.372,-0.905c0.176,-0.017 0.31,0.249 0.188,0.372l-6.535,6.59c-0.057,0.059 -0.062,0.164 -0.01,0.253l5.336,9.191c0.107,0.185 -0.038,0.369 -0.209,0.264l-8.791,-5.442c-0.088,-0.055 -0.186,-0.032 -0.226,0.051l-4.469,9.289c-0.084,0.174 -0.341,0.057 -0.35,-0.155z" fill="#FFD44D"/>
</g>
</g>
<g id="Clip path group_5">
<mask id="mask4_1432_22978" style="mask-type:luminance" maskUnits="userSpaceOnUse" x="459" y="183" width="78" height="89">
<g id="SVGID_00000155853510008029307610000012987496748626437795__5">
<path id="vector_55" d="M501.7 187.617C501.7 187.617 500.114 197.957 509.262 199.552C518.714 201.202 521.267 191.309 521.267 191.309L529.418 193.575C529.418 193.575 531.628 260.45 536.745 268.402C536.745 268.402 497.963 280.319 459.033 260.167L494.851 183.208L501.7 187.617Z" fill="white"/>
</g>
</mask>
<g mask="url(#mask4_1432_22978)">
<path id="vector_56" d="M97.481,175.626l2.379,-3.952c0.021,-0.034 0.015,-0.083 -0.01,-0.11l-2.48,-2.463c-0.05,-0.05 -0.013,-0.154 0.051,-0.141l3.825,0.813c0.017,0.004 0.036,-0.003 0.05,-0.017l2.378,-2.525c0.047,-0.05 0.113,0.004 0.097,0.079l-0.729,3.465c-0.008,0.038 0.007,0.076 0.035,0.092l3.01,1.63c0.056,0.03 0.044,0.138 -0.018,0.151l-3.283,0.671c-0.029,0.005 -0.052,0.037 -0.053,0.074l-0.216,3.872c-0.004,0.078 -0.085,0.105 -0.115,0.037l-1.572,-3.438c-0.015,-0.034 -0.05,-0.047 -0.077,-0.03l-3.196,1.909c-0.062,0.037 -0.116,-0.05 -0.076,-0.117z" fill="#FFD44D"/>
</g>
</g>
<g id="Clip path group_6">
<mask id="mask5_1432_22978" style="mask-type:luminance" maskUnits="userSpaceOnUse" x="459" y="183" width="78" height="89">
<g id="SVGID_00000155853510008029307610000012987496748626437795__6">
<path id="vector_57" d="M501.7 187.617C501.7 187.617 500.114 197.957 509.262 199.552C518.714 201.202 521.267 191.309 521.267 191.309L529.418 193.575C529.418 193.575 531.628 260.45 536.745 268.402C536.745 268.402 497.963 280.319 459.033 260.167L494.851 183.208L501.7 187.617Z" fill="white"/>
</g>
</mask>
<g mask="url(#mask5_1432_22978)">
<path id="vector_58" d="M74.826,205.582l1.15,-4.475c0.011,-0.039 -0.008,-0.085 -0.04,-0.102l-3.08,-1.631c-0.062,-0.033 -0.056,-0.144 0.008,-0.15l3.898,-0.338c0.018,-0.002 0.034,-0.013 0.043,-0.032l1.557,-3.108c0.03,-0.06 0.111,-0.028 0.117,0.048l0.29,3.527c0.003,0.038 0.029,0.071 0.059,0.077l3.35,0.681c0.063,0.013 0.082,0.119 0.027,0.149l-2.954,1.6c-0.026,0.014 -0.039,0.05 -0.03,0.088l0.899,3.767c0.018,0.076 -0.052,0.125 -0.1,0.07l-2.488,-2.829c-0.024,-0.029 -0.061,-0.032 -0.083,-0.006l-2.517,2.759c-0.048,0.047 -0.125,-0.02 -0.106,-0.095z" fill="#FFD44D"/>
</g>
</g>
<g id="Clip path group_7">
<mask id="mask6_1432_22978" style="mask-type:luminance" maskUnits="userSpaceOnUse" x="459" y="183" width="78" height="89">
<g id="SVGID_00000155853510008029307610000012987496748626437795__7">
<path id="vector_59" d="M501.7 187.617C501.7 187.617 500.114 197.957 509.262 199.552C518.714 201.202 521.267 191.309 521.267 191.309L529.418 193.575C529.418 193.575 531.628 260.45 536.745 268.402C536.745 268.402 497.963 280.319 459.033 260.167L494.851 183.208L501.7 187.617Z" fill="white"/>
</g>
</mask>
<g mask="url(#mask6_1432_22978)">
<path id="vector_60" d="M72.826,240.287l2.379,-3.952c0.021,-0.035 0.017,-0.083 -0.01,-0.111l-2.479,-2.463c-0.051,-0.05 -0.013,-0.155 0.05,-0.14l3.825,0.812c0.019,0.005 0.036,-0.002 0.051,-0.017l2.377,-2.524c0.047,-0.051 0.113,0.004 0.099,0.079l-0.729,3.465c-0.009,0.037 0.007,0.076 0.034,0.092l3.01,1.63c0.056,0.03 0.045,0.138 -0.017,0.151l-3.283,0.67c-0.029,0.006 -0.052,0.037 -0.053,0.075l-0.216,3.872c-0.004,0.077 -0.085,0.104 -0.115,0.037l-1.572,-3.438c-0.016,-0.035 -0.05,-0.048 -0.079,-0.03l-3.196,1.908c-0.061,0.039 -0.116,-0.049 -0.076,-0.116z" fill="#FFD44D"/>
</g>
</g>
</g>
</g>
</g>
</g>
</g></svg>