<svg viewBox="0 0 412 321.208" fill="none" xmlns="http://www.w3.org/2000/svg" id="39f47d25" x="0" y="0"><g id="simbi streak" data-node-id="1432:23675"><path id="Vector" data-node-id="1432:23676" opacity="0.39" d="M206,320.708c113.495,0 205.5,-12.984 205.5,-29c0,-16.016 -92.005,-29 -205.5,-29c-113.495,0 -205.5,12.984 -205.5,29c0,16.016 92.005,29 205.5,29z" fill="#00FF00"/><g id="Group 1321314402" data-node-id="1432:23763">
<g id="simbi alert 2" data-node-id="1432:23764">
<g id="Group 1321314401" data-node-id="I1432:23764;921:14015">
<path id="Vector_37" data-node-id="I1432:23764;921:14016" d="M289.825,110.386c0,0 10.208,-4.931 10.475,-17.429c0.267,-12.498 -13.947,-12.791 -13.947,-12.791c7.143,-5.943 5.134,-15.991 5.134,-15.991c-0.067,-18.432 -14.426,-19.057 -14.426,-19.057c0,0 5.431,-6.57 2.807,-15.094c-5.099,-16.569 -21.551,-12.107 -21.551,-12.107c-1.836,-8.579 -8.522,-15.304 -16.962,-16.589c-0.127,-0.02 -0.254,-0.038 -0.383,-0.056c-8.614,-1.216 -17.012,3.516 -20.979,11.497l-0.557,1.121c-0.327,-1.056 -0.882,-2.137 -1.549,-3.182c-3.446,-5.403 -9.142,-8.837 -15.361,-9.734c-14.778,-2.134 -21.622,9.277 -21.622,9.277c-6.119,-7.358 -19.967,-4.474 -19.967,-4.474c-30.432,7.548 -22.478,38.641 -22.478,38.641c0,0 -14.267,-8.967 -23.414,12.121c-9.147,21.088 9.305,35.4 9.305,35.4c-2.776,1.152 -5.311,6.715 -5.311,6.715c-6.452,21.188 20.043,26.895 20.043,26.895c-9.076,21.118 16.929,20.195 16.929,20.195c2.842,11.326 11.741,2.111 11.741,2.111c-0.293,14.175 10.126,7.502 10.126,7.502c2.668,8.348 9.684,-0.658 9.684,-0.658l1.466,-0.295c0.276,3.534 3.174,6.386 6.855,6.517c3.25,0.117 6.039,-1.93 7.018,-4.82c1.912,3.103 5.532,5.27 9.766,5.423c6.304,0.226 11.583,-4.091 11.933,-9.687c1.169,1.612 3.035,2.708 5.199,2.787c2.936,0.105 5.473,-1.679 6.469,-4.237c5.11,10.503 13.705,1.925 13.705,1.925c8.14,5.553 11.302,-3.54 11.302,-3.54c0,0 7.391,5.72 15.131,-4.904c4.338,-5.956 -0.166,-15.689 -0.166,-15.689c0,0 9.075,6.722 15.47,-1.251c7.069,-8.817 -1.885,-16.542 -1.885,-16.542z" fill="#1A0000" stroke="#1A0000" stroke-width="1.41613" stroke-miterlimit="10" stroke-linecap="round"/>
<path id="Vector_38" data-node-id="I1432:23764;921:14017" d="M248.511,112.937c0,0 20.999,-57.644 -42.234,-59.638c-53.949,-1.7 -44.865,56.136 -44.865,56.136l1.687,-0.139c0,0 0.168,-48.406 45.959,-43.836c42.694,4.261 36.844,48.553 36.844,48.553z" fill="#FFD44D" stroke="#FFD44D" stroke-width="0.328097" stroke-miterlimit="10"/>
<g id="Group_39" data-node-id="I1432:23764;921:14018">
<path id="Vector_39" data-node-id="I1432:23764;921:14019" d="M256.791,113.616c-3.427,-2.197 -8.005,-1.57 -11.799,1.178c0.313,-1.799 0.529,-3.635 0.616,-5.51c0.027,-0.588 0.008,-1.166 0.013,-1.75c-0.605,-0.02 -1.209,-0.039 -1.812,-0.079c-5.962,-0.399 -11.778,-1.93 -17.027,-4.817c-4.363,-2.399 -8.225,-5.643 -11.336,-9.531c-2.927,-3.659 -4.977,-8.383 -6.332,-15.079c-4.268,6.445 -10.686,12.298 -16.222,16.06c-8.528,5.796 -18.517,10.179 -28.883,11.038c-0.007,0.118 -0.02,0.236 -0.026,0.356c-0.058,1.26 -0.052,2.508 -0.005,3.744c-2.177,-1.502 -4.696,-2.144 -7.174,-1.602c-5.616,1.227 -8.892,8.055 -7.321,15.25c1.574,7.194 7.401,12.031 13.017,10.803c2.928,-0.64 5.212,-2.811 6.512,-5.754c6.625,12.395 19.124,21.036 33.814,21.72c14.805,0.691 28.149,-6.869 35.873,-18.752c0.611,2.156 1.85,3.991 3.698,5.174c4.838,3.102 11.985,0.593 15.959,-5.607c3.975,-6.198 3.274,-13.739 -1.565,-16.842z" fill="#CD5428" stroke="#CD5428" stroke-width="1.32968" stroke-miterlimit="10"/>
<path id="Vector_40" data-node-id="I1432:23764;921:14020" d="M256.791,113.616c-3.427,-2.197 -8.005,-1.57 -11.799,1.178c0.313,-1.799 0.529,-3.635 0.616,-5.51c0.027,-0.588 0.008,-1.166 0.013,-1.75c-0.605,-0.02 -1.209,-0.039 -1.812,-0.079c-5.962,-0.399 -11.778,-1.93 -17.027,-4.817c-4.363,-2.399 -8.225,-5.643 -11.336,-9.531c-2.927,-3.659 -4.977,-8.383 -6.332,-15.079c-4.268,6.445 -10.686,12.298 -16.222,16.06c-8.528,5.796 -18.517,10.179 -28.883,11.038c-0.007,0.118 -0.02,0.236 -0.026,0.356c-0.058,1.26 -0.052,2.508 -0.005,3.744c-2.177,-1.502 -4.696,-2.144 -7.174,-1.602c-5.616,1.227 -8.892,8.055 -7.321,15.25c1.574,7.194 7.401,12.031 13.017,10.803c2.928,-0.64 5.212,-2.811 6.512,-5.754c6.625,12.395 19.124,21.036 33.814,21.72c14.805,0.691 28.149,-6.869 35.873,-18.752c0.611,2.156 1.85,3.991 3.698,5.174c4.838,3.102 11.985,0.593 15.959,-5.607c3.975,-6.198 3.274,-13.739 -1.565,-16.842z" fill="#CD5428" stroke="#CD5428" stroke-width="1.32968" stroke-miterlimit="10"/>
<path id="Vector_41" data-node-id="I1432:23764;921:14021" d="M197.143,145.88l-0.925,10.027l-5.839,-0.152c0,0 -5.266,11.034 7.687,15.178c12.952,4.144 15.892,-13.749 15.892,-13.749l-5.935,-0.684l0.602,-9.864z" fill="#CD5428" stroke="#CD5428" stroke-width="1.30424" stroke-miterlimit="10"/>
<g id="Group_40" data-node-id="I1432:23764;921:14022">
<g id="Group_41" data-node-id="I1432:23764;921:14023">
<g id="Group_42" data-node-id="I1432:23764;921:14024">
<path id="Vector_42" data-node-id="I1432:23764;921:14025" d="M165.325,115.464c-1.531,-1.859 -3.382,-3.569 -5.508,-4.28c-2.102,-0.747 -4.435,0.356 -5.638,2.124c-1.21,1.818 -1.252,4.291 -0.951,6.606c0.331,2.345 0.964,4.687 1.787,6.978c-1.263,-2.086 -2.236,-4.373 -2.766,-6.806c-0.51,-2.387 -0.639,-5.163 0.846,-7.497c0.75,-1.143 1.864,-1.975 3.112,-2.465c1.27,-0.489 2.748,-0.443 3.964,0.064c2.458,1.032 4.051,3.129 5.154,5.276z" fill="#8B2A0C"/>
</g>
<g id="Group_43" data-node-id="I1432:23764;921:14026">
<path id="Vector_43" data-node-id="I1432:23764;921:14027" d="M169.2,129.647c-0.81,-1.757 -1.129,-3.694 -1.353,-5.601c-0.093,-0.961 -0.142,-1.924 -0.152,-2.886c-0.007,-0.963 0.042,-1.924 0.123,-2.883c0.082,1.922 0.144,3.835 0.355,5.736c0.085,0.951 0.217,1.897 0.377,2.841c0.173,0.937 0.351,1.88 0.65,2.793z" fill="#8B2A0C"/>
</g>
<path id="Vector_44" data-node-id="I1432:23764;921:14028" d="M167.116,137.759l-2.904,-3.192l-1.996,3.507l-0.206,-5.012l-3.002,-1.271l3.405,-0.716l1.078,-3.81l1.633,3.581l3.61,0.126l-2.511,1.965z" fill="white" stroke="white" stroke-width="0.337243" stroke-miterlimit="10" stroke-linecap="round"/>
</g>
<g id="Group_44" data-node-id="I1432:23764;921:14029">
<g id="Group_45" data-node-id="I1432:23764;921:14030">
<path id="Vector_45" data-node-id="I1432:23764;921:14031" d="M194.911,103.357c-0.867,-1.159 -1.849,-2.094 -2.834,-2.935c-1.008,-0.818 -2.064,-1.52 -3.205,-2.084c-1.146,-0.563 -2.362,-1 -3.641,-1.389c-0.638,-0.201 -1.304,-0.332 -1.971,-0.541c-0.675,-0.193 -1.365,-0.29 -2.077,-0.541l-0.026,-0.01c-0.033,-0.012 -0.05,-0.047 -0.038,-0.08c0.01,-0.026 0.033,-0.042 0.059,-0.042l2.116,-0.017c0.702,0.075 1.412,0.086 2.107,0.214c1.398,0.218 2.765,0.632 4.054,1.232c2.516,1.298 4.644,3.458 5.584,6.157c0.011,0.032 -0.006,0.068 -0.039,0.08c-0.027,0.008 -0.055,-0.001 -0.07,-0.022z" fill="#2E2E2E"/>
</g>
<g id="Group_46" data-node-id="I1432:23764;921:14032">
<path id="Vector_46" data-node-id="I1432:23764;921:14033" d="M212.546,97.121c0.391,-1.947 1.458,-3.63 2.898,-4.832c1.418,-1.251 3.213,-2.006 5.095,-2.382c1.911,-0.264 3.888,-0.184 5.805,0.352c0.958,0.22 1.887,0.663 2.803,1.028c0.892,0.528 1.777,0.986 2.607,1.604l0.019,0.012c0.039,0.031 0.054,0.087 0.032,0.125c-0.018,0.031 -0.052,0.042 -0.085,0.032l-2.674,-0.851c-0.9,-0.175 -1.799,-0.44 -2.698,-0.543c-1.801,-0.26 -3.591,-0.251 -5.312,0.027c-3.405,0.588 -6.559,2.465 -8.333,5.528c-0.023,0.039 -0.074,0.046 -0.114,0.016c-0.032,-0.026 -0.048,-0.067 -0.041,-0.103z" fill="#2E2E2E"/>
</g>
<path id="Vector_47" data-node-id="I1432:23764;921:14034" opacity="0.49" d="M232.44,130.338c-0.564,3.106 -3.54,5.166 -6.645,4.602c-3.105,-0.564 -5.166,-3.539 -4.601,-6.645c0.564,-3.105 3.539,-5.165 6.645,-4.601c3.104,0.564 5.165,3.539 4.601,6.644z" fill="#8B2A0C" stroke="#8B2A0C" stroke-width="1.47744" stroke-miterlimit="10"/>
<path id="Vector_48" data-node-id="I1432:23764;921:14035" opacity="0.49" d="M186.711,130.338c-0.564,3.106 -3.539,5.166 -6.645,4.602c-3.105,-0.564 -5.165,-3.539 -4.601,-6.645c0.564,-3.105 3.54,-5.165 6.645,-4.601c3.105,0.564 5.165,3.539 4.601,6.644z" fill="#8B2A0C" stroke="#8B2A0C" stroke-width="1.47744" stroke-miterlimit="10"/>
<g id="Group_47" data-node-id="I1432:23764;921:14036">
<g id="Group_48" data-node-id="I1432:23764;921:14037">
<g id="Group_49" data-node-id="I1432:23764;921:14038">
<path id="Vector_49" data-node-id="I1432:23764;921:14039" d="M197.898,120.756c0.341,-1.467 1.111,-2.866 2.266,-3.951c1.138,-1.089 2.781,-1.792 4.416,-1.729c0.804,0.02 1.633,0.174 2.399,0.516c0.746,0.38 1.416,0.916 1.883,1.583c0.955,1.328 1.261,2.937 1.118,4.43c-0.377,-1.445 -0.959,-2.816 -1.885,-3.804c-0.917,-0.999 -2.181,-1.465 -3.537,-1.459c-1.343,-0.07 -2.641,0.42 -3.765,1.22c-1.125,0.818 -2.076,1.94 -2.895,3.194z" fill="#8B2A0C"/>
</g>
</g>
<g id="Group_50" data-node-id="I1432:23764;921:14040" opacity="0.53">
<g id="Group_51" data-node-id="I1432:23764;921:14041">
<path id="Vector_50" data-node-id="I1432:23764;921:14042" d="M210.027,122.074c0,0 0.017,-5.308 -4.475,-6.033c-5.23,-0.843 -7.568,4.727 -7.568,4.727" fill="#8B2A0C"/>
<path id="Vector_51" data-node-id="I1432:23764;921:14043" d="M210.027,122.074c-0.322,-1.458 -0.851,-2.851 -1.738,-3.874c-0.88,-1.033 -2.125,-1.546 -3.48,-1.591c-1.34,-0.12 -2.653,0.322 -3.808,1.078c-1.155,0.774 -2.149,1.859 -3.017,3.081c0.395,-1.454 1.218,-2.824 2.413,-3.864c1.178,-1.046 2.848,-1.685 4.478,-1.559c0.803,0.053 1.626,0.234 2.378,0.608c0.731,0.408 1.379,0.969 1.822,1.654c0.903,1.362 1.149,2.981 0.952,4.467z" fill="#8B2A0C"/>
</g>
</g>
</g>
<g id="Group_52" data-node-id="I1432:23764;921:14044">
<g id="Group_53" data-node-id="I1432:23764;921:14045">
<path id="Vector_52" data-node-id="I1432:23764;921:14046" d="M174.419,113.054l-3.284,-2.355l3.967,0.772z" fill="black"/>
</g>
<g id="Group_54" data-node-id="I1432:23764;921:14047">
<path id="Vector_53" data-node-id="I1432:23764;921:14048" d="M175.705,110.218l-3.191,-2.849l4.12,1.15z" fill="black"/>
</g>
</g>
</g>
<g id="Group_55" data-node-id="I1432:23764;921:14049">
<g id="Group_56" data-node-id="I1432:23764;921:14050">
<g id="Group_57" data-node-id="I1432:23764;921:14051">
<path id="Vector_54" data-node-id="I1432:23764;921:14052" d="M244.421,119.596c1.463,-1.921 3.4,-3.707 5.998,-4.294c1.286,-0.287 2.749,-0.073 3.914,0.63c1.141,0.702 2.095,1.716 2.632,2.972c1.054,2.557 0.441,5.269 -0.479,7.53c-0.949,2.302 -2.306,4.384 -3.915,6.217c1.21,-2.112 2.245,-4.305 2.981,-6.556c0.7,-2.228 1.093,-4.67 0.22,-6.671c-0.876,-1.95 -2.978,-3.443 -5.179,-3.076c-2.216,0.326 -4.337,1.685 -6.172,3.248z" fill="#8B2A0C"/>
</g>
<g id="Group_58" data-node-id="I1432:23764;921:14053">
<path id="Vector_55" data-node-id="I1432:23764;921:14054" d="M238.124,132.884c0.454,-0.847 0.794,-1.743 1.127,-2.638c0.323,-0.899 0.619,-1.807 0.869,-2.731c0.54,-1.834 0.936,-3.706 1.353,-5.584c-0.087,0.957 -0.207,1.913 -0.383,2.861c-0.178,0.946 -0.394,1.886 -0.654,2.815c-0.555,1.838 -1.208,3.688 -2.312,5.277z" fill="#8B2A0C"/>
</g>
</g>
<path id="Vector_56" data-node-id="I1432:23764;921:14055" d="M247.734,140.822l-2.904,-3.194l-1.998,3.509l-0.204,-5.013l-3.004,-1.271l3.407,-0.716l1.077,-3.811l1.634,3.583l3.609,0.125l-2.511,1.964z" fill="white" stroke="white" stroke-width="0.337243" stroke-miterlimit="10" stroke-linecap="round"/>
</g>
<g id="Group_59" data-node-id="I1432:23764;921:14056">
<path id="Vector_57" data-node-id="I1432:23764;921:14057" opacity="0.49" d="M211.513,127.406c0.617,2.058 -0.676,6.769 -4.634,7.956c-3.957,1.186 -7.468,-2.554 -7.857,-4.673c0,0 1.942,-1.145 5.898,-2.331c3.957,-1.187 6.593,-0.952 6.593,-0.952z" fill="#8B2A0C"/>
<g id="Group_60" data-node-id="I1432:23764;921:14058">
<path id="Vector_58" data-node-id="I1432:23764;921:14059" d="M214.443,125.781c-0.25,0.688 -0.67,1.301 -1.086,1.919c-0.466,0.582 -0.977,1.14 -1.536,1.659c-1.134,1.022 -2.485,1.84 -3.924,2.453c-0.357,0.163 -0.745,0.244 -1.116,0.367c-0.373,0.117 -0.746,0.231 -1.132,0.296l-1.144,0.232c-0.385,0.052 -0.773,0.072 -1.159,0.089c-0.77,0.072 -1.537,-0.024 -2.293,-0.046c-0.752,-0.113 -1.493,-0.254 -2.213,-0.439c-0.023,-0.003 -0.038,-0.025 -0.032,-0.046c0.004,-0.019 0.025,-0.031 0.045,-0.033c0.738,0.03 1.474,0.099 2.214,0.097c0.739,-0.05 1.484,-0.013 2.218,-0.149c1.48,-0.138 2.918,-0.572 4.296,-1.099c1.386,-0.529 2.663,-1.299 3.82,-2.192c1.151,-0.899 2.183,-1.955 2.968,-3.146c0.013,-0.019 0.039,-0.025 0.059,-0.014c0.017,0.01 0.024,0.028 0.018,0.046z" fill="#3B130E"/>
</g>
</g>
</g>
</g>
<g id="Group_61" data-node-id="I1432:23764;921:14060">
<path id="Vector_59" data-node-id="I1432:23764;921:14061" d="M233.454,109.312c0.715,5.716 -3.918,10.528 -9.903,11.146c-5.986,0.617 -11.347,-3.486 -11.976,-9.165c1.873,-4.84 3.748,-7.794 9.733,-8.411c6.43,0 9.288,2.143 12.146,6.43z" fill="white"/>
<path id="Vector_60" data-node-id="I1432:23764;921:14062" d="M229.654,108.371c1.016,4.281 -1.488,8.53 -5.592,9.493c-4.104,0.962 -8.255,-1.728 -9.273,-6.009c-1.016,-4.28 1.698,-7.296 5.802,-8.258c4.106,-0.963 8.047,0.493 9.063,4.774z" fill="#280707" stroke="#280707" stroke-width="1.2185" stroke-miterlimit="10"/>
<g id="Group_62" data-node-id="I1432:23764;921:14063">
<g id="Group_63" data-node-id="I1432:23764;921:14064">
<path id="Vector_61" data-node-id="I1432:23764;921:14065" d="M211.217,112.059c0.519,-1.186 1.113,-2.327 1.845,-3.356c0.707,-1.041 1.492,-2.007 2.407,-2.807c0.933,-0.779 1.94,-1.406 3.01,-1.883c1.091,-0.436 2.254,-0.663 3.437,-0.689c2.402,-0.099 4.839,0.344 6.792,1.676c2.015,1.24 3.48,3.375 4.354,5.693l0.146,0.386l0.29,-0.123c0.706,-0.298 1.406,-0.614 2.099,-0.956l-0.034,-0.111l-2.186,0.68l0.084,0.051c0.707,-2.021 -2.042,-4.897 -4.174,-6.429c-2.138,-1.52 -4.827,-2.155 -7.425,-2c-1.306,0.063 -2.601,0.351 -3.801,0.873c-1.185,0.551 -2.281,1.293 -3.204,2.219c-1.819,1.875 -3.081,4.238 -3.755,6.754z" fill="black"/>
</g>
<g id="Group_64" data-node-id="I1432:23764;921:14066">
<path id="Vector_62" data-node-id="I1432:23764;921:14067" d="M232.181,108.152l1.988,-1.697l-2.545,0.596z" fill="black"/>
</g>
<g id="Group_65" data-node-id="I1432:23764;921:14068">
<path id="Vector_63" data-node-id="I1432:23764;921:14069" d="M231.098,106.936l1.642,-1.91l-2.352,0.901z" fill="black"/>
</g>
</g>
<g id="Group_66" data-node-id="I1432:23764;921:14070">
<path id="Vector_64" data-node-id="I1432:23764;921:14071" d="M214.95,118.218c1.389,0.984 2.986,1.686 4.663,2.11c1.676,0.429 3.458,0.535 5.2,0.249c0.877,-0.13 1.709,-0.437 2.536,-0.749c0.767,-0.436 1.582,-0.8 2.224,-1.41c0.717,-0.512 1.26,-1.202 1.814,-1.858c0.522,-0.685 0.922,-1.453 1.334,-2.186c-1.141,1.264 -2.257,2.505 -3.646,3.371c-1.336,0.916 -2.85,1.544 -4.444,1.777c-1.583,0.28 -3.225,0.235 -4.851,-0.008c-1.622,-0.273 -3.25,-0.681 -4.83,-1.296z" fill="black"/>
</g>
</g>
<g id="Group_67" data-node-id="I1432:23764;921:14072">
<path id="Vector_65" data-node-id="I1432:23764;921:14073" d="M171.805,109.312c-0.715,5.716 3.918,10.528 9.903,11.146c5.986,0.617 11.347,-3.486 11.976,-9.165c-1.874,-4.84 -3.748,-7.794 -9.733,-8.411c-6.431,0 -9.288,2.143 -12.146,6.43z" fill="white"/>
<path id="Vector_66" data-node-id="I1432:23764;921:14074" d="M175.603,108.371c-1.016,4.281 1.487,8.53 5.591,9.493c4.104,0.962 8.256,-1.728 9.273,-6.009c1.016,-4.28 -1.698,-7.296 -5.802,-8.258c-4.106,-0.963 -8.046,0.493 -9.062,4.774z" fill="#280707" stroke="#280707" stroke-width="1.2185" stroke-miterlimit="10"/>
<g id="Group_68" data-node-id="I1432:23764;921:14075">
<g id="Group_69" data-node-id="I1432:23764;921:14076">
<path id="Vector_67" data-node-id="I1432:23764;921:14077" d="M194.043,112.059c-0.518,-1.186 -1.113,-2.327 -1.844,-3.356c-0.708,-1.041 -1.492,-2.007 -2.407,-2.807c-0.933,-0.779 -1.94,-1.406 -3.011,-1.883c-1.09,-0.436 -2.253,-0.663 -3.436,-0.689c-2.403,-0.099 -4.839,0.344 -6.792,1.676c-2.015,1.241 -3.48,3.375 -4.355,5.693l-0.145,0.386l-0.29,-0.123c-0.706,-0.298 -1.407,-0.614 -2.1,-0.956l0.035,-0.111l2.186,0.68l-0.084,0.051c-0.708,-2.021 2.042,-4.897 4.174,-6.429c2.138,-1.52 4.827,-2.155 7.425,-2c1.306,0.063 2.601,0.351 3.801,0.873c1.185,0.551 2.281,1.293 3.204,2.219c1.819,1.875 3.081,4.239 3.755,6.754z" fill="black"/>
</g>
<g id="Group_70" data-node-id="I1432:23764;921:14078">
<path id="Vector_68" data-node-id="I1432:23764;921:14079" d="M173.079,108.152l-1.988,-1.697l2.545,0.596z" fill="black"/>
</g>
<g id="Group_71" data-node-id="I1432:23764;921:14080">
<path id="Vector_69" data-node-id="I1432:23764;921:14081" d="M174.163,106.936l-1.642,-1.91l2.352,0.901z" fill="black"/>
</g>
</g>
<g id="Group_72" data-node-id="I1432:23764;921:14082">
<path id="Vector_70" data-node-id="I1432:23764;921:14083" d="M190.308,118.218c-1.389,0.984 -2.987,1.686 -4.663,2.11c-1.676,0.429 -3.458,0.535 -5.2,0.249c-0.877,-0.13 -1.709,-0.437 -2.537,-0.749c-0.767,-0.436 -1.581,-0.8 -2.223,-1.41c-0.717,-0.512 -1.26,-1.202 -1.815,-1.858c-0.521,-0.684 -0.922,-1.453 -1.333,-2.186c1.14,1.264 2.256,2.505 3.645,3.371c1.336,0.916 2.851,1.544 4.444,1.777c1.584,0.28 3.226,0.235 4.852,-0.008c1.622,-0.273 3.249,-0.68 4.83,-1.296z" fill="black"/>
</g>
</g>
</g>
<g id="Group_73" data-node-id="I1432:23764;921:14084">
<g id="Group_74" data-node-id="I1432:23764;921:14085">
<g id="Group_75" data-node-id="I1432:23764;921:14086">
<path id="Vector_71" data-node-id="I1432:23764;921:14087" d="M170.916,234.088c0,0 -3.015,10.883 0.206,22.475c3.221,11.591 6.865,28.577 6.865,28.577l-3.474,8.787c0,0 14.729,3.901 19.056,0.156l-0.77,-11.821c0,0 -0.472,-41.302 0.718,-46.546z" fill="#CD5428" stroke="#CD5428" stroke-width="1.30424" stroke-miterlimit="10"/>
<path id="Vector_72" data-node-id="I1432:23764;921:14088" d="M192.723,271.329c-5.862,0.58 -11.755,0.877 -17.637,0.954c1.668,7.098 2.904,12.857 2.904,12.857l-3.474,8.787c0,0 14.729,3.901 19.056,0.156l-0.771,-11.821c0,0 -0.053,-4.608 -0.078,-10.933z" fill="white" stroke="white" stroke-width="1.30424" stroke-miterlimit="10"/>
<path id="Vector_73" data-node-id="I1432:23764;921:14089" d="M177.613,283.421c0.238,1.092 0.374,1.719 0.374,1.719l-3.474,8.787c0,0 14.729,3.901 19.056,0.156l-0.708,-10.858c-5.078,-0.116 -10.171,0.113 -15.248,0.196z" fill="black" stroke="black" stroke-width="1.30424" stroke-miterlimit="10"/>
<path id="Vector_74" data-node-id="I1432:23764;921:14090" opacity="0.49" d="M183.864,252.389c0.063,2.074 -2.738,3.84 -6.256,3.946c-3.517,0.106 -6.419,-1.489 -6.48,-3.563c-0.063,-2.073 2.738,-3.839 6.256,-3.945c3.517,-0.106 6.418,1.489 6.48,3.562z" fill="#8B2A0C" stroke="#8B2A0C" stroke-width="0.634903" stroke-miterlimit="10"/>
</g>
<g id="Group_76" data-node-id="I1432:23764;921:14091">
<path id="Vector_75" data-node-id="I1432:23764;921:14092" d="M233.651,275.376c1.684,-0.176 3.364,-0.383 5.045,-0.591c-0.609,-9.414 -2.667,-29.164 -9.522,-42.831l-25.92,7.22c0,0 13.114,13.058 18.557,37.293c3.936,-0.473 7.898,-0.68 11.84,-1.091z" fill="#CD5428" stroke="#CD5428" stroke-width="1.30424" stroke-miterlimit="10"/>
<path id="Vector_76" data-node-id="I1432:23764;921:14093" d="M231.13,261.592c-4.295,0.881 -8.559,1.943 -12.666,3.485c1.269,3.469 2.42,7.265 3.348,11.392c3.937,-0.473 7.898,-0.68 11.84,-1.092c1.684,-0.176 3.364,-0.383 5.045,-0.59c-0.229,-3.533 -0.662,-8.521 -1.475,-14.097c-2.065,0.143 -4.053,0.483 -6.092,0.902z" fill="white" stroke="white" stroke-width="1.30424" stroke-miterlimit="10"/>
<path id="Vector_77" data-node-id="I1432:23764;921:14094" d="M238.776,276.097c-1.645,0.203 -3.288,0.406 -4.936,0.578c-3.913,0.407 -7.844,0.616 -11.751,1.082c0.215,1.02 0.419,2.052 0.603,3.109l-2.242,12.867c0,0 14.672,3.028 19.623,-1.871l-1.129,-11.686c0,0 -0.024,-1.523 -0.168,-4.079z" fill="#CD5428" stroke="#CD5428" stroke-width="1.30424" stroke-miterlimit="10"/>
<path id="Vector_78" data-node-id="I1432:23764;921:14095" d="M238.776,276.097c-1.645,0.203 -3.288,0.406 -4.936,0.578c-3.913,0.407 -7.844,0.616 -11.751,1.082c0.215,1.02 0.419,2.052 0.603,3.109l-2.242,12.867c0,0 14.672,3.028 19.623,-1.871l-1.129,-11.686c0,0 -0.024,-1.523 -0.168,-4.079z" fill="black" stroke="black" stroke-width="1.30424" stroke-miterlimit="10"/>
<path id="Vector_79" data-node-id="I1432:23764;921:14096" opacity="0.49" d="M229.608,245.318c0.823,1.905 -1.129,4.58 -4.359,5.976c-3.229,1.397 -6.514,0.985 -7.337,-0.92c-0.824,-1.903 1.127,-4.58 4.358,-5.974c3.229,-1.398 6.515,-0.985 7.338,0.918z" fill="#8B2A0C" stroke="#8B2A0C" stroke-width="0.634903" stroke-miterlimit="10"/>
</g>
</g>
<g id="Group_77" data-node-id="I1432:23764;921:14097">
<g id="Group_78" data-node-id="I1432:23764;921:14098">
<path id="Vector_80" data-node-id="I1432:23764;921:14099" d="M186.598,159.863c-0.066,-0.796 -1.013,-1.182 -1.616,-0.657c-4.497,3.902 -17.8,16.36 -14.823,24.808c0,0 1.073,4.532 7.029,5.939c0,0 11.434,-5.371 9.41,-30.09z" fill="#B44A24" stroke="#B44A24" stroke-width="1.31225" stroke-miterlimit="10"/>
<path id="Vector_81" data-node-id="I1432:23764;921:14100" d="M182.088,175.636c1.222,0.268 2.447,0.395 3.665,0.409c1.032,-4.524 1.477,-10.413 0.672,-18.055c0,0 -7.851,6.294 -12.785,13.485c2.501,1.954 5.323,3.477 8.448,4.161z" fill="white" stroke="white" stroke-width="1.31225" stroke-miterlimit="10"/>
</g>
<g id="Group_79" data-node-id="I1432:23764;921:14101">
<g id="Clip path group_5" data-node-id="I1432:23764;921:14102">
<mask id="mask4_1432_23675" style="mask-type:luminance" maskUnits="userSpaceOnUse" x="163.5" y="154.708" width="71" height="88">
<g id="SVGID_00000111901591052776841740000013044974684061978257_" data-node-id="I1432:23764;921:14103">
<path id="Vector_82" data-node-id="I1432:23764;921:14104" d="M220.397,159.087l-5.938,-2.506c0,0 -2.851,5.914 -11.254,5.538c-8.402,-0.374 -9.423,-7.029 -9.423,-7.029c-4.144,-0.47 -7.912,2.522 -7.912,2.522c-1.295,2.378 -6.135,25.882 -6.135,25.882c-7.53,10.952 -15.791,53.878 -15.791,53.878c37.898,13.517 70.532,-5.926 70.532,-5.926c-11.026,-12.255 -11.911,-49.842 -11.911,-49.842z" fill="white"/>
</g>
</mask>
<g mask="url(#mask4_1432_23675)">
<path id="Vector_83" data-node-id="I1432:23764;921:14105" d="M220.398,159.087l-5.939,-2.507c0,0 -2.851,5.915 -11.253,5.539c-8.403,-0.374 -9.423,-7.029 -9.423,-7.029c-4.144,-0.47 -7.913,2.522 -7.913,2.522c-1.294,2.378 -6.134,25.882 -6.134,25.882c-7.531,10.952 -15.792,53.877 -15.792,53.877c37.898,13.517 70.532,-5.926 70.532,-5.926c-11.026,-12.255 -11.91,-49.842 -11.91,-49.842z" fill="#7A5FFF" stroke="#7A5FFF" stroke-width="1.48144" stroke-miterlimit="10"/>
</g>
</g>
<g id="Clip path group_6" data-node-id="I1432:23764;921:14106">
<mask id="mask5_1432_23675" style="mask-type:luminance" maskUnits="userSpaceOnUse" x="163.5" y="154.708" width="71" height="88">
<g id="SVGID_00000111901591052776841740000013044974684061978257__2" data-node-id="I1432:23764;921:14107">
<path id="Vector_84" data-node-id="I1432:23764;921:14108" d="M220.397,159.087l-5.938,-2.506c0,0 -2.851,5.914 -11.254,5.538c-8.402,-0.374 -9.423,-7.029 -9.423,-7.029c-4.144,-0.47 -7.912,2.522 -7.912,2.522c-1.295,2.378 -6.135,25.882 -6.135,25.882c-7.53,10.952 -15.791,53.878 -15.791,53.878c37.898,13.517 70.532,-5.926 70.532,-5.926c-11.026,-12.255 -11.911,-49.842 -11.911,-49.842z" fill="white"/>
</g>
</mask>
<g mask="url(#mask5_1432_23675)">
<path id="Vector_85" data-node-id="I1432:23764;921:14109" d="M186.59,192.026l-1.067,-12.612c-0.01,-0.112 -0.099,-0.213 -0.199,-0.227l-9.422,-1.412c-0.192,-0.029 -0.276,-0.322 -0.115,-0.395l9.756,-4.427c0.046,-0.02 0.076,-0.064 0.083,-0.121l1.213,-9.45c0.024,-0.186 0.26,-0.176 0.344,0.014l3.934,8.851c0.043,0.098 0.138,0.159 0.223,0.148l9.262,-1.292c0.174,-0.025 0.32,0.234 0.204,0.363l-6.182,6.826c-0.054,0.06 -0.054,0.166 0.002,0.251l5.719,8.916c0.115,0.18 -0.02,0.369 -0.195,0.272l-8.975,-5.045c-0.09,-0.05 -0.186,-0.024 -0.222,0.062l-4.008,9.422c-0.076,0.173 -0.337,0.068 -0.355,-0.144z" fill="#FFD44D"/>
</g>
</g>
<g id="Clip path group_7" data-node-id="I1432:23764;921:14110">
<mask id="mask6_1432_23675" style="mask-type:luminance" maskUnits="userSpaceOnUse" x="163.5" y="154.708" width="71" height="88">
<g id="SVGID_00000111901591052776841740000013044974684061978257__3" data-node-id="I1432:23764;921:14111">
<path id="Vector_86" data-node-id="I1432:23764;921:14112" d="M220.397,159.087l-5.938,-2.506c0,0 -2.851,5.914 -11.254,5.538c-8.402,-0.374 -9.423,-7.029 -9.423,-7.029c-4.144,-0.47 -7.912,2.522 -7.912,2.522c-1.295,2.378 -6.135,25.882 -6.135,25.882c-7.53,10.952 -15.791,53.878 -15.791,53.878c37.898,13.517 70.532,-5.926 70.532,-5.926c-11.026,-12.255 -11.911,-49.842 -11.911,-49.842z" fill="white"/>
</g>
</mask>
<g mask="url(#mask6_1432_23675)">
<path id="Vector_87" data-node-id="I1432:23764;921:14113" d="M210.776,222.86l4.153,-11.93c0.037,-0.105 -0.003,-0.234 -0.088,-0.29l-8.02,-5.216c-0.163,-0.105 -0.121,-0.407 0.056,-0.405l10.697,0.04c0.05,0 0.096,-0.027 0.126,-0.076l4.949,-8.098c0.097,-0.159 0.308,-0.052 0.308,0.156l-0.01,9.7c0,0.105 0.06,0.201 0.143,0.227l8.973,2.688c0.168,0.051 0.196,0.346 0.038,0.414l-8.412,3.637c-0.074,0.031 -0.117,0.129 -0.102,0.23l1.592,10.503c0.032,0.212 -0.168,0.327 -0.287,0.166l-6.136,-8.337c-0.061,-0.084 -0.16,-0.1 -0.227,-0.037l-7.485,6.908c-0.142,0.124 -0.336,-0.08 -0.268,-0.28z" fill="#FFD44D"/>
</g>
</g>
<g id="Clip path group_8" data-node-id="I1432:23764;921:14114">
<mask id="mask7_1432_23675" style="mask-type:luminance" maskUnits="userSpaceOnUse" x="163.5" y="154.708" width="71" height="88">
<g id="SVGID_00000111901591052776841740000013044974684061978257__4" data-node-id="I1432:23764;921:14115">
<path id="Vector_88" data-node-id="I1432:23764;921:14116" d="M220.397,159.087l-5.938,-2.506c0,0 -2.851,5.914 -11.254,5.538c-8.402,-0.374 -9.423,-7.029 -9.423,-7.029c-4.144,-0.47 -7.912,2.522 -7.912,2.522c-1.295,2.378 -6.135,25.882 -6.135,25.882c-7.53,10.952 -15.791,53.878 -15.791,53.878c37.898,13.517 70.532,-5.926 70.532,-5.926c-11.026,-12.255 -11.911,-49.842 -11.911,-49.842z" fill="white"/>
</g>
</mask>
<g mask="url(#mask7_1432_23675)">
<path id="Vector_89" data-node-id="I1432:23764;921:14117" d="M178.401,237.788l-3.06,-12.276c-0.027,-0.109 -0.13,-0.194 -0.231,-0.193l-9.522,0.144c-0.193,0.003 -0.323,-0.271 -0.175,-0.37l8.921,-5.963c0.041,-0.027 0.064,-0.076 0.063,-0.133l-0.306,-9.528c-0.006,-0.188 0.228,-0.216 0.341,-0.042l5.289,8.097c0.057,0.088 0.16,0.134 0.243,0.109l8.933,-2.787c0.168,-0.053 0.353,0.179 0.258,0.324l-5.014,7.748c-0.044,0.069 -0.027,0.173 0.041,0.249l7.061,7.868c0.143,0.159 0.039,0.367 -0.149,0.299l-9.658,-3.514c-0.097,-0.036 -0.187,0.006 -0.21,0.096l-2.455,9.955c-0.044,0.185 -0.319,0.123 -0.37,-0.083z" fill="#FFD44D"/>
</g>
</g>
<g id="Clip path group_9" data-node-id="I1432:23764;921:14118">
<mask id="mask8_1432_23675" style="mask-type:luminance" maskUnits="userSpaceOnUse" x="163.5" y="154.708" width="71" height="88">
<g id="SVGID_00000111901591052776841740000013044974684061978257__5" data-node-id="I1432:23764;921:14119">
<path id="Vector_90" data-node-id="I1432:23764;921:14120" d="M220.397,159.087l-5.938,-2.506c0,0 -2.851,5.914 -11.254,5.538c-8.402,-0.374 -9.423,-7.029 -9.423,-7.029c-4.144,-0.47 -7.912,2.522 -7.912,2.522c-1.295,2.378 -6.135,25.882 -6.135,25.882c-7.53,10.952 -15.791,53.878 -15.791,53.878c37.898,13.517 70.532,-5.926 70.532,-5.926c-11.026,-12.255 -11.911,-49.842 -11.911,-49.842z" fill="white"/>
</g>
</mask>
<g mask="url(#mask8_1432_23675)">
<path id="Vector_91" data-node-id="I1432:23764;921:14121" d="M210.835,175.801l1.509,-4.334c0.013,-0.039 -0.001,-0.085 -0.031,-0.106l-2.914,-1.895c-0.058,-0.038 -0.044,-0.148 0.02,-0.147l3.886,0.014c0.018,0 0.034,-0.01 0.045,-0.027l1.798,-2.942c0.036,-0.057 0.112,-0.019 0.112,0.057l-0.005,3.524c0,0.038 0.023,0.073 0.052,0.083l3.259,0.976c0.062,0.018 0.072,0.126 0.015,0.15l-3.057,1.32c-0.027,0.012 -0.043,0.047 -0.037,0.085l0.579,3.815c0.011,0.077 -0.062,0.119 -0.105,0.06l-2.229,-3.028c-0.023,-0.03 -0.059,-0.036 -0.083,-0.014l-2.719,2.509c-0.049,0.047 -0.12,-0.027 -0.095,-0.1z" fill="#FFD44D"/>
</g>
</g>
<g id="Clip path group_10" data-node-id="I1432:23764;921:14122">
<mask id="mask9_1432_23675" style="mask-type:luminance" maskUnits="userSpaceOnUse" x="163.5" y="154.708" width="71" height="88">
<g id="SVGID_00000111901591052776841740000013044974684061978257__6" data-node-id="I1432:23764;921:14123">
<path id="Vector_92" data-node-id="I1432:23764;921:14124" d="M220.397,159.087l-5.938,-2.506c0,0 -2.851,5.914 -11.254,5.538c-8.402,-0.374 -9.423,-7.029 -9.423,-7.029c-4.144,-0.47 -7.912,2.522 -7.912,2.522c-1.295,2.378 -6.135,25.882 -6.135,25.882c-7.53,10.952 -15.791,53.878 -15.791,53.878c37.898,13.517 70.532,-5.926 70.532,-5.926c-11.026,-12.255 -11.911,-49.842 -11.911,-49.842z" fill="white"/>
</g>
</mask>
<g mask="url(#mask9_1432_23675)">
<path id="Vector_93" data-node-id="I1432:23764;921:14125" d="M191.795,208.613l0.209,-4.593c0.001,-0.04 -0.026,-0.081 -0.06,-0.091l-3.328,-0.963c-0.067,-0.02 -0.085,-0.129 -0.023,-0.147l3.722,-1.124c0.018,-0.005 0.03,-0.02 0.036,-0.04l0.882,-3.343c0.017,-0.066 0.101,-0.052 0.123,0.021l1,3.377c0.011,0.037 0.041,0.064 0.073,0.063l3.397,-0.019c0.064,0 0.104,0.1 0.055,0.14l-2.548,2.159c-0.022,0.019 -0.027,0.057 -0.011,0.092l1.641,3.485c0.032,0.07 -0.025,0.131 -0.083,0.089l-2.997,-2.25c-0.03,-0.022 -0.066,-0.017 -0.083,0.012l-1.886,3.199c-0.033,0.06 -0.122,0.01 -0.119,-0.067z" fill="#FFD44D"/>
</g>
</g>
<g id="Clip path group_11" data-node-id="I1432:23764;921:14126">
<mask id="mask10_1432_23675" style="mask-type:luminance" maskUnits="userSpaceOnUse" x="163.5" y="154.708" width="71" height="88">
<g id="SVGID_00000111901591052776841740000013044974684061978257__7" data-node-id="I1432:23764;921:14127">
<path id="Vector_94" data-node-id="I1432:23764;921:14128" d="M220.397,159.087l-5.938,-2.506c0,0 -2.851,5.914 -11.254,5.538c-8.402,-0.374 -9.423,-7.029 -9.423,-7.029c-4.144,-0.47 -7.912,2.522 -7.912,2.522c-1.295,2.378 -6.135,25.882 -6.135,25.882c-7.53,10.952 -15.791,53.878 -15.791,53.878c37.898,13.517 70.532,-5.926 70.532,-5.926c-11.026,-12.255 -11.911,-49.842 -11.911,-49.842z" fill="white"/>
</g>
</mask>
<g mask="url(#mask10_1432_23675)">
<path id="Vector_95" data-node-id="I1432:23764;921:14129" d="M200.019,243.794l1.509,-4.333c0.013,-0.038 -0.001,-0.086 -0.033,-0.106l-2.912,-1.894c-0.06,-0.039 -0.044,-0.148 0.02,-0.148l3.885,0.015c0.019,0 0.035,-0.01 0.046,-0.027l1.798,-2.943c0.036,-0.057 0.111,-0.018 0.111,0.057l-0.004,3.524c0,0.039 0.023,0.073 0.051,0.083l3.26,0.976c0.061,0.019 0.071,0.126 0.014,0.15l-3.056,1.321c-0.028,0.011 -0.043,0.047 -0.037,0.082l0.578,3.816c0.012,0.077 -0.061,0.119 -0.104,0.06l-2.229,-3.028c-0.023,-0.03 -0.059,-0.036 -0.083,-0.013l-2.72,2.509c-0.048,0.046 -0.12,-0.028 -0.094,-0.101z" fill="#FFD44D"/>
</g>
</g>
</g>
<g id="Group_80" data-node-id="I1432:23764;921:14130">
<path id="Vector_96" data-node-id="I1432:23764;921:14131" d="M208.988,175.951c-2.12,5.27 -3.517,9.748 -3.517,9.748l-26.154,-1.787c-3.523,-5.213 -8.791,-2.882 -8.791,-2.882c-5.131,-2.043 -4.911,2.169 -4.911,2.169c-2.502,13.224 34.02,25.164 49.76,8.346c3.206,-3.425 5.578,-6.826 7.285,-10.07c-4.94,-0.888 -9.671,-2.573 -13.672,-5.524z" fill="#CD5428" stroke="#CD5428" stroke-width="1.30424" stroke-miterlimit="10"/>
<path id="Vector_97" data-node-id="I1432:23764;921:14132" d="M223.275,180.257c5.825,-12.113 2.225,-21.663 -3.021,-21.011c-3.741,0.464 -7.832,8.407 -10.761,15.469c3.992,3.036 8.792,4.693 13.782,5.542z" fill="white" stroke="white" stroke-width="1.30424" stroke-miterlimit="10"/>
<path id="Vector_98" data-node-id="I1432:23764;921:14133" d="M180.524,184.73l22.152,-6.21c0,0 2.738,-7.525 8.784,-4.731c0.579,0.267 1.079,0.684 1.423,1.22c0.673,1.045 1.778,2.978 1.525,4.083c-0.359,1.566 -2.957,-0.336 -2.957,-0.336c0,0 1.582,2.972 -0.817,2.839c0,0 -0.752,4.191 -5.56,2.947l-24.513,0.449c-0.156,0.004 -0.187,-0.218 -0.037,-0.261z" fill="#B44A24" stroke="#B44A24" stroke-width="1.31225" stroke-miterlimit="10"/>
</g>
</g>
</g>
</g>
</g></g><defs><mask id="mask4_1432_23675" style="mask-type:luminance" maskUnits="userSpaceOnUse" x="382" y="325" width="71" height="88">
<g id="SVGID_00000111901591052776841740000013044974684061978257_" data-node-id="I1432:23764;921:14103">
<path id="Vector_82" data-node-id="I1432:23764;921:14104" d="M438.897 329.379L432.959 326.873C432.959 326.873 430.108 332.787 421.705 332.411C413.303 332.037 412.282 325.382 412.282 325.382C408.138 324.912 404.37 327.904 404.37 327.904C403.075 330.282 398.235 353.786 398.235 353.786C390.705 364.738 382.444 407.664 382.444 407.664C420.342 421.181 452.976 401.738 452.976 401.738C441.95 389.483 441.065 351.896 441.065 351.896L438.897 329.379Z" fill="white"/>
</g>
</mask><mask id="mask5_1432_23675" style="mask-type:luminance" maskUnits="userSpaceOnUse" x="382" y="325" width="71" height="88">
<g id="SVGID_00000111901591052776841740000013044974684061978257__2" data-node-id="I1432:23764;921:14107">
<path id="Vector_84" data-node-id="I1432:23764;921:14108" d="M438.897 329.379L432.959 326.873C432.959 326.873 430.108 332.787 421.705 332.411C413.303 332.037 412.282 325.382 412.282 325.382C408.138 324.912 404.37 327.904 404.37 327.904C403.075 330.282 398.235 353.786 398.235 353.786C390.705 364.738 382.444 407.664 382.444 407.664C420.342 421.181 452.976 401.738 452.976 401.738C441.95 389.483 441.065 351.896 441.065 351.896L438.897 329.379Z" fill="white"/>
</g>
</mask><mask id="mask6_1432_23675" style="mask-type:luminance" maskUnits="userSpaceOnUse" x="382" y="325" width="71" height="88">
<g id="SVGID_00000111901591052776841740000013044974684061978257__3" data-node-id="I1432:23764;921:14111">
<path id="Vector_86" data-node-id="I1432:23764;921:14112" d="M438.897 329.379L432.959 326.873C432.959 326.873 430.108 332.787 421.705 332.411C413.303 332.037 412.282 325.382 412.282 325.382C408.138 324.912 404.37 327.904 404.37 327.904C403.075 330.282 398.235 353.786 398.235 353.786C390.705 364.738 382.444 407.664 382.444 407.664C420.342 421.181 452.976 401.738 452.976 401.738C441.95 389.483 441.065 351.896 441.065 351.896L438.897 329.379Z" fill="white"/>
</g>
</mask><mask id="mask7_1432_23675" style="mask-type:luminance" maskUnits="userSpaceOnUse" x="382" y="325" width="71" height="88">
<g id="SVGID_00000111901591052776841740000013044974684061978257__4" data-node-id="I1432:23764;921:14115">
<path id="Vector_88" data-node-id="I1432:23764;921:14116" d="M438.897 329.379L432.959 326.873C432.959 326.873 430.108 332.787 421.705 332.411C413.303 332.037 412.282 325.382 412.282 325.382C408.138 324.912 404.37 327.904 404.37 327.904C403.075 330.282 398.235 353.786 398.235 353.786C390.705 364.738 382.444 407.664 382.444 407.664C420.342 421.181 452.976 401.738 452.976 401.738C441.95 389.483 441.065 351.896 441.065 351.896L438.897 329.379Z" fill="white"/>
</g>
</mask><mask id="mask8_1432_23675" style="mask-type:luminance" maskUnits="userSpaceOnUse" x="382" y="325" width="71" height="88">
<g id="SVGID_00000111901591052776841740000013044974684061978257__5" data-node-id="I1432:23764;921:14119">
<path id="Vector_90" data-node-id="I1432:23764;921:14120" d="M438.897 329.379L432.959 326.873C432.959 326.873 430.108 332.787 421.705 332.411C413.303 332.037 412.282 325.382 412.282 325.382C408.138 324.912 404.37 327.904 404.37 327.904C403.075 330.282 398.235 353.786 398.235 353.786C390.705 364.738 382.444 407.664 382.444 407.664C420.342 421.181 452.976 401.738 452.976 401.738C441.95 389.483 441.065 351.896 441.065 351.896L438.897 329.379Z" fill="white"/>
</g>
</mask><mask id="mask9_1432_23675" style="mask-type:luminance" maskUnits="userSpaceOnUse" x="382" y="325" width="71" height="88">
<g id="SVGID_00000111901591052776841740000013044974684061978257__6" data-node-id="I1432:23764;921:14123">
<path id="Vector_92" data-node-id="I1432:23764;921:14124" d="M438.897 329.379L432.959 326.873C432.959 326.873 430.108 332.787 421.705 332.411C413.303 332.037 412.282 325.382 412.282 325.382C408.138 324.912 404.37 327.904 404.37 327.904C403.075 330.282 398.235 353.786 398.235 353.786C390.705 364.738 382.444 407.664 382.444 407.664C420.342 421.181 452.976 401.738 452.976 401.738C441.95 389.483 441.065 351.896 441.065 351.896L438.897 329.379Z" fill="white"/>
</g>
</mask><mask id="mask10_1432_23675" style="mask-type:luminance" maskUnits="userSpaceOnUse" x="382" y="325" width="71" height="88">
<g id="SVGID_00000111901591052776841740000013044974684061978257__7" data-node-id="I1432:23764;921:14127">
<path id="Vector_94" data-node-id="I1432:23764;921:14128" d="M438.897 329.379L432.959 326.873C432.959 326.873 430.108 332.787 421.705 332.411C413.303 332.037 412.282 325.382 412.282 325.382C408.138 324.912 404.37 327.904 404.37 327.904C403.075 330.282 398.235 353.786 398.235 353.786C390.705 364.738 382.444 407.664 382.444 407.664C420.342 421.181 452.976 401.738 452.976 401.738C441.95 389.483 441.065 351.896 441.065 351.896L438.897 329.379Z" fill="white"/>
</g>
</mask></defs></svg>