<svg width="147" height="222" viewBox="0 0 147 222" fill="none" xmlns="http://www.w3.org/2000/svg">
<path d="M49.2006 60.2877H49.1986C49.1986 60.2731 49.2006 60.2586 49.2006 60.2441C49.2006 58.2619 47.5941 56.6533 45.6099 56.6533C45.3546 56.6533 45.1055 56.6803 44.8668 56.7322C44.1549 55.0012 42.455 53.7808 40.4666 53.7808C38.9743 53.7808 37.6439 54.4698 36.7721 55.545C36.1934 55.2508 35.5534 55.0972 34.9041 55.0967C32.7559 55.0967 30.9917 56.7322 30.7862 58.8265C28.4512 58.951 26.577 60.8647 26.5458 63.2412C26.5126 65.7153 28.4948 67.7493 30.9689 67.7805C31.1619 67.7825 31.3487 67.7701 31.5355 67.7472C32.4923 69.7647 34.5451 71.1595 36.9257 71.1595C38.362 71.1595 39.6779 70.651 40.7074 69.8062C41.4941 70.3894 42.4654 70.7381 43.5198 70.7381C45.6825 70.7381 47.5028 69.2873 48.0694 67.3052C48.4264 67.4235 48.8063 67.4899 49.2027 67.4899C51.1911 67.4899 52.8038 65.8772 52.8038 63.8888C52.8017 61.9004 51.1911 60.2877 49.2006 60.2877Z" fill="#E3EBEE"/>
<path d="M52.376 62.0825C53.1917 62.9065 52.6147 64.7953 52.0543 65.4117C50.9501 66.6218 48.9244 66.3395 48.1107 66.1652C47.8907 66.1174 47.8554 66.134 47.7828 66.1776C47.7185 66.217 47.6894 66.2793 47.6188 66.4267C47.3573 66.9912 46.6807 68.0851 45.2527 68.5251C43.7645 68.9838 42.3614 68.2843 41.7055 67.8671C41.4565 67.7094 41.4461 67.7052 41.334 67.7073C41.2199 67.7094 41.1078 67.7924 40.9729 67.8983C40.3793 68.3653 39.0239 69.1893 36.9338 69.0689C34.8852 68.9506 33.7125 67.6886 33.3099 67.039C33.2331 66.9144 33.1501 66.8107 33.0546 66.8003C32.9446 66.7899 32.8221 66.902 32.7308 66.9933C31.8591 67.8422 29.1152 68.0975 28.2061 66.6508C29.1318 68.1349 30.5618 68.8696 32.0292 68.8883C32.2223 68.8904 32.4091 68.8779 32.5959 68.8551C33.5527 70.8725 35.6054 72.2673 37.9861 72.2673C39.4224 72.2673 40.7383 71.7588 41.7678 70.9141C42.5544 71.4973 43.5258 71.846 44.5802 71.846C46.7429 71.846 48.5632 70.3952 49.1298 68.413C49.4868 68.5313 49.8667 68.5977 50.2631 68.5977C52.2515 68.5977 53.8642 66.985 53.8642 64.9966C53.8601 63.9381 53.3287 62.7425 52.376 62.0825Z" fill="#B9CDD2"/>
<path d="M137.913 85.5107C137.913 85.5107 145.821 81.6905 146.028 72.009C146.235 62.3274 135.224 62.1005 135.224 62.1005C140.757 57.4966 139.201 49.7135 139.201 49.7135C139.149 35.4347 128.026 34.951 128.026 34.951C128.026 34.951 132.233 29.8611 130.2 23.2581C126.25 10.4228 113.506 13.8798 113.506 13.8798C112.083 7.23358 106.904 2.02418 100.366 1.02902C100.268 1.01352 100.169 0.999131 100.07 0.985847C93.3967 0.0438165 86.8911 3.70899 83.8181 9.89141L83.3864 10.7604C83.1329 9.94233 82.7034 9.10436 82.1865 8.29516C79.5176 4.10971 75.1052 1.44967 70.2877 0.754491C58.8394 -0.898214 53.5381 7.94093 53.5381 7.94093C48.7981 2.24115 38.0704 4.47501 38.0704 4.47501C14.4964 10.322 20.6578 34.4086 20.6578 34.4086C20.6578 34.4086 9.60584 27.4623 2.52013 43.7979C-4.56558 60.1334 9.72871 71.2208 9.72871 71.2208C7.57787 72.113 5.6141 76.4224 5.6141 76.4224C0.616141 92.8355 21.1404 97.2567 21.1404 97.2567C14.1101 113.615 34.2547 112.9 34.2547 112.9C36.4565 121.674 43.3496 114.535 43.3496 114.535C43.1226 125.517 51.1935 120.347 51.1935 120.347C53.2603 126.814 58.6955 119.838 58.6955 119.838L59.8312 119.609C60.0449 122.346 62.2898 124.556 65.1413 124.658C67.6586 124.748 69.8194 123.162 70.5777 120.924C72.0588 123.327 74.8628 125.006 78.1427 125.125C83.0266 125.3 87.1158 121.955 87.387 117.62C88.2925 118.869 89.7382 119.718 91.4141 119.779C93.689 119.861 95.6538 118.478 96.4254 116.497C100.384 124.633 107.042 117.988 107.042 117.988C113.348 122.29 115.797 115.246 115.797 115.246C115.797 115.246 121.523 119.677 127.518 111.447C130.879 106.833 127.39 99.2935 127.39 99.2935C127.39 99.2935 134.42 104.501 139.374 98.3249C144.85 91.4949 137.913 85.5107 137.913 85.5107Z" fill="#1A0000" stroke="#1A0000" stroke-width="1.09701" stroke-miterlimit="10" stroke-linecap="round"/>
<path d="M8.82667 20.3921C10.4041 20.0245 12.3712 19.9603 12.5372 22.0459C12.5926 22.741 12.4686 23.4683 12.2372 24.1236C12.0712 24.593 11.7546 25.1697 11.2078 25.2583C10.5425 25.3668 10.2801 24.6727 10.4827 24.1491C11.0461 22.6868 13.3442 22.5152 14.3859 23.5049C15.3677 24.438 15.0689 26.2081 13.8357 26.7494C13.9984 26.9608 14.1611 27.1722 14.325 27.3826C15.1176 26.5202 16.4858 26.8479 17.047 27.8043C17.3315 28.2881 17.4245 28.8648 17.388 29.4183C17.3525 29.9563 17.0636 30.4887 17.1566 31.0322C17.2972 31.8536 18.3311 32.3097 18.868 32.8499C19.6971 33.6823 20.3048 34.6863 20.6945 35.7911C20.8661 36.2771 21.6454 36.0678 21.4727 35.5763C21.0376 34.3399 20.3668 33.2108 19.4392 32.2787C18.8934 31.7307 17.9381 31.2935 18.0167 30.4378C18.0743 29.8079 18.2514 29.2877 18.1606 28.6345C18.0211 27.6327 17.4533 26.6885 16.4969 26.2845C15.5581 25.887 14.4545 26.0509 13.7549 26.8114C13.4294 27.1656 13.8346 27.6239 14.2442 27.4446C15.6854 26.8125 16.1814 24.8808 15.4319 23.5403C14.5829 22.0226 12.4597 21.7105 11.0118 22.4931C10.2801 22.8883 9.6104 23.6078 9.59712 24.4823C9.58605 25.2428 10.0698 25.9656 10.858 26.0653C12.8793 26.3221 13.4804 23.4141 13.3365 21.9374C13.2424 20.9776 12.8051 20.0821 11.9151 19.6327C10.8956 19.1179 9.67239 19.3648 8.61635 19.6116C8.10714 19.7323 8.32078 20.5105 8.82667 20.3921Z" fill="#1A0000"/>
<path d="M143.558 26.5038C141.97 25.3736 139.848 24.5744 138.548 26.5492C137.725 27.7979 137.112 30.4369 138.612 31.4265C139.269 31.8593 140.084 31.7398 140.58 31.1232C141.122 30.4479 141.029 29.5181 140.636 28.7941C139.846 27.3374 137.899 26.5392 136.353 27.2377C134.68 27.9916 134.201 30.345 135.458 31.6711C135.724 31.9512 136.276 31.6634 136.132 31.2793C135.331 29.1295 132.559 29.3664 131.435 31.0922C131.105 31.5981 130.924 32.1637 130.828 32.756C130.667 33.7533 129.748 33.7378 128.959 34.0489C127.694 34.5482 126.591 35.3418 125.687 36.3525C125.342 36.7388 125.91 37.3111 126.257 36.9226C127.067 36.0182 128.043 35.2821 129.174 34.826C129.924 34.5238 131.042 34.516 131.446 33.6991C131.626 33.336 131.596 32.8833 131.694 32.498C131.834 31.9523 132.105 31.4232 132.521 31.0357C133.353 30.2642 134.91 30.3007 135.354 31.4918C135.579 31.3612 135.803 31.2306 136.028 31.0999C135.085 30.1059 135.593 28.3259 136.874 27.8953C138.176 27.458 140.16 28.4609 140.16 29.9753C140.16 30.7811 139.238 31.1951 138.751 30.4446C138.547 30.128 138.531 29.714 138.535 29.3509C138.544 28.6502 138.739 27.8632 139.069 27.2444C140.037 25.4256 141.829 26.2603 143.149 27.2001C143.574 27.5023 143.977 26.8027 143.558 26.5038Z" fill="#1A0000"/>
<path d="M105.91 87.4865C105.91 87.4865 122.177 42.8325 73.1937 41.2883C31.4023 39.971 38.4393 84.7733 38.4393 84.7733L39.7455 84.6659C39.7455 84.6659 39.8761 47.1685 75.3478 50.7086C108.421 54.0095 103.889 88.32 103.889 88.32L105.91 87.4865Z" fill="#FFD44D" stroke="#FFD44D" stroke-width="0.25416" stroke-miterlimit="10"/>
<path d="M112.325 88.0118C109.671 86.3104 106.124 86.7963 103.185 88.925C103.427 87.5314 103.594 86.1089 103.662 84.6566C103.683 84.2005 103.669 83.7533 103.672 83.3005C103.204 83.285 102.735 83.2706 102.268 83.2396C97.65 82.9308 93.1446 81.7441 89.0787 79.5081C85.6991 77.6495 82.707 75.1366 80.2971 72.1246C78.0301 69.2907 76.4416 65.6311 75.3922 60.4438C72.0856 65.4363 67.1142 69.9704 62.8258 72.8851C56.2195 77.3749 48.4817 80.77 40.4518 81.4353C40.4463 81.5272 40.4363 81.6179 40.4319 81.7109C40.3865 82.6873 40.3909 83.6537 40.4274 84.6112C38.7415 83.4478 36.7899 82.9507 34.8705 83.3703C30.5201 84.3212 27.9818 89.6103 29.1995 95.1838C30.4182 100.756 34.9324 104.503 39.2828 103.553C41.551 103.057 43.32 101.375 44.3273 99.0948C49.4592 108.697 59.1418 115.39 70.5215 115.921C81.9897 116.455 92.3266 110.599 98.3097 101.394C98.7835 103.064 99.7433 104.486 101.175 105.402C104.923 107.806 110.459 105.862 113.537 101.059C116.617 96.2576 116.073 90.4161 112.325 88.0118Z" fill="#CD5428" stroke="#CD5428" stroke-width="1.03003" stroke-miterlimit="10"/>
<path d="M66.1181 113.004L65.4019 120.772L60.3082 121.231C60.3082 121.231 56.7996 129.202 66.8332 132.412C76.8667 135.622 80.812 123.189 80.812 123.189L74.5465 121.231L75.0126 113.59L66.1181 113.004Z" fill="#CD5428" stroke="#CD5428" stroke-width="1.01033" stroke-miterlimit="10"/>
<path d="M41.471 89.445C40.2844 88.0049 38.8508 86.6798 37.2037 86.1296C35.5753 85.5507 33.7687 86.4053 32.8367 87.7746C31.8991 89.1827 31.867 91.0988 32.0994 92.8921C32.3562 94.7087 32.8466 96.523 33.4842 98.2975C32.5057 96.6813 31.7518 94.9101 31.3412 93.025C30.946 91.1763 30.8463 89.0255 31.9965 87.2178C32.5776 86.3322 33.4411 85.688 34.4075 85.3083C35.3915 84.9297 36.5362 84.9651 37.4782 85.3581C39.3822 86.1573 40.6164 87.7812 41.471 89.445Z" fill="#8B2A0C"/>
<path d="M44.4718 100.433C43.8442 99.0716 43.5973 97.5716 43.4235 96.0938C43.3516 95.3499 43.3139 94.6039 43.3062 93.8589C43.3007 93.1128 43.3383 92.3678 43.4014 91.625C43.4645 93.1139 43.5132 94.5961 43.6759 96.0684C43.7423 96.8056 43.8442 97.5384 43.9682 98.269C44.1021 98.9952 44.2405 99.7258 44.4718 100.433Z" fill="#8B2A0C"/>
<path d="M42.8581 106.716L40.6087 104.243L39.0623 106.959L38.9029 103.077L36.5771 102.092L39.2151 101.537L40.0497 98.5862L41.315 101.36L44.1112 101.458L42.1662 102.98L42.8581 106.716Z" fill="white" stroke="white" stroke-width="0.261245" stroke-miterlimit="10" stroke-linecap="round"/>
<path d="M60.4398 72.0944C59.3439 71.8575 58.2944 71.811 57.2915 71.8199C56.2864 71.8542 55.3123 71.9815 54.3581 72.2317C53.4028 72.4852 52.4696 72.8482 51.5242 73.2711C51.0493 73.4781 50.5933 73.7405 50.0973 73.9574C49.6047 74.1877 49.152 74.4821 48.6085 74.6969L48.5885 74.7046C48.5631 74.7146 48.5354 74.7024 48.5255 74.677C48.5177 74.657 48.5232 74.636 48.5387 74.6227L49.7664 73.5368C50.2147 73.2235 50.6353 72.8693 51.1069 72.5903C52.0345 72.0069 53.0441 71.5542 54.1024 71.2487C56.2322 70.7284 58.5745 70.9088 60.4962 72.0081C60.5195 72.0213 60.5272 72.0512 60.5139 72.0745C60.5028 72.0933 60.4818 72.1021 60.4619 72.0977L60.4398 72.0944Z" fill="#2E2E2E"/>
<path d="M84.7155 73.7648C85.5779 72.9855 86.7136 72.5205 87.8881 72.3822C89.067 72.215 90.2825 72.3833 91.4171 72.7497C92.5296 73.1759 93.5624 73.7781 94.4104 74.5718C94.8498 74.947 95.1996 75.4153 95.5682 75.8448C95.8693 76.3418 96.1904 76.8045 96.4284 77.3248L96.4339 77.3358C96.445 77.3613 96.4339 77.3912 96.4095 77.4023C96.3896 77.4111 96.3675 77.4067 96.3531 77.3923L95.2052 76.2377C94.7812 75.9001 94.3882 75.5215 93.941 75.2171C93.0632 74.5828 92.1001 74.0747 91.085 73.7094C89.0626 73.0043 86.7435 72.9611 84.7664 73.8555C84.741 73.8666 84.7111 73.8555 84.7 73.8301C84.6912 73.809 84.6967 73.7858 84.7122 73.7714L84.7155 73.7648Z" fill="#2E2E2E"/>
<path opacity="0.49" d="M63.3512 100.615C62.4811 105.407 57.8894 108.586 53.0973 107.715C48.3053 106.845 45.1261 102.253 45.9972 97.4611C46.8673 92.669 51.459 89.4898 56.2511 90.361C61.0432 91.2322 64.2213 95.8228 63.3512 100.615Z" fill="#8B2A0C" stroke="#8B2A0C" stroke-width="1.14449" stroke-miterlimit="10"/>
<path opacity="0.49" d="M96.0736 103.056C95.2034 107.849 90.6109 111.029 85.8179 110.159C81.025 109.289 77.8452 104.696 78.7165 99.9032C79.5867 95.1102 84.1793 91.9304 88.9722 92.8006C93.7641 93.672 96.9439 98.2634 96.0736 103.056Z" fill="#8B2A0C" stroke="#8B2A0C" stroke-width="1.1445" stroke-miterlimit="10"/>
<path d="M66.7041 93.5465C66.9687 92.4097 67.5653 91.326 68.4598 90.4858C69.3409 89.6423 70.6139 89.0976 71.8803 89.1463C72.5035 89.1618 73.1456 89.2814 73.7389 89.5459C74.3167 89.8404 74.8359 90.2555 75.1979 90.7725C75.9373 91.8008 76.1742 93.0473 76.0635 94.2041C75.7713 93.0849 75.3207 92.0222 74.6034 91.2573C73.8928 90.4835 72.9142 90.1227 71.8637 90.1271C70.8231 90.0729 69.818 90.4526 68.9468 91.0725C68.0756 91.7056 67.3384 92.5746 66.7041 93.5465Z" fill="#8B2A0C"/>
<g opacity="0.53">
<path d="M76.0989 94.5642C76.0989 94.5642 76.1122 90.4518 72.633 89.8906C68.5815 89.2374 66.7705 93.5524 66.7705 93.5524" fill="#8B2A0C"/>
<path d="M76.0989 94.564C75.8499 93.4349 75.4403 92.3556 74.7529 91.563C74.071 90.7627 73.1068 90.3653 72.0574 90.331C71.0191 90.238 70.0017 90.58 69.1073 91.1656C68.2129 91.7656 67.4424 92.6058 66.7705 93.5522C67.076 92.4264 67.7136 91.3649 68.6391 90.559C69.5523 89.7487 70.8453 89.2539 72.1083 89.3513C72.7304 89.3922 73.368 89.5328 73.9503 89.8229C74.5171 90.1383 75.0185 90.5734 75.3617 91.1036C76.0613 92.1586 76.2517 93.4128 76.0989 94.564Z" fill="#8B2A0C"/>
</g>
<path d="M63.0433 79.9426C62.958 81.1348 62.8883 82.2628 62.6237 83.3675C62.4134 84.4657 62.099 85.5306 61.592 86.4527C60.5991 88.3179 58.9043 89.4426 56.8476 89.654C54.8462 89.9739 52.9643 89.1581 51.5684 87.5574C50.1072 86.0121 49.1508 83.8845 48.377 81.7569L48.2586 81.4326L48.0073 81.5477C47.3088 81.8698 46.6236 82.2274 45.9351 82.5749L45.9771 82.6845L48.1291 81.8643L48.0427 81.8156C48.5154 84.0871 49.3545 86.3265 50.8068 88.1729C51.5286 89.0906 52.4551 89.8688 53.5333 90.3525C54.6148 90.8296 55.8314 90.9713 56.9948 90.8075C58.1571 90.6614 59.3039 90.2551 60.2581 89.5599C61.2234 88.8736 61.933 87.8829 62.4079 86.8169C63.33 84.6527 63.4196 82.2274 63.1573 79.9514L63.0433 79.9426Z" fill="black"/>
<path d="M48.5165 83.2407L45.9727 85.0649L49.0456 84.4672L48.5165 83.2407Z" fill="black"/>
<path d="M49.5129 85.4365L47.041 87.6438L50.2324 86.7527L49.5129 85.4365Z" fill="black"/>
<path d="M78.7613 83.0314C78.6915 84.1937 78.8554 85.3915 79.1022 86.5715C79.4044 87.7394 79.876 88.8895 80.5822 89.9544C81.2818 91.0204 82.3257 91.9381 83.5699 92.475C84.8153 93.0196 86.1913 93.1358 87.4753 92.9975C88.7804 92.8635 90.1022 92.3521 91.1704 91.5119C92.2253 90.6551 92.9792 89.5216 93.4563 88.3537C94.3374 85.9726 94.4891 83.5273 94.0884 81.1662L93.7817 81.4584C94.55 81.5016 95.3226 81.5082 96.0942 81.5248L96.1086 81.4086L93.8227 81.1219L93.7485 81.113L93.7507 81.1905C93.8238 83.4842 93.5316 85.8487 92.5696 87.9419C92.0925 88.9847 91.3918 89.93 90.4896 90.6274C89.583 91.3226 88.4771 91.7222 87.3414 91.844C86.2101 91.989 85.0367 91.8838 83.9762 91.4654C82.908 91.0569 81.9992 90.2998 81.2874 89.4053C79.8804 87.57 79.1941 85.2929 78.8731 82.9971L78.7613 83.0314Z" fill="black"/>
<path d="M93.855 83.999L96.9822 83.8352L94.0719 82.6806L93.855 83.999Z" fill="black"/>
<path d="M93.4033 86.503L96.7154 86.5959L93.783 85.0528L93.4033 86.503Z" fill="black"/>
<path opacity="0.49" d="M75.5656 98.3366C75.5723 99.9007 73.6993 102.924 70.6905 102.937C67.6829 102.95 66.0014 99.6151 66.1664 98.0554C66.1664 98.0554 67.7582 97.6558 70.7658 97.6425C73.7735 97.6292 75.5656 98.3366 75.5656 98.3366Z" fill="#8B2A0C"/>
<path d="M65.4452 98.2074C65.4757 98.4709 65.5588 98.7307 65.7861 98.9738C65.976 99.2176 66.29 99.447 66.754 99.6286C67.6421 100 69.1067 100.173 70.6439 100.164C72.1741 100.197 73.6563 100.055 74.815 99.7398C75.4021 99.5856 75.9047 99.391 76.3183 99.1746C76.7659 98.9627 77.101 98.7244 77.3892 98.4768L77.3927 98.4739C77.3998 98.4676 77.422 98.4646 77.4408 98.4668C77.4583 98.469 77.4677 98.4746 77.4654 98.4802C77.156 98.9982 76.4249 99.5004 75.2263 99.8747C74.0277 100.255 72.3135 100.587 70.6439 100.567C68.9907 100.563 67.1875 100.192 66.2619 99.7338C65.3269 99.2847 65.1593 98.7229 65.3702 98.2033C65.3726 98.1967 65.3913 98.1922 65.4124 98.193C65.4311 98.1937 65.444 98.1985 65.4452 98.2044V98.2074Z" fill="#3B130E"/>
<path d="M75.4182 58.8052C75.0186 60.2509 74.2172 61.5538 73.5519 62.8866C72.9851 64.0212 72.6441 65.261 73.1534 66.492C73.6172 67.6133 74.8802 68.5277 76.1256 68.0882C77.0886 67.7484 77.5713 66.4477 76.9503 65.5953C76.1975 64.5603 74.4939 65.1138 73.6504 65.7149C72.5279 66.5152 71.9501 67.8923 72.1626 69.2572C72.3464 70.4372 73.2275 71.7545 74.5725 71.5862C75.5832 71.46 76.4798 70.1051 75.4736 69.3402C74.3279 68.469 72.7903 69.6712 72.3641 70.7438C71.7309 72.3356 72.7161 73.9529 73.9105 74.9625C74.2825 75.278 74.8249 74.7411 74.4496 74.4234C73.5829 73.6906 72.7183 72.5858 72.9652 71.3693C73.0748 70.8291 73.4235 70.3021 73.9094 70.0287C74.1231 69.9081 74.578 69.7376 74.8326 69.866C75.4393 70.1726 74.9865 70.6996 74.5636 70.818C73.0161 71.2541 72.725 68.6727 73.0261 67.7594C73.377 66.6956 74.7175 65.4902 75.9263 65.8433C76.6115 66.0436 76.6226 66.9347 76.0193 67.3045C75.5035 67.62 74.764 67.3388 74.3622 66.9602C73.5131 66.1621 73.5198 64.8359 73.9426 63.8319C74.6301 62.1991 75.6761 60.7324 76.1532 59.0088C76.285 58.534 75.5499 58.3325 75.4182 58.8052Z" fill="#1A0000"/>
<path d="M102.742 92.6464C103.875 91.1586 105.375 89.7749 107.388 89.3199C108.384 89.0974 109.517 89.2635 110.42 89.8081C111.304 90.3516 112.042 91.1376 112.459 92.1106C113.276 94.0909 112.801 96.192 112.088 97.9432C111.353 99.7265 110.301 101.339 109.055 102.76C109.992 101.124 110.794 99.4243 111.364 97.6809C111.906 95.9551 112.211 94.0633 111.534 92.5135C110.856 91.0025 109.227 89.8457 107.523 90.1302C105.806 90.3826 104.163 91.4353 102.742 92.6464Z" fill="#8B2A0C"/>
<path d="M97.8657 102.939C98.2177 102.283 98.4812 101.589 98.7391 100.896C98.9893 100.199 99.2184 99.4952 99.4122 98.7801C99.8306 97.3588 100.137 95.9087 100.46 94.4541C100.393 95.1958 100.3 95.9363 100.164 96.6703C100.025 97.4031 99.8583 98.1315 99.6568 98.851C99.2273 100.275 98.7214 101.708 97.8657 102.939Z" fill="#8B2A0C"/>
<path d="M105.309 109.088L103.06 106.614L101.512 109.332L101.354 105.448L99.0269 104.464L101.666 103.91L102.501 100.958L103.766 103.733L106.562 103.83L104.617 105.351L105.309 109.088Z" fill="white" stroke="white" stroke-width="0.261245" stroke-miterlimit="10" stroke-linecap="round"/>
<mask id="mask0_1456_20459" style="mask-type:luminance" maskUnits="userSpaceOnUse" x="36" y="118" width="61" height="56">
<path d="M61.6235 120.769C61.6235 120.769 61.4678 127.418 68.5799 127.284C75.9291 127.145 76.8644 120.656 76.8644 120.656L83.2873 121.063C83.2873 121.063 91.7541 162.525 96.4487 166.856C96.4487 166.856 68.1925 179.085 36.5702 171.319L55.9719 118.864L61.6235 120.769Z" fill="white"/>
</mask>
<g mask="url(#mask0_1456_20459)">
<path d="M61.6235 120.77C61.6235 120.77 61.4678 127.419 68.5799 127.284C75.9291 127.146 76.8644 120.656 76.8644 120.656L83.2873 121.063C83.2873 121.063 91.7541 162.526 96.4487 166.856C96.4487 166.856 68.1925 179.085 36.5702 171.319L55.9719 118.865L61.6235 120.77Z" fill="#7A5FFF" stroke="#7A5FFF" stroke-width="1.01653" stroke-miterlimit="10"/>
</g>
<mask id="mask1_1456_20459" style="mask-type:luminance" maskUnits="userSpaceOnUse" x="36" y="118" width="61" height="56">
<path d="M61.6235 120.769C61.6235 120.769 61.4678 127.418 68.5799 127.284C75.9291 127.145 76.8644 120.656 76.8644 120.656L83.2873 121.063C83.2873 121.063 91.7541 162.525 96.4487 166.856C96.4487 166.856 68.1925 179.085 36.5702 171.319L55.9719 118.864L61.6235 120.769Z" fill="white"/>
</mask>
<g mask="url(#mask1_1456_20459)">
<path d="M56.2761 142.768L56.1681 134.698C56.1667 134.627 56.1043 134.561 56.0287 134.551L48.8599 133.586C48.7143 133.566 48.666 133.379 48.7942 133.333L56.5495 130.568C56.5856 130.556 56.6112 130.527 56.62 130.491L58.0891 124.456C58.118 124.338 58.2988 124.346 58.3534 124.468L60.8784 130.154C60.9064 130.215 60.9747 130.256 61.0408 130.249L68.2388 129.484C68.3743 129.469 68.472 129.635 68.3753 129.716L63.2331 134.04C63.1878 134.079 63.182 134.146 63.2201 134.201L67.1152 139.939C67.1934 140.055 67.0785 140.175 66.9503 140.112L60.3298 136.828C60.2638 136.794 60.1881 136.811 60.1554 136.865L56.5382 142.863C56.472 142.973 56.278 142.904 56.2761 142.768Z" fill="#FFD44D"/>
</g>
<mask id="mask2_1456_20459" style="mask-type:luminance" maskUnits="userSpaceOnUse" x="36" y="118" width="61" height="56">
<path d="M61.6235 120.769C61.6235 120.769 61.4678 127.418 68.5799 127.284C75.9291 127.145 76.8644 120.656 76.8644 120.656L83.2873 121.063C83.2873 121.063 91.7541 162.525 96.4487 166.856C96.4487 166.856 68.1925 179.085 36.5702 171.319L55.9719 118.864L61.6235 120.769Z" fill="white"/>
</mask>
<g mask="url(#mask2_1456_20459)">
<path d="M74.7893 162.597L78.6596 154.997C78.6935 154.93 78.6711 154.847 78.608 154.811L72.7342 151.422C72.6154 151.353 72.6638 151.161 72.8009 151.163L81.0282 151.259C81.0664 151.259 81.1029 151.243 81.1293 151.212L85.3942 146.066C85.4776 145.965 85.6337 146.036 85.6217 146.168L85.0646 152.37C85.0587 152.437 85.1003 152.499 85.1624 152.516L91.9126 154.294C92.0403 154.328 92.0441 154.516 91.9188 154.56L85.2413 156.829C85.1818 156.849 85.1435 156.91 85.1496 156.975L85.7803 163.701C85.7933 163.836 85.6325 163.91 85.5494 163.805L81.3002 158.435C81.2578 158.381 81.1832 158.37 81.1279 158.409L74.9789 162.776C74.8641 162.857 74.7248 162.724 74.7893 162.597Z" fill="#FFD44D"/>
</g>
<mask id="mask3_1456_20459" style="mask-type:luminance" maskUnits="userSpaceOnUse" x="36" y="118" width="61" height="56">
<path d="M61.6235 120.769C61.6235 120.769 61.4678 127.418 68.5799 127.284C75.9291 127.145 76.8644 120.656 76.8644 120.656L83.2873 121.063C83.2873 121.063 91.7541 162.525 96.4487 166.856C96.4487 166.856 68.1925 179.085 36.5702 171.319L55.9719 118.864L61.6235 120.769Z" fill="white"/>
</mask>
<g mask="url(#mask3_1456_20459)">
<path d="M43.9327 171.234L42.2737 163.364C42.2591 163.295 42.184 163.24 42.1066 163.24L34.7743 163.269C34.6252 163.269 34.5416 163.093 34.6604 163.03L41.8613 159.277C41.8955 159.259 41.9152 159.229 41.9171 159.192L42.2215 153.099C42.2278 152.979 42.409 152.963 42.4866 153.074L46.0975 158.285C46.1371 158.342 46.2137 158.372 46.2784 158.356L53.3071 156.634C53.4398 156.601 53.5684 156.75 53.488 156.842L49.1921 161.763C49.1543 161.807 49.1617 161.873 49.2101 161.922L54.1965 166.998C54.2973 167.101 54.2056 167.233 54.0649 167.189L46.8333 164.879C46.7611 164.855 46.6892 164.882 46.667 164.939L44.2139 171.288C44.1682 171.407 43.9608 171.366 43.9327 171.234Z" fill="#FFD44D"/>
</g>
<mask id="mask4_1456_20459" style="mask-type:luminance" maskUnits="userSpaceOnUse" x="36" y="118" width="61" height="54">
<path d="M61.6235 120.769C61.6235 120.769 61.4678 127.418 68.5799 127.284C75.9291 127.145 76.8644 120.656 76.8644 120.656L83.2873 121.063C83.2873 121.063 91.7541 162.525 96.4487 166.856C96.4487 166.856 69.563 152.98 36.5702 171.319L55.9719 118.864L61.6235 120.769Z" fill="white"/>
</mask>
<g mask="url(#mask4_1456_20459)">
<path d="M75.8476 132.555L77.2536 129.794C77.2665 129.77 77.2572 129.741 77.2348 129.727L75.1011 128.496C75.0578 128.471 75.0757 128.402 75.1251 128.402L78.1139 128.437C78.1275 128.437 78.141 128.43 78.1504 128.42L79.7003 126.55C79.7312 126.513 79.787 126.539 79.7826 126.587L79.5803 128.84C79.5776 128.865 79.5935 128.887 79.6159 128.893L82.0682 129.539C82.1138 129.55 82.116 129.619 82.0704 129.635L79.644 130.459C79.6227 130.466 79.6085 130.489 79.6112 130.512L79.8402 132.955C79.8448 133.004 79.7864 133.031 79.7566 132.993L78.2134 131.041C78.1979 131.022 78.1704 131.018 78.1514 131.032L75.9173 132.618C75.8741 132.649 75.8237 132.601 75.8476 132.555Z" fill="#FFD44D"/>
</g>
<mask id="mask5_1456_20459" style="mask-type:luminance" maskUnits="userSpaceOnUse" x="36" y="118" width="61" height="54">
<path d="M61.6235 120.769C61.6235 120.769 61.4678 127.418 68.5799 127.284C75.9291 127.145 76.8644 120.656 76.8644 120.656L83.2873 121.063C83.2873 121.063 91.7541 162.525 96.4487 166.856C96.4487 166.856 72.7898 155.168 36.5702 171.319L55.9719 118.864L61.6235 120.769Z" fill="white"/>
</mask>
<g mask="url(#mask5_1456_20459)">
<path d="M61.6738 154.05L62.0938 151.115C62.0975 151.09 62.0786 151.064 62.0528 151.057L59.5469 150.419C59.4965 150.406 59.4897 150.336 59.5383 150.325L62.4648 149.632C62.4789 149.629 62.4898 149.619 62.4944 149.607L63.3623 147.475C63.3791 147.433 63.4435 147.443 63.4556 147.49L64.0343 149.655C64.0404 149.679 64.0634 149.697 64.087 149.696L66.7008 149.707C66.7501 149.708 66.7751 149.772 66.7367 149.797L64.6548 151.161C64.6366 151.173 64.6304 151.197 64.6408 151.219L65.706 153.459C65.7279 153.504 65.6793 153.543 65.6377 153.515L63.4604 152.057C63.4389 152.042 63.4102 152.045 63.3964 152.064L61.7643 154.096C61.732 154.132 61.6672 154.099 61.6738 154.05Z" fill="#FFD44D"/>
</g>
<path d="M57.6216 165.552C51.7508 165.143 46.914 170.046 47.6263 175.887C48.8591 185.998 51.102 200.31 54.468 206.838C54.947 207.768 55.0928 208.844 54.7343 209.826C53.9555 211.959 55.5547 214.211 57.8251 214.178L60.4206 214.141C63.6383 214.095 65.9855 211.081 65.2415 207.95L65.1969 207.762C65.0839 207.287 65.0387 206.798 65.0626 206.31L66.5668 175.625C66.8233 170.392 62.8478 165.916 57.6216 165.552Z" fill="#B44A24" stroke="#B44A24" stroke-width="1.01653" stroke-miterlimit="10"/>
<path d="M65.6721 193.893C60.6492 194.041 55.6302 194.334 50.6049 194.428C51.8657 200.306 53.426 205.512 55.3055 208.262L53.1207 214.246L66.6914 214.052L65.0266 207.046L65.6721 193.893Z" fill="white" stroke="white" stroke-width="1.01653" stroke-miterlimit="10"/>
<path d="M65.1652 204.243C63.358 204.089 61.4961 204.388 59.7305 204.675C57.7768 204.991 55.8189 205.361 53.8413 205.486C54.3071 206.566 54.7935 207.512 55.3068 208.262L53.122 214.246L66.6928 214.052L65.0279 207.046L65.1652 204.243Z" fill="black" stroke="black" stroke-width="1.01653" stroke-miterlimit="10"/>
<path d="M77.2548 165.691C83.1311 165.365 87.8985 170.335 87.1038 176.167C85.7284 186.259 83.2837 200.538 79.826 207.019C79.3339 207.941 79.1731 209.015 79.5178 210.002C80.2664 212.145 78.6358 214.374 76.3664 214.31L73.7705 214.236C70.5537 214.144 68.2493 211.097 69.0374 207.977L69.0847 207.79C69.2043 207.316 69.2564 206.828 69.2394 206.339L68.1676 175.638C67.9848 170.401 72.0235 165.981 77.2548 165.691Z" fill="#B44A24" stroke="#B44A24" stroke-width="1.01653" stroke-miterlimit="10"/>
<path d="M83.6578 195.535C78.7349 195.748 73.8023 195.784 68.8745 195.9L69.2651 207.075L67.5015 214.057L81.0691 214.443L78.9686 208.428C80.7894 205.842 82.3534 201.031 83.6578 195.535Z" fill="white" stroke="white" stroke-width="1.01653" stroke-miterlimit="10"/>
<path d="M80.7752 204.977C77.0208 204.809 73.2664 204.648 69.5072 204.677C69.36 204.677 69.2546 204.623 69.1768 204.545L69.2654 207.075L67.5019 214.057L81.0694 214.443L78.969 208.428C79.6019 207.529 80.2028 206.35 80.7752 204.977Z" fill="black" stroke="black" stroke-width="1.01653" stroke-miterlimit="10"/>
<path opacity="0.49" d="M61.8811 169.941C61.8221 171.546 59.5654 172.767 56.8418 172.666C54.1182 172.565 51.9575 171.182 52.0176 169.576C52.0765 167.97 54.3333 166.749 57.0569 166.851C59.7804 166.952 61.9401 168.336 61.8811 169.941Z" fill="#8B2A0C" stroke="#8B2A0C" stroke-width="0.491826" stroke-miterlimit="10"/>
<path opacity="0.49" d="M82.9138 169.941C82.8548 171.547 80.5981 172.767 77.8745 172.666C75.1509 172.565 72.9902 171.182 73.0503 169.576C73.1093 167.969 75.366 166.749 78.0896 166.851C80.8131 166.952 82.9728 168.335 82.9138 169.941Z" fill="#8B2A0C" stroke="#8B2A0C" stroke-width="0.491826" stroke-miterlimit="10"/>
<g clip-path="url(#clip0_1456_20459)">
<path d="M82.839 144.562C81.9837 144.329 81.1247 144.19 80.3976 144.083C79.1771 143.904 78.0789 143.816 77.0405 143.816C75.9162 143.816 74.8491 143.922 73.8701 144.134C72.5677 144.413 71.5046 144.859 70.6169 145.498C69.7574 146.12 69.0601 146.939 68.5838 147.887C68.1081 146.939 67.4106 146.119 66.5507 145.498C65.6629 144.859 64.5994 144.413 63.2966 144.134C62.3162 143.922 61.2491 143.816 60.1262 143.816C59.0882 143.816 57.9896 143.903 56.7696 144.083C56.0424 144.19 55.183 144.33 54.3272 144.562C53.8671 144.686 55.0535 165.842 55.0535 165.842C55.1645 166.682 55.1645 166.682 55.313 167.068C55.4677 167.473 55.8031 167.734 56.1678 167.734C56.4282 167.734 56.6688 167.602 56.8456 167.363C57.5466 166.413 59.3706 165.823 61.6043 165.823C61.9753 165.823 62.3464 165.84 62.7084 165.874L63.7868 165.972C65.2362 166.104 68.0311 166.394 68.0338 166.394C68.2132 166.466 68.9566 166.466 69.1378 166.394C69.1405 166.394 71.935 166.104 73.3839 165.972L74.4619 165.874C74.8474 165.838 75.2344 165.82 75.6217 165.82C77.8383 165.82 79.6402 166.395 80.3243 167.323C80.5014 167.563 80.7425 167.695 81.0033 167.695C81.3671 167.695 81.7017 167.433 81.8569 167.029C82.0057 166.645 83.304 144.686 82.8426 144.562" fill="#8B2A0C"/>
<path d="M68.4761 148.018C68.4088 147.706 68.3194 147.399 68.2086 147.099C67.8104 146.008 67.0969 145.059 66.1588 144.374C65.2549 143.714 64.2057 143.332 63.1575 143.104C61.0969 142.657 58.9532 142.751 56.8818 143.06C56.093 143.177 55.2998 143.316 54.5258 143.527C54.2097 143.614 56.1582 165.448 56.379 165.145C57.5123 163.591 60.4183 163.161 62.7424 163.38C64.5502 163.55 66.3041 163.702 68.0943 163.907C68.1245 163.912 68.151 163.93 68.1793 163.942C68.3462 164.008 68.5193 163.834 68.5193 163.648L68.5193 148.31C68.5202 148.211 68.4991 148.116 68.4779 148.018" fill="#A7A9AC"/>
<path d="M68.48 146.708C68.4186 146.404 68.3362 146.104 68.2336 145.811C67.845 144.701 67.183 143.799 66.3416 143.146C65.5088 142.503 64.5428 142.129 63.5733 141.905C61.6723 141.468 59.6945 141.561 57.7833 141.862C57.0557 141.976 56.3249 142.111 55.6099 142.32C55.3176 142.404 57.1672 163.515 57.37 163.218C58.9089 160.981 60.9596 160.794 63.191 161.016C64.8603 161.183 66.5377 161.608 68.1265 162.242C68.1532 162.253 68.1794 162.264 68.2052 162.275C68.359 162.339 68.5187 162.171 68.5187 161.988L68.5187 146.995C68.5187 146.897 68.4993 146.803 68.48 146.708Z" fill="#E6E7E8"/>
<path d="M57.0061 144.464L57.0133 144.532C57.4488 144.472 57.8856 144.42 58.3233 144.379C60.0412 144.208 61.8193 144.155 63.5291 144.403C64.3997 144.528 65.2708 144.741 66.0191 145.104C66.4571 145.317 66.8407 145.579 67.1542 145.883C66.8281 145.359 66.3362 144.925 65.7331 144.603C65.0504 144.24 64.2563 144.028 63.4666 143.902C61.9093 143.655 60.2872 143.707 58.7235 143.878C58.1286 143.943 57.5287 144.018 56.944 144.136C56.7048 144.184 56.7862 144.472 57.0079 144.464M57.0061 146.615L57.0133 146.684C57.4489 146.623 57.8856 146.572 58.3233 146.529C60.0412 146.36 61.8193 146.306 63.5291 146.555C64.3997 146.679 65.2708 146.892 66.0191 147.256C66.4571 147.469 66.8407 147.73 67.1542 148.035C66.8281 147.51 66.3362 147.077 65.7331 146.755C65.0504 146.391 64.2563 146.179 63.4666 146.054C61.9093 145.807 60.2872 145.859 58.7235 146.03C58.1281 146.095 57.5282 146.171 56.9436 146.288C56.7048 146.334 56.7862 146.623 57.0079 146.615M57.1581 148.763L57.1658 148.832C57.6011 148.77 58.0379 148.719 58.4757 148.677C60.1936 148.506 61.9718 148.455 63.6811 148.701C64.5517 148.828 65.4219 149.038 66.1702 149.403C66.6091 149.617 66.9932 149.879 67.3071 150.182C66.9801 149.657 66.4882 149.226 65.8842 148.902C65.2016 148.538 64.4083 148.327 63.6177 148.201C62.0604 147.954 60.4383 148.008 58.8751 148.177C58.2788 148.242 57.6793 148.318 57.0942 148.434C56.855 148.482 56.9364 148.773 57.159 148.763M57.3677 151.198L57.3762 151.266C57.8117 151.205 58.2485 151.154 58.6862 151.113C60.4041 150.943 62.1822 150.889 63.8916 151.137C64.7613 151.263 65.6324 151.475 66.3807 151.838C66.8196 152.051 67.2036 152.313 67.5166 152.617C67.1902 152.092 66.6995 151.659 66.0947 151.336C65.4129 150.973 64.6187 150.762 63.8281 150.635C62.2708 150.389 60.6487 150.441 59.0864 150.612C58.4897 150.677 57.8907 150.753 57.3056 150.87C57.0664 150.918 57.1478 151.207 57.3695 151.198M57.3677 153.347L57.3762 153.416C57.8116 153.354 58.2484 153.303 58.6862 153.262C60.4041 153.092 62.1822 153.039 63.8916 153.287C64.7613 153.411 65.6324 153.624 66.3807 153.988C66.8196 154.202 67.2036 154.462 67.5166 154.766C67.1902 154.242 66.6995 153.809 66.0947 153.486C65.4129 153.123 64.6187 152.91 63.8281 152.785C62.2708 152.537 60.6487 152.59 59.0864 152.761C58.4897 152.825 57.8907 152.902 57.3056 153.019C57.0664 153.069 57.1478 153.355 57.3695 153.347M57.521 155.499L57.5287 155.565C57.9645 155.505 58.4015 155.453 58.8396 155.412C60.5574 155.24 62.3347 155.189 64.0454 155.436C64.9146 155.562 65.7862 155.774 66.5345 156.137C66.9725 156.35 67.3561 156.611 67.6704 156.916C67.3435 156.391 66.8524 155.96 66.2485 155.636C65.5667 155.272 64.7716 155.06 63.9819 154.935C62.4246 154.687 60.8025 154.741 59.2398 154.909C58.6435 154.975 58.0431 155.051 57.459 155.168C57.2197 155.217 57.3011 155.506 57.5228 155.499" fill="#243438"/>
<path d="M68.5609 148.018C68.6274 147.704 68.7183 147.396 68.8284 147.099C69.2276 146.008 69.9412 145.06 70.8791 144.374C71.783 143.714 72.8322 143.332 73.8804 143.104C75.9405 142.657 78.0847 142.751 80.1547 143.06C80.944 143.177 81.7372 143.316 82.5112 143.527C82.8282 143.614 80.8797 165.407 80.6588 165.106C79.5251 163.55 76.6196 163.161 74.2955 163.38C72.4877 163.55 70.7334 163.702 68.9436 163.907C68.9143 163.912 68.8869 163.93 68.8586 163.942C68.6917 164.008 68.5186 163.834 68.5186 163.648L68.5186 148.31C68.5177 148.211 68.5388 148.116 68.56 148.018" fill="#A7A9AC"/>
<path d="M68.5567 146.708C68.6193 146.402 68.7024 146.101 68.8041 145.811C69.1922 144.701 69.8537 143.797 70.6946 143.146C71.5279 142.503 72.498 142.129 73.4644 141.905C75.3653 141.468 77.3431 141.561 79.2534 141.862C79.9806 141.977 80.7127 142.111 81.4264 142.32C81.7187 142.404 79.87 163.515 79.6667 163.218C78.1283 160.982 76.0781 160.794 73.8466 161.017C72.1773 161.181 70.5008 161.608 68.9102 162.243C68.8841 162.253 68.8582 162.264 68.8324 162.276C68.6786 162.34 68.5181 162.171 68.5181 161.989L68.5181 146.996C68.5185 146.897 68.5388 146.803 68.5567 146.708Z" fill="#E6E7E8"/>
<path d="M80.0329 144.464L80.0253 144.532C79.5895 144.472 79.1524 144.42 78.7144 144.379C76.997 144.208 75.2184 144.155 73.5091 144.403C72.6393 144.528 71.7682 144.741 71.0199 145.104C70.581 145.317 70.1983 145.579 69.884 145.883C70.2105 145.359 70.702 144.925 71.3059 144.603C71.9886 144.24 72.7814 144.028 73.5725 143.902C75.1298 143.655 76.7474 143.707 78.3155 143.878C78.9109 143.943 79.5099 144.018 80.0955 144.136C80.3347 144.184 80.2533 144.472 80.0311 144.464M80.0329 146.615L80.0253 146.684C79.5894 146.623 79.1524 146.572 78.7144 146.529C76.997 146.36 75.2184 146.306 73.5091 146.555C72.6393 146.679 71.7682 146.892 71.0199 147.256C70.581 147.469 70.1983 147.73 69.884 148.035C70.2105 147.51 70.702 147.077 71.3059 146.755C71.9886 146.391 72.7814 146.179 73.5725 146.054C75.1298 145.807 76.7474 145.859 78.3155 146.03C78.9109 146.095 79.5099 146.169 80.0955 146.288C80.3347 146.334 80.2533 146.623 80.0311 146.615M79.88 148.763L79.8715 148.832C79.4358 148.77 78.9987 148.719 78.5606 148.677C76.8436 148.506 75.0655 148.455 73.3562 148.701C72.4864 148.828 71.6144 149.038 70.8661 149.403C70.4277 149.617 70.0441 149.879 69.7311 150.182C70.0576 149.657 70.5482 149.226 71.1526 148.902C71.8348 148.538 72.6276 148.327 73.4236 148.201C74.98 147.954 76.5985 148.008 78.1653 148.176C78.7607 148.242 79.3611 148.317 79.9457 148.434C80.1849 148.482 80.104 148.773 79.8823 148.763M79.6687 151.198L79.661 151.266C79.2255 151.205 78.7888 151.154 78.351 151.113C76.6336 150.943 74.855 150.889 73.1457 151.137C72.2751 151.263 71.404 151.475 70.6557 151.838C70.2172 152.051 69.8336 152.313 69.5197 152.617C69.8462 152.092 70.3377 151.659 70.9426 151.336C71.6243 150.973 72.4181 150.762 73.2091 150.635C74.7664 150.389 76.384 150.441 77.9522 150.612C78.5476 150.677 79.1475 150.753 79.7321 150.868C79.9718 150.918 79.8904 151.207 79.6678 151.198M79.6687 153.347L79.661 153.416C79.2256 153.354 78.7889 153.303 78.351 153.262C76.6336 153.092 74.855 153.039 73.1457 153.287C72.2751 153.411 71.404 153.624 70.6557 153.988C70.2172 154.202 69.8336 154.462 69.5197 154.766C69.8462 154.242 70.3377 153.809 70.9426 153.486C71.6243 153.123 72.4181 152.91 73.2091 152.785C74.7664 152.537 76.384 152.59 77.9522 152.761C78.5476 152.825 79.1475 152.902 79.7321 153.018C79.9718 153.069 79.8904 153.355 79.6678 153.347M79.5158 155.499L79.5095 155.565C79.0737 155.505 78.6366 155.453 78.1986 155.412C76.4807 155.24 74.7026 155.189 72.9928 155.436C72.1226 155.562 71.2524 155.774 70.5037 156.137C70.0657 156.35 69.6812 156.611 69.3682 156.916C69.6942 156.391 70.1862 155.96 70.7897 155.636C71.4723 155.272 72.2656 155.06 73.0607 154.935C74.6171 154.687 76.2356 154.741 77.8033 154.909C78.3987 154.975 78.9982 155.051 79.5837 155.168C79.8225 155.217 79.7406 155.506 79.518 155.499" fill="#243438"/>
<path d="M69.7897 163.593C69.7897 163.808 68.7024 163.981 68.5184 163.981C68.3345 163.981 67.2476 163.807 67.2476 163.593L68.1856 146.936C68.1856 146.722 68.3349 146.548 68.5184 146.548C68.7024 146.548 68.8517 146.722 68.8517 146.936L69.7897 163.593Z" fill="#A7A9AC"/>
</g>
<path d="M54.773 119.985C53.1126 128.287 45.4539 147.934 45.4539 147.934L64.8168 154.054C68.8342 151.294 71.9717 154.466 71.9717 154.466C76.25 154.448 74.8983 157.422 74.8983 157.422C72.9563 167.665 40.0694 165.904 33.4849 149.319C32.1442 145.941 37.6142 127.733 43.7033 123.306C46.7481 121.092 50.8987 120.538 54.773 119.985Z" fill="#B44A24" stroke="#B44A24" stroke-width="1.01033" stroke-miterlimit="10"/>
<path d="M83.5545 121.398C83.5545 121.398 94.5923 123.093 107.119 131.745L119.259 109.95C119.423 109.57 120.001 109.725 119.97 110.141L119.669 114.273L122.063 110.207C122.246 109.897 122.732 110.088 122.662 110.444C122.26 112.494 121.69 115.474 121.784 115.442C121.882 115.411 123.473 112.39 124.492 110.636C124.683 110.308 125.194 110.495 125.144 110.875L124.553 115.386L127.307 112.032C127.589 111.688 128.154 111.969 128.053 112.404C126.946 117.14 120.64 135.367 115.67 140.725C110.886 144.15 108.131 143.881 93.4737 140.224L86.8754 138.365L83.5545 121.398Z" fill="#B44A24" stroke="#B44A24" stroke-width="0.50201" stroke-miterlimit="10" stroke-linecap="round"/>
<path d="M126.222 119.892C125.049 120.55 123.88 120.696 123.612 120.218L121.801 116.987L126.049 114.605L127.861 117.836C128.129 118.313 127.395 119.234 126.222 119.892Z" fill="#FF6E83"/>
<path d="M125.073 117.844C123.735 118.595 122.402 118.761 122.096 118.216L120.241 114.907L125.088 112.189L126.943 115.498C127.249 116.043 126.412 117.094 125.073 117.844Z" fill="#BFBCAF"/>
<path d="M118.401 103.37L116.405 101.741C116.26 101.622 116.046 101.644 115.927 101.789C115.898 101.825 115.876 101.867 115.864 101.912C115.851 101.957 115.848 102.004 115.854 102.05L116.203 104.602C116.304 105.343 116.987 105.862 117.728 105.76C118.469 105.659 118.987 104.976 118.886 104.235C118.838 103.883 118.656 103.579 118.401 103.37Z" fill="#2B2622"/>
<path d="M125.869 113.595C125.87 113.599 125.871 113.603 125.873 113.607C126.069 114.17 125.248 115.16 123.97 115.877C122.691 116.594 121.418 116.778 121.04 116.317C121.037 116.314 121.035 116.311 121.032 116.307C121.029 116.303 121.025 116.299 121.022 116.294C121.013 116.282 121.004 116.269 120.996 116.256L120.993 116.249L120.993 116.249L116.684 108.567C116.684 108.567 116.169 103.888 116.989 103.429C117.808 102.969 121.531 105.849 121.531 105.849L125.843 113.538C125.851 113.551 125.857 113.565 125.863 113.579C125.865 113.584 125.867 113.59 125.869 113.595Z" fill="#FFD469"/>
<path d="M116.685 108.566L116.785 107.698C116.8 107.571 116.935 107.495 117.052 107.549L117.62 107.814C117.732 107.866 117.863 107.798 117.885 107.676L118.007 106.986C118.029 106.865 118.159 106.796 118.271 106.848L118.846 107.11C118.964 107.164 119.099 107.086 119.112 106.957L119.171 106.353C119.183 106.228 119.311 106.15 119.428 106.196L120.085 106.454C120.196 106.498 120.319 106.429 120.34 106.311L120.462 105.609C120.483 105.488 120.612 105.419 120.725 105.469L121.55 105.838L117.267 102.44C117.545 102.936 116.26 103.657 115.982 103.161L116.685 108.566Z" fill="#E5AA6E"/>
<path d="M117.992 108.697C117.947 108.684 117.9 108.685 117.856 108.7C117.812 108.714 117.773 108.741 117.744 108.778C117.715 108.814 117.698 108.858 117.694 108.905C117.691 108.951 117.701 108.997 117.724 109.038L121.322 115.454C121.352 115.508 121.403 115.548 121.463 115.565C121.523 115.581 121.587 115.574 121.641 115.543C121.695 115.513 121.735 115.462 121.752 115.402C121.769 115.342 121.762 115.278 121.731 115.224L118.133 108.808C118.118 108.781 118.098 108.758 118.074 108.738C118.05 108.719 118.022 108.705 117.992 108.697ZM119.772 107.889L123.37 114.305C123.385 114.332 123.395 114.361 123.399 114.392C123.402 114.423 123.4 114.454 123.392 114.483C123.383 114.513 123.369 114.541 123.35 114.565C123.331 114.589 123.307 114.61 123.28 114.625C123.253 114.64 123.224 114.65 123.193 114.653C123.162 114.657 123.131 114.654 123.102 114.646C123.072 114.638 123.044 114.623 123.02 114.604C122.996 114.585 122.976 114.561 122.96 114.534L119.363 108.119C119.332 108.064 119.325 108 119.342 107.94C119.358 107.881 119.398 107.83 119.453 107.799C119.507 107.769 119.571 107.761 119.631 107.778C119.691 107.795 119.742 107.835 119.772 107.889ZM121.411 106.97L125.009 113.386C125.024 113.412 125.034 113.442 125.038 113.473C125.041 113.503 125.039 113.535 125.031 113.564C125.022 113.594 125.008 113.622 124.989 113.646C124.97 113.67 124.946 113.691 124.919 113.706C124.892 113.721 124.863 113.73 124.832 113.734C124.801 113.738 124.77 113.735 124.741 113.727C124.711 113.718 124.683 113.704 124.659 113.685C124.635 113.666 124.614 113.642 124.599 113.615L121.002 107.2C120.971 107.145 120.964 107.081 120.981 107.021C120.997 106.961 121.037 106.911 121.092 106.88C121.146 106.85 121.21 106.842 121.27 106.859C121.33 106.876 121.381 106.916 121.411 106.97Z" fill="#FFB636"/>
<defs>
<clipPath id="clip0_1456_20459">
<rect width="28.7812" height="28.7812" fill="white" transform="translate(54.2197 140.257)"/>
</clipPath>
</defs>
</svg>
