<svg viewBox="0 0 167.9978 168.9999" x="0" y="0" fill="none" xmlns="http://www.w3.org/2000/svg"><defs><mask id="mask4_1477_20898" style="mask-type:luminance" maskUnits="userSpaceOnUse" x="26" y="42" width="67" height="58" xmlns="http://www.w3.org/2000/svg">
<g id="SVGID_00000165928890544357328630000010163460873986055059__5" data-node-id="1477:21018">
<path id="Vector_45" data-node-id="1477:21019" d="M91.477,75.3c-1.625,-1.693 -3.94,-1.611 -6.006,-0.819c-1.052,0.403 -2.038,0.96 -2.983,1.562c-0.568,0.36 -1.698,1.673 -2.39,1.531c-0.478,-0.098 -0.552,-0.87 -0.699,-1.239c-1.284,-3.232 -4.05,-6.232 -6.267,-8.89c-2.4877,-2.98 -5.1429,-5.819 -7.788,-8.663c-4.5132,-4.852 -8.6643,-10.184 -11.4344,-16.194c-0.8644,0.76 -2.6003,2.291 -2.9583,2.655c-3.4535,3.519 -7.2162,6.8 -11.2727,9.64c-1.8814,1.317 -3.84,2.544 -5.9267,3.526c-1.857,0.874 -3.8776,1.599 -5.9624,1.619c-0.0132,0 -0.0223,-0.006 -0.0356,-0.007c-0.4738,1.477 -0.845,3.002 -1.0993,4.568c-3.0253,18.62 6.7332,31.448 24.3079,34.15c10.3738,1.596 20.3632,-2.559 26.8465,-10.117c2.527,2.509 7.491,1.718 11.233,-1.844c3.819,-3.635 5.208,-8.588 2.435,-11.478z" fill="white"/>
</g>
</mask><mask id="mask5_1477_20898" style="mask-type:luminance" maskUnits="userSpaceOnUse" x="26" y="42" width="67" height="58" xmlns="http://www.w3.org/2000/svg">
<g id="SVGID_00000165928890544357328630000010163460873986055059__6" data-node-id="1477:21022">
<path id="Vector_47" data-node-id="1477:21023" d="M91.477,75.3c-1.625,-1.693 -3.94,-1.611 -6.006,-0.819c-1.052,0.403 -2.038,0.96 -2.983,1.562c-0.568,0.36 -1.698,1.673 -2.39,1.531c-0.478,-0.098 -0.552,-0.87 -0.699,-1.239c-1.284,-3.232 -4.05,-6.232 -6.267,-8.89c-2.4877,-2.98 -5.1429,-5.819 -7.788,-8.663c-4.5132,-4.852 -8.6643,-10.184 -11.4344,-16.194c-0.8644,0.76 -2.6003,2.291 -2.9583,2.655c-3.4535,3.519 -7.2162,6.8 -11.2727,9.64c-1.8814,1.317 -3.84,2.544 -5.9267,3.526c-1.857,0.874 -3.8776,1.599 -5.9624,1.619c-0.0132,0 -0.0223,-0.006 -0.0356,-0.007c-0.4738,1.477 -0.845,3.002 -1.0993,4.568c-3.0253,18.62 6.7332,31.448 24.3079,34.15c10.3738,1.596 20.3632,-2.559 26.8465,-10.117c2.527,2.509 7.491,1.718 11.233,-1.844c3.819,-3.635 5.208,-8.588 2.435,-11.478z" fill="white"/>
</g>
</mask><mask id="mask6_1477_20898" style="mask-type:luminance" maskUnits="userSpaceOnUse" x="26" y="42" width="67" height="58" xmlns="http://www.w3.org/2000/svg">
<g id="SVGID_00000165928890544357328630000010163460873986055059__7" data-node-id="1477:21026">
<path id="Vector_49" data-node-id="1477:21027" d="M91.477,75.3c-1.625,-1.693 -3.94,-1.611 -6.006,-0.819c-1.052,0.403 -2.038,0.96 -2.983,1.562c-0.568,0.36 -1.698,1.673 -2.39,1.531c-0.478,-0.098 -0.552,-0.87 -0.699,-1.239c-1.284,-3.232 -4.05,-6.232 -6.267,-8.89c-2.4877,-2.98 -5.1429,-5.819 -7.788,-8.663c-4.5132,-4.852 -8.6643,-10.184 -11.4344,-16.194c-0.8644,0.76 -2.6003,2.291 -2.9583,2.655c-3.4535,3.519 -7.2162,6.8 -11.2727,9.64c-1.8814,1.317 -3.84,2.544 -5.9267,3.526c-1.857,0.874 -3.8776,1.599 -5.9624,1.619c-0.0132,0 -0.0223,-0.006 -0.0356,-0.007c-0.4738,1.477 -0.845,3.002 -1.0993,4.568c-3.0253,18.62 6.7332,31.448 24.3079,34.15c10.3738,1.596 20.3632,-2.559 26.8465,-10.117c2.527,2.509 7.491,1.718 11.233,-1.844c3.819,-3.635 5.208,-8.588 2.435,-11.478z" fill="white"/>
</g>
</mask><mask id="mask7_1477_20898" style="mask-type:luminance" maskUnits="userSpaceOnUse" x="26" y="42" width="67" height="58" xmlns="http://www.w3.org/2000/svg">
<g id="SVGID_00000165928890544357328630000010163460873986055059__8" data-node-id="1477:21030">
<path id="Vector_51" data-node-id="1477:21031" d="M91.477,75.3c-1.625,-1.693 -3.94,-1.611 -6.006,-0.819c-1.052,0.403 -2.038,0.96 -2.983,1.562c-0.568,0.36 -1.698,1.673 -2.39,1.531c-0.478,-0.098 -0.552,-0.87 -0.699,-1.239c-1.284,-3.232 -4.05,-6.232 -6.267,-8.89c-2.4877,-2.98 -5.1429,-5.819 -7.788,-8.663c-4.5132,-4.852 -8.6643,-10.184 -11.4344,-16.194c-0.8644,0.76 -2.6003,2.291 -2.9583,2.655c-3.4535,3.519 -7.2162,6.8 -11.2727,9.64c-1.8814,1.317 -3.84,2.544 -5.9267,3.526c-1.857,0.874 -3.8776,1.599 -5.9624,1.619c-0.0132,0 -0.0223,-0.006 -0.0356,-0.007c-0.4738,1.477 -0.845,3.002 -1.0993,4.568c-3.0253,18.62 6.7332,31.448 24.3079,34.15c10.3738,1.596 20.3632,-2.559 26.8465,-10.117c2.527,2.509 7.491,1.718 11.233,-1.844c3.819,-3.635 5.208,-8.588 2.435,-11.478z" fill="white"/>
</g>
</mask><mask id="mask8_1477_20898" style="mask-type:luminance" maskUnits="userSpaceOnUse" x="46" y="100" width="40" height="58" xmlns="http://www.w3.org/2000/svg">
<g id="SVGID_00000021811605315644006680000000064717756826091703_" data-node-id="1477:21096">
<path id="Vector_82" data-node-id="1477:21097" d="M49.8579,102.534c0,0 1.3129,5.251 6.7982,4.992c5.4854,-0.259 6.1017,-6.722 6.1017,-6.722c0,0 4.5202,-1.632 8.3917,3.388c3.8715,5.019 6.0215,20.284 6.0215,20.284c0,0 21.076,26.003 -3.872,32.846c0,0 -13.5483,2.422 -21.2903,-2.948l-5.8067,-50.933c0,0 0.96,-0.907 3.6559,-0.907z" fill="white"/>
</g>
</mask><mask id="mask9_1477_20898" style="mask-type:luminance" maskUnits="userSpaceOnUse" x="46" y="100" width="40" height="58" xmlns="http://www.w3.org/2000/svg">
<g id="SVGID_00000021811605315644006680000000064717756826091703__2" data-node-id="1477:21100">
<path id="Vector_84" data-node-id="1477:21101" d="M49.8579,102.534c0,0 1.3129,5.251 6.7982,4.992c5.4854,-0.259 6.1017,-6.722 6.1017,-6.722c0,0 4.5202,-1.632 8.3917,3.388c3.8715,5.019 6.0215,20.284 6.0215,20.284c0,0 21.076,26.003 -3.872,32.846c0,0 -13.5483,2.422 -21.2903,-2.948l-5.8067,-50.933c0,0 0.96,-0.907 3.6559,-0.907z" fill="white"/>
</g>
</mask><mask id="mask10_1477_20898" style="mask-type:luminance" maskUnits="userSpaceOnUse" x="46" y="100" width="40" height="58" xmlns="http://www.w3.org/2000/svg">
<g id="SVGID_00000021811605315644006680000000064717756826091703__3" data-node-id="1477:21104">
<path id="Vector_86" data-node-id="1477:21105" d="M49.8579,102.534c0,0 1.3129,5.251 6.7982,4.992c5.4854,-0.259 6.1017,-6.722 6.1017,-6.722c0,0 4.5202,-1.632 8.3917,3.388c3.8715,5.019 6.0215,20.284 6.0215,20.284c0,0 21.076,26.003 -3.872,32.846c0,0 -13.5483,2.422 -21.2903,-2.948l-5.8067,-50.933c0,0 0.96,-0.907 3.6559,-0.907z" fill="white"/>
</g>
</mask><mask id="mask11_1477_20898" style="mask-type:luminance" maskUnits="userSpaceOnUse" x="46" y="100" width="40" height="58" xmlns="http://www.w3.org/2000/svg">
<g id="SVGID_00000021811605315644006680000000064717756826091703__4" data-node-id="1477:21108">
<path id="Vector_88" data-node-id="1477:21109" d="M49.8579,102.534c0,0 1.3129,5.251 6.7982,4.992c5.4854,-0.259 6.1017,-6.722 6.1017,-6.722c0,0 4.5202,-1.632 8.3917,3.388c3.8715,5.019 6.0215,20.284 6.0215,20.284c0,0 21.076,26.003 -3.872,32.846c0,0 -13.5483,2.422 -21.2903,-2.948l-5.8067,-50.933c0,0 0.96,-0.907 3.6559,-0.907z" fill="white"/>
</g>
</mask><mask id="mask12_1477_20898" style="mask-type:luminance" maskUnits="userSpaceOnUse" x="46" y="100" width="40" height="58" xmlns="http://www.w3.org/2000/svg">
<g id="SVGID_00000021811605315644006680000000064717756826091703__5" data-node-id="1477:21112">
<path id="Vector_90" data-node-id="1477:21113" d="M49.8579,102.534c0,0 1.3129,5.251 6.7982,4.992c5.4854,-0.259 6.1017,-6.722 6.1017,-6.722c0,0 4.5202,-1.632 8.3917,3.388c3.8715,5.019 6.0215,20.284 6.0215,20.284c0,0 21.076,26.003 -3.872,32.846c0,0 -13.5483,2.422 -21.2903,-2.948l-5.8067,-50.933c0,0 0.96,-0.907 3.6559,-0.907z" fill="white"/>
</g>
</mask><mask id="mask13_1477_20898" style="mask-type:luminance" maskUnits="userSpaceOnUse" x="46" y="100" width="40" height="58" xmlns="http://www.w3.org/2000/svg">
<g id="SVGID_00000021811605315644006680000000064717756826091703__6" data-node-id="1477:21116">
<path id="Vector_92" data-node-id="1477:21117" d="M49.8579,102.534c0,0 1.3129,5.251 6.7982,4.992c5.4854,-0.259 6.1017,-6.722 6.1017,-6.722c0,0 4.5202,-1.632 8.3917,3.388c3.8715,5.019 6.0215,20.284 6.0215,20.284c0,0 21.076,26.003 -3.872,32.846c0,0 -13.5483,2.422 -21.2903,-2.948l-5.8067,-50.933c0,0 0.96,-0.907 3.6559,-0.907z" fill="white"/>
</g>
</mask><mask id="mask14_1477_20898" style="mask-type:luminance" maskUnits="userSpaceOnUse" x="46" y="100" width="40" height="58" xmlns="http://www.w3.org/2000/svg">
<g id="SVGID_00000021811605315644006680000000064717756826091703__7" data-node-id="1477:21120">
<path id="Vector_94" data-node-id="1477:21121" d="M49.8579,102.534c0,0 1.3129,5.251 6.7982,4.992c5.4854,-0.259 6.1017,-6.722 6.1017,-6.722c0,0 4.5202,-1.632 8.3917,3.388c3.8715,5.019 6.0215,20.284 6.0215,20.284c0,0 21.076,26.003 -3.872,32.846c0,0 -13.5483,2.422 -21.2903,-2.948l-5.8067,-50.933c0,0 0.96,-0.907 3.6559,-0.907z" fill="white"/>
</g>
</mask></defs><g id="Group_39" xmlns="http://www.w3.org/2000/svg">
<g id="Group_40">
<path id="Vector_38" opacity="0.39" d="M50.1686,169c27.7074,0 50.1684,-4.538 50.1684,-10.137c0,-5.598 -22.461,-10.136 -50.1684,-10.136c-27.7074,0 -50.1686,4.538 -50.1686,10.136c0,5.599 22.4612,10.137 50.1686,10.137z" fill="#7A5FFF"/>
<g id="Group_41">
<g id="Group_42">
<g id="Group_43">
<g id="Group_44">
<path id="Vector_39" d="M117.97,78.746c0,0 7.105,-2.433 8.289,-10.575c1.183,-8.143 -8.134,-9.429 -8.134,-9.429c5.174,-3.331 4.664,-10.048 4.664,-10.048c1.443,-12.044 -7.942,-13.559 -7.942,-13.559c0,0 4.098,-3.873 3.062,-9.642c-2.014,-11.215 -13.185,-9.569 -13.185,-9.569c-0.515,-5.746 -4.366,-10.652 -9.808,-12.142c-0.083,-0.023 -0.165,-0.045 -0.248,-0.066c-5.562,-1.458 -11.462,0.984 -14.713,5.891l-0.456,0.69c-0.129,-0.715 -0.407,-1.464 -0.761,-2.198c-1.827,-3.794 -5.294,-6.476 -9.3089,-7.542c-9.5399,-2.533 -14.9571,4.392 -14.9571,4.392c-3.4271,-5.278 -12.7596,-4.463 -12.7596,-4.463c-20.6051,2.584 -17.8879,23.506 -17.8879,23.506c0,0 -8.6521,-6.957 -16.3635,6.111c-7.7125,13.067 3.2583,23.838 3.2583,23.838c-1.918,0.538 -4.0322,3.975 -4.0322,3.975c-5.9491,13.341 11.0012,19.112 11.0012,19.112c-7.6677,13.093 9.4952,14.495 9.4952,14.495c0.9539,7.616 7.5446,2.283 7.5446,2.283c-1.3362,9.235 6.0478,5.681 6.0478,5.681c1.0799,5.658 6.4168,0.317 6.4168,0.317l0.9875,-0.08c-0.1038,2.329 1.5701,4.415 3.9782,4.786c2.1254,0.326 4.1237,-0.796 5.0013,-2.607c1.0058,2.174 3.2095,3.869 5.9796,4.295c4.1247,0.635 7.9423,-1.779 8.6237,-5.406c0.6376,1.143 1.776,2.003 3.191,2.22c1.921,0.296 3.732,-0.675 4.594,-2.269c2.509,7.255 8.85,2.314 8.85,2.314c4.901,4.255 7.711,-1.44 7.711,-1.44c0,0 4.396,4.307 10.339,-2.036c3.331,-3.555 1.157,-10.26 1.157,-10.26c0,0 5.421,5.09 10.267,0.377c5.358,-5.215 0.098,-10.952 0.098,-10.952z" fill="#1A0000" stroke="#8B2A0C" stroke-width="0.9416" stroke-miterlimit="10" stroke-linecap="round"/>
<g id="Group_45">
<g id="Group_46">
<path id="Vector_40" d="M15.2671,10.494c1.3169,-0.089 2.9766,0 3.0132,1.664c0.0142,0.659 -0.2319,1.414 -0.5736,1.977c-0.1871,0.308 -0.4037,0.624 -0.7769,0.742c-0.6925,0.218 -1.0373,-0.51 -0.7078,-1.03c0.6986,-1.1 2.6369,-0.933 3.3976,-0.026c0.7525,0.896 0.303,2.407 -0.8522,2.708c0.1139,0.192 0.2288,0.384 0.3427,0.576c0.9071,-0.688 2.0857,0.069 2.3247,1.019c0.1292,0.511 0.0519,1.059 -0.1342,1.548c-0.1302,0.342 -0.3468,0.652 -0.3,1.035c0.0875,0.718 0.9498,1.265 1.3363,1.831c0.543,0.797 0.8826,1.681 1.0576,2.62c0.0813,0.436 0.7596,0.251 0.6793,-0.183c-0.2065,-1.112 -0.6478,-2.162 -1.3342,-3.072c-0.479,-0.635 -1.079,-0.918 -0.8461,-1.845c0.1301,-0.516 0.3223,-0.939 0.304,-1.487c-0.059,-1.773 -1.9962,-3.159 -3.5857,-1.954c-0.2918,0.221 0.0295,0.658 0.3427,0.577c1.3505,-0.353 2.0675,-1.883 1.5946,-3.151c-0.5105,-1.371 -2.2536,-1.924 -3.5959,-1.498c-0.6773,0.215 -1.3586,0.701 -1.5386,1.41c-0.1546,0.608 0.1027,1.306 0.7149,1.556c1.6901,0.691 2.6816,-1.686 2.826,-2.914c0.1027,-0.873 -0.123,-1.764 -0.8715,-2.305c-0.8003,-0.58 -1.8711,-0.549 -2.8159,-0.486c-0.4505,0.029 -0.4545,0.718 -0.001,0.688z" fill="#1A0000"/>
</g>
</g>
<g id="Group_47">
<g id="Group_48">
<path id="Vector_41" d="M126.411,27.265c-1.419,-0.902 -3.313,-1.518 -4.374,0.203c-0.683,1.11 -1.139,3.483 0.307,4.222c0.592,0.303 1.268,0.125 1.649,-0.403c0.449,-0.626 0.296,-1.44 -0.109,-2.046c-0.805,-1.206 -2.595,-1.781 -3.903,-1.007c-1.294,0.766 -1.553,2.695 -0.462,3.723c0.308,0.289 0.702,-0.075 0.553,-0.418c-0.814,-1.885 -3.36,-1.299 -4.165,0.247c-0.229,0.439 -0.291,0.882 -0.382,1.356c-0.155,0.799 -0.959,0.828 -1.596,1.106c-1.07,0.467 -1.993,1.182 -2.733,2.067c-0.285,0.34 0.21,0.831 0.498,0.488c0.632,-0.757 1.389,-1.378 2.284,-1.818c0.656,-0.321 1.784,-0.387 2.122,-1.124c0.148,-0.319 0.104,-0.696 0.175,-1.033c0.099,-0.471 0.312,-0.937 0.66,-1.283c0.751,-0.745 2.085,-0.688 2.53,0.342c0.184,-0.139 0.368,-0.279 0.554,-0.417c-0.772,-0.727 -0.585,-2.085 0.319,-2.641c1.11,-0.682 2.946,0.055 3.194,1.336c0.082,0.428 -0.072,1.106 -0.726,0.969c-0.554,-0.115 -0.664,-0.801 -0.676,-1.245c-0.016,-0.563 0.101,-1.161 0.32,-1.681c0.258,-0.614 0.713,-1.143 1.437,-1.196c0.79,-0.056 1.54,0.446 2.171,0.848c0.378,0.243 0.732,-0.354 0.353,-0.595z" fill="#1A0000"/>
</g>
</g>
</g>
<path id="Vector_42" d="M29.8632,87.543l-1.5936,-2.393l-1.7115,2.08l0.4037,-3.296l-1.8671,-1.148l2.3512,-0.109l1.1308,-2.376l0.7027,2.513l2.3969,0.464l-1.8884,1.018z" fill="white" stroke="white" stroke-width="0.2243" stroke-miterlimit="10" stroke-linecap="round"/>
<path id="Vector_43" d="M28.1652,61.154c0,0 -0.0112,-34.676 34.1121,-31.733c32.3447,2.79 26.2667,45.488 17.7257,49.787l-0.571,1.093c0,0 5.246,-25.147 -6.142,-37.711c-7.4219,-8.187 -19.9038,-9.272 -28.9942,-2.898c-4.7359,3.32 -11.6897,12.282 -16.1306,21.462z" fill="#FFD44D" stroke="#FFD44D" stroke-width="0.8587" stroke-miterlimit="10"/>
</g>
<path id="Vector_44" d="M52.0827,96.353l0.4718,6.183h-3.6284c-0.4383,0 -0.721,0.453 -0.5207,0.835l4.8671,9.276h6.2521l5.2759,-10.843c0.2461,-0.507 -0.1485,-1.087 -0.72,-1.061l-3.2308,0.153v-5.158z" fill="#B44A24" stroke="#B44A24" stroke-width="0.4592" stroke-miterlimit="10"/>
</g>
<g id="Group_49">
<g id="Clip path group_5">
<mask id="mask4_1477_20898" style="mask-type:luminance" maskUnits="userSpaceOnUse" x="53" y="503" width="67" height="58">
<g id="SVGID_00000165928890544357328630000010163460873986055059__5">
<path id="Vector_45" d="M118.477 536.3C116.852 534.607 114.537 534.689 112.471 535.481C111.419 535.884 110.433 536.441 109.488 537.043C108.92 537.403 107.79 538.716 107.098 538.574C106.62 538.476 106.546 537.704 106.399 537.335C105.115 534.103 102.349 531.103 100.132 528.445C97.6443 525.465 94.9891 522.626 92.344 519.782C87.8308 514.93 83.6797 509.598 80.9096 503.588C80.0452 504.348 78.3093 505.879 77.9513 506.243C74.4978 509.762 70.7351 513.043 66.6786 515.883C64.7972 517.2 62.8386 518.427 60.7519 519.409C58.8949 520.283 56.8743 521.008 54.7895 521.028C54.7763 521.028 54.7672 521.022 54.7539 521.021C54.2801 522.498 53.9089 524.023 53.6546 525.589C50.6293 544.209 60.3878 557.037 77.9625 559.739C88.3363 561.335 98.3257 557.18 104.809 549.622C107.336 552.131 112.3 551.34 116.042 547.778C119.861 544.143 121.25 539.19 118.477 536.3Z" fill="white"/>
</g>
</mask>
<g mask="url(#mask4_1477_20898)">
<path id="Vector_46" d="M91.478,75.3c-1.625,-1.693 -3.941,-1.611 -6.006,-0.819c-1.053,0.403 -2.038,0.96 -2.984,1.562c-0.567,0.36 -1.697,1.673 -2.39,1.531c-0.478,-0.098 -0.552,-0.87 -0.698,-1.239c-1.285,-3.232 -4.051,-6.232 -6.268,-8.89c-2.4871,-2.98 -5.1423,-5.819 -7.7874,-8.663c-4.5131,-4.852 -8.6643,-10.184 -11.4344,-16.194c-0.8644,0.76 -2.6003,2.291 -2.9583,2.655c-3.4535,3.519 -7.2162,6.8 -11.2727,9.64c-1.8814,1.317 -3.84,2.544 -5.9267,3.526c-1.857,0.874 -3.8776,1.599 -5.9623,1.619c-0.0133,0 -0.0224,-0.006 -0.0356,-0.007c-0.4739,1.477 -0.8451,3.002 -1.0993,4.568c-3.0254,18.62 6.7331,31.448 24.3078,34.15c10.3738,1.596 20.3632,-2.559 26.8459,-10.117c2.527,2.509 7.492,1.718 11.233,-1.844c3.82,-3.635 5.209,-8.588 2.436,-11.478z" fill="#CD5428" stroke="#CD5428" stroke-width="0.8842" stroke-miterlimit="10"/>
</g>
</g>
<g id="Clip path group_6">
<mask id="mask5_1477_20898" style="mask-type:luminance" maskUnits="userSpaceOnUse" x="53" y="503" width="67" height="58">
<g id="SVGID_00000165928890544357328630000010163460873986055059__6">
<path id="Vector_47" d="M118.477 536.3C116.852 534.607 114.537 534.689 112.471 535.481C111.419 535.884 110.433 536.441 109.488 537.043C108.92 537.403 107.79 538.716 107.098 538.574C106.62 538.476 106.546 537.704 106.399 537.335C105.115 534.103 102.349 531.103 100.132 528.445C97.6443 525.465 94.9891 522.626 92.344 519.782C87.8308 514.93 83.6797 509.598 80.9096 503.588C80.0452 504.348 78.3093 505.879 77.9513 506.243C74.4978 509.762 70.7351 513.043 66.6786 515.883C64.7972 517.2 62.8386 518.427 60.7519 519.409C58.8949 520.283 56.8743 521.008 54.7895 521.028C54.7763 521.028 54.7672 521.022 54.7539 521.021C54.2801 522.498 53.9089 524.023 53.6546 525.589C50.6293 544.209 60.3878 557.037 77.9625 559.739C88.3363 561.335 98.3257 557.18 104.809 549.622C107.336 552.131 112.3 551.34 116.042 547.778C119.861 544.143 121.25 539.19 118.477 536.3Z" fill="white"/>
</g>
</mask>
<g mask="url(#mask5_1477_20898)">
<path id="Vector_48" opacity="0.49" d="M69.8344,89.19c-1.5366,4.253 -6.303,6.48 -10.6463,4.976c-4.3434,-1.505 -6.6183,-6.172 -5.0817,-10.424c1.5366,-4.252 6.303,-6.48 10.6464,-4.975c4.3433,1.504 6.6182,6.171 5.0816,10.423z" fill="#8B2A0C" stroke="#8B2A0C" stroke-width="1.0645" stroke-miterlimit="10"/>
</g>
</g>
<g id="Clip path group_7">
<mask id="mask6_1477_20898" style="mask-type:luminance" maskUnits="userSpaceOnUse" x="53" y="503" width="67" height="58">
<g id="SVGID_00000165928890544357328630000010163460873986055059__7">
<path id="Vector_49" d="M118.477 536.3C116.852 534.607 114.537 534.689 112.471 535.481C111.419 535.884 110.433 536.441 109.488 537.043C108.92 537.403 107.79 538.716 107.098 538.574C106.62 538.476 106.546 537.704 106.399 537.335C105.115 534.103 102.349 531.103 100.132 528.445C97.6443 525.465 94.9891 522.626 92.344 519.782C87.8308 514.93 83.6797 509.598 80.9096 503.588C80.0452 504.348 78.3093 505.879 77.9513 506.243C74.4978 509.762 70.7351 513.043 66.6786 515.883C64.7972 517.2 62.8386 518.427 60.7519 519.409C58.8949 520.283 56.8743 521.008 54.7895 521.028C54.7763 521.028 54.7672 521.022 54.7539 521.021C54.2801 522.498 53.9089 524.023 53.6546 525.589C50.6293 544.209 60.3878 557.037 77.9625 559.739C88.3363 561.335 98.3257 557.18 104.809 549.622C107.336 552.131 112.3 551.34 116.042 547.778C119.861 544.143 121.25 539.19 118.477 536.3Z" fill="white"/>
</g>
</mask>
<g mask="url(#mask6_1477_20898)">
<path id="Vector_50" opacity="0.49" d="M36.7162,82.527c-1.3749,3.806 -5.6409,5.8 -9.5287,4.453c-3.8867,-1.346 -5.9236,-5.523 -4.5477,-9.329c1.3749,-3.806 5.6409,-5.8 9.5287,-4.453c3.8867,1.346 5.9226,5.523 4.5477,9.329z" fill="#8B2A0C" stroke="#8B2A0C" stroke-width="0.9527" stroke-miterlimit="10"/>
</g>
</g>
<g id="Clip path group_8">
<mask id="mask7_1477_20898" style="mask-type:luminance" maskUnits="userSpaceOnUse" x="53" y="503" width="67" height="58">
<g id="SVGID_00000165928890544357328630000010163460873986055059__8">
<path id="Vector_51" d="M118.477 536.3C116.852 534.607 114.537 534.689 112.471 535.481C111.419 535.884 110.433 536.441 109.488 537.043C108.92 537.403 107.79 538.716 107.098 538.574C106.62 538.476 106.546 537.704 106.399 537.335C105.115 534.103 102.349 531.103 100.132 528.445C97.6443 525.465 94.9891 522.626 92.344 519.782C87.8308 514.93 83.6797 509.598 80.9096 503.588C80.0452 504.348 78.3093 505.879 77.9513 506.243C74.4978 509.762 70.7351 513.043 66.6786 515.883C64.7972 517.2 62.8386 518.427 60.7519 519.409C58.8949 520.283 56.8743 521.008 54.7895 521.028C54.7763 521.028 54.7672 521.022 54.7539 521.021C54.2801 522.498 53.9089 524.023 53.6546 525.589C50.6293 544.209 60.3878 557.037 77.9625 559.739C88.3363 561.335 98.3257 557.18 104.809 549.622C107.336 552.131 112.3 551.34 116.042 547.778C119.861 544.143 121.25 539.19 118.477 536.3Z" fill="white"/>
</g>
</mask>
<g mask="url(#mask7_1477_20898)">
<g id="Group_50">
<g id="Group_51">
<path id="Vector_52" d="M84.198,92.856l-1.592,-2.394l-1.713,2.081l0.404,-3.298l-1.867,-1.148l2.351,-0.107l1.131,-2.377l0.704,2.513l2.396,0.464l-1.889,1.019z" fill="white" stroke="white" stroke-width="0.2243" stroke-miterlimit="10" stroke-linecap="round"/>
<g id="Group_52">
<g id="Group_53">
<path id="Vector_53" d="M82.543,78.78c1.227,-1.083 2.646,-2.024 4.341,-2.457c0.837,-0.211 1.809,-0.257 2.71,0.143c0.893,0.425 1.531,1.205 1.758,2.174c0.185,0.978 -0.131,1.879 -0.514,2.639c-0.412,0.761 -0.914,1.441 -1.48,2.055c-1.121,1.235 -2.428,2.266 -3.835,3.124c1.152,-1.163 2.242,-2.365 3.207,-3.622c0.464,-0.641 0.914,-1.286 1.224,-1.975c0.317,-0.675 0.524,-1.401 0.383,-2.025c-0.112,-0.601 -0.593,-1.224 -1.173,-1.51c-0.593,-0.319 -1.359,-0.335 -2.119,-0.23c-1.532,0.254 -3.053,0.921 -4.502,1.684z" fill="#8B2A0C"/>
</g>
<g id="Group_54">
<path id="Vector_54" d="M77.747,88.691c0.379,-0.501 0.665,-1.058 0.936,-1.615c0.267,-0.56 0.504,-1.136 0.706,-1.722c0.43,-1.165 0.742,-2.369 1.055,-3.579c-0.076,0.62 -0.176,1.237 -0.319,1.847c-0.146,0.609 -0.318,1.212 -0.527,1.803c-0.441,1.169 -0.974,2.347 -1.851,3.266z" fill="#8B2A0C"/>
</g>
</g>
</g>
<g id="Group_55">
<g id="Group_56">
<path id="Vector_55" d="M53.8256,41.401c-1.1237,0.498 -2.1834,1.265 -2.6644,2.415c-0.4027,0.962 -0.362,2.176 0.3763,2.979c0.6386,0.694 1.8579,1.013 2.5728,0.244c0.5472,-0.59 0.5594,-1.619 -0.2033,-2.038c-0.9732,-0.535 -2.3695,-0.058 -3.1353,0.617c-0.8328,0.735 -1.1979,1.918 -0.9549,2.986c0.2197,0.966 1.1095,1.879 2.1915,1.534c0.8776,-0.279 1.1736,-1.492 0.2583,-1.926c-1.0474,-0.497 -2.2515,0.288 -2.6857,1.22c-0.5807,1.244 0.0692,2.616 0.9081,3.571c0.2797,0.318 0.7485,-0.145 0.4709,-0.461c-0.602,-0.685 -1.1248,-1.642 -0.8726,-2.573c0.1099,-0.404 0.3794,-0.774 0.7353,-1.007c0.2349,-0.153 1.4481,-0.561 1.3444,0.194c-0.0814,0.592 -0.9559,0.407 -1.2366,0.155c-0.362,-0.326 -0.5065,-0.841 -0.5217,-1.308c-0.0295,-0.909 0.4597,-1.777 1.2681,-2.225c0.5187,-0.288 2.3248,-0.719 2.16,0.38c-0.1637,1.096 -1.5397,0.641 -1.9637,-0.007c-1.1614,-1.779 0.7881,-3.522 2.2912,-4.188c0.3874,-0.171 0.0498,-0.733 -0.3387,-0.562z" fill="#1A0000"/>
</g>
</g>
<g id="Group_57">
<g id="Group_58">
<g id="Group_59">
<g id="Group_60">
<path id="Vector_56" d="M42.4955,74.375c0.2725,-0.783 0.7607,-1.523 1.4674,-2.06c0.6926,-0.543 1.6485,-0.849 2.5627,-0.734c0.4505,0.049 0.9081,0.175 1.32,0.4c0.3996,0.245 0.7485,0.571 0.9783,0.962c0.4749,0.774 0.5522,1.674 0.4078,2.487c-0.1302,-0.813 -0.4037,-1.592 -0.8685,-2.182c-0.4647,-0.593 -1.1501,-0.91 -1.9108,-0.972c-0.7505,-0.104 -1.502,0.102 -2.1732,0.486c-0.6681,0.397 -1.2702,0.958 -1.7837,1.613z" fill="#8B2A0C"/>
</g>
</g>
<g id="Group_61" opacity="0.53">
<g id="Group_62">
<path id="Vector_57" d="M42.5413,74.386c0,0 1.5874,-2.945 4.4796,-2.229c2.4833,0.616 2.2108,3.531 2.2108,3.531" fill="#8B2A0C"/>
<path id="Vector_58" d="M42.5413,74.385c0.302,-0.773 0.8196,-1.493 1.5457,-2.004c0.7129,-0.517 1.68,-0.788 2.5891,-0.639c0.4485,0.066 0.9,0.208 1.3037,0.449c0.3906,0.258 0.7261,0.599 0.9407,0.996c0.4454,0.792 0.4871,1.695 0.3112,2.5c-0.0986,-0.816 -0.3417,-1.606 -0.7841,-2.211c-0.4413,-0.61 -1.1145,-0.952 -1.8721,-1.043c-0.7455,-0.132 -1.5051,0.046 -2.1905,0.406c-0.6824,0.372 -1.3058,0.911 -1.8437,1.546z" fill="#8B2A0C"/>
</g>
</g>
</g>
<g id="Group_63">
<path id="Vector_59" d="M27.8701,66.308c-0.2634,4.247 3.065,7.894 7.4338,8.144c4.3688,0.25 8.1233,-2.99 8.3857,-7.237c0.2633,-4.248 -3.0651,-7.895 -7.4338,-8.145c-4.3678,-0.251 -8.1223,2.99 -8.3857,7.238z" fill="white"/>
<path id="Vector_60" d="M31.7193,64.852c-0.5918,3.221 1.3709,6.296 4.3851,6.868c3.0142,0.573 5.9368,-1.575 6.5297,-4.795c0.5929,-3.22 -1.3708,-6.295 -4.385,-6.868c-3.0142,-0.572 -5.9379,1.574 -6.5298,4.795z" fill="#280707" stroke="#280707" stroke-width="0.8912" stroke-miterlimit="10"/>
<g id="Group_64">
<g id="Group_65">
<path id="Vector_61" d="M43.8742,65.643c-0.4149,-0.848 -0.8787,-1.665 -1.44,-2.4c-0.5431,-0.743 -1.1349,-1.44 -1.8254,-2.008c-0.7027,-0.551 -1.4583,-0.995 -2.2586,-1.31c-0.8197,-0.264 -1.6648,-0.437 -2.5403,-0.415c-1.7797,-0.005 -3.5288,0.484 -4.9078,1.521c-1.4318,1 -2.3776,2.645 -2.9369,4.359l-0.0936,0.288l-0.2206,-0.083c-0.5227,-0.195 -1.0414,-0.403 -1.5549,-0.63l0.0234,-0.081l1.6108,0.43l-0.061,0.04c0.3386,-1.857 1.2579,-3.652 2.7528,-4.878c1.4837,-1.231 3.4586,-1.827 5.3878,-1.799c0.9722,-0.004 1.9372,0.187 2.8413,0.533c0.8888,0.383 1.7033,0.916 2.405,1.572c1.3709,1.342 2.34,3.035 2.9024,4.842z" fill="black"/>
</g>
<g id="Group_66">
<path id="Vector_62" d="M27.9433,64.24l-1.4908,-1.181l1.8803,0.367z" fill="black"/>
</g>
<g id="Group_67">
<path id="Vector_63" d="M28.6888,62.517l-1.2437,-1.351l1.7532,0.602z" fill="black"/>
</g>
</g>
<g id="Group_68">
<path id="Vector_64" d="M41.4724,72.483c-0.9682,0.775 -2.1061,1.354 -3.3183,1.729c-1.2112,0.378 -2.521,0.52 -3.8094,0.356c-0.6489,-0.066 -1.2682,-0.277 -1.8824,-0.483c-0.5736,-0.3 -1.1735,-0.553 -1.6556,-0.982c-0.5369,-0.354 -0.9366,-0.852 -1.3596,-1.31c-0.3875,-0.487 -0.6997,-1.03 -1.0129,-1.551c0.8603,0.888 1.7024,1.76 2.7315,2.363c0.9905,0.646 2.1162,1.059 3.2847,1.19c1.1644,0.161 2.3654,0.07 3.544,-0.171c1.1756,-0.258 2.3492,-0.625 3.478,-1.141z" fill="black"/>
</g>
</g>
<g id="Group_69">
<path id="Vector_65" d="M70.7543,73.83c-1.1187,4.396 -5.822,7.086 -10.506,6.01c-4.684,-1.077 -7.5752,-5.514 -6.4576,-9.91c1.1187,-4.395 5.822,-7.086 10.507,-6.009c4.684,1.076 7.5742,5.513 6.4566,9.909z" fill="white"/>
<path id="Vector_66" d="M70.7333,71.823c-0.4261,3.396 -3.4332,5.881 -6.7179,5.551c-3.2847,-0.329 -5.6023,-3.35 -5.1762,-6.746c0.4261,-3.396 3.4332,-5.881 6.7179,-5.552c3.2847,0.331 5.6023,3.351 5.1762,6.747z" fill="#280707" stroke="#280707" stroke-width="0.945" stroke-miterlimit="10"/>
<g id="Group_70">
<g id="Group_71">
<path id="Vector_67" d="M54.1354,68.55c0.9356,-1.818 2.4162,-3.384 4.3006,-4.454c0.9437,-0.538 2.0166,-0.874 3.1261,-1.012c1.1105,-0.094 2.2504,-0.034 3.3192,0.269c2.1082,0.544 4.0719,1.851 5.3146,3.681c0.6183,0.918 0.9406,1.984 1.1155,3.024c0.179,1.051 0.1373,2.102 -0.122,3.134l-0.2562,-0.306c0.5969,0.071 1.1938,0.157 1.7897,0.264l-0.002,0.089l-1.7959,-0.041l-0.0569,-0.001l0.0071,-0.058c0.24,-1.959 -0.178,-4.039 -1.3292,-5.673c-1.1532,-1.637 -2.9725,-2.736 -4.9138,-3.27c-0.9661,-0.3 -1.9871,-0.373 -2.9939,-0.314c-1.0037,0.113 -1.986,0.386 -2.9013,0.815c-1.8091,0.897 -3.36,2.281 -4.5243,3.901z" fill="black"/>
</g>
<g id="Group_72">
<path id="Vector_68" d="M70.9181,71.023l2.0501,0.204l-1.9159,0.741z" fill="black"/>
</g>
<g id="Group_73">
<path id="Vector_69" d="M70.5636,69.107l1.9912,-0.07l-1.7197,0.986z" fill="black"/>
</g>
</g>
<g id="Group_74">
<path id="Vector_70" d="M54.4896,76.152c0.5075,0.424 1.0149,0.835 1.5661,1.185c0.5268,0.378 1.083,0.712 1.6546,1.006c1.143,0.583 2.3461,1.034 3.5928,1.216c1.2417,0.218 2.5241,0.138 3.7515,-0.201c1.2559,-0.28 2.3908,-0.924 3.5674,-1.544c-0.4942,0.429 -0.9925,0.882 -1.5498,1.254c-0.5857,0.326 -1.1613,0.695 -1.8193,0.897c-0.6285,0.291 -1.3241,0.359 -2.0054,0.489c-0.6915,0.02 -1.3912,0.048 -2.0756,-0.078c-1.3677,-0.221 -2.6704,-0.741 -3.7952,-1.491c-1.1227,-0.744 -2.1335,-1.647 -2.8871,-2.733z" fill="black"/>
</g>
</g>
<g id="Group_75">
<path id="Vector_71" opacity="0.49" d="M50.1928,78.559c-0.2237,1.384 -1.679,3.866 -4.9169,3.435c-2.2393,-0.297 -3.6945,-2.826 -3.4708,-4.21c0,0 2.1559,-0.442 4.4237,-0.307c1.5762,0.095 3.964,1.082 3.964,1.082z" fill="#8B2A0C"/>
<g id="Group_76">
<path id="Vector_72" d="M40.3508,76.527c0.836,0.703 1.7166,1.309 2.637,1.798c0.9254,0.478 1.9047,0.824 2.9074,0.917c0.9966,0.108 2.0267,0 2.9928,-0.371c0.5075,-0.126 0.9498,-0.418 1.442,-0.625c0.4699,-0.249 0.9071,-0.559 1.4024,-0.817c-0.357,0.406 -0.7281,0.818 -1.1461,1.182c-0.4576,0.31 -0.8786,0.703 -1.4156,0.908c-1.0037,0.547 -2.2169,0.734 -3.3742,0.622c-1.1634,-0.128 -2.2657,-0.572 -3.186,-1.218c-0.9204,-0.646 -1.7146,-1.45 -2.2597,-2.396z" fill="#3B130E"/>
</g>
</g>
<g id="Group_77">
<path id="Vector_73" d="M30.4918,56.738c0.2115,-1.02 0.7982,-1.955 1.5884,-2.676c0.778,-0.744 1.7624,-1.265 2.7905,-1.604c1.0444,-0.292 2.1264,-0.407 3.1799,-0.303c0.5258,0.033 1.0383,0.173 1.5437,0.28c0.4933,0.19 0.9834,0.343 1.4451,0.583l0.0102,0.005c0.0224,0.012 0.0305,0.039 0.0193,0.06c-0.0091,0.017 -0.0285,0.026 -0.0468,0.023l-1.4745,-0.198c-0.4953,-0.012 -0.9905,-0.066 -1.4848,-0.044c-0.9894,0.025 -1.9738,0.171 -2.9155,0.455c-1.8681,0.57 -3.604,1.762 -4.5712,3.458c-0.0122,0.022 -0.0406,0.03 -0.062,0.017c-0.0183,-0.01 -0.0264,-0.03 -0.0223,-0.048z" fill="#2E2E2E"/>
</g>
<g id="Group_78">
<path id="Vector_74" d="M72.2088,62.534c-0.5665,-0.835 -1.2295,-1.514 -1.8956,-2.131c-0.6844,-0.603 -1.4084,-1.124 -2.1976,-1.558c-0.3986,-0.212 -0.7952,-0.43 -1.2264,-0.593c-0.4078,-0.219 -0.8614,-0.329 -1.2966,-0.519l-2.8128,-0.929l-0.0153,-0.005c-0.0234,-0.008 -0.0356,-0.033 -0.0285,-0.056c0.0071,-0.019 0.0254,-0.031 0.0448,-0.03l1.4949,0.087c0.4921,0.082 0.9925,0.125 1.4786,0.241c0.9773,0.216 1.9271,0.55 2.8139,1.018c1.7277,0.989 3.1636,2.552 3.7291,4.456c0.0071,0.022 -0.0072,0.046 -0.0306,0.053c-0.0193,0.005 -0.0386,-0.002 -0.0488,-0.018z" fill="#2E2E2E"/>
</g>
</g>
</g>
</g>
</g>
</g>
<g id="Group_79">
<g id="Group_80">
<path id="Vector_75" d="M19.8622,152.147c0,0 6.6162,-43.301 22.0574,-30.988l0.5827,30.988l-7.0972,-1.727l-4.4359,9.776l-15.8774,-2.449c0,0 1.6535,-1.824 4.7704,-5.6z" fill="#9E332D" stroke="#9E332D" stroke-width="0.7319" stroke-miterlimit="10"/>
<path id="Vector_76" opacity="0.49" d="M40.8968,123.876c-0.36,1.365 -2.6176,1.98 -5.044,1.373c-2.4265,-0.606 -4.1014,-2.205 -3.7414,-3.57c0.36,-1.365 2.6176,-1.979 5.0441,-1.373c2.4254,0.606 4.1002,2.205 3.7413,3.57z" fill="#8B2A0C" stroke="#8B2A0C" stroke-width="0.4387" stroke-miterlimit="10"/>
<path id="Vector_77" d="M21.1549,145.488c-0.8746,3.912 -1.2946,6.658 -1.2946,6.658c-3.1169,3.776 -4.7705,5.599 -4.7705,5.599l15.8775,2.449l4.1338,-9.11c-4.5802,-2.022 -9.2337,-3.884 -13.9462,-5.596z" fill="white" stroke="white" stroke-width="0.7319" stroke-miterlimit="10"/>
<path id="Vector_78" d="M26.2853,153.229c-1.2091,-0.296 -2.4162,-0.6 -3.6101,-0.951c-0.8817,-0.26 -1.7675,-0.733 -2.6817,-0.938c-0.0885,0.518 -0.1332,0.806 -0.1332,0.806c-3.1169,3.776 -4.7705,5.599 -4.7705,5.599l15.8775,2.449l2.3115,-5.095c-2.3298,-0.63 -4.6454,-1.296 -6.9935,-1.87z" fill="black" stroke="black" stroke-width="0.7319" stroke-miterlimit="10"/>
</g>
<path id="Vector_79" d="M38.5418,126.935c-1.3728,7.847 -2.223,15.805 -2.0044,23.76l5.9634,1.452l-0.5827,-30.989c-0.6865,-0.547 -1.3556,-0.982 -2.0095,-1.32c-0.4851,2.361 -0.9518,4.724 -1.3668,7.097z" fill="#7A5FFF" stroke="#7A5FFF" stroke-width="0.6888" stroke-miterlimit="10"/>
<g id="Group_81">
<path id="Vector_80" d="M46.3394,103.456c0,0 -5.2719,-1.313 -5.0278,20.776c0.2441,22.091 -0.0081,29.613 -0.0081,29.613c0,0 -6.5776,2.388 -5.2362,2.746c1.3413,0.358 12.9273,-1.074 12.9273,-1.074c0,0 3.9579,-39.881 -2.6552,-52.061z" fill="#B44A24" stroke="#B44A24" stroke-width="0.7324" stroke-miterlimit="10"/>
<path id="Vector_81" d="M49.5945,120.263c0.0814,-0.017 0.1617,-0.04 0.2441,-0.058c-0.4698,-6.868 -1.501,-13.072 -3.4983,-16.749c0,0 -4.6128,-1.146 -5.0084,16.794c2.6776,0.693 5.5566,0.577 8.2626,0.013z" fill="white" stroke="white" stroke-width="0.7324" stroke-miterlimit="10"/>
</g>
<g id="Group_82">
<g id="Clip path group_9">
<mask id="mask8_1477_20898" style="mask-type:luminance" maskUnits="userSpaceOnUse" x="73" y="561" width="40" height="58">
<g id="SVGID_00000021811605315644006680000000064717756826091703_">
<path id="Vector_82" d="M76.8579 563.534C76.8579 563.534 78.1708 568.785 83.6561 568.526C89.1415 568.267 89.7578 561.804 89.7578 561.804C89.7578 561.804 94.278 560.172 98.1495 565.192C102.021 570.211 104.171 585.476 104.171 585.476C104.171 585.476 125.247 611.479 100.299 618.322C100.299 618.322 86.7507 620.744 79.0087 615.374L73.202 564.441C73.202 564.441 74.162 563.534 76.8579 563.534Z" fill="white"/>
</g>
</mask>
<g mask="url(#mask8_1477_20898)">
<path id="Vector_83" d="M49.8572,102.534c0,0 1.3128,5.251 6.7982,4.992c5.4854,-0.259 6.1016,-6.722 6.1016,-6.722c0,0 4.5203,-1.632 8.3918,3.388c3.8712,5.019 6.0212,20.284 6.0212,20.284c0,0 21.076,26.003 -3.871,32.846c0,0 -13.5491,2.422 -21.291,-2.948l-5.8067,-50.933c0,0 0.96,-0.907 3.6559,-0.907z" fill="#7A5FFF" stroke="#7A5FFF" stroke-width="0.6888" stroke-miterlimit="10"/>
</g>
</g>
<g id="Clip path group_10">
<mask id="mask9_1477_20898" style="mask-type:luminance" maskUnits="userSpaceOnUse" x="73" y="561" width="40" height="58">
<g id="SVGID_00000021811605315644006680000000064717756826091703__2">
<path id="Vector_84" d="M76.8579 563.534C76.8579 563.534 78.1708 568.785 83.6561 568.526C89.1415 568.267 89.7578 561.804 89.7578 561.804C89.7578 561.804 94.278 560.172 98.1495 565.192C102.021 570.211 104.171 585.476 104.171 585.476C104.171 585.476 125.247 611.479 100.299 618.322C100.299 618.322 86.7507 620.744 79.0087 615.374L73.202 564.441C73.202 564.441 74.162 563.534 76.8579 563.534Z" fill="white"/>
</g>
</mask>
<g mask="url(#mask9_1477_20898)">
<path id="Vector_85" d="M52.5057,126.524l-3.1424,-8.265c-0.0274,-0.073 -0.1078,-0.125 -0.179,-0.116l-6.729,0.815c-0.1363,0.017 -0.2502,-0.164 -0.1536,-0.243l5.8423,-4.796c0.0275,-0.022 0.0397,-0.058 0.0336,-0.098l-0.9743,-6.569c-0.0193,-0.13 0.1445,-0.166 0.239,-0.055l4.3881,5.205c0.0478,0.057 0.1241,0.081 0.181,0.057l6.1017,-2.6c0.1149,-0.048 0.2633,0.098 0.2084,0.206l-2.9338,5.737c-0.0265,0.051 -0.0051,0.122 0.0488,0.17l5.6236,4.913c0.1129,0.099 0.056,0.252 -0.0813,0.218l-7.1175,-1.706c-0.0712,-0.017 -0.1323,0.018 -0.1404,0.082l-0.9478,7.074c-0.0163,0.131 -0.2146,0.109 -0.2674,-0.029z" fill="#FFD44D"/>
</g>
</g>
<g id="Clip path group_11">
<mask id="mask10_1477_20898" style="mask-type:luminance" maskUnits="userSpaceOnUse" x="73" y="561" width="40" height="58">
<g id="SVGID_00000021811605315644006680000000064717756826091703__3">
<path id="Vector_86" d="M76.8579 563.534C76.8579 563.534 78.1708 568.785 83.6561 568.526C89.1415 568.267 89.7578 561.804 89.7578 561.804C89.7578 561.804 94.278 560.172 98.1495 565.192C102.021 570.211 104.171 585.476 104.171 585.476C104.171 585.476 125.247 611.479 100.299 618.322C100.299 618.322 86.7507 620.744 79.0087 615.374L73.202 564.441C73.202 564.441 74.162 563.534 76.8579 563.534Z" fill="white"/>
</g>
</mask>
<g mask="url(#mask10_1477_20898)">
<path id="Vector_87" d="M76.427,142.23l0.567,-8.783c0.005,-0.078 -0.046,-0.158 -0.116,-0.179l-6.4938,-2.001c-0.1322,-0.041 -0.1607,-0.251 -0.0397,-0.283l7.3405,-1.974c0.034,-0.009 0.06,-0.037 0.071,-0.075l1.845,-6.361c0.036,-0.125 0.201,-0.092 0.241,0.048l1.846,6.513c0.021,0.07 0.081,0.124 0.142,0.125l6.664,0.125c0.126,0.003 0.201,0.197 0.106,0.271l-5.073,4.015c-0.045,0.036 -0.056,0.107 -0.025,0.173l3.098,6.751c0.062,0.137 -0.053,0.251 -0.165,0.166l-5.8,-4.448c-0.058,-0.045 -0.128,-0.037 -0.163,0.018l-3.811,6.037c-0.07,0.11 -0.243,0.009 -0.234,-0.138z" fill="#FFD44D"/>
</g>
</g>
<g id="Clip path group_12">
<mask id="mask11_1477_20898" style="mask-type:luminance" maskUnits="userSpaceOnUse" x="73" y="561" width="40" height="58">
<g id="SVGID_00000021811605315644006680000000064717756826091703__4">
<path id="Vector_88" d="M76.8579 563.534C76.8579 563.534 78.1708 568.785 83.6561 568.526C89.1415 568.267 89.7578 561.804 89.7578 561.804C89.7578 561.804 94.278 560.172 98.1495 565.192C102.021 570.211 104.171 585.476 104.171 585.476C104.171 585.476 125.247 611.479 100.299 618.322C100.299 618.322 86.7507 620.744 79.0087 615.374L73.202 564.441C73.202 564.441 74.162 563.534 76.8579 563.534Z" fill="white"/>
</g>
</mask>
<g mask="url(#mask11_1477_20898)">
<path id="Vector_89" d="M52.2915,158.879l-4.443,-7.667c-0.0386,-0.068 -0.1261,-0.106 -0.1962,-0.086l-6.4993,1.878c-0.1322,0.038 -0.2735,-0.121 -0.1912,-0.216l4.9759,-5.67c0.0234,-0.027 0.0295,-0.064 0.0173,-0.102l-2.0298,-6.337c-0.0397,-0.124 0.1149,-0.187 0.2258,-0.092l5.1731,4.445c0.057,0.049 0.1363,0.06 0.1871,0.028l5.5901,-3.542c0.1058,-0.066 0.2756,0.054 0.239,0.17l-1.9566,6.138c-0.0173,0.055 0.0143,0.12 0.0753,0.159l6.3436,3.96c0.1282,0.079 0.0967,0.239 -0.0447,0.229l-7.2925,-0.552c-0.0732,-0.006 -0.1271,0.039 -0.125,0.104l0.2186,7.142c0.0071,0.13 -0.1932,0.14 -0.2675,0.011z" fill="#FFD44D"/>
</g>
</g>
<g id="Clip path group_13">
<mask id="mask12_1477_20898" style="mask-type:luminance" maskUnits="userSpaceOnUse" x="73" y="561" width="40" height="58">
<g id="SVGID_00000021811605315644006680000000064717756826091703__5">
<path id="Vector_90" d="M76.8579 563.534C76.8579 563.534 78.1708 568.785 83.6561 568.526C89.1415 568.267 89.7578 561.804 89.7578 561.804C89.7578 561.804 94.278 560.172 98.1495 565.192C102.021 570.211 104.171 585.476 104.171 585.476C104.171 585.476 125.247 611.479 100.299 618.322C100.299 618.322 86.7507 620.744 79.0087 615.374L73.202 564.441C73.202 564.441 74.162 563.534 76.8579 563.534Z" fill="white"/>
</g>
</mask>
<g mask="url(#mask12_1477_20898)">
<path id="Vector_91" d="M66.0264,111.096l0.2065,-3.191c0.002,-0.028 -0.0173,-0.057 -0.0427,-0.065l-2.3593,-0.726c-0.0478,-0.015 -0.058,-0.091 -0.0143,-0.103l2.6664,-0.717c0.0122,-0.003 0.0214,-0.013 0.0255,-0.027l0.6701,-2.311c0.0132,-0.046 0.0732,-0.034 0.0875,0.017l0.6712,2.366c0.0071,0.026 0.0295,0.045 0.0518,0.046l2.4203,0.045c0.0458,0.001 0.0733,0.071 0.0387,0.099l-1.8427,1.459c-0.0163,0.013 -0.0203,0.039 -0.0092,0.062l1.1258,2.453c0.0224,0.049 -0.0193,0.091 -0.06,0.059l-2.1071,-1.615c-0.0213,-0.016 -0.0468,-0.013 -0.059,0.005l-1.3851,2.193c-0.0254,0.042 -0.0874,0.005 -0.0844,-0.049z" fill="#FFD44D"/>
</g>
</g>
<g id="Clip path group_14">
<mask id="mask13_1477_20898" style="mask-type:luminance" maskUnits="userSpaceOnUse" x="73" y="561" width="40" height="58">
<g id="SVGID_00000021811605315644006680000000064717756826091703__6">
<path id="Vector_92" d="M76.8579 563.534C76.8579 563.534 78.1708 568.785 83.6561 568.526C89.1415 568.267 89.7578 561.804 89.7578 561.804C89.7578 561.804 94.278 560.172 98.1495 565.192C102.021 570.211 104.171 585.476 104.171 585.476C104.171 585.476 125.247 611.479 100.299 618.322C100.299 618.322 86.7507 620.744 79.0087 615.374L73.202 564.441C73.202 564.441 74.162 563.534 76.8579 563.534Z" fill="white"/>
</g>
</mask>
<g mask="url(#mask13_1477_20898)">
<path id="Vector_93" d="M61.5566,136.752l-0.7352,-3.121c-0.0061,-0.028 -0.0326,-0.05 -0.059,-0.05l-2.4651,-0.024c-0.0498,-0.001 -0.0823,-0.071 -0.0437,-0.095l2.3369,-1.449c0.0112,-0.007 0.0173,-0.019 0.0173,-0.033l-0.0346,-2.41c-0.001,-0.048 0.06,-0.052 0.0885,-0.009l1.3312,2.079c0.0142,0.023 0.0406,0.035 0.062,0.029l2.3247,-0.648c0.0437,-0.012 0.0905,0.048 0.0651,0.084l-1.3342,1.925c-0.0122,0.017 -0.0081,0.044 0.0091,0.063l1.7909,2.032c0.0356,0.041 0.0081,0.093 -0.0397,0.075l-2.4834,-0.949c-0.0254,-0.01 -0.0488,0 -0.0549,0.023l-0.6823,2.5c-0.0112,0.048 -0.0814,0.031 -0.0936,-0.022z" fill="#FFD44D"/>
</g>
</g>
<g id="Clip path group_15">
<mask id="mask14_1477_20898" style="mask-type:luminance" maskUnits="userSpaceOnUse" x="73" y="561" width="40" height="58">
<g id="SVGID_00000021811605315644006680000000064717756826091703__7">
<path id="Vector_94" d="M76.8579 563.534C76.8579 563.534 78.1708 568.785 83.6561 568.526C89.1415 568.267 89.7578 561.804 89.7578 561.804C89.7578 561.804 94.278 560.172 98.1495 565.192C102.021 570.211 104.171 585.476 104.171 585.476C104.171 585.476 125.247 611.479 100.299 618.322C100.299 618.322 86.7507 620.744 79.0087 615.374L73.202 564.441C73.202 564.441 74.162 563.534 76.8579 563.534Z" fill="white"/>
</g>
</mask>
<g mask="url(#mask14_1477_20898)">
<path id="Vector_95" d="M71.6035,158.754l0.2065,-3.191c0.002,-0.028 -0.0173,-0.057 -0.0417,-0.064l-2.3593,-0.727c-0.0478,-0.015 -0.058,-0.091 -0.0143,-0.103l2.6665,-0.717c0.0122,-0.003 0.0223,-0.013 0.0264,-0.027l0.6702,-2.311c0.0132,-0.045 0.0732,-0.033 0.0874,0.017l0.6708,2.366c0.008,0.026 0.03,0.045 0.051,0.046l2.421,0.046c0.045,0.001 0.073,0.07 0.038,0.098l-1.843,1.459c-0.016,0.013 -0.02,0.039 -0.009,0.063l1.126,2.452c0.022,0.05 -0.019,0.091 -0.06,0.06l-2.107,-1.616c-0.021,-0.016 -0.047,-0.014 -0.059,0.006l-1.384,2.192c-0.0275,0.041 -0.0905,0.005 -0.0865,-0.049z" fill="#FFD44D"/>
</g>
</g>
</g>
<g id="Group_83">
<path id="Vector_96" d="M54.8147,123.878c0,0 1.3983,-14.926 7.9433,-23.073c0,0 5.824,-1.816 9.4779,5.108c0.5186,0.983 0.4718,2.167 -0.1566,3.088l-10.7643,15.786z" fill="#9E332D" stroke="#9E332D" stroke-width="0.7319" stroke-miterlimit="10"/>
<path id="Vector_97" d="M63.451,114.874c1.4207,0.308 2.943,0.345 4.4227,0.293l4.205,-6.166c0.6285,-0.921 0.6753,-2.104 0.1566,-3.088c-3.6538,-6.924 -9.4778,-5.108 -9.4778,-5.108c-2.4966,3.107 -4.2417,7.199 -5.4488,11.074c1.8681,1.322 3.8125,2.492 6.1423,2.995z" fill="white" stroke="white" stroke-width="0.7324" stroke-miterlimit="10"/>
</g>
<g id="Group_84">
<path id="Vector_98" d="M41.4753,155.119c0,0 4.744,-42.885 20.8015,-38.762c0,0 5.9501,1.98 12.6882,16.988c0,0 -1.18,13.195 -20.4699,22.417l-5.5362,6.367l-7.6453,-0.455z" fill="#CD5428" stroke="#CD5428" stroke-width="0.9305" stroke-miterlimit="10"/>
<path id="Vector_99" d="M57.345,149.508c-0.064,0.009 -0.1342,0.005 -0.2115,-0.023c-4.6393,-1.63 -10.0718,-1.129 -14.8981,-1.653c-0.7587,4.226 -1.1624,7.149 -1.1624,7.149l0.239,6.694l7.6453,0.455l5.5362,-6.368c0.2115,-0.1 0.4078,-0.205 0.6153,-0.306c0.2756,-0.826 0.5522,-1.65 0.8959,-2.455c0.4912,-1.147 1.0637,-2.26 1.4756,-3.438c-0.0448,-0.017 -0.0895,-0.037 -0.1353,-0.055z" fill="white"/>
<g id="Group_85">
<path id="Vector_100" d="M54.6971,156.23c0.8502,-2.15 1.7227,-4.293 2.6227,-6.423l2.7376,-6.375l2.8363,-6.333c0.9579,-2.106 1.9433,-4.2 2.9521,-6.285c-0.8501,2.152 -1.7216,4.294 -2.6227,6.423l-2.7375,6.375l-2.8373,6.333c-0.9569,2.106 -1.9434,4.2 -2.9512,6.285z" fill="#8B2A0C"/>
</g>
<g id="Group_86">
<path id="Vector_101" d="M41.5749,154.965c-0.0305,0 -0.0518,-0.011 -0.0793,-0.016c-0.0122,0.108 -0.0193,0.171 -0.0193,0.171l-0.1627,6.556l10.3982,0.824l2.6287,-6.558c-4.0535,-1.235 -8.6104,-0.979 -12.7656,-0.977z" fill="black" stroke="black" stroke-width="0.9305" stroke-miterlimit="10"/>
<g id="Vector_102">
<path d="M41.3138,158.963c0,0 -4.6494,3.241 -4.3403,3.168c0.3081,-0.073 11.9856,0 11.9856,0" fill="black"/>
<path d="M41.3138,158.963c0,0 -4.6494,3.241 -4.3403,3.168c0.3081,-0.073 11.9856,0 11.9856,0" stroke="black" stroke-width="0.9305" stroke-miterlimit="10"/>
</g>
</g>
<path id="Vector_103" opacity="0.49" d="M62.6668,121.709c-0.0671,1.408 -2.1487,2.461 -4.6504,2.352c-2.5017,-0.108 -4.4746,-1.338 -4.4074,-2.746c0.0671,-1.407 2.1498,-2.461 4.6504,-2.352c2.5017,0.107 4.4746,1.337 4.4074,2.746z" fill="#8B2A0C" stroke="#8B2A0C" stroke-width="0.4387" stroke-miterlimit="10"/>
</g>
</g>
</g>
</g>
<g id="Group_87">
<g id="Group_88">
<g id="Group_89">
<path id="Vector_104" d="M90,46.595c0,21.074 17.453,38.182 38.999,38.182c21.525,0 38.999,-17.087 38.999,-38.182c0,-21.075 -17.453,-38.183 -38.999,-38.183c-21.546,0 -38.999,17.108 -38.999,38.183z" fill="#7A5FFF"/>
</g>
</g>
</g>
<path id="You said you want to pass. I’m just helping you not panic later." d="M105.52,25.424l-1.816,3.472v2.104h-0.728v-2.104l-1.824,-3.472h0.808l1.376,2.824l1.376,-2.824zM108.2,31.072c-0.411,0 -0.784,-0.093 -1.12,-0.28c-0.331,-0.187 -0.592,-0.451 -0.784,-0.792c-0.187,-0.347 -0.28,-0.747 -0.28,-1.2c0,-0.448 0.096,-0.843 0.288,-1.184c0.197,-0.347 0.464,-0.611 0.8,-0.792c0.336,-0.187 0.712,-0.28 1.128,-0.28c0.416,0 0.792,0.093 1.128,0.28c0.336,0.181 0.6,0.443 0.792,0.784c0.197,0.341 0.296,0.739 0.296,1.192c0,0.453 -0.101,0.853 -0.304,1.2c-0.197,0.341 -0.467,0.605 -0.808,0.792c-0.341,0.187 -0.72,0.28 -1.136,0.28zM108.2,30.432c0.261,0 0.507,-0.061 0.736,-0.184c0.229,-0.123 0.413,-0.307 0.552,-0.552c0.144,-0.245 0.216,-0.544 0.216,-0.896c0,-0.352 -0.069,-0.651 -0.208,-0.896c-0.139,-0.245 -0.32,-0.427 -0.544,-0.544c-0.224,-0.123 -0.467,-0.184 -0.728,-0.184c-0.267,0 -0.512,0.061 -0.736,0.184c-0.219,0.117 -0.395,0.299 -0.528,0.544c-0.133,0.245 -0.2,0.544 -0.2,0.896c0,0.357 0.064,0.659 0.192,0.904c0.133,0.245 0.309,0.429 0.528,0.552c0.219,0.117 0.459,0.176 0.72,0.176zM115.293,26.616v4.384h-0.728v-0.648c-0.139,0.224 -0.333,0.4 -0.584,0.528c-0.245,0.123 -0.517,0.184 -0.816,0.184c-0.341,0 -0.648,-0.069 -0.92,-0.208c-0.272,-0.144 -0.488,-0.357 -0.648,-0.64c-0.155,-0.283 -0.232,-0.627 -0.232,-1.032v-2.568h0.72v2.472c0,0.432 0.109,0.765 0.328,1c0.219,0.229 0.517,0.344 0.896,0.344c0.389,0 0.696,-0.12 0.92,-0.36c0.224,-0.24 0.336,-0.589 0.336,-1.048v-2.408zM120.207,31.072c-0.336,0 -0.637,-0.056 -0.904,-0.168c-0.267,-0.117 -0.477,-0.277 -0.632,-0.48c-0.155,-0.208 -0.24,-0.445 -0.256,-0.712h0.752c0.021,0.219 0.123,0.397 0.304,0.536c0.187,0.139 0.429,0.208 0.728,0.208c0.277,0 0.496,-0.061 0.656,-0.184c0.16,-0.123 0.24,-0.277 0.24,-0.464c0,-0.192 -0.085,-0.333 -0.256,-0.424c-0.171,-0.096 -0.435,-0.189 -0.792,-0.28c-0.325,-0.085 -0.592,-0.171 -0.8,-0.256c-0.203,-0.091 -0.379,-0.221 -0.528,-0.392c-0.144,-0.176 -0.216,-0.405 -0.216,-0.688c0,-0.224 0.067,-0.429 0.2,-0.616c0.133,-0.187 0.323,-0.333 0.568,-0.44c0.245,-0.112 0.525,-0.168 0.84,-0.168c0.485,0 0.877,0.123 1.176,0.368c0.299,0.245 0.459,0.581 0.48,1.008h-0.728c-0.016,-0.229 -0.109,-0.413 -0.28,-0.552c-0.165,-0.139 -0.389,-0.208 -0.672,-0.208c-0.261,0 -0.469,0.056 -0.624,0.168c-0.155,0.112 -0.232,0.259 -0.232,0.44c0,0.144 0.045,0.264 0.136,0.36c0.096,0.091 0.213,0.165 0.352,0.224c0.144,0.053 0.341,0.115 0.592,0.184c0.315,0.085 0.571,0.171 0.768,0.256c0.197,0.08 0.365,0.203 0.504,0.368c0.144,0.165 0.219,0.381 0.224,0.648c0,0.24 -0.067,0.456 -0.2,0.648c-0.133,0.192 -0.323,0.344 -0.568,0.456c-0.24,0.107 -0.517,0.16 -0.832,0.16zM122.563,28.792c0,-0.448 0.09,-0.84 0.272,-1.176c0.181,-0.341 0.429,-0.605 0.744,-0.792c0.32,-0.187 0.674,-0.28 1.064,-0.28c0.384,0 0.717,0.083 1,0.248c0.282,0.165 0.493,0.373 0.632,0.624v-0.8h0.736v4.384h-0.736v-0.816c-0.144,0.256 -0.36,0.469 -0.648,0.64c-0.283,0.165 -0.614,0.248 -0.992,0.248c-0.39,0 -0.742,-0.096 -1.056,-0.288c-0.315,-0.192 -0.563,-0.461 -0.744,-0.808c-0.182,-0.347 -0.272,-0.741 -0.272,-1.184zM126.275,28.8c0,-0.331 -0.067,-0.619 -0.2,-0.864c-0.134,-0.245 -0.315,-0.432 -0.544,-0.56c-0.224,-0.133 -0.472,-0.2 -0.744,-0.2c-0.272,0 -0.52,0.064 -0.744,0.192c-0.224,0.128 -0.403,0.315 -0.536,0.56c-0.134,0.245 -0.2,0.533 -0.2,0.864c0,0.336 0.066,0.629 0.2,0.88c0.133,0.245 0.312,0.435 0.536,0.568c0.224,0.128 0.472,0.192 0.744,0.192c0.272,0 0.52,-0.064 0.744,-0.192c0.229,-0.133 0.41,-0.323 0.544,-0.568c0.133,-0.251 0.2,-0.541 0.2,-0.872zM128.617,25.904c-0.139,0 -0.256,-0.048 -0.352,-0.144c-0.096,-0.096 -0.144,-0.213 -0.144,-0.352c0,-0.139 0.048,-0.256 0.144,-0.352c0.096,-0.096 0.213,-0.144 0.352,-0.144c0.133,0 0.245,0.048 0.336,0.144c0.096,0.096 0.144,0.213 0.144,0.352c0,0.139 -0.048,0.256 -0.144,0.352c-0.091,0.096 -0.203,0.144 -0.336,0.144zM128.969,26.616v4.384h-0.728v-4.384zM129.938,28.792c0,-0.448 0.09,-0.84 0.272,-1.176c0.181,-0.341 0.429,-0.605 0.744,-0.792c0.32,-0.187 0.677,-0.28 1.072,-0.28c0.341,0 0.658,0.08 0.952,0.24c0.293,0.155 0.517,0.36 0.672,0.616v-2.32h0.736v5.92h-0.736v-0.824c-0.144,0.261 -0.358,0.477 -0.64,0.648c-0.283,0.165 -0.614,0.248 -0.992,0.248c-0.39,0 -0.744,-0.096 -1.064,-0.288c-0.315,-0.192 -0.563,-0.461 -0.744,-0.808c-0.182,-0.347 -0.272,-0.741 -0.272,-1.184zM133.65,28.8c0,-0.331 -0.067,-0.619 -0.2,-0.864c-0.134,-0.245 -0.315,-0.432 -0.544,-0.56c-0.224,-0.133 -0.472,-0.2 -0.744,-0.2c-0.272,0 -0.52,0.064 -0.744,0.192c-0.224,0.128 -0.403,0.315 -0.536,0.56c-0.134,0.245 -0.2,0.533 -0.2,0.864c0,0.336 0.066,0.629 0.2,0.88c0.133,0.245 0.312,0.435 0.536,0.568c0.224,0.128 0.472,0.192 0.744,0.192c0.272,0 0.52,-0.064 0.744,-0.192c0.229,-0.133 0.41,-0.323 0.544,-0.568c0.133,-0.251 0.2,-0.541 0.2,-0.872zM141.525,26.616l-2.64,6.448h-0.752l0.864,-2.112l-1.768,-4.336h0.808l1.376,3.552l1.36,-3.552zM144.169,31.072c-0.411,0 -0.784,-0.093 -1.12,-0.28c-0.331,-0.187 -0.592,-0.451 -0.784,-0.792c-0.187,-0.347 -0.28,-0.747 -0.28,-1.2c0,-0.448 0.096,-0.843 0.288,-1.184c0.197,-0.347 0.464,-0.611 0.8,-0.792c0.336,-0.187 0.712,-0.28 1.128,-0.28c0.416,0 0.792,0.093 1.128,0.28c0.336,0.181 0.6,0.443 0.792,0.784c0.197,0.341 0.296,0.739 0.296,1.192c0,0.453 -0.102,0.853 -0.304,1.2c-0.198,0.341 -0.467,0.605 -0.808,0.792c-0.342,0.187 -0.72,0.28 -1.136,0.28zM144.169,30.432c0.261,0 0.506,-0.061 0.736,-0.184c0.229,-0.123 0.413,-0.307 0.552,-0.552c0.144,-0.245 0.216,-0.544 0.216,-0.896c0,-0.352 -0.07,-0.651 -0.208,-0.896c-0.139,-0.245 -0.32,-0.427 -0.544,-0.544c-0.224,-0.123 -0.467,-0.184 -0.728,-0.184c-0.267,0 -0.512,0.061 -0.736,0.184c-0.219,0.117 -0.395,0.299 -0.528,0.544c-0.134,0.245 -0.2,0.544 -0.2,0.896c0,0.357 0.064,0.659 0.192,0.904c0.133,0.245 0.309,0.429 0.528,0.552c0.218,0.117 0.458,0.176 0.72,0.176zM151.262,26.616v4.384h-0.728v-0.648c-0.139,0.224 -0.334,0.4 -0.584,0.528c-0.246,0.123 -0.518,0.184 -0.816,0.184c-0.342,0 -0.648,-0.069 -0.92,-0.208c-0.272,-0.144 -0.488,-0.357 -0.648,-0.64c-0.155,-0.283 -0.232,-0.627 -0.232,-1.032v-2.568h0.72v2.472c0,0.432 0.109,0.765 0.328,1c0.218,0.229 0.517,0.344 0.896,0.344c0.389,0 0.696,-0.12 0.92,-0.36c0.224,-0.24 0.336,-0.589 0.336,-1.048v-2.408zM107.456,36.616l-1.368,4.384h-0.752l-1.056,-3.48l-1.056,3.48h-0.752l-1.376,-4.384h0.744l1.008,3.68l1.088,-3.68h0.744l1.064,3.688l0.992,-3.688zM107.907,38.792c0,-0.448 0.09,-0.84 0.272,-1.176c0.181,-0.341 0.429,-0.605 0.744,-0.792c0.32,-0.187 0.674,-0.28 1.064,-0.28c0.384,0 0.717,0.083 1,0.248c0.282,0.165 0.493,0.373 0.632,0.624v-0.8h0.736v4.384h-0.736v-0.816c-0.144,0.256 -0.36,0.469 -0.648,0.64c-0.283,0.165 -0.614,0.248 -0.992,0.248c-0.39,0 -0.742,-0.096 -1.056,-0.288c-0.315,-0.192 -0.563,-0.461 -0.744,-0.808c-0.182,-0.347 -0.272,-0.741 -0.272,-1.184zM111.619,38.8c0,-0.331 -0.067,-0.619 -0.2,-0.864c-0.134,-0.245 -0.315,-0.432 -0.544,-0.56c-0.224,-0.133 -0.472,-0.2 -0.744,-0.2c-0.272,0 -0.52,0.064 -0.744,0.192c-0.224,0.128 -0.403,0.315 -0.536,0.56c-0.134,0.245 -0.2,0.533 -0.2,0.864c0,0.336 0.066,0.629 0.2,0.88c0.133,0.245 0.312,0.435 0.536,0.568c0.224,0.128 0.472,0.192 0.744,0.192c0.272,0 0.52,-0.064 0.744,-0.192c0.229,-0.133 0.41,-0.323 0.544,-0.568c0.133,-0.251 0.2,-0.541 0.2,-0.872zM115.721,36.536c0.533,0 0.965,0.163 1.296,0.488c0.33,0.32 0.496,0.784 0.496,1.392v2.584h-0.72v-2.48c0,-0.437 -0.11,-0.771 -0.328,-1c-0.219,-0.235 -0.518,-0.352 -0.896,-0.352c-0.384,0 -0.691,0.12 -0.92,0.36c-0.224,0.24 -0.336,0.589 -0.336,1.048v2.424h-0.728v-4.384h0.728v0.624c0.144,-0.224 0.338,-0.397 0.584,-0.52c0.25,-0.123 0.525,-0.184 0.824,-0.184zM119.59,37.216v2.584c0,0.213 0.045,0.365 0.136,0.456c0.091,0.085 0.248,0.128 0.472,0.128h0.536v0.616h-0.656c-0.405,0 -0.709,-0.093 -0.912,-0.28c-0.203,-0.187 -0.304,-0.493 -0.304,-0.92v-2.584h-0.568v-0.6h0.568v-1.104h0.728v1.104h1.144v0.6zM124.637,37.216v2.584c0,0.213 0.045,0.365 0.136,0.456c0.09,0.085 0.248,0.128 0.472,0.128h0.536v0.616h-0.656c-0.406,0 -0.71,-0.093 -0.912,-0.28c-0.203,-0.187 -0.304,-0.493 -0.304,-0.92v-2.584h-0.568v-0.6h0.568v-1.104h0.728v1.104h1.144v0.6zM128.575,41.072c-0.411,0 -0.784,-0.093 -1.12,-0.28c-0.331,-0.187 -0.592,-0.451 -0.784,-0.792c-0.187,-0.347 -0.28,-0.747 -0.28,-1.2c0,-0.448 0.096,-0.843 0.288,-1.184c0.197,-0.347 0.464,-0.611 0.8,-0.792c0.336,-0.187 0.712,-0.28 1.128,-0.28c0.416,0 0.792,0.093 1.128,0.28c0.336,0.181 0.6,0.443 0.792,0.784c0.197,0.341 0.296,0.739 0.296,1.192c0,0.453 -0.101,0.853 -0.304,1.2c-0.197,0.341 -0.467,0.605 -0.808,0.792c-0.341,0.187 -0.72,0.28 -1.136,0.28zM128.575,40.432c0.261,0 0.507,-0.061 0.736,-0.184c0.229,-0.123 0.413,-0.307 0.552,-0.552c0.144,-0.245 0.216,-0.544 0.216,-0.896c0,-0.352 -0.069,-0.651 -0.208,-0.896c-0.139,-0.245 -0.32,-0.427 -0.544,-0.544c-0.224,-0.123 -0.467,-0.184 -0.728,-0.184c-0.267,0 -0.512,0.061 -0.736,0.184c-0.219,0.117 -0.395,0.299 -0.528,0.544c-0.133,0.245 -0.2,0.544 -0.2,0.896c0,0.357 0.064,0.659 0.192,0.904c0.133,0.245 0.309,0.429 0.528,0.552c0.219,0.117 0.459,0.176 0.72,0.176zM134.641,37.424c0.144,-0.251 0.357,-0.459 0.64,-0.624c0.288,-0.171 0.621,-0.256 1,-0.256c0.389,0 0.741,0.093 1.056,0.28c0.32,0.187 0.571,0.451 0.752,0.792c0.181,0.336 0.272,0.728 0.272,1.176c0,0.443 -0.091,0.837 -0.272,1.184c-0.181,0.347 -0.432,0.616 -0.752,0.808c-0.315,0.192 -0.667,0.288 -1.056,0.288c-0.373,0 -0.704,-0.083 -0.992,-0.248c-0.283,-0.171 -0.499,-0.381 -0.648,-0.632v2.888h-0.728v-6.464h0.728zM137.617,38.792c0,-0.331 -0.067,-0.619 -0.2,-0.864c-0.133,-0.245 -0.315,-0.432 -0.544,-0.56c-0.224,-0.128 -0.472,-0.192 -0.744,-0.192c-0.267,0 -0.515,0.067 -0.744,0.2c-0.224,0.128 -0.405,0.317 -0.544,0.568c-0.133,0.245 -0.2,0.531 -0.2,0.856c0,0.331 0.067,0.621 0.2,0.872c0.139,0.245 0.32,0.435 0.544,0.568c0.229,0.128 0.477,0.192 0.744,0.192c0.272,0 0.52,-0.064 0.744,-0.192c0.229,-0.133 0.411,-0.323 0.544,-0.568c0.133,-0.251 0.2,-0.544 0.2,-0.88zM139.047,38.792c0,-0.448 0.091,-0.84 0.272,-1.176c0.181,-0.341 0.429,-0.605 0.744,-0.792c0.32,-0.187 0.675,-0.28 1.064,-0.28c0.384,0 0.717,0.083 1,0.248c0.283,0.165 0.493,0.373 0.632,0.624v-0.8h0.736v4.384h-0.736v-0.816c-0.144,0.256 -0.36,0.469 -0.648,0.64c-0.283,0.165 -0.613,0.248 -0.992,0.248c-0.389,0 -0.741,-0.096 -1.056,-0.288c-0.315,-0.192 -0.563,-0.461 -0.744,-0.808c-0.181,-0.347 -0.272,-0.741 -0.272,-1.184zM142.759,38.8c0,-0.331 -0.067,-0.619 -0.2,-0.864c-0.133,-0.245 -0.315,-0.432 -0.544,-0.56c-0.224,-0.133 -0.472,-0.2 -0.744,-0.2c-0.272,0 -0.52,0.064 -0.744,0.192c-0.224,0.128 -0.403,0.315 -0.536,0.56c-0.133,0.245 -0.2,0.533 -0.2,0.864c0,0.336 0.067,0.629 0.2,0.88c0.133,0.245 0.312,0.435 0.536,0.568c0.224,0.128 0.472,0.192 0.744,0.192c0.272,0 0.52,-0.064 0.744,-0.192c0.229,-0.133 0.411,-0.323 0.544,-0.568c0.133,-0.251 0.2,-0.541 0.2,-0.872zM146.277,41.072c-0.336,0 -0.637,-0.056 -0.904,-0.168c-0.266,-0.117 -0.477,-0.277 -0.632,-0.48c-0.154,-0.208 -0.24,-0.445 -0.256,-0.712h0.752c0.022,0.219 0.123,0.397 0.304,0.536c0.187,0.139 0.43,0.208 0.728,0.208c0.278,0 0.496,-0.061 0.656,-0.184c0.16,-0.123 0.24,-0.277 0.24,-0.464c0,-0.192 -0.085,-0.333 -0.256,-0.424c-0.17,-0.096 -0.434,-0.189 -0.792,-0.28c-0.325,-0.085 -0.592,-0.171 -0.8,-0.256c-0.202,-0.091 -0.378,-0.221 -0.528,-0.392c-0.144,-0.176 -0.216,-0.405 -0.216,-0.688c0,-0.224 0.067,-0.429 0.2,-0.616c0.134,-0.187 0.323,-0.333 0.568,-0.44c0.246,-0.112 0.526,-0.168 0.84,-0.168c0.486,0 0.878,0.123 1.176,0.368c0.299,0.245 0.459,0.581 0.48,1.008h-0.728c-0.016,-0.229 -0.109,-0.413 -0.28,-0.552c-0.165,-0.139 -0.389,-0.208 -0.672,-0.208c-0.261,0 -0.469,0.056 -0.624,0.168c-0.154,0.112 -0.232,0.259 -0.232,0.44c0,0.144 0.046,0.264 0.136,0.36c0.096,0.091 0.214,0.165 0.352,0.224c0.144,0.053 0.342,0.115 0.592,0.184c0.315,0.085 0.571,0.171 0.768,0.256c0.198,0.08 0.366,0.203 0.504,0.368c0.144,0.165 0.219,0.381 0.224,0.648c0,0.24 -0.066,0.456 -0.2,0.648c-0.133,0.192 -0.322,0.344 -0.568,0.456c-0.24,0.107 -0.517,0.16 -0.832,0.16zM150.457,41.072c-0.336,0 -0.637,-0.056 -0.904,-0.168c-0.267,-0.117 -0.477,-0.277 -0.632,-0.48c-0.155,-0.208 -0.24,-0.445 -0.256,-0.712h0.752c0.021,0.219 0.123,0.397 0.304,0.536c0.187,0.139 0.429,0.208 0.728,0.208c0.277,0 0.496,-0.061 0.656,-0.184c0.16,-0.123 0.24,-0.277 0.24,-0.464c0,-0.192 -0.085,-0.333 -0.256,-0.424c-0.171,-0.096 -0.435,-0.189 -0.792,-0.28c-0.325,-0.085 -0.592,-0.171 -0.8,-0.256c-0.203,-0.091 -0.379,-0.221 -0.528,-0.392c-0.144,-0.176 -0.216,-0.405 -0.216,-0.688c0,-0.224 0.067,-0.429 0.2,-0.616c0.133,-0.187 0.323,-0.333 0.568,-0.44c0.245,-0.112 0.525,-0.168 0.84,-0.168c0.485,0 0.877,0.123 1.176,0.368c0.299,0.245 0.459,0.581 0.48,1.008h-0.728c-0.016,-0.229 -0.109,-0.413 -0.28,-0.552c-0.165,-0.139 -0.389,-0.208 -0.672,-0.208c-0.261,0 -0.469,0.056 -0.624,0.168c-0.155,0.112 -0.232,0.259 -0.232,0.44c0,0.144 0.045,0.264 0.136,0.36c0.096,0.091 0.213,0.165 0.352,0.224c0.144,0.053 0.341,0.115 0.592,0.184c0.315,0.085 0.571,0.171 0.768,0.256c0.197,0.08 0.365,0.203 0.504,0.368c0.144,0.165 0.219,0.381 0.224,0.648c0,0.24 -0.067,0.456 -0.2,0.648c-0.133,0.192 -0.323,0.344 -0.568,0.456c-0.24,0.107 -0.517,0.16 -0.832,0.16zM153.317,41.048c-0.139,0 -0.256,-0.048 -0.352,-0.144c-0.096,-0.096 -0.144,-0.213 -0.144,-0.352c0,-0.139 0.048,-0.256 0.144,-0.352c0.096,-0.096 0.213,-0.144 0.352,-0.144c0.133,0 0.245,0.048 0.336,0.144c0.096,0.096 0.144,0.213 0.144,0.352c0,0.139 -0.048,0.256 -0.144,0.352c-0.091,0.096 -0.203,0.144 -0.336,0.144zM102.344,45.424v5.576h-0.728v-5.576zM103.697,45.424h0.808l-0.768,1.816h-0.512zM110.607,46.536c0.341,0 0.645,0.072 0.912,0.216c0.266,0.139 0.477,0.349 0.632,0.632c0.154,0.283 0.232,0.627 0.232,1.032v2.584h-0.72v-2.48c0,-0.437 -0.11,-0.771 -0.328,-1c-0.214,-0.235 -0.504,-0.352 -0.872,-0.352c-0.379,0 -0.68,0.123 -0.904,0.368c-0.224,0.24 -0.336,0.589 -0.336,1.048v2.416h-0.72v-2.48c0,-0.437 -0.11,-0.771 -0.328,-1c-0.214,-0.235 -0.504,-0.352 -0.872,-0.352c-0.379,0 -0.68,0.123 -0.904,0.368c-0.224,0.24 -0.336,0.589 -0.336,1.048v2.416h-0.728v-4.384h0.728v0.632c0.144,-0.229 0.336,-0.405 0.576,-0.528c0.245,-0.123 0.514,-0.184 0.808,-0.184c0.368,0 0.693,0.083 0.976,0.248c0.282,0.165 0.493,0.408 0.632,0.728c0.122,-0.309 0.325,-0.549 0.608,-0.72c0.282,-0.171 0.597,-0.256 0.944,-0.256zM116.102,45.904c-0.139,0 -0.256,-0.048 -0.352,-0.144c-0.091,-0.096 -0.136,-0.213 -0.136,-0.352c0,-0.139 0.045,-0.256 0.136,-0.352c0.096,-0.096 0.213,-0.144 0.352,-0.144c0.138,0 0.253,0.048 0.344,0.144c0.096,0.096 0.144,0.213 0.144,0.352c0,0.139 -0.048,0.256 -0.144,0.352c-0.091,0.096 -0.206,0.144 -0.344,0.144zM116.462,51.952c0,0.389 -0.099,0.675 -0.296,0.856c-0.198,0.181 -0.486,0.272 -0.864,0.272h-0.424v-0.616h0.304c0.202,0 0.344,-0.04 0.424,-0.12c0.085,-0.08 0.128,-0.216 0.128,-0.408v-5.32h0.728zM121.582,46.616v4.384h-0.728v-0.648c-0.139,0.224 -0.333,0.4 -0.584,0.528c-0.245,0.123 -0.517,0.184 -0.816,0.184c-0.341,0 -0.648,-0.069 -0.92,-0.208c-0.272,-0.144 -0.488,-0.357 -0.648,-0.64c-0.155,-0.283 -0.232,-0.627 -0.232,-1.032v-2.568h0.72v2.472c0,0.432 0.109,0.765 0.328,1c0.219,0.229 0.517,0.344 0.896,0.344c0.389,0 0.696,-0.12 0.92,-0.36c0.224,-0.24 0.336,-0.589 0.336,-1.048v-2.408zM124.363,51.072c-0.336,0 -0.637,-0.056 -0.904,-0.168c-0.266,-0.117 -0.477,-0.277 -0.632,-0.48c-0.154,-0.208 -0.24,-0.445 -0.256,-0.712h0.752c0.022,0.219 0.123,0.397 0.304,0.536c0.187,0.139 0.43,0.208 0.728,0.208c0.278,0 0.496,-0.061 0.656,-0.184c0.16,-0.123 0.24,-0.277 0.24,-0.464c0,-0.192 -0.085,-0.333 -0.256,-0.424c-0.17,-0.096 -0.434,-0.189 -0.792,-0.28c-0.325,-0.085 -0.592,-0.171 -0.8,-0.256c-0.202,-0.091 -0.378,-0.221 -0.528,-0.392c-0.144,-0.176 -0.216,-0.405 -0.216,-0.688c0,-0.224 0.067,-0.429 0.2,-0.616c0.134,-0.187 0.323,-0.333 0.568,-0.44c0.246,-0.112 0.526,-0.168 0.84,-0.168c0.486,0 0.878,0.123 1.176,0.368c0.299,0.245 0.459,0.581 0.48,1.008h-0.728c-0.016,-0.229 -0.109,-0.413 -0.28,-0.552c-0.165,-0.139 -0.389,-0.208 -0.672,-0.208c-0.261,0 -0.469,0.056 -0.624,0.168c-0.154,0.112 -0.232,0.259 -0.232,0.44c0,0.144 0.046,0.264 0.136,0.36c0.096,0.091 0.214,0.165 0.352,0.224c0.144,0.053 0.342,0.115 0.592,0.184c0.315,0.085 0.571,0.171 0.768,0.256c0.198,0.08 0.366,0.203 0.504,0.368c0.144,0.165 0.219,0.381 0.224,0.648c0,0.24 -0.066,0.456 -0.2,0.648c-0.133,0.192 -0.322,0.344 -0.568,0.456c-0.24,0.107 -0.517,0.16 -0.832,0.16zM127.879,47.216v2.584c0,0.213 0.045,0.365 0.136,0.456c0.091,0.085 0.248,0.128 0.472,0.128h0.536v0.616h-0.656c-0.405,0 -0.709,-0.093 -0.912,-0.28c-0.203,-0.187 -0.304,-0.493 -0.304,-0.92v-2.584h-0.568v-0.6h0.568v-1.104h0.728v1.104h1.144v0.6zM134.214,46.536c0.331,0 0.629,0.072 0.896,0.216c0.267,0.139 0.475,0.349 0.624,0.632c0.155,0.283 0.232,0.627 0.232,1.032v2.584h-0.72v-2.48c0,-0.437 -0.109,-0.771 -0.328,-1c-0.219,-0.235 -0.517,-0.352 -0.896,-0.352c-0.384,0 -0.691,0.12 -0.92,0.36c-0.224,0.24 -0.336,0.589 -0.336,1.048v2.424h-0.728v-5.92h0.728v2.16c0.144,-0.224 0.341,-0.397 0.592,-0.52c0.256,-0.123 0.541,-0.184 0.856,-0.184zM141.155,48.64c0,0.139 -0.008,0.285 -0.024,0.44h-3.504c0.027,0.432 0.173,0.771 0.44,1.016c0.272,0.24 0.6,0.36 0.984,0.36c0.315,0 0.576,-0.072 0.784,-0.216c0.213,-0.149 0.363,-0.347 0.448,-0.592h0.784c-0.117,0.421 -0.352,0.765 -0.704,1.032c-0.352,0.261 -0.789,0.392 -1.312,0.392c-0.416,0 -0.789,-0.093 -1.12,-0.28c-0.325,-0.187 -0.581,-0.451 -0.768,-0.792c-0.187,-0.347 -0.28,-0.747 -0.28,-1.2c0,-0.453 0.091,-0.851 0.272,-1.192c0.181,-0.341 0.435,-0.603 0.76,-0.784c0.331,-0.187 0.709,-0.28 1.136,-0.28c0.416,0 0.784,0.091 1.104,0.272c0.32,0.181 0.565,0.432 0.736,0.752c0.176,0.315 0.264,0.672 0.264,1.072zM140.403,48.488c0,-0.277 -0.061,-0.515 -0.184,-0.712c-0.123,-0.203 -0.291,-0.355 -0.504,-0.456c-0.208,-0.107 -0.44,-0.16 -0.696,-0.16c-0.368,0 -0.683,0.117 -0.944,0.352c-0.256,0.235 -0.403,0.56 -0.44,0.976zM142.844,45.08v5.92h-0.728v-5.92zM144.813,47.424c0.144,-0.251 0.357,-0.459 0.64,-0.624c0.288,-0.171 0.621,-0.256 1,-0.256c0.389,0 0.741,0.093 1.056,0.28c0.32,0.187 0.57,0.451 0.752,0.792c0.181,0.336 0.272,0.728 0.272,1.176c0,0.443 -0.091,0.837 -0.272,1.184c-0.182,0.347 -0.432,0.616 -0.752,0.808c-0.315,0.192 -0.667,0.288 -1.056,0.288c-0.374,0 -0.704,-0.083 -0.992,-0.248c-0.283,-0.171 -0.499,-0.381 -0.648,-0.632v2.888h-0.728v-6.464h0.728zM147.789,48.792c0,-0.331 -0.067,-0.619 -0.2,-0.864c-0.134,-0.245 -0.315,-0.432 -0.544,-0.56c-0.224,-0.128 -0.472,-0.192 -0.744,-0.192c-0.267,0 -0.515,0.067 -0.744,0.2c-0.224,0.128 -0.406,0.317 -0.544,0.568c-0.134,0.245 -0.2,0.531 -0.2,0.856c0,0.331 0.066,0.621 0.2,0.872c0.138,0.245 0.32,0.435 0.544,0.568c0.229,0.128 0.477,0.192 0.744,0.192c0.272,0 0.52,-0.064 0.744,-0.192c0.229,-0.133 0.41,-0.323 0.544,-0.568c0.133,-0.251 0.2,-0.544 0.2,-0.88zM149.867,45.904c-0.139,0 -0.256,-0.048 -0.352,-0.144c-0.096,-0.096 -0.144,-0.213 -0.144,-0.352c0,-0.139 0.048,-0.256 0.144,-0.352c0.096,-0.096 0.213,-0.144 0.352,-0.144c0.133,0 0.245,0.048 0.336,0.144c0.096,0.096 0.144,0.213 0.144,0.352c0,0.139 -0.048,0.256 -0.144,0.352c-0.091,0.096 -0.203,0.144 -0.336,0.144zM150.219,46.616v4.384h-0.728v-4.384zM153.596,46.536c0.533,0 0.965,0.163 1.296,0.488c0.33,0.32 0.496,0.784 0.496,1.392v2.584h-0.72v-2.48c0,-0.437 -0.11,-0.771 -0.328,-1c-0.219,-0.235 -0.518,-0.352 -0.896,-0.352c-0.384,0 -0.691,0.12 -0.92,0.36c-0.224,0.24 -0.336,0.589 -0.336,1.048v2.424h-0.728v-4.384h0.728v0.624c0.144,-0.224 0.338,-0.397 0.584,-0.52c0.25,-0.123 0.525,-0.184 0.824,-0.184zM158.385,46.544c0.379,0 0.709,0.083 0.992,0.248c0.288,0.165 0.501,0.373 0.64,0.624v-0.8h0.736v4.48c0,0.4 -0.085,0.755 -0.256,1.064c-0.171,0.315 -0.416,0.56 -0.736,0.736c-0.315,0.176 -0.683,0.264 -1.104,0.264c-0.576,0 -1.056,-0.136 -1.44,-0.408c-0.384,-0.272 -0.611,-0.643 -0.68,-1.112h0.72c0.08,0.267 0.245,0.48 0.496,0.64c0.251,0.165 0.552,0.248 0.904,0.248c0.4,0 0.725,-0.125 0.976,-0.376c0.256,-0.251 0.384,-0.603 0.384,-1.056v-0.92c-0.144,0.256 -0.357,0.469 -0.64,0.64c-0.283,0.171 -0.613,0.256 -0.992,0.256c-0.389,0 -0.744,-0.096 -1.064,-0.288c-0.315,-0.192 -0.563,-0.461 -0.744,-0.808c-0.181,-0.347 -0.272,-0.741 -0.272,-1.184c0,-0.448 0.091,-0.84 0.272,-1.176c0.181,-0.341 0.429,-0.605 0.744,-0.792c0.32,-0.187 0.675,-0.28 1.064,-0.28zM160.017,48.8c0,-0.331 -0.067,-0.619 -0.2,-0.864c-0.133,-0.245 -0.315,-0.432 -0.544,-0.56c-0.224,-0.133 -0.472,-0.2 -0.744,-0.2c-0.272,0 -0.52,0.064 -0.744,0.192c-0.224,0.128 -0.403,0.315 -0.536,0.56c-0.133,0.245 -0.2,0.533 -0.2,0.864c0,0.336 0.067,0.629 0.2,0.88c0.133,0.245 0.312,0.435 0.536,0.568c0.224,0.128 0.472,0.192 0.744,0.192c0.272,0 0.52,-0.064 0.744,-0.192c0.229,-0.133 0.411,-0.323 0.544,-0.568c0.133,-0.251 0.2,-0.541 0.2,-0.872zM105.392,56.616l-2.64,6.448h-0.752l0.864,-2.112l-1.768,-4.336h0.808l1.376,3.552l1.36,-3.552zM108.036,61.072c-0.411,0 -0.784,-0.093 -1.12,-0.28c-0.331,-0.187 -0.592,-0.451 -0.784,-0.792c-0.187,-0.347 -0.28,-0.747 -0.28,-1.2c0,-0.448 0.096,-0.843 0.288,-1.184c0.197,-0.347 0.464,-0.611 0.8,-0.792c0.336,-0.187 0.712,-0.28 1.128,-0.28c0.416,0 0.792,0.093 1.128,0.28c0.336,0.181 0.6,0.443 0.792,0.784c0.197,0.341 0.296,0.739 0.296,1.192c0,0.453 -0.102,0.853 -0.304,1.2c-0.198,0.341 -0.467,0.605 -0.808,0.792c-0.342,0.187 -0.72,0.28 -1.136,0.28zM108.036,60.432c0.261,0 0.506,-0.061 0.736,-0.184c0.229,-0.123 0.413,-0.307 0.552,-0.552c0.144,-0.245 0.216,-0.544 0.216,-0.896c0,-0.352 -0.07,-0.651 -0.208,-0.896c-0.139,-0.245 -0.32,-0.427 -0.544,-0.544c-0.224,-0.123 -0.467,-0.184 -0.728,-0.184c-0.267,0 -0.512,0.061 -0.736,0.184c-0.219,0.117 -0.395,0.299 -0.528,0.544c-0.134,0.245 -0.2,0.544 -0.2,0.896c0,0.357 0.064,0.659 0.192,0.904c0.133,0.245 0.309,0.429 0.528,0.552c0.218,0.117 0.458,0.176 0.72,0.176zM115.129,56.616v4.384h-0.728v-0.648c-0.139,0.224 -0.333,0.4 -0.584,0.528c-0.245,0.123 -0.517,0.184 -0.816,0.184c-0.341,0 -0.648,-0.069 -0.92,-0.208c-0.272,-0.144 -0.488,-0.357 -0.648,-0.64c-0.155,-0.283 -0.232,-0.627 -0.232,-1.032v-2.568h0.72v2.472c0,0.432 0.109,0.765 0.328,1c0.219,0.229 0.517,0.344 0.896,0.344c0.389,0 0.696,-0.12 0.92,-0.36c0.224,-0.24 0.336,-0.589 0.336,-1.048v-2.408zM120.627,56.536c0.533,0 0.965,0.163 1.296,0.488c0.331,0.32 0.496,0.784 0.496,1.392v2.584h-0.72v-2.48c0,-0.437 -0.109,-0.771 -0.328,-1c-0.219,-0.235 -0.517,-0.352 -0.896,-0.352c-0.384,0 -0.691,0.12 -0.92,0.36c-0.224,0.24 -0.336,0.589 -0.336,1.048v2.424h-0.728v-4.384h0.728v0.624c0.144,-0.224 0.339,-0.397 0.584,-0.52c0.251,-0.123 0.525,-0.184 0.824,-0.184zM125.52,61.072c-0.41,0 -0.784,-0.093 -1.12,-0.28c-0.33,-0.187 -0.592,-0.451 -0.784,-0.792c-0.186,-0.347 -0.28,-0.747 -0.28,-1.2c0,-0.448 0.096,-0.843 0.288,-1.184c0.198,-0.347 0.464,-0.611 0.8,-0.792c0.336,-0.187 0.712,-0.28 1.128,-0.28c0.416,0 0.792,0.093 1.128,0.28c0.336,0.181 0.6,0.443 0.792,0.784c0.198,0.341 0.296,0.739 0.296,1.192c0,0.453 -0.101,0.853 -0.304,1.2c-0.197,0.341 -0.466,0.605 -0.808,0.792c-0.341,0.187 -0.72,0.28 -1.136,0.28zM125.52,60.432c0.262,0 0.507,-0.061 0.736,-0.184c0.23,-0.123 0.414,-0.307 0.552,-0.552c0.144,-0.245 0.216,-0.544 0.216,-0.896c0,-0.352 -0.069,-0.651 -0.208,-0.896c-0.138,-0.245 -0.32,-0.427 -0.544,-0.544c-0.224,-0.123 -0.466,-0.184 -0.728,-0.184c-0.266,0 -0.512,0.061 -0.736,0.184c-0.218,0.117 -0.394,0.299 -0.528,0.544c-0.133,0.245 -0.2,0.544 -0.2,0.896c0,0.357 0.064,0.659 0.192,0.904c0.134,0.245 0.31,0.429 0.528,0.552c0.219,0.117 0.459,0.176 0.72,0.176zM129.613,57.216v2.584c0,0.213 0.046,0.365 0.136,0.456c0.091,0.085 0.248,0.128 0.472,0.128h0.536v0.616h-0.656c-0.405,0 -0.709,-0.093 -0.912,-0.28c-0.202,-0.187 -0.304,-0.493 -0.304,-0.92v-2.584h-0.568v-0.6h0.568v-1.104h0.728v1.104h1.144v0.6zM134.5,57.424c0.144,-0.251 0.358,-0.459 0.64,-0.624c0.288,-0.171 0.622,-0.256 1,-0.256c0.39,0 0.742,0.093 1.056,0.28c0.32,0.187 0.571,0.451 0.752,0.792c0.182,0.336 0.272,0.728 0.272,1.176c0,0.443 -0.09,0.837 -0.272,1.184c-0.181,0.347 -0.432,0.616 -0.752,0.808c-0.314,0.192 -0.666,0.288 -1.056,0.288c-0.373,0 -0.704,-0.083 -0.992,-0.248c-0.282,-0.171 -0.498,-0.381 -0.648,-0.632v2.888h-0.728v-6.464h0.728zM137.476,58.792c0,-0.331 -0.066,-0.619 -0.2,-0.864c-0.133,-0.245 -0.314,-0.432 -0.544,-0.56c-0.224,-0.128 -0.472,-0.192 -0.744,-0.192c-0.266,0 -0.514,0.067 -0.744,0.2c-0.224,0.128 -0.405,0.317 -0.544,0.568c-0.133,0.245 -0.2,0.531 -0.2,0.856c0,0.331 0.067,0.621 0.2,0.872c0.139,0.245 0.32,0.435 0.544,0.568c0.23,0.128 0.478,0.192 0.744,0.192c0.272,0 0.52,-0.064 0.744,-0.192c0.23,-0.133 0.411,-0.323 0.544,-0.568c0.134,-0.251 0.2,-0.544 0.2,-0.88zM138.907,58.792c0,-0.448 0.09,-0.84 0.272,-1.176c0.181,-0.341 0.429,-0.605 0.744,-0.792c0.32,-0.187 0.674,-0.28 1.064,-0.28c0.384,0 0.717,0.083 1,0.248c0.282,0.165 0.493,0.373 0.632,0.624v-0.8h0.736v4.384h-0.736v-0.816c-0.144,0.256 -0.36,0.469 -0.648,0.64c-0.283,0.165 -0.614,0.248 -0.992,0.248c-0.39,0 -0.742,-0.096 -1.056,-0.288c-0.315,-0.192 -0.563,-0.461 -0.744,-0.808c-0.182,-0.347 -0.272,-0.741 -0.272,-1.184zM142.619,58.8c0,-0.331 -0.067,-0.619 -0.2,-0.864c-0.134,-0.245 -0.315,-0.432 -0.544,-0.56c-0.224,-0.133 -0.472,-0.2 -0.744,-0.2c-0.272,0 -0.52,0.064 -0.744,0.192c-0.224,0.128 -0.403,0.315 -0.536,0.56c-0.134,0.245 -0.2,0.533 -0.2,0.864c0,0.336 0.066,0.629 0.2,0.88c0.133,0.245 0.312,0.435 0.536,0.568c0.224,0.128 0.472,0.192 0.744,0.192c0.272,0 0.52,-0.064 0.744,-0.192c0.229,-0.133 0.41,-0.323 0.544,-0.568c0.133,-0.251 0.2,-0.541 0.2,-0.872zM146.721,56.536c0.533,0 0.965,0.163 1.296,0.488c0.33,0.32 0.496,0.784 0.496,1.392v2.584h-0.72v-2.48c0,-0.437 -0.11,-0.771 -0.328,-1c-0.219,-0.235 -0.518,-0.352 -0.896,-0.352c-0.384,0 -0.691,0.12 -0.92,0.36c-0.224,0.24 -0.336,0.589 -0.336,1.048v2.424h-0.728v-4.384h0.728v0.624c0.144,-0.224 0.338,-0.397 0.584,-0.52c0.25,-0.123 0.525,-0.184 0.824,-0.184zM150.078,55.904c-0.139,0 -0.256,-0.048 -0.352,-0.144c-0.096,-0.096 -0.144,-0.213 -0.144,-0.352c0,-0.139 0.048,-0.256 0.144,-0.352c0.096,-0.096 0.213,-0.144 0.352,-0.144c0.133,0 0.245,0.048 0.336,0.144c0.096,0.096 0.144,0.213 0.144,0.352c0,0.139 -0.048,0.256 -0.144,0.352c-0.091,0.096 -0.203,0.144 -0.336,0.144zM150.43,56.616v4.384h-0.728v-4.384zM151.399,58.8c0,-0.453 0.09,-0.848 0.272,-1.184c0.181,-0.341 0.432,-0.605 0.752,-0.792c0.325,-0.187 0.696,-0.28 1.112,-0.28c0.538,0 0.981,0.131 1.328,0.392c0.352,0.261 0.584,0.624 0.696,1.088h-0.784c-0.075,-0.267 -0.222,-0.477 -0.44,-0.632c-0.214,-0.155 -0.48,-0.232 -0.8,-0.232c-0.416,0 -0.752,0.144 -1.008,0.432c-0.256,0.283 -0.384,0.685 -0.384,1.208c0,0.528 0.128,0.936 0.384,1.224c0.256,0.288 0.592,0.432 1.008,0.432c0.32,0 0.586,-0.075 0.8,-0.224c0.213,-0.149 0.36,-0.363 0.44,-0.64h0.784c-0.118,0.448 -0.352,0.808 -0.704,1.08c-0.352,0.267 -0.792,0.4 -1.32,0.4c-0.416,0 -0.787,-0.093 -1.112,-0.28c-0.32,-0.187 -0.571,-0.451 -0.752,-0.792c-0.182,-0.341 -0.272,-0.741 -0.272,-1.2zM102.344,65.08v5.92h-0.728v-5.92zM103.313,68.792c0,-0.448 0.09,-0.84 0.272,-1.176c0.181,-0.341 0.429,-0.605 0.744,-0.792c0.32,-0.187 0.674,-0.28 1.064,-0.28c0.384,0 0.717,0.083 1,0.248c0.282,0.165 0.493,0.373 0.632,0.624v-0.8h0.736v4.384h-0.736v-0.816c-0.144,0.256 -0.36,0.469 -0.648,0.64c-0.283,0.165 -0.614,0.248 -0.992,0.248c-0.39,0 -0.742,-0.096 -1.056,-0.288c-0.315,-0.192 -0.563,-0.461 -0.744,-0.808c-0.182,-0.347 -0.272,-0.741 -0.272,-1.184zM107.025,68.8c0,-0.331 -0.067,-0.619 -0.2,-0.864c-0.134,-0.245 -0.315,-0.432 -0.544,-0.56c-0.224,-0.133 -0.472,-0.2 -0.744,-0.2c-0.272,0 -0.52,0.064 -0.744,0.192c-0.224,0.128 -0.403,0.315 -0.536,0.56c-0.134,0.245 -0.2,0.533 -0.2,0.864c0,0.336 0.066,0.629 0.2,0.88c0.133,0.245 0.312,0.435 0.536,0.568c0.224,0.128 0.472,0.192 0.744,0.192c0.272,0 0.52,-0.064 0.744,-0.192c0.229,-0.133 0.41,-0.323 0.544,-0.568c0.133,-0.251 0.2,-0.541 0.2,-0.872zM109.879,67.216v2.584c0,0.213 0.045,0.365 0.136,0.456c0.091,0.085 0.248,0.128 0.472,0.128h0.536v0.616h-0.656c-0.405,0 -0.709,-0.093 -0.912,-0.28c-0.203,-0.187 -0.304,-0.493 -0.304,-0.92v-2.584h-0.568v-0.6h0.568v-1.104h0.728v1.104h1.144v0.6zM115.905,68.64c0,0.139 -0.008,0.285 -0.024,0.44h-3.504c0.027,0.432 0.173,0.771 0.44,1.016c0.272,0.24 0.6,0.36 0.984,0.36c0.315,0 0.576,-0.072 0.784,-0.216c0.213,-0.149 0.363,-0.347 0.448,-0.592h0.784c-0.117,0.421 -0.352,0.765 -0.704,1.032c-0.352,0.261 -0.789,0.392 -1.312,0.392c-0.416,0 -0.789,-0.093 -1.12,-0.28c-0.325,-0.187 -0.581,-0.451 -0.768,-0.792c-0.187,-0.347 -0.28,-0.747 -0.28,-1.2c0,-0.453 0.091,-0.851 0.272,-1.192c0.181,-0.341 0.435,-0.603 0.76,-0.784c0.331,-0.187 0.709,-0.28 1.136,-0.28c0.416,0 0.784,0.091 1.104,0.272c0.32,0.181 0.565,0.432 0.736,0.752c0.176,0.315 0.264,0.672 0.264,1.072zM115.153,68.488c0,-0.277 -0.061,-0.515 -0.184,-0.712c-0.123,-0.203 -0.291,-0.355 -0.504,-0.456c-0.208,-0.107 -0.44,-0.16 -0.696,-0.16c-0.368,0 -0.683,0.117 -0.944,0.352c-0.256,0.235 -0.403,0.56 -0.44,0.976zM117.594,67.328c0.128,-0.251 0.309,-0.445 0.544,-0.584c0.24,-0.139 0.531,-0.208 0.872,-0.208v0.752h-0.192c-0.816,0 -1.224,0.443 -1.224,1.328v2.384h-0.728v-4.384h0.728zM120.082,71.048c-0.138,0 -0.256,-0.048 -0.352,-0.144c-0.096,-0.096 -0.144,-0.213 -0.144,-0.352c0,-0.139 0.048,-0.256 0.144,-0.352c0.096,-0.096 0.214,-0.144 0.352,-0.144c0.134,0 0.246,0.048 0.336,0.144c0.096,0.096 0.144,0.213 0.144,0.352c0,0.139 -0.048,0.256 -0.144,0.352c-0.09,0.096 -0.202,0.144 -0.336,0.144z" fill="white"/>
<g id="Group_90">
<g id="Group_91">
<g id="Group_92">
<path id="Vector_105" d="M116.53,80.862l-11.793,2.438l5.107,-9.945z" fill="#7A5FFF"/>
</g>
</g>
</g>
</g></svg>