<svg viewBox="0 0 19.8667 19.4433" x="0" y="0" fill="none" xmlns="http://www.w3.org/2000/svg"><path id="vector_2" d="M19.64,17.3701c-0.6428,-0.5732 -1.2057,-1.2302 -1.6733,-1.9534c-0.5105,-0.9983 -0.8165,-2.0885 -0.9,-3.2066v-3.2934c-0.0027,-0.4 -0.0384,-0.7991 -0.1067,-1.1933c-0.5247,-0.1049 -1.029,-0.294 -1.4933,-0.56c0.177,0.5699 0.2669,1.1632 0.2667,1.76v3.2933c0.0817,1.364 0.4569,2.6943 1.1,3.9c0.4602,0.7294 1.0064,1.4008 1.6266,2h-17.07329c0.62028,-0.5992 1.1664,-1.2706 1.62667,-2c0.64308,-1.2057 1.01832,-2.536 1.10002,-3.9v-3.3c-0.0035,-0.7715 0.1452,-1.5362 0.4376,-2.2502c0.2924,-0.714 0.7228,-1.3633 1.2665,-1.9107c0.5437,-0.5474 1.1901,-0.9822 1.9021,-1.2795c0.7119,-0.2973 1.4756,-0.4512 2.2471,-0.4529c1.1292,0.0009 2.233,0.3348 3.1733,0.96c-0.1036,-0.3807 -0.1618,-0.7723 -0.1733,-1.1667v-0.42c-0.6961,-0.3424 -1.4439,-0.5677 -2.2133,-0.6667v-0.84c0,-0.236 -0.0938,-0.4624 -0.2607,-0.6293c-0.1669,-0.1669 -0.3933,-0.2607 -0.6293,-0.2607c-0.2361,0 -0.4624,0.0938 -0.6293,0.2607c-0.167,0.1669 -0.2607,0.3933 -0.2607,0.6293v0.8734c-1.7229,0.243 -3.2996,1.1011 -4.4392,2.4159c-1.13957,1.3148 -1.765,2.9975 -1.76082,4.7374v3.2934c-0.0835,1.1181 -0.38948,2.2083 -0.9,3.2066c-0.45941,0.7216 -1.0132,1.3785 -1.64667,1.9534c-0.07111,0.0624 -0.1281,0.1393 -0.16718,0.2255c-0.03909,0.0863 -0.05936,0.1798 -0.05948,0.2745v0.9066c0,0.1768 0.07024,0.3464 0.19526,0.4714c0.12502,0.125 0.29459,0.1953 0.4714,0.1953h18.53329c0.1769,0 0.3464,-0.0703 0.4715,-0.1953c0.125,-0.125 0.1952,-0.2946 0.1952,-0.4714v-0.9066c-0.0001,-0.0947 -0.0204,-0.1882 -0.0595,-0.2745c-0.039,-0.0862 -0.096,-0.1631 -0.1672,-0.2255z" fill="currentColor" xmlns="http://www.w3.org/2000/svg"/></svg>