<svg viewBox="0 0 48 48" x="0" y="0" fill="none" xmlns="http://www.w3.org/2000/svg"><defs><clipPath id="clip4_1432_24567" xmlns="http://www.w3.org/2000/svg">
<rect width="23.04" height="23.04" fill="white" transform="translate(12.479999999999997, 12.480000000000018)"/>
</clipPath></defs><g id="Group 16" xmlns="http://www.w3.org/2000/svg">
<rect id="Rectangle 25" opacity="0.2" x="0" y="0" width="48" height="48" rx="12" fill="currentColor"/>
<g id="book 1" clip-path="url(#clip4_1432_24567)">
<g id="Group_52">
<path id="Vector_75" d="M35.0734,17.11c-0.0015,0 -0.003,0 -0.0045,0h-1.514v-0.52c0.0082,-0.2 -0.1244,-0.39 -0.3215,-0.44c-1.0511,-0.28 -2.1334,-0.42 -3.22,-0.41c-1.7864,0 -4.2203,0.4 -6.0201,2.23c-1.7864,-1.85 -4.2382,-2.23 -6.0202,-2.23c-1.0865,-0.01 -2.1689,0.13 -3.2199,0.41c-0.1971,0.05 -0.3297,0.24 -0.3216,0.44v0.52h-1.505c-0.2467,0 -0.4466,0.2 -0.4466,0.44v14.27c0,0.25 0.1999,0.44 0.4466,0.44c0.0767,0 0.152,-0.02 0.2188,-0.05c0.0447,-0.03 4.5107,-2.47 10.7452,-0.9h0.067h0.0401c0.0357,0.01 0.0716,0.01 0.1072,0c6.2524,-1.58 10.7184,0.86 10.7452,0.9c0.1382,0.08 0.3084,0.08 0.4466,0c0.1373,-0.08 0.2223,-0.23 0.2233,-0.39v-14.26c0,-0.25 -0.1999,-0.45 -0.4466,-0.45zM13.3732,31.11v-13.1h1.0673v11.2c-0.0027,0.24 0.1949,0.44 0.4416,0.45c0.0241,0 0.0482,0 0.072,-0.01c0.9239,-0.14 1.8567,-0.21 2.7913,-0.22c1.2945,-0.02 2.5837,0.17 3.8139,0.58c-2.7781,-0.34 -5.596,0.04 -8.1861,1.1zM17.7454,28.54c-0.8123,0 -1.6237,0.05 -2.4295,0.16v-11.75c0.8695,-0.2 1.7575,-0.3 2.6483,-0.3c1.6703,0 3.9747,0.39 5.5736,2.19l0.0134,11.12c-0.929,-0.6 -2.7422,-1.42 -5.8058,-1.42zM24.4443,18.84c1.5989,-1.79 3.9033,-2.19 5.5736,-2.19c0.8908,0 1.7787,0.1 2.6483,0.3v11.75c-0.8013,-0.11 -1.6082,-0.16 -2.4161,-0.16c-3.0458,0 -4.8634,0.81 -5.8058,1.42zM34.6223,31.11c-2.5956,-1.06 -5.42,-1.44 -8.204,-1.1c1.236,-0.41 2.5313,-0.6 3.8318,-0.58c0.9404,0 1.8793,0.08 2.8091,0.22c0.2439,0.03 0.4716,-0.13 0.5086,-0.38c0.0036,-0.02 0.0053,-0.04 0.005,-0.07v-11.19h1.0674z" fill="currentColor"/>
</g>
</g>
</g></svg>