<svg width="20" height="20" viewBox="0 0 20 20" fill="none" xmlns="http://www.w3.org/2000/svg">
<path d="M9.99984 16.6673H4.33317C3.39975 16.6673 2.93304 16.6673 2.57652 16.4857C2.26292 16.3259 2.00795 16.0709 1.84816 15.7573C1.6665 15.4008 1.6665 14.9341 1.6665 14.0007V6.00065C1.6665 5.06723 1.6665 4.60052 1.84816 4.244C2.00795 3.9304 2.26292 3.67543 2.57652 3.51564C2.93304 3.33398 3.39975 3.33398 4.33317 3.33398H4.6665C6.53335 3.33398 7.46677 3.33398 8.17981 3.6973C8.80701 4.01687 9.31695 4.52681 9.63653 5.15402C9.99984 5.86706 9.99984 6.80048 9.99984 8.66732M9.99984 16.6673V8.66732M9.99984 16.6673H15.6665C16.5999 16.6673 17.0666 16.6673 17.4232 16.4857C17.7368 16.3259 17.9917 16.0709 18.1515 15.7573C18.3332 15.4008 18.3332 14.9341 18.3332 14.0007V6.00065C18.3332 5.06723 18.3332 4.60052 18.1515 4.244C17.9917 3.9304 17.7368 3.67543 17.4232 3.51564C17.0666 3.33398 16.5999 3.33398 15.6665 3.33398H15.3332C13.4663 3.33398 12.5329 3.33398 11.8199 3.6973C11.1927 4.01687 10.6827 4.52681 10.3631 5.15402C9.99984 5.86706 9.99984 6.80048 9.99984 8.66732" stroke="white" stroke-width="2" stroke-linecap="round" stroke-linejoin="round"/>
</svg>
