<svg width="24" height="17" viewBox="0 0 24 17" fill="none" xmlns="http://www.w3.org/2000/svg">
<path d="M22.5934 1.37556C22.5919 1.37556 22.5904 1.37556 22.5889 1.37556H21.075V0.857507C21.0831 0.652462 20.9505 0.468185 20.7534 0.410909C19.7024 0.135469 18.62 -0.00264134 17.5334 3.82525e-05C15.7471 3.82525e-05 13.3131 0.401977 11.5133 2.23303C9.72691 0.384113 7.27508 3.82525e-05 5.49316 3.82525e-05C4.40658 -0.00264134 3.32425 0.135469 2.27319 0.410909C2.07612 0.468185 1.94348 0.652462 1.95163 0.857507V1.37109H0.446598C0.199964 1.37109 0 1.57106 0 1.81769V16.082C0 16.3287 0.199964 16.5286 0.446598 16.5286C0.523301 16.5284 0.598665 16.5084 0.665431 16.4706C0.710091 16.4482 5.17607 14.0054 11.4106 15.5774H11.4776H11.5178C11.5534 15.5817 11.5893 15.5817 11.625 15.5774C17.8773 13.992 22.3433 16.4304 22.3701 16.4706C22.5083 16.5504 22.6785 16.5504 22.8167 16.4706C22.954 16.3913 23.0391 16.2451 23.04 16.0865V1.82216C23.04 1.57553 22.8401 1.37556 22.5934 1.37556ZM0.893196 15.3719V2.26876H1.96057V13.4694C1.95777 13.7161 2.15545 13.9183 2.40208 13.9211C2.4262 13.9213 2.45032 13.9197 2.47415 13.916C3.39805 13.775 4.33083 13.7003 5.26539 13.6927C6.55997 13.6703 7.84913 13.865 9.07934 14.2688C6.30122 13.9329 3.4833 14.3126 0.893196 15.3719ZM5.26539 12.804C4.45309 12.8059 3.64173 12.858 2.8359 12.9603V1.21032C3.70543 1.01661 4.59337 0.917742 5.48423 0.915565C7.1545 0.915565 9.45895 1.29964 11.0578 3.1039L11.0712 14.2287C10.1422 13.6213 8.32906 12.804 5.26539 12.804ZM11.9644 3.1039C13.5632 1.3175 15.8676 0.915565 17.5379 0.915565C18.4287 0.918188 19.3167 1.017 20.1862 1.21032V12.9603C19.3849 12.8571 18.578 12.8034 17.7701 12.7995C14.7243 12.7995 12.9067 13.6168 11.9644 14.2242V3.1039ZM22.1423 15.3719C19.5467 14.3097 16.7223 13.9299 13.9383 14.2688C15.1743 13.8636 16.4696 13.6688 17.7701 13.6927C18.7106 13.698 19.6494 13.7711 20.5792 13.9116C20.8231 13.9486 21.0508 13.7809 21.0878 13.537C21.0914 13.5132 21.0931 13.4891 21.0928 13.465V2.26876H22.1602L22.1423 15.3719Z" fill="#FF33FF"/>
</svg>
