<svg viewBox="0 0 24 24" x="0" y="0" fill="none" xmlns="http://www.w3.org/2000/svg"><path id="Vector_82" d="M8.0913,8.09v3.23h3.2308v-3.23zM12.7067,8.09v3.23h3.2308v-3.23zM17.3221,8.09v3.23h3.2308v-3.23zM17.3221,12.71v3.23h3.2308v-3.23zM12.7067,12.71v3.23h3.2308v-3.23zM12.7067,17.32v3.23h3.2308v-3.23zM8.0913,17.32v3.23h3.2308v-3.23zM8.0913,12.71v3.23h3.2308v-3.23zM3.476,17.32v3.23h3.2307v-3.23zM3.476,12.71v3.23h3.2307v-3.23zM7.3846,3.56v-2.97c0,-0.15 -0.0457,-0.29 -0.137,-0.41c-0.0914,-0.12 -0.1995,-0.18 -0.3245,-0.18h-0.9231c-0.125,0 -0.2332,0.06 -0.3245,0.18c-0.0914,0.12 -0.137,0.26 -0.137,0.41v2.97c0,0.17 0.0456,0.3 0.137,0.41c0.0913,0.11 0.1995,0.17 0.3245,0.18h0.9231c0.1346,-0.01 0.2452,-0.07 0.3317,-0.18c0.0865,-0.11 0.1298,-0.24 0.1298,-0.41zM1.8462,24h20.3076c0.5,0 0.9279,-0.17 1.2837,-0.52c0.3558,-0.35 0.5433,-0.77 0.5625,-1.27v-18.58c0,-0.49 -0.1827,-0.91 -0.5481,-1.26c-0.3654,-0.35 -0.7981,-0.52 -1.2981,-0.52h-2.7692v1.38c0,0.61 -0.1009,1.07 -0.3029,1.38c-0.2019,0.31 -0.5625,0.47 -1.0817,0.47h-0.9231c-0.9231,-0.01 -1.3846,-0.62 -1.3846,-1.83v-1.4h-7.3846v1.4c0,1.21 -0.4615,1.82 -1.3846,1.83h-0.9231c-0.5192,0 -0.8798,-0.16 -1.0817,-0.47c-0.202,-0.31 -0.3029,-0.77 -0.3029,-1.38v-1.38h-2.7692c-0.5,0 -0.9327,0.17 -1.2981,0.52c-0.3654,0.35 -0.5481,0.77 -0.5481,1.26v18.58c0,0.49 0.1803,0.91 0.5409,1.26c0.3605,0.34 0.7956,0.52 1.3053,0.53zM1.8462,6.46h20.3076v15.69h-20.3076zM18.4615,3.56v-2.97c0,-0.15 -0.0456,-0.29 -0.137,-0.41c-0.0913,-0.12 -0.1995,-0.18 -0.3245,-0.18h-0.9231c-0.125,0 -0.2331,0.06 -0.3245,0.18c-0.0913,0.12 -0.137,0.26 -0.137,0.41v2.97c0,0.17 0.0457,0.3 0.137,0.41c0.0914,0.11 0.1995,0.17 0.3245,0.18h0.9231c0.1346,-0.01 0.2452,-0.07 0.3317,-0.18c0.0866,-0.11 0.1298,-0.24 0.1298,-0.41z" fill="currentColor" xmlns="http://www.w3.org/2000/svg"/></svg>