<svg width="24" height="24" viewBox="0 0 24 24" fill="none" xmlns="http://www.w3.org/2000/svg">
<path d="M8.01367 12.9453C9.6585 12.9454 10.9891 14.2878 10.9893 15.9414V19.0049C10.989 20.6577 9.65828 21.9999 8.01367 22H4.97559C3.33096 21.9999 2.00025 20.6577 2 19.0049V15.9414C2.00021 14.2878 3.33074 12.9454 4.97559 12.9453H8.01367ZM19.0254 12.9453C20.6694 12.9454 21.9998 14.288 22 15.9414V19.0049C21.9998 20.6575 20.6692 21.9999 19.0254 22H15.9863C14.3417 21.9999 13.011 20.6577 13.0107 19.0049V15.9414C13.0109 14.2878 14.3415 12.9454 15.9863 12.9453H19.0254ZM4.97559 14.3408C4.10417 14.3409 3.39571 15.0556 3.39551 15.9414V19.0049C3.39575 19.8897 4.1043 20.6054 4.97559 20.6055H8.01367C8.88494 20.6054 9.5935 19.8897 9.59375 19.0049V15.9414C9.59354 15.0557 8.88507 14.3409 8.01367 14.3408H4.97559ZM15.9863 14.3408C15.1149 14.3409 14.4065 15.0557 14.4062 15.9414V19.0049C14.4065 19.8897 15.1151 20.6054 15.9863 20.6055H19.0254C19.8958 20.6054 20.6042 19.8896 20.6045 19.0049V15.9414C20.6043 15.0558 19.8959 14.3409 19.0254 14.3408H15.9863ZM8.01367 2C9.6583 2.0001 10.989 3.34229 10.9893 4.99512V8.05957C10.9893 9.71191 9.65815 11.0546 8.01367 11.0547H4.97559C3.33109 11.0546 2 9.71192 2 8.05957V4.99512C2.00022 3.34228 3.33094 2.00008 4.97559 2H8.01367ZM19.0254 2C20.6692 2.00012 21.9998 3.34249 22 4.99512V8.05957C22 9.7117 20.6691 11.0546 19.0254 11.0547H15.9863C14.3418 11.0546 13.0107 9.71191 13.0107 8.05957V4.99512C13.011 3.34229 14.3417 2.0001 15.9863 2H19.0254ZM4.97559 3.39551C4.10428 3.39559 3.39572 4.11022 3.39551 4.99512V8.05957C3.39551 8.94406 4.10452 9.66007 4.97559 9.66016H8.01367C8.88472 9.66005 9.59375 8.94405 9.59375 8.05957V4.99512C9.59354 4.11024 8.88496 3.39561 8.01367 3.39551H4.97559ZM15.9863 3.39551C15.115 3.39561 14.4065 4.11024 14.4062 4.99512V8.05957C14.4062 8.94405 15.1153 9.66005 15.9863 9.66016H19.0254C19.8956 9.66004 20.6045 8.94394 20.6045 8.05957V4.99512C20.6043 4.11035 19.8958 3.39563 19.0254 3.39551H15.9863Z" fill="#FDFDFF"/>
</svg>
