<svg width="20" height="20" viewBox="0 0 20 20" fill="none" xmlns="http://www.w3.org/2000/svg">
<path d="M8.34863 1H11.6514C15.7097 1 19 4.29028 19 8.34863V14.0918C19 15.2865 18.0922 16.2693 16.9287 16.3877L16.6924 16.3994C16.1127 16.3994 15.8 16.8112 15.7002 16.9639C15.5788 17.1497 15.5043 17.3548 15.457 17.5039C15.4464 17.5375 15.4369 17.5722 15.4268 17.6074C15.3672 17.4957 15.3075 17.3875 15.248 17.2891C15.1624 17.1473 15.0508 16.9776 14.916 16.832C14.8306 16.7398 14.5112 16.3994 14 16.3994H8.34863C4.29024 16.3994 1 13.1091 1 9.05078V8.34863L1.00977 7.96973C1.2068 4.08731 4.41725 1 8.34863 1Z" stroke="white" stroke-width="2"/>
</svg>
