<svg viewBox="0 0 20 20" x="0" y="0" fill="none" xmlns="http://www.w3.org/2000/svg"><path id="vector_38" d="M8.3486,1h3.3028c4.0583,0 7.3486,3.29 7.3486,7.349v5.743c0,1.194 -0.9078,2.177 -2.0713,2.296l-0.2363,0.011c-0.5797,0 -0.8924,0.412 -0.9922,0.565c-0.1214,0.186 -0.1959,0.391 -0.2432,0.54c-0.0106,0.033 -0.0201,0.068 -0.0302,0.103c-0.0596,-0.111 -0.1193,-0.219 -0.1788,-0.318c-0.0856,-0.142 -0.1972,-0.311 -0.332,-0.457c-0.0854,-0.092 -0.4048,-0.433 -0.916,-0.433h-5.6514c-4.0584,0 -7.3486,-3.29 -7.3486,-7.348v-0.702l0.0098,-0.379c0.197,-3.883 3.4074,-6.97 7.3388,-6.97z" stroke="white" stroke-width="2" xmlns="http://www.w3.org/2000/svg"/></svg>