<svg width="23" height="23" viewBox="0 0 23 23" fill="none" xmlns="http://www.w3.org/2000/svg">
<path d="M16.6873 5.56245C16.5135 5.38865 16.2777 5.29102 16.0319 5.29102C15.7861 5.29102 15.5503 5.38865 15.3764 5.56245L11.1248 9.81406L6.87323 5.56245C6.69937 5.38865 6.46361 5.29102 6.21778 5.29102C5.97195 5.29102 5.73618 5.38865 5.56233 5.56245C5.38853 5.73631 5.29089 5.97207 5.29089 6.2179C5.29089 6.46373 5.38853 6.6995 5.56233 6.87335L9.81394 11.125L5.56233 15.3766C5.38853 15.5504 5.29089 15.7862 5.29089 16.032C5.29089 16.2778 5.38853 16.5136 5.56233 16.6875C5.73618 16.8613 5.97195 16.9589 6.21778 16.9589C6.46361 16.9589 6.69937 16.8613 6.87323 16.6875L11.1248 12.4358L15.3764 16.6875C15.5503 16.8613 15.7861 16.9589 16.0319 16.9589C16.2777 16.9589 16.5135 16.8613 16.6873 16.6875C16.8611 16.5136 16.9588 16.2778 16.9588 16.032C16.9588 15.7862 16.8611 15.5504 16.6873 15.3766L12.4357 11.125L16.6873 6.87335C16.8611 6.6995 16.9588 6.46373 16.9588 6.2179C16.9588 5.97207 16.8611 5.73631 16.6873 5.56245Z" fill="#FDFDFF"/>
</svg>
