<svg viewBox="0 0 11.6679 11.6679" x="0" y="0" fill="none" xmlns="http://www.w3.org/2000/svg"><path id="Vector_106" d="M11.3961,0.2715c-0.174,-0.1738 -0.409,-0.2715 -0.655,-0.2715c-0.246,0 -0.482,0.0977 -0.656,0.2715l-4.251,4.2516l-4.252,-4.2516c-0.174,-0.1738 -0.409,-0.2715 -0.655,-0.2715c-0.246,0 -0.482,0.0977 -0.656,0.2715c-0.173,0.1738 -0.271,0.4096 -0.271,0.6554c0,0.2458 0.098,0.4816 0.271,0.6554l4.252,4.2517l-4.252,4.2516c-0.173,0.1738 -0.271,0.4096 -0.271,0.6554c0,0.2458 0.098,0.4816 0.271,0.6555c0.174,0.1738 0.41,0.2714 0.656,0.2714c0.246,0 0.481,-0.0976 0.655,-0.2714l4.252,-4.2517l4.251,4.2517c0.174,0.1738 0.41,0.2714 0.656,0.2714c0.246,0 0.481,-0.0976 0.655,-0.2714c0.174,-0.1739 0.272,-0.4097 0.272,-0.6555c0,-0.2458 -0.098,-0.4816 -0.272,-0.6554l-4.251,-4.2516l4.251,-4.2517c0.174,-0.1738 0.272,-0.4096 0.272,-0.6554c0,-0.2458 -0.098,-0.4816 -0.272,-0.6554z" fill="currentColor" xmlns="http://www.w3.org/2000/svg"/></svg>