<svg width="16" height="21" viewBox="0 0 16 21" fill="none" xmlns="http://www.w3.org/2000/svg">
<path d="M3.1663 6.24484C3.06938 7.27851 3.00137 9.10783 3.61181 9.88649C3.61181 9.88649 3.32444 7.87695 5.90055 5.35568C6.9378 4.34071 7.17755 2.96022 6.81537 1.92485C6.60962 1.33831 6.23383 0.853773 5.90735 0.51545C5.71691 0.316536 5.86314 -0.0115859 6.14031 0.000314958C7.8169 0.07512 10.5341 0.540951 11.6887 3.43795C12.1954 4.70963 12.2328 6.02382 11.9914 7.36011C11.8384 8.21357 11.2942 10.1109 12.5355 10.3438C13.4214 10.5104 13.8499 9.80658 14.0421 9.29995C14.122 9.08913 14.3992 9.03643 14.5488 9.20474C16.0451 10.9066 16.1727 12.911 15.8632 14.6366C15.2647 17.9722 11.886 20.4 8.52937 20.4C4.33618 20.4 0.998292 18.0011 0.132787 13.659C-0.215795 11.9062 -0.0389532 8.43799 2.66469 5.98982C2.86533 5.80621 3.19351 5.96942 3.1663 6.24484Z" fill="url(#paint0_radial_1432_24608)"/>
<path d="M9.93609 12.2965C8.41283 10.2809 9.09486 7.9811 9.46855 7.06462C9.51883 6.94403 9.38477 6.83033 9.27919 6.90441C8.62398 7.36265 7.28171 8.44107 6.65665 9.95877C5.8104 12.0105 5.87073 13.0149 6.37178 14.2414C6.67341 14.9805 6.32318 15.1372 6.14723 15.1648C5.9763 15.1924 5.81878 15.0752 5.6931 14.9529C5.33154 14.5961 5.07388 14.1427 4.94907 13.6436C4.92225 13.5368 4.78652 13.5076 4.72452 13.5954C4.25531 14.2621 4.01232 15.3319 4.00059 16.0882C3.96373 18.4259 5.84224 20.3209 8.11455 20.3209C10.9784 20.3209 13.0647 17.0649 11.4191 14.3431C10.9415 13.5506 10.4924 13.0321 9.93609 12.2965Z" fill="url(#paint1_radial_1432_24608)"/>
<defs>
<radialGradient id="paint0_radial_1432_24608" cx="0" cy="0" r="1" gradientTransform="matrix(-12.0026 -0.0520826 -0.0855787 19.6906 7.69886 20.4529)" gradientUnits="userSpaceOnUse">
<stop offset="0.314" stop-color="#FF9800"/>
<stop offset="0.662" stop-color="#FF6D00"/>
<stop offset="0.972" stop-color="#F44336"/>
</radialGradient>
<radialGradient id="paint1_radial_1432_24608" cx="0" cy="0" r="1" gradientTransform="matrix(-0.125008 12.7226 9.31374 0.0967018 8.27206 8.27196)" gradientUnits="userSpaceOnUse">
<stop offset="0.214" stop-color="#FFF176"/>
<stop offset="0.328" stop-color="#FFF27D"/>
<stop offset="0.487" stop-color="#FFF48F"/>
<stop offset="0.672" stop-color="#FFF7AD"/>
<stop offset="0.793" stop-color="#FFF9C4"/>
<stop offset="0.822" stop-color="#FFF8BD" stop-opacity="0.804"/>
<stop offset="0.863" stop-color="#FFF6AB" stop-opacity="0.529"/>
<stop offset="0.91" stop-color="#FFF38D" stop-opacity="0.209"/>
<stop offset="0.941" stop-color="#FFF176" stop-opacity="0"/>
</radialGradient>
</defs>
</svg>
