<svg width="16" height="16" viewBox="0 0 16 16" fill="none" xmlns="http://www.w3.org/2000/svg">
<path d="M2.48878 2.83887H12.6516C12.7433 2.83887 12.833 2.86549 12.9098 2.91551C12.9866 2.96552 13.0472 3.03678 13.0843 3.12061C13.1214 3.20443 13.1333 3.29723 13.1187 3.38771C13.104 3.4782 13.0634 3.56247 13.0017 3.6303L9.11271 7.90821C9.03353 7.99531 8.98966 8.10878 8.98966 8.22649V11.5756C8.98966 11.6535 8.97043 11.7302 8.93367 11.7988C8.89692 11.8675 8.84378 11.9261 8.77896 11.9693L6.88635 13.231C6.81509 13.2785 6.73227 13.3058 6.64673 13.3099C6.56119 13.3141 6.47613 13.2949 6.40063 13.2545C6.32512 13.2141 6.26199 13.1539 6.21799 13.0805C6.17398 13.007 6.15073 12.923 6.15073 12.8373V8.22649C6.15073 8.10879 6.10686 7.99531 6.02768 7.90821L2.13867 3.6303C2.07701 3.56247 2.03638 3.4782 2.02172 3.38771C2.00706 3.29723 2.01899 3.20443 2.05607 3.12061C2.09316 3.03678 2.15379 2.96552 2.23061 2.91551C2.30742 2.86549 2.39712 2.83887 2.48878 2.83887V2.83887Z" stroke="#7A5FFF" stroke-width="1.41946" stroke-linecap="round" stroke-linejoin="round"/>
</svg>
