<svg viewBox="0 0 19 19.998" x="0" y="0" fill="none" xmlns="http://www.w3.org/2000/svg"><path id="Home_2" d="M7.2305,0.788c1.2699,-1.009 3.0495,-1.049 4.3584,-0.12l0.1611,0.12l6.0889,4.871c0.67,0.519 1.0813,1.29 1.1513,2.129l0.0098,0.201v8.108c0,2.09 -1.6509,3.791 -3.7197,3.901h-1.9903c-0.951,-0.019 -1.72,-0.76 -1.79,-1.69l-0.0098,-0.14v-2.86c-0.0002,-0.31 -0.2313,-0.569 -0.54,-0.62l-0.0899,-0.01h-2.6709c-0.3189,0.01 -0.579,0.24 -0.6191,0.54l-0.0107,0.09v2.851c-0.0001,0.059 -0.0106,0.129 -0.0196,0.179l-0.0097,0.021l-0.0117,0.069c-0.119,0.851 -0.8186,1.5 -1.6885,1.561l-0.1299,0.009h-1.79c-2.09,0 -3.8002,-1.639 -3.9102,-3.7v-8.309c0.009,-0.851 0.38,-1.641 1,-2.191zM10.8799,1.878c-0.7599,-0.61 -1.8397,-0.639 -2.6397,-0.111l-0.1513,0.111l-6.0801,4.901c-0.3488,0.259 -0.5584,0.649 -0.6084,1.059l-0.0117,0.16v8.099c0,1.33 1.0403,2.42 2.3613,2.5h1.9502c0.2198,0 0.4093,-0.148 0.4385,-0.358l0.0215,-0.181l0.0097,-0.05v-2.7c0.0002,-1.069 0.8203,-1.939 1.8701,-2.02h2.8203c1.0689,0 1.9386,0.821 2.0196,1.871v3.009c0,0.21 0.1506,0.39 0.3506,0.429h1.8584c1.34,0 2.4297,-1.028 2.5097,-2.339l0.0117,-0.161v-8.099c-0.0109,-0.429 -0.1901,-0.83 -0.5,-1.129l-0.1298,-0.111z" fill="currentColor" xmlns="http://www.w3.org/2000/svg"/></svg>