<svg width="19" height="20" viewBox="0 0 19 20" fill="none" xmlns="http://www.w3.org/2000/svg">
<path d="M7.23047 0.787925C8.50042 -0.220865 10.28 -0.261063 11.5889 0.667807L11.75 0.787925L17.8389 5.65902C18.5089 6.17802 18.9202 6.94893 18.9902 7.78792L19 7.9891V16.0975C19 18.1874 17.3491 19.8878 15.2803 19.9979H13.29C12.339 19.9789 11.57 19.2384 11.5 18.3084L11.4902 18.1678V15.3084C11.49 14.9977 11.2589 14.7394 10.9502 14.6883L10.8604 14.6776H8.18945C7.87054 14.6876 7.61042 14.9177 7.57031 15.2176L7.55957 15.3084V18.159C7.55955 18.2179 7.54903 18.2878 7.54004 18.3377L7.53027 18.3592L7.51855 18.4276C7.39956 19.2786 6.70005 19.9281 5.83008 19.9891L5.7002 19.9979H3.91016C1.82016 19.9979 0.11 18.3587 0 16.2977V7.9891C0.009 7.1381 0.38 6.34769 1 5.79769L7.23047 0.787925ZM10.8799 1.87777C10.12 1.26794 9.04016 1.23868 8.24023 1.76742L8.08887 1.87777L2.00879 6.77914C1.66 7.03811 1.45041 7.42789 1.40039 7.83773L1.38867 7.99789V16.0975C1.38867 17.4275 2.42901 18.5175 3.75 18.5975H5.7002C5.92 18.5974 6.10954 18.4489 6.13867 18.2391L6.16016 18.0584L6.16992 18.0077V15.3084C6.17012 14.2386 6.99017 13.3689 8.04004 13.2879H10.8604C11.9292 13.2881 12.7989 14.1091 12.8799 15.159V18.1678C12.8799 18.3778 13.0305 18.5585 13.2305 18.5975H15.0889C16.4289 18.5975 17.5186 17.5687 17.5986 16.2577L17.6104 16.0975V7.99789C17.5994 7.569 17.4202 7.16795 17.1104 6.86898L16.9805 6.75765L10.8799 1.87777Z" fill="#FDFDFF"/>
</svg>
