<svg viewBox="0 0 14.2554 10.5" x="0" y="0" fill="none" xmlns="http://www.w3.org/2000/svg"><path id="Vector_5" d="M13.38,3.1195l-2.9092,-2.909c-0.1415,-0.137 -0.3309,-0.212 -0.5276,-0.21c-0.1966,0.001 -0.3847,0.08 -0.5238,0.219c-0.1391,0.139 -0.2179,0.327 -0.2196,0.524c-0.0018,0.197 0.0738,0.386 0.2105,0.528l2.9092,2.909c0.0864,0.088 0.162,0.186 0.225,0.292c-0.0112,0 -0.0202,-0.006 -0.0315,-0.006l-11.763,0.024c-0.1989,0 -0.3897,0.079 -0.5303,0.22c-0.1407,0.141 -0.2197,0.331 -0.2197,0.53c0,0.199 0.079,0.39 0.2197,0.531c0.1406,0.14 0.3314,0.219 0.5303,0.219l11.7585,-0.024c0.021,0 0.0383,-0.01 0.0585,-0.012c-0.0665,0.127 -0.1509,0.244 -0.2505,0.347l-2.9092,2.909c-0.0717,0.069 -0.1288,0.152 -0.1681,0.244c-0.0393,0.091 -0.06,0.189 -0.0609,0.289c-0.0008,0.1 0.0181,0.198 0.0558,0.291c0.0378,0.092 0.0934,0.175 0.1639,0.246c0.0704,0.07 0.1541,0.126 0.2463,0.164c0.0922,0.037 0.1909,0.056 0.2905,0.056c0.0996,-0.001 0.198,-0.022 0.2895,-0.061c0.0915,-0.04 0.1743,-0.097 0.2435,-0.168l2.9092,-2.91c0.5624,-0.562 0.8784,-1.325 0.8784,-2.121c0,-0.795 -0.316,-1.558 -0.8784,-2.121z" fill="currentColor" xmlns="http://www.w3.org/2000/svg"/></svg>