<svg viewBox="0 0 6 18" x="0" y="0" fill="none" xmlns="http://www.w3.org/2000/svg"><path id="Vector_6" d="M5.25,16.5h-1.5c-0.5967,0 -1.169,-0.237 -1.591,-0.659c-0.4219,-0.422 -0.659,-0.994 -0.659,-1.591v-10.5c0,-0.597 0.2371,-1.169 0.659,-1.591c0.422,-0.422 0.9943,-0.659 1.591,-0.659h1.5c0.1989,0 0.3897,-0.079 0.5303,-0.22c0.1407,-0.14 0.2197,-0.331 0.2197,-0.53c0,-0.199 -0.079,-0.39 -0.2197,-0.53c-0.1406,-0.141 -0.3314,-0.22 -0.5303,-0.22h-1.5c-0.9942,0.001 -1.9473,0.397 -2.6503,1.1c-0.703,0.703 -1.0985,1.656 -1.0997,2.65v10.5c0.0012,0.994 0.3967,1.947 1.0997,2.65c0.703,0.703 1.6561,1.099 2.6503,1.1h1.5c0.1989,0 0.3897,-0.079 0.5303,-0.22c0.1407,-0.14 0.2197,-0.331 0.2197,-0.53c0,-0.199 -0.079,-0.39 -0.2197,-0.53c-0.1406,-0.141 -0.3314,-0.22 -0.5303,-0.22z" fill="currentColor" xmlns="http://www.w3.org/2000/svg"/></svg>