<svg viewBox="0 0 22.25 24" x="0" y="0" fill="none" xmlns="http://www.w3.org/2000/svg"><defs><clipPath id="clip0_1432_24567" xmlns="http://www.w3.org/2000/svg">
<rect width="22.25" height="24" fill="white" transform="translate(0, 0)"/>
</clipPath></defs><g id="Logos" clip-path="url(#clip0_1432_24567)" xmlns="http://www.w3.org/2000/svg">
<path id="Vector" d="M21.3229,11h-20.3958c-0.512,0 -0.9271,0.4477 -0.9271,1c0,0.5523 0.4151,1 0.9271,1h20.3958c0.512,0 0.9271,-0.4477 0.9271,-1c0,-0.5523 -0.4151,-1 -0.9271,-1z" fill="currentColor"/>
<path id="Vector_2" d="M21.3229,4h-20.3958c-0.512,0 -0.9271,0.4477 -0.9271,1c0,0.5523 0.4151,1 0.9271,1h20.3958c0.512,0 0.9271,-0.4477 0.9271,-1c0,-0.5523 -0.4151,-1 -0.9271,-1z" fill="currentColor"/>
<path id="Vector_3" d="M21.3229,18h-20.3958c-0.512,0 -0.9271,0.4477 -0.9271,1c0,0.5523 0.4151,1 0.9271,1h20.3958c0.512,0 0.9271,-0.4477 0.9271,-1c0,-0.5523 -0.4151,-1 -0.9271,-1z" fill="currentColor"/>
</g></svg>