<svg viewBox="0 0 20 20" x="0" y="0" fill="none" xmlns="http://www.w3.org/2000/svg"><path id="Vector_36" d="M0,10c0,5.523 4.477,10 10,10c5.523,0 10,-4.477 10,-10c0,-5.523 -4.477,-10 -10,-10c-5.523,0 -10,4.477 -10,10zM18,10c0,2.122 -0.8429,4.157 -2.3431,5.657c-1.5003,1.5 -3.5352,2.343 -5.6569,2.343c-2.1217,0 -4.1566,-0.843 -5.6569,-2.343c-1.5002,-1.5 -2.3431,-3.535 -2.3431,-5.657c0,-2.122 0.8429,-4.157 2.3431,-5.657c1.5003,-1.5 3.5352,-2.343 5.6569,-2.343c2.1217,0 4.1566,0.843 5.6569,2.343c1.5002,1.5 2.3431,3.535 2.3431,5.657zM16,10c0.0012,0.788 -0.1534,1.569 -0.455,2.297c-0.3015,0.728 -0.744,1.389 -1.302,1.946l-4.243,-4.243v-6c1.5913,0 3.1174,0.632 4.2426,1.757c1.1253,1.126 1.7574,2.652 1.7574,4.243z" fill="currentColor" xmlns="http://www.w3.org/2000/svg"/></svg>