<svg viewBox="0 0 2 9" x="0" y="0" fill="none" xmlns="http://www.w3.org/2000/svg"><defs><clipPath id="clip10_1432_24567" xmlns="http://www.w3.org/2000/svg">
<rect width="2" height="9" fill="white" transform="translate(0, 0)"/>
</clipPath></defs><g id="more-vertical 8_5" clip-path="url(#clip10_1432_24567)" xmlns="http://www.w3.org/2000/svg">
<path id="Vector_89" d="M1,5.5c0.552,0 1,-0.45 1,-1c0,-0.55 -0.448,-1 -1,-1c-0.552,0 -1,0.45 -1,1c0,0.55 0.448,1 1,1z" fill="currentColor"/>
<path id="Vector_90" d="M1,2c0.552,0 1,-0.45 1,-1c0,-0.55 -0.448,-1 -1,-1c-0.552,0 -1,0.45 -1,1c0,0.55 0.448,1 1,1z" fill="currentColor"/>
<path id="Vector_91" d="M1,9c0.552,0 1,-0.45 1,-1c0,-0.55 -0.448,-1 -1,-1c-0.552,0 -1,0.45 -1,1c0,0.55 0.448,1 1,1z" fill="currentColor"/>
</g></svg>