<svg viewBox="0 0 4 18" x="0" y="0" fill="none" xmlns="http://www.w3.org/2000/svg"><defs><clipPath id="clip5_1432_24567" xmlns="http://www.w3.org/2000/svg">
<rect width="4" height="18" fill="white" transform="translate(0, 0)"/>
</clipPath></defs><g id="more-vertical 8" clip-path="url(#clip5_1432_24567)" xmlns="http://www.w3.org/2000/svg">
<path id="Vector_76" d="M2,11c1.105,0 2,-0.9 2,-2c0,-1.1 -0.895,-2 -2,-2c-1.105,0 -2,0.9 -2,2c0,1.1 0.895,2 2,2z" fill="currentColor"/>
<path id="Vector_77" d="M2,4c1.105,0 2,-0.9 2,-2c0,-1.1 -0.895,-2 -2,-2c-1.105,0 -2,0.9 -2,2c0,1.1 0.895,2 2,2z" fill="currentColor"/>
<path id="Vector_78" d="M2,18c1.105,0 2,-0.9 2,-2c0,-1.1 -0.895,-2 -2,-2c-1.105,0 -2,0.9 -2,2c0,1.1 0.895,2 2,2z" fill="currentColor"/>
</g></svg>