<svg width="16" height="20" viewBox="0 0 16 20" fill="none" xmlns="http://www.w3.org/2000/svg">
<path d="M14.4004 17.2597C14.9282 17.26 15.3603 17.6928 15.3604 18.2197C15.3604 18.7476 14.9282 19.1795 14.4004 19.1797H0.959961C0.432939 19.1796 0 18.7477 0 18.2197C2.14128e-05 17.6927 0.432952 17.2598 0.959961 17.2597H14.4004ZM9.55078 0.487282C10.2247 -0.189496 11.4468 -0.155683 12.1582 0.553688L14.7871 3.18162L14.7881 3.18259C15.5223 3.91781 15.552 5.08722 14.8535 5.78806L6.21582 14.4258C5.90389 14.7376 5.4903 14.9313 5.05078 14.9717L1.04785 15.3359C1.01905 15.3378 0.989721 15.3388 0.959961 15.3388C0.707564 15.3388 0.462662 15.239 0.28125 15.0586C0.07965 14.857 -0.0210538 14.5761 0.00390625 14.292L0.368164 10.289C0.408477 9.8504 0.602177 9.43694 0.915039 9.124L9.55078 0.487282ZM2.27246 10.4804L2.01953 13.3183L4.87695 13.0576L10.2529 7.67673L7.66504 5.08787L2.27246 10.4804ZM8.95117 3.80271L11.5381 6.38963L13.4072 4.51755L10.8213 1.93162L8.95117 3.80271Z" fill="#4ADE80"/>
</svg>
