<svg viewBox="0 0 48 48" x="0" y="0" fill="none" xmlns="http://www.w3.org/2000/svg"><g id="Group 16_2" xmlns="http://www.w3.org/2000/svg">
<rect id="Rectangle 25_2" opacity="0.2" x="0" y="0" width="48" height="48" rx="12" fill="currentColor"/>
<g id="edit-2">
<path id="🎨 Icon Сolor" d="M30.7197,31.66c0.5278,0 0.96,0.43 0.96,0.96c0,0.53 -0.4322,0.96 -0.96,0.96h-13.4404c-0.527,0 -0.96,-0.43 -0.96,-0.96c0.0001,-0.53 0.433,-0.96 0.96,-0.96zM25.8701,14.89c0.6739,-0.68 1.8961,-0.65 2.6074,0.06l2.6289,2.63h0.001c0.7343,0.74 0.7639,1.91 0.0655,2.61l-8.6377,8.64c-0.312,0.31 -0.7256,0.5 -1.1651,0.54l-4.0029,0.37c-0.0288,0 -0.0581,0 -0.0879,0c-0.2524,0 -0.4973,-0.1 -0.6787,-0.28c-0.2016,-0.2 -0.3023,-0.48 -0.2774,-0.77l0.3643,-4c0.0403,-0.44 0.234,-0.85 0.5469,-1.17zM18.5918,24.88l-0.2529,2.84l2.8574,-0.26l5.376,-5.38l-2.5879,-2.59zM25.2705,18.2l2.5869,2.59l1.8692,-1.87l-2.586,-2.59z" fill="currentColor"/>
</g>
</g></svg>