<svg viewBox="0 0 18.6667 15.3333" x="0" y="0" fill="none" xmlns="http://www.w3.org/2000/svg"><path id="Icon" d="M9.3333,14.333h-5.6667c-0.9334,0 -1.4001,0 -1.7566,-0.181c-0.3136,-0.16 -0.5686,-0.415 -0.7284,-0.729c-0.1816,-0.356 -0.1816,-0.823 -0.1816,-1.756v-8c0,-0.934 0,-1.4 0.1816,-1.757c0.1598,-0.314 0.4148,-0.569 0.7284,-0.728c0.3565,-0.182 0.8232,-0.182 1.7566,-0.182h0.3334c1.8668,0 2.8002,0 3.5133,0.363c0.6272,0.32 1.1371,0.83 1.4567,1.457c0.3633,0.713 0.3633,1.646 0.3633,3.513M9.3333,14.333v-8M9.3333,14.333h5.6667c0.9334,0 1.4001,0 1.7566,-0.181c0.3136,-0.16 0.5686,-0.415 0.7284,-0.729c0.1816,-0.356 0.1816,-0.823 0.1816,-1.756v-8c0,-0.934 0,-1.4 -0.1816,-1.757c-0.1598,-0.314 -0.4148,-0.569 -0.7284,-0.728c-0.3565,-0.182 -0.8232,-0.182 -1.7566,-0.182h-0.3334c-1.8668,0 -2.8002,0 -3.5133,0.363c-0.6272,0.32 -1.1371,0.83 -1.4567,1.457c-0.3633,0.713 -0.3633,1.646 -0.3633,3.513" stroke="white" stroke-width="2" stroke-linecap="round" stroke-linejoin="round" xmlns="http://www.w3.org/2000/svg"/></svg>