<svg viewBox="0 0 20 21.9982" x="0" y="0" fill="none" xmlns="http://www.w3.org/2000/svg"><path id="vector_37" d="M2.5,0c-1.38,0 -2.5,1.12 -2.5,2.5v2.324c0.0005,0.535 0.144,1.06 0.4154,1.52c0.2715,0.461 0.6611,0.841 1.1286,1.1l5.752,3.198c-1.2048,0.608 -2.1694,1.605 -2.7378,2.829c-0.5685,1.224 -0.7076,2.604 -0.395,3.917c0.3126,1.313 1.0587,2.482 2.1178,3.319c1.0592,0.836 2.3694,1.291 3.719,1.291c1.3496,0 2.6598,-0.455 3.719,-1.291c1.0591,-0.837 1.8052,-2.006 2.1178,-3.319c0.3126,-1.313 0.1735,-2.693 -0.395,-3.917c-0.5684,-1.224 -1.533,-2.221 -2.7378,-2.829l5.754,-3.196c0.4674,-0.26 0.8568,-0.64 1.128,-1.101c0.2711,-0.461 0.414,-0.986 0.414,-1.521v-2.324c0,-1.38 -1.12,-2.5 -2.5,-2.5zM2,2.5c0,-0.133 0.0527,-0.26 0.1464,-0.354c0.0938,-0.093 0.221,-0.146 0.3536,-0.146h3.5v5.634l-3.486,-1.936c-0.1558,-0.087 -0.2856,-0.213 -0.376,-0.367c-0.0904,-0.154 -0.138,-0.329 -0.138,-0.507zM8,8.744v-6.744h4v6.744l-2,1.112zM14,7.634v-5.634h3.5c0.1326,0 0.2598,0.053 0.3536,0.146c0.0937,0.094 0.1464,0.221 0.1464,0.354v2.324c0,0.178 -0.0476,0.353 -0.138,0.507c-0.0904,0.154 -0.2202,0.28 -0.376,0.367zM14,16c0,1.061 -0.4214,2.078 -1.1716,2.828c-0.7501,0.751 -1.7675,1.172 -2.8284,1.172c-1.0609,0 -2.0783,-0.421 -2.8284,-1.172c-0.7502,-0.75 -1.1716,-1.767 -1.1716,-2.828c0,-1.061 0.4214,-2.078 1.1716,-2.828c0.7501,-0.751 1.7675,-1.172 2.8284,-1.172c1.0609,0 2.0783,0.421 2.8284,1.172c0.7502,0.75 1.1716,1.767 1.1716,2.828z" fill="currentColor" xmlns="http://www.w3.org/2000/svg"/></svg>