<svg width="24" height="24" viewBox="0 0 24 24" fill="none" xmlns="http://www.w3.org/2000/svg">
<path d="M4.5 2C3.12 2 2 3.12 2 4.5V6.824C2.00053 7.35868 2.14395 7.8835 2.41541 8.34414C2.68688 8.80478 3.07651 9.1845 3.544 9.444L9.296 12.642C8.0912 13.2502 7.12664 14.2469 6.55818 15.471C5.98972 16.695 5.85056 18.075 6.16318 19.388C6.4758 20.7009 7.22194 21.8701 8.28105 22.7066C9.34016 23.5431 10.6504 23.9982 12 23.9982C13.3496 23.9982 14.6598 23.5431 15.719 22.7066C16.7781 21.8701 17.5242 20.7009 17.8368 19.388C18.1494 18.075 18.0103 16.695 17.4418 15.471C16.8734 14.2469 15.9088 13.2502 14.704 12.642L20.458 9.446C20.9254 9.18608 21.3148 8.80593 21.586 8.34492C21.8571 7.88392 22 7.35882 22 6.824V4.5C22 3.12 20.88 2 19.5 2H4.5ZM4 4.5C4 4.36739 4.05268 4.24021 4.14645 4.14645C4.24021 4.05268 4.36739 4 4.5 4H8V9.634L4.514 7.698C4.3582 7.61136 4.22839 7.48464 4.13802 7.33098C4.04764 7.17731 3.99999 7.00227 4 6.824V4.5ZM10 10.744V4H14V10.744L12 11.856L10 10.744ZM16 9.634V4H19.5C19.6326 4 19.7598 4.05268 19.8536 4.14645C19.9473 4.24021 20 4.36739 20 4.5V6.824C20 7.00227 19.9524 7.17731 19.862 7.33098C19.7716 7.48464 19.6418 7.61136 19.486 7.698L16 9.634ZM16 18C16 19.0609 15.5786 20.0783 14.8284 20.8284C14.0783 21.5786 13.0609 22 12 22C10.9391 22 9.92172 21.5786 9.17157 20.8284C8.42143 20.0783 8 19.0609 8 18C8 16.9391 8.42143 15.9217 9.17157 15.1716C9.92172 14.4214 10.9391 14 12 14C13.0609 14 14.0783 14.4214 14.8284 15.1716C15.5786 15.9217 16 16.9391 16 18Z" fill="#FDFDFF"/>
</svg>
