<svg viewBox="0 0 20 20" x="0" y="0" fill="none" xmlns="http://www.w3.org/2000/svg"><path id="Folder_2" d="M7.3848,0c0.9221,0 1.7909,0.435 2.3437,1.173l0.8809,1.174c0.2807,0.373 0.7203,0.593 1.1855,0.594h2.7344c3.781,0 5.4707,1.982 5.4707,6.03l-0.0264,4.8c0,3.864 -2.3626,6.229 -6.2207,6.229h-7.5234c-3.8655,0 -6.2295,-2.364 -6.2295,-6.229v-7.542c0,-4.054 1.7302,-6.229 5.4531,-6.229zM5.4531,1.451c-2.8404,0 -4.0039,1.463 -4.0039,4.778v7.542c0,3.063 1.7149,4.778 4.7803,4.778h7.5234c3.0575,0 4.7715,-1.716 4.7715,-4.781l0.0264,-4.801c0,-3.289 -1.0964,-4.574 -4.0215,-4.574h-2.7354c-0.9209,-0.002 -1.7884,-0.436 -2.3427,-1.173l-0.8819,-1.175c-0.2795,-0.373 -0.7186,-0.594 -1.1845,-0.594zM14.6182,11.818c0.4001,0.001 0.7246,0.325 0.7246,0.726c-0.0001,0.367 -0.2733,0.671 -0.627,0.719l-0.0976,0.007h-9.2715c-0.4001,-0.001 -0.7246,-0.325 -0.7246,-0.726c0,-0.367 0.2732,-0.672 0.6269,-0.72l0.0977,-0.006z" fill="currentColor" xmlns="http://www.w3.org/2000/svg"/></svg>