<svg width="24" height="24" viewBox="0 0 24 24" fill="none" xmlns="http://www.w3.org/2000/svg">
<path d="M9.38477 2C10.3069 2.00005 11.1757 2.43482 11.7285 3.17285L12.6094 4.34668C12.8901 4.71992 13.3297 4.94043 13.7949 4.94141H16.5293C20.3103 4.94141 22 6.92285 22 10.9707L21.9736 15.7715C21.9736 19.6347 19.611 22 15.7529 22H8.22949C4.36396 22 2 19.6361 2 15.7715V8.22852C2 4.17549 3.73023 2 7.45312 2H9.38477ZM7.45312 3.45117C4.61265 3.45117 3.44922 4.91377 3.44922 8.22852V15.7715C3.44922 18.8341 5.16414 20.5488 8.22949 20.5488H15.7529C18.8104 20.5488 20.5244 18.8331 20.5244 15.7676L20.5508 10.9668C20.5508 7.67814 19.4544 6.39258 16.5293 6.39258H13.7939C12.873 6.39074 12.0055 5.95678 11.4512 5.21973L10.5693 4.04492C10.2898 3.67168 9.85069 3.45123 9.38477 3.45117H7.45312ZM16.6182 13.8184C17.0183 13.8186 17.3428 14.1433 17.3428 14.5439C17.3427 14.9113 17.0695 15.2146 16.7158 15.2627L16.6182 15.2695H7.34668C6.94657 15.2694 6.62215 14.9446 6.62207 14.5439C6.62207 14.1765 6.89526 13.8723 7.24902 13.8242L7.34668 13.8184H16.6182Z" fill="#FDFDFF"/>
</svg>
