<svg viewBox="0 0 18 5.625" x="0" y="0" fill="none" xmlns="http://www.w3.org/2000/svg"><path id="Vector_4" d="M17.25,2.063h-9.0518c-0.1609,-0.593 -0.5123,-1.115 -0.9999,-1.488c-0.4877,-0.373 -1.0844,-0.575 -1.6982,-0.575c-0.6138,0 -1.2105,0.202 -1.6981,0.575c-0.4876,0.373 -0.839,0.895 -1,1.488h-2.052c-0.1989,0 -0.3897,0.079 -0.5303,0.219c-0.1407,0.141 -0.2197,0.332 -0.2197,0.531c0,0.199 0.079,0.389 0.2197,0.53c0.1406,0.141 0.3314,0.22 0.5303,0.22h2.052c0.161,0.592 0.5124,1.115 1,1.488c0.4876,0.372 1.0843,0.574 1.6981,0.574c0.6138,0 1.2105,-0.202 1.6982,-0.574c0.4876,-0.373 0.839,-0.896 0.9999,-1.488h9.0518c0.1989,0 0.3897,-0.079 0.5303,-0.22c0.1407,-0.141 0.2197,-0.331 0.2197,-0.53c0,-0.199 -0.079,-0.39 -0.2197,-0.531c-0.1406,-0.14 -0.3314,-0.219 -0.5303,-0.219zM5.4998,4.125c-0.2596,0 -0.5134,-0.077 -0.7292,-0.221c-0.2159,-0.144 -0.3841,-0.349 -0.4834,-0.589c-0.0994,-0.24 -0.1254,-0.504 -0.0747,-0.758c0.0506,-0.255 0.1756,-0.489 0.3592,-0.672c0.1835,-0.184 0.4174,-0.309 0.672,-0.36c0.2546,-0.05 0.5185,-0.024 0.7583,0.075c0.2398,0.099 0.4448,0.268 0.5891,0.484c0.1442,0.215 0.2212,0.469 0.2212,0.729c-0.0006,0.348 -0.1391,0.681 -0.3851,0.927c-0.246,0.246 -0.5795,0.385 -0.9274,0.385z" fill="currentColor" xmlns="http://www.w3.org/2000/svg"/></svg>