<svg viewBox="0 0 18 5.6268" x="0" y="0" fill="none" xmlns="http://www.w3.org/2000/svg"><path id="Vector_3" d="M17.25,2.0631h-2.052c-0.1607,-0.592 -0.512,-1.1152 -0.9995,-1.4881c-0.4876,-0.3729 -1.0844,-0.575 -1.6983,-0.575c-0.6138,0 -1.2106,0.2021 -1.6982,0.575c-0.4875,0.3729 -0.8388,0.8961 -0.9995,1.4881h-9.0525c-0.1989,0 -0.3897,0.079 -0.5303,0.22c-0.1407,0.141 -0.2197,0.331 -0.2197,0.53c0,0.199 0.079,0.39 0.2197,0.531c0.1406,0.14 0.3314,0.219 0.5303,0.219h9.0525c0.1607,0.593 0.512,1.116 0.9995,1.489c0.4876,0.373 1.0844,0.575 1.6982,0.575c0.6139,0 1.2107,-0.202 1.6983,-0.575c0.4875,-0.373 0.8388,-0.896 0.9995,-1.489h2.052c0.1989,0 0.3897,-0.079 0.5303,-0.219c0.1407,-0.141 0.2197,-0.332 0.2197,-0.531c0,-0.199 -0.079,-0.389 -0.2197,-0.53c-0.1406,-0.141 -0.3314,-0.22 -0.5303,-0.22zM12.5002,4.1261c-0.2595,0 -0.5133,-0.077 -0.7291,-0.221c-0.2159,-0.145 -0.3841,-0.35 -0.4834,-0.589c-0.0994,-0.24 -0.1254,-0.504 -0.0747,-0.759c0.0506,-0.254 0.1756,-0.488 0.3592,-0.672c0.1835,-0.183 0.4174,-0.308 0.672,-0.359c0.2546,-0.051 0.5185,-0.025 0.7583,0.075c0.2399,0.099 0.4448,0.267 0.5891,0.483c0.1442,0.216 0.2211,0.47 0.2211,0.729c-0.0003,0.348 -0.1388,0.682 -0.3848,0.928c-0.2461,0.246 -0.5797,0.384 -0.9277,0.385z" fill="currentColor" xmlns="http://www.w3.org/2000/svg"/></svg>