<svg viewBox="0 0 18 5.6254" x="0" y="0" fill="none" xmlns="http://www.w3.org/2000/svg"><path id="Vector_2" d="M0.75,3.5627h2.052c0.161,0.5923 0.5124,1.1152 1,1.4879c0.4876,0.3728 1.0843,0.5748 1.6981,0.5748c0.6138,0 1.2105,-0.202 1.6982,-0.5748c0.4876,-0.3727 0.839,-0.8956 0.9999,-1.4879h9.0518c0.1989,0 0.3897,-0.079 0.5303,-0.2197c0.1407,-0.1406 0.2197,-0.3314 0.2197,-0.5303c0,-0.1989 -0.079,-0.3897 -0.2197,-0.5303c-0.1406,-0.1407 -0.3314,-0.2197 -0.5303,-0.2197h-9.0518c-0.1609,-0.5923 -0.5123,-1.1152 -0.9999,-1.488c-0.4877,-0.3727 -1.0844,-0.5747 -1.6982,-0.5747c-0.6138,0 -1.2105,0.202 -1.6981,0.5747c-0.4876,0.3728 -0.839,0.8957 -1,1.488h-2.052c-0.1989,0 -0.3897,0.079 -0.5303,0.2197c-0.1407,0.1406 -0.2197,0.3314 -0.2197,0.5303c0,0.1989 0.079,0.3897 0.2197,0.5303c0.1406,0.1407 0.3314,0.2197 0.5303,0.2197zM5.4998,1.5002c0.2595,0 0.5133,0.077 0.7291,0.2212c0.2159,0.1442 0.3841,0.3492 0.4834,0.589c0.0994,0.2399 0.1254,0.5038 0.0747,0.7584c-0.0506,0.2546 -0.1756,0.4884 -0.3592,0.672c-0.1835,0.1835 -0.4174,0.3085 -0.672,0.3592c-0.2546,0.0506 -0.5185,0.0246 -0.7583,-0.0747c-0.2399,-0.0994 -0.4448,-0.2676 -0.5891,-0.4834c-0.1442,-0.2159 -0.2211,-0.4696 -0.2211,-0.7292c0.0003,-0.348 0.1388,-0.6816 0.3848,-0.9276c0.2461,-0.2461 0.5797,-0.3845 0.9277,-0.3849z" fill="currentColor" xmlns="http://www.w3.org/2000/svg"/></svg>