<svg viewBox="0 0 20 20" x="0" y="0" fill="none" xmlns="http://www.w3.org/2000/svg"><path id="Category_2" d="M6.0137,10.945c1.6448,0 2.9754,1.343 2.9756,2.996v3.064c-0.0003,1.653 -1.331,2.995 -2.9756,2.995h-3.0381c-1.6446,0 -2.9754,-1.342 -2.9756,-2.995v-3.064c0.0002,-1.653 1.3307,-2.996 2.9756,-2.996zM17.0254,10.945c1.644,0 2.9744,1.343 2.9746,2.996v3.064c-0.0002,1.652 -1.3308,2.995 -2.9746,2.995h-3.0391c-1.6446,0 -2.9753,-1.342 -2.9756,-2.995v-3.064c0.0002,-1.653 1.3308,-2.996 2.9756,-2.996zM2.9756,12.341c-0.8714,0 -1.5799,0.715 -1.5801,1.6v3.064c0.0003,0.885 0.7088,1.6 1.5801,1.6h3.0381c0.8712,0 1.5798,-0.715 1.5801,-1.6v-3.064c-0.0003,-0.885 -0.7087,-1.6 -1.5801,-1.6zM13.9863,12.341c-0.8714,0 -1.5798,0.715 -1.5801,1.6v3.064c0.0003,0.885 0.7089,1.6 1.5801,1.6h3.0391c0.8704,0 1.5788,-0.715 1.5791,-1.6v-3.064c-0.0002,-0.885 -0.7086,-1.6 -1.5791,-1.6zM6.0137,0c1.6446,0 2.9753,1.342 2.9756,2.995v3.065c0,1.652 -1.3311,2.995 -2.9756,2.995h-3.0381c-1.6445,0 -2.9756,-1.343 -2.9756,-2.995v-3.065c0.0002,-1.653 1.3309,-2.995 2.9756,-2.995zM17.0254,0c1.6438,0 2.9744,1.342 2.9746,2.995v3.065c0,1.652 -1.3309,2.995 -2.9746,2.995h-3.0391c-1.6445,0 -2.9756,-1.343 -2.9756,-2.995v-3.065c0.0003,-1.653 1.331,-2.995 2.9756,-2.995zM2.9756,1.396c-0.8713,0 -1.5799,0.714 -1.5801,1.599v3.065c0,0.884 0.709,1.6 1.5801,1.6h3.0381c0.871,0 1.5801,-0.716 1.5801,-1.6v-3.065c-0.0003,-0.885 -0.7088,-1.599 -1.5801,-1.599zM13.9863,1.396c-0.8713,0 -1.5798,0.714 -1.5801,1.599v3.065c0,0.884 0.7091,1.6 1.5801,1.6h3.0391c0.8702,0 1.5791,-0.716 1.5791,-1.6v-3.065c-0.0002,-0.885 -0.7087,-1.599 -1.5791,-1.599z" fill="currentColor" xmlns="http://www.w3.org/2000/svg"/></svg>