<svg width="128" height="13" viewBox="0 0 128 13" fill="none" xmlns="http://www.w3.org/2000/svg">
<path d="M-5.85914e-05 6.94394C-5.85914e-05 5.84528 0.245275 4.86395 0.735941 3.99994C1.23727 3.12528 1.91461 2.44794 2.76794 1.96795C3.63194 1.47728 4.59727 1.23195 5.66394 1.23195C6.91194 1.23195 8.00528 1.55195 8.94394 2.19195C9.88261 2.83195 10.5386 3.71728 10.9119 4.84794H8.33594C8.07994 4.31461 7.71727 3.91461 7.24794 3.64794C6.78928 3.38128 6.25594 3.24794 5.64794 3.24794C4.99728 3.24794 4.41594 3.40261 3.90394 3.71194C3.40261 4.01061 3.00794 4.43728 2.71994 4.99194C2.44261 5.54661 2.30394 6.19728 2.30394 6.94394C2.30394 7.67994 2.44261 8.33061 2.71994 8.89595C3.00794 9.45061 3.40261 9.88261 3.90394 10.1919C4.41594 10.4906 4.99728 10.6399 5.64794 10.6399C6.25594 10.6399 6.78928 10.5066 7.24794 10.2399C7.71727 9.96261 8.07994 9.55728 8.33594 9.02395H10.9119C10.5386 10.1653 9.88261 11.0559 8.94394 11.6959C8.01594 12.3253 6.92261 12.6399 5.66394 12.6399C4.59727 12.6399 3.63194 12.3999 2.76794 11.9199C1.91461 11.4293 1.23727 10.7519 0.735941 9.88795C0.245275 9.02395 -5.85914e-05 8.04261 -5.85914e-05 6.94394ZM17.8172 3.55194C18.4892 3.55194 19.0865 3.70128 19.6092 3.99994C20.1319 4.28794 20.5372 4.71994 20.8252 5.29595C21.1239 5.86128 21.2732 6.54395 21.2732 7.34395V12.5439H19.0332V7.64794C19.0332 6.94395 18.8572 6.40528 18.5052 6.03195C18.1532 5.64795 17.6732 5.45595 17.0652 5.45595C16.4465 5.45595 15.9559 5.64795 15.5932 6.03195C15.2412 6.40528 15.0652 6.94395 15.0652 7.64794V12.5439H12.8252V0.703945H15.0652V4.78395C15.3532 4.39994 15.7372 4.10128 16.2172 3.88795C16.6972 3.66394 17.2305 3.55194 17.8172 3.55194ZM22.8273 8.07995C22.8273 7.18395 23.0033 6.38928 23.3553 5.69594C23.718 5.00261 24.2033 4.46928 24.8113 4.09595C25.43 3.72261 26.118 3.53594 26.8753 3.53594C27.5367 3.53594 28.1127 3.66928 28.6033 3.93594C29.1047 4.20261 29.5046 4.53861 29.8033 4.94394V3.67994H32.0593V12.5439H29.8033V11.2479C29.5153 11.6639 29.1153 12.0106 28.6033 12.2879C28.102 12.5546 27.5206 12.6879 26.8593 12.6879C26.1126 12.6879 25.43 12.4959 24.8113 12.1119C24.2033 11.7279 23.718 11.1893 23.3553 10.4959C23.0033 9.79195 22.8273 8.98661 22.8273 8.07995ZM29.8033 8.11195C29.8033 7.56795 29.6967 7.10395 29.4833 6.71994C29.27 6.32528 28.982 6.02661 28.6193 5.82395C28.2567 5.61061 27.8673 5.50394 27.4513 5.50394C27.0353 5.50394 26.6513 5.60528 26.2993 5.80794C25.9473 6.01061 25.6593 6.30928 25.4353 6.70395C25.222 7.08794 25.1153 7.54661 25.1153 8.07995C25.1153 8.61328 25.222 9.08261 25.4353 9.48795C25.6593 9.88261 25.9473 10.1866 26.2993 10.3999C26.662 10.6133 27.046 10.7199 27.4513 10.7199C27.8673 10.7199 28.2567 10.6186 28.6193 10.4159C28.982 10.2026 29.27 9.90395 29.4833 9.51995C29.6967 9.12528 29.8033 8.65595 29.8033 8.11195ZM36.8551 5.51995V9.80795C36.8551 10.1066 36.9244 10.3253 37.0631 10.4639C37.2124 10.5919 37.4577 10.6559 37.7991 10.6559H38.8391V12.5439H37.4311C35.5431 12.5439 34.5991 11.6266 34.5991 9.79195V5.51995H33.5431V3.67994H34.5991V1.48794H36.8551V3.67994H38.8391V5.51995H36.8551ZM56.5507 3.67994L53.9587 12.5439H51.5427L49.9267 6.35194L48.3107 12.5439H45.8787L43.2707 3.67994H45.5427L47.1107 10.4319L48.8067 3.67994H51.1747L52.8387 10.4159L54.4067 3.67994H56.5507ZM58.8987 2.62395C58.504 2.62395 58.1734 2.50128 57.9067 2.25595C57.6507 1.99994 57.5227 1.68528 57.5227 1.31194C57.5227 0.938611 57.6507 0.629278 57.9067 0.383945C58.1734 0.127945 58.504 -5.53131e-05 58.8987 -5.53131e-05C59.2934 -5.53131e-05 59.6187 0.127945 59.8747 0.383945C60.1414 0.629278 60.2747 0.938611 60.2747 1.31194C60.2747 1.68528 60.1414 1.99994 59.8747 2.25595C59.6187 2.50128 59.2934 2.62395 58.8987 2.62395ZM60.0027 3.67994V12.5439H57.7627V3.67994H60.0027ZM64.8238 5.51995V9.80795C64.8238 10.1066 64.8931 10.3253 65.0318 10.4639C65.1811 10.5919 65.4265 10.6559 65.7678 10.6559H66.8078V12.5439H65.3998C63.5118 12.5439 62.5678 11.6266 62.5678 9.79195V5.51995H61.5118V3.67994H62.5678V1.48794H64.8238V3.67994H66.8078V5.51995H64.8238ZM73.4109 3.55194C74.0829 3.55194 74.6803 3.70128 75.2029 3.99994C75.7256 4.28794 76.1309 4.71994 76.4189 5.29595C76.7176 5.86128 76.8669 6.54395 76.8669 7.34395V12.5439H74.6269V7.64794C74.6269 6.94395 74.4509 6.40528 74.0989 6.03195C73.7469 5.64795 73.2669 5.45595 72.6589 5.45595C72.0403 5.45595 71.5496 5.64795 71.1869 6.03195C70.8349 6.40528 70.6589 6.94395 70.6589 7.64794V12.5439H68.4189V0.703945H70.6589V4.78395C70.9469 4.39994 71.3309 4.10128 71.8109 3.88795C72.2909 3.66394 72.8243 3.55194 73.4109 3.55194ZM86.6656 12.6559C85.8869 12.6559 85.1829 12.5226 84.5536 12.2559C83.9349 11.9893 83.4442 11.6053 83.0816 11.1039C82.7189 10.6026 82.5322 10.0106 82.5216 9.32795H84.9216C84.9536 9.78661 85.1136 10.1493 85.4016 10.4159C85.7002 10.6826 86.1056 10.8159 86.6176 10.8159C87.1402 10.8159 87.5509 10.6933 87.8496 10.4479C88.1482 10.1919 88.2976 9.86128 88.2976 9.45595C88.2976 9.12528 88.1962 8.85328 87.9936 8.63995C87.7909 8.42661 87.5349 8.26128 87.2256 8.14395C86.9269 8.01595 86.5109 7.87728 85.9776 7.72794C85.2522 7.51461 84.6602 7.30661 84.2016 7.10395C83.7536 6.89061 83.3642 6.57595 83.0336 6.15995C82.7136 5.73328 82.5536 5.16795 82.5536 4.46395C82.5536 3.80261 82.7189 3.22661 83.0496 2.73594C83.3802 2.24528 83.8442 1.87194 84.4416 1.61594C85.0389 1.34928 85.7216 1.21595 86.4896 1.21595C87.6416 1.21595 88.5749 1.49861 89.2896 2.06394C90.0149 2.61861 90.4149 3.39728 90.4896 4.39995H88.0256C88.0042 4.01595 87.8389 3.70128 87.5296 3.45595C87.2309 3.19995 86.8309 3.07195 86.3296 3.07195C85.8922 3.07195 85.5402 3.18395 85.2736 3.40794C85.0176 3.63194 84.8896 3.95728 84.8896 4.38394C84.8896 4.68261 84.9856 4.93328 85.1776 5.13594C85.3802 5.32794 85.6256 5.48794 85.9136 5.61594C86.2122 5.73328 86.6282 5.87195 87.1616 6.03195C87.8869 6.24528 88.4789 6.45861 88.9376 6.67195C89.3962 6.88528 89.7909 7.20528 90.1216 7.63195C90.4522 8.05861 90.6176 8.61861 90.6176 9.31195C90.6176 9.90928 90.4629 10.4639 90.1536 10.9759C89.8442 11.4879 89.3909 11.8986 88.7936 12.2079C88.1962 12.5066 87.4869 12.6559 86.6656 12.6559ZM93.6956 2.62395C93.3009 2.62395 92.9702 2.50128 92.7036 2.25595C92.4476 1.99994 92.3196 1.68528 92.3196 1.31194C92.3196 0.938611 92.4476 0.629278 92.7036 0.383945C92.9702 0.127945 93.3009 -5.53131e-05 93.6956 -5.53131e-05C94.0902 -5.53131e-05 94.4156 0.127945 94.6716 0.383945C94.9382 0.629278 95.0716 0.938611 95.0716 1.31194C95.0716 1.68528 94.9382 1.99994 94.6716 2.25595C94.4156 2.50128 94.0902 2.62395 93.6956 2.62395ZM94.7996 3.67994V12.5439H92.5596V3.67994H94.7996ZM108.021 3.55194C109.109 3.55194 109.983 3.88794 110.645 4.55995C111.317 5.22128 111.653 6.14928 111.653 7.34395V12.5439H109.413V7.64794C109.413 6.95461 109.237 6.42661 108.885 6.06394C108.533 5.69061 108.053 5.50394 107.445 5.50394C106.837 5.50394 106.351 5.69061 105.989 6.06394C105.637 6.42661 105.461 6.95461 105.461 7.64794V12.5439H103.221V7.64794C103.221 6.95461 103.045 6.42661 102.693 6.06394C102.341 5.69061 101.861 5.50394 101.253 5.50394C100.634 5.50394 100.143 5.69061 99.7807 6.06394C99.4287 6.42661 99.2527 6.95461 99.2527 7.64794V12.5439H97.0127V3.67994H99.2527V4.75195C99.5407 4.37861 99.9087 4.08528 100.357 3.87194C100.815 3.65861 101.317 3.55194 101.861 3.55194C102.554 3.55194 103.173 3.70128 103.717 3.99994C104.261 4.28794 104.682 4.70394 104.981 5.24794C105.269 4.73595 105.685 4.32528 106.229 4.01594C106.783 3.70661 107.381 3.55194 108.021 3.55194ZM116.018 4.97594C116.306 4.54928 116.701 4.20261 117.202 3.93594C117.714 3.66928 118.296 3.53594 118.946 3.53594C119.704 3.53594 120.386 3.72261 120.994 4.09595C121.613 4.46928 122.098 5.00261 122.45 5.69594C122.813 6.37861 122.994 7.17328 122.994 8.07995C122.994 8.98661 122.813 9.79195 122.45 10.4959C122.098 11.1893 121.613 11.7279 120.994 12.1119C120.386 12.4959 119.704 12.6879 118.946 12.6879C118.285 12.6879 117.704 12.5599 117.202 12.3039C116.712 12.0373 116.317 11.6959 116.018 11.2799V12.5439H113.778V0.703945H116.018V4.97594ZM120.706 8.07995C120.706 7.54661 120.594 7.08794 120.37 6.70395C120.157 6.30928 119.869 6.01061 119.506 5.80794C119.154 5.60528 118.77 5.50394 118.354 5.50394C117.949 5.50394 117.565 5.61061 117.202 5.82395C116.85 6.02661 116.562 6.32528 116.338 6.71994C116.125 7.11461 116.018 7.57861 116.018 8.11195C116.018 8.64528 116.125 9.10928 116.338 9.50395C116.562 9.89861 116.85 10.2026 117.202 10.4159C117.565 10.6186 117.949 10.7199 118.354 10.7199C118.77 10.7199 119.154 10.6133 119.506 10.3999C119.869 10.1866 120.157 9.88261 120.37 9.48795C120.594 9.09328 120.706 8.62395 120.706 8.07995ZM125.758 2.62395C125.363 2.62395 125.033 2.50128 124.766 2.25595C124.51 1.99994 124.382 1.68528 124.382 1.31194C124.382 0.938611 124.51 0.629278 124.766 0.383945C125.033 0.127945 125.363 -5.53131e-05 125.758 -5.53131e-05C126.153 -5.53131e-05 126.478 0.127945 126.734 0.383945C127.001 0.629278 127.134 0.938611 127.134 1.31194C127.134 1.68528 127.001 1.99994 126.734 2.25595C126.478 2.50128 126.153 2.62395 125.758 2.62395ZM126.862 3.67994V12.5439H124.622V3.67994H126.862Z" fill="#7A5FFF"/>
</svg>
