<svg width="34" height="30" viewBox="0 0 34 30" fill="none" xmlns="http://www.w3.org/2000/svg">
<g clip-path="url(#clip0_1432_17890)">
<g clip-path="url(#clip1_1432_17890)">
<g clip-path="url(#clip2_1432_17890)">
<path d="M16.875 0C20.8532 0 24.6686 1.58035 27.4816 4.3934C30.2946 7.20644 31.875 11.0218 31.875 15C31.875 18.9782 30.2946 22.7936 27.4816 25.6066C24.6686 28.4196 20.8532 30 16.875 30C12.8968 30 9.08144 28.4196 6.2684 25.6066C3.45535 22.7936 1.875 18.9782 1.875 15C1.875 11.0218 3.45535 7.20644 6.2684 4.3934C9.08144 1.58035 12.8968 0 16.875 0ZM15.4688 7.03125V15C15.4688 15.4688 15.7031 15.9082 16.0957 16.1719L21.7207 19.9219C22.3652 20.3555 23.2383 20.1797 23.6719 19.5293C24.1055 18.8789 23.9297 18.0117 23.2793 17.5781L18.2812 14.25V7.03125C18.2812 6.25195 17.6543 5.625 16.875 5.625C16.0957 5.625 15.4688 6.25195 15.4688 7.03125Z" fill="#7A5FFF"/>
</g>
</g>
</g>
<defs>
<clipPath id="clip0_1432_17890">
<rect width="33.75" height="30" fill="white"/>
</clipPath>
<clipPath id="clip1_1432_17890">
<rect width="30" height="30" fill="white" transform="translate(1.875)"/>
</clipPath>
<clipPath id="clip2_1432_17890">
<path d="M1.875 0H31.875V30H1.875V0Z" fill="white"/>
</clipPath>
</defs>
</svg>
