<svg width="104" height="101" viewBox="0 0 104 101" fill="none" xmlns="http://www.w3.org/2000/svg">
<path d="M100.131 44.4554C101.55 44.2887 102.569 42.9966 102.319 41.5896C100.311 30.3223 94.4002 20.031 85.5281 12.455C75.9873 4.3081 63.6933 -0.125877 51.0017 0.00271799C38.3102 0.131313 26.1137 4.81344 16.7492 13.1519C8.04057 20.9065 2.35085 31.3161 0.585285 42.6225C0.364936 44.0336 1.40999 45.3032 2.83151 45.441C4.24234 45.5777 5.49086 44.547 5.71691 43.1477C7.34651 33.0603 12.4491 23.7797 20.2281 16.8528C28.6561 9.34819 39.633 5.13428 51.0554 5.01854C62.4778 4.90281 73.5424 8.89339 82.1291 16.2256C90.0556 22.9941 95.3559 32.1707 97.2003 42.2243C97.4558 43.6172 98.7242 44.6205 100.131 44.4554Z" fill="#E9EDF0"/>
<path d="M2.82807 45.4738C1.40649 45.337 0.360567 44.0683 0.579933 42.6571C1.80303 34.7888 4.93454 27.3034 9.73073 20.828C15.0463 13.6514 22.2174 7.97077 30.5167 4.36227C38.816 0.75377 47.9483 -0.654213 56.9872 0.281139C65.1562 1.12647 72.9862 3.85862 79.8316 8.23457C81.0311 9.00137 81.2785 10.6264 80.4226 11.7641C79.5975 12.861 78.052 13.094 76.8935 12.3579C70.7585 8.45998 63.7511 6.02545 56.4423 5.26912C48.3073 4.42731 40.0883 5.69449 32.6189 8.94214C25.1495 12.1898 18.6955 17.3024 13.9115 23.7613C9.64144 29.5263 6.83748 36.1809 5.71196 43.1787C5.48686 44.5781 4.23903 45.6096 2.82807 45.4738Z" fill="#4B62FF"/>
</svg>
