<svg width="150" height="54" viewBox="0 0 150 54" fill="none" xmlns="http://www.w3.org/2000/svg">
<path d="M46.6182 36.8727C46.6182 36.8727 49.5335 35.9341 50.0191 32.7936C50.5048 29.653 46.682 29.1569 46.682 29.1569C48.805 27.8723 48.5955 25.2813 48.5955 25.2813C49.1876 20.6361 45.3368 20.0517 45.3368 20.0517C45.3368 20.0517 47.0183 18.5578 46.5931 16.3328C45.767 12.0071 41.1836 12.6419 41.1836 12.6419C40.9724 10.4257 39.3923 8.53326 37.1592 7.95876C37.1254 7.94992 37.0916 7.94147 37.0578 7.93341C34.7755 7.37081 32.3546 8.31282 31.0211 10.2053L30.8338 10.4714C30.7808 10.1957 30.6669 9.90691 30.5217 9.62388C29.7719 8.16037 28.3495 7.12619 26.7022 6.7149C22.788 5.73794 20.5653 8.40883 20.5653 8.40883C19.1592 6.37312 15.3302 6.68763 15.3302 6.68763C6.87592 7.68417 7.9908 15.7537 7.9908 15.7537C7.9908 15.7537 4.44087 13.0705 1.27689 18.1108C-1.8875 23.1507 2.61375 27.3051 2.61375 27.3051C1.82683 27.5125 0.959368 28.8385 0.959368 28.8385C-1.48152 33.984 5.47314 36.2099 5.47314 36.2099C2.3271 41.2598 9.36897 41.8005 9.36897 41.8005C9.76034 44.7383 12.4645 42.681 12.4645 42.681C11.9162 46.2432 14.9459 44.8723 14.9459 44.8723C15.389 47.0547 17.5787 44.9948 17.5787 44.9948L17.9838 44.9637C17.9413 45.8619 18.6281 46.6668 19.6161 46.8097C20.4881 46.9356 21.308 46.5028 21.6681 45.8043C22.0808 46.6426 22.985 47.2966 24.1215 47.461C25.8139 47.7056 27.3802 46.7747 27.6598 45.3757C27.9214 45.8166 28.3883 46.1484 28.9691 46.2321C29.7573 46.3462 30.5004 45.9717 30.8538 45.3569C31.8836 48.1549 34.4851 46.2494 34.4851 46.2494C36.4958 47.8903 37.6491 45.6941 37.6491 45.6941C37.6491 45.6941 39.4524 47.355 41.8908 44.9088C43.2577 43.5374 42.3656 40.9514 42.3656 40.9514C42.3656 40.9514 44.5899 42.9145 46.5781 41.0966C48.7766 39.0854 46.6182 36.8727 46.6182 36.8727Z" fill="#1A0000" stroke="#1A0000" stroke-width="0.298591" stroke-miterlimit="10" stroke-linecap="round"/>
<path d="M4.47776 10.5463C5.01809 10.5122 5.69904 10.5463 5.71406 11.188C5.7199 11.4423 5.61893 11.7337 5.47873 11.9507C5.40196 12.0694 5.31308 12.1915 5.15996 12.2368C4.87581 12.3209 4.73437 12.0402 4.86955 11.8397C5.1562 11.4154 5.95147 11.4799 6.26357 11.8297C6.57233 12.1754 6.38791 12.7579 5.91392 12.8739C5.96065 12.948 6.0078 13.0221 6.05453 13.0962C6.42671 12.8309 6.9103 13.1227 7.00835 13.4891C7.06134 13.6865 7.02964 13.8977 6.95328 14.0863C6.89987 14.2184 6.811 14.3378 6.83019 14.4856C6.86608 14.7625 7.2199 14.9734 7.37845 15.1919C7.60126 15.4991 7.74062 15.8401 7.81239 16.2022C7.84577 16.3704 8.12407 16.299 8.09111 16.1316C8.0064 15.703 7.82532 15.2979 7.54368 14.9469C7.34716 14.7018 7.10098 14.5928 7.19653 14.2353C7.24994 14.0363 7.3288 13.8731 7.32129 13.6615C7.29709 12.978 6.50224 12.4434 5.85008 12.9081C5.73033 12.9933 5.86218 13.1619 5.99069 13.1304C6.54479 12.9945 6.83896 12.4042 6.64494 11.9154C6.43548 11.3866 5.72031 11.1731 5.16955 11.3374C4.89166 11.4204 4.61211 11.6078 4.53826 11.8812C4.47484 12.1158 4.5804 12.385 4.83158 12.4814C5.52504 12.7479 5.93186 11.8313 5.99111 11.3574C6.03325 11.0206 5.94062 10.6773 5.63353 10.4684C5.30515 10.2449 4.8658 10.2568 4.47817 10.281C4.29333 10.2921 4.29167 10.5579 4.47776 10.5463Z" fill="#1A0000"/>
<path d="M50.0835 17.0163C49.5015 16.6684 48.7241 16.4307 48.2889 17.0946C48.0086 17.5228 47.8216 18.438 48.415 18.7229C48.6578 18.8397 48.9353 18.7713 49.0913 18.5674C49.2757 18.3262 49.2127 18.0121 49.0467 17.7782C48.7162 17.3132 47.9818 17.0916 47.4453 17.39C46.9145 17.6853 46.8081 18.4295 47.2558 18.8258C47.3823 18.9376 47.5437 18.797 47.4828 18.6645C47.1486 17.9376 46.1042 18.1638 45.7738 18.7602C45.6799 18.9291 45.6545 19.1 45.6169 19.2828C45.5535 19.5912 45.2234 19.6023 44.9622 19.7095C44.5233 19.8896 44.1444 20.1653 43.8407 20.5067C43.7238 20.638 43.9271 20.8274 44.0451 20.6949C44.3047 20.403 44.6151 20.1634 44.9823 19.994C45.2514 19.87 45.7141 19.8446 45.8531 19.5605C45.9136 19.4372 45.8956 19.292 45.9248 19.1618C45.9653 18.9802 46.0529 18.8005 46.1956 18.6672C46.5035 18.3796 47.051 18.4015 47.2337 18.7989C47.3093 18.7452 47.3848 18.6914 47.4607 18.638C47.144 18.3577 47.2208 17.8339 47.5917 17.6196C48.0474 17.3565 48.8005 17.6407 48.9023 18.1346C48.9361 18.2997 48.8727 18.5612 48.6044 18.5086C48.377 18.4641 48.3319 18.1995 48.3269 18.0282C48.3207 17.8112 48.3686 17.5804 48.4583 17.38C48.5643 17.143 48.7508 16.9391 49.0479 16.9188C49.3721 16.8969 49.6796 17.0908 49.9387 17.2456C50.094 17.3393 50.2391 17.1092 50.0835 17.0163Z" fill="#1A0000"/>
<path d="M10.4672 40.2652L9.81339 39.342L9.11116 40.1446L9.27681 38.8731L8.51074 38.4303L9.47542 38.3885L9.9394 37.4718L10.2277 38.4411L11.2112 38.62L10.4363 39.0129L10.4672 40.2652Z" fill="white" stroke="white" stroke-width="0.0711279" stroke-miterlimit="10" stroke-linecap="round"/>
<path d="M9.77148 30.0874C9.77148 30.0874 9.7669 16.713 23.7676 17.8482C37.0385 18.9242 34.5446 35.3927 31.0402 37.0509L30.8061 37.4726C30.8061 37.4726 32.9587 27.7733 28.2859 22.9273C25.2409 19.7694 20.1196 19.3512 16.3898 21.8094C14.4467 23.0901 11.5936 26.5467 9.77148 30.0874Z" fill="#FFD44D" stroke="#FFD44D" stroke-width="0.272303" stroke-miterlimit="10"/>
<mask id="mask0_1432_15608" style="mask-type:luminance" maskUnits="userSpaceOnUse" x="8" y="22" width="29" height="23">
<path d="M35.749 35.5457C35.0823 34.8929 34.1322 34.9243 33.2848 35.2296C32.8529 35.3852 32.4486 35.6002 32.0606 35.8322C31.8278 35.9712 31.3642 36.4777 31.0801 36.4228C30.884 36.3852 30.8535 36.0872 30.7934 35.9451C30.2664 34.6981 29.1315 33.5411 28.2219 32.5161C27.2013 31.3667 26.1119 30.2715 25.0266 29.1747C23.1749 27.3034 21.4717 25.2466 20.3351 22.9286C19.9805 23.2216 19.2682 23.8122 19.1214 23.9528C17.7044 25.3099 16.1606 26.5753 14.4962 27.6709C13.7243 28.179 12.9207 28.6521 12.0645 29.0307C11.3026 29.3679 10.4735 29.6475 9.61818 29.6551C9.61275 29.6551 9.609 29.6528 9.60357 29.6525C9.40914 30.2224 9.25684 30.8103 9.15253 31.4144C7.91123 38.5964 11.9151 43.5441 19.126 44.5864C23.3823 45.2016 27.4809 43.5991 30.1408 40.6839C31.1777 41.6517 33.2147 41.3468 34.7497 39.9727C36.3169 38.5706 36.8869 36.6605 35.749 35.5457Z" fill="white"/>
</mask>
<g mask="url(#mask0_1432_15608)">
<path d="M35.749 35.5452C35.0823 34.8924 34.1322 34.9239 33.2848 35.2292C32.8529 35.3847 32.4486 35.5997 32.0606 35.8317C31.8278 35.9707 31.3642 36.4772 31.0801 36.4223C30.884 36.3847 30.8535 36.0867 30.7934 35.9446C30.2664 34.6977 29.1315 33.5406 28.2219 32.5156C27.2013 31.3663 26.1119 30.271 25.0266 29.1743C23.1749 27.3029 21.4717 25.2461 20.3351 22.9281C19.9805 23.2211 19.2682 23.8117 19.1214 23.9523C17.7044 25.3094 16.1606 26.5748 14.4962 27.6704C13.7243 28.1785 12.9207 28.6516 12.0645 29.0302C11.3026 29.3674 10.4735 29.647 9.61818 29.6547C9.61275 29.6547 9.609 29.6524 9.60357 29.652C9.40914 30.2219 9.25684 30.8098 9.15253 31.4139C7.91123 38.5959 11.9151 43.5437 19.126 44.5859C23.3823 45.2011 27.4809 43.5986 30.1408 40.6835C31.1777 41.6512 33.2147 41.3463 34.7497 39.9722C36.3169 38.5702 36.8869 36.66 35.749 35.5452Z" fill="#CD5428" stroke="#CD5428" stroke-width="0.280389" stroke-miterlimit="10"/>
</g>
<mask id="mask1_1432_15608" style="mask-type:luminance" maskUnits="userSpaceOnUse" x="8" y="22" width="29" height="23">
<path d="M35.749 35.5457C35.0823 34.8929 34.1322 34.9243 33.2848 35.2296C32.8529 35.3852 32.4486 35.6002 32.0606 35.8322C31.8278 35.9712 31.3642 36.4777 31.0801 36.4228C30.884 36.3852 30.8535 36.0872 30.7934 35.9451C30.2664 34.6981 29.1315 33.5411 28.2219 32.5161C27.2013 31.3667 26.1119 30.2715 25.0266 29.1747C23.1749 27.3034 21.4717 25.2466 20.3351 22.9286C19.9805 23.2216 19.2682 23.8122 19.1214 23.9528C17.7044 25.3099 16.1606 26.5753 14.4962 27.6709C13.7243 28.179 12.9207 28.6521 12.0645 29.0307C11.3026 29.3679 10.4735 29.6475 9.61818 29.6551C9.61275 29.6551 9.609 29.6528 9.60357 29.6525C9.40914 30.2224 9.25684 30.8103 9.15253 31.4144C7.91123 38.5964 11.9151 43.5441 19.126 44.5864C23.3823 45.2016 27.4809 43.5991 30.1408 40.6839C31.1777 41.6517 33.2147 41.3468 34.7497 39.9727C36.3169 38.5706 36.8869 36.6605 35.749 35.5457Z" fill="white"/>
</mask>
<g mask="url(#mask1_1432_15608)">
<path opacity="0.49" d="M26.8688 40.9024C26.2383 42.5426 24.2827 43.4016 22.5007 42.8214C20.7186 42.2411 19.7852 40.4412 20.4157 38.801C21.0461 37.1609 23.0018 36.3018 24.7838 36.8821C26.5659 37.4623 27.4993 39.2622 26.8688 40.9024Z" fill="#8B2A0C" stroke="#8B2A0C" stroke-width="0.337564" stroke-miterlimit="10"/>
</g>
<mask id="mask2_1432_15608" style="mask-type:luminance" maskUnits="userSpaceOnUse" x="8" y="22" width="29" height="23">
<path d="M35.749 35.5457C35.0823 34.8929 34.1322 34.9243 33.2848 35.2296C32.8529 35.3852 32.4486 35.6002 32.0606 35.8322C31.8278 35.9712 31.3642 36.4777 31.0801 36.4228C30.884 36.3852 30.8535 36.0872 30.7934 35.9451C30.2664 34.6981 29.1315 33.5411 28.2219 32.5161C27.2013 31.3667 26.1119 30.2715 25.0266 29.1747C23.1749 27.3034 21.4717 25.2466 20.3351 22.9286C19.9805 23.2216 19.2682 23.8122 19.1214 23.9528C17.7044 25.3099 16.1606 26.5753 14.4962 27.6709C13.7243 28.179 12.9207 28.6521 12.0645 29.0307C11.3026 29.3679 10.4735 29.6475 9.61818 29.6551C9.61275 29.6551 9.609 29.6528 9.60357 29.6525C9.40914 30.2224 9.25684 30.8103 9.15253 31.4144C7.91123 38.5964 11.9151 43.5441 19.126 44.5864C23.3823 45.2016 27.4809 43.5991 30.1408 40.6839C31.1777 41.6517 33.2147 41.3468 34.7497 39.9727C36.3169 38.5706 36.8869 36.6605 35.749 35.5457Z" fill="white"/>
</mask>
<g mask="url(#mask2_1432_15608)">
<path opacity="0.49" d="M13.281 38.3329C12.7169 39.8006 10.9665 40.5698 9.37138 40.0502C7.77666 39.531 6.94092 37.9201 7.50545 36.4519C8.06957 34.9842 9.81991 34.215 11.415 34.7346C13.0098 35.2538 13.8451 36.8648 13.281 38.3329Z" fill="#8B2A0C" stroke="#8B2A0C" stroke-width="0.302111" stroke-miterlimit="10"/>
</g>
<mask id="mask3_1432_15608" style="mask-type:luminance" maskUnits="userSpaceOnUse" x="8" y="22" width="29" height="23">
<path d="M35.749 35.5457C35.0823 34.8929 34.1322 34.9243 33.2848 35.2296C32.8529 35.3852 32.4486 35.6002 32.0606 35.8322C31.8278 35.9712 31.3642 36.4777 31.0801 36.4228C30.884 36.3852 30.8535 36.0872 30.7934 35.9451C30.2664 34.6981 29.1315 33.5411 28.2219 32.5161C27.2013 31.3667 26.1119 30.2715 25.0266 29.1747C23.1749 27.3034 21.4717 25.2466 20.3351 22.9286C19.9805 23.2216 19.2682 23.8122 19.1214 23.9528C17.7044 25.3099 16.1606 26.5753 14.4962 27.6709C13.7243 28.179 12.9207 28.6521 12.0645 29.0307C11.3026 29.3679 10.4735 29.6475 9.61818 29.6551C9.61275 29.6551 9.609 29.6528 9.60357 29.6525C9.40914 30.2224 9.25684 30.8103 9.15253 31.4144C7.91123 38.5964 11.9151 43.5441 19.126 44.5864C23.3823 45.2016 27.4809 43.5991 30.1408 40.6839C31.1777 41.6517 33.2147 41.3468 34.7497 39.9727C36.3169 38.5706 36.8869 36.6605 35.749 35.5457Z" fill="white"/>
</mask>
<g mask="url(#mask3_1432_15608)">
<path d="M32.7641 42.3177L32.1107 41.3945L31.408 42.1971L31.5737 40.9252L30.8076 40.4824L31.7723 40.441L32.2363 39.5243L32.525 40.4936L33.508 40.6725L32.7332 41.0654L32.7641 42.3177Z" fill="white" stroke="white" stroke-width="0.0711279" stroke-miterlimit="10" stroke-linecap="round"/>
<path d="M32.0859 36.8889C32.5896 36.4711 33.1716 36.1082 33.8672 35.9411C34.2105 35.8597 34.6094 35.842 34.9791 35.9964C35.3455 36.16 35.6071 36.4611 35.7001 36.8347C35.7761 37.2118 35.6467 37.5594 35.4894 37.8528C35.3204 38.1462 35.1143 38.4085 34.8823 38.6454C34.4221 39.1216 33.8859 39.5191 33.3085 39.8501C33.7812 39.4015 34.2285 38.938 34.6245 38.453C34.8147 38.2061 34.9996 37.9572 35.1268 37.6915C35.2566 37.4311 35.3417 37.1512 35.2837 36.9104C35.2378 36.6784 35.0405 36.4384 34.8026 36.3278C34.5594 36.2049 34.2448 36.1988 33.9331 36.2391C33.3047 36.337 32.6805 36.5943 32.0859 36.8889Z" fill="#8B2A0C"/>
<path d="M30.1182 40.7114C30.2738 40.5182 30.391 40.3031 30.5024 40.0885C30.6118 39.8723 30.709 39.6503 30.792 39.4241C30.9685 38.9748 31.0966 38.5105 31.2247 38.0439C31.1938 38.2828 31.1525 38.5209 31.0941 38.7563C31.034 38.9909 30.9635 39.2237 30.8776 39.4518C30.6969 39.9026 30.4782 40.3569 30.1182 40.7114Z" fill="#8B2A0C"/>
<path d="M20.3013 22.4717C19.8403 22.6637 19.4055 22.9594 19.2081 23.403C19.0429 23.774 19.0596 24.2425 19.3625 24.552C19.6246 24.8197 20.1248 24.9429 20.4182 24.6461C20.6426 24.4187 20.6476 24.0217 20.3347 23.86C19.9354 23.6538 19.3625 23.8377 19.0483 24.0981C18.7066 24.3815 18.5568 24.8381 18.6565 25.2498C18.7467 25.6223 19.1118 25.9744 19.5557 25.8416C19.9158 25.734 20.0372 25.2659 19.6617 25.0985C19.2319 24.9068 18.7379 25.2098 18.5597 25.5693C18.3215 26.0489 18.5881 26.5781 18.9323 26.9464C19.0471 27.0693 19.2394 26.8907 19.1255 26.7686C18.8785 26.5044 18.6641 26.1353 18.7675 25.7763C18.8126 25.6203 18.9232 25.4779 19.0692 25.388C19.1656 25.3289 19.6634 25.1714 19.6208 25.4629C19.5874 25.691 19.2286 25.6196 19.1134 25.5224C18.9649 25.3968 18.9056 25.1983 18.8994 25.0182C18.8873 24.6676 19.088 24.3327 19.4197 24.1599C19.6325 24.0489 20.3735 23.8826 20.3059 24.3066C20.2387 24.729 19.6742 24.5535 19.5002 24.3035C19.0237 23.6177 19.8236 22.9452 20.4403 22.6883C20.5992 22.6223 20.4607 22.4057 20.3013 22.4717Z" fill="#1A0000"/>
<path d="M15.6562 35.1915C15.7681 34.8893 15.9684 34.604 16.2583 34.397C16.5425 34.1873 16.9347 34.0694 17.3098 34.1136C17.4946 34.1328 17.6824 34.1812 17.8514 34.268C18.0154 34.3624 18.1585 34.4884 18.2528 34.6389C18.4476 34.9377 18.4793 35.2849 18.4201 35.5982C18.3667 35.2849 18.2544 34.9842 18.0638 34.7568C17.8731 34.528 17.5919 34.4058 17.2798 34.3816C16.9718 34.3417 16.6635 34.4212 16.3881 34.5694C16.114 34.7223 15.867 34.9389 15.6562 35.1915Z" fill="#8B2A0C"/>
<g opacity="0.53">
<path d="M15.6738 35.194C15.6738 35.194 16.3251 34.058 17.5118 34.3345C18.5307 34.5718 18.4189 35.6963 18.4189 35.6963" fill="#8B2A0C"/>
<path d="M15.6738 35.1942C15.7978 34.8962 16.0101 34.6182 16.308 34.4212C16.6005 34.2219 16.9973 34.1174 17.3704 34.1746C17.5544 34.2004 17.7396 34.2549 17.9053 34.3478C18.0655 34.4477 18.2032 34.579 18.2912 34.7322C18.474 35.0375 18.4911 35.3859 18.4189 35.6965C18.3784 35.3816 18.2787 35.0771 18.0972 34.8436C17.9161 34.6082 17.6399 34.4765 17.329 34.4412C17.0232 34.3905 16.7115 34.4592 16.4303 34.5978C16.1503 34.7415 15.8946 34.9492 15.6738 35.1942Z" fill="#8B2A0C"/>
</g>
<path d="M9.65248 32.076C9.54441 33.7143 10.9101 35.121 12.7026 35.2173C14.495 35.3137 16.0355 34.0641 16.1432 32.4259C16.2512 30.7876 14.8856 29.3809 13.0931 29.2846C11.301 29.1878 9.76055 30.4378 9.65248 32.076Z" fill="white"/>
<path d="M11.2327 31.5144C10.9898 32.7567 11.7951 33.9426 13.0318 34.1634C14.2685 34.3842 15.4677 33.5558 15.711 32.3139C15.9542 31.072 15.1485 29.8857 13.9118 29.6649C12.6751 29.4441 11.4755 30.2721 11.2327 31.5144Z" fill="#280707" stroke="#280707" stroke-width="0.282609" stroke-miterlimit="10"/>
<path d="M16.221 31.8195C16.0508 31.4923 15.8605 31.177 15.6302 30.8936C15.4074 30.6071 15.1646 30.3383 14.8813 30.119C14.593 29.9066 14.2829 29.7354 13.9546 29.614C13.6183 29.5122 13.2715 29.4454 12.9123 29.4539C12.1821 29.452 11.4644 29.6405 10.8987 30.0407C10.3112 30.4262 9.92314 31.0606 9.69365 31.7219L9.65527 31.8329L9.56472 31.801C9.35026 31.7258 9.13747 31.6455 8.92676 31.5579L8.93635 31.5264L9.59727 31.6923L9.57224 31.7077C9.71118 30.9915 10.0884 30.2995 10.7017 29.8264C11.3105 29.3517 12.1208 29.1217 12.9123 29.1324C13.3112 29.1309 13.7071 29.2046 14.0781 29.3383C14.4427 29.4857 14.777 29.6916 15.0649 29.9443C15.6273 30.4619 16.0249 31.1152 16.2557 31.8122L16.221 31.8195Z" fill="black"/>
<path d="M9.68493 31.279L9.07324 30.8231L9.84473 30.9648L9.68493 31.279Z" fill="black"/>
<path d="M9.99076 30.6141L9.48047 30.093L10.1998 30.3254L9.99076 30.6141Z" fill="black"/>
<path d="M15.2343 34.4576C14.8371 34.7564 14.3702 34.9798 13.8728 35.1242C13.3759 35.2702 12.8385 35.3247 12.3098 35.2617C12.0436 35.236 11.7895 35.1546 11.5375 35.0755C11.3021 34.9595 11.056 34.862 10.8582 34.6964C10.6379 34.5601 10.4739 34.3681 10.3003 34.1915C10.1414 34.0033 10.0133 33.794 9.88477 33.5931C10.2378 33.9357 10.5832 34.2717 11.0055 34.5044C11.4119 34.7537 11.8738 34.913 12.3532 34.9633C12.8309 35.0255 13.3237 34.9906 13.8073 34.8977C14.2896 34.7978 14.7711 34.6565 15.2343 34.4576Z" fill="black"/>
<path d="M27.249 34.9773C26.79 36.6728 24.8603 37.7104 22.9384 37.2953C21.0166 36.8798 19.8304 35.1686 20.2889 33.4731C20.7479 31.7777 22.6777 30.74 24.5999 31.1552C26.5217 31.5703 27.7076 33.2815 27.249 34.9773Z" fill="white"/>
<path d="M27.2397 34.2049C27.0649 35.5148 25.8311 36.4733 24.4834 36.3462C23.1357 36.2191 22.1848 35.054 22.3596 33.7441C22.5344 32.4342 23.7682 31.4756 25.1159 31.6027C26.4636 31.7302 27.4145 32.895 27.2397 34.2049Z" fill="#280707" stroke="#280707" stroke-width="0.299669" stroke-miterlimit="10"/>
<path d="M20.4307 32.9419C20.8145 32.2407 21.422 31.637 22.1952 31.2242C22.5824 31.0168 23.0226 30.887 23.4778 30.8336C23.9334 30.7975 24.4012 30.8206 24.8397 30.9377C25.7046 31.1474 26.5104 31.6516 27.0202 32.3575C27.2739 32.7115 27.4062 33.1224 27.4779 33.5237C27.5514 33.9293 27.5343 34.3344 27.4279 34.7326L27.3227 34.6144C27.5677 34.642 27.8126 34.675 28.0571 34.7161L28.0563 34.7507L27.3194 34.7349L27.296 34.7346L27.2989 34.7119C27.3974 33.9565 27.2259 33.1543 26.7536 32.5241C26.2804 31.8924 25.534 31.4688 24.7375 31.2626C24.3411 31.147 23.9222 31.119 23.5091 31.1416C23.0973 31.185 22.6942 31.2906 22.3187 31.4561C21.5764 31.8018 20.9401 32.3356 20.4624 32.9607L20.4307 32.9419Z" fill="black"/>
<path d="M27.3154 33.8961L28.1566 33.9745L27.3705 34.2606L27.3154 33.8961Z" fill="black"/>
<path d="M27.1709 33.1569L27.9879 33.13L27.2823 33.5102L27.1709 33.1569Z" fill="black"/>
<path d="M20.5762 35.8745C20.7844 36.0381 20.9926 36.1963 21.2187 36.3315C21.4349 36.477 21.6631 36.6061 21.8976 36.7194C22.3666 36.9444 22.8602 37.1184 23.3717 37.1886C23.8812 37.2727 24.4073 37.2416 24.9109 37.1111C25.4262 37.0028 25.8919 36.7547 26.3746 36.5155C26.1719 36.681 25.9674 36.8557 25.7388 36.9989C25.4984 37.1249 25.2623 37.267 24.9923 37.3449C24.7345 37.4575 24.449 37.4836 24.1695 37.5335C23.8858 37.5416 23.5987 37.5523 23.3179 37.5035C22.7567 37.4183 22.2222 37.2178 21.7607 36.9287C21.3001 36.6414 20.8854 36.2931 20.5762 35.8745Z" fill="black"/>
<path opacity="0.49" d="M18.8101 36.8041C18.7183 37.3379 18.1212 38.2953 16.7927 38.129C15.8739 38.0142 15.2769 37.0387 15.3687 36.5049C15.3687 36.5049 16.2532 36.3344 17.1837 36.3867C17.8304 36.4231 18.8101 36.8041 18.8101 36.8041Z" fill="#8B2A0C"/>
<path d="M14.7715 36.0216C15.1145 36.2927 15.4758 36.5262 15.8534 36.7152C16.2331 36.8995 16.6349 37.0327 17.0463 37.0688C17.4552 37.1103 17.8779 37.0688 18.2743 36.9256C18.4825 36.8768 18.664 36.7643 18.8659 36.6844C19.0587 36.5884 19.2381 36.469 19.4413 36.3695C19.2948 36.5258 19.1426 36.6848 18.9711 36.8254C18.7833 36.9448 18.6106 37.0965 18.3903 37.1756C17.9784 37.3864 17.4807 37.4586 17.0058 37.4152C16.5285 37.3661 16.0762 37.1948 15.6986 36.9456C15.321 36.6963 14.9951 36.3864 14.7715 36.0216Z" fill="#3B130E"/>
<path d="M10.728 28.3864C10.8147 27.9932 11.0555 27.6322 11.3797 27.3541C11.6989 27.0673 12.1028 26.8664 12.5246 26.7355C12.9531 26.6229 13.3971 26.5784 13.8293 26.6187C14.0451 26.6314 14.2554 26.6856 14.4627 26.7266C14.6651 26.8 14.8662 26.8591 15.0556 26.9517L15.0598 26.9536C15.069 26.9582 15.0723 26.9686 15.0677 26.9766C15.064 26.9832 15.0561 26.9866 15.0485 26.9855L14.4435 26.909C14.2403 26.9044 14.0371 26.8837 13.8344 26.8922C13.4284 26.9018 13.0245 26.9582 12.6381 27.0677C11.8716 27.2877 11.1594 27.7474 10.7626 28.4014C10.7576 28.4098 10.7459 28.4129 10.7371 28.4079C10.7296 28.4041 10.7263 28.3964 10.728 28.3895V28.3864Z" fill="#2E2E2E"/>
<path d="M27.8455 30.6217C27.6131 30.2996 27.341 30.0376 27.0677 29.7996C26.7869 29.5672 26.4898 29.366 26.1661 29.1986C26.0025 29.1168 25.8398 29.033 25.6629 28.9701C25.4955 28.8856 25.3095 28.843 25.1309 28.77L23.9768 28.4113L23.9705 28.4094C23.9609 28.4063 23.9559 28.3967 23.9588 28.3879C23.9618 28.3806 23.9693 28.376 23.9772 28.3764L24.5905 28.4098C24.7925 28.4417 24.9978 28.4582 25.1972 28.5031C25.5982 28.586 25.9879 28.7151 26.3517 28.8956C27.0606 29.2769 27.6498 29.8798 27.8818 30.6141C27.8847 30.6229 27.8789 30.6321 27.8693 30.6348C27.8613 30.6367 27.8534 30.634 27.8492 30.6279L27.8455 30.6217Z" fill="#2E2E2E"/>
</g>
<path d="M64.2179 34.148C65.4899 34.148 66.4019 33.92 66.9539 33.464C67.5299 32.984 67.8179 32.42 67.8179 31.772C67.8179 31.172 67.5899 30.692 67.1339 30.332C66.7019 29.948 66.0539 29.612 65.1899 29.324L63.2819 28.712C61.9859 28.28 60.8459 27.8 59.8619 27.272C58.8779 26.744 58.1099 26.072 57.5579 25.256C57.0059 24.416 56.7299 23.348 56.7299 22.052C56.7299 20.06 57.4859 18.476 58.9979 17.3C60.5099 16.124 62.6099 15.536 65.2979 15.536C66.6659 15.536 67.8779 15.668 68.9339 15.932C70.0139 16.196 70.8539 16.592 71.4539 17.12C72.0779 17.624 72.3899 18.248 72.3899 18.992C72.3899 19.52 72.2579 19.988 71.9939 20.396C71.7299 20.804 71.4179 21.14 71.0579 21.404C70.5059 21.044 69.7619 20.72 68.8259 20.432C67.9139 20.144 66.9179 20 65.8379 20C64.6859 20 63.8099 20.192 63.2099 20.576C62.6339 20.96 62.3459 21.452 62.3459 22.052C62.3459 22.532 62.5379 22.928 62.9219 23.24C63.3299 23.528 63.9179 23.792 64.6859 24.032L66.6659 24.68C68.8499 25.352 70.5299 26.24 71.7059 27.344C72.8819 28.448 73.4699 29.936 73.4699 31.808C73.4699 33.824 72.6899 35.468 71.1299 36.74C69.5699 37.988 67.3139 38.612 64.3619 38.612C62.8979 38.612 61.5899 38.444 60.4379 38.108C59.2859 37.796 58.3739 37.352 57.7019 36.776C57.0299 36.176 56.6939 35.48 56.6939 34.688C56.6939 34.064 56.8739 33.536 57.2339 33.104C57.5939 32.672 58.0019 32.336 58.4579 32.096C59.1059 32.624 59.9099 33.104 60.8699 33.536C61.8539 33.944 62.9699 34.148 64.2179 34.148ZM76.1679 22.808H81.6399V37.964C81.3999 38.012 81.0399 38.072 80.5599 38.144C80.1039 38.216 79.6239 38.252 79.1199 38.252C78.0399 38.252 77.2719 38.06 76.8159 37.676C76.3839 37.292 76.1679 36.632 76.1679 35.696V22.808ZM81.6399 29.648H76.1679V16.112C76.4319 16.064 76.8039 16.004 77.2839 15.932C77.7639 15.86 78.2439 15.824 78.7239 15.824C79.7559 15.824 80.4999 16.004 80.9559 16.364C81.4119 16.724 81.6399 17.396 81.6399 18.38V29.648ZM100.106 32.564C99.8179 32.756 99.4579 32.936 99.0259 33.104C98.5939 33.248 98.0899 33.32 97.5139 33.32C96.7699 33.32 96.1459 33.224 95.6419 33.032C95.1619 32.84 94.8379 32.516 94.6699 32.06C93.8539 29.78 93.1579 27.872 92.5819 26.336C92.0299 24.8 91.5979 23.48 91.2859 22.376H91.1059C91.0339 23.888 90.9739 25.28 90.9259 26.552C90.8779 27.824 90.8299 29.048 90.7819 30.224C90.7579 31.4 90.7219 32.612 90.6739 33.86C90.6259 35.084 90.5659 36.428 90.4939 37.892C90.2059 37.964 89.8459 38.036 89.4139 38.108C88.9819 38.204 88.5499 38.252 88.1179 38.252C87.2059 38.252 86.4979 38.108 85.9939 37.82C85.4899 37.508 85.2379 36.968 85.2379 36.2C85.2379 35.672 85.2619 34.892 85.3099 33.86C85.3579 32.804 85.4179 31.604 85.4899 30.26C85.5859 28.892 85.6819 27.452 85.7779 25.94C85.8739 24.428 85.9699 22.94 86.0659 21.476C86.1859 19.988 86.2819 18.62 86.3539 17.372C86.5459 17.084 86.9299 16.796 87.5059 16.508C88.0819 16.196 88.8739 16.04 89.8819 16.04C90.9619 16.04 91.8259 16.22 92.4739 16.58C93.1219 16.916 93.5899 17.468 93.8779 18.236C94.2379 19.124 94.6219 20.144 95.0299 21.296C95.4379 22.424 95.8459 23.576 96.2539 24.752C96.6619 25.904 97.0339 26.96 97.3699 27.92H97.5499C98.2459 25.784 98.9419 23.708 99.6379 21.692C100.334 19.676 100.946 17.984 101.474 16.616C101.786 16.448 102.194 16.316 102.698 16.22C103.226 16.1 103.778 16.04 104.354 16.04C105.386 16.04 106.214 16.196 106.838 16.508C107.486 16.796 107.87 17.24 107.99 17.84C108.086 18.296 108.182 19.016 108.278 20C108.398 20.984 108.518 22.124 108.638 23.42C108.758 24.692 108.878 26.036 108.998 27.452C109.118 28.844 109.226 30.2 109.322 31.52C109.442 32.84 109.538 34.04 109.61 35.12C109.682 36.176 109.73 37.016 109.754 37.64C109.394 37.856 109.01 38.012 108.602 38.108C108.218 38.204 107.726 38.252 107.126 38.252C106.382 38.252 105.734 38.12 105.182 37.856C104.63 37.568 104.33 37.028 104.282 36.236C104.186 34.34 104.102 32.54 104.03 30.836C103.958 29.132 103.898 27.572 103.85 26.156C103.802 24.74 103.754 23.54 103.706 22.556H103.526C103.214 23.588 102.77 24.896 102.194 26.48C101.642 28.04 100.946 30.068 100.106 32.564ZM124.585 24.896V28.784H116.557V24.896H124.585ZM121.885 28.784L122.317 25.796C124.309 25.796 125.953 26.036 127.249 26.516C128.569 26.996 129.565 27.668 130.237 28.532C130.909 29.396 131.245 30.44 131.245 31.664C131.245 33.992 130.381 35.72 128.653 36.848C126.925 37.976 124.465 38.54 121.273 38.54C120.697 38.54 120.037 38.516 119.293 38.468C118.573 38.42 117.829 38.336 117.061 38.216C116.317 38.096 115.633 37.928 115.009 37.712C113.761 37.256 113.137 36.452 113.137 35.3V18.092C113.137 17.612 113.269 17.252 113.533 17.012C113.797 16.748 114.157 16.532 114.613 16.364C115.429 16.1 116.413 15.908 117.565 15.788C118.717 15.668 119.905 15.608 121.129 15.608C124.081 15.608 126.373 16.124 128.005 17.156C129.637 18.164 130.453 19.724 130.453 21.836C130.453 22.988 130.117 23.972 129.445 24.788C128.773 25.604 127.789 26.228 126.493 26.66C125.221 27.068 123.673 27.272 121.849 27.272L121.597 24.896C122.773 24.896 123.637 24.668 124.189 24.212C124.741 23.756 125.017 23.108 125.017 22.268C125.017 21.476 124.693 20.864 124.045 20.432C123.397 20 122.437 19.784 121.165 19.784C120.709 19.784 120.217 19.796 119.689 19.82C119.185 19.844 118.777 19.892 118.465 19.964V34.004C118.849 34.124 119.341 34.208 119.941 34.256C120.541 34.28 121.105 34.292 121.633 34.292C122.857 34.292 123.829 34.064 124.549 33.608C125.293 33.152 125.665 32.432 125.665 31.448C125.665 30.536 125.341 29.864 124.693 29.432C124.069 29 123.133 28.784 121.885 28.784ZM134.17 22.808H139.642V37.964C139.402 38.012 139.042 38.072 138.562 38.144C138.106 38.216 137.626 38.252 137.122 38.252C136.042 38.252 135.274 38.06 134.818 37.676C134.386 37.292 134.17 36.632 134.17 35.696V22.808ZM139.642 29.648H134.17V16.112C134.434 16.064 134.806 16.004 135.286 15.932C135.766 15.86 136.246 15.824 136.726 15.824C137.758 15.824 138.502 16.004 138.958 16.364C139.414 16.724 139.642 17.396 139.642 18.38V29.648Z" fill="#FDFDFF"/>
</svg>
