<svg width="270" height="28" viewBox="0 0 270 28" fill="none" xmlns="http://www.w3.org/2000/svg">
<rect y="7.8103" width="270" height="12" rx="6" fill="#D5D4FF"/>
<rect x="2" y="9.8103" width="104.999" height="8" rx="4" fill="#957FFF"/>
<path d="M134.528 20.4205C134.528 20.4205 136.569 19.7921 136.909 17.6893C137.249 15.5866 134.573 15.2544 134.573 15.2544C136.059 14.3943 135.912 12.6595 135.912 12.6595C136.326 9.54933 133.631 9.15799 133.631 9.15799C133.631 9.15799 134.808 8.15779 134.51 6.66801C133.932 3.77178 130.724 4.1968 130.724 4.1968C130.576 2.71294 129.47 1.44584 127.906 1.06118C127.883 1.05527 127.859 1.04961 127.835 1.04421C126.238 0.667525 124.543 1.29824 123.61 2.56535L123.479 2.74354C123.441 2.55893 123.362 2.36557 123.26 2.17607C122.735 1.19617 121.739 0.503737 120.586 0.228357C117.846 -0.425764 116.29 1.36253 116.29 1.36253C115.306 -0.000479534 112.626 0.210098 112.626 0.210098C106.708 0.877333 107.488 6.28027 107.488 6.28027C107.488 6.28027 105.003 4.48375 102.788 7.85849C100.573 11.233 103.724 14.0145 103.724 14.0145C103.173 14.1534 102.566 15.0412 102.566 15.0412C100.857 18.4864 105.726 19.9767 105.726 19.9767C103.523 23.3579 108.453 23.7199 108.453 23.7199C108.727 25.6869 110.62 24.3095 110.62 24.3095C110.236 26.6946 112.357 25.7766 112.357 25.7766C112.667 27.2379 114.2 25.8587 114.2 25.8587L114.483 25.8378C114.454 26.4393 114.934 26.9782 115.626 27.0738C116.236 27.1582 116.81 26.8684 117.062 26.4007C117.351 26.962 117.984 27.3999 118.78 27.5099C119.965 27.6737 121.061 27.0504 121.257 26.1137C121.44 26.4089 121.767 26.6311 122.173 26.6871C122.725 26.7635 123.245 26.5128 123.493 26.1011C124.213 27.9745 126.034 26.6987 126.034 26.6987C127.442 27.7974 128.249 26.3269 128.249 26.3269C128.249 26.3269 129.512 27.4389 131.219 25.8011C132.175 24.8829 131.551 23.1514 131.551 23.1514C131.551 23.1514 133.108 24.4658 134.5 23.2486C136.039 21.9021 134.528 20.4205 134.528 20.4205Z" fill="#7A5FFF" stroke="#7A5FFF" stroke-width="0.168683" stroke-miterlimit="10" stroke-linecap="round"/>
<path d="M105.035 2.79471C105.413 2.77183 105.89 2.79471 105.9 3.22436C105.904 3.39458 105.834 3.58973 105.735 3.73501C105.682 3.81446 105.619 3.89622 105.512 3.92656C105.313 3.98287 105.214 3.79491 105.309 3.6607C105.51 3.37657 106.066 3.41977 106.285 3.65401C106.501 3.88542 106.372 4.27548 106.04 4.35313C106.073 4.40275 106.106 4.45238 106.138 4.502C106.399 4.32433 106.738 4.51975 106.806 4.76504C106.843 4.89721 106.821 5.03862 106.768 5.16487C106.73 5.25332 106.668 5.33329 106.681 5.43228C106.707 5.61767 106.954 5.75882 107.065 5.90513C107.221 6.11083 107.319 6.33915 107.369 6.58162C107.392 6.69424 107.587 6.64641 107.564 6.53431C107.505 6.24736 107.378 5.97609 107.181 5.74108C107.043 5.57704 106.871 5.50401 106.938 5.26463C106.975 5.13144 107.03 5.02217 107.025 4.88049C107.008 4.42281 106.452 4.0649 105.995 4.37602C105.912 4.4331 106.004 4.54597 106.094 4.52489C106.482 4.43386 106.688 4.03867 106.552 3.71135C106.405 3.3573 105.905 3.21433 105.519 3.32438C105.324 3.37992 105.129 3.50539 105.077 3.68847C105.033 3.84557 105.107 4.02582 105.282 4.09035C105.768 4.2688 106.053 3.65504 106.094 3.33775C106.124 3.11226 106.059 2.88239 105.844 2.74251C105.614 2.59287 105.306 2.60084 105.035 2.61703C104.906 2.62449 104.904 2.80242 105.035 2.79471Z" fill="#7A5FFF"/>
<path d="M136.953 7.12465C136.546 6.8917 136.002 6.73254 135.697 7.1771C135.501 7.46379 135.37 8.07653 135.785 8.26731C135.955 8.34548 136.149 8.29971 136.259 8.16318C136.388 8.0017 136.344 7.79137 136.227 7.63478C135.996 7.32341 135.482 7.17505 135.106 7.37483C134.735 7.57256 134.66 8.07086 134.974 8.33621C135.062 8.41104 135.175 8.31693 135.133 8.22823C134.899 7.74149 134.168 7.89294 133.936 8.29225C133.871 8.40538 133.853 8.5198 133.826 8.64219C133.782 8.84866 133.551 8.85612 133.368 8.92786C133.061 9.04845 132.796 9.23306 132.583 9.46165C132.501 9.54958 132.644 9.67634 132.726 9.58763C132.908 9.39222 133.125 9.23178 133.382 9.11839C133.571 9.03534 133.895 9.01837 133.992 8.8281C134.034 8.74556 134.022 8.64836 134.042 8.5612C134.07 8.43958 134.132 8.31924 134.232 8.23002C134.447 8.03744 134.83 8.0521 134.958 8.31822C135.011 8.28222 135.064 8.24622 135.117 8.21048C134.895 8.02278 134.949 7.67207 135.209 7.52859C135.528 7.35246 136.055 7.54273 136.126 7.87339C136.15 7.98396 136.106 8.15906 135.918 8.12383C135.759 8.09401 135.727 7.91685 135.724 7.80217C135.719 7.65689 135.753 7.50237 135.816 7.36815C135.89 7.2095 136.02 7.07297 136.228 7.05934C136.455 7.04468 136.67 7.17453 136.852 7.27815C136.96 7.34089 137.062 7.18688 136.953 7.12465Z" fill="#7A5FFF"/>
<path d="M108.737 15.8773C108.737 15.8773 108.734 6.92245 118.535 7.6825C127.825 8.40296 126.079 19.4294 123.626 20.5397L123.462 20.822C123.462 20.822 124.969 14.3279 121.698 11.0832C119.566 8.96889 115.981 8.68888 113.37 10.3347C112.01 11.1922 110.013 13.5066 108.737 15.8773Z" fill="white" stroke="white" stroke-width="0.153832" stroke-miterlimit="10"/>
<mask id="mask0_516_9298" style="mask-type:luminance" maskUnits="userSpaceOnUse" x="108" y="11" width="20" height="15">
<path d="M126.929 19.5279C126.462 19.0908 125.797 19.1118 125.204 19.3163C124.902 19.4204 124.619 19.5644 124.347 19.7197C124.184 19.8128 123.859 20.1519 123.661 20.1151C123.523 20.0899 123.502 19.8904 123.46 19.7953C123.091 18.9604 122.297 18.1857 121.66 17.4994C120.945 16.7299 120.183 15.9965 119.423 15.2622C118.127 14.0092 116.935 12.6321 116.139 11.0801C115.891 11.2763 115.392 11.6717 115.289 11.7658C114.297 12.6745 113.217 13.5217 112.052 14.2553C111.511 14.5955 110.949 14.9122 110.349 15.1658C109.816 15.3915 109.236 15.5787 108.637 15.5838C108.633 15.5838 108.631 15.5823 108.627 15.5821C108.491 15.9636 108.384 16.3573 108.311 16.7617C107.442 21.5705 110.245 24.8832 115.293 25.5811C118.272 25.993 121.141 24.92 123.003 22.9682C123.729 23.6161 125.155 23.412 126.229 22.492C127.326 21.5532 127.725 20.2743 126.929 19.5279Z" fill="white"/>
</mask>
<g mask="url(#mask0_516_9298)">
<path d="M126.929 19.5296C126.462 19.0925 125.797 19.1136 125.204 19.318C124.902 19.4221 124.619 19.5661 124.347 19.7214C124.184 19.8145 123.859 20.1536 123.661 20.1168C123.523 20.0916 123.502 19.8921 123.46 19.797C123.091 18.9621 122.297 18.1874 121.66 17.5011C120.945 16.7316 120.183 15.9982 119.423 15.2639C118.127 14.0109 116.935 12.6338 116.139 11.0818C115.891 11.278 115.392 11.6734 115.289 11.7675C114.297 12.6762 113.217 13.5234 112.052 14.257C111.511 14.5972 110.949 14.914 110.349 15.1675C109.816 15.3932 109.236 15.5804 108.637 15.5856C108.633 15.5856 108.631 15.584 108.627 15.5838C108.491 15.9653 108.384 16.359 108.311 16.7634C107.442 21.5722 110.245 24.8849 115.293 25.5828C118.272 25.9947 121.141 24.9217 123.003 22.9699C123.729 23.6178 125.155 23.4137 126.229 22.4937C127.326 21.5549 127.725 20.276 126.929 19.5296Z" fill="white" stroke="white" stroke-width="0.1584" stroke-miterlimit="10"/>
</g>
<mask id="mask1_516_9298" style="mask-type:luminance" maskUnits="userSpaceOnUse" x="108" y="11" width="20" height="15">
<path d="M126.929 19.5279C126.462 19.0908 125.797 19.1118 125.204 19.3163C124.902 19.4204 124.619 19.5644 124.347 19.7197C124.184 19.8128 123.859 20.1519 123.661 20.1151C123.523 20.0899 123.502 19.8904 123.46 19.7953C123.091 18.9604 122.297 18.1857 121.66 17.4994C120.945 16.7299 120.183 15.9965 119.423 15.2622C118.127 14.0092 116.935 12.6321 116.139 11.0801C115.891 11.2763 115.392 11.6717 115.289 11.7658C114.297 12.6745 113.217 13.5217 112.052 14.2553C111.511 14.5955 110.949 14.9122 110.349 15.1658C109.816 15.3915 109.236 15.5787 108.637 15.5838C108.633 15.5838 108.631 15.5823 108.627 15.5821C108.491 15.9636 108.384 16.3573 108.311 16.7617C107.442 21.5705 110.245 24.8832 115.293 25.5811C118.272 25.993 121.141 24.92 123.003 22.9682C123.729 23.6161 125.155 23.412 126.229 22.492C127.326 21.5532 127.725 20.2743 126.929 19.5279Z" fill="white"/>
</mask>
<g mask="url(#mask1_516_9298)">
<path d="M124.359 20.4252C124.712 20.1454 125.119 19.9024 125.606 19.7906C125.847 19.7361 126.126 19.7242 126.385 19.8276C126.641 19.9371 126.824 20.1387 126.889 20.3889C126.943 20.6414 126.852 20.8741 126.742 21.0705C126.624 21.267 126.479 21.4426 126.317 21.6012C125.995 21.9201 125.619 22.1862 125.215 22.4078C125.546 22.1075 125.859 21.7972 126.136 21.4724C126.27 21.3071 126.399 21.1405 126.488 20.9626C126.579 20.7882 126.638 20.6008 126.598 20.4396C126.566 20.2843 126.428 20.1236 126.261 20.0495C126.091 19.9672 125.871 19.9631 125.652 19.9901C125.213 20.0557 124.776 20.228 124.359 20.4252Z" fill="#1C1C1C"/>
<path d="M122.982 22.9849C123.091 22.8556 123.173 22.7116 123.251 22.5679C123.328 22.4231 123.396 22.2745 123.454 22.1231C123.578 21.8222 123.667 21.5114 123.757 21.199C123.735 21.3589 123.706 21.5183 123.666 21.6759C123.624 21.833 123.574 21.9889 123.514 22.1416C123.388 22.4434 123.234 22.7476 122.982 22.9849Z" fill="#1C1C1C"/>
<path d="M116.113 10.7734C115.79 10.902 115.486 11.1 115.348 11.397C115.232 11.6453 115.244 11.959 115.456 12.1663C115.639 12.3455 115.989 12.428 116.195 12.2293C116.352 12.077 116.355 11.8112 116.136 11.7029C115.857 11.5649 115.456 11.688 115.236 11.8623C114.997 12.0521 114.892 12.3578 114.962 12.6335C115.025 12.8829 115.28 13.1187 115.591 13.0297C115.843 12.9577 115.928 12.6443 115.665 12.5322C115.364 12.4039 115.018 12.6067 114.894 12.8474C114.727 13.1685 114.914 13.5228 115.155 13.7694C115.235 13.8517 115.37 13.7322 115.29 13.6504C115.117 13.4735 114.967 13.2264 115.039 12.986C115.071 12.8816 115.148 12.7862 115.25 12.726C115.318 12.6864 115.666 12.581 115.637 12.7762C115.613 12.9289 115.362 12.8811 115.281 12.816C115.177 12.7319 115.136 12.599 115.132 12.4784C115.123 12.2437 115.264 12.0195 115.496 11.9037C115.645 11.8294 116.163 11.7181 116.116 12.002C116.069 12.2848 115.674 12.1673 115.552 11.9999C115.219 11.5407 115.778 11.0905 116.21 10.9185C116.321 10.8742 116.224 10.7292 116.113 10.7734Z" fill="#1A0000"/>
<path d="M112.858 19.2926C112.937 19.0903 113.077 18.8992 113.28 18.7606C113.479 18.6202 113.753 18.5413 114.016 18.5709C114.145 18.5837 114.277 18.6161 114.395 18.6742C114.51 18.7375 114.61 18.8218 114.676 18.9226C114.812 19.1227 114.835 19.3551 114.793 19.5649C114.756 19.3551 114.677 19.1538 114.544 19.0016C114.41 18.8483 114.213 18.7665 113.995 18.7503C113.779 18.7236 113.563 18.7768 113.371 18.8761C113.179 18.9784 113.006 19.1234 112.858 19.2926Z" fill="#7A5FFF"/>
<g opacity="0.53">
<path d="M112.872 19.2893C112.872 19.2893 113.328 18.5287 114.159 18.7139C114.872 18.8728 114.794 19.6256 114.794 19.6256" fill="#7A5FFF"/>
<path d="M112.872 19.2908C112.959 19.0912 113.107 18.9051 113.316 18.7732C113.521 18.6397 113.799 18.5698 114.06 18.6081C114.188 18.6253 114.318 18.6618 114.434 18.724C114.546 18.7909 114.643 18.8788 114.704 18.9814C114.832 19.1858 114.844 19.4191 114.794 19.6271C114.765 19.4162 114.696 19.2123 114.568 19.056C114.442 18.8984 114.248 18.8102 114.031 18.7865C113.817 18.7526 113.598 18.7986 113.402 18.8914C113.206 18.9876 113.027 19.1267 112.872 19.2908Z" fill="#7A5FFF"/>
</g>
<path d="M108.654 17.2046C108.578 18.3015 109.534 19.2433 110.789 19.3079C112.043 19.3724 113.122 18.5357 113.197 17.4388C113.273 16.3419 112.317 15.4001 111.062 15.3356C109.808 15.2708 108.729 16.1077 108.654 17.2046Z" fill="white"/>
<path d="M109.762 16.8293C109.592 17.6611 110.155 18.4551 111.021 18.6029C111.887 18.7508 112.726 18.1962 112.897 17.3646C113.067 16.5331 112.503 15.7389 111.637 15.591C110.771 15.4432 109.932 15.9975 109.762 16.8293Z" fill="black" stroke="black" stroke-width="0.159654" stroke-miterlimit="10"/>
<path d="M113.254 17.0332C113.134 16.8142 113.001 16.6031 112.84 16.4133C112.684 16.2215 112.514 16.0415 112.316 15.8947C112.114 15.7525 111.897 15.6378 111.667 15.5566C111.432 15.4884 111.189 15.4437 110.937 15.4493C110.426 15.4481 109.924 15.5743 109.528 15.8422C109.117 16.1004 108.845 16.5251 108.684 16.9679L108.657 17.0422L108.594 17.0209C108.444 16.9705 108.295 16.9167 108.147 16.8581L108.154 16.837L108.617 16.9481L108.599 16.9584C108.697 16.4789 108.961 16.0155 109.39 15.6988C109.816 15.3809 110.383 15.2269 110.937 15.2341C111.217 15.2331 111.494 15.2825 111.753 15.3719C112.009 15.4707 112.243 15.6085 112.444 15.7777C112.838 16.1243 113.116 16.5617 113.278 17.0283L113.254 17.0332Z" fill="black"/>
<path d="M108.676 16.6702L108.248 16.365L108.788 16.4599L108.676 16.6702Z" fill="black"/>
<path d="M108.892 16.2261L108.535 15.8772L109.039 16.0328L108.892 16.2261Z" fill="black"/>
<path d="M112.562 18.8005C112.284 19.0005 111.957 19.1502 111.609 19.2468C111.261 19.3445 110.885 19.381 110.515 19.3389C110.329 19.3217 110.151 19.2671 109.974 19.2142C109.81 19.1365 109.637 19.0712 109.499 18.9604C109.345 18.8691 109.23 18.7406 109.108 18.6223C108.997 18.4963 108.907 18.3562 108.817 18.2217C109.064 18.451 109.306 18.676 109.602 18.8318C109.886 18.9987 110.21 19.1054 110.545 19.1391C110.88 19.1807 111.225 19.1574 111.563 19.0951C111.901 19.0283 112.238 18.9337 112.562 18.8005Z" fill="black"/>
<path d="M120.971 19.1504C120.65 20.2856 119.299 20.9803 117.954 20.7024C116.609 20.4242 115.778 19.2784 116.099 18.1432C116.421 17.008 117.771 16.3133 119.117 16.5912C120.462 16.8692 121.292 18.0149 120.971 19.1504Z" fill="white"/>
<path d="M120.965 18.6309C120.842 19.508 119.979 20.1498 119.035 20.0647C118.092 19.9796 117.426 19.1994 117.549 18.3224C117.671 17.4453 118.535 16.8036 119.478 16.8887C120.422 16.974 121.087 17.7539 120.965 18.6309Z" fill="black" stroke="black" stroke-width="0.169292" stroke-miterlimit="10"/>
<path d="M116.188 17.7863C116.457 17.3168 116.882 16.9126 117.424 16.6362C117.695 16.4974 118.003 16.4105 118.322 16.3747C118.64 16.3506 118.968 16.366 119.275 16.4444C119.88 16.5848 120.444 16.9224 120.801 17.395C120.979 17.6321 121.071 17.9072 121.122 18.1759C121.173 18.4474 121.161 18.7187 121.087 18.9853L121.013 18.9061C121.184 18.9246 121.356 18.9467 121.527 18.9743L121.526 18.9974L121.011 18.9868L120.994 18.9866L120.996 18.9714C121.065 18.4657 120.945 17.9285 120.615 17.5066C120.283 17.0836 119.761 16.8 119.203 16.6619C118.926 16.5845 118.633 16.5658 118.343 16.5809C118.055 16.61 117.773 16.6807 117.51 16.7915C116.991 17.0229 116.545 17.3803 116.211 17.7989L116.188 17.7863Z" fill="black"/>
<path d="M121.014 18.4243L121.602 18.4768L121.052 18.6683L121.014 18.4243Z" fill="black"/>
<path d="M120.918 17.9304L121.49 17.9124L120.996 18.1669L120.918 17.9304Z" fill="black"/>
<path d="M116.301 19.7485C116.447 19.8581 116.592 19.964 116.751 20.0545C116.902 20.152 117.062 20.2384 117.226 20.3142C117.554 20.4649 117.9 20.5814 118.258 20.6284C118.614 20.6847 118.983 20.6639 119.335 20.5765C119.696 20.504 120.022 20.3379 120.36 20.1777C120.218 20.2885 120.075 20.4055 119.915 20.5014C119.746 20.5857 119.581 20.6809 119.392 20.7331C119.212 20.8084 119.012 20.8259 118.816 20.8593C118.618 20.8647 118.417 20.8719 118.22 20.8393C117.827 20.7822 117.453 20.648 117.13 20.4543C116.808 20.262 116.517 20.0288 116.301 19.7485Z" fill="black"/>
<path opacity="0.49" d="M115.071 20.3709C115.007 20.7283 114.589 21.3693 113.659 21.2579C113.015 21.1811 112.598 20.528 112.662 20.1706C112.662 20.1706 113.281 20.0564 113.932 20.0914C114.385 20.1158 115.071 20.3709 115.071 20.3709Z" fill="#7A5FFF"/>
<path d="M112.245 19.8469C112.485 20.0285 112.738 20.1848 113.002 20.3113C113.268 20.4347 113.55 20.5239 113.838 20.5481C114.124 20.5759 114.42 20.5481 114.697 20.4522C114.843 20.4195 114.97 20.3442 115.111 20.2907C115.246 20.2264 115.372 20.1465 115.514 20.0799C115.412 20.1845 115.305 20.291 115.185 20.3851C115.053 20.465 114.933 20.5666 114.778 20.6196C114.49 20.7607 114.142 20.8091 113.809 20.78C113.475 20.7471 113.158 20.6324 112.894 20.4656C112.63 20.2987 112.402 20.0912 112.245 19.8469Z" fill="#3B130E"/>
<path d="M109.414 14.7348C109.475 14.4715 109.644 14.2298 109.871 14.0437C110.094 13.8516 110.377 13.7171 110.672 13.6294C110.972 13.5541 111.283 13.5243 111.585 13.5513C111.736 13.5598 111.884 13.596 112.029 13.6235C112.17 13.6726 112.311 13.7122 112.444 13.7742L112.447 13.7755C112.453 13.7786 112.455 13.7855 112.452 13.7909C112.45 13.7953 112.444 13.7976 112.439 13.7968L112.015 13.7457C111.873 13.7426 111.731 13.7287 111.589 13.7344C111.305 13.7408 111.022 13.7786 110.751 13.8519C110.215 13.9992 109.716 14.307 109.439 14.7448C109.435 14.7505 109.427 14.7526 109.421 14.7492C109.416 14.7466 109.413 14.7415 109.414 14.7369V14.7348Z" fill="#2E2E2E"/>
<path d="M121.393 16.2331C121.23 16.0174 121.04 15.8421 120.849 15.6826C120.652 15.5271 120.444 15.3924 120.218 15.2803C120.103 15.2255 119.989 15.1694 119.865 15.1273C119.748 15.0707 119.618 15.0422 119.493 14.9933L118.685 14.7532L118.681 14.7519C118.674 14.7498 118.67 14.7434 118.672 14.7375C118.675 14.7326 118.68 14.7295 118.685 14.7298L119.115 14.7521C119.256 14.7735 119.4 14.7845 119.539 14.8146C119.82 14.8701 120.093 14.9565 120.348 15.0774C120.844 15.3327 121.256 15.7364 121.419 16.228C121.421 16.2339 121.417 16.2401 121.41 16.2419C121.404 16.2432 121.399 16.2414 121.396 16.2373L121.393 16.2331Z" fill="#2E2E2E"/>
</g>
</svg>
