<svg width="270" height="28" viewBox="0 0 270 28" fill="none" xmlns="http://www.w3.org/2000/svg">
<rect y="7.8103" width="270" height="12" rx="6" fill="#D5D4FF"/>
<rect x="2" y="9.8103" width="50.9988" height="8" rx="4" fill="#957FFF"/>
<path d="M80.5278 20.4205C80.5278 20.4205 82.5686 19.7921 82.9086 17.6893C83.2485 15.5866 80.5725 15.2544 80.5725 15.2544C82.0586 14.3943 81.912 12.6595 81.912 12.6595C82.3265 9.54933 79.6309 9.15799 79.6309 9.15799C79.6309 9.15799 80.8079 8.15779 80.5103 6.66801C79.932 3.77178 76.7235 4.1968 76.7235 4.1968C76.5757 2.71294 75.4696 1.44584 73.9064 1.06118C73.8828 1.05527 73.8591 1.04961 73.8354 1.04421C72.2378 0.667525 70.5431 1.29824 69.6097 2.56535L69.4785 2.74354C69.4414 2.55893 69.3617 2.36557 69.26 2.17607C68.7352 1.19617 67.7395 0.503737 66.5864 0.228357C63.8464 -0.425764 62.2905 1.36253 62.2905 1.36253C61.3062 -0.000479534 58.6258 0.210098 58.6258 0.210098C52.7077 0.877333 53.4881 6.28027 53.4881 6.28027C53.4881 6.28027 51.0031 4.48375 48.7883 7.85849C46.5732 11.233 49.7241 14.0145 49.7241 14.0145C49.1732 14.1534 48.566 15.0412 48.566 15.0412C46.8573 18.4864 51.7257 19.9767 51.7257 19.9767C49.5234 23.3579 54.4528 23.7199 54.4528 23.7199C54.7268 25.6869 56.6198 24.3095 56.6198 24.3095C56.236 26.6946 58.3568 25.7766 58.3568 25.7766C58.6669 27.2379 60.1998 25.8587 60.1998 25.8587L60.4834 25.8378C60.4536 26.4393 60.9343 26.9782 61.626 27.0738C62.2364 27.1582 62.8104 26.8684 63.0624 26.4007C63.3513 26.962 63.9842 27.3999 64.7799 27.5099C65.9645 27.6737 67.061 27.0504 67.2567 26.1137C67.4398 26.4089 67.7666 26.6311 68.1732 26.6871C68.725 26.7635 69.2451 26.5128 69.4925 26.1011C70.2134 27.9745 72.0345 26.6987 72.0345 26.6987C73.442 27.7974 74.2493 26.3269 74.2493 26.3269C74.2493 26.3269 75.5117 27.4389 77.2186 25.8011C78.1754 24.8829 77.551 23.1514 77.551 23.1514C77.551 23.1514 79.108 24.4658 80.4998 23.2486C82.0387 21.9021 80.5278 20.4205 80.5278 20.4205Z" fill="#7A5FFF" stroke="#7A5FFF" stroke-width="0.168683" stroke-miterlimit="10" stroke-linecap="round"/>
<path d="M51.0347 2.79471C51.413 2.77183 51.8896 2.79471 51.9002 3.22436C51.9042 3.39458 51.8336 3.58973 51.7354 3.73501C51.6817 3.81446 51.6195 3.89622 51.5123 3.92656C51.3134 3.98287 51.2144 3.79491 51.309 3.6607C51.5096 3.37657 52.0663 3.41977 52.2848 3.65401C52.501 3.88542 52.3719 4.27548 52.0401 4.35313C52.0728 4.40275 52.1058 4.45238 52.1385 4.502C52.399 4.32433 52.7375 4.51975 52.8062 4.76504C52.8433 4.89721 52.8211 5.03862 52.7676 5.16487C52.7302 5.25332 52.668 5.33329 52.6815 5.43228C52.7066 5.61767 52.9543 5.75882 53.0653 5.90513C53.2212 6.11083 53.3188 6.33915 53.369 6.58162C53.3924 6.69424 53.5872 6.64641 53.5641 6.53431C53.5048 6.24736 53.3781 5.97609 53.1809 5.74108C53.0433 5.57704 52.871 5.50401 52.9379 5.26463C52.9753 5.13144 53.0305 5.02217 53.0252 4.88049C53.0083 4.42281 52.4519 4.0649 51.9954 4.37602C51.9115 4.4331 52.0038 4.54597 52.0938 4.52489C52.4817 4.43386 52.6876 4.03867 52.5518 3.71135C52.4052 3.3573 51.9045 3.21433 51.519 3.32438C51.3245 3.37992 51.1288 3.50539 51.0771 3.68847C51.0327 3.84557 51.1066 4.02582 51.2824 4.09035C51.7678 4.2688 52.0526 3.65504 52.0941 3.33775C52.1236 3.11226 52.0588 2.88239 51.8438 2.74251C51.6139 2.59287 51.3064 2.60084 51.035 2.61703C50.9056 2.62449 50.9045 2.80242 51.0347 2.79471Z" fill="#7A5FFF"/>
<path d="M82.9532 7.12465C82.5457 6.8917 82.0016 6.73254 81.697 7.1771C81.5007 7.46379 81.3698 8.07653 81.7852 8.26731C81.9552 8.34548 82.1494 8.29971 82.2586 8.16318C82.3877 8.0017 82.3436 7.79137 82.2274 7.63478C81.996 7.32341 81.482 7.17505 81.1064 7.37483C80.7348 7.57256 80.6604 8.07086 80.9738 8.33621C81.0623 8.41104 81.1753 8.31693 81.1327 8.22823C80.8987 7.74149 80.1676 7.89294 79.9363 8.29225C79.8706 8.40538 79.8528 8.5198 79.8265 8.64219C79.7821 8.84866 79.5511 8.85612 79.3682 8.92786C79.0609 9.04845 78.7957 9.23306 78.5831 9.46165C78.5013 9.54958 78.6436 9.67634 78.7262 9.58763C78.9079 9.39222 79.1252 9.23178 79.3822 9.11839C79.5706 9.03534 79.8945 9.01837 79.9918 8.8281C80.0341 8.74556 80.0216 8.64836 80.042 8.5612C80.0704 8.43958 80.1317 8.31924 80.2316 8.23002C80.4472 8.03744 80.8304 8.0521 80.9583 8.31822C81.0112 8.28222 81.064 8.24622 81.1172 8.21048C80.8955 8.02278 80.9492 7.67207 81.2089 7.52859C81.5278 7.35246 82.055 7.54273 82.1263 7.87339C82.15 7.98396 82.1056 8.15906 81.9178 8.12383C81.7586 8.09401 81.727 7.91685 81.7235 7.80217C81.7192 7.65689 81.7527 7.50237 81.8155 7.36815C81.8897 7.2095 82.0203 7.07297 82.2282 7.05934C82.4552 7.04468 82.6705 7.17453 82.8518 7.27815C82.9605 7.34089 83.0621 7.18688 82.9532 7.12465Z" fill="#7A5FFF"/>
<path d="M54.7373 15.8773C54.7373 15.8773 54.7341 6.92245 64.5348 7.6825C73.8246 8.40296 72.0789 19.4294 69.6257 20.5397L69.4618 20.822C69.4618 20.822 70.9687 14.3279 67.6977 11.0832C65.5661 8.96889 61.9811 8.68888 59.3702 10.3347C58.01 11.1922 56.0128 13.5066 54.7373 15.8773Z" fill="white" stroke="white" stroke-width="0.153832" stroke-miterlimit="10"/>
<mask id="mask0_516_9130" style="mask-type:luminance" maskUnits="userSpaceOnUse" x="54" y="11" width="20" height="15">
<path d="M72.9289 19.5279C72.4622 19.0908 71.7971 19.1118 71.2039 19.3163C70.9016 19.4204 70.6186 19.5644 70.3469 19.7197C70.184 19.8128 69.8595 20.1519 69.6606 20.1151C69.5233 20.0899 69.502 19.8904 69.4599 19.7953C69.091 18.9604 68.2966 18.1857 67.6598 17.4994C66.9454 16.7299 66.1828 15.9965 65.4231 15.2622C64.1268 14.0092 62.9346 12.6321 62.139 11.0801C61.8907 11.2763 61.3921 11.6717 61.2893 11.7658C60.2974 12.6745 59.2167 13.5217 58.0516 14.2553C57.5113 14.5955 56.9487 14.9122 56.3494 15.1658C55.8161 15.3915 55.2357 15.5787 54.6369 15.5838C54.6331 15.5838 54.6305 15.5823 54.6267 15.5821C54.4906 15.9636 54.384 16.3573 54.311 16.7617C53.442 21.5705 56.2448 24.8832 61.2925 25.5811C64.272 25.993 67.1411 24.92 69.0031 22.9682C69.7289 23.6161 71.1548 23.412 72.2294 22.492C73.3264 21.5532 73.7254 20.2743 72.9289 19.5279Z" fill="white"/>
</mask>
<g mask="url(#mask0_516_9130)">
<path d="M72.9289 19.5296C72.4622 19.0925 71.7971 19.1136 71.2039 19.318C70.9016 19.4221 70.6186 19.5661 70.3469 19.7214C70.184 19.8145 69.8595 20.1536 69.6606 20.1168C69.5233 20.0916 69.502 19.8921 69.4599 19.797C69.091 18.9621 68.2966 18.1874 67.6598 17.5011C66.9454 16.7316 66.1828 15.9982 65.4231 15.2639C64.1268 14.0109 62.9346 12.6338 62.139 11.0818C61.8907 11.278 61.3921 11.6734 61.2893 11.7675C60.2974 12.6762 59.2167 13.5234 58.0516 14.257C57.5113 14.5972 56.9487 14.914 56.3494 15.1675C55.8161 15.3932 55.2357 15.5804 54.6369 15.5856C54.6331 15.5856 54.6305 15.584 54.6267 15.5838C54.4906 15.9653 54.384 16.359 54.311 16.7634C53.442 21.5722 56.2448 24.8849 61.2925 25.5828C64.272 25.9947 67.1411 24.9217 69.0031 22.9699C69.7289 23.6178 71.1548 23.4137 72.2294 22.4937C73.3264 21.5549 73.7254 20.276 72.9289 19.5296Z" fill="white" stroke="white" stroke-width="0.1584" stroke-miterlimit="10"/>
</g>
<mask id="mask1_516_9130" style="mask-type:luminance" maskUnits="userSpaceOnUse" x="54" y="11" width="20" height="15">
<path d="M72.9289 19.5279C72.4622 19.0908 71.7971 19.1118 71.2039 19.3163C70.9016 19.4204 70.6186 19.5644 70.3469 19.7197C70.184 19.8128 69.8595 20.1519 69.6606 20.1151C69.5233 20.0899 69.502 19.8904 69.4599 19.7953C69.091 18.9604 68.2966 18.1857 67.6598 17.4994C66.9454 16.7299 66.1828 15.9965 65.4231 15.2622C64.1268 14.0092 62.9346 12.6321 62.139 11.0801C61.8907 11.2763 61.3921 11.6717 61.2893 11.7658C60.2974 12.6745 59.2167 13.5217 58.0516 14.2553C57.5113 14.5955 56.9487 14.9122 56.3494 15.1658C55.8161 15.3915 55.2357 15.5787 54.6369 15.5838C54.6331 15.5838 54.6305 15.5823 54.6267 15.5821C54.4906 15.9636 54.384 16.3573 54.311 16.7617C53.442 21.5705 56.2448 24.8832 61.2925 25.5811C64.272 25.993 67.1411 24.92 69.0031 22.9682C69.7289 23.6161 71.1548 23.412 72.2294 22.492C73.3264 21.5532 73.7254 20.2743 72.9289 19.5279Z" fill="white"/>
</mask>
<g mask="url(#mask1_516_9130)">
<path d="M70.3594 20.4252C70.7119 20.1454 71.1194 19.9024 71.6063 19.7906C71.8466 19.7361 72.1259 19.7242 72.3846 19.8276C72.6411 19.9371 72.8242 20.1387 72.8894 20.3889C72.9425 20.6414 72.852 20.8741 72.7419 21.0705C72.6236 21.267 72.4793 21.4426 72.3169 21.6012C71.9947 21.9201 71.6194 22.1862 71.2152 22.4078C71.5461 22.1075 71.8592 21.7972 72.1364 21.4724C72.2696 21.3071 72.399 21.1405 72.488 20.9626C72.5789 20.7882 72.6385 20.6008 72.5979 20.4396C72.5657 20.2843 72.4276 20.1236 72.2611 20.0495C72.0908 19.9672 71.8706 19.9631 71.6524 19.9901C71.2125 20.0557 70.7756 20.228 70.3594 20.4252Z" fill="#1C1C1C"/>
<path d="M68.9824 22.9849C69.0914 22.8556 69.1734 22.7116 69.2514 22.5679C69.3279 22.4231 69.396 22.2745 69.4541 22.1231C69.5777 21.8222 69.6673 21.5114 69.757 21.199C69.7354 21.3589 69.7065 21.5183 69.6656 21.6759C69.6235 21.833 69.5742 21.9889 69.514 22.1416C69.3875 22.4434 69.2345 22.7476 68.9824 22.9849Z" fill="#1C1C1C"/>
<path d="M62.1129 10.7734C61.7902 10.902 61.4858 11.1 61.3477 11.397C61.232 11.6453 61.2437 11.959 61.4557 12.1663C61.6392 12.3455 61.9894 12.428 62.1947 12.2293C62.3518 12.077 62.3553 11.8112 62.1363 11.7029C61.8568 11.5649 61.4557 11.688 61.2358 11.8623C60.9966 12.0521 60.8917 12.3578 60.9615 12.6335C61.0246 12.8829 61.2802 13.1187 61.591 13.0297C61.843 12.9577 61.928 12.6443 61.6652 12.5322C61.3643 12.4039 61.0185 12.6067 60.8938 12.8474C60.727 13.1685 60.9136 13.5228 61.1546 13.7694C61.2349 13.8517 61.3696 13.7322 61.2898 13.6504C61.1169 13.4735 60.9668 13.2264 61.0392 12.986C61.0708 12.8816 61.1482 12.7862 61.2504 12.726C61.3179 12.6864 61.6663 12.581 61.6365 12.7762C61.6132 12.9289 61.362 12.8811 61.2814 12.816C61.1774 12.7319 61.1359 12.599 61.1315 12.4784C61.1231 12.2437 61.2635 12.0195 61.4958 11.9037C61.6447 11.8294 62.1634 11.7181 62.1161 12.002C62.0691 12.2848 61.6739 12.1673 61.5521 11.9999C61.2186 11.5407 61.7785 11.0905 62.2102 10.9185C62.3215 10.8742 62.2245 10.7292 62.1129 10.7734Z" fill="#1A0000"/>
<path d="M58.8584 19.2926C58.9367 19.0903 59.0769 18.8992 59.2799 18.7606C59.4788 18.6202 59.7533 18.5413 60.0159 18.5709C60.1453 18.5837 60.2767 18.6161 60.395 18.6742C60.5098 18.7375 60.61 18.8218 60.676 18.9226C60.8124 19.1227 60.8346 19.3551 60.7931 19.5649C60.7557 19.3551 60.6772 19.1538 60.5437 19.0016C60.4102 18.8483 60.2134 18.7665 59.9949 18.7503C59.7793 18.7236 59.5635 18.7768 59.3707 18.8761C59.1788 18.9784 59.0059 19.1234 58.8584 19.2926Z" fill="#7A5FFF"/>
<g opacity="0.53">
<path d="M58.8721 19.2893C58.8721 19.2893 59.328 18.5287 60.1587 18.7139C60.8719 18.8728 60.7937 19.6256 60.7937 19.6256" fill="#7A5FFF"/>
<path d="M58.8721 19.2908C58.9588 19.0912 59.1075 18.9051 59.316 18.7732C59.5208 18.6397 59.7985 18.5698 60.0597 18.6081C60.1885 18.6253 60.3182 18.6618 60.4341 18.724C60.5463 18.7909 60.6427 18.8788 60.7043 18.9814C60.8322 19.1858 60.8442 19.4191 60.7937 19.6271C60.7653 19.4162 60.6955 19.2123 60.5685 19.056C60.4417 18.8984 60.2483 18.8102 60.0307 18.7865C59.8167 18.7526 59.5985 18.7986 59.4016 18.8914C59.2056 18.9876 59.0266 19.1267 58.8721 19.2908Z" fill="#7A5FFF"/>
</g>
<path d="M54.6536 17.2046C54.578 18.3015 55.5339 19.2433 56.7887 19.3079C58.0435 19.3724 59.1218 18.5357 59.1972 17.4388C59.2728 16.3419 58.3169 15.4001 57.0621 15.3356C55.8076 15.2708 54.7293 16.1077 54.6536 17.2046Z" fill="white"/>
<path d="M55.7617 16.8293C55.5917 17.6611 56.1554 18.4551 57.0211 18.6029C57.8869 18.7508 58.7263 18.1962 58.8966 17.3646C59.0668 16.5331 58.5028 15.7389 57.6371 15.591C56.7714 15.4432 55.9317 15.9975 55.7617 16.8293Z" fill="black" stroke="black" stroke-width="0.159654" stroke-miterlimit="10"/>
<path d="M59.2536 17.0332C59.1344 16.8142 59.0012 16.6031 58.84 16.4133C58.684 16.2215 58.514 16.0415 58.3157 15.8947C58.1139 15.7525 57.8969 15.6378 57.667 15.5566C57.4316 15.4884 57.1889 15.4437 56.9374 15.4493C56.4263 15.4481 55.9239 15.5743 55.5278 15.8422C55.1166 16.1004 54.8449 16.5251 54.6843 16.9679L54.6574 17.0422L54.594 17.0209C54.4439 16.9705 54.295 16.9167 54.1475 16.8581L54.1542 16.837L54.6168 16.9481L54.5993 16.9584C54.6966 16.4789 54.9606 16.0155 55.39 15.6988C55.8161 15.3809 56.3833 15.2269 56.9374 15.2341C57.2166 15.2331 57.4938 15.2825 57.7535 15.3719C58.0087 15.4707 58.2427 15.6085 58.4442 15.7777C58.8379 16.1243 59.1163 16.5617 59.2778 17.0283L59.2536 17.0332Z" fill="black"/>
<path d="M54.6762 16.6702L54.248 16.365L54.7881 16.4599L54.6762 16.6702Z" fill="black"/>
<path d="M54.8924 16.2261L54.5352 15.8772L55.0387 16.0328L54.8924 16.2261Z" fill="black"/>
<path d="M58.5621 18.8005C58.2841 19.0005 57.9572 19.1502 57.6091 19.2468C57.2612 19.3445 56.885 19.381 56.5149 19.3389C56.3286 19.3217 56.1507 19.2671 55.9743 19.2142C55.8096 19.1365 55.6372 19.0712 55.4988 18.9604C55.3446 18.8691 55.2298 18.7406 55.1083 18.6223C54.997 18.4963 54.9073 18.3562 54.8174 18.2217C55.0645 18.451 55.3063 18.676 55.6019 18.8318C55.8864 18.9987 56.2097 19.1054 56.5453 19.1391C56.8797 19.1807 57.2247 19.1574 57.5632 19.0951C57.9009 19.0283 58.2379 18.9337 58.5621 18.8005Z" fill="black"/>
<path d="M66.9714 19.1504C66.6501 20.2856 65.2992 20.9803 63.9539 20.7024C62.6086 20.4242 61.7782 19.2784 62.0992 18.1432C62.4205 17.008 63.7714 16.3133 65.117 16.5912C66.4623 16.8692 67.2924 18.0149 66.9714 19.1504Z" fill="white"/>
<path d="M66.9648 18.6309C66.8425 19.508 65.9788 20.1498 65.0354 20.0647C64.0919 19.9796 63.4263 19.1994 63.5487 18.3224C63.6711 17.4453 64.5347 16.8036 65.4782 16.8887C66.4216 16.974 67.0872 17.7539 66.9648 18.6309Z" fill="black" stroke="black" stroke-width="0.169292" stroke-miterlimit="10"/>
<path d="M62.1885 17.7863C62.4572 17.3168 62.8825 16.9126 63.4237 16.6362C63.6947 16.4974 64.0029 16.4105 64.3215 16.3747C64.6405 16.3506 64.9679 16.366 65.2749 16.4444C65.8803 16.5848 66.4443 16.9224 66.8013 17.395C66.9789 17.6321 67.0714 17.9072 67.1217 18.1759C67.1731 18.4474 67.1611 18.7187 67.0866 18.9853L67.013 18.9061C67.1845 18.9246 67.3559 18.9467 67.5271 18.9743L67.5265 18.9974L67.0107 18.9868L66.9943 18.9866L66.9964 18.9714C67.0653 18.4657 66.9453 17.9285 66.6146 17.5066C66.2834 17.0836 65.7609 16.8 65.2033 16.6619C64.9258 16.5845 64.6326 16.5658 64.3434 16.5809C64.0551 16.61 63.773 16.6807 63.5101 16.7915C62.9905 17.0229 62.5451 17.3803 62.2107 17.7989L62.1885 17.7863Z" fill="black"/>
<path d="M67.0137 18.4243L67.6025 18.4768L67.0522 18.6683L67.0137 18.4243Z" fill="black"/>
<path d="M66.918 17.9304L67.4899 17.9124L66.996 18.1669L66.918 17.9304Z" fill="black"/>
<path d="M62.3008 19.7485C62.4465 19.8581 62.5923 19.964 62.7506 20.0545C62.9019 20.152 63.0616 20.2384 63.2258 20.3142C63.5541 20.4649 63.8996 20.5814 64.2577 20.6284C64.6143 20.6847 64.9826 20.6639 65.3352 20.5765C65.6959 20.504 66.0219 20.3379 66.3598 20.1777C66.2178 20.2885 66.0747 20.4055 65.9147 20.5014C65.7464 20.5857 65.5811 20.6809 65.3921 20.7331C65.2116 20.8084 65.0119 20.8259 64.8162 20.8593C64.6175 20.8647 64.4166 20.8719 64.22 20.8393C63.8272 20.7822 63.453 20.648 63.13 20.4543C62.8075 20.262 62.5172 20.0288 62.3008 19.7485Z" fill="black"/>
<path opacity="0.49" d="M61.0708 20.3709C61.0066 20.7283 60.5886 21.3693 59.6586 21.2579C59.0155 21.1811 58.5975 20.528 58.6618 20.1706C58.6618 20.1706 59.281 20.0564 59.9323 20.0914C60.385 20.1158 61.0708 20.3709 61.0708 20.3709Z" fill="#7A5FFF"/>
<path d="M58.2451 19.8469C58.4852 20.0285 58.7381 20.1848 59.0025 20.3113C59.2683 20.4347 59.5495 20.5239 59.8375 20.5481C60.1238 20.5759 60.4196 20.5481 60.6971 20.4522C60.8429 20.4195 60.9699 20.3442 61.1113 20.2907C61.2462 20.2264 61.3718 20.1465 61.5141 20.0799C61.4115 20.1845 61.3049 20.291 61.1849 20.3851C61.0535 20.465 60.9325 20.5666 60.7783 20.6196C60.49 20.7607 60.1416 20.8091 59.8092 20.78C59.4751 20.7471 59.1584 20.6324 58.8941 20.4656C58.6298 20.2987 58.4017 20.0912 58.2451 19.8469Z" fill="#3B130E"/>
<path d="M55.4144 14.7348C55.4751 14.4715 55.6436 14.2298 55.8706 14.0437C56.094 13.8516 56.3768 13.7171 56.672 13.6294C56.972 13.5541 57.2828 13.5243 57.5854 13.5513C57.7364 13.5598 57.8836 13.596 58.0287 13.6235C58.1704 13.6726 58.3112 13.7122 58.4438 13.7742L58.4467 13.7755C58.4531 13.7786 58.4555 13.7855 58.4523 13.7909C58.4496 13.7953 58.4441 13.7976 58.4388 13.7968L58.0153 13.7457C57.8731 13.7426 57.7308 13.7287 57.5889 13.7344C57.3047 13.7408 57.022 13.7786 56.7515 13.8519C56.2149 13.9992 55.7164 14.307 55.4386 14.7448C55.4351 14.7505 55.4269 14.7526 55.4208 14.7492C55.4155 14.7466 55.4132 14.7415 55.4144 14.7369V14.7348Z" fill="#2E2E2E"/>
<path d="M67.3932 16.2331C67.2305 16.0174 67.04 15.8421 66.8487 15.6826C66.6522 15.5271 66.4442 15.3924 66.2175 15.2803C66.103 15.2255 65.9891 15.1694 65.8653 15.1273C65.7482 15.0707 65.6179 15.0422 65.4929 14.9933L64.685 14.7532L64.6806 14.7519C64.6739 14.7498 64.6704 14.7434 64.6725 14.7375C64.6745 14.7326 64.6798 14.7295 64.6853 14.7298L65.1147 14.7521C65.256 14.7735 65.3997 14.7845 65.5393 14.8146C65.82 14.8701 66.0928 14.9565 66.3475 15.0774C66.8438 15.3327 67.2562 15.7364 67.4186 16.228C67.4206 16.2339 67.4165 16.2401 67.4098 16.2419C67.4043 16.2432 67.3987 16.2414 67.3958 16.2373L67.3932 16.2331Z" fill="#2E2E2E"/>
</g>
</svg>
