<svg width="270" height="28" viewBox="0 0 270 28" fill="none" xmlns="http://www.w3.org/2000/svg">
<rect y="7.8103" width="270" height="12" rx="6" fill="#D5D4FF"/>
<rect x="2" y="9.8103" width="131.999" height="8" rx="4" fill="#957FFF"/>
<path d="M161.528 20.4205C161.528 20.4205 163.569 19.7921 163.909 17.6893C164.249 15.5866 161.573 15.2544 161.573 15.2544C163.059 14.3943 162.912 12.6595 162.912 12.6595C163.326 9.54933 160.631 9.15799 160.631 9.15799C160.631 9.15799 161.808 8.15779 161.51 6.66801C160.932 3.77178 157.724 4.1968 157.724 4.1968C157.576 2.71294 156.47 1.44584 154.906 1.06118C154.883 1.05527 154.859 1.04961 154.835 1.04421C153.238 0.667525 151.543 1.29824 150.61 2.56535L150.479 2.74354C150.441 2.55893 150.362 2.36557 150.26 2.17607C149.735 1.19617 148.739 0.503737 147.586 0.228357C144.846 -0.425764 143.29 1.36253 143.29 1.36253C142.306 -0.000479534 139.626 0.210098 139.626 0.210098C133.708 0.877333 134.488 6.28027 134.488 6.28027C134.488 6.28027 132.003 4.48375 129.788 7.85849C127.573 11.233 130.724 14.0145 130.724 14.0145C130.173 14.1534 129.566 15.0412 129.566 15.0412C127.857 18.4864 132.726 19.9767 132.726 19.9767C130.523 23.3579 135.453 23.7199 135.453 23.7199C135.727 25.6869 137.62 24.3095 137.62 24.3095C137.236 26.6946 139.357 25.7766 139.357 25.7766C139.667 27.2379 141.2 25.8587 141.2 25.8587L141.483 25.8378C141.454 26.4393 141.934 26.9782 142.626 27.0738C143.236 27.1582 143.81 26.8684 144.062 26.4007C144.351 26.962 144.984 27.3999 145.78 27.5099C146.965 27.6737 148.061 27.0504 148.257 26.1137C148.44 26.4089 148.767 26.6311 149.173 26.6871C149.725 26.7635 150.245 26.5128 150.493 26.1011C151.213 27.9745 153.034 26.6987 153.034 26.6987C154.442 27.7974 155.249 26.3269 155.249 26.3269C155.249 26.3269 156.512 27.4389 158.219 25.8011C159.175 24.8829 158.551 23.1514 158.551 23.1514C158.551 23.1514 160.108 24.4658 161.5 23.2486C163.039 21.9021 161.528 20.4205 161.528 20.4205Z" fill="#7A5FFF" stroke="#7A5FFF" stroke-width="0.168683" stroke-miterlimit="10" stroke-linecap="round"/>
<path d="M132.035 2.79471C132.413 2.77183 132.89 2.79471 132.9 3.22436C132.904 3.39458 132.834 3.58973 132.735 3.73501C132.682 3.81446 132.619 3.89622 132.512 3.92656C132.313 3.98287 132.214 3.79491 132.309 3.6607C132.51 3.37657 133.066 3.41977 133.285 3.65401C133.501 3.88542 133.372 4.27548 133.04 4.35313C133.073 4.40275 133.106 4.45238 133.138 4.502C133.399 4.32433 133.738 4.51975 133.806 4.76504C133.843 4.89721 133.821 5.03862 133.768 5.16487C133.73 5.25332 133.668 5.33329 133.681 5.43228C133.707 5.61767 133.954 5.75882 134.065 5.90513C134.221 6.11083 134.319 6.33915 134.369 6.58162C134.392 6.69424 134.587 6.64641 134.564 6.53431C134.505 6.24736 134.378 5.97609 134.181 5.74108C134.043 5.57704 133.871 5.50401 133.938 5.26463C133.975 5.13144 134.03 5.02217 134.025 4.88049C134.008 4.42281 133.452 4.0649 132.995 4.37602C132.912 4.4331 133.004 4.54597 133.094 4.52489C133.482 4.43386 133.688 4.03867 133.552 3.71135C133.405 3.3573 132.905 3.21433 132.519 3.32438C132.324 3.37992 132.129 3.50539 132.077 3.68847C132.033 3.84557 132.107 4.02582 132.282 4.09035C132.768 4.2688 133.053 3.65504 133.094 3.33775C133.124 3.11226 133.059 2.88239 132.844 2.74251C132.614 2.59287 132.306 2.60084 132.035 2.61703C131.906 2.62449 131.904 2.80242 132.035 2.79471Z" fill="#7A5FFF"/>
<path d="M163.953 7.12465C163.546 6.8917 163.002 6.73254 162.697 7.1771C162.501 7.46379 162.37 8.07653 162.785 8.26731C162.955 8.34548 163.149 8.29971 163.259 8.16318C163.388 8.0017 163.344 7.79137 163.227 7.63478C162.996 7.32341 162.482 7.17505 162.106 7.37483C161.735 7.57256 161.66 8.07086 161.974 8.33621C162.062 8.41104 162.175 8.31693 162.133 8.22823C161.899 7.74149 161.168 7.89294 160.936 8.29225C160.871 8.40538 160.853 8.5198 160.826 8.64219C160.782 8.84866 160.551 8.85612 160.368 8.92786C160.061 9.04845 159.796 9.23306 159.583 9.46165C159.501 9.54958 159.644 9.67634 159.726 9.58763C159.908 9.39222 160.125 9.23178 160.382 9.11839C160.571 9.03534 160.895 9.01837 160.992 8.8281C161.034 8.74556 161.022 8.64836 161.042 8.5612C161.07 8.43958 161.132 8.31924 161.232 8.23002C161.447 8.03744 161.83 8.0521 161.958 8.31822C162.011 8.28222 162.064 8.24622 162.117 8.21048C161.895 8.02278 161.949 7.67207 162.209 7.52859C162.528 7.35246 163.055 7.54273 163.126 7.87339C163.15 7.98396 163.106 8.15906 162.918 8.12383C162.759 8.09401 162.727 7.91685 162.724 7.80217C162.719 7.65689 162.753 7.50237 162.816 7.36815C162.89 7.2095 163.02 7.07297 163.228 7.05934C163.455 7.04468 163.67 7.17453 163.852 7.27815C163.96 7.34089 164.062 7.18688 163.953 7.12465Z" fill="#7A5FFF"/>
<path d="M135.737 15.8773C135.737 15.8773 135.734 6.92245 145.535 7.6825C154.825 8.40296 153.079 19.4294 150.626 20.5397L150.462 20.822C150.462 20.822 151.969 14.3279 148.698 11.0832C146.566 8.96889 142.981 8.68888 140.37 10.3347C139.01 11.1922 137.013 13.5066 135.737 15.8773Z" fill="white" stroke="white" stroke-width="0.153832" stroke-miterlimit="10"/>
<mask id="mask0_516_9382" style="mask-type:luminance" maskUnits="userSpaceOnUse" x="135" y="11" width="20" height="15">
<path d="M153.929 19.5279C153.462 19.0908 152.797 19.1118 152.204 19.3163C151.902 19.4204 151.619 19.5644 151.347 19.7197C151.184 19.8128 150.859 20.1519 150.661 20.1151C150.523 20.0899 150.502 19.8904 150.46 19.7953C150.091 18.9604 149.297 18.1857 148.66 17.4994C147.945 16.7299 147.183 15.9965 146.423 15.2622C145.127 14.0092 143.935 12.6321 143.139 11.0801C142.891 11.2763 142.392 11.6717 142.289 11.7658C141.297 12.6745 140.217 13.5217 139.052 14.2553C138.511 14.5955 137.949 14.9122 137.349 15.1658C136.816 15.3915 136.236 15.5787 135.637 15.5838C135.633 15.5838 135.631 15.5823 135.627 15.5821C135.491 15.9636 135.384 16.3573 135.311 16.7617C134.442 21.5705 137.245 24.8832 142.293 25.5811C145.272 25.993 148.141 24.92 150.003 22.9682C150.729 23.6161 152.155 23.412 153.229 22.492C154.326 21.5532 154.725 20.2743 153.929 19.5279Z" fill="white"/>
</mask>
<g mask="url(#mask0_516_9382)">
<path d="M153.929 19.5296C153.462 19.0925 152.797 19.1136 152.204 19.318C151.902 19.4221 151.619 19.5661 151.347 19.7214C151.184 19.8145 150.859 20.1536 150.661 20.1168C150.523 20.0916 150.502 19.8921 150.46 19.797C150.091 18.9621 149.297 18.1874 148.66 17.5011C147.945 16.7316 147.183 15.9982 146.423 15.2639C145.127 14.0109 143.935 12.6338 143.139 11.0818C142.891 11.278 142.392 11.6734 142.289 11.7675C141.297 12.6762 140.217 13.5234 139.052 14.257C138.511 14.5972 137.949 14.914 137.349 15.1675C136.816 15.3932 136.236 15.5804 135.637 15.5856C135.633 15.5856 135.631 15.584 135.627 15.5838C135.491 15.9653 135.384 16.359 135.311 16.7634C134.442 21.5722 137.245 24.8849 142.293 25.5828C145.272 25.9947 148.141 24.9217 150.003 22.9699C150.729 23.6178 152.155 23.4137 153.229 22.4937C154.326 21.5549 154.725 20.276 153.929 19.5296Z" fill="white" stroke="white" stroke-width="0.1584" stroke-miterlimit="10"/>
</g>
<mask id="mask1_516_9382" style="mask-type:luminance" maskUnits="userSpaceOnUse" x="135" y="11" width="20" height="15">
<path d="M153.929 19.5279C153.462 19.0908 152.797 19.1118 152.204 19.3163C151.902 19.4204 151.619 19.5644 151.347 19.7197C151.184 19.8128 150.859 20.1519 150.661 20.1151C150.523 20.0899 150.502 19.8904 150.46 19.7953C150.091 18.9604 149.297 18.1857 148.66 17.4994C147.945 16.7299 147.183 15.9965 146.423 15.2622C145.127 14.0092 143.935 12.6321 143.139 11.0801C142.891 11.2763 142.392 11.6717 142.289 11.7658C141.297 12.6745 140.217 13.5217 139.052 14.2553C138.511 14.5955 137.949 14.9122 137.349 15.1658C136.816 15.3915 136.236 15.5787 135.637 15.5838C135.633 15.5838 135.631 15.5823 135.627 15.5821C135.491 15.9636 135.384 16.3573 135.311 16.7617C134.442 21.5705 137.245 24.8832 142.293 25.5811C145.272 25.993 148.141 24.92 150.003 22.9682C150.729 23.6161 152.155 23.412 153.229 22.492C154.326 21.5532 154.725 20.2743 153.929 19.5279Z" fill="white"/>
</mask>
<g mask="url(#mask1_516_9382)">
<path d="M151.359 20.4252C151.712 20.1454 152.119 19.9024 152.606 19.7906C152.847 19.7361 153.126 19.7242 153.385 19.8276C153.641 19.9371 153.824 20.1387 153.889 20.3889C153.943 20.6414 153.852 20.8741 153.742 21.0705C153.624 21.267 153.479 21.4426 153.317 21.6012C152.995 21.9201 152.619 22.1862 152.215 22.4078C152.546 22.1075 152.859 21.7972 153.136 21.4724C153.27 21.3071 153.399 21.1405 153.488 20.9626C153.579 20.7882 153.638 20.6008 153.598 20.4396C153.566 20.2843 153.428 20.1236 153.261 20.0495C153.091 19.9672 152.871 19.9631 152.652 19.9901C152.213 20.0557 151.776 20.228 151.359 20.4252Z" fill="#1C1C1C"/>
<path d="M149.982 22.9849C150.091 22.8556 150.173 22.7116 150.251 22.5679C150.328 22.4231 150.396 22.2745 150.454 22.1231C150.578 21.8222 150.667 21.5114 150.757 21.199C150.735 21.3589 150.706 21.5183 150.666 21.6759C150.624 21.833 150.574 21.9889 150.514 22.1416C150.388 22.4434 150.234 22.7476 149.982 22.9849Z" fill="#1C1C1C"/>
<path d="M143.113 10.7734C142.79 10.902 142.486 11.1 142.348 11.397C142.232 11.6453 142.244 11.959 142.456 12.1663C142.639 12.3455 142.989 12.428 143.195 12.2293C143.352 12.077 143.355 11.8112 143.136 11.7029C142.857 11.5649 142.456 11.688 142.236 11.8623C141.997 12.0521 141.892 12.3578 141.962 12.6335C142.025 12.8829 142.28 13.1187 142.591 13.0297C142.843 12.9577 142.928 12.6443 142.665 12.5322C142.364 12.4039 142.018 12.6067 141.894 12.8474C141.727 13.1685 141.914 13.5228 142.155 13.7694C142.235 13.8517 142.37 13.7322 142.29 13.6504C142.117 13.4735 141.967 13.2264 142.039 12.986C142.071 12.8816 142.148 12.7862 142.25 12.726C142.318 12.6864 142.666 12.581 142.637 12.7762C142.613 12.9289 142.362 12.8811 142.281 12.816C142.177 12.7319 142.136 12.599 142.132 12.4784C142.123 12.2437 142.264 12.0195 142.496 11.9037C142.645 11.8294 143.163 11.7181 143.116 12.002C143.069 12.2848 142.674 12.1673 142.552 11.9999C142.219 11.5407 142.778 11.0905 143.21 10.9185C143.321 10.8742 143.224 10.7292 143.113 10.7734Z" fill="#1A0000"/>
<path d="M139.858 19.2926C139.937 19.0903 140.077 18.8992 140.28 18.7606C140.479 18.6202 140.753 18.5413 141.016 18.5709C141.145 18.5837 141.277 18.6161 141.395 18.6742C141.51 18.7375 141.61 18.8218 141.676 18.9226C141.812 19.1227 141.835 19.3551 141.793 19.5649C141.756 19.3551 141.677 19.1538 141.544 19.0016C141.41 18.8483 141.213 18.7665 140.995 18.7503C140.779 18.7236 140.563 18.7768 140.371 18.8761C140.179 18.9784 140.006 19.1234 139.858 19.2926Z" fill="#7A5FFF"/>
<g opacity="0.53">
<path d="M139.872 19.2893C139.872 19.2893 140.328 18.5287 141.159 18.7139C141.872 18.8728 141.794 19.6256 141.794 19.6256" fill="#7A5FFF"/>
<path d="M139.872 19.2908C139.959 19.0912 140.107 18.9051 140.316 18.7732C140.521 18.6397 140.799 18.5698 141.06 18.6081C141.188 18.6253 141.318 18.6618 141.434 18.724C141.546 18.7909 141.643 18.8788 141.704 18.9814C141.832 19.1858 141.844 19.4191 141.794 19.6271C141.765 19.4162 141.696 19.2123 141.568 19.056C141.442 18.8984 141.248 18.8102 141.031 18.7865C140.817 18.7526 140.598 18.7986 140.402 18.8914C140.206 18.9876 140.027 19.1267 139.872 19.2908Z" fill="#7A5FFF"/>
</g>
<path d="M135.654 17.2046C135.578 18.3015 136.534 19.2433 137.789 19.3079C139.043 19.3724 140.122 18.5357 140.197 17.4388C140.273 16.3419 139.317 15.4001 138.062 15.3356C136.808 15.2708 135.729 16.1077 135.654 17.2046Z" fill="white"/>
<path d="M136.762 16.8293C136.592 17.6611 137.155 18.4551 138.021 18.6029C138.887 18.7508 139.726 18.1962 139.897 17.3646C140.067 16.5331 139.503 15.7389 138.637 15.591C137.771 15.4432 136.932 15.9975 136.762 16.8293Z" fill="black" stroke="black" stroke-width="0.159654" stroke-miterlimit="10"/>
<path d="M140.254 17.0332C140.134 16.8142 140.001 16.6031 139.84 16.4133C139.684 16.2215 139.514 16.0415 139.316 15.8947C139.114 15.7525 138.897 15.6378 138.667 15.5566C138.432 15.4884 138.189 15.4437 137.937 15.4493C137.426 15.4481 136.924 15.5743 136.528 15.8422C136.117 16.1004 135.845 16.5251 135.684 16.9679L135.657 17.0422L135.594 17.0209C135.444 16.9705 135.295 16.9167 135.147 16.8581L135.154 16.837L135.617 16.9481L135.599 16.9584C135.697 16.4789 135.961 16.0155 136.39 15.6988C136.816 15.3809 137.383 15.2269 137.937 15.2341C138.217 15.2331 138.494 15.2825 138.753 15.3719C139.009 15.4707 139.243 15.6085 139.444 15.7777C139.838 16.1243 140.116 16.5617 140.278 17.0283L140.254 17.0332Z" fill="black"/>
<path d="M135.676 16.6702L135.248 16.365L135.788 16.4599L135.676 16.6702Z" fill="black"/>
<path d="M135.892 16.2261L135.535 15.8772L136.039 16.0328L135.892 16.2261Z" fill="black"/>
<path d="M139.562 18.8005C139.284 19.0005 138.957 19.1502 138.609 19.2468C138.261 19.3445 137.885 19.381 137.515 19.3389C137.329 19.3217 137.151 19.2671 136.974 19.2142C136.81 19.1365 136.637 19.0712 136.499 18.9604C136.345 18.8691 136.23 18.7406 136.108 18.6223C135.997 18.4963 135.907 18.3562 135.817 18.2217C136.064 18.451 136.306 18.676 136.602 18.8318C136.886 18.9987 137.21 19.1054 137.545 19.1391C137.88 19.1807 138.225 19.1574 138.563 19.0951C138.901 19.0283 139.238 18.9337 139.562 18.8005Z" fill="black"/>
<path d="M147.971 19.1504C147.65 20.2856 146.299 20.9803 144.954 20.7024C143.609 20.4242 142.778 19.2784 143.099 18.1432C143.421 17.008 144.771 16.3133 146.117 16.5912C147.462 16.8692 148.292 18.0149 147.971 19.1504Z" fill="white"/>
<path d="M147.965 18.6309C147.842 19.508 146.979 20.1498 146.035 20.0647C145.092 19.9796 144.426 19.1994 144.549 18.3224C144.671 17.4453 145.535 16.8036 146.478 16.8887C147.422 16.974 148.087 17.7539 147.965 18.6309Z" fill="black" stroke="black" stroke-width="0.169292" stroke-miterlimit="10"/>
<path d="M143.188 17.7863C143.457 17.3168 143.882 16.9126 144.424 16.6362C144.695 16.4974 145.003 16.4105 145.322 16.3747C145.64 16.3506 145.968 16.366 146.275 16.4444C146.88 16.5848 147.444 16.9224 147.801 17.395C147.979 17.6321 148.071 17.9072 148.122 18.1759C148.173 18.4474 148.161 18.7187 148.087 18.9853L148.013 18.9061C148.184 18.9246 148.356 18.9467 148.527 18.9743L148.526 18.9974L148.011 18.9868L147.994 18.9866L147.996 18.9714C148.065 18.4657 147.945 17.9285 147.615 17.5066C147.283 17.0836 146.761 16.8 146.203 16.6619C145.926 16.5845 145.633 16.5658 145.343 16.5809C145.055 16.61 144.773 16.6807 144.51 16.7915C143.991 17.0229 143.545 17.3803 143.211 17.7989L143.188 17.7863Z" fill="black"/>
<path d="M148.014 18.4243L148.602 18.4768L148.052 18.6683L148.014 18.4243Z" fill="black"/>
<path d="M147.918 17.9304L148.49 17.9124L147.996 18.1669L147.918 17.9304Z" fill="black"/>
<path d="M143.301 19.7485C143.447 19.8581 143.592 19.964 143.751 20.0545C143.902 20.152 144.062 20.2384 144.226 20.3142C144.554 20.4649 144.9 20.5814 145.258 20.6284C145.614 20.6847 145.983 20.6639 146.335 20.5765C146.696 20.504 147.022 20.3379 147.36 20.1777C147.218 20.2885 147.075 20.4055 146.915 20.5014C146.746 20.5857 146.581 20.6809 146.392 20.7331C146.212 20.8084 146.012 20.8259 145.816 20.8593C145.618 20.8647 145.417 20.8719 145.22 20.8393C144.827 20.7822 144.453 20.648 144.13 20.4543C143.808 20.262 143.517 20.0288 143.301 19.7485Z" fill="black"/>
<path opacity="0.49" d="M142.071 20.3709C142.007 20.7283 141.589 21.3693 140.659 21.2579C140.015 21.1811 139.598 20.528 139.662 20.1706C139.662 20.1706 140.281 20.0564 140.932 20.0914C141.385 20.1158 142.071 20.3709 142.071 20.3709Z" fill="#7A5FFF"/>
<path d="M139.245 19.8469C139.485 20.0285 139.738 20.1848 140.002 20.3113C140.268 20.4347 140.55 20.5239 140.838 20.5481C141.124 20.5759 141.42 20.5481 141.697 20.4522C141.843 20.4195 141.97 20.3442 142.111 20.2907C142.246 20.2264 142.372 20.1465 142.514 20.0799C142.412 20.1845 142.305 20.291 142.185 20.3851C142.053 20.465 141.933 20.5666 141.778 20.6196C141.49 20.7607 141.142 20.8091 140.809 20.78C140.475 20.7471 140.158 20.6324 139.894 20.4656C139.63 20.2987 139.402 20.0912 139.245 19.8469Z" fill="#3B130E"/>
<path d="M136.414 14.7348C136.475 14.4715 136.644 14.2298 136.871 14.0437C137.094 13.8516 137.377 13.7171 137.672 13.6294C137.972 13.5541 138.283 13.5243 138.585 13.5513C138.736 13.5598 138.884 13.596 139.029 13.6235C139.17 13.6726 139.311 13.7122 139.444 13.7742L139.447 13.7755C139.453 13.7786 139.455 13.7855 139.452 13.7909C139.45 13.7953 139.444 13.7976 139.439 13.7968L139.015 13.7457C138.873 13.7426 138.731 13.7287 138.589 13.7344C138.305 13.7408 138.022 13.7786 137.751 13.8519C137.215 13.9992 136.716 14.307 136.439 14.7448C136.435 14.7505 136.427 14.7526 136.421 14.7492C136.416 14.7466 136.413 14.7415 136.414 14.7369V14.7348Z" fill="#2E2E2E"/>
<path d="M148.393 16.2331C148.23 16.0174 148.04 15.8421 147.849 15.6826C147.652 15.5271 147.444 15.3924 147.218 15.2803C147.103 15.2255 146.989 15.1694 146.865 15.1273C146.748 15.0707 146.618 15.0422 146.493 14.9933L145.685 14.7532L145.681 14.7519C145.674 14.7498 145.67 14.7434 145.672 14.7375C145.675 14.7326 145.68 14.7295 145.685 14.7298L146.115 14.7521C146.256 14.7735 146.4 14.7845 146.539 14.8146C146.82 14.8701 147.093 14.9565 147.348 15.0774C147.844 15.3327 148.256 15.7364 148.419 16.228C148.421 16.2339 148.417 16.2401 148.41 16.2419C148.404 16.2432 148.399 16.2414 148.396 16.2373L148.393 16.2331Z" fill="#2E2E2E"/>
</g>
</svg>
