<svg width="273" height="28" viewBox="0 0 273 28" fill="none" xmlns="http://www.w3.org/2000/svg">
<rect x="2.08398" y="7.8103" width="270" height="12" rx="6" fill="#D5D4FF"/>
<rect x="4.08398" y="9.8103" width="1" height="8" rx="0.5" fill="#957FFF"/>
<path d="M32.6128 20.4205C32.6128 20.4205 34.6535 19.7921 34.9935 17.6893C35.3335 15.5866 32.6575 15.2544 32.6575 15.2544C34.1436 14.3943 33.997 12.6595 33.997 12.6595C34.4114 9.54933 31.7158 9.15799 31.7158 9.15799C31.7158 9.15799 32.8929 8.15779 32.5953 6.66801C32.017 3.77178 28.8085 4.1968 28.8085 4.1968C28.6607 2.71294 27.5546 1.44584 25.9914 1.06118C25.9677 1.05527 25.9441 1.04961 25.9204 1.04421C24.3227 0.667525 22.6281 1.29824 21.6946 2.56535L21.5635 2.74354C21.5264 2.55893 21.4466 2.36557 21.345 2.17607C20.8201 1.19617 19.8244 0.503737 18.6713 0.228357C15.9313 -0.425764 14.3754 1.36253 14.3754 1.36253C13.3911 -0.000479534 10.7107 0.210098 10.7107 0.210098C4.79263 0.877333 5.57307 6.28027 5.57307 6.28027C5.57307 6.28027 3.08807 4.48375 0.873236 7.85849C-1.34189 11.233 1.80906 14.0145 1.80906 14.0145C1.2582 14.1534 0.650964 15.0412 0.650964 15.0412C-1.05769 18.4864 3.81067 19.9767 3.81067 19.9767C1.6084 23.3579 6.5378 23.7199 6.5378 23.7199C6.81177 25.6869 8.70473 24.3095 8.70473 24.3095C8.32094 26.6946 10.4417 25.7766 10.4417 25.7766C10.7519 27.2379 12.2847 25.8587 12.2847 25.8587L12.5683 25.8378C12.5385 26.4393 13.0193 26.9782 13.711 27.0738C14.3214 27.1582 14.8953 26.8684 15.1474 26.4007C15.4363 26.962 16.0692 27.3999 16.8648 27.5099C18.0495 27.6737 19.1459 27.0504 19.3416 26.1137C19.5248 26.4089 19.8516 26.6311 20.2582 26.6871C20.8099 26.7635 21.3301 26.5128 21.5775 26.1011C22.2983 27.9745 24.1195 26.6987 24.1195 26.6987C25.527 27.7974 26.3343 26.3269 26.3343 26.3269C26.3343 26.3269 27.5966 27.4389 29.3036 25.8011C30.2604 24.8829 29.6359 23.1514 29.6359 23.1514C29.6359 23.1514 31.193 24.4658 32.5848 23.2486C34.1237 21.9021 32.6128 20.4205 32.6128 20.4205Z" fill="#7A5FFF" stroke="#7A5FFF" stroke-width="0.168683" stroke-miterlimit="10" stroke-linecap="round"/>
<path d="M3.11969 2.79471C3.49793 2.77183 3.9746 2.79471 3.98512 3.22436C3.9892 3.39458 3.91852 3.58973 3.82038 3.73501C3.76664 3.81446 3.70443 3.89622 3.59723 3.92656C3.39833 3.98287 3.29932 3.79491 3.39395 3.6607C3.59461 3.37657 4.15131 3.41977 4.36978 3.65401C4.58592 3.88542 4.45682 4.27548 4.12502 4.35313C4.15773 4.40275 4.19074 4.45238 4.22345 4.502C4.48398 4.32433 4.8225 4.51975 4.89114 4.76504C4.92823 4.89721 4.90604 5.03862 4.85259 5.16487C4.8152 5.25332 4.75299 5.33329 4.76643 5.43228C4.79154 5.61767 5.03923 5.75882 5.15022 5.90513C5.30619 6.11083 5.40374 6.33915 5.45397 6.58162C5.47734 6.69424 5.67216 6.64641 5.64908 6.53431C5.58979 6.24736 5.46303 5.97609 5.26588 5.74108C5.12831 5.57704 4.95598 5.50401 5.02287 5.26463C5.06025 5.13144 5.11546 5.02217 5.1102 4.88049C5.09326 4.42281 4.53685 4.0649 4.08033 4.37602C3.99651 4.4331 4.0888 4.54597 4.17876 4.52489C4.56664 4.43386 4.77256 4.03867 4.63674 3.71135C4.49012 3.3573 3.98949 3.21433 3.60395 3.32438C3.40943 3.37992 3.21373 3.50539 3.16204 3.68847C3.11764 3.84557 3.19154 4.02582 3.36737 4.09035C3.8528 4.2688 4.13758 3.65504 4.17906 3.33775C4.20856 3.11226 4.14371 2.88239 3.92874 2.74251C3.69888 2.59287 3.39132 2.60084 3.11998 2.61703C2.99059 2.62449 2.98942 2.80242 3.11969 2.79471Z" fill="#7A5FFF"/>
<path d="M35.0381 7.12465C34.6307 6.8917 34.0866 6.73254 33.7819 7.1771C33.5856 7.46379 33.4548 8.07653 33.8701 8.26731C34.0401 8.34548 34.2343 8.29971 34.3436 8.16318C34.4727 8.0017 34.4286 7.79137 34.3123 7.63478C34.081 7.32341 33.5669 7.17505 33.1913 7.37483C32.8198 7.57256 32.7453 8.07086 33.0587 8.33621C33.1472 8.41104 33.2603 8.31693 33.2176 8.22823C32.9837 7.74149 32.2526 7.89294 32.0213 8.29225C31.9555 8.40538 31.9377 8.5198 31.9114 8.64219C31.8671 8.84866 31.636 8.85612 31.4532 8.92786C31.1459 9.04845 30.8807 9.23306 30.6681 9.46165C30.5863 9.54958 30.7285 9.67634 30.8112 9.58763C30.9929 9.39222 31.2102 9.23178 31.4672 9.11839C31.6556 9.03534 31.9795 9.01837 32.0768 8.8281C32.1191 8.74556 32.1065 8.64836 32.127 8.5612C32.1553 8.43958 32.2167 8.31924 32.3166 8.23002C32.5321 8.03744 32.9153 8.0521 33.0433 8.31822C33.0961 8.28222 33.149 8.24622 33.2021 8.21048C32.9804 8.02278 33.0342 7.67207 33.2939 7.52859C33.6128 7.35246 34.14 7.54273 34.2113 7.87339C34.2349 7.98396 34.1905 8.15906 34.0027 8.12383C33.8435 8.09401 33.812 7.91685 33.8085 7.80217C33.8041 7.65689 33.8377 7.50237 33.9005 7.36815C33.9747 7.2095 34.1052 7.07297 34.3132 7.05934C34.5401 7.04468 34.7554 7.17453 34.9368 7.27815C35.0454 7.34089 35.1471 7.18688 35.0381 7.12465Z" fill="#7A5FFF"/>
<path d="M6.82227 15.8773C6.82227 15.8773 6.81905 6.92245 16.6197 7.6825C25.9096 8.40296 24.1638 19.4294 21.7107 20.5397L21.5468 20.822C21.5468 20.822 23.0536 14.3279 19.7827 11.0832C17.6511 8.96889 14.0661 8.68888 11.4552 10.3347C10.095 11.1922 8.09777 13.5066 6.82227 15.8773Z" fill="white" stroke="white" stroke-width="0.153832" stroke-miterlimit="10"/>
<mask id="mask0_516_8960" style="mask-type:luminance" maskUnits="userSpaceOnUse" x="6" y="11" width="20" height="15">
<path d="M25.0139 19.5279C24.5471 19.0908 23.8821 19.1118 23.2889 19.3163C22.9866 19.4204 22.7035 19.5644 22.4319 19.7197C22.2689 19.8128 21.9444 20.1519 21.7455 20.1151C21.6082 20.0899 21.5869 19.8904 21.5449 19.7953C21.176 18.9604 20.3815 18.1857 19.7448 17.4994C19.0304 16.7299 18.2677 15.9965 17.508 15.2622C16.2118 14.0092 15.0195 12.6321 14.2239 11.0801C13.9757 11.2763 13.4771 11.6717 13.3743 11.7658C12.3824 12.6745 11.3017 13.5217 10.1366 14.2553C9.59623 14.5955 9.0337 14.9122 8.43435 15.1658C7.90102 15.3915 7.32065 15.5787 6.72189 15.5838C6.7181 15.5838 6.71547 15.5823 6.71167 15.5821C6.57556 15.9636 6.46896 16.3573 6.39594 16.7617C5.527 21.5705 8.32979 24.8832 13.3775 25.5811C16.357 25.993 19.2261 24.92 21.0881 22.9682C21.8139 23.6161 23.2398 23.412 24.3143 22.492C25.4114 21.5532 25.8104 20.2743 25.0139 19.5279Z" fill="white"/>
</mask>
<g mask="url(#mask0_516_8960)">
<path d="M25.0139 19.5296C24.5471 19.0925 23.8821 19.1136 23.2889 19.318C22.9866 19.4221 22.7035 19.5661 22.4319 19.7214C22.2689 19.8145 21.9444 20.1536 21.7455 20.1168C21.6082 20.0916 21.5869 19.8921 21.5449 19.797C21.176 18.9621 20.3815 18.1874 19.7448 17.5011C19.0304 16.7316 18.2677 15.9982 17.508 15.2639C16.2118 14.0109 15.0195 12.6338 14.2239 11.0818C13.9757 11.278 13.4771 11.6734 13.3743 11.7675C12.3824 12.6762 11.3017 13.5234 10.1366 14.257C9.59623 14.5972 9.0337 14.914 8.43435 15.1675C7.90102 15.3932 7.32065 15.5804 6.72189 15.5856C6.7181 15.5856 6.71547 15.584 6.71167 15.5838C6.57556 15.9653 6.46896 16.359 6.39594 16.7634C5.527 21.5722 8.32979 24.8849 13.3775 25.5828C16.357 25.9947 19.2261 24.9217 21.0881 22.9699C21.8139 23.6178 23.2398 23.4137 24.3143 22.4937C25.4114 21.5549 25.8104 20.276 25.0139 19.5296Z" fill="white" stroke="white" stroke-width="0.1584" stroke-miterlimit="10"/>
</g>
<mask id="mask1_516_8960" style="mask-type:luminance" maskUnits="userSpaceOnUse" x="6" y="11" width="20" height="15">
<path d="M25.0139 19.5279C24.5471 19.0908 23.8821 19.1118 23.2889 19.3163C22.9866 19.4204 22.7035 19.5644 22.4319 19.7197C22.2689 19.8128 21.9444 20.1519 21.7455 20.1151C21.6082 20.0899 21.5869 19.8904 21.5449 19.7953C21.176 18.9604 20.3815 18.1857 19.7448 17.4994C19.0304 16.7299 18.2677 15.9965 17.508 15.2622C16.2118 14.0092 15.0195 12.6321 14.2239 11.0801C13.9757 11.2763 13.4771 11.6717 13.3743 11.7658C12.3824 12.6745 11.3017 13.5217 10.1366 14.2553C9.59623 14.5955 9.0337 14.9122 8.43435 15.1658C7.90102 15.3915 7.32065 15.5787 6.72189 15.5838C6.7181 15.5838 6.71547 15.5823 6.71167 15.5821C6.57556 15.9636 6.46896 16.3573 6.39594 16.7617C5.527 21.5705 8.32979 24.8832 13.3775 25.5811C16.357 25.993 19.2261 24.92 21.0881 22.9682C21.8139 23.6161 23.2398 23.412 24.3143 22.492C25.4114 21.5532 25.8104 20.2743 25.0139 19.5279Z" fill="white"/>
</mask>
<g mask="url(#mask1_516_8960)">
<path d="M22.4443 20.4252C22.7969 20.1454 23.2043 19.9024 23.6912 19.7906C23.9316 19.7361 24.2108 19.7242 24.4696 19.8276C24.726 19.9371 24.9092 20.1387 24.9743 20.3889C25.0275 20.6414 24.9369 20.8741 24.8268 21.0705C24.7085 21.267 24.5642 21.4426 24.4018 21.6012C24.0797 21.9201 23.7044 22.1862 23.3001 22.4078C23.631 22.1075 23.9442 21.7972 24.2213 21.4724C24.3545 21.3071 24.4839 21.1405 24.573 20.9626C24.6638 20.7882 24.7234 20.6008 24.6828 20.4396C24.6507 20.2843 24.5125 20.1236 24.3461 20.0495C24.1758 19.9672 23.9555 19.9631 23.7374 19.9901C23.2975 20.0557 22.8605 20.228 22.4443 20.4252Z" fill="#1C1C1C"/>
<path d="M21.0674 22.9849C21.1763 22.8556 21.2584 22.7116 21.3364 22.5679C21.4129 22.4231 21.481 22.2745 21.5391 22.1231C21.6626 21.8222 21.7523 21.5114 21.842 21.199C21.8204 21.3589 21.7914 21.5183 21.7506 21.6759C21.7085 21.833 21.6591 21.9889 21.599 22.1416C21.4725 22.4434 21.3194 22.7476 21.0674 22.9849Z" fill="#1C1C1C"/>
<path d="M14.1979 10.7734C13.8751 10.902 13.5708 11.1 13.4326 11.397C13.317 11.6453 13.3286 11.959 13.5407 12.1663C13.7241 12.3455 14.0743 12.428 14.2797 12.2293C14.4368 12.077 14.4403 11.8112 14.2212 11.7029C13.9417 11.5649 13.5407 11.688 13.3208 11.8623C13.0816 12.0521 12.9767 12.3578 13.0465 12.6335C13.1096 12.8829 13.3652 13.1187 13.6759 13.0297C13.928 12.9577 14.013 12.6443 13.7501 12.5322C13.4493 12.4039 13.1035 12.6067 12.9787 12.8474C12.812 13.1685 12.9986 13.5228 13.2396 13.7694C13.3199 13.8517 13.4545 13.7322 13.3748 13.6504C13.2019 13.4735 13.0518 13.2264 13.1242 12.986C13.1557 12.8816 13.2331 12.7862 13.3354 12.726C13.4028 12.6864 13.7513 12.581 13.7215 12.7762C13.6981 12.9289 13.4469 12.8811 13.3663 12.816C13.2623 12.7319 13.2209 12.599 13.2165 12.4784C13.208 12.2437 13.3485 12.0195 13.5807 11.9037C13.7297 11.8294 14.2484 11.7181 14.2011 12.002C14.1541 12.2848 13.7589 12.1673 13.6371 11.9999C13.3035 11.5407 13.8634 11.0905 14.2951 10.9185C14.4064 10.8742 14.3094 10.7292 14.1979 10.7734Z" fill="#1A0000"/>
<path d="M10.9434 19.2926C11.0216 19.0903 11.1618 18.8992 11.3648 18.7606C11.5637 18.6202 11.8383 18.5413 12.1009 18.5709C12.2303 18.5837 12.3617 18.6161 12.48 18.6742C12.5948 18.7375 12.695 18.8218 12.761 18.9226C12.8974 19.1227 12.9196 19.3551 12.8781 19.5649C12.8407 19.3551 12.7621 19.1538 12.6287 19.0016C12.4952 18.8483 12.2983 18.7665 12.0798 18.7503C11.8643 18.7236 11.6484 18.7768 11.4557 18.8761C11.2638 18.9784 11.0909 19.1234 10.9434 19.2926Z" fill="#7A5FFF"/>
<g opacity="0.53">
<path d="M10.957 19.2893C10.957 19.2893 11.413 18.5287 12.2436 18.7139C12.9569 18.8728 12.8786 19.6256 12.8786 19.6256" fill="#7A5FFF"/>
<path d="M10.957 19.2908C11.0438 19.0912 11.1924 18.9051 11.401 18.7732C11.6057 18.6397 11.8835 18.5698 12.1446 18.6081C12.2734 18.6253 12.4031 18.6618 12.5191 18.724C12.6312 18.7909 12.7276 18.8788 12.7892 18.9814C12.9172 19.1858 12.9291 19.4191 12.8786 19.6271C12.8503 19.4162 12.7805 19.2123 12.6534 19.056C12.5267 18.8984 12.3333 18.8102 12.1157 18.7865C11.9016 18.7526 11.6834 18.7986 11.4866 18.8914C11.2906 18.9876 11.1115 19.1267 10.957 19.2908Z" fill="#7A5FFF"/>
</g>
<path d="M6.73857 17.2046C6.66292 18.3015 7.6189 19.2433 8.87367 19.3079C10.1284 19.3724 11.2068 18.5357 11.2821 17.4388C11.3578 16.3419 10.4018 15.4001 9.14705 15.3356C7.89257 15.2708 6.81422 16.1077 6.73857 17.2046Z" fill="white"/>
<path d="M7.84665 16.8293C7.67666 17.6611 8.24037 18.4551 9.10609 18.6029C9.97181 18.7508 10.8112 18.1962 10.9815 17.3646C11.1518 16.5331 10.5878 15.7389 9.72208 15.591C8.85636 15.4432 8.01664 15.9975 7.84665 16.8293Z" fill="black" stroke="black" stroke-width="0.159654" stroke-miterlimit="10"/>
<path d="M11.3385 17.0332C11.2194 16.8142 11.0862 16.6031 10.9249 16.4133C10.769 16.2215 10.599 16.0415 10.4007 15.8947C10.1988 15.7525 9.98183 15.6378 9.75196 15.5566C9.51655 15.4884 9.27383 15.4437 9.02235 15.4493C8.51122 15.4481 8.00884 15.5743 7.61278 15.8422C7.20154 16.1004 6.9299 16.5251 6.76926 16.9679L6.74239 17.0422L6.67901 17.0209C6.52888 16.9705 6.37992 16.9167 6.23242 16.8581L6.23914 16.837L6.70179 16.9481L6.68427 16.9584C6.78153 16.4789 7.04557 16.0155 7.47492 15.6988C7.90106 15.3809 8.46828 15.2269 9.02235 15.2341C9.30158 15.2331 9.57876 15.2825 9.83842 15.3719C10.0937 15.4707 10.3277 15.6085 10.5292 15.7777C10.9229 16.1243 11.2013 16.5617 11.3628 17.0283L11.3385 17.0332Z" fill="black"/>
<path d="M6.7612 16.6702L6.33301 16.365L6.87306 16.4599L6.7612 16.6702Z" fill="black"/>
<path d="M6.97733 16.2261L6.62012 15.8772L7.12366 16.0328L6.97733 16.2261Z" fill="black"/>
<path d="M10.6471 18.8005C10.369 19.0005 10.0422 19.1502 9.69403 19.2468C9.34616 19.3445 8.96997 19.381 8.59991 19.3389C8.41356 19.3217 8.23568 19.2671 8.05927 19.2142C7.89453 19.1365 7.72221 19.0712 7.58376 18.9604C7.42955 18.8691 7.31476 18.7406 7.19325 18.6223C7.08197 18.4963 6.9923 18.3562 6.90234 18.2217C7.14944 18.451 7.39128 18.676 7.68687 18.8318C7.97135 18.9987 8.29468 19.1054 8.63028 19.1391C8.96471 19.1807 9.30965 19.1574 9.64817 19.0951C9.98581 19.0283 10.3229 18.9337 10.6471 18.8005Z" fill="black"/>
<path d="M19.0563 19.1504C18.7351 20.2856 17.3842 20.9803 16.0389 20.7024C14.6936 20.4242 13.8632 19.2784 14.1842 18.1432C14.5055 17.008 15.8563 16.3133 17.2019 16.5912C18.5472 16.8692 19.3773 18.0149 19.0563 19.1504Z" fill="white"/>
<path d="M19.0498 18.6309C18.9274 19.508 18.0637 20.1498 17.1203 20.0647C16.1769 19.9796 15.5113 19.1994 15.6336 18.3224C15.756 17.4453 16.6197 16.8036 17.5631 16.8887C18.5065 16.974 19.1722 17.7539 19.0498 18.6309Z" fill="black" stroke="black" stroke-width="0.169292" stroke-miterlimit="10"/>
<path d="M14.2734 17.7863C14.5421 17.3168 14.9674 16.9126 15.5086 16.6362C15.7797 16.4974 16.0878 16.4105 16.4065 16.3747C16.7254 16.3506 17.0528 16.366 17.3598 16.4444C17.9653 16.5848 18.5293 16.9224 18.8862 17.395C19.0638 17.6321 19.1564 17.9072 19.2066 18.1759C19.258 18.4474 19.2461 18.7187 19.1716 18.9853L19.098 18.9061C19.2694 18.9246 19.4409 18.9467 19.612 18.9743L19.6115 18.9974L19.0957 18.9868L19.0793 18.9866L19.0813 18.9714C19.1503 18.4657 19.0302 17.9285 18.6996 17.5066C18.3684 17.0836 17.8458 16.8 17.2883 16.6619C17.0108 16.5845 16.7175 16.5658 16.4284 16.5809C16.1401 16.61 15.858 16.6807 15.5951 16.7915C15.0755 17.0229 14.6301 17.3803 14.2956 17.7989L14.2734 17.7863Z" fill="black"/>
<path d="M19.0986 18.4243L19.6875 18.4768L19.1372 18.6683L19.0986 18.4243Z" fill="black"/>
<path d="M19.0029 17.9304L19.5748 17.9124L19.0809 18.1669L19.0029 17.9304Z" fill="black"/>
<path d="M14.3857 19.7485C14.5315 19.8581 14.6772 19.964 14.8355 20.0545C14.9868 20.152 15.1466 20.2384 15.3108 20.3142C15.639 20.4649 15.9846 20.5814 16.3427 20.6284C16.6993 20.6847 17.0676 20.6639 17.4201 20.5765C17.7809 20.504 18.1068 20.3379 18.4448 20.1777C18.3028 20.2885 18.1597 20.4055 17.9996 20.5014C17.8314 20.5857 17.6661 20.6809 17.4771 20.7331C17.2966 20.8084 17.0968 20.8259 16.9011 20.8593C16.7025 20.8647 16.5016 20.8719 16.305 20.8393C15.9121 20.7822 15.538 20.648 15.215 20.4543C14.8925 20.262 14.6022 20.0288 14.3857 19.7485Z" fill="black"/>
<path opacity="0.49" d="M13.1558 20.3709C13.0915 20.7283 12.6736 21.3693 11.7436 21.2579C11.1004 21.1811 10.6825 20.528 10.7467 20.1706C10.7467 20.1706 11.3659 20.0564 12.0173 20.0914C12.47 20.1158 13.1558 20.3709 13.1558 20.3709Z" fill="#7A5FFF"/>
<path d="M10.3301 19.8469C10.5702 20.0285 10.8231 20.1848 11.0874 20.3113C11.3532 20.4347 11.6345 20.5239 11.9225 20.5481C12.2087 20.5759 12.5046 20.5481 12.7821 20.4522C12.9278 20.4195 13.0549 20.3442 13.1962 20.2907C13.3312 20.2264 13.4568 20.1465 13.599 20.0799C13.4965 20.1845 13.3899 20.291 13.2698 20.3851C13.1384 20.465 13.0175 20.5666 12.8633 20.6196C12.575 20.7607 12.2265 20.8091 11.8942 20.78C11.56 20.7471 11.2434 20.6324 10.9791 20.4656C10.7147 20.2987 10.4866 20.0912 10.3301 19.8469Z" fill="#3B130E"/>
<path d="M7.49932 14.7348C7.56007 14.4715 7.7286 14.2298 7.95554 14.0437C8.17898 13.8516 8.46172 13.7171 8.75701 13.6294C9.05697 13.5541 9.36774 13.5243 9.67034 13.5513C9.82134 13.5598 9.96854 13.596 10.1137 13.6235C10.2554 13.6726 10.3961 13.7122 10.5288 13.7742L10.5317 13.7755C10.5381 13.7786 10.5404 13.7855 10.5372 13.7909C10.5346 13.7953 10.529 13.7976 10.5238 13.7968L10.1003 13.7457C9.95803 13.7426 9.81579 13.7287 9.67384 13.7344C9.38965 13.7408 9.10691 13.7786 8.83645 13.8519C8.2999 13.9992 7.80133 14.307 7.52356 14.7448C7.52005 14.7505 7.51187 14.7526 7.50574 14.7492C7.50048 14.7466 7.49815 14.7415 7.49932 14.7369V14.7348Z" fill="#2E2E2E"/>
<path d="M19.4781 16.2331C19.3154 16.0174 19.125 15.8421 18.9337 15.6826C18.7371 15.5271 18.5292 15.3924 18.3025 15.2803C18.188 15.2255 18.0741 15.1694 17.9503 15.1273C17.8331 15.0707 17.7029 15.0422 17.5779 14.9933L16.77 14.7532L16.7656 14.7519C16.7589 14.7498 16.7554 14.7434 16.7574 14.7375C16.7595 14.7326 16.7647 14.7295 16.7703 14.7298L17.1996 14.7521C17.341 14.7735 17.4847 14.7845 17.6243 14.8146C17.905 14.8701 18.1778 14.9565 18.4325 15.0774C18.9287 15.3327 19.3411 15.7364 19.5035 16.228C19.5056 16.2339 19.5015 16.2401 19.4948 16.2419C19.4892 16.2432 19.4837 16.2414 19.4807 16.2373L19.4781 16.2331Z" fill="#2E2E2E"/>
</g>
</svg>
