<svg width="270" height="28" viewBox="0 0 270 28" fill="none" xmlns="http://www.w3.org/2000/svg">
<rect y="7.8103" width="270" height="12" rx="6" fill="#D5D4FF"/>
<rect x="2" y="9.8103" width="158.999" height="8" rx="4" fill="#957FFF"/>
<path d="M188.528 20.4205C188.528 20.4205 190.569 19.7921 190.909 17.6893C191.249 15.5866 188.573 15.2544 188.573 15.2544C190.059 14.3943 189.912 12.6595 189.912 12.6595C190.326 9.54933 187.631 9.15799 187.631 9.15799C187.631 9.15799 188.808 8.15779 188.51 6.66801C187.932 3.77178 184.724 4.1968 184.724 4.1968C184.576 2.71294 183.47 1.44584 181.906 1.06118C181.883 1.05527 181.859 1.04961 181.835 1.04421C180.238 0.667525 178.543 1.29824 177.61 2.56535L177.479 2.74354C177.441 2.55893 177.362 2.36557 177.26 2.17607C176.735 1.19617 175.739 0.503737 174.586 0.228357C171.846 -0.425764 170.29 1.36253 170.29 1.36253C169.306 -0.000479534 166.626 0.210098 166.626 0.210098C160.708 0.877333 161.488 6.28027 161.488 6.28027C161.488 6.28027 159.003 4.48375 156.788 7.85849C154.573 11.233 157.724 14.0145 157.724 14.0145C157.173 14.1534 156.566 15.0412 156.566 15.0412C154.857 18.4864 159.726 19.9767 159.726 19.9767C157.523 23.3579 162.453 23.7199 162.453 23.7199C162.727 25.6869 164.62 24.3095 164.62 24.3095C164.236 26.6946 166.357 25.7766 166.357 25.7766C166.667 27.2379 168.2 25.8587 168.2 25.8587L168.483 25.8378C168.454 26.4393 168.934 26.9782 169.626 27.0738C170.236 27.1582 170.81 26.8684 171.062 26.4007C171.351 26.962 171.984 27.3999 172.78 27.5099C173.965 27.6737 175.061 27.0504 175.257 26.1137C175.44 26.4089 175.767 26.6311 176.173 26.6871C176.725 26.7635 177.245 26.5128 177.493 26.1011C178.213 27.9745 180.034 26.6987 180.034 26.6987C181.442 27.7974 182.249 26.3269 182.249 26.3269C182.249 26.3269 183.512 27.4389 185.219 25.8011C186.175 24.8829 185.551 23.1514 185.551 23.1514C185.551 23.1514 187.108 24.4658 188.5 23.2486C190.039 21.9021 188.528 20.4205 188.528 20.4205Z" fill="#7A5FFF" stroke="#7A5FFF" stroke-width="0.168683" stroke-miterlimit="10" stroke-linecap="round"/>
<path d="M159.035 2.79471C159.413 2.77183 159.89 2.79471 159.9 3.22436C159.904 3.39458 159.834 3.58973 159.735 3.73501C159.682 3.81446 159.619 3.89622 159.512 3.92656C159.313 3.98287 159.214 3.79491 159.309 3.6607C159.51 3.37657 160.066 3.41977 160.285 3.65401C160.501 3.88542 160.372 4.27548 160.04 4.35313C160.073 4.40275 160.106 4.45238 160.138 4.502C160.399 4.32433 160.738 4.51975 160.806 4.76504C160.843 4.89721 160.821 5.03862 160.768 5.16487C160.73 5.25332 160.668 5.33329 160.681 5.43228C160.707 5.61767 160.954 5.75882 161.065 5.90513C161.221 6.11083 161.319 6.33915 161.369 6.58162C161.392 6.69424 161.587 6.64641 161.564 6.53431C161.505 6.24736 161.378 5.97609 161.181 5.74108C161.043 5.57704 160.871 5.50401 160.938 5.26463C160.975 5.13144 161.03 5.02217 161.025 4.88049C161.008 4.42281 160.452 4.0649 159.995 4.37602C159.912 4.4331 160.004 4.54597 160.094 4.52489C160.482 4.43386 160.688 4.03867 160.552 3.71135C160.405 3.3573 159.905 3.21433 159.519 3.32438C159.324 3.37992 159.129 3.50539 159.077 3.68847C159.033 3.84557 159.107 4.02582 159.282 4.09035C159.768 4.2688 160.053 3.65504 160.094 3.33775C160.124 3.11226 160.059 2.88239 159.844 2.74251C159.614 2.59287 159.306 2.60084 159.035 2.61703C158.906 2.62449 158.904 2.80242 159.035 2.79471Z" fill="#7A5FFF"/>
<path d="M190.953 7.12465C190.546 6.8917 190.002 6.73254 189.697 7.1771C189.501 7.46379 189.37 8.07653 189.785 8.26731C189.955 8.34548 190.149 8.29971 190.259 8.16318C190.388 8.0017 190.344 7.79137 190.227 7.63478C189.996 7.32341 189.482 7.17505 189.106 7.37483C188.735 7.57256 188.66 8.07086 188.974 8.33621C189.062 8.41104 189.175 8.31693 189.133 8.22823C188.899 7.74149 188.168 7.89294 187.936 8.29225C187.871 8.40538 187.853 8.5198 187.826 8.64219C187.782 8.84866 187.551 8.85612 187.368 8.92786C187.061 9.04845 186.796 9.23306 186.583 9.46165C186.501 9.54958 186.644 9.67634 186.726 9.58763C186.908 9.39222 187.125 9.23178 187.382 9.11839C187.571 9.03534 187.895 9.01837 187.992 8.8281C188.034 8.74556 188.022 8.64836 188.042 8.5612C188.07 8.43958 188.132 8.31924 188.232 8.23002C188.447 8.03744 188.83 8.0521 188.958 8.31822C189.011 8.28222 189.064 8.24622 189.117 8.21048C188.895 8.02278 188.949 7.67207 189.209 7.52859C189.528 7.35246 190.055 7.54273 190.126 7.87339C190.15 7.98396 190.106 8.15906 189.918 8.12383C189.759 8.09401 189.727 7.91685 189.724 7.80217C189.719 7.65689 189.753 7.50237 189.816 7.36815C189.89 7.2095 190.02 7.07297 190.228 7.05934C190.455 7.04468 190.67 7.17453 190.852 7.27815C190.96 7.34089 191.062 7.18688 190.953 7.12465Z" fill="#7A5FFF"/>
<path d="M162.737 15.8773C162.737 15.8773 162.734 6.92245 172.535 7.6825C181.825 8.40296 180.079 19.4294 177.626 20.5397L177.462 20.822C177.462 20.822 178.969 14.3279 175.698 11.0832C173.566 8.96889 169.981 8.68888 167.37 10.3347C166.01 11.1922 164.013 13.5066 162.737 15.8773Z" fill="white" stroke="white" stroke-width="0.153832" stroke-miterlimit="10"/>
<mask id="mask0_516_9466" style="mask-type:luminance" maskUnits="userSpaceOnUse" x="162" y="11" width="20" height="15">
<path d="M180.929 19.5279C180.462 19.0908 179.797 19.1118 179.204 19.3163C178.902 19.4204 178.619 19.5644 178.347 19.7197C178.184 19.8128 177.859 20.1519 177.661 20.1151C177.523 20.0899 177.502 19.8904 177.46 19.7953C177.091 18.9604 176.297 18.1857 175.66 17.4994C174.945 16.7299 174.183 15.9965 173.423 15.2622C172.127 14.0092 170.935 12.6321 170.139 11.0801C169.891 11.2763 169.392 11.6717 169.289 11.7658C168.297 12.6745 167.217 13.5217 166.052 14.2553C165.511 14.5955 164.949 14.9122 164.349 15.1658C163.816 15.3915 163.236 15.5787 162.637 15.5838C162.633 15.5838 162.631 15.5823 162.627 15.5821C162.491 15.9636 162.384 16.3573 162.311 16.7617C161.442 21.5705 164.245 24.8832 169.293 25.5811C172.272 25.993 175.141 24.92 177.003 22.9682C177.729 23.6161 179.155 23.412 180.229 22.492C181.326 21.5532 181.725 20.2743 180.929 19.5279Z" fill="white"/>
</mask>
<g mask="url(#mask0_516_9466)">
<path d="M180.929 19.5296C180.462 19.0925 179.797 19.1136 179.204 19.318C178.902 19.4221 178.619 19.5661 178.347 19.7214C178.184 19.8145 177.859 20.1536 177.661 20.1168C177.523 20.0916 177.502 19.8921 177.46 19.797C177.091 18.9621 176.297 18.1874 175.66 17.5011C174.945 16.7316 174.183 15.9982 173.423 15.2639C172.127 14.0109 170.935 12.6338 170.139 11.0818C169.891 11.278 169.392 11.6734 169.289 11.7675C168.297 12.6762 167.217 13.5234 166.052 14.257C165.511 14.5972 164.949 14.914 164.349 15.1675C163.816 15.3932 163.236 15.5804 162.637 15.5856C162.633 15.5856 162.631 15.584 162.627 15.5838C162.491 15.9653 162.384 16.359 162.311 16.7634C161.442 21.5722 164.245 24.8849 169.293 25.5828C172.272 25.9947 175.141 24.9217 177.003 22.9699C177.729 23.6178 179.155 23.4137 180.229 22.4937C181.326 21.5549 181.725 20.276 180.929 19.5296Z" fill="white" stroke="white" stroke-width="0.1584" stroke-miterlimit="10"/>
</g>
<mask id="mask1_516_9466" style="mask-type:luminance" maskUnits="userSpaceOnUse" x="162" y="11" width="20" height="15">
<path d="M180.929 19.5279C180.462 19.0908 179.797 19.1118 179.204 19.3163C178.902 19.4204 178.619 19.5644 178.347 19.7197C178.184 19.8128 177.859 20.1519 177.661 20.1151C177.523 20.0899 177.502 19.8904 177.46 19.7953C177.091 18.9604 176.297 18.1857 175.66 17.4994C174.945 16.7299 174.183 15.9965 173.423 15.2622C172.127 14.0092 170.935 12.6321 170.139 11.0801C169.891 11.2763 169.392 11.6717 169.289 11.7658C168.297 12.6745 167.217 13.5217 166.052 14.2553C165.511 14.5955 164.949 14.9122 164.349 15.1658C163.816 15.3915 163.236 15.5787 162.637 15.5838C162.633 15.5838 162.631 15.5823 162.627 15.5821C162.491 15.9636 162.384 16.3573 162.311 16.7617C161.442 21.5705 164.245 24.8832 169.293 25.5811C172.272 25.993 175.141 24.92 177.003 22.9682C177.729 23.6161 179.155 23.412 180.229 22.492C181.326 21.5532 181.725 20.2743 180.929 19.5279Z" fill="white"/>
</mask>
<g mask="url(#mask1_516_9466)">
<path d="M178.359 20.4252C178.712 20.1454 179.119 19.9024 179.606 19.7906C179.847 19.7361 180.126 19.7242 180.385 19.8276C180.641 19.9371 180.824 20.1387 180.889 20.3889C180.943 20.6414 180.852 20.8741 180.742 21.0705C180.624 21.267 180.479 21.4426 180.317 21.6012C179.995 21.9201 179.619 22.1862 179.215 22.4078C179.546 22.1075 179.859 21.7972 180.136 21.4724C180.27 21.3071 180.399 21.1405 180.488 20.9626C180.579 20.7882 180.638 20.6008 180.598 20.4396C180.566 20.2843 180.428 20.1236 180.261 20.0495C180.091 19.9672 179.871 19.9631 179.652 19.9901C179.213 20.0557 178.776 20.228 178.359 20.4252Z" fill="#1C1C1C"/>
<path d="M176.982 22.9849C177.091 22.8556 177.173 22.7116 177.251 22.5679C177.328 22.4231 177.396 22.2745 177.454 22.1231C177.578 21.8222 177.667 21.5114 177.757 21.199C177.735 21.3589 177.706 21.5183 177.666 21.6759C177.624 21.833 177.574 21.9889 177.514 22.1416C177.388 22.4434 177.234 22.7476 176.982 22.9849Z" fill="#1C1C1C"/>
<path d="M170.113 10.7734C169.79 10.902 169.486 11.1 169.348 11.397C169.232 11.6453 169.244 11.959 169.456 12.1663C169.639 12.3455 169.989 12.428 170.195 12.2293C170.352 12.077 170.355 11.8112 170.136 11.7029C169.857 11.5649 169.456 11.688 169.236 11.8623C168.997 12.0521 168.892 12.3578 168.962 12.6335C169.025 12.8829 169.28 13.1187 169.591 13.0297C169.843 12.9577 169.928 12.6443 169.665 12.5322C169.364 12.4039 169.018 12.6067 168.894 12.8474C168.727 13.1685 168.914 13.5228 169.155 13.7694C169.235 13.8517 169.37 13.7322 169.29 13.6504C169.117 13.4735 168.967 13.2264 169.039 12.986C169.071 12.8816 169.148 12.7862 169.25 12.726C169.318 12.6864 169.666 12.581 169.637 12.7762C169.613 12.9289 169.362 12.8811 169.281 12.816C169.177 12.7319 169.136 12.599 169.132 12.4784C169.123 12.2437 169.264 12.0195 169.496 11.9037C169.645 11.8294 170.163 11.7181 170.116 12.002C170.069 12.2848 169.674 12.1673 169.552 11.9999C169.219 11.5407 169.778 11.0905 170.21 10.9185C170.321 10.8742 170.224 10.7292 170.113 10.7734Z" fill="#1A0000"/>
<path d="M166.858 19.2926C166.937 19.0903 167.077 18.8992 167.28 18.7606C167.479 18.6202 167.753 18.5413 168.016 18.5709C168.145 18.5837 168.277 18.6161 168.395 18.6742C168.51 18.7375 168.61 18.8218 168.676 18.9226C168.812 19.1227 168.835 19.3551 168.793 19.5649C168.756 19.3551 168.677 19.1538 168.544 19.0016C168.41 18.8483 168.213 18.7665 167.995 18.7503C167.779 18.7236 167.563 18.7768 167.371 18.8761C167.179 18.9784 167.006 19.1234 166.858 19.2926Z" fill="#7A5FFF"/>
<g opacity="0.53">
<path d="M166.872 19.2893C166.872 19.2893 167.328 18.5287 168.159 18.7139C168.872 18.8728 168.794 19.6256 168.794 19.6256" fill="#7A5FFF"/>
<path d="M166.872 19.2908C166.959 19.0912 167.107 18.9051 167.316 18.7732C167.521 18.6397 167.799 18.5698 168.06 18.6081C168.188 18.6253 168.318 18.6618 168.434 18.724C168.546 18.7909 168.643 18.8788 168.704 18.9814C168.832 19.1858 168.844 19.4191 168.794 19.6271C168.765 19.4162 168.696 19.2123 168.568 19.056C168.442 18.8984 168.248 18.8102 168.031 18.7865C167.817 18.7526 167.598 18.7986 167.402 18.8914C167.206 18.9876 167.027 19.1267 166.872 19.2908Z" fill="#7A5FFF"/>
</g>
<path d="M162.654 17.2046C162.578 18.3015 163.534 19.2433 164.789 19.3079C166.043 19.3724 167.122 18.5357 167.197 17.4388C167.273 16.3419 166.317 15.4001 165.062 15.3356C163.808 15.2708 162.729 16.1077 162.654 17.2046Z" fill="white"/>
<path d="M163.762 16.8293C163.592 17.6611 164.155 18.4551 165.021 18.6029C165.887 18.7508 166.726 18.1962 166.897 17.3646C167.067 16.5331 166.503 15.7389 165.637 15.591C164.771 15.4432 163.932 15.9975 163.762 16.8293Z" fill="black" stroke="black" stroke-width="0.159654" stroke-miterlimit="10"/>
<path d="M167.254 17.0332C167.134 16.8142 167.001 16.6031 166.84 16.4133C166.684 16.2215 166.514 16.0415 166.316 15.8947C166.114 15.7525 165.897 15.6378 165.667 15.5566C165.432 15.4884 165.189 15.4437 164.937 15.4493C164.426 15.4481 163.924 15.5743 163.528 15.8422C163.117 16.1004 162.845 16.5251 162.684 16.9679L162.657 17.0422L162.594 17.0209C162.444 16.9705 162.295 16.9167 162.147 16.8581L162.154 16.837L162.617 16.9481L162.599 16.9584C162.697 16.4789 162.961 16.0155 163.39 15.6988C163.816 15.3809 164.383 15.2269 164.937 15.2341C165.217 15.2331 165.494 15.2825 165.753 15.3719C166.009 15.4707 166.243 15.6085 166.444 15.7777C166.838 16.1243 167.116 16.5617 167.278 17.0283L167.254 17.0332Z" fill="black"/>
<path d="M162.676 16.6702L162.248 16.365L162.788 16.4599L162.676 16.6702Z" fill="black"/>
<path d="M162.892 16.2261L162.535 15.8772L163.039 16.0328L162.892 16.2261Z" fill="black"/>
<path d="M166.562 18.8005C166.284 19.0005 165.957 19.1502 165.609 19.2468C165.261 19.3445 164.885 19.381 164.515 19.3389C164.329 19.3217 164.151 19.2671 163.974 19.2142C163.81 19.1365 163.637 19.0712 163.499 18.9604C163.345 18.8691 163.23 18.7406 163.108 18.6223C162.997 18.4963 162.907 18.3562 162.817 18.2217C163.064 18.451 163.306 18.676 163.602 18.8318C163.886 18.9987 164.21 19.1054 164.545 19.1391C164.88 19.1807 165.225 19.1574 165.563 19.0951C165.901 19.0283 166.238 18.9337 166.562 18.8005Z" fill="black"/>
<path d="M174.971 19.1504C174.65 20.2856 173.299 20.9803 171.954 20.7024C170.609 20.4242 169.778 19.2784 170.099 18.1432C170.421 17.008 171.771 16.3133 173.117 16.5912C174.462 16.8692 175.292 18.0149 174.971 19.1504Z" fill="white"/>
<path d="M174.965 18.6309C174.842 19.508 173.979 20.1498 173.035 20.0647C172.092 19.9796 171.426 19.1994 171.549 18.3224C171.671 17.4453 172.535 16.8036 173.478 16.8887C174.422 16.974 175.087 17.7539 174.965 18.6309Z" fill="black" stroke="black" stroke-width="0.169292" stroke-miterlimit="10"/>
<path d="M170.188 17.7863C170.457 17.3168 170.882 16.9126 171.424 16.6362C171.695 16.4974 172.003 16.4105 172.322 16.3747C172.64 16.3506 172.968 16.366 173.275 16.4444C173.88 16.5848 174.444 16.9224 174.801 17.395C174.979 17.6321 175.071 17.9072 175.122 18.1759C175.173 18.4474 175.161 18.7187 175.087 18.9853L175.013 18.9061C175.184 18.9246 175.356 18.9467 175.527 18.9743L175.526 18.9974L175.011 18.9868L174.994 18.9866L174.996 18.9714C175.065 18.4657 174.945 17.9285 174.615 17.5066C174.283 17.0836 173.761 16.8 173.203 16.6619C172.926 16.5845 172.633 16.5658 172.343 16.5809C172.055 16.61 171.773 16.6807 171.51 16.7915C170.991 17.0229 170.545 17.3803 170.211 17.7989L170.188 17.7863Z" fill="black"/>
<path d="M175.014 18.4243L175.602 18.4768L175.052 18.6683L175.014 18.4243Z" fill="black"/>
<path d="M174.918 17.9304L175.49 17.9124L174.996 18.1669L174.918 17.9304Z" fill="black"/>
<path d="M170.301 19.7485C170.447 19.8581 170.592 19.964 170.751 20.0545C170.902 20.152 171.062 20.2384 171.226 20.3142C171.554 20.4649 171.9 20.5814 172.258 20.6284C172.614 20.6847 172.983 20.6639 173.335 20.5765C173.696 20.504 174.022 20.3379 174.36 20.1777C174.218 20.2885 174.075 20.4055 173.915 20.5014C173.746 20.5857 173.581 20.6809 173.392 20.7331C173.212 20.8084 173.012 20.8259 172.816 20.8593C172.618 20.8647 172.417 20.8719 172.22 20.8393C171.827 20.7822 171.453 20.648 171.13 20.4543C170.808 20.262 170.517 20.0288 170.301 19.7485Z" fill="black"/>
<path opacity="0.49" d="M169.071 20.3709C169.007 20.7283 168.589 21.3693 167.659 21.2579C167.015 21.1811 166.598 20.528 166.662 20.1706C166.662 20.1706 167.281 20.0564 167.932 20.0914C168.385 20.1158 169.071 20.3709 169.071 20.3709Z" fill="#7A5FFF"/>
<path d="M166.245 19.8469C166.485 20.0285 166.738 20.1848 167.002 20.3113C167.268 20.4347 167.55 20.5239 167.838 20.5481C168.124 20.5759 168.42 20.5481 168.697 20.4522C168.843 20.4195 168.97 20.3442 169.111 20.2907C169.246 20.2264 169.372 20.1465 169.514 20.0799C169.412 20.1845 169.305 20.291 169.185 20.3851C169.053 20.465 168.933 20.5666 168.778 20.6196C168.49 20.7607 168.142 20.8091 167.809 20.78C167.475 20.7471 167.158 20.6324 166.894 20.4656C166.63 20.2987 166.402 20.0912 166.245 19.8469Z" fill="#3B130E"/>
<path d="M163.414 14.7348C163.475 14.4715 163.644 14.2298 163.871 14.0437C164.094 13.8516 164.377 13.7171 164.672 13.6294C164.972 13.5541 165.283 13.5243 165.585 13.5513C165.736 13.5598 165.884 13.596 166.029 13.6235C166.17 13.6726 166.311 13.7122 166.444 13.7742L166.447 13.7755C166.453 13.7786 166.455 13.7855 166.452 13.7909C166.45 13.7953 166.444 13.7976 166.439 13.7968L166.015 13.7457C165.873 13.7426 165.731 13.7287 165.589 13.7344C165.305 13.7408 165.022 13.7786 164.751 13.8519C164.215 13.9992 163.716 14.307 163.439 14.7448C163.435 14.7505 163.427 14.7526 163.421 14.7492C163.416 14.7466 163.413 14.7415 163.414 14.7369V14.7348Z" fill="#2E2E2E"/>
<path d="M175.393 16.2331C175.23 16.0174 175.04 15.8421 174.849 15.6826C174.652 15.5271 174.444 15.3924 174.218 15.2803C174.103 15.2255 173.989 15.1694 173.865 15.1273C173.748 15.0707 173.618 15.0422 173.493 14.9933L172.685 14.7532L172.681 14.7519C172.674 14.7498 172.67 14.7434 172.672 14.7375C172.675 14.7326 172.68 14.7295 172.685 14.7298L173.115 14.7521C173.256 14.7735 173.4 14.7845 173.539 14.8146C173.82 14.8701 174.093 14.9565 174.348 15.0774C174.844 15.3327 175.256 15.7364 175.419 16.228C175.421 16.2339 175.417 16.2401 175.41 16.2419C175.404 16.2432 175.399 16.2414 175.396 16.2373L175.393 16.2331Z" fill="#2E2E2E"/>
</g>
</svg>
