<svg width="270" height="28" viewBox="0 0 270 28" fill="none" xmlns="http://www.w3.org/2000/svg">
<rect y="7.8103" width="270" height="12" rx="6" fill="#D5D4FF"/>
<rect x="2" y="9.8103" width="212.999" height="8" rx="4" fill="#957FFF"/>
<path d="M242.528 20.4205C242.528 20.4205 244.569 19.7921 244.909 17.6893C245.249 15.5866 242.573 15.2544 242.573 15.2544C244.059 14.3943 243.912 12.6595 243.912 12.6595C244.326 9.54933 241.631 9.15799 241.631 9.15799C241.631 9.15799 242.808 8.15779 242.51 6.66801C241.932 3.77178 238.724 4.1968 238.724 4.1968C238.576 2.71294 237.47 1.44584 235.906 1.06118C235.883 1.05527 235.859 1.04961 235.835 1.04421C234.238 0.667525 232.543 1.29824 231.61 2.56535L231.479 2.74354C231.441 2.55893 231.362 2.36557 231.26 2.17607C230.735 1.19617 229.739 0.503737 228.586 0.228357C225.846 -0.425764 224.29 1.36253 224.29 1.36253C223.306 -0.000479534 220.626 0.210098 220.626 0.210098C214.708 0.877333 215.488 6.28027 215.488 6.28027C215.488 6.28027 213.003 4.48375 210.788 7.85849C208.573 11.233 211.724 14.0145 211.724 14.0145C211.173 14.1534 210.566 15.0412 210.566 15.0412C208.857 18.4864 213.726 19.9767 213.726 19.9767C211.523 23.3579 216.453 23.7199 216.453 23.7199C216.727 25.6869 218.62 24.3095 218.62 24.3095C218.236 26.6946 220.357 25.7766 220.357 25.7766C220.667 27.2379 222.2 25.8587 222.2 25.8587L222.483 25.8378C222.454 26.4393 222.934 26.9782 223.626 27.0738C224.236 27.1582 224.81 26.8684 225.062 26.4007C225.351 26.962 225.984 27.3999 226.78 27.5099C227.965 27.6737 229.061 27.0504 229.257 26.1137C229.44 26.4089 229.767 26.6311 230.173 26.6871C230.725 26.7635 231.245 26.5128 231.493 26.1011C232.213 27.9745 234.034 26.6987 234.034 26.6987C235.442 27.7974 236.249 26.3269 236.249 26.3269C236.249 26.3269 237.512 27.4389 239.219 25.8011C240.175 24.8829 239.551 23.1514 239.551 23.1514C239.551 23.1514 241.108 24.4658 242.5 23.2486C244.039 21.9021 242.528 20.4205 242.528 20.4205Z" fill="#7A5FFF" stroke="#7A5FFF" stroke-width="0.168683" stroke-miterlimit="10" stroke-linecap="round"/>
<path d="M213.035 2.79471C213.413 2.77183 213.89 2.79471 213.9 3.22436C213.904 3.39458 213.834 3.58973 213.735 3.73501C213.682 3.81446 213.619 3.89622 213.512 3.92656C213.313 3.98287 213.214 3.79491 213.309 3.6607C213.51 3.37657 214.066 3.41977 214.285 3.65401C214.501 3.88542 214.372 4.27548 214.04 4.35313C214.073 4.40275 214.106 4.45238 214.138 4.502C214.399 4.32433 214.738 4.51975 214.806 4.76504C214.843 4.89721 214.821 5.03862 214.768 5.16487C214.73 5.25332 214.668 5.33329 214.681 5.43228C214.707 5.61767 214.954 5.75882 215.065 5.90513C215.221 6.11083 215.319 6.33915 215.369 6.58162C215.392 6.69424 215.587 6.64641 215.564 6.53431C215.505 6.24736 215.378 5.97609 215.181 5.74108C215.043 5.57704 214.871 5.50401 214.938 5.26463C214.975 5.13144 215.03 5.02217 215.025 4.88049C215.008 4.42281 214.452 4.0649 213.995 4.37602C213.912 4.4331 214.004 4.54597 214.094 4.52489C214.482 4.43386 214.688 4.03867 214.552 3.71135C214.405 3.3573 213.905 3.21433 213.519 3.32438C213.324 3.37992 213.129 3.50539 213.077 3.68847C213.033 3.84557 213.107 4.02582 213.282 4.09035C213.768 4.2688 214.053 3.65504 214.094 3.33775C214.124 3.11226 214.059 2.88239 213.844 2.74251C213.614 2.59287 213.306 2.60084 213.035 2.61703C212.906 2.62449 212.904 2.80242 213.035 2.79471Z" fill="#7A5FFF"/>
<path d="M244.953 7.12465C244.546 6.8917 244.002 6.73254 243.697 7.1771C243.501 7.46379 243.37 8.07653 243.785 8.26731C243.955 8.34548 244.149 8.29971 244.259 8.16318C244.388 8.0017 244.344 7.79137 244.227 7.63478C243.996 7.32341 243.482 7.17505 243.106 7.37483C242.735 7.57256 242.66 8.07086 242.974 8.33621C243.062 8.41104 243.175 8.31693 243.133 8.22823C242.899 7.74149 242.168 7.89294 241.936 8.29225C241.871 8.40538 241.853 8.5198 241.826 8.64219C241.782 8.84866 241.551 8.85612 241.368 8.92786C241.061 9.04845 240.796 9.23306 240.583 9.46165C240.501 9.54958 240.644 9.67634 240.726 9.58763C240.908 9.39222 241.125 9.23178 241.382 9.11839C241.571 9.03534 241.895 9.01837 241.992 8.8281C242.034 8.74556 242.022 8.64836 242.042 8.5612C242.07 8.43958 242.132 8.31924 242.232 8.23002C242.447 8.03744 242.83 8.0521 242.958 8.31822C243.011 8.28222 243.064 8.24622 243.117 8.21048C242.895 8.02278 242.949 7.67207 243.209 7.52859C243.528 7.35246 244.055 7.54273 244.126 7.87339C244.15 7.98396 244.106 8.15906 243.918 8.12383C243.759 8.09401 243.727 7.91685 243.724 7.80217C243.719 7.65689 243.753 7.50237 243.816 7.36815C243.89 7.2095 244.02 7.07297 244.228 7.05934C244.455 7.04468 244.67 7.17453 244.852 7.27815C244.96 7.34089 245.062 7.18688 244.953 7.12465Z" fill="#7A5FFF"/>
<path d="M216.737 15.8773C216.737 15.8773 216.734 6.92245 226.535 7.6825C235.825 8.40296 234.079 19.4294 231.626 20.5397L231.462 20.822C231.462 20.822 232.969 14.3279 229.698 11.0832C227.566 8.96889 223.981 8.68888 221.37 10.3347C220.01 11.1922 218.013 13.5066 216.737 15.8773Z" fill="white" stroke="white" stroke-width="0.153832" stroke-miterlimit="10"/>
<mask id="mask0_516_9718" style="mask-type:luminance" maskUnits="userSpaceOnUse" x="216" y="11" width="20" height="15">
<path d="M234.929 19.5279C234.462 19.0908 233.797 19.1118 233.204 19.3163C232.902 19.4204 232.619 19.5644 232.347 19.7197C232.184 19.8128 231.859 20.1519 231.661 20.1151C231.523 20.0899 231.502 19.8904 231.46 19.7953C231.091 18.9604 230.297 18.1857 229.66 17.4994C228.945 16.7299 228.183 15.9965 227.423 15.2622C226.127 14.0092 224.935 12.6321 224.139 11.0801C223.891 11.2763 223.392 11.6717 223.289 11.7658C222.297 12.6745 221.217 13.5217 220.052 14.2553C219.511 14.5955 218.949 14.9122 218.349 15.1658C217.816 15.3915 217.236 15.5787 216.637 15.5838C216.633 15.5838 216.631 15.5823 216.627 15.5821C216.491 15.9636 216.384 16.3573 216.311 16.7617C215.442 21.5705 218.245 24.8832 223.293 25.5811C226.272 25.993 229.141 24.92 231.003 22.9682C231.729 23.6161 233.155 23.412 234.229 22.492C235.326 21.5532 235.725 20.2743 234.929 19.5279Z" fill="white"/>
</mask>
<g mask="url(#mask0_516_9718)">
<path d="M234.929 19.5296C234.462 19.0925 233.797 19.1136 233.204 19.318C232.902 19.4221 232.619 19.5661 232.347 19.7214C232.184 19.8145 231.859 20.1536 231.661 20.1168C231.523 20.0916 231.502 19.8921 231.46 19.797C231.091 18.9621 230.297 18.1874 229.66 17.5011C228.945 16.7316 228.183 15.9982 227.423 15.2639C226.127 14.0109 224.935 12.6338 224.139 11.0818C223.891 11.278 223.392 11.6734 223.289 11.7675C222.297 12.6762 221.217 13.5234 220.052 14.257C219.511 14.5972 218.949 14.914 218.349 15.1675C217.816 15.3932 217.236 15.5804 216.637 15.5856C216.633 15.5856 216.631 15.584 216.627 15.5838C216.491 15.9653 216.384 16.359 216.311 16.7634C215.442 21.5722 218.245 24.8849 223.293 25.5828C226.272 25.9947 229.141 24.9217 231.003 22.9699C231.729 23.6178 233.155 23.4137 234.229 22.4937C235.326 21.5549 235.725 20.276 234.929 19.5296Z" fill="white" stroke="white" stroke-width="0.1584" stroke-miterlimit="10"/>
</g>
<mask id="mask1_516_9718" style="mask-type:luminance" maskUnits="userSpaceOnUse" x="216" y="11" width="20" height="15">
<path d="M234.929 19.5279C234.462 19.0908 233.797 19.1118 233.204 19.3163C232.902 19.4204 232.619 19.5644 232.347 19.7197C232.184 19.8128 231.859 20.1519 231.661 20.1151C231.523 20.0899 231.502 19.8904 231.46 19.7953C231.091 18.9604 230.297 18.1857 229.66 17.4994C228.945 16.7299 228.183 15.9965 227.423 15.2622C226.127 14.0092 224.935 12.6321 224.139 11.0801C223.891 11.2763 223.392 11.6717 223.289 11.7658C222.297 12.6745 221.217 13.5217 220.052 14.2553C219.511 14.5955 218.949 14.9122 218.349 15.1658C217.816 15.3915 217.236 15.5787 216.637 15.5838C216.633 15.5838 216.631 15.5823 216.627 15.5821C216.491 15.9636 216.384 16.3573 216.311 16.7617C215.442 21.5705 218.245 24.8832 223.293 25.5811C226.272 25.993 229.141 24.92 231.003 22.9682C231.729 23.6161 233.155 23.412 234.229 22.492C235.326 21.5532 235.725 20.2743 234.929 19.5279Z" fill="white"/>
</mask>
<g mask="url(#mask1_516_9718)">
<path d="M232.359 20.4252C232.712 20.1454 233.119 19.9024 233.606 19.7906C233.847 19.7361 234.126 19.7242 234.385 19.8276C234.641 19.9371 234.824 20.1387 234.889 20.3889C234.943 20.6414 234.852 20.8741 234.742 21.0705C234.624 21.267 234.479 21.4426 234.317 21.6012C233.995 21.9201 233.619 22.1862 233.215 22.4078C233.546 22.1075 233.859 21.7972 234.136 21.4724C234.27 21.3071 234.399 21.1405 234.488 20.9626C234.579 20.7882 234.638 20.6008 234.598 20.4396C234.566 20.2843 234.428 20.1236 234.261 20.0495C234.091 19.9672 233.871 19.9631 233.652 19.9901C233.213 20.0557 232.776 20.228 232.359 20.4252Z" fill="#1C1C1C"/>
<path d="M230.982 22.9849C231.091 22.8556 231.173 22.7116 231.251 22.5679C231.328 22.4231 231.396 22.2745 231.454 22.1231C231.578 21.8222 231.667 21.5114 231.757 21.199C231.735 21.3589 231.706 21.5183 231.666 21.6759C231.624 21.833 231.574 21.9889 231.514 22.1416C231.388 22.4434 231.234 22.7476 230.982 22.9849Z" fill="#1C1C1C"/>
<path d="M224.113 10.7734C223.79 10.902 223.486 11.1 223.348 11.397C223.232 11.6453 223.244 11.959 223.456 12.1663C223.639 12.3455 223.989 12.428 224.195 12.2293C224.352 12.077 224.355 11.8112 224.136 11.7029C223.857 11.5649 223.456 11.688 223.236 11.8623C222.997 12.0521 222.892 12.3578 222.962 12.6335C223.025 12.8829 223.28 13.1187 223.591 13.0297C223.843 12.9577 223.928 12.6443 223.665 12.5322C223.364 12.4039 223.018 12.6067 222.894 12.8474C222.727 13.1685 222.914 13.5228 223.155 13.7694C223.235 13.8517 223.37 13.7322 223.29 13.6504C223.117 13.4735 222.967 13.2264 223.039 12.986C223.071 12.8816 223.148 12.7862 223.25 12.726C223.318 12.6864 223.666 12.581 223.637 12.7762C223.613 12.9289 223.362 12.8811 223.281 12.816C223.177 12.7319 223.136 12.599 223.132 12.4784C223.123 12.2437 223.264 12.0195 223.496 11.9037C223.645 11.8294 224.163 11.7181 224.116 12.002C224.069 12.2848 223.674 12.1673 223.552 11.9999C223.219 11.5407 223.778 11.0905 224.21 10.9185C224.321 10.8742 224.224 10.7292 224.113 10.7734Z" fill="#1A0000"/>
<path d="M220.858 19.2926C220.937 19.0903 221.077 18.8992 221.28 18.7606C221.479 18.6202 221.753 18.5413 222.016 18.5709C222.145 18.5837 222.277 18.6161 222.395 18.6742C222.51 18.7375 222.61 18.8218 222.676 18.9226C222.812 19.1227 222.835 19.3551 222.793 19.5649C222.756 19.3551 222.677 19.1538 222.544 19.0016C222.41 18.8483 222.213 18.7665 221.995 18.7503C221.779 18.7236 221.563 18.7768 221.371 18.8761C221.179 18.9784 221.006 19.1234 220.858 19.2926Z" fill="#7A5FFF"/>
<g opacity="0.53">
<path d="M220.872 19.2893C220.872 19.2893 221.328 18.5287 222.159 18.7139C222.872 18.8728 222.794 19.6256 222.794 19.6256" fill="#7A5FFF"/>
<path d="M220.872 19.2908C220.959 19.0912 221.107 18.9051 221.316 18.7732C221.521 18.6397 221.799 18.5698 222.06 18.6081C222.188 18.6253 222.318 18.6618 222.434 18.724C222.546 18.7909 222.643 18.8788 222.704 18.9814C222.832 19.1858 222.844 19.4191 222.794 19.6271C222.765 19.4162 222.696 19.2123 222.568 19.056C222.442 18.8984 222.248 18.8102 222.031 18.7865C221.817 18.7526 221.598 18.7986 221.402 18.8914C221.206 18.9876 221.027 19.1267 220.872 19.2908Z" fill="#7A5FFF"/>
</g>
<path d="M216.654 17.2046C216.578 18.3015 217.534 19.2433 218.789 19.3079C220.043 19.3724 221.122 18.5357 221.197 17.4388C221.273 16.3419 220.317 15.4001 219.062 15.3356C217.808 15.2708 216.729 16.1077 216.654 17.2046Z" fill="white"/>
<path d="M217.762 16.8293C217.592 17.6611 218.155 18.4551 219.021 18.6029C219.887 18.7508 220.726 18.1962 220.897 17.3646C221.067 16.5331 220.503 15.7389 219.637 15.591C218.771 15.4432 217.932 15.9975 217.762 16.8293Z" fill="black" stroke="black" stroke-width="0.159654" stroke-miterlimit="10"/>
<path d="M221.254 17.0332C221.134 16.8142 221.001 16.6031 220.84 16.4133C220.684 16.2215 220.514 16.0415 220.316 15.8947C220.114 15.7525 219.897 15.6378 219.667 15.5566C219.432 15.4884 219.189 15.4437 218.937 15.4493C218.426 15.4481 217.924 15.5743 217.528 15.8422C217.117 16.1004 216.845 16.5251 216.684 16.9679L216.657 17.0422L216.594 17.0209C216.444 16.9705 216.295 16.9167 216.147 16.8581L216.154 16.837L216.617 16.9481L216.599 16.9584C216.697 16.4789 216.961 16.0155 217.39 15.6988C217.816 15.3809 218.383 15.2269 218.937 15.2341C219.217 15.2331 219.494 15.2825 219.753 15.3719C220.009 15.4707 220.243 15.6085 220.444 15.7777C220.838 16.1243 221.116 16.5617 221.278 17.0283L221.254 17.0332Z" fill="black"/>
<path d="M216.676 16.6702L216.248 16.365L216.788 16.4599L216.676 16.6702Z" fill="black"/>
<path d="M216.892 16.2261L216.535 15.8772L217.039 16.0328L216.892 16.2261Z" fill="black"/>
<path d="M220.562 18.8005C220.284 19.0005 219.957 19.1502 219.609 19.2468C219.261 19.3445 218.885 19.381 218.515 19.3389C218.329 19.3217 218.151 19.2671 217.974 19.2142C217.81 19.1365 217.637 19.0712 217.499 18.9604C217.345 18.8691 217.23 18.7406 217.108 18.6223C216.997 18.4963 216.907 18.3562 216.817 18.2217C217.064 18.451 217.306 18.676 217.602 18.8318C217.886 18.9987 218.21 19.1054 218.545 19.1391C218.88 19.1807 219.225 19.1574 219.563 19.0951C219.901 19.0283 220.238 18.9337 220.562 18.8005Z" fill="black"/>
<path d="M228.971 19.1504C228.65 20.2856 227.299 20.9803 225.954 20.7024C224.609 20.4242 223.778 19.2784 224.099 18.1432C224.421 17.008 225.771 16.3133 227.117 16.5912C228.462 16.8692 229.292 18.0149 228.971 19.1504Z" fill="white"/>
<path d="M228.965 18.6309C228.842 19.508 227.979 20.1498 227.035 20.0647C226.092 19.9796 225.426 19.1994 225.549 18.3224C225.671 17.4453 226.535 16.8036 227.478 16.8887C228.422 16.974 229.087 17.7539 228.965 18.6309Z" fill="black" stroke="black" stroke-width="0.169292" stroke-miterlimit="10"/>
<path d="M224.188 17.7863C224.457 17.3168 224.882 16.9126 225.424 16.6362C225.695 16.4974 226.003 16.4105 226.322 16.3747C226.64 16.3506 226.968 16.366 227.275 16.4444C227.88 16.5848 228.444 16.9224 228.801 17.395C228.979 17.6321 229.071 17.9072 229.122 18.1759C229.173 18.4474 229.161 18.7187 229.087 18.9853L229.013 18.9061C229.184 18.9246 229.356 18.9467 229.527 18.9743L229.526 18.9974L229.011 18.9868L228.994 18.9866L228.996 18.9714C229.065 18.4657 228.945 17.9285 228.615 17.5066C228.283 17.0836 227.761 16.8 227.203 16.6619C226.926 16.5845 226.633 16.5658 226.343 16.5809C226.055 16.61 225.773 16.6807 225.51 16.7915C224.991 17.0229 224.545 17.3803 224.211 17.7989L224.188 17.7863Z" fill="black"/>
<path d="M229.014 18.4243L229.602 18.4768L229.052 18.6683L229.014 18.4243Z" fill="black"/>
<path d="M228.918 17.9304L229.49 17.9124L228.996 18.1669L228.918 17.9304Z" fill="black"/>
<path d="M224.301 19.7485C224.447 19.8581 224.592 19.964 224.751 20.0545C224.902 20.152 225.062 20.2384 225.226 20.3142C225.554 20.4649 225.9 20.5814 226.258 20.6284C226.614 20.6847 226.983 20.6639 227.335 20.5765C227.696 20.504 228.022 20.3379 228.36 20.1777C228.218 20.2885 228.075 20.4055 227.915 20.5014C227.746 20.5857 227.581 20.6809 227.392 20.7331C227.212 20.8084 227.012 20.8259 226.816 20.8593C226.618 20.8647 226.417 20.8719 226.22 20.8393C225.827 20.7822 225.453 20.648 225.13 20.4543C224.808 20.262 224.517 20.0288 224.301 19.7485Z" fill="black"/>
<path opacity="0.49" d="M223.071 20.3709C223.007 20.7283 222.589 21.3693 221.659 21.2579C221.015 21.1811 220.598 20.528 220.662 20.1706C220.662 20.1706 221.281 20.0564 221.932 20.0914C222.385 20.1158 223.071 20.3709 223.071 20.3709Z" fill="#7A5FFF"/>
<path d="M220.245 19.8469C220.485 20.0285 220.738 20.1848 221.002 20.3113C221.268 20.4347 221.55 20.5239 221.838 20.5481C222.124 20.5759 222.42 20.5481 222.697 20.4522C222.843 20.4195 222.97 20.3442 223.111 20.2907C223.246 20.2264 223.372 20.1465 223.514 20.0799C223.412 20.1845 223.305 20.291 223.185 20.3851C223.053 20.465 222.933 20.5666 222.778 20.6196C222.49 20.7607 222.142 20.8091 221.809 20.78C221.475 20.7471 221.158 20.6324 220.894 20.4656C220.63 20.2987 220.402 20.0912 220.245 19.8469Z" fill="#3B130E"/>
<path d="M217.414 14.7348C217.475 14.4715 217.644 14.2298 217.871 14.0437C218.094 13.8516 218.377 13.7171 218.672 13.6294C218.972 13.5541 219.283 13.5243 219.585 13.5513C219.736 13.5598 219.884 13.596 220.029 13.6235C220.17 13.6726 220.311 13.7122 220.444 13.7742L220.447 13.7755C220.453 13.7786 220.455 13.7855 220.452 13.7909C220.45 13.7953 220.444 13.7976 220.439 13.7968L220.015 13.7457C219.873 13.7426 219.731 13.7287 219.589 13.7344C219.305 13.7408 219.022 13.7786 218.751 13.8519C218.215 13.9992 217.716 14.307 217.439 14.7448C217.435 14.7505 217.427 14.7526 217.421 14.7492C217.416 14.7466 217.413 14.7415 217.414 14.7369V14.7348Z" fill="#2E2E2E"/>
<path d="M229.393 16.2331C229.23 16.0174 229.04 15.8421 228.849 15.6826C228.652 15.5271 228.444 15.3924 228.218 15.2803C228.103 15.2255 227.989 15.1694 227.865 15.1273C227.748 15.0707 227.618 15.0422 227.493 14.9933L226.685 14.7532L226.681 14.7519C226.674 14.7498 226.67 14.7434 226.672 14.7375C226.675 14.7326 226.68 14.7295 226.685 14.7298L227.115 14.7521C227.256 14.7735 227.4 14.7845 227.539 14.8146C227.82 14.8701 228.093 14.9565 228.348 15.0774C228.844 15.3327 229.256 15.7364 229.419 16.228C229.421 16.2339 229.417 16.2401 229.41 16.2419C229.404 16.2432 229.399 16.2414 229.396 16.2373L229.393 16.2331Z" fill="#2E2E2E"/>
</g>
</svg>
