<svg width="270" height="28" viewBox="0 0 270 28" fill="none" xmlns="http://www.w3.org/2000/svg">
<rect y="7.8103" width="270" height="12" rx="6" fill="#D5D4FF"/>
<rect x="2" y="9.8103" width="185.999" height="8" rx="4" fill="#957FFF"/>
<path d="M215.528 20.4205C215.528 20.4205 217.569 19.7921 217.909 17.6893C218.249 15.5866 215.573 15.2544 215.573 15.2544C217.059 14.3943 216.912 12.6595 216.912 12.6595C217.326 9.54933 214.631 9.15799 214.631 9.15799C214.631 9.15799 215.808 8.15779 215.51 6.66801C214.932 3.77178 211.724 4.1968 211.724 4.1968C211.576 2.71294 210.47 1.44584 208.906 1.06118C208.883 1.05527 208.859 1.04961 208.835 1.04421C207.238 0.667525 205.543 1.29824 204.61 2.56535L204.479 2.74354C204.441 2.55893 204.362 2.36557 204.26 2.17607C203.735 1.19617 202.739 0.503737 201.586 0.228357C198.846 -0.425764 197.29 1.36253 197.29 1.36253C196.306 -0.000479534 193.626 0.210098 193.626 0.210098C187.708 0.877333 188.488 6.28027 188.488 6.28027C188.488 6.28027 186.003 4.48375 183.788 7.85849C181.573 11.233 184.724 14.0145 184.724 14.0145C184.173 14.1534 183.566 15.0412 183.566 15.0412C181.857 18.4864 186.726 19.9767 186.726 19.9767C184.523 23.3579 189.453 23.7199 189.453 23.7199C189.727 25.6869 191.62 24.3095 191.62 24.3095C191.236 26.6946 193.357 25.7766 193.357 25.7766C193.667 27.2379 195.2 25.8587 195.2 25.8587L195.483 25.8378C195.454 26.4393 195.934 26.9782 196.626 27.0738C197.236 27.1582 197.81 26.8684 198.062 26.4007C198.351 26.962 198.984 27.3999 199.78 27.5099C200.965 27.6737 202.061 27.0504 202.257 26.1137C202.44 26.4089 202.767 26.6311 203.173 26.6871C203.725 26.7635 204.245 26.5128 204.493 26.1011C205.213 27.9745 207.034 26.6987 207.034 26.6987C208.442 27.7974 209.249 26.3269 209.249 26.3269C209.249 26.3269 210.512 27.4389 212.219 25.8011C213.175 24.8829 212.551 23.1514 212.551 23.1514C212.551 23.1514 214.108 24.4658 215.5 23.2486C217.039 21.9021 215.528 20.4205 215.528 20.4205Z" fill="#7A5FFF" stroke="#7A5FFF" stroke-width="0.168683" stroke-miterlimit="10" stroke-linecap="round"/>
<path d="M186.035 2.79471C186.413 2.77183 186.89 2.79471 186.9 3.22436C186.904 3.39458 186.834 3.58973 186.735 3.73501C186.682 3.81446 186.619 3.89622 186.512 3.92656C186.313 3.98287 186.214 3.79491 186.309 3.6607C186.51 3.37657 187.066 3.41977 187.285 3.65401C187.501 3.88542 187.372 4.27548 187.04 4.35313C187.073 4.40275 187.106 4.45238 187.138 4.502C187.399 4.32433 187.738 4.51975 187.806 4.76504C187.843 4.89721 187.821 5.03862 187.768 5.16487C187.73 5.25332 187.668 5.33329 187.681 5.43228C187.707 5.61767 187.954 5.75882 188.065 5.90513C188.221 6.11083 188.319 6.33915 188.369 6.58162C188.392 6.69424 188.587 6.64641 188.564 6.53431C188.505 6.24736 188.378 5.97609 188.181 5.74108C188.043 5.57704 187.871 5.50401 187.938 5.26463C187.975 5.13144 188.03 5.02217 188.025 4.88049C188.008 4.42281 187.452 4.0649 186.995 4.37602C186.912 4.4331 187.004 4.54597 187.094 4.52489C187.482 4.43386 187.688 4.03867 187.552 3.71135C187.405 3.3573 186.905 3.21433 186.519 3.32438C186.324 3.37992 186.129 3.50539 186.077 3.68847C186.033 3.84557 186.107 4.02582 186.282 4.09035C186.768 4.2688 187.053 3.65504 187.094 3.33775C187.124 3.11226 187.059 2.88239 186.844 2.74251C186.614 2.59287 186.306 2.60084 186.035 2.61703C185.906 2.62449 185.904 2.80242 186.035 2.79471Z" fill="#7A5FFF"/>
<path d="M217.953 7.12465C217.546 6.8917 217.002 6.73254 216.697 7.1771C216.501 7.46379 216.37 8.07653 216.785 8.26731C216.955 8.34548 217.149 8.29971 217.259 8.16318C217.388 8.0017 217.344 7.79137 217.227 7.63478C216.996 7.32341 216.482 7.17505 216.106 7.37483C215.735 7.57256 215.66 8.07086 215.974 8.33621C216.062 8.41104 216.175 8.31693 216.133 8.22823C215.899 7.74149 215.168 7.89294 214.936 8.29225C214.871 8.40538 214.853 8.5198 214.826 8.64219C214.782 8.84866 214.551 8.85612 214.368 8.92786C214.061 9.04845 213.796 9.23306 213.583 9.46165C213.501 9.54958 213.644 9.67634 213.726 9.58763C213.908 9.39222 214.125 9.23178 214.382 9.11839C214.571 9.03534 214.895 9.01837 214.992 8.8281C215.034 8.74556 215.022 8.64836 215.042 8.5612C215.07 8.43958 215.132 8.31924 215.232 8.23002C215.447 8.03744 215.83 8.0521 215.958 8.31822C216.011 8.28222 216.064 8.24622 216.117 8.21048C215.895 8.02278 215.949 7.67207 216.209 7.52859C216.528 7.35246 217.055 7.54273 217.126 7.87339C217.15 7.98396 217.106 8.15906 216.918 8.12383C216.759 8.09401 216.727 7.91685 216.724 7.80217C216.719 7.65689 216.753 7.50237 216.816 7.36815C216.89 7.2095 217.02 7.07297 217.228 7.05934C217.455 7.04468 217.67 7.17453 217.852 7.27815C217.96 7.34089 218.062 7.18688 217.953 7.12465Z" fill="#7A5FFF"/>
<path d="M189.737 15.8773C189.737 15.8773 189.734 6.92245 199.535 7.6825C208.825 8.40296 207.079 19.4294 204.626 20.5397L204.462 20.822C204.462 20.822 205.969 14.3279 202.698 11.0832C200.566 8.96889 196.981 8.68888 194.37 10.3347C193.01 11.1922 191.013 13.5066 189.737 15.8773Z" fill="white" stroke="white" stroke-width="0.153832" stroke-miterlimit="10"/>
<mask id="mask0_516_9634" style="mask-type:luminance" maskUnits="userSpaceOnUse" x="189" y="11" width="20" height="15">
<path d="M207.929 19.5279C207.462 19.0908 206.797 19.1118 206.204 19.3163C205.902 19.4204 205.619 19.5644 205.347 19.7197C205.184 19.8128 204.859 20.1519 204.661 20.1151C204.523 20.0899 204.502 19.8904 204.46 19.7953C204.091 18.9604 203.297 18.1857 202.66 17.4994C201.945 16.7299 201.183 15.9965 200.423 15.2622C199.127 14.0092 197.935 12.6321 197.139 11.0801C196.891 11.2763 196.392 11.6717 196.289 11.7658C195.297 12.6745 194.217 13.5217 193.052 14.2553C192.511 14.5955 191.949 14.9122 191.349 15.1658C190.816 15.3915 190.236 15.5787 189.637 15.5838C189.633 15.5838 189.631 15.5823 189.627 15.5821C189.491 15.9636 189.384 16.3573 189.311 16.7617C188.442 21.5705 191.245 24.8832 196.293 25.5811C199.272 25.993 202.141 24.92 204.003 22.9682C204.729 23.6161 206.155 23.412 207.229 22.492C208.326 21.5532 208.725 20.2743 207.929 19.5279Z" fill="white"/>
</mask>
<g mask="url(#mask0_516_9634)">
<path d="M207.929 19.5296C207.462 19.0925 206.797 19.1136 206.204 19.318C205.902 19.4221 205.619 19.5661 205.347 19.7214C205.184 19.8145 204.859 20.1536 204.661 20.1168C204.523 20.0916 204.502 19.8921 204.46 19.797C204.091 18.9621 203.297 18.1874 202.66 17.5011C201.945 16.7316 201.183 15.9982 200.423 15.2639C199.127 14.0109 197.935 12.6338 197.139 11.0818C196.891 11.278 196.392 11.6734 196.289 11.7675C195.297 12.6762 194.217 13.5234 193.052 14.257C192.511 14.5972 191.949 14.914 191.349 15.1675C190.816 15.3932 190.236 15.5804 189.637 15.5856C189.633 15.5856 189.631 15.584 189.627 15.5838C189.491 15.9653 189.384 16.359 189.311 16.7634C188.442 21.5722 191.245 24.8849 196.293 25.5828C199.272 25.9947 202.141 24.9217 204.003 22.9699C204.729 23.6178 206.155 23.4137 207.229 22.4937C208.326 21.5549 208.725 20.276 207.929 19.5296Z" fill="white" stroke="white" stroke-width="0.1584" stroke-miterlimit="10"/>
</g>
<mask id="mask1_516_9634" style="mask-type:luminance" maskUnits="userSpaceOnUse" x="189" y="11" width="20" height="15">
<path d="M207.929 19.5279C207.462 19.0908 206.797 19.1118 206.204 19.3163C205.902 19.4204 205.619 19.5644 205.347 19.7197C205.184 19.8128 204.859 20.1519 204.661 20.1151C204.523 20.0899 204.502 19.8904 204.46 19.7953C204.091 18.9604 203.297 18.1857 202.66 17.4994C201.945 16.7299 201.183 15.9965 200.423 15.2622C199.127 14.0092 197.935 12.6321 197.139 11.0801C196.891 11.2763 196.392 11.6717 196.289 11.7658C195.297 12.6745 194.217 13.5217 193.052 14.2553C192.511 14.5955 191.949 14.9122 191.349 15.1658C190.816 15.3915 190.236 15.5787 189.637 15.5838C189.633 15.5838 189.631 15.5823 189.627 15.5821C189.491 15.9636 189.384 16.3573 189.311 16.7617C188.442 21.5705 191.245 24.8832 196.293 25.5811C199.272 25.993 202.141 24.92 204.003 22.9682C204.729 23.6161 206.155 23.412 207.229 22.492C208.326 21.5532 208.725 20.2743 207.929 19.5279Z" fill="white"/>
</mask>
<g mask="url(#mask1_516_9634)">
<path d="M205.359 20.4252C205.712 20.1454 206.119 19.9024 206.606 19.7906C206.847 19.7361 207.126 19.7242 207.385 19.8276C207.641 19.9371 207.824 20.1387 207.889 20.3889C207.943 20.6414 207.852 20.8741 207.742 21.0705C207.624 21.267 207.479 21.4426 207.317 21.6012C206.995 21.9201 206.619 22.1862 206.215 22.4078C206.546 22.1075 206.859 21.7972 207.136 21.4724C207.27 21.3071 207.399 21.1405 207.488 20.9626C207.579 20.7882 207.638 20.6008 207.598 20.4396C207.566 20.2843 207.428 20.1236 207.261 20.0495C207.091 19.9672 206.871 19.9631 206.652 19.9901C206.213 20.0557 205.776 20.228 205.359 20.4252Z" fill="#1C1C1C"/>
<path d="M203.982 22.9849C204.091 22.8556 204.173 22.7116 204.251 22.5679C204.328 22.4231 204.396 22.2745 204.454 22.1231C204.578 21.8222 204.667 21.5114 204.757 21.199C204.735 21.3589 204.706 21.5183 204.666 21.6759C204.624 21.833 204.574 21.9889 204.514 22.1416C204.388 22.4434 204.234 22.7476 203.982 22.9849Z" fill="#1C1C1C"/>
<path d="M197.113 10.7734C196.79 10.902 196.486 11.1 196.348 11.397C196.232 11.6453 196.244 11.959 196.456 12.1663C196.639 12.3455 196.989 12.428 197.195 12.2293C197.352 12.077 197.355 11.8112 197.136 11.7029C196.857 11.5649 196.456 11.688 196.236 11.8623C195.997 12.0521 195.892 12.3578 195.962 12.6335C196.025 12.8829 196.28 13.1187 196.591 13.0297C196.843 12.9577 196.928 12.6443 196.665 12.5322C196.364 12.4039 196.018 12.6067 195.894 12.8474C195.727 13.1685 195.914 13.5228 196.155 13.7694C196.235 13.8517 196.37 13.7322 196.29 13.6504C196.117 13.4735 195.967 13.2264 196.039 12.986C196.071 12.8816 196.148 12.7862 196.25 12.726C196.318 12.6864 196.666 12.581 196.637 12.7762C196.613 12.9289 196.362 12.8811 196.281 12.816C196.177 12.7319 196.136 12.599 196.132 12.4784C196.123 12.2437 196.264 12.0195 196.496 11.9037C196.645 11.8294 197.163 11.7181 197.116 12.002C197.069 12.2848 196.674 12.1673 196.552 11.9999C196.219 11.5407 196.778 11.0905 197.21 10.9185C197.321 10.8742 197.224 10.7292 197.113 10.7734Z" fill="#1A0000"/>
<path d="M193.858 19.2926C193.937 19.0903 194.077 18.8992 194.28 18.7606C194.479 18.6202 194.753 18.5413 195.016 18.5709C195.145 18.5837 195.277 18.6161 195.395 18.6742C195.51 18.7375 195.61 18.8218 195.676 18.9226C195.812 19.1227 195.835 19.3551 195.793 19.5649C195.756 19.3551 195.677 19.1538 195.544 19.0016C195.41 18.8483 195.213 18.7665 194.995 18.7503C194.779 18.7236 194.563 18.7768 194.371 18.8761C194.179 18.9784 194.006 19.1234 193.858 19.2926Z" fill="#7A5FFF"/>
<g opacity="0.53">
<path d="M193.872 19.2893C193.872 19.2893 194.328 18.5287 195.159 18.7139C195.872 18.8728 195.794 19.6256 195.794 19.6256" fill="#7A5FFF"/>
<path d="M193.872 19.2908C193.959 19.0912 194.107 18.9051 194.316 18.7732C194.521 18.6397 194.799 18.5698 195.06 18.6081C195.188 18.6253 195.318 18.6618 195.434 18.724C195.546 18.7909 195.643 18.8788 195.704 18.9814C195.832 19.1858 195.844 19.4191 195.794 19.6271C195.765 19.4162 195.696 19.2123 195.568 19.056C195.442 18.8984 195.248 18.8102 195.031 18.7865C194.817 18.7526 194.598 18.7986 194.402 18.8914C194.206 18.9876 194.027 19.1267 193.872 19.2908Z" fill="#7A5FFF"/>
</g>
<path d="M189.654 17.2046C189.578 18.3015 190.534 19.2433 191.789 19.3079C193.043 19.3724 194.122 18.5357 194.197 17.4388C194.273 16.3419 193.317 15.4001 192.062 15.3356C190.808 15.2708 189.729 16.1077 189.654 17.2046Z" fill="white"/>
<path d="M190.762 16.8293C190.592 17.6611 191.155 18.4551 192.021 18.6029C192.887 18.7508 193.726 18.1962 193.897 17.3646C194.067 16.5331 193.503 15.7389 192.637 15.591C191.771 15.4432 190.932 15.9975 190.762 16.8293Z" fill="black" stroke="black" stroke-width="0.159654" stroke-miterlimit="10"/>
<path d="M194.254 17.0332C194.134 16.8142 194.001 16.6031 193.84 16.4133C193.684 16.2215 193.514 16.0415 193.316 15.8947C193.114 15.7525 192.897 15.6378 192.667 15.5566C192.432 15.4884 192.189 15.4437 191.937 15.4493C191.426 15.4481 190.924 15.5743 190.528 15.8422C190.117 16.1004 189.845 16.5251 189.684 16.9679L189.657 17.0422L189.594 17.0209C189.444 16.9705 189.295 16.9167 189.147 16.8581L189.154 16.837L189.617 16.9481L189.599 16.9584C189.697 16.4789 189.961 16.0155 190.39 15.6988C190.816 15.3809 191.383 15.2269 191.937 15.2341C192.217 15.2331 192.494 15.2825 192.753 15.3719C193.009 15.4707 193.243 15.6085 193.444 15.7777C193.838 16.1243 194.116 16.5617 194.278 17.0283L194.254 17.0332Z" fill="black"/>
<path d="M189.676 16.6702L189.248 16.365L189.788 16.4599L189.676 16.6702Z" fill="black"/>
<path d="M189.892 16.2261L189.535 15.8772L190.039 16.0328L189.892 16.2261Z" fill="black"/>
<path d="M193.562 18.8005C193.284 19.0005 192.957 19.1502 192.609 19.2468C192.261 19.3445 191.885 19.381 191.515 19.3389C191.329 19.3217 191.151 19.2671 190.974 19.2142C190.81 19.1365 190.637 19.0712 190.499 18.9604C190.345 18.8691 190.23 18.7406 190.108 18.6223C189.997 18.4963 189.907 18.3562 189.817 18.2217C190.064 18.451 190.306 18.676 190.602 18.8318C190.886 18.9987 191.21 19.1054 191.545 19.1391C191.88 19.1807 192.225 19.1574 192.563 19.0951C192.901 19.0283 193.238 18.9337 193.562 18.8005Z" fill="black"/>
<path d="M201.971 19.1504C201.65 20.2856 200.299 20.9803 198.954 20.7024C197.609 20.4242 196.778 19.2784 197.099 18.1432C197.421 17.008 198.771 16.3133 200.117 16.5912C201.462 16.8692 202.292 18.0149 201.971 19.1504Z" fill="white"/>
<path d="M201.965 18.6309C201.842 19.508 200.979 20.1498 200.035 20.0647C199.092 19.9796 198.426 19.1994 198.549 18.3224C198.671 17.4453 199.535 16.8036 200.478 16.8887C201.422 16.974 202.087 17.7539 201.965 18.6309Z" fill="black" stroke="black" stroke-width="0.169292" stroke-miterlimit="10"/>
<path d="M197.188 17.7863C197.457 17.3168 197.882 16.9126 198.424 16.6362C198.695 16.4974 199.003 16.4105 199.322 16.3747C199.64 16.3506 199.968 16.366 200.275 16.4444C200.88 16.5848 201.444 16.9224 201.801 17.395C201.979 17.6321 202.071 17.9072 202.122 18.1759C202.173 18.4474 202.161 18.7187 202.087 18.9853L202.013 18.9061C202.184 18.9246 202.356 18.9467 202.527 18.9743L202.526 18.9974L202.011 18.9868L201.994 18.9866L201.996 18.9714C202.065 18.4657 201.945 17.9285 201.615 17.5066C201.283 17.0836 200.761 16.8 200.203 16.6619C199.926 16.5845 199.633 16.5658 199.343 16.5809C199.055 16.61 198.773 16.6807 198.51 16.7915C197.991 17.0229 197.545 17.3803 197.211 17.7989L197.188 17.7863Z" fill="black"/>
<path d="M202.014 18.4243L202.602 18.4768L202.052 18.6683L202.014 18.4243Z" fill="black"/>
<path d="M201.918 17.9304L202.49 17.9124L201.996 18.1669L201.918 17.9304Z" fill="black"/>
<path d="M197.301 19.7485C197.447 19.8581 197.592 19.964 197.751 20.0545C197.902 20.152 198.062 20.2384 198.226 20.3142C198.554 20.4649 198.9 20.5814 199.258 20.6284C199.614 20.6847 199.983 20.6639 200.335 20.5765C200.696 20.504 201.022 20.3379 201.36 20.1777C201.218 20.2885 201.075 20.4055 200.915 20.5014C200.746 20.5857 200.581 20.6809 200.392 20.7331C200.212 20.8084 200.012 20.8259 199.816 20.8593C199.618 20.8647 199.417 20.8719 199.22 20.8393C198.827 20.7822 198.453 20.648 198.13 20.4543C197.808 20.262 197.517 20.0288 197.301 19.7485Z" fill="black"/>
<path opacity="0.49" d="M196.071 20.3709C196.007 20.7283 195.589 21.3693 194.659 21.2579C194.015 21.1811 193.598 20.528 193.662 20.1706C193.662 20.1706 194.281 20.0564 194.932 20.0914C195.385 20.1158 196.071 20.3709 196.071 20.3709Z" fill="#7A5FFF"/>
<path d="M193.245 19.8469C193.485 20.0285 193.738 20.1848 194.002 20.3113C194.268 20.4347 194.55 20.5239 194.838 20.5481C195.124 20.5759 195.42 20.5481 195.697 20.4522C195.843 20.4195 195.97 20.3442 196.111 20.2907C196.246 20.2264 196.372 20.1465 196.514 20.0799C196.412 20.1845 196.305 20.291 196.185 20.3851C196.053 20.465 195.933 20.5666 195.778 20.6196C195.49 20.7607 195.142 20.8091 194.809 20.78C194.475 20.7471 194.158 20.6324 193.894 20.4656C193.63 20.2987 193.402 20.0912 193.245 19.8469Z" fill="#3B130E"/>
<path d="M190.414 14.7348C190.475 14.4715 190.644 14.2298 190.871 14.0437C191.094 13.8516 191.377 13.7171 191.672 13.6294C191.972 13.5541 192.283 13.5243 192.585 13.5513C192.736 13.5598 192.884 13.596 193.029 13.6235C193.17 13.6726 193.311 13.7122 193.444 13.7742L193.447 13.7755C193.453 13.7786 193.455 13.7855 193.452 13.7909C193.45 13.7953 193.444 13.7976 193.439 13.7968L193.015 13.7457C192.873 13.7426 192.731 13.7287 192.589 13.7344C192.305 13.7408 192.022 13.7786 191.751 13.8519C191.215 13.9992 190.716 14.307 190.439 14.7448C190.435 14.7505 190.427 14.7526 190.421 14.7492C190.416 14.7466 190.413 14.7415 190.414 14.7369V14.7348Z" fill="#2E2E2E"/>
<path d="M202.393 16.2331C202.23 16.0174 202.04 15.8421 201.849 15.6826C201.652 15.5271 201.444 15.3924 201.218 15.2803C201.103 15.2255 200.989 15.1694 200.865 15.1273C200.748 15.0707 200.618 15.0422 200.493 14.9933L199.685 14.7532L199.681 14.7519C199.674 14.7498 199.67 14.7434 199.672 14.7375C199.675 14.7326 199.68 14.7295 199.685 14.7298L200.115 14.7521C200.256 14.7735 200.4 14.7845 200.539 14.8146C200.82 14.8701 201.093 14.9565 201.348 15.0774C201.844 15.3327 202.256 15.7364 202.419 16.228C202.421 16.2339 202.417 16.2401 202.41 16.2419C202.404 16.2432 202.399 16.2414 202.396 16.2373L202.393 16.2331Z" fill="#2E2E2E"/>
</g>
</svg>
