<svg width="270" height="28" viewBox="0 0 270 28" fill="none" xmlns="http://www.w3.org/2000/svg">
<rect y="7.8103" width="270" height="12" rx="6" fill="#D5D4FF"/>
<rect x="2" y="9.8103" width="23.9988" height="8" rx="4" fill="#957FFF"/>
<path d="M53.5278 20.4205C53.5278 20.4205 55.5686 19.7921 55.9086 17.6893C56.2485 15.5866 53.5725 15.2544 53.5725 15.2544C55.0586 14.3943 54.912 12.6595 54.912 12.6595C55.3265 9.54933 52.6309 9.15799 52.6309 9.15799C52.6309 9.15799 53.8079 8.15779 53.5103 6.66801C52.932 3.77178 49.7235 4.1968 49.7235 4.1968C49.5757 2.71294 48.4696 1.44584 46.9064 1.06118C46.8828 1.05527 46.8591 1.04961 46.8354 1.04421C45.2378 0.667525 43.5431 1.29824 42.6097 2.56535L42.4785 2.74354C42.4414 2.55893 42.3617 2.36557 42.26 2.17607C41.7352 1.19617 40.7395 0.503737 39.5864 0.228357C36.8464 -0.425764 35.2905 1.36253 35.2905 1.36253C34.3062 -0.000479534 31.6258 0.210098 31.6258 0.210098C25.7077 0.877333 26.4881 6.28027 26.4881 6.28027C26.4881 6.28027 24.0031 4.48375 21.7883 7.85849C19.5732 11.233 22.7241 14.0145 22.7241 14.0145C22.1732 14.1534 21.566 15.0412 21.566 15.0412C19.8573 18.4864 24.7257 19.9767 24.7257 19.9767C22.5234 23.3579 27.4528 23.7199 27.4528 23.7199C27.7268 25.6869 29.6198 24.3095 29.6198 24.3095C29.236 26.6946 31.3568 25.7766 31.3568 25.7766C31.6669 27.2379 33.1998 25.8587 33.1998 25.8587L33.4834 25.8378C33.4536 26.4393 33.9343 26.9782 34.626 27.0738C35.2364 27.1582 35.8104 26.8684 36.0624 26.4007C36.3513 26.962 36.9842 27.3999 37.7799 27.5099C38.9645 27.6737 40.061 27.0504 40.2567 26.1137C40.4398 26.4089 40.7666 26.6311 41.1732 26.6871C41.725 26.7635 42.2451 26.5128 42.4925 26.1011C43.2134 27.9745 45.0345 26.6987 45.0345 26.6987C46.442 27.7974 47.2493 26.3269 47.2493 26.3269C47.2493 26.3269 48.5117 27.4389 50.2186 25.8011C51.1754 24.8829 50.551 23.1514 50.551 23.1514C50.551 23.1514 52.108 24.4658 53.4998 23.2486C55.0387 21.9021 53.5278 20.4205 53.5278 20.4205Z" fill="#7A5FFF" stroke="#7A5FFF" stroke-width="0.168683" stroke-miterlimit="10" stroke-linecap="round"/>
<path d="M24.0347 2.79471C24.413 2.77183 24.8896 2.79471 24.9002 3.22436C24.9042 3.39458 24.8336 3.58973 24.7354 3.73501C24.6817 3.81446 24.6195 3.89622 24.5123 3.92656C24.3134 3.98287 24.2144 3.79491 24.309 3.6607C24.5096 3.37657 25.0663 3.41977 25.2848 3.65401C25.501 3.88542 25.3719 4.27548 25.0401 4.35313C25.0728 4.40275 25.1058 4.45238 25.1385 4.502C25.399 4.32433 25.7375 4.51975 25.8062 4.76504C25.8433 4.89721 25.8211 5.03862 25.7676 5.16487C25.7302 5.25332 25.668 5.33329 25.6815 5.43228C25.7066 5.61767 25.9543 5.75882 26.0653 5.90513C26.2212 6.11083 26.3188 6.33915 26.369 6.58162C26.3924 6.69424 26.5872 6.64641 26.5641 6.53431C26.5048 6.24736 26.3781 5.97609 26.1809 5.74108C26.0433 5.57704 25.871 5.50401 25.9379 5.26463C25.9753 5.13144 26.0305 5.02217 26.0252 4.88049C26.0083 4.42281 25.4519 4.0649 24.9954 4.37602C24.9115 4.4331 25.0038 4.54597 25.0938 4.52489C25.4817 4.43386 25.6876 4.03867 25.5518 3.71135C25.4052 3.3573 24.9045 3.21433 24.519 3.32438C24.3245 3.37992 24.1288 3.50539 24.0771 3.68847C24.0327 3.84557 24.1066 4.02582 24.2824 4.09035C24.7678 4.2688 25.0526 3.65504 25.0941 3.33775C25.1236 3.11226 25.0588 2.88239 24.8438 2.74251C24.6139 2.59287 24.3064 2.60084 24.035 2.61703C23.9056 2.62449 23.9045 2.80242 24.0347 2.79471Z" fill="#7A5FFF"/>
<path d="M55.9532 7.12465C55.5457 6.8917 55.0016 6.73254 54.697 7.1771C54.5007 7.46379 54.3698 8.07653 54.7852 8.26731C54.9552 8.34548 55.1494 8.29971 55.2586 8.16318C55.3877 8.0017 55.3436 7.79137 55.2274 7.63478C54.996 7.32341 54.482 7.17505 54.1064 7.37483C53.7348 7.57256 53.6604 8.07086 53.9738 8.33621C54.0623 8.41104 54.1753 8.31693 54.1327 8.22823C53.8987 7.74149 53.1676 7.89294 52.9363 8.29225C52.8706 8.40538 52.8528 8.5198 52.8265 8.64219C52.7821 8.84866 52.5511 8.85612 52.3682 8.92786C52.0609 9.04845 51.7957 9.23306 51.5831 9.46165C51.5013 9.54958 51.6436 9.67634 51.7262 9.58763C51.9079 9.39222 52.1252 9.23178 52.3822 9.11839C52.5706 9.03534 52.8945 9.01837 52.9918 8.8281C53.0341 8.74556 53.0216 8.64836 53.042 8.5612C53.0704 8.43958 53.1317 8.31924 53.2316 8.23002C53.4472 8.03744 53.8304 8.0521 53.9583 8.31822C54.0112 8.28222 54.064 8.24622 54.1172 8.21048C53.8955 8.02278 53.9492 7.67207 54.2089 7.52859C54.5278 7.35246 55.055 7.54273 55.1263 7.87339C55.15 7.98396 55.1056 8.15906 54.9178 8.12383C54.7586 8.09401 54.727 7.91685 54.7235 7.80217C54.7192 7.65689 54.7527 7.50237 54.8155 7.36815C54.8897 7.2095 55.0203 7.07297 55.2282 7.05934C55.4552 7.04468 55.6705 7.17453 55.8518 7.27815C55.9605 7.34089 56.0621 7.18688 55.9532 7.12465Z" fill="#7A5FFF"/>
<path d="M27.7373 15.8773C27.7373 15.8773 27.7341 6.92245 37.5348 7.6825C46.8246 8.40296 45.0789 19.4294 42.6257 20.5397L42.4618 20.822C42.4618 20.822 43.9687 14.3279 40.6977 11.0832C38.5661 8.96889 34.9811 8.68888 32.3702 10.3347C31.01 11.1922 29.0128 13.5066 27.7373 15.8773Z" fill="white" stroke="white" stroke-width="0.153832" stroke-miterlimit="10"/>
<mask id="mask0_516_9046" style="mask-type:luminance" maskUnits="userSpaceOnUse" x="27" y="11" width="20" height="15">
<path d="M45.9289 19.5279C45.4622 19.0908 44.7971 19.1118 44.2039 19.3163C43.9016 19.4204 43.6186 19.5644 43.3469 19.7197C43.184 19.8128 42.8595 20.1519 42.6606 20.1151C42.5233 20.0899 42.502 19.8904 42.4599 19.7953C42.091 18.9604 41.2966 18.1857 40.6598 17.4994C39.9454 16.7299 39.1828 15.9965 38.4231 15.2622C37.1268 14.0092 35.9346 12.6321 35.139 11.0801C34.8907 11.2763 34.3921 11.6717 34.2893 11.7658C33.2974 12.6745 32.2167 13.5217 31.0516 14.2553C30.5113 14.5955 29.9487 14.9122 29.3494 15.1658C28.8161 15.3915 28.2357 15.5787 27.6369 15.5838C27.6331 15.5838 27.6305 15.5823 27.6267 15.5821C27.4906 15.9636 27.384 16.3573 27.311 16.7617C26.442 21.5705 29.2448 24.8832 34.2925 25.5811C37.272 25.993 40.1411 24.92 42.0031 22.9682C42.7289 23.6161 44.1548 23.412 45.2294 22.492C46.3264 21.5532 46.7254 20.2743 45.9289 19.5279Z" fill="white"/>
</mask>
<g mask="url(#mask0_516_9046)">
<path d="M45.9289 19.5296C45.4622 19.0925 44.7971 19.1136 44.2039 19.318C43.9016 19.4221 43.6186 19.5661 43.3469 19.7214C43.184 19.8145 42.8595 20.1536 42.6606 20.1168C42.5233 20.0916 42.502 19.8921 42.4599 19.797C42.091 18.9621 41.2966 18.1874 40.6598 17.5011C39.9454 16.7316 39.1828 15.9982 38.4231 15.2639C37.1268 14.0109 35.9346 12.6338 35.139 11.0818C34.8907 11.278 34.3921 11.6734 34.2893 11.7675C33.2974 12.6762 32.2167 13.5234 31.0516 14.257C30.5113 14.5972 29.9487 14.914 29.3494 15.1675C28.8161 15.3932 28.2357 15.5804 27.6369 15.5856C27.6331 15.5856 27.6305 15.584 27.6267 15.5838C27.4906 15.9653 27.384 16.359 27.311 16.7634C26.442 21.5722 29.2448 24.8849 34.2925 25.5828C37.272 25.9947 40.1411 24.9217 42.0031 22.9699C42.7289 23.6178 44.1548 23.4137 45.2294 22.4937C46.3264 21.5549 46.7254 20.276 45.9289 19.5296Z" fill="white" stroke="white" stroke-width="0.1584" stroke-miterlimit="10"/>
</g>
<mask id="mask1_516_9046" style="mask-type:luminance" maskUnits="userSpaceOnUse" x="27" y="11" width="20" height="15">
<path d="M45.9289 19.5279C45.4622 19.0908 44.7971 19.1118 44.2039 19.3163C43.9016 19.4204 43.6186 19.5644 43.3469 19.7197C43.184 19.8128 42.8595 20.1519 42.6606 20.1151C42.5233 20.0899 42.502 19.8904 42.4599 19.7953C42.091 18.9604 41.2966 18.1857 40.6598 17.4994C39.9454 16.7299 39.1828 15.9965 38.4231 15.2622C37.1268 14.0092 35.9346 12.6321 35.139 11.0801C34.8907 11.2763 34.3921 11.6717 34.2893 11.7658C33.2974 12.6745 32.2167 13.5217 31.0516 14.2553C30.5113 14.5955 29.9487 14.9122 29.3494 15.1658C28.8161 15.3915 28.2357 15.5787 27.6369 15.5838C27.6331 15.5838 27.6305 15.5823 27.6267 15.5821C27.4906 15.9636 27.384 16.3573 27.311 16.7617C26.442 21.5705 29.2448 24.8832 34.2925 25.5811C37.272 25.993 40.1411 24.92 42.0031 22.9682C42.7289 23.6161 44.1548 23.412 45.2294 22.492C46.3264 21.5532 46.7254 20.2743 45.9289 19.5279Z" fill="white"/>
</mask>
<g mask="url(#mask1_516_9046)">
<path d="M43.3594 20.4252C43.7119 20.1454 44.1194 19.9024 44.6063 19.7906C44.8466 19.7361 45.1259 19.7242 45.3846 19.8276C45.6411 19.9371 45.8242 20.1387 45.8894 20.3889C45.9425 20.6414 45.852 20.8741 45.7419 21.0705C45.6236 21.267 45.4793 21.4426 45.3169 21.6012C44.9947 21.9201 44.6194 22.1862 44.2152 22.4078C44.5461 22.1075 44.8592 21.7972 45.1364 21.4724C45.2696 21.3071 45.399 21.1405 45.488 20.9626C45.5789 20.7882 45.6385 20.6008 45.5979 20.4396C45.5657 20.2843 45.4276 20.1236 45.2611 20.0495C45.0908 19.9672 44.8706 19.9631 44.6524 19.9901C44.2125 20.0557 43.7756 20.228 43.3594 20.4252Z" fill="#1C1C1C"/>
<path d="M41.9824 22.9849C42.0914 22.8556 42.1734 22.7116 42.2514 22.5679C42.3279 22.4231 42.396 22.2745 42.4541 22.1231C42.5777 21.8222 42.6673 21.5114 42.757 21.199C42.7354 21.3589 42.7065 21.5183 42.6656 21.6759C42.6235 21.833 42.5742 21.9889 42.514 22.1416C42.3875 22.4434 42.2345 22.7476 41.9824 22.9849Z" fill="#1C1C1C"/>
<path d="M35.1129 10.7734C34.7902 10.902 34.4858 11.1 34.3477 11.397C34.232 11.6453 34.2437 11.959 34.4557 12.1663C34.6392 12.3455 34.9894 12.428 35.1947 12.2293C35.3518 12.077 35.3553 11.8112 35.1363 11.7029C34.8568 11.5649 34.4557 11.688 34.2358 11.8623C33.9966 12.0521 33.8917 12.3578 33.9615 12.6335C34.0246 12.8829 34.2802 13.1187 34.591 13.0297C34.843 12.9577 34.928 12.6443 34.6652 12.5322C34.3643 12.4039 34.0185 12.6067 33.8938 12.8474C33.727 13.1685 33.9136 13.5228 34.1546 13.7694C34.2349 13.8517 34.3696 13.7322 34.2898 13.6504C34.1169 13.4735 33.9668 13.2264 34.0392 12.986C34.0708 12.8816 34.1482 12.7862 34.2504 12.726C34.3179 12.6864 34.6663 12.581 34.6365 12.7762C34.6132 12.9289 34.362 12.8811 34.2814 12.816C34.1774 12.7319 34.1359 12.599 34.1315 12.4784C34.1231 12.2437 34.2635 12.0195 34.4958 11.9037C34.6447 11.8294 35.1634 11.7181 35.1161 12.002C35.0691 12.2848 34.6739 12.1673 34.5521 11.9999C34.2186 11.5407 34.7785 11.0905 35.2102 10.9185C35.3215 10.8742 35.2245 10.7292 35.1129 10.7734Z" fill="#1A0000"/>
<path d="M31.8584 19.2926C31.9367 19.0903 32.0769 18.8992 32.2799 18.7606C32.4788 18.6202 32.7533 18.5413 33.0159 18.5709C33.1453 18.5837 33.2767 18.6161 33.395 18.6742C33.5098 18.7375 33.61 18.8218 33.676 18.9226C33.8124 19.1227 33.8346 19.3551 33.7931 19.5649C33.7557 19.3551 33.6772 19.1538 33.5437 19.0016C33.4102 18.8483 33.2134 18.7665 32.9949 18.7503C32.7793 18.7236 32.5635 18.7768 32.3707 18.8761C32.1788 18.9784 32.0059 19.1234 31.8584 19.2926Z" fill="#7A5FFF"/>
<g opacity="0.53">
<path d="M31.8721 19.2893C31.8721 19.2893 32.328 18.5287 33.1587 18.7139C33.8719 18.8728 33.7937 19.6256 33.7937 19.6256" fill="#7A5FFF"/>
<path d="M31.8721 19.2908C31.9588 19.0912 32.1075 18.9051 32.316 18.7732C32.5208 18.6397 32.7985 18.5698 33.0597 18.6081C33.1885 18.6253 33.3182 18.6618 33.4341 18.724C33.5463 18.7909 33.6427 18.8788 33.7043 18.9814C33.8322 19.1858 33.8442 19.4191 33.7937 19.6271C33.7653 19.4162 33.6955 19.2123 33.5685 19.056C33.4417 18.8984 33.2483 18.8102 33.0307 18.7865C32.8167 18.7526 32.5985 18.7986 32.4016 18.8914C32.2056 18.9876 32.0266 19.1267 31.8721 19.2908Z" fill="#7A5FFF"/>
</g>
<path d="M27.6536 17.2046C27.578 18.3015 28.5339 19.2433 29.7887 19.3079C31.0435 19.3724 32.1218 18.5357 32.1972 17.4388C32.2728 16.3419 31.3169 15.4001 30.0621 15.3356C28.8076 15.2708 27.7293 16.1077 27.6536 17.2046Z" fill="white"/>
<path d="M28.7617 16.8293C28.5917 17.6611 29.1554 18.4551 30.0211 18.6029C30.8869 18.7508 31.7263 18.1962 31.8966 17.3646C32.0668 16.5331 31.5028 15.7389 30.6371 15.591C29.7714 15.4432 28.9317 15.9975 28.7617 16.8293Z" fill="black" stroke="black" stroke-width="0.159654" stroke-miterlimit="10"/>
<path d="M32.2536 17.0332C32.1344 16.8142 32.0012 16.6031 31.84 16.4133C31.684 16.2215 31.514 16.0415 31.3157 15.8947C31.1139 15.7525 30.8969 15.6378 30.667 15.5566C30.4316 15.4884 30.1889 15.4437 29.9374 15.4493C29.4263 15.4481 28.9239 15.5743 28.5278 15.8422C28.1166 16.1004 27.8449 16.5251 27.6843 16.9679L27.6574 17.0422L27.594 17.0209C27.4439 16.9705 27.295 16.9167 27.1475 16.8581L27.1542 16.837L27.6168 16.9481L27.5993 16.9584C27.6966 16.4789 27.9606 16.0155 28.39 15.6988C28.8161 15.3809 29.3833 15.2269 29.9374 15.2341C30.2166 15.2331 30.4938 15.2825 30.7535 15.3719C31.0087 15.4707 31.2427 15.6085 31.4442 15.7777C31.8379 16.1243 32.1163 16.5617 32.2778 17.0283L32.2536 17.0332Z" fill="black"/>
<path d="M27.6762 16.6702L27.248 16.365L27.7881 16.4599L27.6762 16.6702Z" fill="black"/>
<path d="M27.8924 16.2261L27.5352 15.8772L28.0387 16.0328L27.8924 16.2261Z" fill="black"/>
<path d="M31.5621 18.8005C31.2841 19.0005 30.9572 19.1502 30.6091 19.2468C30.2612 19.3445 29.885 19.381 29.5149 19.3389C29.3286 19.3217 29.1507 19.2671 28.9743 19.2142C28.8096 19.1365 28.6372 19.0712 28.4988 18.9604C28.3446 18.8691 28.2298 18.7406 28.1083 18.6223C27.997 18.4963 27.9073 18.3562 27.8174 18.2217C28.0645 18.451 28.3063 18.676 28.6019 18.8318C28.8864 18.9987 29.2097 19.1054 29.5453 19.1391C29.8797 19.1807 30.2247 19.1574 30.5632 19.0951C30.9009 19.0283 31.2379 18.9337 31.5621 18.8005Z" fill="black"/>
<path d="M39.9714 19.1504C39.6501 20.2856 38.2992 20.9803 36.9539 20.7024C35.6086 20.4242 34.7782 19.2784 35.0992 18.1432C35.4205 17.008 36.7714 16.3133 38.117 16.5912C39.4623 16.8692 40.2924 18.0149 39.9714 19.1504Z" fill="white"/>
<path d="M39.9648 18.6309C39.8425 19.508 38.9788 20.1498 38.0354 20.0647C37.0919 19.9796 36.4263 19.1994 36.5487 18.3224C36.6711 17.4453 37.5347 16.8036 38.4782 16.8887C39.4216 16.974 40.0872 17.7539 39.9648 18.6309Z" fill="black" stroke="black" stroke-width="0.169292" stroke-miterlimit="10"/>
<path d="M35.1885 17.7863C35.4572 17.3168 35.8825 16.9126 36.4237 16.6362C36.6947 16.4974 37.0029 16.4105 37.3215 16.3747C37.6405 16.3506 37.9679 16.366 38.2749 16.4444C38.8803 16.5848 39.4443 16.9224 39.8013 17.395C39.9789 17.6321 40.0714 17.9072 40.1217 18.1759C40.1731 18.4474 40.1611 18.7187 40.0866 18.9853L40.013 18.9061C40.1845 18.9246 40.3559 18.9467 40.5271 18.9743L40.5265 18.9974L40.0107 18.9868L39.9943 18.9866L39.9964 18.9714C40.0653 18.4657 39.9453 17.9285 39.6146 17.5066C39.2834 17.0836 38.7609 16.8 38.2033 16.6619C37.9258 16.5845 37.6326 16.5658 37.3434 16.5809C37.0551 16.61 36.773 16.6807 36.5101 16.7915C35.9905 17.0229 35.5451 17.3803 35.2107 17.7989L35.1885 17.7863Z" fill="black"/>
<path d="M40.0137 18.4243L40.6025 18.4768L40.0522 18.6683L40.0137 18.4243Z" fill="black"/>
<path d="M39.918 17.9304L40.4899 17.9124L39.996 18.1669L39.918 17.9304Z" fill="black"/>
<path d="M35.3008 19.7485C35.4465 19.8581 35.5923 19.964 35.7506 20.0545C35.9019 20.152 36.0616 20.2384 36.2258 20.3142C36.5541 20.4649 36.8996 20.5814 37.2577 20.6284C37.6143 20.6847 37.9826 20.6639 38.3352 20.5765C38.6959 20.504 39.0219 20.3379 39.3598 20.1777C39.2178 20.2885 39.0747 20.4055 38.9147 20.5014C38.7464 20.5857 38.5811 20.6809 38.3921 20.7331C38.2116 20.8084 38.0119 20.8259 37.8162 20.8593C37.6175 20.8647 37.4166 20.8719 37.22 20.8393C36.8272 20.7822 36.453 20.648 36.13 20.4543C35.8075 20.262 35.5172 20.0288 35.3008 19.7485Z" fill="black"/>
<path opacity="0.49" d="M34.0708 20.3709C34.0066 20.7283 33.5886 21.3693 32.6586 21.2579C32.0155 21.1811 31.5975 20.528 31.6618 20.1706C31.6618 20.1706 32.281 20.0564 32.9323 20.0914C33.385 20.1158 34.0708 20.3709 34.0708 20.3709Z" fill="#7A5FFF"/>
<path d="M31.2451 19.8469C31.4852 20.0285 31.7381 20.1848 32.0025 20.3113C32.2683 20.4347 32.5495 20.5239 32.8375 20.5481C33.1238 20.5759 33.4196 20.5481 33.6971 20.4522C33.8429 20.4195 33.9699 20.3442 34.1113 20.2907C34.2462 20.2264 34.3718 20.1465 34.5141 20.0799C34.4115 20.1845 34.3049 20.291 34.1849 20.3851C34.0535 20.465 33.9325 20.5666 33.7783 20.6196C33.49 20.7607 33.1416 20.8091 32.8092 20.78C32.4751 20.7471 32.1584 20.6324 31.8941 20.4656C31.6298 20.2987 31.4017 20.0912 31.2451 19.8469Z" fill="#3B130E"/>
<path d="M28.4144 14.7348C28.4751 14.4715 28.6436 14.2298 28.8706 14.0437C29.094 13.8516 29.3768 13.7171 29.672 13.6294C29.972 13.5541 30.2828 13.5243 30.5854 13.5513C30.7364 13.5598 30.8836 13.596 31.0287 13.6235C31.1704 13.6726 31.3112 13.7122 31.4438 13.7742L31.4467 13.7755C31.4531 13.7786 31.4555 13.7855 31.4523 13.7909C31.4496 13.7953 31.4441 13.7976 31.4388 13.7968L31.0153 13.7457C30.8731 13.7426 30.7308 13.7287 30.5889 13.7344C30.3047 13.7408 30.022 13.7786 29.7515 13.8519C29.2149 13.9992 28.7164 14.307 28.4386 14.7448C28.4351 14.7505 28.4269 14.7526 28.4208 14.7492C28.4155 14.7466 28.4132 14.7415 28.4144 14.7369V14.7348Z" fill="#2E2E2E"/>
<path d="M40.3932 16.2331C40.2305 16.0174 40.04 15.8421 39.8487 15.6826C39.6522 15.5271 39.4442 15.3924 39.2175 15.2803C39.103 15.2255 38.9891 15.1694 38.8653 15.1273C38.7482 15.0707 38.6179 15.0422 38.4929 14.9933L37.685 14.7532L37.6806 14.7519C37.6739 14.7498 37.6704 14.7434 37.6725 14.7375C37.6745 14.7326 37.6798 14.7295 37.6853 14.7298L38.1147 14.7521C38.256 14.7735 38.3997 14.7845 38.5393 14.8146C38.82 14.8701 39.0928 14.9565 39.3475 15.0774C39.8438 15.3327 40.2562 15.7364 40.4186 16.228C40.4206 16.2339 40.4165 16.2401 40.4098 16.2419C40.4043 16.2432 40.3987 16.2414 40.3958 16.2373L40.3932 16.2331Z" fill="#2E2E2E"/>
</g>
</svg>
