<svg width="270" height="28" viewBox="0 0 270 28" fill="none" xmlns="http://www.w3.org/2000/svg">
<rect y="7.8103" width="270" height="12" rx="6" fill="#D5D4FF"/>
<rect x="2" y="9.8103" width="77.9988" height="8" rx="4" fill="#957FFF"/>
<path d="M107.528 20.4205C107.528 20.4205 109.569 19.7921 109.909 17.6893C110.249 15.5866 107.573 15.2544 107.573 15.2544C109.059 14.3943 108.912 12.6595 108.912 12.6595C109.326 9.54933 106.631 9.15799 106.631 9.15799C106.631 9.15799 107.808 8.15779 107.51 6.66801C106.932 3.77178 103.724 4.1968 103.724 4.1968C103.576 2.71294 102.47 1.44584 100.906 1.06118C100.883 1.05527 100.859 1.04961 100.835 1.04421C99.2378 0.667525 97.5431 1.29824 96.6097 2.56535L96.4785 2.74354C96.4414 2.55893 96.3617 2.36557 96.26 2.17607C95.7352 1.19617 94.7395 0.503737 93.5864 0.228357C90.8464 -0.425764 89.2905 1.36253 89.2905 1.36253C88.3062 -0.000479534 85.6258 0.210098 85.6258 0.210098C79.7077 0.877333 80.4881 6.28027 80.4881 6.28027C80.4881 6.28027 78.0031 4.48375 75.7883 7.85849C73.5732 11.233 76.7241 14.0145 76.7241 14.0145C76.1732 14.1534 75.566 15.0412 75.566 15.0412C73.8573 18.4864 78.7257 19.9767 78.7257 19.9767C76.5234 23.3579 81.4528 23.7199 81.4528 23.7199C81.7268 25.6869 83.6198 24.3095 83.6198 24.3095C83.236 26.6946 85.3568 25.7766 85.3568 25.7766C85.6669 27.2379 87.1998 25.8587 87.1998 25.8587L87.4834 25.8378C87.4536 26.4393 87.9343 26.9782 88.626 27.0738C89.2364 27.1582 89.8104 26.8684 90.0624 26.4007C90.3513 26.962 90.9842 27.3999 91.7799 27.5099C92.9645 27.6737 94.061 27.0504 94.2567 26.1137C94.4398 26.4089 94.7666 26.6311 95.1732 26.6871C95.725 26.7635 96.2451 26.5128 96.4925 26.1011C97.2134 27.9745 99.0345 26.6987 99.0345 26.6987C100.442 27.7974 101.249 26.3269 101.249 26.3269C101.249 26.3269 102.512 27.4389 104.219 25.8011C105.175 24.8829 104.551 23.1514 104.551 23.1514C104.551 23.1514 106.108 24.4658 107.5 23.2486C109.039 21.9021 107.528 20.4205 107.528 20.4205Z" fill="#7A5FFF" stroke="#7A5FFF" stroke-width="0.168683" stroke-miterlimit="10" stroke-linecap="round"/>
<path d="M78.0347 2.79471C78.413 2.77183 78.8896 2.79471 78.9002 3.22436C78.9042 3.39458 78.8336 3.58973 78.7354 3.73501C78.6817 3.81446 78.6195 3.89622 78.5123 3.92656C78.3134 3.98287 78.2144 3.79491 78.309 3.6607C78.5096 3.37657 79.0663 3.41977 79.2848 3.65401C79.501 3.88542 79.3719 4.27548 79.0401 4.35313C79.0728 4.40275 79.1058 4.45238 79.1385 4.502C79.399 4.32433 79.7375 4.51975 79.8062 4.76504C79.8433 4.89721 79.8211 5.03862 79.7676 5.16487C79.7302 5.25332 79.668 5.33329 79.6815 5.43228C79.7066 5.61767 79.9543 5.75882 80.0653 5.90513C80.2212 6.11083 80.3188 6.33915 80.369 6.58162C80.3924 6.69424 80.5872 6.64641 80.5641 6.53431C80.5048 6.24736 80.3781 5.97609 80.1809 5.74108C80.0433 5.57704 79.871 5.50401 79.9379 5.26463C79.9753 5.13144 80.0305 5.02217 80.0252 4.88049C80.0083 4.42281 79.4519 4.0649 78.9954 4.37602C78.9115 4.4331 79.0038 4.54597 79.0938 4.52489C79.4817 4.43386 79.6876 4.03867 79.5518 3.71135C79.4052 3.3573 78.9045 3.21433 78.519 3.32438C78.3245 3.37992 78.1288 3.50539 78.0771 3.68847C78.0327 3.84557 78.1066 4.02582 78.2824 4.09035C78.7678 4.2688 79.0526 3.65504 79.0941 3.33775C79.1236 3.11226 79.0588 2.88239 78.8438 2.74251C78.6139 2.59287 78.3064 2.60084 78.035 2.61703C77.9056 2.62449 77.9045 2.80242 78.0347 2.79471Z" fill="#7A5FFF"/>
<path d="M109.953 7.12465C109.546 6.8917 109.002 6.73254 108.697 7.1771C108.501 7.46379 108.37 8.07653 108.785 8.26731C108.955 8.34548 109.149 8.29971 109.259 8.16318C109.388 8.0017 109.344 7.79137 109.227 7.63478C108.996 7.32341 108.482 7.17505 108.106 7.37483C107.735 7.57256 107.66 8.07086 107.974 8.33621C108.062 8.41104 108.175 8.31693 108.133 8.22823C107.899 7.74149 107.168 7.89294 106.936 8.29225C106.871 8.40538 106.853 8.5198 106.826 8.64219C106.782 8.84866 106.551 8.85612 106.368 8.92786C106.061 9.04845 105.796 9.23306 105.583 9.46165C105.501 9.54958 105.644 9.67634 105.726 9.58763C105.908 9.39222 106.125 9.23178 106.382 9.11839C106.571 9.03534 106.895 9.01837 106.992 8.8281C107.034 8.74556 107.022 8.64836 107.042 8.5612C107.07 8.43958 107.132 8.31924 107.232 8.23002C107.447 8.03744 107.83 8.0521 107.958 8.31822C108.011 8.28222 108.064 8.24622 108.117 8.21048C107.895 8.02278 107.949 7.67207 108.209 7.52859C108.528 7.35246 109.055 7.54273 109.126 7.87339C109.15 7.98396 109.106 8.15906 108.918 8.12383C108.759 8.09401 108.727 7.91685 108.724 7.80217C108.719 7.65689 108.753 7.50237 108.816 7.36815C108.89 7.2095 109.02 7.07297 109.228 7.05934C109.455 7.04468 109.67 7.17453 109.852 7.27815C109.96 7.34089 110.062 7.18688 109.953 7.12465Z" fill="#7A5FFF"/>
<path d="M81.7373 15.8773C81.7373 15.8773 81.7341 6.92245 91.5348 7.6825C100.825 8.40296 99.0789 19.4294 96.6257 20.5397L96.4618 20.822C96.4618 20.822 97.9687 14.3279 94.6977 11.0832C92.5661 8.96889 88.9811 8.68888 86.3702 10.3347C85.01 11.1922 83.0128 13.5066 81.7373 15.8773Z" fill="white" stroke="white" stroke-width="0.153832" stroke-miterlimit="10"/>
<mask id="mask0_516_9214" style="mask-type:luminance" maskUnits="userSpaceOnUse" x="81" y="11" width="20" height="15">
<path d="M99.9289 19.5279C99.4622 19.0908 98.7971 19.1118 98.2039 19.3163C97.9016 19.4204 97.6186 19.5644 97.3469 19.7197C97.184 19.8128 96.8595 20.1519 96.6606 20.1151C96.5233 20.0899 96.502 19.8904 96.4599 19.7953C96.091 18.9604 95.2966 18.1857 94.6598 17.4994C93.9454 16.7299 93.1828 15.9965 92.4231 15.2622C91.1268 14.0092 89.9346 12.6321 89.139 11.0801C88.8907 11.2763 88.3921 11.6717 88.2893 11.7658C87.2974 12.6745 86.2167 13.5217 85.0516 14.2553C84.5113 14.5955 83.9487 14.9122 83.3494 15.1658C82.8161 15.3915 82.2357 15.5787 81.6369 15.5838C81.6331 15.5838 81.6305 15.5823 81.6267 15.5821C81.4906 15.9636 81.384 16.3573 81.311 16.7617C80.442 21.5705 83.2448 24.8832 88.2925 25.5811C91.272 25.993 94.1411 24.92 96.0031 22.9682C96.7289 23.6161 98.1548 23.412 99.2294 22.492C100.326 21.5532 100.725 20.2743 99.9289 19.5279Z" fill="white"/>
</mask>
<g mask="url(#mask0_516_9214)">
<path d="M99.9289 19.5296C99.4622 19.0925 98.7971 19.1136 98.2039 19.318C97.9016 19.4221 97.6186 19.5661 97.3469 19.7214C97.184 19.8145 96.8595 20.1536 96.6606 20.1168C96.5233 20.0916 96.502 19.8921 96.4599 19.797C96.091 18.9621 95.2966 18.1874 94.6598 17.5011C93.9454 16.7316 93.1828 15.9982 92.4231 15.2639C91.1268 14.0109 89.9346 12.6338 89.139 11.0818C88.8907 11.278 88.3921 11.6734 88.2893 11.7675C87.2974 12.6762 86.2167 13.5234 85.0516 14.257C84.5113 14.5972 83.9487 14.914 83.3494 15.1675C82.8161 15.3932 82.2357 15.5804 81.6369 15.5856C81.6331 15.5856 81.6305 15.584 81.6267 15.5838C81.4906 15.9653 81.384 16.359 81.311 16.7634C80.442 21.5722 83.2448 24.8849 88.2925 25.5828C91.272 25.9947 94.1411 24.9217 96.0031 22.9699C96.7289 23.6178 98.1548 23.4137 99.2294 22.4937C100.326 21.5549 100.725 20.276 99.9289 19.5296Z" fill="white" stroke="white" stroke-width="0.1584" stroke-miterlimit="10"/>
</g>
<mask id="mask1_516_9214" style="mask-type:luminance" maskUnits="userSpaceOnUse" x="81" y="11" width="20" height="15">
<path d="M99.9289 19.5279C99.4622 19.0908 98.7971 19.1118 98.2039 19.3163C97.9016 19.4204 97.6186 19.5644 97.3469 19.7197C97.184 19.8128 96.8595 20.1519 96.6606 20.1151C96.5233 20.0899 96.502 19.8904 96.4599 19.7953C96.091 18.9604 95.2966 18.1857 94.6598 17.4994C93.9454 16.7299 93.1828 15.9965 92.4231 15.2622C91.1268 14.0092 89.9346 12.6321 89.139 11.0801C88.8907 11.2763 88.3921 11.6717 88.2893 11.7658C87.2974 12.6745 86.2167 13.5217 85.0516 14.2553C84.5113 14.5955 83.9487 14.9122 83.3494 15.1658C82.8161 15.3915 82.2357 15.5787 81.6369 15.5838C81.6331 15.5838 81.6305 15.5823 81.6267 15.5821C81.4906 15.9636 81.384 16.3573 81.311 16.7617C80.442 21.5705 83.2448 24.8832 88.2925 25.5811C91.272 25.993 94.1411 24.92 96.0031 22.9682C96.7289 23.6161 98.1548 23.412 99.2294 22.492C100.326 21.5532 100.725 20.2743 99.9289 19.5279Z" fill="white"/>
</mask>
<g mask="url(#mask1_516_9214)">
<path d="M97.3594 20.4252C97.7119 20.1454 98.1194 19.9024 98.6063 19.7906C98.8466 19.7361 99.1259 19.7242 99.3846 19.8276C99.6411 19.9371 99.8242 20.1387 99.8894 20.3889C99.9425 20.6414 99.852 20.8741 99.7419 21.0705C99.6236 21.267 99.4793 21.4426 99.3169 21.6012C98.9947 21.9201 98.6194 22.1862 98.2152 22.4078C98.5461 22.1075 98.8592 21.7972 99.1364 21.4724C99.2696 21.3071 99.399 21.1405 99.488 20.9626C99.5789 20.7882 99.6385 20.6008 99.5979 20.4396C99.5657 20.2843 99.4276 20.1236 99.2611 20.0495C99.0908 19.9672 98.8706 19.9631 98.6524 19.9901C98.2125 20.0557 97.7756 20.228 97.3594 20.4252Z" fill="#1C1C1C"/>
<path d="M95.9824 22.9849C96.0914 22.8556 96.1734 22.7116 96.2514 22.5679C96.3279 22.4231 96.396 22.2745 96.4541 22.1231C96.5777 21.8222 96.6673 21.5114 96.757 21.199C96.7354 21.3589 96.7065 21.5183 96.6656 21.6759C96.6235 21.833 96.5742 21.9889 96.514 22.1416C96.3875 22.4434 96.2345 22.7476 95.9824 22.9849Z" fill="#1C1C1C"/>
<path d="M89.1129 10.7734C88.7902 10.902 88.4858 11.1 88.3477 11.397C88.232 11.6453 88.2437 11.959 88.4557 12.1663C88.6392 12.3455 88.9894 12.428 89.1947 12.2293C89.3518 12.077 89.3553 11.8112 89.1363 11.7029C88.8568 11.5649 88.4557 11.688 88.2358 11.8623C87.9966 12.0521 87.8917 12.3578 87.9615 12.6335C88.0246 12.8829 88.2802 13.1187 88.591 13.0297C88.843 12.9577 88.928 12.6443 88.6652 12.5322C88.3643 12.4039 88.0185 12.6067 87.8938 12.8474C87.727 13.1685 87.9136 13.5228 88.1546 13.7694C88.2349 13.8517 88.3696 13.7322 88.2898 13.6504C88.1169 13.4735 87.9668 13.2264 88.0392 12.986C88.0708 12.8816 88.1482 12.7862 88.2504 12.726C88.3179 12.6864 88.6663 12.581 88.6365 12.7762C88.6132 12.9289 88.362 12.8811 88.2814 12.816C88.1774 12.7319 88.1359 12.599 88.1315 12.4784C88.1231 12.2437 88.2635 12.0195 88.4958 11.9037C88.6447 11.8294 89.1634 11.7181 89.1161 12.002C89.0691 12.2848 88.6739 12.1673 88.5521 11.9999C88.2186 11.5407 88.7785 11.0905 89.2102 10.9185C89.3215 10.8742 89.2245 10.7292 89.1129 10.7734Z" fill="#1A0000"/>
<path d="M85.8584 19.2926C85.9367 19.0903 86.0769 18.8992 86.2799 18.7606C86.4788 18.6202 86.7533 18.5413 87.0159 18.5709C87.1453 18.5837 87.2767 18.6161 87.395 18.6742C87.5098 18.7375 87.61 18.8218 87.676 18.9226C87.8124 19.1227 87.8346 19.3551 87.7931 19.5649C87.7557 19.3551 87.6772 19.1538 87.5437 19.0016C87.4102 18.8483 87.2134 18.7665 86.9949 18.7503C86.7793 18.7236 86.5635 18.7768 86.3707 18.8761C86.1788 18.9784 86.0059 19.1234 85.8584 19.2926Z" fill="#7A5FFF"/>
<g opacity="0.53">
<path d="M85.8721 19.2893C85.8721 19.2893 86.328 18.5287 87.1587 18.7139C87.8719 18.8728 87.7937 19.6256 87.7937 19.6256" fill="#7A5FFF"/>
<path d="M85.8721 19.2908C85.9588 19.0912 86.1075 18.9051 86.316 18.7732C86.5208 18.6397 86.7985 18.5698 87.0597 18.6081C87.1885 18.6253 87.3182 18.6618 87.4341 18.724C87.5463 18.7909 87.6427 18.8788 87.7043 18.9814C87.8322 19.1858 87.8442 19.4191 87.7937 19.6271C87.7653 19.4162 87.6955 19.2123 87.5685 19.056C87.4417 18.8984 87.2483 18.8102 87.0307 18.7865C86.8167 18.7526 86.5985 18.7986 86.4016 18.8914C86.2056 18.9876 86.0266 19.1267 85.8721 19.2908Z" fill="#7A5FFF"/>
</g>
<path d="M81.6536 17.2046C81.578 18.3015 82.5339 19.2433 83.7887 19.3079C85.0435 19.3724 86.1218 18.5357 86.1972 17.4388C86.2728 16.3419 85.3169 15.4001 84.0621 15.3356C82.8076 15.2708 81.7293 16.1077 81.6536 17.2046Z" fill="white"/>
<path d="M82.7617 16.8293C82.5917 17.6611 83.1554 18.4551 84.0211 18.6029C84.8869 18.7508 85.7263 18.1962 85.8966 17.3646C86.0668 16.5331 85.5028 15.7389 84.6371 15.591C83.7714 15.4432 82.9317 15.9975 82.7617 16.8293Z" fill="black" stroke="black" stroke-width="0.159654" stroke-miterlimit="10"/>
<path d="M86.2536 17.0332C86.1344 16.8142 86.0012 16.6031 85.84 16.4133C85.684 16.2215 85.514 16.0415 85.3157 15.8947C85.1139 15.7525 84.8969 15.6378 84.667 15.5566C84.4316 15.4884 84.1889 15.4437 83.9374 15.4493C83.4263 15.4481 82.9239 15.5743 82.5278 15.8422C82.1166 16.1004 81.8449 16.5251 81.6843 16.9679L81.6574 17.0422L81.594 17.0209C81.4439 16.9705 81.295 16.9167 81.1475 16.8581L81.1542 16.837L81.6168 16.9481L81.5993 16.9584C81.6966 16.4789 81.9606 16.0155 82.39 15.6988C82.8161 15.3809 83.3833 15.2269 83.9374 15.2341C84.2166 15.2331 84.4938 15.2825 84.7535 15.3719C85.0087 15.4707 85.2427 15.6085 85.4442 15.7777C85.8379 16.1243 86.1163 16.5617 86.2778 17.0283L86.2536 17.0332Z" fill="black"/>
<path d="M81.6762 16.6702L81.248 16.365L81.7881 16.4599L81.6762 16.6702Z" fill="black"/>
<path d="M81.8924 16.2261L81.5352 15.8772L82.0387 16.0328L81.8924 16.2261Z" fill="black"/>
<path d="M85.5621 18.8005C85.2841 19.0005 84.9572 19.1502 84.6091 19.2468C84.2612 19.3445 83.885 19.381 83.5149 19.3389C83.3286 19.3217 83.1507 19.2671 82.9743 19.2142C82.8096 19.1365 82.6372 19.0712 82.4988 18.9604C82.3446 18.8691 82.2298 18.7406 82.1083 18.6223C81.997 18.4963 81.9073 18.3562 81.8174 18.2217C82.0645 18.451 82.3063 18.676 82.6019 18.8318C82.8864 18.9987 83.2097 19.1054 83.5453 19.1391C83.8797 19.1807 84.2247 19.1574 84.5632 19.0951C84.9009 19.0283 85.2379 18.9337 85.5621 18.8005Z" fill="black"/>
<path d="M93.9714 19.1504C93.6501 20.2856 92.2992 20.9803 90.9539 20.7024C89.6086 20.4242 88.7782 19.2784 89.0992 18.1432C89.4205 17.008 90.7714 16.3133 92.117 16.5912C93.4623 16.8692 94.2924 18.0149 93.9714 19.1504Z" fill="white"/>
<path d="M93.9648 18.6309C93.8425 19.508 92.9788 20.1498 92.0354 20.0647C91.0919 19.9796 90.4263 19.1994 90.5487 18.3224C90.6711 17.4453 91.5347 16.8036 92.4782 16.8887C93.4216 16.974 94.0872 17.7539 93.9648 18.6309Z" fill="black" stroke="black" stroke-width="0.169292" stroke-miterlimit="10"/>
<path d="M89.1885 17.7863C89.4572 17.3168 89.8825 16.9126 90.4237 16.6362C90.6947 16.4974 91.0029 16.4105 91.3215 16.3747C91.6405 16.3506 91.9679 16.366 92.2749 16.4444C92.8803 16.5848 93.4443 16.9224 93.8013 17.395C93.9789 17.6321 94.0714 17.9072 94.1217 18.1759C94.1731 18.4474 94.1611 18.7187 94.0866 18.9853L94.013 18.9061C94.1845 18.9246 94.3559 18.9467 94.5271 18.9743L94.5265 18.9974L94.0107 18.9868L93.9943 18.9866L93.9964 18.9714C94.0653 18.4657 93.9453 17.9285 93.6146 17.5066C93.2834 17.0836 92.7609 16.8 92.2033 16.6619C91.9258 16.5845 91.6326 16.5658 91.3434 16.5809C91.0551 16.61 90.773 16.6807 90.5101 16.7915C89.9905 17.0229 89.5451 17.3803 89.2107 17.7989L89.1885 17.7863Z" fill="black"/>
<path d="M94.0137 18.4243L94.6025 18.4768L94.0522 18.6683L94.0137 18.4243Z" fill="black"/>
<path d="M93.918 17.9304L94.4899 17.9124L93.996 18.1669L93.918 17.9304Z" fill="black"/>
<path d="M89.3008 19.7485C89.4465 19.8581 89.5923 19.964 89.7506 20.0545C89.9019 20.152 90.0616 20.2384 90.2258 20.3142C90.5541 20.4649 90.8996 20.5814 91.2577 20.6284C91.6143 20.6847 91.9826 20.6639 92.3352 20.5765C92.6959 20.504 93.0219 20.3379 93.3598 20.1777C93.2178 20.2885 93.0747 20.4055 92.9147 20.5014C92.7464 20.5857 92.5811 20.6809 92.3921 20.7331C92.2116 20.8084 92.0119 20.8259 91.8162 20.8593C91.6175 20.8647 91.4166 20.8719 91.22 20.8393C90.8272 20.7822 90.453 20.648 90.13 20.4543C89.8075 20.262 89.5172 20.0288 89.3008 19.7485Z" fill="black"/>
<path opacity="0.49" d="M88.0708 20.3709C88.0066 20.7283 87.5886 21.3693 86.6586 21.2579C86.0155 21.1811 85.5975 20.528 85.6618 20.1706C85.6618 20.1706 86.281 20.0564 86.9323 20.0914C87.385 20.1158 88.0708 20.3709 88.0708 20.3709Z" fill="#7A5FFF"/>
<path d="M85.2451 19.8469C85.4852 20.0285 85.7381 20.1848 86.0025 20.3113C86.2683 20.4347 86.5495 20.5239 86.8375 20.5481C87.1238 20.5759 87.4196 20.5481 87.6971 20.4522C87.8429 20.4195 87.9699 20.3442 88.1113 20.2907C88.2462 20.2264 88.3718 20.1465 88.5141 20.0799C88.4115 20.1845 88.3049 20.291 88.1849 20.3851C88.0535 20.465 87.9325 20.5666 87.7783 20.6196C87.49 20.7607 87.1416 20.8091 86.8092 20.78C86.4751 20.7471 86.1584 20.6324 85.8941 20.4656C85.6298 20.2987 85.4017 20.0912 85.2451 19.8469Z" fill="#3B130E"/>
<path d="M82.4144 14.7348C82.4751 14.4715 82.6436 14.2298 82.8706 14.0437C83.094 13.8516 83.3768 13.7171 83.672 13.6294C83.972 13.5541 84.2828 13.5243 84.5854 13.5513C84.7364 13.5598 84.8836 13.596 85.0287 13.6235C85.1704 13.6726 85.3112 13.7122 85.4438 13.7742L85.4467 13.7755C85.4531 13.7786 85.4555 13.7855 85.4523 13.7909C85.4496 13.7953 85.4441 13.7976 85.4388 13.7968L85.0153 13.7457C84.8731 13.7426 84.7308 13.7287 84.5889 13.7344C84.3047 13.7408 84.022 13.7786 83.7515 13.8519C83.2149 13.9992 82.7164 14.307 82.4386 14.7448C82.4351 14.7505 82.4269 14.7526 82.4208 14.7492C82.4155 14.7466 82.4132 14.7415 82.4144 14.7369V14.7348Z" fill="#2E2E2E"/>
<path d="M94.3932 16.2331C94.2305 16.0174 94.04 15.8421 93.8487 15.6826C93.6522 15.5271 93.4442 15.3924 93.2175 15.2803C93.103 15.2255 92.9891 15.1694 92.8653 15.1273C92.7482 15.0707 92.6179 15.0422 92.4929 14.9933L91.685 14.7532L91.6806 14.7519C91.6739 14.7498 91.6704 14.7434 91.6725 14.7375C91.6745 14.7326 91.6798 14.7295 91.6853 14.7298L92.1147 14.7521C92.256 14.7735 92.3997 14.7845 92.5393 14.8146C92.82 14.8701 93.0928 14.9565 93.3475 15.0774C93.8438 15.3327 94.2562 15.7364 94.4186 16.228C94.4206 16.2339 94.4165 16.2401 94.4098 16.2419C94.4043 16.2432 94.3987 16.2414 94.3958 16.2373L94.3932 16.2331Z" fill="#2E2E2E"/>
</g>
</svg>
