<svg width="273" height="28" viewBox="0 0 273 28" fill="none" xmlns="http://www.w3.org/2000/svg">
<rect y="7.8103" width="270" height="12" rx="6" fill="#D5D4FF"/>
<rect x="2" y="9.8103" width="239.999" height="8" rx="4" fill="#957FFF"/>
<path d="M269.528 20.4205C269.528 20.4205 271.569 19.7921 271.909 17.6893C272.249 15.5866 269.573 15.2544 269.573 15.2544C271.059 14.3943 270.912 12.6595 270.912 12.6595C271.326 9.54933 268.631 9.15799 268.631 9.15799C268.631 9.15799 269.808 8.15779 269.51 6.66801C268.932 3.77178 265.724 4.1968 265.724 4.1968C265.576 2.71294 264.47 1.44584 262.906 1.06118C262.883 1.05527 262.859 1.04961 262.835 1.04421C261.238 0.667525 259.543 1.29824 258.61 2.56535L258.479 2.74354C258.441 2.55893 258.362 2.36557 258.26 2.17607C257.735 1.19617 256.739 0.503737 255.586 0.228357C252.846 -0.425764 251.29 1.36253 251.29 1.36253C250.306 -0.000479534 247.626 0.210098 247.626 0.210098C241.708 0.877333 242.488 6.28027 242.488 6.28027C242.488 6.28027 240.003 4.48375 237.788 7.85849C235.573 11.233 238.724 14.0145 238.724 14.0145C238.173 14.1534 237.566 15.0412 237.566 15.0412C235.857 18.4864 240.726 19.9767 240.726 19.9767C238.523 23.3579 243.453 23.7199 243.453 23.7199C243.727 25.6869 245.62 24.3095 245.62 24.3095C245.236 26.6946 247.357 25.7766 247.357 25.7766C247.667 27.2379 249.2 25.8587 249.2 25.8587L249.483 25.8378C249.454 26.4393 249.934 26.9782 250.626 27.0738C251.236 27.1582 251.81 26.8684 252.062 26.4007C252.351 26.962 252.984 27.3999 253.78 27.5099C254.965 27.6737 256.061 27.0504 256.257 26.1137C256.44 26.4089 256.767 26.6311 257.173 26.6871C257.725 26.7635 258.245 26.5128 258.493 26.1011C259.213 27.9745 261.034 26.6987 261.034 26.6987C262.442 27.7974 263.249 26.3269 263.249 26.3269C263.249 26.3269 264.512 27.4389 266.219 25.8011C267.175 24.8829 266.551 23.1514 266.551 23.1514C266.551 23.1514 268.108 24.4658 269.5 23.2486C271.039 21.9021 269.528 20.4205 269.528 20.4205Z" fill="#7A5FFF" stroke="#7A5FFF" stroke-width="0.168683" stroke-miterlimit="10" stroke-linecap="round"/>
<path d="M240.035 2.79471C240.413 2.77183 240.89 2.79471 240.9 3.22436C240.904 3.39458 240.834 3.58973 240.735 3.73501C240.682 3.81446 240.619 3.89622 240.512 3.92656C240.313 3.98287 240.214 3.79491 240.309 3.6607C240.51 3.37657 241.066 3.41977 241.285 3.65401C241.501 3.88542 241.372 4.27548 241.04 4.35313C241.073 4.40275 241.106 4.45238 241.138 4.502C241.399 4.32433 241.738 4.51975 241.806 4.76504C241.843 4.89721 241.821 5.03862 241.768 5.16487C241.73 5.25332 241.668 5.33329 241.681 5.43228C241.707 5.61767 241.954 5.75882 242.065 5.90513C242.221 6.11083 242.319 6.33915 242.369 6.58162C242.392 6.69424 242.587 6.64641 242.564 6.53431C242.505 6.24736 242.378 5.97609 242.181 5.74108C242.043 5.57704 241.871 5.50401 241.938 5.26463C241.975 5.13144 242.03 5.02217 242.025 4.88049C242.008 4.42281 241.452 4.0649 240.995 4.37602C240.912 4.4331 241.004 4.54597 241.094 4.52489C241.482 4.43386 241.688 4.03867 241.552 3.71135C241.405 3.3573 240.905 3.21433 240.519 3.32438C240.324 3.37992 240.129 3.50539 240.077 3.68847C240.033 3.84557 240.107 4.02582 240.282 4.09035C240.768 4.2688 241.053 3.65504 241.094 3.33775C241.124 3.11226 241.059 2.88239 240.844 2.74251C240.614 2.59287 240.306 2.60084 240.035 2.61703C239.906 2.62449 239.904 2.80242 240.035 2.79471Z" fill="#7A5FFF"/>
<path d="M271.953 7.12465C271.546 6.8917 271.002 6.73254 270.697 7.1771C270.501 7.46379 270.37 8.07653 270.785 8.26731C270.955 8.34548 271.149 8.29971 271.259 8.16318C271.388 8.0017 271.344 7.79137 271.227 7.63478C270.996 7.32341 270.482 7.17505 270.106 7.37483C269.735 7.57256 269.66 8.07086 269.974 8.33621C270.062 8.41104 270.175 8.31693 270.133 8.22823C269.899 7.74149 269.168 7.89294 268.936 8.29225C268.871 8.40538 268.853 8.5198 268.826 8.64219C268.782 8.84866 268.551 8.85612 268.368 8.92786C268.061 9.04845 267.796 9.23306 267.583 9.46165C267.501 9.54958 267.644 9.67634 267.726 9.58763C267.908 9.39222 268.125 9.23178 268.382 9.11839C268.571 9.03534 268.895 9.01837 268.992 8.8281C269.034 8.74556 269.022 8.64836 269.042 8.5612C269.07 8.43958 269.132 8.31924 269.232 8.23002C269.447 8.03744 269.83 8.0521 269.958 8.31822C270.011 8.28222 270.064 8.24622 270.117 8.21048C269.895 8.02278 269.949 7.67207 270.209 7.52859C270.528 7.35246 271.055 7.54273 271.126 7.87339C271.15 7.98396 271.106 8.15906 270.918 8.12383C270.759 8.09401 270.727 7.91685 270.724 7.80217C270.719 7.65689 270.753 7.50237 270.816 7.36815C270.89 7.2095 271.02 7.07297 271.228 7.05934C271.455 7.04468 271.67 7.17453 271.852 7.27815C271.96 7.34089 272.062 7.18688 271.953 7.12465Z" fill="#7A5FFF"/>
<path d="M243.737 15.8773C243.737 15.8773 243.734 6.92245 253.535 7.6825C262.825 8.40296 261.079 19.4294 258.626 20.5397L258.462 20.822C258.462 20.822 259.969 14.3279 256.698 11.0832C254.566 8.96889 250.981 8.68888 248.37 10.3347C247.01 11.1922 245.013 13.5066 243.737 15.8773Z" fill="white" stroke="white" stroke-width="0.153832" stroke-miterlimit="10"/>
<mask id="mask0_516_9802" style="mask-type:luminance" maskUnits="userSpaceOnUse" x="243" y="11" width="20" height="15">
<path d="M261.929 19.5279C261.462 19.0908 260.797 19.1118 260.204 19.3163C259.902 19.4204 259.619 19.5644 259.347 19.7197C259.184 19.8128 258.859 20.1519 258.661 20.1151C258.523 20.0899 258.502 19.8904 258.46 19.7953C258.091 18.9604 257.297 18.1857 256.66 17.4994C255.945 16.7299 255.183 15.9965 254.423 15.2622C253.127 14.0092 251.935 12.6321 251.139 11.0801C250.891 11.2763 250.392 11.6717 250.289 11.7658C249.297 12.6745 248.217 13.5217 247.052 14.2553C246.511 14.5955 245.949 14.9122 245.349 15.1658C244.816 15.3915 244.236 15.5787 243.637 15.5838C243.633 15.5838 243.631 15.5823 243.627 15.5821C243.491 15.9636 243.384 16.3573 243.311 16.7617C242.442 21.5705 245.245 24.8832 250.293 25.5811C253.272 25.993 256.141 24.92 258.003 22.9682C258.729 23.6161 260.155 23.412 261.229 22.492C262.326 21.5532 262.725 20.2743 261.929 19.5279Z" fill="white"/>
</mask>
<g mask="url(#mask0_516_9802)">
<path d="M261.929 19.5296C261.462 19.0925 260.797 19.1136 260.204 19.318C259.902 19.4221 259.619 19.5661 259.347 19.7214C259.184 19.8145 258.859 20.1536 258.661 20.1168C258.523 20.0916 258.502 19.8921 258.46 19.797C258.091 18.9621 257.297 18.1874 256.66 17.5011C255.945 16.7316 255.183 15.9982 254.423 15.2639C253.127 14.0109 251.935 12.6338 251.139 11.0818C250.891 11.278 250.392 11.6734 250.289 11.7675C249.297 12.6762 248.217 13.5234 247.052 14.257C246.511 14.5972 245.949 14.914 245.349 15.1675C244.816 15.3932 244.236 15.5804 243.637 15.5856C243.633 15.5856 243.631 15.584 243.627 15.5838C243.491 15.9653 243.384 16.359 243.311 16.7634C242.442 21.5722 245.245 24.8849 250.293 25.5828C253.272 25.9947 256.141 24.9217 258.003 22.9699C258.729 23.6178 260.155 23.4137 261.229 22.4937C262.326 21.5549 262.725 20.276 261.929 19.5296Z" fill="white" stroke="white" stroke-width="0.1584" stroke-miterlimit="10"/>
</g>
<mask id="mask1_516_9802" style="mask-type:luminance" maskUnits="userSpaceOnUse" x="243" y="11" width="20" height="15">
<path d="M261.929 19.5279C261.462 19.0908 260.797 19.1118 260.204 19.3163C259.902 19.4204 259.619 19.5644 259.347 19.7197C259.184 19.8128 258.859 20.1519 258.661 20.1151C258.523 20.0899 258.502 19.8904 258.46 19.7953C258.091 18.9604 257.297 18.1857 256.66 17.4994C255.945 16.7299 255.183 15.9965 254.423 15.2622C253.127 14.0092 251.935 12.6321 251.139 11.0801C250.891 11.2763 250.392 11.6717 250.289 11.7658C249.297 12.6745 248.217 13.5217 247.052 14.2553C246.511 14.5955 245.949 14.9122 245.349 15.1658C244.816 15.3915 244.236 15.5787 243.637 15.5838C243.633 15.5838 243.631 15.5823 243.627 15.5821C243.491 15.9636 243.384 16.3573 243.311 16.7617C242.442 21.5705 245.245 24.8832 250.293 25.5811C253.272 25.993 256.141 24.92 258.003 22.9682C258.729 23.6161 260.155 23.412 261.229 22.492C262.326 21.5532 262.725 20.2743 261.929 19.5279Z" fill="white"/>
</mask>
<g mask="url(#mask1_516_9802)">
<path d="M259.359 20.4252C259.712 20.1454 260.119 19.9024 260.606 19.7906C260.847 19.7361 261.126 19.7242 261.385 19.8276C261.641 19.9371 261.824 20.1387 261.889 20.3889C261.943 20.6414 261.852 20.8741 261.742 21.0705C261.624 21.267 261.479 21.4426 261.317 21.6012C260.995 21.9201 260.619 22.1862 260.215 22.4078C260.546 22.1075 260.859 21.7972 261.136 21.4724C261.27 21.3071 261.399 21.1405 261.488 20.9626C261.579 20.7882 261.638 20.6008 261.598 20.4396C261.566 20.2843 261.428 20.1236 261.261 20.0495C261.091 19.9672 260.871 19.9631 260.652 19.9901C260.213 20.0557 259.776 20.228 259.359 20.4252Z" fill="#1C1C1C"/>
<path d="M257.982 22.9849C258.091 22.8556 258.173 22.7116 258.251 22.5679C258.328 22.4231 258.396 22.2745 258.454 22.1231C258.578 21.8222 258.667 21.5114 258.757 21.199C258.735 21.3589 258.706 21.5183 258.666 21.6759C258.624 21.833 258.574 21.9889 258.514 22.1416C258.388 22.4434 258.234 22.7476 257.982 22.9849Z" fill="#1C1C1C"/>
<path d="M251.113 10.7734C250.79 10.902 250.486 11.1 250.348 11.397C250.232 11.6453 250.244 11.959 250.456 12.1663C250.639 12.3455 250.989 12.428 251.195 12.2293C251.352 12.077 251.355 11.8112 251.136 11.7029C250.857 11.5649 250.456 11.688 250.236 11.8623C249.997 12.0521 249.892 12.3578 249.962 12.6335C250.025 12.8829 250.28 13.1187 250.591 13.0297C250.843 12.9577 250.928 12.6443 250.665 12.5322C250.364 12.4039 250.018 12.6067 249.894 12.8474C249.727 13.1685 249.914 13.5228 250.155 13.7694C250.235 13.8517 250.37 13.7322 250.29 13.6504C250.117 13.4735 249.967 13.2264 250.039 12.986C250.071 12.8816 250.148 12.7862 250.25 12.726C250.318 12.6864 250.666 12.581 250.637 12.7762C250.613 12.9289 250.362 12.8811 250.281 12.816C250.177 12.7319 250.136 12.599 250.132 12.4784C250.123 12.2437 250.264 12.0195 250.496 11.9037C250.645 11.8294 251.163 11.7181 251.116 12.002C251.069 12.2848 250.674 12.1673 250.552 11.9999C250.219 11.5407 250.778 11.0905 251.21 10.9185C251.321 10.8742 251.224 10.7292 251.113 10.7734Z" fill="#1A0000"/>
<path d="M247.858 19.2926C247.937 19.0903 248.077 18.8992 248.28 18.7606C248.479 18.6202 248.753 18.5413 249.016 18.5709C249.145 18.5837 249.277 18.6161 249.395 18.6742C249.51 18.7375 249.61 18.8218 249.676 18.9226C249.812 19.1227 249.835 19.3551 249.793 19.5649C249.756 19.3551 249.677 19.1538 249.544 19.0016C249.41 18.8483 249.213 18.7665 248.995 18.7503C248.779 18.7236 248.563 18.7768 248.371 18.8761C248.179 18.9784 248.006 19.1234 247.858 19.2926Z" fill="#7A5FFF"/>
<g opacity="0.53">
<path d="M247.872 19.2893C247.872 19.2893 248.328 18.5287 249.159 18.7139C249.872 18.8728 249.794 19.6256 249.794 19.6256" fill="#7A5FFF"/>
<path d="M247.872 19.2908C247.959 19.0912 248.107 18.9051 248.316 18.7732C248.521 18.6397 248.799 18.5698 249.06 18.6081C249.188 18.6253 249.318 18.6618 249.434 18.724C249.546 18.7909 249.643 18.8788 249.704 18.9814C249.832 19.1858 249.844 19.4191 249.794 19.6271C249.765 19.4162 249.696 19.2123 249.568 19.056C249.442 18.8984 249.248 18.8102 249.031 18.7865C248.817 18.7526 248.598 18.7986 248.402 18.8914C248.206 18.9876 248.027 19.1267 247.872 19.2908Z" fill="#7A5FFF"/>
</g>
<path d="M243.654 17.2046C243.578 18.3015 244.534 19.2433 245.789 19.3079C247.043 19.3724 248.122 18.5357 248.197 17.4388C248.273 16.3419 247.317 15.4001 246.062 15.3356C244.808 15.2708 243.729 16.1077 243.654 17.2046Z" fill="white"/>
<path d="M244.762 16.8293C244.592 17.6611 245.155 18.4551 246.021 18.6029C246.887 18.7508 247.726 18.1962 247.897 17.3646C248.067 16.5331 247.503 15.7389 246.637 15.591C245.771 15.4432 244.932 15.9975 244.762 16.8293Z" fill="black" stroke="black" stroke-width="0.159654" stroke-miterlimit="10"/>
<path d="M248.254 17.0332C248.134 16.8142 248.001 16.6031 247.84 16.4133C247.684 16.2215 247.514 16.0415 247.316 15.8947C247.114 15.7525 246.897 15.6378 246.667 15.5566C246.432 15.4884 246.189 15.4437 245.937 15.4493C245.426 15.4481 244.924 15.5743 244.528 15.8422C244.117 16.1004 243.845 16.5251 243.684 16.9679L243.657 17.0422L243.594 17.0209C243.444 16.9705 243.295 16.9167 243.147 16.8581L243.154 16.837L243.617 16.9481L243.599 16.9584C243.697 16.4789 243.961 16.0155 244.39 15.6988C244.816 15.3809 245.383 15.2269 245.937 15.2341C246.217 15.2331 246.494 15.2825 246.753 15.3719C247.009 15.4707 247.243 15.6085 247.444 15.7777C247.838 16.1243 248.116 16.5617 248.278 17.0283L248.254 17.0332Z" fill="black"/>
<path d="M243.676 16.6702L243.248 16.365L243.788 16.4599L243.676 16.6702Z" fill="black"/>
<path d="M243.892 16.2261L243.535 15.8772L244.039 16.0328L243.892 16.2261Z" fill="black"/>
<path d="M247.562 18.8005C247.284 19.0005 246.957 19.1502 246.609 19.2468C246.261 19.3445 245.885 19.381 245.515 19.3389C245.329 19.3217 245.151 19.2671 244.974 19.2142C244.81 19.1365 244.637 19.0712 244.499 18.9604C244.345 18.8691 244.23 18.7406 244.108 18.6223C243.997 18.4963 243.907 18.3562 243.817 18.2217C244.064 18.451 244.306 18.676 244.602 18.8318C244.886 18.9987 245.21 19.1054 245.545 19.1391C245.88 19.1807 246.225 19.1574 246.563 19.0951C246.901 19.0283 247.238 18.9337 247.562 18.8005Z" fill="black"/>
<path d="M255.971 19.1504C255.65 20.2856 254.299 20.9803 252.954 20.7024C251.609 20.4242 250.778 19.2784 251.099 18.1432C251.421 17.008 252.771 16.3133 254.117 16.5912C255.462 16.8692 256.292 18.0149 255.971 19.1504Z" fill="white"/>
<path d="M255.965 18.6309C255.842 19.508 254.979 20.1498 254.035 20.0647C253.092 19.9796 252.426 19.1994 252.549 18.3224C252.671 17.4453 253.535 16.8036 254.478 16.8887C255.422 16.974 256.087 17.7539 255.965 18.6309Z" fill="black" stroke="black" stroke-width="0.169292" stroke-miterlimit="10"/>
<path d="M251.188 17.7863C251.457 17.3168 251.882 16.9126 252.424 16.6362C252.695 16.4974 253.003 16.4105 253.322 16.3747C253.64 16.3506 253.968 16.366 254.275 16.4444C254.88 16.5848 255.444 16.9224 255.801 17.395C255.979 17.6321 256.071 17.9072 256.122 18.1759C256.173 18.4474 256.161 18.7187 256.087 18.9853L256.013 18.9061C256.184 18.9246 256.356 18.9467 256.527 18.9743L256.526 18.9974L256.011 18.9868L255.994 18.9866L255.996 18.9714C256.065 18.4657 255.945 17.9285 255.615 17.5066C255.283 17.0836 254.761 16.8 254.203 16.6619C253.926 16.5845 253.633 16.5658 253.343 16.5809C253.055 16.61 252.773 16.6807 252.51 16.7915C251.991 17.0229 251.545 17.3803 251.211 17.7989L251.188 17.7863Z" fill="black"/>
<path d="M256.014 18.4243L256.602 18.4768L256.052 18.6683L256.014 18.4243Z" fill="black"/>
<path d="M255.918 17.9304L256.49 17.9124L255.996 18.1669L255.918 17.9304Z" fill="black"/>
<path d="M251.301 19.7485C251.447 19.8581 251.592 19.964 251.751 20.0545C251.902 20.152 252.062 20.2384 252.226 20.3142C252.554 20.4649 252.9 20.5814 253.258 20.6284C253.614 20.6847 253.983 20.6639 254.335 20.5765C254.696 20.504 255.022 20.3379 255.36 20.1777C255.218 20.2885 255.075 20.4055 254.915 20.5014C254.746 20.5857 254.581 20.6809 254.392 20.7331C254.212 20.8084 254.012 20.8259 253.816 20.8593C253.618 20.8647 253.417 20.8719 253.22 20.8393C252.827 20.7822 252.453 20.648 252.13 20.4543C251.808 20.262 251.517 20.0288 251.301 19.7485Z" fill="black"/>
<path opacity="0.49" d="M250.071 20.3709C250.007 20.7283 249.589 21.3693 248.659 21.2579C248.015 21.1811 247.598 20.528 247.662 20.1706C247.662 20.1706 248.281 20.0564 248.932 20.0914C249.385 20.1158 250.071 20.3709 250.071 20.3709Z" fill="#7A5FFF"/>
<path d="M247.245 19.8469C247.485 20.0285 247.738 20.1848 248.002 20.3113C248.268 20.4347 248.55 20.5239 248.838 20.5481C249.124 20.5759 249.42 20.5481 249.697 20.4522C249.843 20.4195 249.97 20.3442 250.111 20.2907C250.246 20.2264 250.372 20.1465 250.514 20.0799C250.412 20.1845 250.305 20.291 250.185 20.3851C250.053 20.465 249.933 20.5666 249.778 20.6196C249.49 20.7607 249.142 20.8091 248.809 20.78C248.475 20.7471 248.158 20.6324 247.894 20.4656C247.63 20.2987 247.402 20.0912 247.245 19.8469Z" fill="#3B130E"/>
<path d="M244.414 14.7348C244.475 14.4715 244.644 14.2298 244.871 14.0437C245.094 13.8516 245.377 13.7171 245.672 13.6294C245.972 13.5541 246.283 13.5243 246.585 13.5513C246.736 13.5598 246.884 13.596 247.029 13.6235C247.17 13.6726 247.311 13.7122 247.444 13.7742L247.447 13.7755C247.453 13.7786 247.455 13.7855 247.452 13.7909C247.45 13.7953 247.444 13.7976 247.439 13.7968L247.015 13.7457C246.873 13.7426 246.731 13.7287 246.589 13.7344C246.305 13.7408 246.022 13.7786 245.751 13.8519C245.215 13.9992 244.716 14.307 244.439 14.7448C244.435 14.7505 244.427 14.7526 244.421 14.7492C244.416 14.7466 244.413 14.7415 244.414 14.7369V14.7348Z" fill="#2E2E2E"/>
<path d="M256.393 16.2331C256.23 16.0174 256.04 15.8421 255.849 15.6826C255.652 15.5271 255.444 15.3924 255.218 15.2803C255.103 15.2255 254.989 15.1694 254.865 15.1273C254.748 15.0707 254.618 15.0422 254.493 14.9933L253.685 14.7532L253.681 14.7519C253.674 14.7498 253.67 14.7434 253.672 14.7375C253.675 14.7326 253.68 14.7295 253.685 14.7298L254.115 14.7521C254.256 14.7735 254.4 14.7845 254.539 14.8146C254.82 14.8701 255.093 14.9565 255.348 15.0774C255.844 15.3327 256.256 15.7364 256.419 16.228C256.421 16.2339 256.417 16.2401 256.41 16.2419C256.404 16.2432 256.399 16.2414 256.396 16.2373L256.393 16.2331Z" fill="#2E2E2E"/>
</g>
</svg>
