<svg width="96" height="155" viewBox="0 0 96 155" fill="none" xmlns="http://www.w3.org/2000/svg">
<path opacity="0.39" d="M73.7821 149.641C73.7821 152.246 62.6126 154.358 48.8344 154.358C35.0562 154.358 23.8867 152.246 23.8867 149.641C23.8867 147.036 35.0562 144.925 48.8344 144.925C62.6126 144.925 73.7821 147.036 73.7821 149.641Z" fill="#7A5FFF"/>
<path d="M89.949 56.0424C89.949 56.0424 95.1231 53.5719 95.287 47.2508C95.451 40.9297 88.2623 40.7495 88.2623 40.7495C91.8894 37.7607 90.896 32.6733 90.896 32.6733C90.9048 23.3501 83.6433 23.0009 83.6433 23.0009C83.6433 23.0009 86.405 19.69 85.0977 15.3725C82.5566 6.9801 74.226 9.19989 74.226 9.19989C73.3165 4.85592 69.9504 1.43984 65.6844 0.770009C65.6197 0.759715 65.5557 0.750173 65.491 0.740614C61.1367 0.106077 56.8788 2.47878 54.8538 6.50658L54.5693 7.07275C54.4068 6.53821 54.1281 5.9897 53.7936 5.45957C52.0635 2.71849 49.1901 0.969269 46.0468 0.500902C38.5765 -0.61156 35.0891 5.14341 35.0891 5.14341C32.0112 1.40751 25.0005 2.83391 25.0005 2.83391C9.59217 6.58158 13.5435 22.3266 13.5435 22.3266C13.5435 22.3266 6.34815 17.7591 1.67257 28.4029C-3.00227 39.0474 6.29742 46.3295 6.29742 46.3295C4.89012 46.9059 3.59532 49.7132 3.59532 49.7132C0.28293 60.415 13.6707 63.3627 13.6707 63.3627C9.0319 74.0227 22.1866 73.6161 22.1866 73.6161C23.5983 79.3512 28.1195 74.7101 28.1195 74.7101C27.9386 81.8797 33.2237 78.5284 33.2237 78.5284C34.5538 82.7569 38.1235 78.2188 38.1235 78.2188L38.8654 78.0725C38.997 79.86 40.4558 81.3099 42.3175 81.3849C43.9608 81.4518 45.3762 80.4224 45.8784 78.9629C46.8379 80.5364 48.6636 81.6415 50.8054 81.7283C53.9936 81.8577 56.6736 79.6857 56.8641 76.8564C57.4508 77.6747 58.3927 78.2328 59.4875 78.2776C60.9728 78.3379 62.2595 77.4409 62.7697 76.1491C65.33 81.4731 69.6974 77.1542 69.6974 77.1542C73.8017 79.9813 75.4215 75.3903 75.4215 75.3903C75.4215 75.3903 79.1464 78.3012 83.0852 72.9448C85.2932 69.9419 83.0374 65.009 83.0374 65.009C83.0374 65.009 87.6123 68.4295 90.8651 64.4119C94.4598 59.9702 89.949 56.0424 89.949 56.0424Z" fill="#1A0000" stroke="#1A0000" stroke-width="0.716226" stroke-miterlimit="10" stroke-linecap="round"/>
<path d="M5.86143 13.141C6.89375 12.9049 8.1768 12.8704 8.27753 14.2336C8.31135 14.6872 8.22827 15.1622 8.0746 15.5894C7.96504 15.8953 7.75548 16.271 7.39814 16.3261C6.9636 16.3938 6.79596 15.9394 6.92978 15.599C7.3033 14.6468 8.80397 14.5409 9.48042 15.1924C10.1186 15.8056 9.91643 16.9592 9.10911 17.3092C9.21572 17.4474 9.32162 17.5849 9.42823 17.7232C9.95321 17.157 10.834 17.3893 11.2039 18.0084C11.3906 18.3209 11.4465 18.7062 11.4215 19.0635C11.3965 19.415 11.2061 19.7613 11.2657 20.1165C11.3561 20.6525 12.0296 20.9539 12.3781 21.3083C12.9171 21.8539 13.3105 22.512 13.5612 23.2347C13.6715 23.5531 14.1803 23.4163 14.0692 23.095C13.7891 22.287 13.3538 21.5473 12.7509 20.9363C12.3958 20.576 11.7745 20.2892 11.8289 19.7297C11.8686 19.3187 11.9855 18.9797 11.9274 18.5533C11.8384 17.8989 11.4701 17.2813 10.8473 17.0144C10.2348 16.7526 9.51498 16.857 9.05617 17.3518C8.84148 17.5834 9.10984 17.8805 9.37527 17.7658C10.3186 17.357 10.6466 16.0967 10.1613 15.2196C9.6113 14.2262 8.22532 14.0174 7.2783 14.524C6.79964 14.7799 6.35994 15.2482 6.34965 15.8195C6.34083 16.3159 6.65478 16.7894 7.16947 16.8555C8.48854 17.0269 8.88926 15.1321 8.79883 14.1667C8.74 13.5395 8.45619 12.9542 7.87606 12.6586C7.21138 12.3197 6.41288 12.4777 5.72173 12.6358C5.39159 12.7086 5.53129 13.216 5.86143 13.141Z" fill="#1A0000"/>
<path d="M93.8092 17.5319C92.7784 16.7908 91.3902 16.2592 90.538 17.5481C89.9991 18.3635 89.588 20.0811 90.5674 20.7326C90.9953 21.0171 91.5284 20.9414 91.8534 20.5392C92.2085 20.0988 92.1512 19.4929 91.896 19.0186C91.3836 18.065 90.1152 17.5393 89.1027 17.9907C88.0079 18.479 87.6903 20.0134 88.5079 20.8825C88.6807 21.0664 89.0417 20.8767 88.9483 20.6259C88.4065 19.1708 86.5558 19.3958 85.8367 20.5634C85.6242 20.9083 85.5646 21.2634 85.4713 21.648C85.3301 22.2244 84.7426 22.2259 84.2559 22.4156C83.4287 22.7391 82.7067 23.2531 82.1126 23.9104C81.8861 24.1611 82.2574 24.5346 82.4853 24.2832C82.9868 23.728 83.5765 23.281 84.2639 22.981C84.7286 22.7788 85.4992 22.7575 85.8146 22.3134C85.9507 22.1222 85.9602 21.8921 85.9977 21.6693C86.0632 21.2869 86.1889 20.912 86.4455 20.6112C86.9683 20.0002 88.1087 19.876 88.4403 20.7656C88.5866 20.6803 88.7337 20.5951 88.8807 20.5098C88.2668 19.8568 88.6079 18.6981 89.4447 18.4201C90.2917 18.1385 91.5946 18.801 91.5836 19.7899C91.5777 20.3179 90.9784 20.5848 90.6615 20.0899C90.5292 19.8826 90.5196 19.612 90.524 19.3752C90.5329 18.9186 90.6615 18.4032 90.8792 18.001C91.5181 16.8224 92.682 17.3665 93.543 17.9863C93.8195 18.1848 94.0827 17.7283 93.8092 17.5319Z" fill="#1A0000"/>
<path d="M67.3792 50.9726C67.3792 50.9726 77.2392 21.5501 45.241 21.3736C17.9405 21.2229 23.294 50.3462 23.294 50.3462L24.1447 50.2543C24.1447 50.2543 23.594 25.7772 46.8072 27.4859C68.4498 29.0793 66.0742 51.5513 66.0742 51.5513L67.3792 50.9726Z" fill="#FFD44D" stroke="#FFD44D" stroke-width="0.16595" stroke-miterlimit="10"/>
<path d="M42.5588 68.7493L42.6147 73.8425L39.1626 73.9131C39.1626 73.9131 37.8267 80.9864 45.8396 81.4518C52.7063 81.8503 53.757 73.6873 53.757 73.6873L49.4726 73.5557V68.4934L42.5588 68.7493Z" fill="#B44A24" stroke="#B44A24" stroke-width="0.530717" stroke-miterlimit="10"/>
<path d="M71.5737 51.2065C69.8127 50.1411 67.5054 50.5183 65.6231 51.958C65.7577 51.0441 65.843 50.1132 65.8621 49.164C65.868 48.8662 65.8511 48.5743 65.8459 48.2787C65.5401 48.2765 65.2342 48.275 64.9283 48.2625C61.9093 48.139 60.0064 45.817 57.3146 44.4266C55.0772 43.2708 54.2632 43.0649 52.6398 41.1393C51.1119 39.3283 46.7164 35.3417 45.9429 31.9734C43.8695 35.288 40.5769 39.0702 37.8263 41.0459C33.5897 44.0884 29.7788 47.5626 24.5495 48.1331C24.5481 48.1934 24.5429 48.253 24.5414 48.3133C24.5282 48.9507 24.5473 49.5816 24.5878 50.2066C23.4672 49.4757 22.1856 49.1846 20.9394 49.4904C18.1159 50.1853 16.5491 53.68 17.4388 57.2975C18.3284 60.9143 21.3386 63.2833 24.162 62.5885C25.6341 62.226 26.7597 61.0989 27.3788 59.5938C30.892 65.7737 37.3248 69.9787 44.7621 70.1316C52.2567 70.286 58.9042 66.2884 62.6526 60.1783C62.9901 61.2606 63.6409 62.1716 64.5908 62.7466C67.0782 64.2517 70.6583 62.8885 72.5861 59.7019C74.5147 56.5152 74.0618 52.7116 71.5737 51.2065Z" fill="#CD5428" stroke="#CD5428" stroke-width="0.67255" stroke-miterlimit="10"/>
<path d="M25.3509 53.3432C24.5516 52.4234 23.5935 51.583 22.509 51.2514C21.4363 50.9014 20.2716 51.4896 19.6863 52.3992C19.0981 53.3344 19.1099 54.5851 19.2922 55.752C19.4907 56.9336 19.8415 58.1093 20.2878 59.2563C19.6216 58.2181 19.0996 57.0747 18.7989 55.8513C18.5099 54.6513 18.4077 53.2491 19.1283 52.0499C19.4922 51.4624 20.0451 51.0271 20.6694 50.7624C21.3054 50.4992 22.0532 50.5022 22.6745 50.7426C23.931 51.233 24.7641 52.272 25.3509 53.3432Z" fill="#8B2A0C"/>
<path d="M27.9548 60.3569C27.3857 59.5606 27.0431 58.629 26.7512 57.7026C26.6144 57.2342 26.499 56.7607 26.4019 56.2835C26.3071 55.8056 26.2402 55.3233 26.1895 54.8395C26.4122 55.7865 26.6247 56.7313 26.9093 57.6555C27.0423 58.1202 27.1975 58.5783 27.3666 59.0312C27.5416 59.4805 27.7195 59.9319 27.9548 60.3569Z" fill="#8B2A0C"/>
<path d="M65.3994 54.3931C66.1141 53.4027 67.0692 52.4741 68.375 52.1432C69.0213 51.9814 69.764 52.0704 70.3625 52.4108C70.9492 52.7512 71.444 53.2505 71.733 53.8792C72.2999 55.1585 72.0249 56.5372 71.5896 57.6923C71.1404 58.8687 70.4816 59.9392 69.6919 60.887C70.2764 59.8032 70.7706 58.6805 71.1132 57.5327C71.4382 56.3974 71.6051 55.157 71.1367 54.1571C70.6684 53.1828 69.586 52.4542 68.478 52.6696C67.3604 52.8638 66.306 53.5792 65.3994 54.3931Z" fill="#8B2A0C"/>
<path d="M62.2695 60.7415C62.4879 60.3069 62.6482 59.8488 62.8055 59.393C62.957 58.9342 63.0945 58.4709 63.2092 58.0011C63.4585 57.0666 63.6335 56.1144 63.8195 55.1593C63.7879 55.6446 63.7401 56.1299 63.6629 56.6107C63.5849 57.0916 63.4879 57.5695 63.3688 58.0423C63.1136 58.979 62.807 59.9239 62.2695 60.7415Z" fill="#8B2A0C"/>
<path d="M67.4702 65.0744L66.2364 63.2738L64.9931 64.8928L65.2372 62.3672L63.8203 61.5231L65.5769 61.4003L66.3805 59.5651L66.9503 61.4731L68.751 61.7856L67.3562 62.5958L67.4702 65.0744Z" fill="white" stroke="white" stroke-width="0.170582" stroke-miterlimit="10" stroke-linecap="round"/>
<path d="M25.4607 64.8378L23.9513 63.2621L22.9873 65.0613L22.8175 62.5297L21.2822 61.9268L22.9954 61.5202L23.4902 59.5791L24.363 61.368L26.1901 61.3849L24.9461 62.4106L25.4607 64.8378Z" fill="white" stroke="white" stroke-width="0.170582" stroke-miterlimit="10" stroke-linecap="round"/>
<path opacity="0.49" d="M39.7731 59.8267C39.4885 62.9942 36.6893 65.3309 33.5218 65.0457C30.3543 64.7611 28.0176 61.9619 28.3029 58.7944C28.5882 55.6269 31.3866 53.2902 34.5541 53.5755C37.7217 53.86 40.0583 56.6592 39.7731 59.8267Z" fill="#8B2A0C" stroke="#8B2A0C" stroke-width="0.747327" stroke-miterlimit="10"/>
<path opacity="0.49" d="M62.2682 59.5509C61.9829 62.7185 59.1845 65.0552 56.0169 64.7699C52.8494 64.4854 50.5127 61.6862 50.798 58.5186C51.0833 55.3511 53.8817 53.0144 57.0493 53.2997C60.2161 53.585 62.5527 56.3834 62.2682 59.5509Z" fill="#8B2A0C" stroke="#8B2A0C" stroke-width="0.747327" stroke-miterlimit="10"/>
<path d="M45.7036 31.9078C45.5323 32.8505 45.1095 33.7313 44.7566 34.6151C44.4404 35.4062 44.2603 36.2393 44.6647 37.0422C45.0257 37.7591 45.9433 38.3047 46.7301 37.9113C47.322 37.6157 47.555 36.7224 47.0668 36.2231C46.4683 35.6121 45.375 36.1275 44.8654 36.6025C44.1611 37.2584 43.939 38.3164 44.2868 39.2091C44.5662 39.9252 45.3228 40.5811 46.1205 40.2164C46.7279 39.9384 46.947 38.9723 46.2014 38.7032C45.3492 38.3951 44.5353 39.2546 44.375 40.0156C44.1537 41.0656 44.8956 41.9832 45.7 42.5486C45.9624 42.7332 46.2117 42.3016 45.9514 42.1185C45.3551 41.6994 44.7595 41.034 44.8441 40.2495C44.8838 39.8855 45.0779 39.5098 45.3912 39.3054C45.4912 39.2399 45.7764 39.0774 45.8838 39.151C45.9492 39.3186 46.0154 39.4855 46.0808 39.6524C45.9676 39.7583 45.8345 39.8149 45.6823 39.8215C44.7934 39.873 44.5213 38.5613 44.664 37.915C44.8235 37.1937 45.5162 36.4709 46.2948 36.4628C46.7816 36.4577 46.997 36.926 46.6985 37.3069C46.3749 37.7194 45.7235 37.5179 45.4029 37.2194C44.8765 36.7297 44.8309 35.9246 45.0368 35.279C45.3845 34.1857 45.9764 33.1791 46.1838 32.0394C46.2411 31.727 45.761 31.5924 45.7036 31.9078Z" fill="#1A0000"/>
<path d="M36.7388 37.4689C36.0123 37.3792 35.327 37.4108 34.6756 37.4747C34.0234 37.5556 33.3984 37.6961 32.7926 37.9152C32.186 38.1358 31.6007 38.4269 31.0103 38.7571C30.714 38.9195 30.4324 39.1166 30.1228 39.2872C29.8155 39.4659 29.539 39.6835 29.1978 39.8548L29.1846 39.8614C29.1692 39.8695 29.15 39.8629 29.142 39.8475C29.1361 39.835 29.1383 39.821 29.1471 39.8114L29.8816 39.0328C30.1544 38.8034 30.4074 38.5475 30.6978 38.3387C31.2669 37.9049 31.897 37.5512 32.5668 37.2902C33.9212 36.827 35.455 36.8064 36.7689 37.4093C36.7851 37.4167 36.7917 37.4358 36.7844 37.4512C36.7785 37.4644 36.7652 37.4711 36.7513 37.4696L36.7388 37.4689Z" fill="#2E2E2E"/>
<path d="M52.624 37.1291C53.1395 36.5718 53.8505 36.2027 54.6056 36.0439C55.3629 35.866 56.1629 35.9042 56.9217 36.0762C57.6702 36.288 58.3775 36.6189 58.9746 37.0858C59.2819 37.3041 59.5378 37.5879 59.8017 37.8453C60.0267 38.1504 60.2628 38.4328 60.4473 38.757L60.451 38.7644C60.4598 38.7798 60.4547 38.7997 60.4385 38.8092C60.426 38.8158 60.4113 38.8144 60.401 38.8055L59.587 38.1218C59.2915 37.9269 59.0143 37.7041 58.7047 37.5328C58.0967 37.1718 57.4401 36.8983 56.7592 36.7203C55.4026 36.3806 53.8916 36.4887 52.6586 37.1857C52.6424 37.1946 52.6226 37.1894 52.6137 37.1733C52.6064 37.1608 52.6086 37.1446 52.6182 37.135L52.624 37.1291Z" fill="#2E2E2E"/>
<path d="M42.0713 55.0329C42.1764 54.2785 42.5007 53.5388 43.033 52.9396C43.5565 52.3389 44.3521 51.9102 45.1785 51.8683C45.5851 51.8418 46.0094 51.8815 46.4108 52.0198C46.8042 52.1771 47.166 52.4168 47.4321 52.7322C47.9733 53.3572 48.2012 54.1543 48.1968 54.9131C47.9409 54.2028 47.5858 53.5381 47.074 53.0822C46.5667 52.6205 45.9086 52.4433 45.2263 52.508C44.5462 52.5337 43.9153 52.8396 43.3845 53.294C42.8551 53.7557 42.4264 54.3638 42.0713 55.0329Z" fill="#8B2A0C"/>
<g opacity="0.53">
<path d="M48.2398 55.1439C48.2398 55.1439 48.0074 52.4682 45.7119 52.3079C43.0385 52.1212 42.1143 55.0328 42.1143 55.0328" fill="#8B2A0C"/>
<path d="M48.24 55.1439C48.0121 54.4241 47.6827 53.7462 47.1886 53.2712C46.6982 52.7911 46.0482 52.5889 45.3637 52.6286C44.6835 52.6293 44.0416 52.9109 43.4946 53.3447C42.9483 53.7874 42.4968 54.3792 42.1152 55.0336C42.2483 54.2837 42.5998 53.5557 43.1549 52.9771C43.7012 52.397 44.5129 51.9984 45.3401 51.9881C45.7475 51.9779 46.1702 52.0323 46.5658 52.1867C46.9533 52.358 47.3048 52.6124 47.5584 52.9374C48.0746 53.5822 48.2724 54.3859 48.24 55.1439Z" fill="#8B2A0C"/>
</g>
<path d="M60.9222 49.625C60.8362 52.647 58.237 55.0131 55.118 54.9094C51.9982 54.8057 49.5395 52.272 49.6263 49.2508C49.7123 46.2288 52.3114 43.8627 55.4305 43.9664C58.5502 44.0701 61.009 46.6031 60.9222 49.625Z" fill="white"/>
<path d="M57.0945 52.7273C59.2457 52.449 60.7542 50.4034 60.4638 48.1583C60.1733 45.9132 58.1939 44.3188 56.0427 44.5971C53.8914 44.8755 52.3829 46.9211 52.6734 49.1662C52.9638 51.4113 54.9432 53.0057 57.0945 52.7273Z" fill="#280707" stroke="#280707" stroke-width="0.626964" stroke-miterlimit="10"/>
<path d="M49.4482 48.2713C49.7968 46.9589 50.5438 45.7398 51.6224 44.8082C52.6959 43.8501 54.2297 43.4362 55.6686 43.5457C57.0855 43.6399 58.5067 44.2391 59.556 45.2523C60.0802 45.7626 60.4398 46.4089 60.7045 47.0611C60.9721 47.7191 61.1015 48.4088 61.0846 49.1191L60.8809 48.9544C61.2743 48.9264 61.6691 48.9066 62.0669 48.9007L62.0772 48.9595L60.9162 49.1603L60.8802 49.1669L60.8765 49.1286C60.7471 47.8184 60.1707 46.5287 59.2038 45.6244C58.2347 44.72 56.9296 44.2362 55.6157 44.1273C54.9583 44.0641 54.2922 44.1141 53.6547 44.2869C53.0238 44.4766 52.4217 44.767 51.8908 45.1641C50.8416 45.9707 50.0269 47.0772 49.5049 48.2912L49.4482 48.2713Z" fill="black"/>
<path d="M60.6035 47.7507L61.9425 47.6265L60.8101 48.3514L60.6035 47.7507Z" fill="black"/>
<path d="M60.0986 46.5545L61.3618 46.2611L60.3898 47.1192L60.0986 46.5545Z" fill="black"/>
<path d="M51.1406 53.5338C51.9288 53.9087 52.7487 54.1793 53.5707 54.3779C54.3957 54.5639 55.2368 54.6484 56.0596 54.5639C56.886 54.5036 57.6867 54.2381 58.4065 53.8176C59.1521 53.4257 59.7705 52.8308 60.4035 52.2242C60.1646 52.5845 59.93 52.9654 59.6374 53.2963C59.3278 53.6124 59.0234 53.9462 58.636 54.1823C58.2838 54.4712 57.8522 54.6278 57.4426 54.8227C57.0066 54.9514 56.5684 55.0786 56.1132 55.1124C55.2089 55.194 54.2979 55.0727 53.4545 54.7903C52.6104 54.5117 51.8171 54.0911 51.1406 53.5338Z" fill="black"/>
<path d="M28.4139 49.0323C28.0904 51.9543 30.3249 54.5806 33.4042 54.8983C36.4843 55.2159 39.243 53.105 39.5665 50.183C39.89 47.261 37.6556 44.6347 34.5762 44.317C31.4962 43.9994 28.7375 46.1103 28.4139 49.0323Z" fill="white"/>
<path d="M31.6779 48.2308C31.1551 50.4337 32.4433 52.6197 34.555 53.1152C36.6667 53.6101 38.8026 52.2263 39.3261 50.0234C39.8489 47.8213 38.5607 45.6346 36.449 45.1398C34.3366 44.6442 32.2006 46.028 31.6779 48.2308Z" fill="#280707" stroke="#280707" stroke-width="0.626964" stroke-miterlimit="10"/>
<path d="M39.7515 49.1057C39.4846 48.4955 39.1787 47.908 38.8022 47.3786C38.4383 46.8433 38.0346 46.3463 37.564 45.9345C37.0839 45.5338 36.5655 45.211 36.0148 44.9654C35.4538 44.7412 34.8553 44.6243 34.2465 44.611C33.0105 44.5603 31.7569 44.7882 30.7518 45.4735C29.715 46.1117 28.9614 47.2102 28.5114 48.4028L28.4364 48.6013L28.2872 48.5381C27.9239 48.3844 27.5636 48.2219 27.207 48.0462L27.2247 47.9889L28.3497 48.3389L28.3063 48.3653C28.6099 47.061 29.357 45.8455 30.454 45.0573C31.554 44.275 32.9377 43.9486 34.2744 44.028C34.9465 44.0603 35.6126 44.2088 36.2303 44.4772C36.8398 44.761 37.4037 45.1426 37.8787 45.6191C38.8147 46.5838 39.464 47.7999 39.811 49.094L39.7515 49.1057Z" fill="black"/>
<path d="M28.5443 47.6184L27.5215 46.7449L28.831 47.0515L28.5443 47.6184Z" fill="black"/>
<path d="M29.127 46.4544L28.2822 45.4713L29.4925 45.9353L29.127 46.4544Z" fill="black"/>
<path d="M37.8284 53.7453C37.1137 54.2519 36.2916 54.6129 35.4292 54.8313C34.5667 55.0519 33.6498 55.1063 32.7535 54.9593C32.3021 54.8924 31.8742 54.7343 31.4484 54.574C31.0536 54.3497 30.6345 54.1622 30.3044 53.8483C29.9353 53.5851 29.6558 53.2299 29.3706 52.8924C29.1022 52.5402 28.8963 52.1446 28.6846 51.7675C29.2713 52.4182 29.8456 53.0564 30.5602 53.502C31.2477 53.9733 32.0271 54.2968 32.8469 54.4166C33.6616 54.5607 34.5064 54.5372 35.3432 54.4122C36.1777 54.2718 37.0151 54.0622 37.8284 53.7453Z" fill="black"/>
<path opacity="0.49" d="M50.0734 59.8229C50.1763 60.5185 48.4768 63.5167 45.6438 63.6366C43.0495 63.7461 40.667 61.7507 40.7669 60.4788C40.7669 60.4788 43.4799 58.8314 46.006 59.03C48.5321 59.2286 50.0734 59.8229 50.0734 59.8229Z" fill="#8B2A0C"/>
<path d="M39.3685 59.7716C39.865 60.003 40.3625 60.2182 40.881 60.3753C41.3898 60.5552 41.9109 60.6873 42.4343 60.7996C43.4835 61.0052 44.5527 61.0844 45.6054 60.9829C46.6572 60.8939 47.7014 60.6514 48.6787 60.225C49.6806 59.8417 50.5748 59.2344 51.4913 58.6315C51.0991 59.0076 50.7064 59.4009 50.27 59.7384C49.8113 60.0439 49.3681 60.3854 48.8576 60.6142C47.8779 61.1531 46.7651 61.4325 45.6517 61.5379C44.5346 61.6315 43.4003 61.5291 42.332 61.2141C41.2671 60.9006 40.2426 60.4376 39.3685 59.7716Z" fill="#3B130E"/>
<path d="M35.4043 115.494L41.5607 144.817L40.6696 149.433H49.9847L48.2031 144.25L48.2678 115.888L35.4043 115.494Z" fill="#B44A24" stroke="#B44A24" stroke-width="0.663727" stroke-miterlimit="10"/>
<path d="M48.2232 135.491C45.391 135.706 42.4911 135.425 39.7441 136.163L41.561 144.817L40.6698 149.433H49.985L48.2027 144.249L48.2232 135.491Z" fill="white" stroke="white" stroke-width="0.663727" stroke-miterlimit="10"/>
<path d="M48.2055 142.725C47.529 142.799 46.8481 142.854 46.1724 142.93C44.5372 143.114 42.8997 143.305 41.255 143.363L41.5601 144.817L40.6689 149.433H49.9841L48.2018 144.249L48.2055 142.725Z" fill="black" stroke="black" stroke-width="0.663727" stroke-miterlimit="10"/>
<path opacity="0.49" d="M45.8364 129.052C45.7886 130.1 44.3085 130.885 42.5306 130.804C40.7528 130.723 39.3499 129.808 39.3977 128.76C39.4455 127.711 40.9256 126.928 42.7034 127.008C44.4813 127.089 45.8842 128.005 45.8364 129.052Z" fill="#8B2A0C" stroke="#8B2A0C" stroke-width="0.321092" stroke-miterlimit="10"/>
<path d="M49.985 114.198C49.985 114.198 44.8822 124.161 46.988 131.776C49.0938 139.39 50.0658 145.465 50.0658 145.465L49.985 149.434L59.0574 147.085L55.9796 142.792C55.9796 142.792 57.681 135.826 56.0605 129.346L62.2169 114.198H49.985Z" fill="#CD5428" stroke="#CD5428" stroke-width="0.67255" stroke-miterlimit="10"/>
<path d="M56.7565 135.979C53.9985 136.543 51.2353 137.081 48.4707 137.613C49.553 142.267 50.0662 145.464 50.0662 145.464L49.9854 149.433L59.0579 147.084L55.98 142.791C55.98 142.791 56.7013 139.833 56.7565 135.979Z" fill="white" stroke="white" stroke-width="0.67255" stroke-miterlimit="10"/>
<path d="M56.2539 141.411C55.1591 141.617 54.0797 141.949 52.9944 142.199C51.8673 142.459 50.7313 142.677 49.5791 142.783C49.9063 144.463 50.0673 145.464 50.0673 145.464L49.9864 149.433L59.0589 147.084L55.9811 142.791C55.9796 142.792 56.1046 142.28 56.2539 141.411Z" fill="black" stroke="black" stroke-width="0.67255" stroke-miterlimit="10"/>
<path opacity="0.49" d="M53.2081 128.01C53.2081 129.059 51.7655 129.91 49.9854 129.91C48.2053 129.91 46.7627 129.059 46.7627 128.01C46.7627 126.961 48.2053 126.11 49.9854 126.11C51.7655 126.11 53.2081 126.961 53.2081 128.01Z" fill="#8B2A0C" stroke="#8B2A0C" stroke-width="0.321092" stroke-miterlimit="10"/>
<path d="M66.0132 86.886C67.4749 89.8865 67.4759 93.3803 66.1824 96.428L59.7583 111.562C59.6515 111.813 59.2723 111.699 59.3172 111.43L59.9292 107.93L57.4535 112.239C57.3601 112.395 57.1196 112.278 57.1829 112.107L58.8693 107.111L55.839 111.409C55.6757 111.597 55.3755 111.394 55.4871 111.172L57.7715 106.495C57.7715 106.495 54.5479 110.166 54.527 109.995C54.506 109.823 57.0876 105.787 57.0876 105.787L54.9512 106.57C54.8083 106.647 54.6465 106.501 54.7082 106.351L57.5209 102.697L60.0743 91.5373L50.887 80.5359L54.7102 73.6391C54.7102 73.6391 63.7202 82.1793 66.0132 86.886Z" fill="#B44A24" stroke="#B44A24" stroke-width="0.530717" stroke-miterlimit="10"/>
<path d="M62.0112 81.1101C58.5526 77.3214 55.64 73.5455 55.64 73.5455L50.8839 80.7204L56.969 87.5492C59.2583 85.9572 60.8421 83.6465 62.0112 81.1101Z" fill="white" stroke="white" stroke-width="0.530717" stroke-miterlimit="10"/>
<path d="M60.2649 109.736C59.9134 109.539 59.5537 109.36 59.1845 109.206L58.0881 108.716L56.959 108.309C56.5865 108.164 56.2035 108.043 55.8134 107.941L55.8077 107.955L60.2596 109.749L60.2649 109.736Z" fill="#8B2A0C"/>
<path d="M56.4836 106.288C56.8166 106.543 57.2612 106.664 57.6946 106.592C57.9079 106.539 58.1054 106.42 58.2474 106.259C58.4043 106.109 58.4943 105.91 58.5642 105.714C58.4473 105.888 58.3349 106.061 58.1858 106.197C58.0428 106.338 57.8573 106.429 57.6649 106.464C57.2785 106.571 56.8658 106.442 56.4836 106.288Z" fill="#8B2A0C"/>
<path d="M60.0742 91.5377C60.6843 91.5406 61.2883 91.4734 61.8953 91.4431C62.4984 91.366 63.1046 91.3269 63.7047 91.2166C63.0947 91.2137 62.4907 91.281 61.8836 91.3113C61.2805 91.3883 60.6743 91.4275 60.0742 91.5377Z" fill="#8B2A0C"/>
<path d="M29.6783 89.4207C28.9346 92.6744 29.7248 96.0775 31.6759 98.7531L41.3629 112.037C41.5239 112.258 41.8676 112.061 41.7629 111.808L40.3739 108.538L43.7613 112.175C43.8882 112.305 44.0949 112.137 43.9951 111.985L41.2206 107.501L45.1462 111C45.3478 111.145 45.594 110.88 45.4347 110.689L42.1499 106.652C42.1499 106.652 46.1215 109.497 46.1032 109.325C46.0845 109.153 42.6549 105.807 42.6549 105.807L44.9131 106.086C45.0695 106.128 45.1943 105.949 45.0994 105.817L41.5315 102.896L36.5153 92.6056L42.9702 79.8084L37.6836 73.9573C37.6836 73.9573 30.8445 84.3167 29.6783 89.4207Z" fill="#B44A24" stroke="#B44A24" stroke-width="0.530717" stroke-miterlimit="10"/>
<path d="M32.3197 83.0533C34.6844 78.5016 37.4916 73.5167 37.4916 73.5167L42.9711 79.8081L38.8522 87.975C36.2277 87.0264 34.1024 85.2023 32.3197 83.0533Z" fill="white" stroke="white" stroke-width="0.530717" stroke-miterlimit="10"/>
<path d="M40.9028 110.105C41.2598 109.917 41.6052 109.713 41.9355 109.488L42.943 108.834L43.9001 108.109C44.2247 107.875 44.5342 107.62 44.8322 107.348L44.823 107.336L40.8938 110.093L40.9028 110.105Z" fill="#8B2A0C"/>
<path d="M43.5006 106.006C43.1634 106.243 42.7911 106.462 42.3895 106.444C42.1946 106.454 41.994 106.407 41.822 106.302C41.6461 106.203 41.4975 106.061 41.3439 105.917C41.4563 106.092 41.589 106.266 41.7758 106.377C41.9513 106.502 42.1696 106.572 42.3898 106.576C42.8283 106.548 43.2344 106.329 43.5006 106.006Z" fill="#8B2A0C"/>
<path d="M36.6416 92.5328C36.032 92.5076 35.426 92.5537 34.8178 92.5617C34.2123 92.6161 33.6048 92.6335 33.0015 92.7224C33.6112 92.7476 34.2171 92.7015 34.8254 92.6935C35.4306 92.638 36.0382 92.6207 36.6416 92.5328Z" fill="#8B2A0C"/>
<mask id="mask0_1432_17043" style="mask-type:luminance" maskUnits="userSpaceOnUse" x="27" y="73" width="41" height="45">
<path d="M41.7113 73.2139C41.7113 73.2139 41.9304 78.4652 46.6045 78.4218C51.433 78.3769 51.644 73.205 51.644 73.205L55.9615 73.3756C55.9615 73.3756 66.2524 109.702 67.8869 114.819C67.8869 114.819 49.0228 121.616 27.8125 114.836L37.3578 73.0881L41.7113 73.2139Z" fill="white"/>
</mask>
<g mask="url(#mask0_1432_17043)">
<path d="M41.7123 73.2139C41.7123 73.2139 41.9314 78.4652 46.6055 78.4218C51.434 78.3769 51.645 73.205 51.645 73.205L55.9625 73.3756C55.9625 73.3756 66.2533 109.702 67.8878 114.819C67.8878 114.819 49.0238 121.616 27.8135 114.836L37.3587 73.0881L41.7123 73.2139Z" fill="#7A5FFF" stroke="#7A5FFF" stroke-width="0.681741" stroke-miterlimit="10"/>
</g>
<mask id="mask1_1432_17043" style="mask-type:luminance" maskUnits="userSpaceOnUse" x="27" y="73" width="41" height="45">
<path d="M41.7113 73.2139C41.7113 73.2139 41.9304 78.4652 46.6045 78.4218C51.433 78.3769 51.644 73.205 51.644 73.205L55.9615 73.3756C55.9615 73.3756 66.2524 109.702 67.8869 114.819C67.8869 114.819 49.0228 121.616 27.8125 114.836L37.3578 73.0881L41.7113 73.2139Z" fill="white"/>
</mask>
<g mask="url(#mask1_1432_17043)">
<path d="M39.0363 91.9162L38.1621 85.062C38.1547 85.0017 38.104 84.9488 38.0496 84.9429L32.9365 84.3981C32.8329 84.387 32.7807 84.2297 32.866 84.1856L38.0209 81.5379C38.0452 81.5254 38.0599 81.5004 38.0628 81.4695L38.4937 76.2859C38.5025 76.1837 38.629 76.1836 38.6797 76.2851L41.0098 81.0195C41.0348 81.071 41.0877 81.1026 41.1333 81.0945L46.0957 80.1688C46.189 80.1512 46.2736 80.2887 46.214 80.3614L43.0421 84.2326C43.0141 84.2672 43.0171 84.3245 43.0487 84.3701L46.3427 89.0964C46.4089 89.1913 46.3405 89.2979 46.2442 89.2486L41.2855 86.712C41.2355 86.6862 41.1848 86.7031 41.1671 86.7502L39.229 91.9853C39.1937 92.0824 39.0503 92.0309 39.0363 91.9162Z" fill="#FFD44D"/>
</g>
<mask id="mask2_1432_17043" style="mask-type:luminance" maskUnits="userSpaceOnUse" x="27" y="73" width="41" height="45">
<path d="M41.7113 73.2139C41.7113 73.2139 41.9304 78.4652 46.6045 78.4218C51.433 78.3769 51.644 73.205 51.644 73.205L55.9615 73.3756C55.9615 73.3756 66.2524 109.702 67.8869 114.819C67.8869 114.819 49.0228 121.616 27.8125 114.836L37.3578 73.0881L41.7113 73.2139Z" fill="white"/>
</mask>
<g mask="url(#mask2_1432_17043)">
<path d="M53.9564 108.054L55.913 101.447C55.9299 101.389 55.9056 101.32 55.8586 101.292L51.4117 98.638C51.3212 98.5843 51.3367 98.4189 51.4323 98.4152L57.2005 98.1814C57.2277 98.1806 57.2512 98.1645 57.2659 98.1372L59.7423 93.6014C59.7908 93.5124 59.907 93.5654 59.9121 93.6793L60.1357 98.971C60.1379 99.0284 60.1732 99.0799 60.218 99.0909L65.1186 100.342C65.2112 100.366 65.2325 100.527 65.1495 100.567L60.6996 102.752C60.6599 102.771 60.6393 102.825 60.6503 102.88L61.7569 108.571C61.779 108.685 61.6738 108.753 61.6055 108.668L58.0997 104.267C58.0644 104.223 58.0115 104.216 57.9762 104.252L54.1035 108.199C54.0337 108.271 53.9241 108.165 53.9564 108.054Z" fill="#FFD44D"/>
</g>
<mask id="mask3_1432_17043" style="mask-type:luminance" maskUnits="userSpaceOnUse" x="27" y="73" width="41" height="45">
<path d="M41.7113 73.2139C41.7113 73.2139 41.9304 78.4652 46.6045 78.4218C51.433 78.3769 51.644 73.205 51.644 73.205L55.9615 73.3756C55.9615 73.3756 66.2524 109.702 67.8869 114.819C67.8869 114.819 49.0228 121.616 27.8125 114.836L37.3578 73.0881L41.7113 73.2139Z" fill="white"/>
</mask>
<g mask="url(#mask3_1432_17043)">
<path d="M33.2133 116.579L31.2737 109.955C31.2568 109.897 31.1987 109.852 31.1443 109.856L26.0143 110.162C25.9106 110.168 25.8342 110.021 25.9114 109.964L30.5803 106.499C30.6024 106.483 30.6134 106.455 30.6112 106.424L30.2215 101.235C30.2142 101.133 30.3392 101.111 30.4046 101.204L33.4471 105.494C33.4802 105.541 33.5368 105.563 33.581 105.548L38.3308 103.814C38.4205 103.782 38.5249 103.903 38.4778 103.985L35.9581 108.331C35.936 108.369 35.9478 108.426 35.986 108.466L39.9785 112.588C40.0587 112.671 40.0079 112.788 39.905 112.755L34.6147 111.069C34.5618 111.052 34.514 111.077 34.5044 111.127L33.4163 116.616C33.3949 116.716 33.2457 116.689 33.2133 116.579Z" fill="#FFD44D"/>
</g>
<mask id="mask4_1432_17043" style="mask-type:luminance" maskUnits="userSpaceOnUse" x="27" y="73" width="41" height="45">
<path d="M41.7113 73.2139C41.7113 73.2139 41.9304 78.4652 46.6045 78.4218C51.433 78.3769 51.644 73.205 51.644 73.205L55.9615 73.3756C55.9615 73.3756 66.2524 109.702 67.8869 114.819C67.8869 114.819 49.0228 121.616 27.8125 114.836L37.3578 73.0881L41.7113 73.2139Z" fill="white"/>
</mask>
<g mask="url(#mask4_1432_17043)">
<path d="M53.0565 84.8643L53.7675 82.4644C53.7741 82.4431 53.7646 82.4181 53.7477 82.4078L52.1323 81.4438C52.0992 81.424 52.1051 81.3644 52.1396 81.363L54.2352 81.2777C54.2447 81.2769 54.2535 81.2711 54.2587 81.2615L55.1579 79.6138C55.1756 79.5814 55.2182 79.6013 55.2197 79.6424L55.3013 81.5644C55.302 81.5857 55.3145 81.6041 55.3314 81.6078L57.1115 82.0622C57.1453 82.071 57.1527 82.1291 57.1226 82.1438L55.5064 82.9372C55.4917 82.9438 55.4844 82.9637 55.4888 82.9835L55.891 85.0511C55.8991 85.093 55.8608 85.1173 55.8358 85.0864L54.5624 83.4879C54.5499 83.4717 54.53 83.4695 54.5175 83.4827L53.1109 84.9165C53.0845 84.943 53.0448 84.904 53.0565 84.8643Z" fill="#FFD44D"/>
</g>
<mask id="mask5_1432_17043" style="mask-type:luminance" maskUnits="userSpaceOnUse" x="27" y="73" width="41" height="45">
<path d="M41.7113 73.2139C41.7113 73.2139 41.9304 78.4652 46.6045 78.4218C51.433 78.3769 51.644 73.205 51.644 73.205L55.9615 73.3756C55.9615 73.3756 66.2524 109.702 67.8869 114.819C67.8869 114.819 49.0228 121.616 27.8125 114.836L37.3578 73.0881L41.7113 73.2139Z" fill="white"/>
</mask>
<g mask="url(#mask5_1432_17043)">
<path d="M43.9314 101.295L43.9351 98.7843C43.9351 98.7623 43.9197 98.7402 43.9006 98.7358L42.0837 98.2902C42.047 98.2814 42.0352 98.2218 42.0683 98.2101L44.0484 97.5086C44.0579 97.5049 44.0645 97.4969 44.0667 97.4858L44.463 95.641C44.4711 95.605 44.5167 95.6109 44.53 95.6499L45.1491 97.4682C45.1557 97.488 45.1733 97.502 45.1902 97.5013L47.021 97.4101C47.0556 97.4086 47.0799 97.4623 47.0549 97.4851L45.7321 98.724C45.7204 98.7351 45.7189 98.7556 45.7284 98.774L46.6953 100.636C46.7144 100.674 46.685 100.709 46.6527 100.686L44.9844 99.5313C44.9674 99.5196 44.9483 99.5233 44.9402 99.5394L43.9984 101.33C43.9807 101.362 43.9314 101.336 43.9314 101.295Z" fill="#FFD44D"/>
</g>
<mask id="mask6_1432_17043" style="mask-type:luminance" maskUnits="userSpaceOnUse" x="27" y="73" width="41" height="45">
<path d="M41.7113 73.2139C41.7113 73.2139 41.9304 78.4652 46.6045 78.4218C51.433 78.3769 51.644 73.205 51.644 73.205L55.9615 73.3756C55.9615 73.3756 66.2524 109.702 67.8869 114.819C67.8869 114.819 49.0228 121.616 27.8125 114.836L37.3578 73.0881L41.7113 73.2139Z" fill="white"/>
</mask>
<g mask="url(#mask6_1432_17043)">
<path d="M47.3472 119.188L48.0582 116.788C48.0641 116.767 48.0553 116.742 48.0384 116.731L46.423 115.767C46.3906 115.748 46.3958 115.688 46.4304 115.687L48.5259 115.601C48.5354 115.601 48.5443 115.595 48.5501 115.585L49.4494 113.937C49.467 113.905 49.5089 113.924 49.5111 113.966L49.5927 115.888C49.5935 115.909 49.606 115.927 49.6229 115.931L51.403 116.386C51.4368 116.395 51.4442 116.453 51.414 116.467L49.7979 117.261C49.7832 117.268 49.7758 117.287 49.7802 117.307L50.1824 119.375C50.1905 119.417 50.1523 119.441 50.1273 119.41L48.8538 117.812C48.8413 117.795 48.8215 117.793 48.809 117.806L47.4024 119.24C47.3759 119.267 47.3355 119.228 47.3472 119.188Z" fill="#FFD44D"/>
</g>
</svg>
