<svg width="216" height="294" viewBox="0 0 216 294" fill="none" xmlns="http://www.w3.org/2000/svg">
<path opacity="0.39" d="M85.2171 293.471C132.281 293.471 170.434 285.603 170.434 275.897C170.434 266.191 132.281 258.323 85.2171 258.323C38.153 258.323 0 266.191 0 275.897C0 285.603 38.153 293.471 85.2171 293.471Z" fill="#7A5FFF"/>
<path d="M200.384 136.996C200.384 136.996 212.453 132.777 214.463 118.66C216.474 104.544 200.648 102.313 200.648 102.313C209.437 96.5393 208.57 84.8927 208.57 84.8927C211.021 64.0128 195.079 61.3856 195.079 61.3856C195.079 61.3856 202.04 54.6707 200.28 44.6692C196.86 25.2255 177.884 28.0788 177.884 28.0788C177.01 18.117 170.469 9.61041 161.224 7.02804C161.084 6.98834 160.944 6.95035 160.804 6.9141C151.355 4.38524 141.333 8.61954 135.812 17.1262L135.037 18.3225C134.817 17.0831 134.346 15.785 133.745 14.5128C130.64 7.93429 124.752 3.28565 117.932 1.43691C101.727 -2.9545 92.5257 9.05113 92.5257 9.05113C86.7044 -0.0993748 70.8522 1.31433 70.8522 1.31433C35.8519 5.79377 40.4675 42.0661 40.4675 42.0661C40.4675 42.0661 25.7709 30.0052 12.6721 52.6614C-0.428364 75.3158 18.2067 93.9897 18.2067 93.9897C14.9488 94.9219 11.3576 100.882 11.3576 100.882C1.25238 124.011 30.0444 134.016 30.0444 134.016C17.02 156.716 46.173 159.146 46.173 159.146C47.7933 172.352 58.9885 163.104 58.9885 163.104C56.7187 179.116 69.2613 172.954 69.2613 172.954C71.0957 182.764 80.1611 173.505 80.1611 173.505L81.8383 173.365C81.6621 177.402 84.5054 181.02 88.5959 181.663C92.2061 182.229 95.6004 180.283 97.0912 177.143C98.7995 180.912 102.543 183.851 107.248 184.59C114.254 185.69 120.739 181.506 121.896 175.217C122.979 177.199 124.912 178.69 127.317 179.066C130.58 179.579 133.656 177.896 135.12 175.132C139.383 187.709 150.153 179.144 150.153 179.144C158.477 186.52 163.252 176.648 163.252 176.648C163.252 176.648 170.717 184.114 180.812 173.118C186.471 166.954 182.778 155.33 182.778 155.33C182.778 155.33 191.987 164.154 200.218 155.982C209.319 146.942 200.384 136.996 200.384 136.996Z" fill="#1A0000" stroke="#1A0000" stroke-width="0.9416" stroke-miterlimit="10" stroke-linecap="round"/>
<path d="M25.931 18.6642C28.1679 18.5106 30.987 18.6642 31.0492 21.5486C31.0734 22.6914 30.6554 24.0015 30.075 24.9768C29.7571 25.5102 29.3892 26.0591 28.7552 26.2628C27.5789 26.6408 26.9933 25.379 27.553 24.4779C28.7397 22.5705 32.0321 22.8605 33.3242 24.4331C34.6024 25.9866 33.8389 28.6052 31.8766 29.1265C32.0701 29.4597 32.2653 29.7929 32.4587 30.126C33.9996 28.9332 36.0016 30.2451 36.4075 31.8919C36.6269 32.7792 36.4957 33.7286 36.1795 34.5761C35.9584 35.1699 35.5905 35.7068 35.67 36.3714C35.8185 37.616 37.2833 38.5636 37.9397 39.5458C38.8622 40.9268 39.4391 42.4596 39.7362 44.0874C39.8744 44.8435 41.0266 44.5224 40.8901 43.7698C40.5394 41.8433 39.7898 40.0222 38.6238 38.4445C37.8102 37.3432 36.791 36.853 37.1866 35.2459C37.4077 34.3517 37.7342 33.6181 37.7031 32.667C37.6029 29.5944 34.3122 27.1915 31.6123 29.2802C31.1166 29.6634 31.6624 30.4212 32.1945 30.2796C34.4884 29.6686 35.7062 27.0155 34.903 24.818C34.0359 22.4411 31.0751 21.4813 28.795 22.2201C27.6445 22.593 26.4872 23.4353 26.1814 24.6644C25.9189 25.7191 26.3559 26.9292 27.3958 27.3624C30.2667 28.5604 31.9509 24.44 32.1962 22.3099C32.3707 20.796 31.9872 19.2528 30.7158 18.3138C29.3564 17.3091 27.5374 17.3626 25.9327 17.4714C25.1675 17.5214 25.1606 18.716 25.931 18.6642Z" fill="#1A0000"/>
<path d="M214.724 47.7418C212.314 46.1779 209.096 45.1093 207.295 48.0939C206.134 50.0186 205.36 54.1321 207.816 55.4129C208.822 55.9377 209.97 55.6304 210.616 54.7138C211.38 53.6298 211.119 52.2177 210.431 51.1665C209.063 49.0761 206.023 48.0801 203.802 49.4213C201.604 50.7488 201.164 54.0941 203.017 55.8755C203.541 56.3778 204.209 55.7461 203.957 55.1506C202.574 51.8829 198.25 52.8996 196.882 55.5804C196.493 56.3399 196.388 57.108 196.232 57.9297C195.97 59.3158 194.603 59.3659 193.522 59.8475C191.705 60.6571 190.136 61.8965 188.879 63.4311C188.395 64.0214 189.236 64.8724 189.725 64.2769C190.8 62.965 192.085 61.8879 193.605 61.1266C194.719 60.5691 196.635 60.4551 197.21 59.1778C197.46 58.6236 197.386 57.9711 197.507 57.3859C197.675 56.5694 198.037 55.7616 198.628 55.1626C199.903 53.8697 202.169 53.9681 202.926 55.7547C203.239 55.5131 203.551 55.2714 203.866 55.0314C202.555 53.7713 202.872 51.4168 204.408 50.4536C206.294 49.2712 209.412 50.5485 209.834 52.7684C209.974 53.5107 209.711 54.6862 208.6 54.4497C207.659 54.2495 207.472 53.0601 207.452 52.2902C207.426 51.315 207.624 50.2775 207.996 49.3765C208.435 48.3114 209.207 47.3948 210.437 47.3033C211.779 47.2049 213.052 48.0766 214.125 48.7723C214.767 49.1935 215.368 48.1595 214.724 47.7418Z" fill="#1A0000"/>
<path d="M50.7213 152.247L48.0145 148.097L45.1073 151.705L45.7931 145.989L42.6216 143.999L46.6153 143.811L48.5362 139.69L49.7298 144.047L53.8012 144.852L50.5935 146.618L50.7213 152.247Z" fill="white" stroke="white" stroke-width="0.2243" stroke-miterlimit="10" stroke-linecap="round"/>
<path d="M47.8389 106.496C47.8389 106.496 47.8199 46.3781 105.782 51.4807C160.723 56.3175 150.399 130.343 135.891 137.797L134.922 139.692C134.922 139.692 143.833 96.0939 124.488 74.3112C111.882 60.1168 90.6797 58.237 75.2386 69.2863C67.1942 75.0431 55.3824 90.5805 47.8389 106.496Z" fill="#FFD44D" stroke="#FFD44D" stroke-width="0.8587" stroke-miterlimit="10"/>
<path d="M88.4656 167.52L89.2671 178.24H83.1037C82.3592 178.24 81.879 179.025 82.2193 179.688L90.4866 195.771H101.107L110.068 176.971C110.486 176.092 109.816 175.086 108.845 175.132L103.357 175.397V166.455L88.4656 167.52Z" fill="#B44A24" stroke="#B44A24" stroke-width="0.4592" stroke-miterlimit="10"/>
<mask id="mask0_1432_14586" style="mask-type:luminance" maskUnits="userSpaceOnUse" x="44" y="74" width="114" height="99">
<path d="M155.389 131.022C152.628 128.087 148.695 128.229 145.187 129.601C143.399 130.3 141.725 131.267 140.119 132.309C139.155 132.934 137.236 135.211 136.059 134.964C135.248 134.795 135.121 133.456 134.873 132.817C132.691 127.212 127.992 122.011 124.227 117.404C120.002 112.237 115.491 107.314 110.998 102.384C103.332 93.9726 96.2812 84.7271 91.5758 74.3079C90.1075 75.6249 87.1588 78.2798 86.5508 78.9116C80.6846 85.0119 74.2933 90.6997 67.4027 95.6245C64.2071 97.9082 60.8801 100.035 57.3356 101.737C54.1813 103.253 50.749 104.509 47.2079 104.544C47.1854 104.544 47.1699 104.533 47.1474 104.532C46.3425 107.093 45.712 109.736 45.2801 112.451C40.1412 144.734 56.7171 166.975 86.5698 171.659C104.191 174.425 121.159 167.221 132.171 154.118C136.464 158.468 144.897 157.097 151.252 150.921C157.74 144.619 160.099 136.033 155.389 131.022Z" fill="white"/>
</mask>
<g mask="url(#mask0_1432_14586)">
<path d="M155.389 131.022C152.628 128.087 148.695 128.229 145.187 129.601C143.399 130.3 141.725 131.267 140.119 132.309C139.155 132.934 137.236 135.211 136.059 134.964C135.248 134.795 135.121 133.456 134.873 132.817C132.691 127.212 127.992 122.011 124.227 117.404C120.002 112.237 115.491 107.314 110.998 102.384C103.332 93.9726 96.2812 84.7271 91.5758 74.3079C90.1075 75.6249 87.1588 78.2798 86.5508 78.9116C80.6846 85.0119 74.2933 90.6997 67.4027 95.6245C64.2071 97.9082 60.8801 100.035 57.3356 101.737C54.1813 103.253 50.749 104.509 47.2079 104.544C47.1854 104.544 47.1699 104.533 47.1474 104.532C46.3425 107.093 45.712 109.736 45.2801 112.451C40.1412 144.734 56.7171 166.975 86.5698 171.659C104.191 174.425 121.159 167.221 132.171 154.118C136.464 158.468 144.897 157.097 151.252 150.921C157.74 144.619 160.099 136.033 155.389 131.022Z" fill="#CD5428" stroke="#CD5428" stroke-width="0.8842" stroke-miterlimit="10"/>
</g>
<mask id="mask1_1432_14586" style="mask-type:luminance" maskUnits="userSpaceOnUse" x="44" y="74" width="114" height="99">
<path d="M155.389 131.022C152.628 128.087 148.695 128.229 145.187 129.601C143.399 130.3 141.725 131.267 140.119 132.309C139.155 132.934 137.236 135.211 136.059 134.964C135.248 134.795 135.121 133.456 134.873 132.817C132.691 127.212 127.992 122.011 124.227 117.404C120.002 112.237 115.491 107.314 110.998 102.384C103.332 93.9726 96.2812 84.7271 91.5758 74.3079C90.1075 75.6249 87.1588 78.2798 86.5508 78.9116C80.6846 85.0119 74.2933 90.6997 67.4027 95.6245C64.2071 97.9082 60.8801 100.035 57.3356 101.737C54.1813 103.253 50.749 104.509 47.2079 104.544C47.1854 104.544 47.1699 104.533 47.1474 104.532C46.3425 107.093 45.712 109.736 45.2801 112.451C40.1412 144.734 56.7171 166.975 86.5698 171.659C104.191 174.425 121.159 167.221 132.171 154.118C136.464 158.468 144.897 157.097 151.252 150.921C157.74 144.619 160.099 136.033 155.389 131.022Z" fill="white"/>
</mask>
<g mask="url(#mask1_1432_14586)">
<path opacity="0.49" d="M118.624 155.104C116.014 162.476 107.918 166.338 100.54 163.729C93.1626 161.121 89.2985 153.031 91.9085 145.658C94.5186 138.285 102.615 134.424 109.993 137.032C117.37 139.641 121.234 147.731 118.624 155.104Z" fill="#8B2A0C" stroke="#8B2A0C" stroke-width="1.0645" stroke-miterlimit="10"/>
</g>
<mask id="mask2_1432_14586" style="mask-type:luminance" maskUnits="userSpaceOnUse" x="44" y="74" width="114" height="99">
<path d="M155.389 131.022C152.628 128.087 148.695 128.229 145.187 129.601C143.399 130.3 141.725 131.267 140.119 132.309C139.155 132.934 137.236 135.211 136.059 134.964C135.248 134.795 135.121 133.456 134.873 132.817C132.691 127.212 127.992 122.011 124.227 117.404C120.002 112.237 115.491 107.314 110.998 102.384C103.332 93.9726 96.2812 84.7271 91.5758 74.3079C90.1075 75.6249 87.1588 78.2798 86.5508 78.9116C80.6846 85.0119 74.2933 90.6997 67.4027 95.6245C64.2071 97.9082 60.8801 100.035 57.3356 101.737C54.1813 103.253 50.749 104.509 47.2079 104.544C47.1854 104.544 47.1699 104.533 47.1474 104.532C46.3425 107.093 45.712 109.736 45.2801 112.451C40.1412 144.734 56.7171 166.975 86.5698 171.659C104.191 174.425 121.159 167.221 132.171 154.118C136.464 158.468 144.897 157.097 151.252 150.921C157.74 144.619 160.099 136.033 155.389 131.022Z" fill="white"/>
</mask>
<g mask="url(#mask2_1432_14586)">
<path opacity="0.49" d="M62.3715 143.552C60.0361 150.15 52.7897 153.607 46.1859 151.272C39.5838 148.938 36.1239 141.696 38.461 135.097C40.7965 128.5 48.0428 125.042 54.6466 127.378C61.2487 129.711 64.7069 136.953 62.3715 143.552Z" fill="#8B2A0C" stroke="#8B2A0C" stroke-width="0.9527" stroke-miterlimit="10"/>
</g>
<mask id="mask3_1432_14586" style="mask-type:luminance" maskUnits="userSpaceOnUse" x="44" y="74" width="114" height="99">
<path d="M155.389 131.022C152.628 128.087 148.695 128.229 145.187 129.601C143.399 130.3 141.725 131.267 140.119 132.309C139.155 132.934 137.236 135.211 136.059 134.964C135.248 134.795 135.121 133.456 134.873 132.817C132.691 127.212 127.992 122.011 124.227 117.404C120.002 112.237 115.491 107.314 110.998 102.384C103.332 93.9726 96.2812 84.7271 91.5758 74.3079C90.1075 75.6249 87.1588 78.2798 86.5508 78.9116C80.6846 85.0119 74.2933 90.6997 67.4027 95.6245C64.2071 97.9082 60.8801 100.035 57.3356 101.737C54.1813 103.253 50.749 104.509 47.2079 104.544C47.1854 104.544 47.1699 104.533 47.1474 104.532C46.3425 107.093 45.712 109.736 45.2801 112.451C40.1412 144.734 56.7171 166.975 86.5698 171.659C104.191 174.425 121.159 167.221 132.171 154.118C136.464 158.468 144.897 157.097 151.252 150.921C157.74 144.619 160.099 136.033 155.389 131.022Z" fill="white"/>
</mask>
<g mask="url(#mask3_1432_14586)">
<path d="M143.024 161.461L140.318 157.311L137.41 160.919L138.095 155.202L134.924 153.212L138.918 153.025L140.838 148.905L142.034 153.262L146.103 154.066L142.896 155.832L143.024 161.461Z" fill="white" stroke="white" stroke-width="0.2243" stroke-miterlimit="10" stroke-linecap="round"/>
<path d="M140.213 137.056C142.298 135.178 144.708 133.547 147.587 132.796C149.009 132.43 150.66 132.351 152.191 133.045C153.707 133.78 154.79 135.133 155.175 136.813C155.49 138.508 154.954 140.07 154.303 141.389C153.604 142.708 152.75 143.887 151.79 144.952C149.885 147.092 147.665 148.879 145.274 150.367C147.231 148.351 149.083 146.267 150.722 144.087C151.51 142.977 152.275 141.859 152.802 140.664C153.339 139.494 153.692 138.235 153.452 137.153C153.262 136.11 152.444 135.032 151.46 134.534C150.453 133.982 149.15 133.954 147.86 134.136C145.259 134.576 142.674 135.732 140.213 137.056Z" fill="#8B2A0C"/>
<path d="M132.065 154.24C132.709 153.372 133.195 152.405 133.656 151.441C134.108 150.469 134.511 149.471 134.855 148.454C135.585 146.435 136.116 144.348 136.646 142.25C136.518 143.324 136.347 144.394 136.105 145.452C135.857 146.507 135.565 147.553 135.209 148.579C134.461 150.605 133.556 152.647 132.065 154.24Z" fill="#8B2A0C"/>
<path d="M91.4335 72.2519C89.5247 73.115 87.7248 74.4442 86.9078 76.438C86.2237 78.1055 86.2928 80.2114 87.5469 81.6027C88.6317 82.8059 90.7028 83.36 91.9172 82.0256C92.8465 81.0037 92.8673 79.2189 91.5717 78.4921C89.9186 77.5652 87.5469 78.392 86.2462 79.5624C84.8314 80.8363 84.2113 82.8887 84.6241 84.7392C84.9973 86.4136 86.5087 87.9965 88.3467 87.3992C89.8374 86.9159 90.3401 84.8117 88.7854 84.0591C87.0062 83.1977 84.961 84.5597 84.2234 86.1754C83.2371 88.3314 84.3409 90.71 85.766 92.3655C86.241 92.9178 87.0373 92.1152 86.5657 91.5663C85.5431 90.3786 84.6552 88.7198 85.0836 87.1058C85.2702 86.4049 85.7279 85.7646 86.3325 85.3606C86.7315 85.0948 88.7923 84.387 88.6161 85.6972C88.4779 86.7225 86.9924 86.4015 86.5156 85.9647C85.9007 85.4003 85.6554 84.5079 85.6295 83.6983C85.5794 82.1223 86.4103 80.6171 87.7835 79.8403C88.6645 79.3414 91.7324 78.594 91.4525 80.4997C91.1744 82.3985 88.8372 81.6096 88.1169 80.4859C86.1442 77.4029 89.4557 74.3804 92.0087 73.2256C92.6669 72.9287 92.0934 71.955 91.4335 72.2519Z" fill="#1A0000"/>
<path d="M72.1841 129.418C72.647 128.06 73.4762 126.777 74.6767 125.847C75.8531 124.904 77.4768 124.374 79.0297 124.573C79.7949 124.659 80.5723 124.877 81.2719 125.267C81.9507 125.691 82.5432 126.258 82.9336 126.934C83.7403 128.277 83.8716 129.838 83.6263 131.246C83.4052 129.838 82.9405 128.486 82.1511 127.464C81.3617 126.435 80.1974 125.886 78.9053 125.778C77.6305 125.598 76.354 125.955 75.2139 126.622C74.079 127.309 73.0564 128.282 72.1841 129.418Z" fill="#8B2A0C"/>
<g opacity="0.53">
<path d="M72.2646 129.434C72.2646 129.434 74.9611 124.328 79.8738 125.57C84.092 126.637 83.6291 131.692 83.6291 131.692" fill="#8B2A0C"/>
<path d="M72.2646 129.434C72.7777 128.094 73.6569 126.844 74.8903 125.959C76.1012 125.063 77.7439 124.593 79.2882 124.851C80.05 124.966 80.8169 125.211 81.5027 125.629C82.166 126.078 82.7361 126.668 83.1006 127.357C83.8571 128.729 83.928 130.295 83.6291 131.692C83.4616 130.276 83.0487 128.907 82.2973 127.858C81.5476 126.8 80.4041 126.207 79.1172 126.049C77.851 125.821 76.5607 126.13 75.3964 126.753C74.2373 127.399 73.1784 128.332 72.2646 129.434Z" fill="#8B2A0C"/>
</g>
<path d="M47.3432 115.429C46.8958 122.793 52.5495 129.116 59.9704 129.549C67.3912 129.983 73.7687 124.366 74.2144 117.002C74.6618 109.638 69.008 103.315 61.5872 102.881C54.1681 102.446 47.7906 108.065 47.3432 115.429Z" fill="white"/>
<path d="M53.8835 112.907C52.8781 118.491 56.212 123.822 61.3319 124.814C66.4519 125.807 71.4164 122.084 72.4235 116.501C73.4306 110.919 70.095 105.587 64.975 104.594C59.855 103.601 54.8888 107.323 53.8835 112.907Z" fill="#280707" stroke="#280707" stroke-width="0.8912" stroke-miterlimit="10"/>
<path d="M74.5326 114.278C73.8278 112.807 73.0401 111.39 72.0866 110.116C71.1642 108.828 70.1589 107.62 68.986 106.634C67.7924 105.68 66.5089 104.91 65.1494 104.364C63.7572 103.907 62.3217 103.606 60.8345 103.644C57.8115 103.636 54.8404 104.483 52.4981 106.282C50.0659 108.015 48.4595 110.867 47.5094 113.839L47.3505 114.338L46.9756 114.195C46.0878 113.857 45.2068 113.496 44.3345 113.102L44.3742 112.961L47.1104 113.706L47.0067 113.775C47.582 110.556 49.1435 107.446 51.6828 105.319C54.203 103.185 57.5576 102.151 60.8345 102.2C62.4858 102.193 64.1251 102.524 65.6608 103.125C67.1705 103.788 68.5541 104.713 69.746 105.849C72.0745 108.176 73.7207 111.112 74.676 114.245L74.5326 114.278Z" fill="black"/>
<path d="M47.4742 111.847L44.9419 109.798L48.1358 110.435L47.4742 111.847Z" fill="black"/>
<path d="M48.7395 108.859L46.627 106.517L49.605 107.561L48.7395 108.859Z" fill="black"/>
<path d="M70.451 126.138C68.8065 127.481 66.8736 128.486 64.8145 129.135C62.7572 129.791 60.5324 130.036 58.3438 129.753C57.2417 129.637 56.1897 129.271 55.1464 128.916C54.1721 128.394 53.153 127.956 52.3342 127.212C51.4221 126.599 50.7433 125.736 50.0247 124.942C49.3665 124.096 48.8362 123.155 48.3042 122.253C49.7656 123.792 51.1958 125.303 52.944 126.349C54.6264 127.469 56.5386 128.186 58.5234 128.412C60.5013 128.691 62.5413 128.534 64.5433 128.117C66.5402 127.668 68.5336 127.033 70.451 126.138Z" fill="black"/>
<path d="M120.191 128.472C118.29 136.093 110.301 140.758 102.345 138.892C94.3886 137.024 89.4776 129.332 91.376 121.711C93.2762 114.09 101.265 109.426 109.223 111.292C117.18 113.158 122.089 120.849 120.191 128.472Z" fill="white"/>
<path d="M120.154 124.994C119.43 130.882 114.322 135.19 108.743 134.619C103.163 134.048 99.2267 128.811 99.9505 122.922C100.674 117.034 105.782 112.726 111.362 113.297C116.941 113.87 120.878 119.106 120.154 124.994Z" fill="#280707" stroke="#280707" stroke-width="0.945" stroke-miterlimit="10"/>
<path d="M91.9634 119.318C93.5526 116.166 96.0677 113.453 99.2685 111.597C100.872 110.665 102.694 110.081 104.578 109.841C106.465 109.679 108.401 109.783 110.217 110.309C113.797 111.252 117.133 113.518 119.244 116.691C120.294 118.283 120.842 120.13 121.139 121.933C121.443 123.756 121.372 125.577 120.932 127.367L120.496 126.836C121.51 126.96 122.524 127.108 123.536 127.293L123.533 127.449L120.483 127.378L120.386 127.376L120.398 127.274C120.806 123.879 120.096 120.273 118.14 117.44C116.181 114.601 113.091 112.697 109.793 111.77C108.152 111.25 106.418 111.124 104.708 111.226C103.003 111.421 101.334 111.896 99.7798 112.64C96.7068 114.193 94.0725 116.593 92.0946 119.403L91.9634 119.318Z" fill="black"/>
<path d="M120.467 123.606L123.949 123.958L120.695 125.244L120.467 123.606Z" fill="black"/>
<path d="M119.869 120.285L123.251 120.164L120.33 121.873L119.869 120.285Z" fill="black"/>
<path d="M92.564 132.498C93.4259 133.233 94.2879 133.944 95.2242 134.552C96.1189 135.206 97.0638 135.786 98.0346 136.295C99.9762 137.307 102.02 138.089 104.137 138.405C106.247 138.783 108.425 138.643 110.51 138.056C112.643 137.569 114.571 136.454 116.569 135.379C115.73 136.123 114.884 136.908 113.937 137.552C112.942 138.118 111.964 138.757 110.847 139.107C109.779 139.613 108.598 139.73 107.44 139.955C106.266 139.991 105.077 140.039 103.915 139.82C101.591 139.437 99.3785 138.536 97.468 137.236C95.561 135.945 93.844 134.379 92.564 132.498Z" fill="black"/>
<path opacity="0.49" d="M85.26 136.673C84.88 139.073 82.4081 143.376 76.9081 142.629C73.1044 142.113 70.6325 137.728 71.0126 135.329C71.0126 135.329 74.6746 134.562 78.5267 134.797C81.2041 134.961 85.26 136.673 85.26 136.673Z" fill="#8B2A0C"/>
<path d="M68.541 133.15C69.9609 134.369 71.4568 135.418 73.0201 136.268C74.592 137.096 76.2555 137.695 77.9587 137.858C79.6515 138.044 81.4014 137.858 83.0424 137.214C83.9044 136.994 84.6558 136.489 85.4918 136.13C86.2899 135.698 87.0327 135.161 87.8739 134.714C87.2676 135.417 86.6371 136.131 85.9271 136.763C85.1498 137.3 84.4347 137.982 83.5226 138.337C81.8177 139.285 79.7569 139.61 77.7912 139.415C75.815 139.194 73.9425 138.424 72.3793 137.303C70.816 136.183 69.4669 134.79 68.541 133.15Z" fill="#3B130E"/>
<path d="M51.7957 98.8405C52.155 97.0729 53.1517 95.4503 54.4939 94.2005C55.8153 92.9111 57.4874 92.0082 59.2338 91.4196C61.0078 90.9138 62.8458 90.7136 64.6353 90.8949C65.5284 90.9518 66.399 91.1952 67.2575 91.3799C68.0953 91.7096 68.9279 91.9755 69.7121 92.3915L69.7294 92.4001C69.7674 92.4208 69.7812 92.4674 69.7622 92.5037C69.7467 92.533 69.7138 92.5485 69.6828 92.5434L67.178 92.1998C66.3368 92.1791 65.4956 92.0859 64.6561 92.1239C62.9753 92.1671 61.3032 92.4208 59.7036 92.9128C56.5304 93.9019 53.5818 95.9681 51.9391 98.9078C51.9183 98.9458 51.8699 98.9596 51.8337 98.9372C51.8026 98.9199 51.7888 98.8854 51.7957 98.8543V98.8405Z" fill="#2E2E2E"/>
<path d="M122.657 108.89C121.695 107.442 120.569 106.265 119.438 105.195C118.275 104.15 117.045 103.246 115.705 102.493C115.028 102.125 114.354 101.749 113.622 101.466C112.929 101.086 112.158 100.895 111.419 100.567L106.641 98.9544L106.615 98.9458C106.576 98.932 106.555 98.8888 106.567 98.8491C106.579 98.8163 106.61 98.7956 106.643 98.7973L109.182 98.9475C110.018 99.0908 110.868 99.165 111.694 99.367C113.354 99.7398 114.967 100.32 116.473 101.131C119.408 102.845 121.847 105.555 122.808 108.856C122.82 108.896 122.796 108.937 122.756 108.949C122.723 108.958 122.69 108.946 122.673 108.918L122.657 108.89Z" fill="#2E2E2E"/>
</g>
<path d="M33.736 264.255C33.736 264.255 44.9743 189.184 71.2029 210.53L72.1927 264.255L60.1373 261.26L52.6025 278.21L25.6328 273.963C25.6328 273.963 28.4415 270.801 33.736 264.255Z" fill="#9E332D" stroke="#9E332D" stroke-width="0.7319" stroke-miterlimit="10"/>
<path opacity="0.49" d="M69.467 215.242C68.8555 217.609 65.0207 218.674 60.8992 217.622C56.7776 216.571 53.9326 213.799 54.5441 211.432C55.1556 209.066 58.9904 208.001 63.112 209.052C67.2318 210.103 70.0768 212.875 69.467 215.242Z" fill="#8B2A0C" stroke="#8B2A0C" stroke-width="0.4387" stroke-miterlimit="10"/>
<path d="M35.933 252.711C34.4474 259.493 33.734 264.254 33.734 264.254C28.4396 270.799 25.6309 273.96 25.6309 273.96L52.6005 278.206L59.6224 262.412C51.8422 258.906 43.9377 255.678 35.933 252.711Z" fill="white" stroke="white" stroke-width="0.7319" stroke-miterlimit="10"/>
<path d="M44.6476 266.13C42.5938 265.617 40.5434 265.091 38.5154 264.482C37.0178 264.031 35.5132 263.211 33.9603 262.855C33.81 263.753 33.734 264.254 33.734 264.254C28.4396 270.799 25.6309 273.96 25.6309 273.96L52.6005 278.206L56.5269 269.374C52.5694 268.281 48.6362 267.126 44.6476 266.13Z" fill="black" stroke="black" stroke-width="0.7319" stroke-miterlimit="10"/>
<path d="M65.4681 220.543C63.1361 234.147 61.692 247.944 62.0634 261.737L72.1928 264.253L71.203 210.528C70.037 209.578 68.9004 208.826 67.7897 208.239C66.9657 212.332 66.1728 216.429 65.4681 220.543Z" fill="#7A5FFF" stroke="#7A5FFF" stroke-width="0.6888" stroke-miterlimit="10"/>
<path d="M78.7104 179.836C78.7104 179.836 69.7556 177.559 70.1702 215.856C70.5847 254.155 70.1564 267.197 70.1564 267.197C70.1564 267.197 58.9836 271.336 61.262 271.957C63.5405 272.579 83.2206 270.095 83.2206 270.095C83.2206 270.095 89.9435 200.953 78.7104 179.836Z" fill="#B44A24" stroke="#B44A24" stroke-width="0.7324" stroke-miterlimit="10"/>
<path d="M84.2381 208.974C84.3763 208.945 84.5128 208.905 84.6527 208.874C83.8547 196.967 82.1031 186.211 78.7105 179.836C78.7105 179.836 70.8751 177.849 70.2031 208.952C74.7513 210.153 79.6416 209.953 84.2381 208.974Z" fill="white" stroke="white" stroke-width="0.7324" stroke-miterlimit="10"/>
<mask id="mask4_1432_14586" style="mask-type:luminance" maskUnits="userSpaceOnUse" x="78" y="174" width="68" height="101">
<path d="M84.6894 178.238C84.6894 178.238 86.9195 187.342 96.237 186.893C105.555 186.444 106.601 175.239 106.601 175.239C106.601 175.239 114.28 172.409 120.856 181.112C127.432 189.814 131.084 216.279 131.084 216.279C131.084 216.279 166.884 261.362 124.507 273.226C124.507 273.226 101.493 277.424 88.3428 268.115L78.4795 179.81C78.4795 179.81 80.1101 178.238 84.6894 178.238Z" fill="white"/>
</mask>
<g mask="url(#mask4_1432_14586)">
<path d="M84.6894 178.238C84.6894 178.238 86.9195 187.342 96.237 186.893C105.555 186.444 106.601 175.239 106.601 175.239C106.601 175.239 114.28 172.409 120.856 181.112C127.432 189.814 131.084 216.279 131.084 216.279C131.084 216.279 166.884 261.362 124.507 273.226C124.507 273.226 101.493 277.424 88.3428 268.115L78.4795 179.81C78.4795 179.81 80.1101 178.238 84.6894 178.238Z" fill="#7A5FFF" stroke="#7A5FFF" stroke-width="0.6888" stroke-miterlimit="10"/>
</g>
<mask id="mask5_1432_14586" style="mask-type:luminance" maskUnits="userSpaceOnUse" x="78" y="174" width="68" height="101">
<path d="M84.6894 178.238C84.6894 178.238 86.9195 187.342 96.237 186.893C105.555 186.444 106.601 175.239 106.601 175.239C106.601 175.239 114.28 172.409 120.856 181.112C127.432 189.814 131.084 216.279 131.084 216.279C131.084 216.279 166.884 261.362 124.507 273.226C124.507 273.226 101.493 277.424 88.3428 268.115L78.4795 179.81C78.4795 179.81 80.1101 178.238 84.6894 178.238Z" fill="white"/>
</mask>
<g mask="url(#mask5_1432_14586)">
<path d="M89.1862 219.829L83.8485 205.499C83.8019 205.373 83.6654 205.284 83.5445 205.299L72.1144 206.711C71.8829 206.741 71.6895 206.428 71.8536 206.29L81.7774 197.975C81.824 197.937 81.8448 197.875 81.8344 197.806L80.1796 186.417C80.1467 186.192 80.4249 186.128 80.5855 186.322L88.0392 195.346C88.1204 195.444 88.2499 195.486 88.3466 195.444L98.711 190.937C98.9062 190.853 99.1583 191.107 99.0651 191.293L94.0815 201.241C94.0366 201.329 94.0729 201.452 94.1645 201.534L103.717 210.053C103.909 210.224 103.812 210.49 103.579 210.431L91.4888 207.472C91.3679 207.443 91.2642 207.504 91.2504 207.616L89.6405 219.88C89.6128 220.106 89.276 220.068 89.1862 219.829Z" fill="#FFD44D"/>
</g>
<mask id="mask6_1432_14586" style="mask-type:luminance" maskUnits="userSpaceOnUse" x="78" y="174" width="68" height="101">
<path d="M84.6894 178.238C84.6894 178.238 86.9195 187.342 96.237 186.893C105.555 186.444 106.601 175.239 106.601 175.239C106.601 175.239 114.28 172.409 120.856 181.112C127.432 189.814 131.084 216.279 131.084 216.279C131.084 216.279 166.884 261.362 124.507 273.226C124.507 273.226 101.493 277.424 88.3428 268.115L78.4795 179.81C78.4795 179.81 80.1101 178.238 84.6894 178.238Z" fill="white"/>
</mask>
<g mask="url(#mask6_1432_14586)">
<path d="M129.818 247.059L130.782 231.831C130.79 231.696 130.702 231.558 130.585 231.522L119.554 228.052C119.329 227.981 119.281 227.617 119.486 227.562L131.955 224.139C132.013 224.123 132.057 224.075 132.076 224.009L135.209 212.981C135.271 212.763 135.551 212.82 135.619 213.064L138.755 224.355C138.79 224.477 138.892 224.57 138.996 224.572L150.315 224.79C150.529 224.795 150.657 225.13 150.495 225.259L141.879 232.219C141.803 232.281 141.784 232.406 141.835 232.519L147.099 244.225C147.204 244.461 147.009 244.66 146.817 244.511L136.966 236.8C136.867 236.723 136.748 236.737 136.69 236.832L130.215 247.297C130.096 247.489 129.802 247.313 129.818 247.059Z" fill="#FFD44D"/>
</g>
<mask id="mask7_1432_14586" style="mask-type:luminance" maskUnits="userSpaceOnUse" x="78" y="174" width="68" height="101">
<path d="M84.6894 178.238C84.6894 178.238 86.9195 187.342 96.237 186.893C105.555 186.444 106.601 175.239 106.601 175.239C106.601 175.239 114.28 172.409 120.856 181.112C127.432 189.814 131.084 216.279 131.084 216.279C131.084 216.279 166.884 261.362 124.507 273.226C124.507 273.226 101.493 277.424 88.3428 268.115L78.4795 179.81C78.4795 179.81 80.1101 178.238 84.6894 178.238Z" fill="white"/>
</mask>
<g mask="url(#mask7_1432_14586)">
<path d="M88.8215 275.926L81.2746 262.633C81.2089 262.515 81.0604 262.45 80.9412 262.484L69.9015 265.74C69.6769 265.805 69.4368 265.529 69.5767 265.365L78.0288 255.535C78.0685 255.488 78.0789 255.424 78.0582 255.358L74.6103 244.371C74.5429 244.156 74.8055 244.047 74.9938 244.213L83.781 251.918C83.8777 252.003 84.0125 252.022 84.0988 251.967L93.5943 245.827C93.7739 245.711 94.0624 245.92 94.0002 246.12L90.6767 256.762C90.6473 256.857 90.7009 256.971 90.8045 257.038L101.58 263.903C101.798 264.041 101.744 264.317 101.504 264.3L89.1169 263.344C88.9925 263.333 88.901 263.411 88.9044 263.523L89.2758 275.905C89.2879 276.131 88.9476 276.149 88.8215 275.926Z" fill="#FFD44D"/>
</g>
<mask id="mask8_1432_14586" style="mask-type:luminance" maskUnits="userSpaceOnUse" x="78" y="174" width="68" height="101">
<path d="M84.6894 178.238C84.6894 178.238 86.9195 187.342 96.237 186.893C105.555 186.444 106.601 175.239 106.601 175.239C106.601 175.239 114.28 172.409 120.856 181.112C127.432 189.814 131.084 216.279 131.084 216.279C131.084 216.279 166.884 261.362 124.507 273.226C124.507 273.226 101.493 277.424 88.3428 268.115L78.4795 179.81C78.4795 179.81 80.1101 178.238 84.6894 178.238Z" fill="white"/>
</mask>
<g mask="url(#mask8_1432_14586)">
<path d="M112.153 193.083L112.504 187.551C112.507 187.502 112.474 187.452 112.431 187.438L108.423 186.178C108.342 186.152 108.325 186.021 108.399 186.001L112.929 184.758C112.949 184.752 112.965 184.735 112.972 184.711L114.11 180.705C114.132 180.625 114.234 180.646 114.259 180.734L115.399 184.835C115.411 184.88 115.449 184.913 115.487 184.915L119.598 184.994C119.676 184.996 119.722 185.117 119.664 185.165L116.534 187.694C116.506 187.716 116.499 187.761 116.518 187.803L118.43 192.054C118.468 192.141 118.397 192.213 118.328 192.158L114.749 189.356C114.713 189.329 114.67 189.334 114.649 189.367L112.296 193.168C112.253 193.24 112.148 193.176 112.153 193.083Z" fill="#FFD44D"/>
</g>
<mask id="mask9_1432_14586" style="mask-type:luminance" maskUnits="userSpaceOnUse" x="78" y="174" width="68" height="101">
<path d="M84.6894 178.238C84.6894 178.238 86.9195 187.342 96.237 186.893C105.555 186.444 106.601 175.239 106.601 175.239C106.601 175.239 114.28 172.409 120.856 181.112C127.432 189.814 131.084 216.279 131.084 216.279C131.084 216.279 166.884 261.362 124.507 273.226C124.507 273.226 101.493 277.424 88.3428 268.115L78.4795 179.81C78.4795 179.81 80.1101 178.238 84.6894 178.238Z" fill="white"/>
</mask>
<g mask="url(#mask9_1432_14586)">
<path d="M104.559 237.563L103.31 232.152C103.3 232.103 103.255 232.065 103.21 232.065L99.0226 232.024C98.938 232.022 98.8827 231.901 98.9483 231.86L102.918 229.347C102.937 229.334 102.947 229.314 102.947 229.29L102.888 225.112C102.887 225.029 102.99 225.021 103.039 225.097L105.3 228.701C105.324 228.741 105.369 228.761 105.405 228.751L109.354 227.627C109.428 227.607 109.508 227.71 109.465 227.772L107.198 231.111C107.178 231.14 107.185 231.187 107.214 231.219L110.256 234.743C110.316 234.813 110.27 234.903 110.188 234.872L105.97 233.227C105.927 233.21 105.887 233.227 105.877 233.267L104.718 237.601C104.699 237.684 104.58 237.655 104.559 237.563Z" fill="#FFD44D"/>
</g>
<mask id="mask10_1432_14586" style="mask-type:luminance" maskUnits="userSpaceOnUse" x="78" y="174" width="68" height="101">
<path d="M84.6894 178.238C84.6894 178.238 86.9195 187.342 96.237 186.893C105.555 186.444 106.601 175.239 106.601 175.239C106.601 175.239 114.28 172.409 120.856 181.112C127.432 189.814 131.084 216.279 131.084 216.279C131.084 216.279 166.884 261.362 124.507 273.226C124.507 273.226 101.493 277.424 88.3428 268.115L78.4795 179.81C78.4795 179.81 80.1101 178.238 84.6894 178.238Z" fill="white"/>
</mask>
<g mask="url(#mask10_1432_14586)">
<path d="M121.625 275.71L121.976 270.178C121.979 270.129 121.947 270.079 121.905 270.066L117.898 268.805C117.816 268.78 117.799 268.648 117.873 268.628L122.403 267.385C122.423 267.38 122.441 267.362 122.448 267.338L123.586 263.332C123.608 263.252 123.71 263.273 123.734 263.361L124.875 267.463C124.887 267.507 124.925 267.54 124.961 267.542L129.072 267.621C129.15 267.623 129.196 267.744 129.138 267.792L126.008 270.321C125.98 270.344 125.973 270.388 125.992 270.43L127.904 274.681C127.942 274.768 127.871 274.84 127.802 274.785L124.223 271.983C124.187 271.956 124.144 271.959 124.123 271.994L121.772 275.795C121.725 275.866 121.618 275.803 121.625 275.71Z" fill="#FFD44D"/>
</g>
<path d="M93.1045 215.242C93.1045 215.242 95.4797 189.365 106.597 175.239C106.597 175.239 116.49 172.091 122.696 184.095C123.577 185.8 123.498 187.853 122.43 189.449L104.146 216.818L93.1045 215.242Z" fill="#9E332D" stroke="#9E332D" stroke-width="0.7319" stroke-miterlimit="10"/>
<path d="M107.776 199.632C110.189 200.166 112.775 200.229 115.288 200.14L122.431 189.449C123.498 187.853 123.578 185.802 122.697 184.095C116.49 172.091 106.598 175.239 106.598 175.239C102.357 180.627 99.3927 187.721 97.3423 194.44C100.515 196.73 103.818 198.759 107.776 199.632Z" fill="white" stroke="white" stroke-width="0.7324" stroke-miterlimit="10"/>
<path d="M70.4499 269.408C70.4499 269.408 78.5082 195.058 105.784 202.206C105.784 202.206 115.891 205.637 127.336 231.658C127.336 231.658 125.332 254.533 92.5657 270.523L83.1618 281.562L70.1753 280.773L70.4499 269.408Z" fill="#CD5428" stroke="#CD5428" stroke-width="0.9305" stroke-miterlimit="10"/>
<path d="M97.407 259.679C97.2982 259.695 97.179 259.688 97.0477 259.639C89.1673 256.814 79.9397 257.682 71.7415 256.774C70.4529 264.1 69.7671 269.168 69.7671 269.168L70.173 280.773L83.1595 281.562L92.5634 270.523C92.9227 270.349 93.2561 270.167 93.6085 269.991C94.0766 268.56 94.5464 267.131 95.1303 265.736C95.9646 263.748 96.9371 261.818 97.6367 259.776C97.5607 259.745 97.4847 259.71 97.407 259.679Z" fill="white"/>
<path d="M92.9067 271.336C94.3508 267.608 95.8329 263.893 97.3617 260.201L102.012 249.148L106.829 238.167C108.457 234.517 110.131 230.886 111.844 227.272C110.4 231.002 108.92 234.715 107.389 238.407L102.739 249.458L97.9196 260.439C96.2942 264.09 94.6186 267.721 92.9067 271.336Z" fill="#8B2A0C"/>
<path d="M70.6173 269.139C70.5654 269.139 70.5292 269.12 70.4825 269.111C70.4618 269.299 70.4497 269.408 70.4497 269.408L70.1733 280.775L87.8358 282.202L92.3011 270.834C85.4158 268.692 77.6754 269.135 70.6173 269.139Z" fill="black" stroke="black" stroke-width="0.9305" stroke-miterlimit="10"/>
<path d="M70.1744 276.071C70.1744 276.071 62.2768 281.69 62.8019 281.564C63.3253 281.438 83.1609 281.564 83.1609 281.564" fill="black"/>
<path d="M70.1744 276.071C70.1744 276.071 62.2768 281.69 62.8019 281.564C63.3253 281.438 83.1609 281.564 83.1609 281.564" stroke="black" stroke-width="0.9305" stroke-miterlimit="10"/>
<path opacity="0.49" d="M106.448 211.484C106.334 213.925 102.798 215.751 98.5484 215.563C94.2991 215.375 90.9479 213.243 91.0619 210.802C91.1759 208.361 94.7136 206.535 98.9612 206.723C103.211 206.91 106.562 209.041 106.448 211.484Z" fill="#8B2A0C" stroke="#8B2A0C" stroke-width="0.4387" stroke-miterlimit="10"/>
</svg>
