<svg viewBox="0 0 91.1742 26" x="0" y="0" fill="none" xmlns="http://www.w3.org/2000/svg"><defs><mask id="mask0_1432_23213" style="mask-type:luminance" maskUnits="userSpaceOnUse" x="5" y="10.400400000000001" width="19" height="14" xmlns="http://www.w3.org/2000/svg">
<g id="SVGID_00000165928890544357328630000010163460873986055059_" data-node-id="2146:10052">
<path id="Vector_6" data-node-id="2146:10053" d="M22.7834,18.4191c-0.4267,-0.414 -1.0348,-0.3941 -1.5771,-0.2005c-0.2764,0.0987 -0.5352,0.2351 -0.7835,0.3821c-0.149,0.0882 -0.4457,0.4094 -0.6275,0.3746c-0.1255,-0.0239 -0.145,-0.2129 -0.1835,-0.303c-0.3372,-0.7907 -1.0636,-1.5244 -1.6457,-2.1744c-0.6532,-0.7289 -1.3504,-1.4234 -2.0449,-2.1189c-1.1851,-1.1868 -2.2752,-2.4911 -3.0026,-3.961c-0.2269,0.1858 -0.6828,0.5603 -0.7768,0.6495c-0.9068,0.8606 -1.8948,1.663 -2.96,2.3578c-0.494,0.3222 -1.0083,0.6222 -1.5563,0.8623c-0.4876,0.2138 -1.0182,0.3911 -1.5656,0.396c-0.0035,0 -0.0059,-0.0015 -0.0093,-0.0017c-0.1245,0.3614 -0.2219,0.7342 -0.2887,1.1173c-0.7944,4.5545 1.768,7.6921 6.3829,8.353c2.724,0.3901 5.3471,-0.6261 7.0494,-2.4747c0.6636,0.6137 1.9672,0.4203 2.9496,-0.451c1.003,-0.8892 1.3678,-2.1005 0.6396,-2.8074z" fill="white"/>
</g>
</mask><mask id="mask1_1432_23213" style="mask-type:luminance" maskUnits="userSpaceOnUse" x="5" y="10.400400000000001" width="19" height="14" xmlns="http://www.w3.org/2000/svg">
<g id="SVGID_00000165928890544357328630000010163460873986055059__2" data-node-id="2146:10056">
<path id="Vector_8" data-node-id="2146:10057" d="M22.7834,18.4191c-0.4267,-0.414 -1.0348,-0.3941 -1.5771,-0.2005c-0.2764,0.0987 -0.5352,0.2351 -0.7835,0.3821c-0.149,0.0882 -0.4457,0.4094 -0.6275,0.3746c-0.1255,-0.0239 -0.145,-0.2129 -0.1835,-0.303c-0.3372,-0.7907 -1.0636,-1.5244 -1.6457,-2.1744c-0.6532,-0.7289 -1.3504,-1.4234 -2.0449,-2.1189c-1.1851,-1.1868 -2.2752,-2.4911 -3.0026,-3.961c-0.2269,0.1858 -0.6828,0.5603 -0.7768,0.6495c-0.9068,0.8606 -1.8948,1.663 -2.96,2.3578c-0.494,0.3222 -1.0083,0.6222 -1.5563,0.8623c-0.4876,0.2138 -1.0182,0.3911 -1.5656,0.396c-0.0035,0 -0.0059,-0.0015 -0.0093,-0.0017c-0.1245,0.3614 -0.2219,0.7342 -0.2887,1.1173c-0.7944,4.5545 1.768,7.6921 6.3829,8.353c2.724,0.3901 5.3471,-0.6261 7.0494,-2.4747c0.6636,0.6137 1.9672,0.4203 2.9496,-0.451c1.003,-0.8892 1.3678,-2.1005 0.6396,-2.8074z" fill="white"/>
</g>
</mask><mask id="mask2_1432_23213" style="mask-type:luminance" maskUnits="userSpaceOnUse" x="5" y="10.400400000000001" width="19" height="14" xmlns="http://www.w3.org/2000/svg">
<g id="SVGID_00000165928890544357328630000010163460873986055059__3" data-node-id="2146:10060">
<path id="Vector_10" data-node-id="2146:10061" d="M22.7834,18.4191c-0.4267,-0.414 -1.0348,-0.3941 -1.5771,-0.2005c-0.2764,0.0987 -0.5352,0.2351 -0.7835,0.3821c-0.149,0.0882 -0.4457,0.4094 -0.6275,0.3746c-0.1255,-0.0239 -0.145,-0.2129 -0.1835,-0.303c-0.3372,-0.7907 -1.0636,-1.5244 -1.6457,-2.1744c-0.6532,-0.7289 -1.3504,-1.4234 -2.0449,-2.1189c-1.1851,-1.1868 -2.2752,-2.4911 -3.0026,-3.961c-0.2269,0.1858 -0.6828,0.5603 -0.7768,0.6495c-0.9068,0.8606 -1.8948,1.663 -2.96,2.3578c-0.494,0.3222 -1.0083,0.6222 -1.5563,0.8623c-0.4876,0.2138 -1.0182,0.3911 -1.5656,0.396c-0.0035,0 -0.0059,-0.0015 -0.0093,-0.0017c-0.1245,0.3614 -0.2219,0.7342 -0.2887,1.1173c-0.7944,4.5545 1.768,7.6921 6.3829,8.353c2.724,0.3901 5.3471,-0.6261 7.0494,-2.4747c0.6636,0.6137 1.9672,0.4203 2.9496,-0.451c1.003,-0.8892 1.3678,-2.1005 0.6396,-2.8074z" fill="white"/>
</g>
</mask><mask id="mask3_1432_23213" style="mask-type:luminance" maskUnits="userSpaceOnUse" x="5" y="10.400400000000001" width="19" height="14" xmlns="http://www.w3.org/2000/svg">
<g id="SVGID_00000165928890544357328630000010163460873986055059__4" data-node-id="2146:10064">
<path id="Vector_12" data-node-id="2146:10065" d="M22.7834,18.4191c-0.4267,-0.414 -1.0348,-0.3941 -1.5771,-0.2005c-0.2764,0.0987 -0.5352,0.2351 -0.7835,0.3821c-0.149,0.0882 -0.4457,0.4094 -0.6275,0.3746c-0.1255,-0.0239 -0.145,-0.2129 -0.1835,-0.303c-0.3372,-0.7907 -1.0636,-1.5244 -1.6457,-2.1744c-0.6532,-0.7289 -1.3504,-1.4234 -2.0449,-2.1189c-1.1851,-1.1868 -2.2752,-2.4911 -3.0026,-3.961c-0.2269,0.1858 -0.6828,0.5603 -0.7768,0.6495c-0.9068,0.8606 -1.8948,1.663 -2.96,2.3578c-0.494,0.3222 -1.0083,0.6222 -1.5563,0.8623c-0.4876,0.2138 -1.0182,0.3911 -1.5656,0.396c-0.0035,0 -0.0059,-0.0015 -0.0093,-0.0017c-0.1245,0.3614 -0.2219,0.7342 -0.2887,1.1173c-0.7944,4.5545 1.768,7.6921 6.3829,8.353c2.724,0.3901 5.3471,-0.6261 7.0494,-2.4747c0.6636,0.6137 1.9672,0.4203 2.9496,-0.451c1.003,-0.8892 1.3678,-2.1005 0.6396,-2.8074z" fill="white"/>
</g>
</mask></defs><g id="Frame 427318911" xmlns="http://www.w3.org/2000/svg">
<g id="Group">
<g id="Group_2">
<g id="Group_3">
<g id="Group_4">
<path id="Vector" d="M29.7395,19.2607c0,0 1.8658,-0.5951 2.1766,-2.5867c0.3108,-1.9916 -2.1357,-2.3062 -2.1357,-2.3062c1.3587,-0.8146 1.2246,-2.4577 1.2246,-2.4577c0.3789,-2.9457 -2.0855,-3.3164 -2.0855,-3.3164c0,0 1.0761,-0.9473 0.804,-2.3583c-0.5287,-2.7431 -3.4621,-2.3405 -3.4621,-2.3405c-0.1351,-1.4054 -1.1463,-2.6055 -2.5755,-2.9698c-0.0216,-0.0056 -0.0433,-0.011 -0.0649,-0.0161c-1.4607,-0.3568 -3.01,0.2406 -3.8634,1.4407l-0.1199,0.1688c-0.0339,-0.1749 -0.1068,-0.358 -0.1998,-0.5375c-0.4798,-0.9281 -1.3901,-1.5839 -2.4444,-1.8447c-2.505,-0.6195 -3.9275,1.0742 -3.9275,1.0742c-0.8999,-1.291 -3.3505,-1.0915 -3.3505,-1.0915c-5.4106,0.6319 -4.6971,5.7492 -4.6971,5.7492c0,0 -2.2719,-1.7015 -4.2968,1.4948c-2.0252,3.196 0.8556,5.8305 0.8556,5.8305c-0.5037,0.1315 -1.0588,0.9724 -1.0588,0.9724c-1.5622,3.263 2.8887,4.6745 2.8887,4.6745c-2.0134,3.2024 2.4933,3.5453 2.4933,3.5453c0.2505,1.863 1.9811,0.5584 1.9811,0.5584c-0.3508,2.2589 1.5881,1.3896 1.5881,1.3896c0.2836,1.3839 1.685,0.0776 1.685,0.0776l0.2592,-0.0197c-0.0272,0.5696 0.4123,1.0801 1.0447,1.1706c0.5581,0.0799 1.0828,-0.1945 1.3133,-0.6375c0.264,0.5316 0.8427,0.9463 1.5701,1.0506c1.0831,0.1551 2.0855,-0.4352 2.2644,-1.3224c0.1675,0.2796 0.4663,0.49 0.838,0.5431c0.5044,0.0723 0.98,-0.1651 1.2062,-0.555c0.659,1.7743 2.324,0.5659 2.324,0.5659c1.2868,1.0406 2.0249,-0.3521 2.0249,-0.3521c0,0 1.1541,1.0533 2.7146,-0.498c0.8748,-0.8696 0.3039,-2.5096 0.3039,-2.5096c0,0 1.4236,1.2449 2.696,0.0921c1.407,-1.2754 0.0256,-2.6786 0.0256,-2.6786z" fill="#1A0000" stroke="#1A0000" stroke-width="0.203034" stroke-miterlimit="10" stroke-linecap="round"/>
<g id="Group_5">
<g id="Group_6">
<path id="Vector_2" d="M2.77,2.5659c0.3459,-0.0217 0.7816,0 0.7913,0.4069c0.0037,0.1612 -0.0609,0.3461 -0.1506,0.4837c-0.0492,0.0752 -0.1061,0.1527 -0.2041,0.1814c-0.1818,0.0533 -0.2723,-0.1247 -0.1858,-0.2518c0.1834,-0.2691 0.6924,-0.2282 0.8921,-0.0064c0.1976,0.2192 0.0796,0.5887 -0.2237,0.6622c0.0299,0.047 0.0601,0.094 0.09,0.141c0.2382,-0.1683 0.5476,0.0168 0.6104,0.2491c0.0339,0.1252 0.0136,0.2591 -0.0353,0.3787c-0.0341,0.0838 -0.091,0.1595 -0.0787,0.2533c0.0229,0.1756 0.2494,0.3093 0.3509,0.4478c0.1426,0.1949 0.2317,0.4111 0.2777,0.6408c0.0213,0.1066 0.1994,0.0613 0.1783,-0.0449c-0.0542,-0.2717 -0.1701,-0.5287 -0.3503,-0.7512c-0.1258,-0.1554 -0.2833,-0.2246 -0.2222,-0.4513c0.0342,-0.1261 0.0847,-0.2296 0.0799,-0.3638c-0.0155,-0.4335 -0.5242,-0.7725 -0.9416,-0.4778c-0.0766,0.054 0.0078,0.1609 0.09,0.141c0.3546,-0.0862 0.5429,-0.4605 0.4187,-0.7705c-0.134,-0.3354 -0.5917,-0.4708 -0.9442,-0.3665c-0.1779,0.0526 -0.3568,0.1714 -0.404,0.3448c-0.0406,0.1488 0.0269,0.3195 0.1877,0.3806c0.4438,0.169 0.7042,-0.4123 0.7421,-0.7128c0.0269,-0.2136 -0.0323,-0.4313 -0.2289,-0.5638c-0.2101,-0.1417 -0.4913,-0.1341 -0.7394,-0.1188c-0.1183,0.0071 -0.1194,0.1756 -0.0003,0.1683z" fill="#1A0000"/>
</g>
</g>
<g id="Group_7">
<g id="Group_8">
<path id="Vector_3" d="M31.9572,6.6694c-0.3725,-0.2206 -0.87,-0.3714 -1.1485,0.0497c-0.1794,0.2715 -0.2991,0.8519 0.0806,1.0326c0.1555,0.074 0.333,0.0306 0.4329,-0.0987c0.118,-0.1529 0.0777,-0.3521 -0.0286,-0.5004c-0.2115,-0.2949 -0.6814,-0.4355 -1.0248,-0.2462c-0.3397,0.1872 -0.4078,0.6592 -0.1213,0.9105c0.0809,0.0709 0.1843,-0.0182 0.1453,-0.1023c-0.2139,-0.461 -0.8823,-0.3175 -1.0938,0.0607c-0.0601,0.1071 -0.0763,0.2155 -0.1004,0.3314c-0.0406,0.1956 -0.2518,0.2026 -0.4189,0.2706c-0.281,0.1142 -0.5234,0.289 -0.7178,0.5055c-0.0748,0.0833 0.0552,0.2034 0.1308,0.1194c0.1661,-0.1851 0.3648,-0.3371 0.5998,-0.4445c0.1722,-0.0786 0.4683,-0.0947 0.5573,-0.2749c0.0387,-0.0782 0.0272,-0.1702 0.0459,-0.2528c0.0259,-0.1152 0.082,-0.2292 0.1733,-0.3137c0.1971,-0.1824 0.5474,-0.1685 0.6644,0.0836c0.0483,-0.0341 0.0966,-0.0682 0.1452,-0.1021c-0.2026,-0.1777 -0.1535,-0.5099 0.0839,-0.6458c0.2916,-0.1668 0.7736,0.0134 0.8387,0.3266c0.0217,0.1047 -0.0189,0.2705 -0.1906,0.2372c-0.1455,-0.0283 -0.1744,-0.1961 -0.1776,-0.3047c-0.004,-0.1376 0.0267,-0.2839 0.0841,-0.4111c0.0678,-0.1502 0.1872,-0.2795 0.3773,-0.2924c0.2075,-0.0139 0.4043,0.1091 0.5702,0.2072c0.0993,0.0594 0.1922,-0.0864 0.0926,-0.1454z" fill="#1A0000"/>
</g>
</g>
</g>
<path id="Vector_4" d="M6.6032,21.412l-0.4184,-0.5854l-0.4495,0.509l0.1061,-0.8063l-0.4903,-0.2808l0.6174,-0.0266l0.2969,-0.5813l0.1845,0.6147l0.6294,0.1135l-0.4959,0.2491z" fill="white" stroke="white" stroke-width="0.048365" stroke-miterlimit="10" stroke-linecap="round"/>
<path id="Vector_5" d="M6.1582,14.9582c0,0 -0.0029,-8.4814 8.9574,-7.7615c8.4932,0.6824 6.8972,11.1258 4.6543,12.1773l-0.1498,0.2674c0,0 1.3777,-6.1507 -1.6128,-9.2238c-1.9488,-2.0025 -5.2264,-2.2677 -7.6134,-0.7089c-1.2436,0.8121 -3.0696,3.0041 -4.2357,5.2495z" fill="#FFD44D" stroke="#FFD44D" stroke-width="0.185159" stroke-miterlimit="10"/>
</g>
</g>
<g id="Group_9">
<g id="Clip path group">
<mask id="mask0_1432_23213" style="mask-type:luminance" maskUnits="userSpaceOnUse" x="25" y="30" width="19" height="14">
<g id="SVGID_00000165928890544357328630000010163460873986055059_">
<path id="Vector_6" d="M42.7834 38.0187C42.3567 37.6047 41.7486 37.6246 41.2063 37.8182C40.9299 37.9169 40.6711 38.0533 40.4228 38.2003C40.2738 38.2885 39.9771 38.6097 39.7953 38.5749C39.6698 38.551 39.6503 38.362 39.6118 38.2719C39.2746 37.4812 38.5482 36.7475 37.9661 36.0975C37.3129 35.3686 36.6157 34.6741 35.9212 33.9786C34.7361 32.7918 33.646 31.4875 32.9186 30.0176C32.6917 30.2034 32.2358 30.5779 32.1418 30.6671C31.235 31.5277 30.247 32.3301 29.1818 33.0249C28.6878 33.3471 28.1735 33.6471 27.6255 33.8872C27.1379 34.101 26.6073 34.2783 26.0599 34.2832C26.0564 34.2832 26.054 34.2817 26.0506 34.2815C25.9261 34.6429 25.8287 35.0157 25.7619 35.3988C24.9675 39.9533 27.5299 43.0909 32.1448 43.7518C34.8688 44.1419 37.4919 43.1257 39.1942 41.2771C39.8578 41.8908 41.1614 41.6974 42.1438 40.8261C43.1468 39.9369 43.5116 38.7256 42.7834 38.0187Z" fill="white"/>
</g>
</mask>
<g mask="url(#mask0_1432_23213)">
<path id="Vector_7" d="M22.7834,18.4191c-0.4267,-0.414 -1.0348,-0.3941 -1.5771,-0.2005c-0.2764,0.0987 -0.5352,0.2351 -0.7835,0.3821c-0.149,0.0882 -0.4457,0.4094 -0.6275,0.3746c-0.1255,-0.0239 -0.145,-0.2129 -0.1835,-0.303c-0.3372,-0.7907 -1.0636,-1.5244 -1.6457,-2.1744c-0.6532,-0.7289 -1.3504,-1.4234 -2.0449,-2.1189c-1.1851,-1.1868 -2.2752,-2.4911 -3.0026,-3.961c-0.2269,0.1858 -0.6828,0.5603 -0.7768,0.6495c-0.9068,0.8606 -1.8948,1.663 -2.96,2.3578c-0.494,0.3222 -1.0083,0.6222 -1.5563,0.8623c-0.4876,0.2138 -1.0182,0.3911 -1.5656,0.396c-0.0035,0 -0.0059,-0.0015 -0.0093,-0.0017c-0.1245,0.3614 -0.2219,0.7342 -0.2887,1.1173c-0.7944,4.5545 1.768,7.6921 6.3829,8.353c2.724,0.3901 5.3471,-0.6261 7.0494,-2.4747c0.6636,0.6137 1.9672,0.4203 2.9496,-0.451c1.003,-0.8892 1.3678,-2.1005 0.6396,-2.8074z" fill="#CD5428" stroke="#CD5428" stroke-width="0.190657" stroke-miterlimit="10"/>
</g>
</g>
<g id="Clip path group_2">
<mask id="mask1_1432_23213" style="mask-type:luminance" maskUnits="userSpaceOnUse" x="25" y="30" width="19" height="14">
<g id="SVGID_00000165928890544357328630000010163460873986055059__2">
<path id="Vector_8" d="M42.7834 38.0187C42.3567 37.6047 41.7486 37.6246 41.2063 37.8182C40.9299 37.9169 40.6711 38.0533 40.4228 38.2003C40.2738 38.2885 39.9771 38.6097 39.7953 38.5749C39.6698 38.551 39.6503 38.362 39.6118 38.2719C39.2746 37.4812 38.5482 36.7475 37.9661 36.0975C37.3129 35.3686 36.6157 34.6741 35.9212 33.9786C34.7361 32.7918 33.646 31.4875 32.9186 30.0176C32.6917 30.2034 32.2358 30.5779 32.1418 30.6671C31.235 31.5277 30.247 32.3301 29.1818 33.0249C28.6878 33.3471 28.1735 33.6471 27.6255 33.8872C27.1379 34.101 26.6073 34.2783 26.0599 34.2832C26.0564 34.2832 26.054 34.2817 26.0506 34.2815C25.9261 34.6429 25.8287 35.0157 25.7619 35.3988C24.9675 39.9533 27.5299 43.0909 32.1448 43.7518C34.8688 44.1419 37.4919 43.1257 39.1942 41.2771C39.8578 41.8908 41.1614 41.6974 42.1438 40.8261C43.1468 39.9369 43.5116 38.7256 42.7834 38.0187Z" fill="white"/>
</g>
</mask>
<g mask="url(#mask1_1432_23213)">
<path id="Vector_9" opacity="0.49" d="M17.1002,21.8168c-0.4035,1.0401 -1.6551,1.5849 -2.7956,1.2169c-1.1405,-0.368 -1.7378,-1.5094 -1.3343,-2.5495c0.4035,-1.0401 1.655,-1.5849 2.7955,-1.2169c1.1405,0.368 1.7379,1.5094 1.3344,2.5495z" fill="#8B2A0C" stroke="#8B2A0C" stroke-width="0.229534" stroke-miterlimit="10"/>
</g>
</g>
<g id="Clip path group_3">
<mask id="mask2_1432_23213" style="mask-type:luminance" maskUnits="userSpaceOnUse" x="25" y="30" width="19" height="14">
<g id="SVGID_00000165928890544357328630000010163460873986055059__3">
<path id="Vector_10" d="M42.7834 38.0187C42.3567 37.6047 41.7486 37.6246 41.2063 37.8182C40.9299 37.9169 40.6711 38.0533 40.4228 38.2003C40.2738 38.2885 39.9771 38.6097 39.7953 38.5749C39.6698 38.551 39.6503 38.362 39.6118 38.2719C39.2746 37.4812 38.5482 36.7475 37.9661 36.0975C37.3129 35.3686 36.6157 34.6741 35.9212 33.9786C34.7361 32.7918 33.646 31.4875 32.9186 30.0176C32.6917 30.2034 32.2358 30.5779 32.1418 30.6671C31.235 31.5277 30.247 32.3301 29.1818 33.0249C28.6878 33.3471 28.1735 33.6471 27.6255 33.8872C27.1379 34.101 26.6073 34.2783 26.0599 34.2832C26.0564 34.2832 26.054 34.2817 26.0506 34.2815C25.9261 34.6429 25.8287 35.0157 25.7619 35.3988C24.9675 39.9533 27.5299 43.0909 32.1448 43.7518C34.8688 44.1419 37.4919 43.1257 39.1942 41.2771C39.8578 41.8908 41.1614 41.6974 42.1438 40.8261C43.1468 39.9369 43.5116 38.7256 42.7834 38.0187Z" fill="white"/>
</g>
</mask>
<g mask="url(#mask2_1432_23213)">
<path id="Vector_11" opacity="0.49" d="M8.4041,20.1875c-0.361,0.9308 -1.4812,1.4186 -2.5021,1.0891c-1.0206,-0.3293 -1.5555,-1.3509 -1.1942,-2.2819c0.3611,-0.9307 1.4813,-1.4185 2.5021,-1.089c1.0206,0.3292 1.5552,1.3508 1.1942,2.2818z" fill="#8B2A0C" stroke="#8B2A0C" stroke-width="0.205427" stroke-miterlimit="10"/>
</g>
</g>
<g id="Clip path group_4">
<mask id="mask3_1432_23213" style="mask-type:luminance" maskUnits="userSpaceOnUse" x="25" y="30" width="19" height="14">
<g id="SVGID_00000165928890544357328630000010163460873986055059__4">
<path id="Vector_12" d="M42.7834 38.0187C42.3567 37.6047 41.7486 37.6246 41.2063 37.8182C40.9299 37.9169 40.6711 38.0533 40.4228 38.2003C40.2738 38.2885 39.9771 38.6097 39.7953 38.5749C39.6698 38.551 39.6503 38.362 39.6118 38.2719C39.2746 37.4812 38.5482 36.7475 37.9661 36.0975C37.3129 35.3686 36.6157 34.6741 35.9212 33.9786C34.7361 32.7918 33.646 31.4875 32.9186 30.0176C32.6917 30.2034 32.2358 30.5779 32.1418 30.6671C31.235 31.5277 30.247 32.3301 29.1818 33.0249C28.6878 33.3471 28.1735 33.6471 27.6255 33.8872C27.1379 34.101 26.6073 34.2783 26.0599 34.2832C26.0564 34.2832 26.054 34.2817 26.0506 34.2815C25.9261 34.6429 25.8287 35.0157 25.7619 35.3988C24.9675 39.9533 27.5299 43.0909 32.1448 43.7518C34.8688 44.1419 37.4919 43.1257 39.1942 41.2771C39.8578 41.8908 41.1614 41.6974 42.1438 40.8261C43.1468 39.9369 43.5116 38.7256 42.7834 38.0187Z" fill="white"/>
</g>
</mask>
<g mask="url(#mask3_1432_23213)">
<g id="Group_10">
<g id="Group_11">
<path id="Vector_13" d="M20.873,22.7138l-0.4182,-0.5854l-0.4497,0.5089l0.106,-0.8065l-0.4903,-0.2808l0.6174,-0.0263l0.297,-0.5813l0.1848,0.6147l0.6291,0.1134l-0.4959,0.2492z" fill="white" stroke="white" stroke-width="0.048365" stroke-miterlimit="10" stroke-linecap="round"/>
<g id="Group_12">
<g id="Group_13">
<path id="Vector_14" d="M20.439,19.2708c0.3223,-0.265 0.6948,-0.4951 1.1399,-0.601c0.2198,-0.0517 0.4751,-0.0629 0.7117,0.035c0.2344,0.1038 0.4019,0.2947 0.4614,0.5317c0.0486,0.2391 -0.0342,0.4595 -0.1349,0.6455c-0.1081,0.1861 -0.24,0.3524 -0.3885,0.5027c-0.2945,0.302 -0.6377,0.554 -1.0072,0.7639c0.3025,-0.2844 0.5888,-0.5783 0.8422,-0.8859c0.1218,-0.1566 0.2401,-0.3144 0.3215,-0.4829c0.083,-0.1651 0.1375,-0.3427 0.1004,-0.4954c-0.0294,-0.1471 -0.1557,-0.2993 -0.3079,-0.3694c-0.1557,-0.0779 -0.357,-0.0818 -0.5565,-0.0563c-0.4021,0.0621 -0.8016,0.2253 -1.1821,0.4121z" fill="#8B2A0C"/>
</g>
<g id="Group_14">
<path id="Vector_15" d="M19.1797,21.6955c0.0996,-0.1225 0.1746,-0.2589 0.2459,-0.3951c0.07,-0.1371 0.1322,-0.2778 0.1853,-0.4212c0.113,-0.285 0.195,-0.5794 0.277,-0.8753c-0.0198,0.1515 -0.0462,0.3025 -0.0836,0.4518c-0.0385,0.1487 -0.0836,0.2963 -0.1386,0.441c-0.1156,0.2859 -0.2556,0.574 -0.486,0.7988z" fill="#8B2A0C"/>
</g>
</g>
</g>
<g id="Group_15">
<g id="Group_16">
<path id="Vector_16" d="M12.8972,10.128c-0.2951,0.1217 -0.5733,0.3093 -0.6996,0.5905c-0.1058,0.2353 -0.0951,0.5324 0.0988,0.7287c0.1677,0.1697 0.4878,0.2479 0.6756,0.0596c0.1436,-0.1441 0.1468,-0.3959 -0.0534,-0.4985c-0.2556,-0.1307 -0.6222,-0.0141 -0.8233,0.151c-0.2187,0.1797 -0.3146,0.4693 -0.2507,0.7304c0.0576,0.2362 0.2913,0.4595 0.5754,0.3752c0.2305,-0.0682 0.3082,-0.365 0.0678,-0.4712c-0.275,-0.1215 -0.5912,0.0706 -0.7052,0.2986c-0.1525,0.3041 0.0182,0.6397 0.2385,0.8733c0.0734,0.0779 0.1965,-0.0353 0.1236,-0.1128c-0.1581,-0.1675 -0.2953,-0.4016 -0.2291,-0.6293c0.0288,-0.0988 0.0996,-0.1892 0.193,-0.2462c0.0617,-0.0375 0.3803,-0.1373 0.3531,0.0475c-0.0214,0.1447 -0.251,0.0994 -0.3247,0.0378c-0.0951,-0.0797 -0.133,-0.2056 -0.137,-0.3198c-0.0078,-0.2223 0.1207,-0.4347 0.333,-0.5443c0.1361,-0.0703 0.6104,-0.1758 0.5671,0.0931c-0.043,0.2678 -0.4043,0.1565 -0.5156,-0.002c-0.305,-0.4349 0.2069,-0.8613 0.6016,-1.0243c0.1018,-0.0419 0.0131,-0.1792 -0.0889,-0.1373z" fill="#1A0000"/>
</g>
</g>
<g id="Group_17">
<g id="Group_18">
<g id="Group_19">
<g id="Group_20">
<path id="Vector_17" d="M9.9243,18.1943c0.0716,-0.1916 0.1998,-0.3726 0.3853,-0.5038c0.1819,-0.133 0.4329,-0.2078 0.673,-0.1798c0.1183,0.0122 0.2384,0.0429 0.3466,0.0979c0.1049,0.0599 0.1965,0.1398 0.2569,0.2353c0.1247,0.1894 0.145,0.4096 0.107,0.6083c-0.0341,-0.1987 -0.106,-0.3894 -0.228,-0.5336c-0.122,-0.1451 -0.302,-0.2225 -0.5018,-0.2379c-0.197,-0.0253 -0.3944,0.0251 -0.5706,0.1191c-0.1754,0.0969 -0.3335,0.2343 -0.4684,0.3945z" fill="#8B2A0C"/>
</g>
</g>
<g id="Group_21" opacity="0.53">
<g id="Group_22">
<path id="Vector_18" d="M9.9355,18.1956c0,0 0.4169,-0.7204 1.1763,-0.545c0.6521,0.1505 0.5806,0.8635 0.5806,0.8635" fill="#8B2A0C"/>
<path id="Vector_19" d="M9.9355,18.1955c0.0794,-0.189 0.2153,-0.3653 0.4059,-0.4902c0.1872,-0.1264 0.4412,-0.1926 0.6799,-0.1563c0.1178,0.0163 0.2363,0.0508 0.3423,0.1098c0.1026,0.0633 0.1907,0.1466 0.247,0.2438c0.117,0.1936 0.128,0.4144 0.0818,0.6115c-0.0259,-0.1997 -0.0898,-0.3929 -0.2059,-0.5409c-0.1159,-0.1493 -0.2927,-0.2328 -0.4916,-0.2552c-0.1958,-0.0322 -0.3952,0.0114 -0.5752,0.0993c-0.1792,0.0911 -0.3429,0.2228 -0.4842,0.3782z" fill="#8B2A0C"/>
</g>
</g>
</g>
<g id="Group_23">
<path id="Vector_20" d="M6.082,16.2189c-0.0692,1.0388 0.8048,1.9309 1.952,1.992c1.1472,0.0611 2.133,-0.7313 2.2019,-1.7702c0.0692,-1.0389 -0.8048,-1.9309 -1.952,-1.992c-1.1469,-0.0614 -2.1328,0.7313 -2.2019,1.7702z" fill="white"/>
<path id="Vector_21" d="M7.0931,15.8624c-0.1554,0.7878 0.3599,1.5399 1.1514,1.6799c0.7915,0.14 1.559,-0.3853 1.7146,-1.1728c0.1557,-0.7876 -0.3599,-1.5399 -1.1514,-1.6799c-0.7915,-0.14 -1.5592,0.385 -1.7146,1.1728z" fill="#280707" stroke="#280707" stroke-width="0.192166" stroke-miterlimit="10"/>
<g id="Group_24">
<g id="Group_25">
<path id="Vector_22" d="M10.2857,16.0558c-0.1089,-0.2075 -0.2307,-0.4075 -0.3781,-0.5872c-0.1426,-0.1817 -0.298,-0.3521 -0.4793,-0.4912c-0.1846,-0.1346 -0.383,-0.2433 -0.5931,-0.3202c-0.2153,-0.0646 -0.4372,-0.1069 -0.6671,-0.1016c-0.4673,-0.0012 -0.9266,0.1184 -1.2887,0.3721c-0.376,0.2445 -0.6243,0.6469 -0.7712,1.0662l-0.0245,0.0704l-0.058,-0.0202c-0.1372,-0.0478 -0.2734,-0.0987 -0.4083,-0.1542l0.0062,-0.0199l0.423,0.1052l-0.0161,0.0097c0.089,-0.4542 0.3304,-0.893 0.7229,-1.193c0.3896,-0.301 0.9082,-0.4469 1.4147,-0.4401c0.2553,-0.001 0.5087,0.0458 0.7461,0.1305c0.2334,0.0935 0.4473,0.2241 0.6316,0.3843c0.3599,0.3283 0.6144,0.7425 0.7621,1.1845z" fill="black"/>
</g>
<g id="Group_26">
<path id="Vector_23" d="M6.1027,15.7139l-0.3915,-0.2891l0.4937,0.0899z" fill="black"/>
</g>
<g id="Group_27">
<path id="Vector_24" d="M6.2983,15.2914l-0.3266,-0.3305l0.4603,0.1474z" fill="black"/>
</g>
</g>
<g id="Group_28">
<path id="Vector_25" d="M9.6541,17.7289c-0.2542,0.1894 -0.553,0.3312 -0.8713,0.4227c-0.3181,0.0926 -0.662,0.1271 -1.0003,0.0872c-0.1704,-0.0163 -0.333,-0.0679 -0.4943,-0.1181c-0.1506,-0.0736 -0.3082,-0.1354 -0.4347,-0.2404c-0.141,-0.0864 -0.246,-0.2082 -0.3571,-0.3202c-0.1017,-0.1193 -0.1837,-0.2521 -0.2659,-0.3794c0.2259,0.2172 0.447,0.4303 0.7172,0.5779c0.2601,0.158 0.5557,0.2591 0.8625,0.291c0.3058,0.0394 0.6212,0.0173 0.9306,-0.0417c0.3087,-0.0633 0.6169,-0.1529 0.9133,-0.279z" fill="black"/>
</g>
</g>
<g id="Group_29">
<path id="Vector_26" d="M17.3436,18.058c-0.2937,1.0752 -1.5288,1.7332 -2.7587,1.4699c-1.23,-0.2635 -1.9892,-1.3486 -1.6957,-2.4238c0.2937,-1.0752 1.5288,-1.7332 2.759,-1.4699c1.2299,0.2632 1.9889,1.3484 1.6954,2.4238z" fill="white"/>
<path id="Vector_27" d="M17.3377,17.5694c-0.1119,0.8307 -0.9016,1.4385 -1.7641,1.3579c-0.8625,-0.0806 -1.4711,-0.8194 -1.3592,-1.6501c0.1119,-0.8307 0.9015,-1.4385 1.7641,-1.3579c0.8625,0.0808 1.471,0.8195 1.3592,1.6501z" fill="#280707" stroke="#280707" stroke-width="0.203767" stroke-miterlimit="10"/>
<g id="Group_30">
<g id="Group_31">
<path id="Vector_28" d="M12.98,16.7678c0.2457,-0.4447 0.6345,-0.8275 1.1293,-1.0893c0.2478,-0.1315 0.5295,-0.2138 0.8208,-0.2477c0.2916,-0.0229 0.591,-0.0083 0.8716,0.066c0.5536,0.133 1.0692,0.4527 1.3955,0.9004c0.1624,0.2245 0.247,0.4851 0.293,0.7395c0.047,0.2572 0.036,0.5141 -0.0321,0.7667l-0.0673,-0.075c0.1568,0.0175 0.3135,0.0384 0.47,0.0645l-0.0005,0.0219l-0.4716,-0.01l-0.015,-0.0002l0.0019,-0.0144c0.063,-0.479 -0.0467,-0.9877 -0.349,-1.3874c-0.3028,-0.4006 -0.7805,-0.6692 -1.2903,-0.7999c-0.2537,-0.0734 -0.5218,-0.0911 -0.7862,-0.0768c-0.2635,0.0276 -0.5215,0.0945 -0.7618,0.1995c-0.475,0.2192 -0.8823,0.5577 -1.188,0.9541z" fill="black"/>
</g>
<g id="Group_32">
<path id="Vector_29" d="M17.3862,17.3721l0.5384,0.0497l-0.5031,0.1814z" fill="black"/>
</g>
<g id="Group_33">
<path id="Vector_30" d="M17.2937,16.9038l0.5229,-0.0171l-0.4516,0.2411z" fill="black"/>
</g>
</g>
<g id="Group_34">
<path id="Vector_31" d="M13.073,18.6279c0.1332,0.1038 0.2665,0.2041 0.4112,0.2898c0.1384,0.0923 0.2844,0.1742 0.4345,0.246c0.3001,0.1427 0.616,0.253 0.9434,0.2976c0.3261,0.0533 0.6628,0.0336 0.9851,-0.0492c0.3298,-0.0687 0.6278,-0.226 0.9368,-0.3777c-0.1298,0.1049 -0.2607,0.2158 -0.407,0.3066c-0.1538,0.0799 -0.3049,0.17 -0.4777,0.2194c-0.165,0.0714 -0.3477,0.0879 -0.5266,0.1196c-0.1816,0.0051 -0.3653,0.0119 -0.545,-0.019c-0.3592,-0.0541 -0.7013,-0.1812 -0.9966,-0.3646c-0.2948,-0.1821 -0.5602,-0.403 -0.7581,-0.6685z" fill="black"/>
</g>
</g>
<g id="Group_35">
<path id="Vector_32" opacity="0.49" d="M11.9426,19.2163c-0.0588,0.3385 -0.4409,0.9457 -1.2911,0.8402c-0.5881,-0.0728 -0.9702,-0.6914 -0.9114,-1.0299c0,0 0.5661,-0.1081 1.1616,-0.075c0.4139,0.0232 1.0409,0.2647 1.0409,0.2647z" fill="#8B2A0C"/>
<g id="Group_36">
<path id="Vector_33" d="M9.3579,18.7207c0.2195,0.1719 0.4508,0.32 0.6924,0.4398c0.243,0.1169 0.5002,0.2014 0.7635,0.2243c0.2617,0.0263 0.5322,0 0.7859,-0.0908c0.1332,-0.031 0.2494,-0.1023 0.3786,-0.153c0.1234,-0.0608 0.2382,-0.1366 0.3682,-0.1997c-0.0937,0.0992 -0.1912,0.2 -0.3009,0.2891c-0.1202,0.0757 -0.2307,0.1719 -0.3717,0.2221c-0.2636,0.1337 -0.5821,0.1795 -0.886,0.152c-0.3055,-0.0312 -0.595,-0.1398 -0.8366,-0.2979c-0.2417,-0.158 -0.4503,-0.3545 -0.5934,-0.5859z" fill="#3B130E"/>
</g>
</g>
<g id="Group_37">
<path id="Vector_34" d="M6.7703,13.8792c0.0555,-0.2493 0.2096,-0.4782 0.4171,-0.6545c0.2043,-0.182 0.4628,-0.3093 0.7327,-0.3924c0.2743,-0.0713 0.5584,-0.0996 0.835,-0.074c0.1381,0.008 0.2727,0.0424 0.4054,0.0684c0.1295,0.0465 0.2582,0.084 0.3795,0.1427l0.0026,0.0012c0.0059,0.003 0.008,0.0095 0.0051,0.0147c-0.0024,0.0041 -0.0075,0.0063 -0.0123,0.0056l-0.3872,-0.0485c-0.13,-0.0029 -0.2601,-0.0161 -0.3899,-0.0107c-0.2598,0.0061 -0.5183,0.0419 -0.7655,0.1113c-0.4906,0.1395 -0.9464,0.431 -1.2003,0.8457c-0.0033,0.0054 -0.0107,0.0074 -0.0163,0.0042c-0.0048,-0.0024 -0.007,-0.0073 -0.0059,-0.0117z" fill="#2E2E2E"/>
</g>
<g id="Group_38">
<path id="Vector_35" d="M17.7252,15.296c-0.1487,-0.2043 -0.3228,-0.3704 -0.4977,-0.5214c-0.1797,-0.1473 -0.3698,-0.2749 -0.5771,-0.3811c-0.1046,-0.0519 -0.2088,-0.105 -0.322,-0.1449c-0.1071,-0.0536 -0.2262,-0.0806 -0.3405,-0.1269l-0.7386,-0.2274l-0.004,-0.0013c-0.0061,-0.0019 -0.0093,-0.008 -0.0075,-0.0136c0.0019,-0.0046 0.0067,-0.0075 0.0118,-0.0073l0.3925,0.0212c0.1293,0.0202 0.2606,0.0307 0.3883,0.0592c0.2566,0.0526 0.506,0.1344 0.7389,0.2488c0.4537,0.2419 0.8307,0.6242 0.9792,1.0898c0.0018,0.0056 -0.0019,0.0115 -0.008,0.0132c-0.0051,0.0012 -0.0102,-0.0005 -0.0129,-0.0044z" fill="#2E2E2E"/>
</g>
</g>
</g>
</g>
</g>
</g>
</g>
<path id="SIMBI" d="M41.0032,17.0347c0.8141,0 1.3978,-0.1459 1.751,-0.4377c0.3687,-0.3072 0.553,-0.6682 0.553,-1.0829c0,-0.384 -0.1459,-0.6912 -0.4378,-0.9216c-0.2764,-0.2458 -0.6912,-0.4608 -1.2441,-0.6451l-1.2211,-0.3917c-0.8295,-0.2765 -1.5591,-0.5837 -2.1888,-0.9216c-0.6298,-0.3379 -1.1213,-0.768 -1.4746,-1.2903c-0.3533,-0.5376 -0.5299,-1.2211 -0.5299,-2.0505c0,-1.2749 0.4838,-2.2887 1.4515,-3.0413c0.9677,-0.7526 2.3117,-1.129 4.032,-1.129c0.8755,0 1.6512,0.0845 2.327,0.2535c0.6912,0.1689 1.2288,0.4224 1.6128,0.7603c0.3994,0.3226 0.5991,0.7219 0.5991,1.1981c0,0.3379 -0.0845,0.6374 -0.2535,0.8985c-0.1689,0.2612 -0.3686,0.4762 -0.599,0.6452c-0.3533,-0.2304 -0.8294,-0.4378 -1.4285,-0.6221c-0.5837,-0.1843 -1.2211,-0.2765 -1.9123,-0.2765c-0.7373,0 -1.2979,0.1229 -1.6819,0.3686c-0.3687,0.2458 -0.553,0.5607 -0.553,0.9447c0,0.3072 0.1229,0.5606 0.3687,0.7603c0.2611,0.1843 0.6374,0.3533 1.1289,0.5069l1.2672,0.4147c1.3978,0.4301 2.473,0.9984 3.2256,1.705c0.7527,0.7065 1.129,1.6588 1.129,2.8569c0,1.2903 -0.4992,2.3424 -1.4976,3.1565c-0.9984,0.7987 -2.4423,1.1981 -4.3315,1.1981c-0.937,0 -1.7741,-0.1075 -2.5114,-0.3226c-0.7373,-0.1997 -1.321,-0.4838 -1.751,-0.8525c-0.4301,-0.384 -0.6452,-0.8294 -0.6452,-1.3363c0,-0.3993 0.1152,-0.7373 0.3456,-1.0137c0.2304,-0.2765 0.4916,-0.4916 0.7834,-0.6452c0.4147,0.338 0.9293,0.6452 1.5437,0.9216c0.6297,0.2612 1.344,0.3917 2.1427,0.3917zM48.6512,9.7771h3.5021v9.6999c-0.1536,0.0307 -0.384,0.0691 -0.6912,0.1152c-0.2918,0.046 -0.599,0.0691 -0.9216,0.0691c-0.6912,0 -1.1827,-0.1229 -1.4746,-0.3687c-0.2764,-0.2457 -0.4147,-0.6681 -0.4147,-1.2672zM52.1533,14.1547h-3.5021v-8.663c0.169,-0.0307 0.4071,-0.0691 0.7143,-0.1152c0.3072,-0.0461 0.6144,-0.0691 0.9216,-0.0691c0.6604,0 1.1366,0.1152 1.4284,0.3456c0.2919,0.2304 0.4378,0.6604 0.4378,1.2902zM63.9716,16.021c-0.1844,0.1228 -0.4148,0.238 -0.6912,0.3456c-0.2765,0.0921 -0.5991,0.1382 -0.9677,0.1382c-0.4762,0 -0.8755,-0.0614 -1.1981,-0.1843c-0.3072,-0.1229 -0.5146,-0.3303 -0.6221,-0.6221c-0.5222,-1.4592 -0.9677,-2.6803 -1.3363,-3.6634c-0.3533,-0.983 -0.6298,-1.8278 -0.8294,-2.5344h-0.1152c-0.0461,0.9677 -0.0845,1.8586 -0.1152,2.6727c-0.0308,0.8141 -0.0615,1.5974 -0.0922,2.3501c-0.0154,0.7526 -0.0384,1.5283 -0.0691,2.327c-0.0307,0.7834 -0.0691,1.6435 -0.1152,2.5805c-0.1843,0.0461 -0.4147,0.0921 -0.6912,0.1382c-0.2765,0.0615 -0.553,0.0922 -0.8295,0.0922c-0.5836,0 -1.0368,-0.0922 -1.3593,-0.2765c-0.3226,-0.1997 -0.4839,-0.5453 -0.4839,-1.0368c0,-0.3379 0.0154,-0.8371 0.0461,-1.4976c0.0307,-0.6758 0.0691,-1.4438 0.1152,-2.304c0.0615,-0.8755 0.1229,-1.7971 0.1843,-2.7648c0.0615,-0.9677 0.1229,-1.92 0.1844,-2.857c0.0768,-0.9523 0.1382,-1.8278 0.1843,-2.6265c0.1229,-0.1843 0.3686,-0.3687 0.7373,-0.553c0.3686,-0.1997 0.8755,-0.2995 1.5206,-0.2995c0.6912,0 1.2442,0.1152 1.6589,0.3456c0.4147,0.215 0.7142,0.5683 0.8985,1.0598c0.2304,0.5684 0.4762,1.2212 0.7373,1.9584c0.2611,0.722 0.5223,1.4592 0.7834,2.2119c0.2611,0.7373 0.4992,1.4131 0.7142,2.0275h0.1152c0.4455,-1.367 0.8909,-2.6957 1.3363,-3.9859c0.4455,-1.2903 0.8372,-2.3731 1.1751,-3.2487c0.1997,-0.1075 0.4608,-0.192 0.7833,-0.2534c0.338,-0.0768 0.6912,-0.1152 1.0599,-0.1152c0.6605,0 1.1904,0.0998 1.5897,0.2995c0.4148,0.1843 0.6605,0.4685 0.7373,0.8525c0.0615,0.2918 0.1229,0.7526 0.1843,1.3824c0.0768,0.6298 0.1536,1.3594 0.2304,2.1888c0.0768,0.8141 0.1536,1.6742 0.2304,2.5805c0.0768,0.8909 0.146,1.7587 0.2074,2.6035c0.0768,0.8448 0.1382,1.6128 0.1843,2.304c0.0461,0.6758 0.0768,1.2134 0.0922,1.6128c-0.2304,0.1382 -0.4762,0.2381 -0.7373,0.2995c-0.2458,0.0615 -0.5606,0.0922 -0.9446,0.0922c-0.4762,0 -0.8909,-0.0845 -1.2442,-0.2535c-0.3533,-0.1843 -0.5453,-0.5299 -0.576,-1.0368c-0.0614,-1.2134 -0.1152,-2.3654 -0.1613,-3.456c-0.0461,-1.0905 -0.0845,-2.0889 -0.1152,-2.9952c-0.0307,-0.9062 -0.0614,-1.6742 -0.0921,-2.304h-0.1152c-0.1997,0.6605 -0.4839,1.4976 -0.8525,2.5114c-0.3533,0.9984 -0.7987,2.2963 -1.3363,3.8938zM79.638,11.1134v2.4884h-5.1379v-2.4884zM77.91,13.6018l0.2765,-1.9124c1.2749,0 2.3275,0.1536 3.1565,0.4608c0.845,0.3072 1.482,0.7373 1.912,1.2903c0.43,0.5529 0.645,1.2211 0.645,2.0045c0,1.4899 -0.553,2.5958 -1.658,3.3177c-1.106,0.7219 -2.6808,1.0829 -4.7236,1.0829c-0.3687,0 -0.7911,-0.0154 -1.2672,-0.0461c-0.4608,-0.0307 -0.937,-0.0845 -1.4285,-0.1613c-0.4762,-0.0768 -0.9139,-0.1843 -1.3133,-0.3225c-0.7987,-0.2919 -1.1981,-0.8064 -1.1981,-1.5437v-11.0131c0,-0.3072 0.0845,-0.5376 0.2535,-0.6912c0.1689,-0.169 0.3993,-0.3072 0.6912,-0.4147c0.5222,-0.169 1.152,-0.2919 1.8892,-0.3687c0.7373,-0.0768 1.4976,-0.1152 2.281,-0.1152c1.8893,0 3.3558,0.3303 4.4008,0.9907c1.044,0.6452 1.567,1.6436 1.567,2.9952c0,0.7373 -0.215,1.3671 -0.646,1.8893c-0.43,0.5223 -1.059,0.9216 -1.889,1.1981c-0.814,0.2611 -1.8046,0.3917 -2.972,0.3917l-0.1613,-1.5207c0.7527,0 1.3056,-0.1459 1.6589,-0.4377c0.3533,-0.2919 0.5299,-0.7066 0.5299,-1.2442c0,-0.5069 -0.2073,-0.8985 -0.6221,-1.175c-0.4147,-0.2765 -1.0291,-0.4147 -1.8432,-0.4147c-0.2918,0 -0.6067,0.0076 -0.9446,0.023c-0.3226,0.0154 -0.5837,0.0461 -0.7834,0.0922v8.9856c0.2458,0.0768 0.5607,0.1305 0.9447,0.1612c0.384,0.0154 0.7449,0.0231 1.0829,0.0231c0.7833,0 1.4054,-0.1459 1.8662,-0.4378c0.476,-0.2918 0.714,-0.7526 0.714,-1.3824c0,-0.5837 -0.207,-1.0137 -0.6218,-1.2902c-0.3994,-0.2765 -0.9984,-0.4147 -1.7972,-0.4147zM85.773,9.7771h3.502v9.6999c-0.154,0.0307 -0.384,0.0691 -0.692,0.1152c-0.291,0.046 -0.599,0.0691 -0.921,0.0691c-0.691,0 -1.183,-0.1229 -1.475,-0.3687c-0.276,-0.2457 -0.414,-0.6681 -0.414,-1.2672zM89.275,14.1547h-3.502v-8.663c0.169,-0.0307 0.407,-0.0691 0.714,-0.1152c0.307,-0.0461 0.614,-0.0691 0.921,-0.0691c0.661,0 1.137,0.1152 1.429,0.3456c0.292,0.2304 0.438,0.6604 0.438,1.2902z" fill="#1E1E2F"/>
</g></svg>