<svg width="168" height="170" viewBox="0 0 168 170" fill="none" xmlns="http://www.w3.org/2000/svg">
<path opacity="0.39" d="M50.1686 169.471C77.8759 169.471 100.337 164.933 100.337 159.334C100.337 153.736 77.8759 149.198 50.1686 149.198C22.4612 149.198 0 153.736 0 159.334C0 164.933 22.4612 169.471 50.1686 169.471Z" fill="#7A5FFF"/>
<path d="M117.969 79.2174C117.969 79.2174 125.075 76.784 126.258 68.6416C127.442 60.4992 118.125 59.2128 118.125 59.2128C123.299 55.8824 122.789 49.1647 122.789 49.1647C124.232 37.1214 114.846 35.606 114.846 35.606C114.846 35.606 118.945 31.7329 117.908 25.9641C115.895 14.7492 104.724 16.3949 104.724 16.3949C104.209 10.6491 100.358 5.74252 94.9155 4.25303C94.8331 4.23013 94.7507 4.20821 94.6683 4.1873C89.1057 2.72868 83.2054 5.17099 79.9553 10.0775L79.4987 10.7676C79.3695 10.0527 79.0919 9.30395 78.738 8.57016C76.9106 4.77574 73.4438 2.09445 69.429 1.02811C59.8891 -1.50482 54.4718 5.41992 54.4718 5.41992C51.0448 0.14199 41.7123 0.957402 41.7123 0.957402C21.1071 3.54111 23.8244 24.4627 23.8244 24.4627C23.8244 24.4627 15.1723 17.5061 7.46085 30.574C-0.251601 43.6409 10.7191 54.4118 10.7191 54.4118C8.80119 54.9495 6.68696 58.3874 6.68696 58.3874C0.737877 71.7281 17.6882 77.4989 17.6882 77.4989C10.0205 90.5917 27.1833 91.9936 27.1833 91.9936C28.1372 99.6103 34.728 94.2766 34.728 94.2766C33.3917 103.512 40.7757 99.9578 40.7757 99.9578C41.8557 105.616 47.1926 100.275 47.1926 100.275L48.18 100.195C48.0763 102.524 49.7502 104.61 52.1583 104.981C54.2837 105.307 56.282 104.185 57.1596 102.374C58.1654 104.548 60.3691 106.243 63.1392 106.669C67.2639 107.304 71.0815 104.89 71.7628 101.263C72.4005 102.406 73.5384 103.266 74.954 103.483C76.875 103.779 78.6861 102.808 79.5475 101.214C82.0573 108.469 88.3979 103.528 88.3979 103.528C93.2985 107.783 96.1093 102.088 96.1093 102.088C96.1093 102.088 100.505 106.395 106.448 100.052C109.779 96.4969 107.605 89.7922 107.605 89.7922C107.605 89.7922 113.026 94.8819 117.872 90.1685C123.23 84.9543 117.969 79.2174 117.969 79.2174Z" fill="#1A0000" stroke="#8B2A0C" stroke-width="0.9416" stroke-miterlimit="10" stroke-linecap="round"/>
<path d="M15.2672 10.9646C16.5842 10.876 18.2438 10.9646 18.2804 12.6284C18.2947 13.2875 18.0486 14.0432 17.7069 14.6057C17.5197 14.9134 17.3031 15.23 16.9299 15.3475C16.2374 15.5655 15.8926 14.8377 16.2221 14.318C16.9208 13.2178 18.8591 13.385 19.6197 14.2921C20.3723 15.1882 19.9228 16.6986 18.7675 16.9992C18.8814 17.1914 18.9963 17.3836 19.1102 17.5757C20.0173 16.8877 21.196 17.6444 21.4349 18.5943C21.5641 19.1061 21.4868 19.6537 21.3007 20.1425C21.1706 20.485 20.9539 20.7947 21.0007 21.178C21.0882 21.8959 21.9505 22.4425 22.337 23.009C22.88 23.8055 23.2197 24.6897 23.3946 25.6286C23.4759 26.0646 24.1542 25.8794 24.0739 25.4453C23.8675 24.3342 23.4261 23.2838 22.7397 22.3738C22.2607 21.7385 21.6607 21.4558 21.8936 20.5288C22.0238 20.0131 22.216 19.5899 22.1976 19.0413C22.1387 17.2691 20.2014 15.8831 18.6119 17.0879C18.3201 17.3089 18.6414 17.746 18.9546 17.6643C20.3051 17.3119 21.0221 15.7816 20.5492 14.5141C20.0387 13.1431 18.2957 12.5895 16.9533 13.0157C16.276 13.2307 15.5947 13.7166 15.4147 14.4255C15.2601 15.0338 15.5174 15.7318 16.1296 15.9817C17.8197 16.6727 18.8113 14.2961 18.9557 13.0674C19.0584 12.1943 18.8326 11.3042 18.0841 10.7625C17.2838 10.1831 16.213 10.2139 15.2682 10.2766C14.8177 10.3055 14.8137 10.9945 15.2672 10.9646Z" fill="#1A0000"/>
<path d="M126.411 27.7364C124.992 26.8343 123.097 26.218 122.037 27.9395C121.353 29.0496 120.898 31.4223 122.344 32.1611C122.936 32.4637 123.612 32.2865 123.992 31.7578C124.442 31.1326 124.288 30.3181 123.884 29.7118C123.078 28.506 121.288 27.9315 119.981 28.7052C118.687 29.4708 118.428 31.4004 119.519 32.4279C119.827 32.7176 120.221 32.3532 120.072 32.0097C119.257 30.125 116.712 30.7114 115.907 32.2576C115.678 32.6957 115.616 33.1388 115.524 33.6127C115.37 34.4122 114.565 34.4411 113.929 34.7189C112.859 35.1859 111.936 35.9007 111.195 36.7858C110.91 37.1264 111.406 37.6172 111.694 37.2737C112.326 36.517 113.083 35.8957 113.978 35.4567C114.633 35.1351 115.761 35.0694 116.1 34.3326C116.247 34.013 116.204 33.6366 116.275 33.2991C116.373 32.8281 116.587 32.3622 116.935 32.0167C117.685 31.2709 119.02 31.3277 119.465 32.3582C119.649 32.2188 119.833 32.0794 120.018 31.941C119.246 31.2142 119.433 29.8561 120.337 29.3006C121.448 28.6185 123.284 29.3553 123.532 30.6357C123.614 31.0639 123.459 31.7419 122.806 31.6055C122.251 31.49 122.142 30.804 122.129 30.3599C122.114 29.7974 122.231 29.199 122.45 28.6793C122.708 28.065 123.163 27.5363 123.887 27.4835C124.677 27.4267 125.426 27.9295 126.058 28.3308C126.436 28.5737 126.79 27.9774 126.411 27.7364Z" fill="#1A0000"/>
<path d="M29.8632 88.0141L28.2696 85.6205L26.5581 87.7014L26.9618 84.4048L25.0947 83.2569L27.4459 83.1483L28.5767 80.7717L29.2794 83.2847L31.6763 83.7487L29.7879 84.7673L29.8632 88.0141Z" fill="white" stroke="white" stroke-width="0.2243" stroke-miterlimit="10" stroke-linecap="round"/>
<path d="M28.165 61.6252C28.165 61.6252 28.1539 26.9497 62.2772 29.8929C94.6219 32.6827 88.5437 75.3801 80.0024 79.6793L79.4319 80.7725C79.4319 80.7725 84.6783 55.6254 73.2896 43.0613C65.868 34.8741 53.3861 33.7898 44.2957 40.163C39.5598 43.4835 32.606 52.4453 28.165 61.6252Z" fill="#FFD44D" stroke="#FFD44D" stroke-width="0.8587" stroke-miterlimit="10"/>
<path d="M52.0827 96.8233L52.5545 103.006H48.9261C48.4878 103.006 48.2051 103.459 48.4054 103.842L53.2725 113.118H59.5246L64.8005 102.274C65.0466 101.768 64.652 101.187 64.0805 101.214L60.8497 101.366V96.209L52.0827 96.8233Z" fill="#B44A24" stroke="#B44A24" stroke-width="0.4592" stroke-miterlimit="10"/>
<mask id="mask0_1432_15706" style="mask-type:luminance" maskUnits="userSpaceOnUse" x="26" y="43" width="67" height="57">
<path d="M91.4771 75.7716C89.852 74.079 87.5364 74.1607 85.471 74.9522C84.4185 75.3554 83.4331 75.913 82.4873 76.5144C81.9198 76.8748 80.7901 78.1881 80.0975 78.0457C79.6196 77.9481 79.5453 77.1755 79.3989 76.8071C78.1145 73.5742 75.3484 70.5743 73.1315 67.9169C70.6441 64.937 67.9888 62.0974 65.3438 59.2538C60.8306 54.402 56.6795 49.0693 53.9093 43.0596C53.0449 43.8193 51.309 45.3506 50.9511 45.715C47.4975 49.2336 43.7349 52.5142 39.6783 55.3548C37.797 56.6721 35.8384 57.8987 33.7516 58.8804C31.8947 59.7546 29.874 60.4794 27.7893 60.4993C27.7761 60.4993 27.7669 60.4934 27.7537 60.4924C27.2798 61.9699 26.9086 63.4943 26.6544 65.0604C23.629 83.6811 33.3875 96.509 50.9623 99.2112C61.336 100.806 71.3254 96.6514 77.8084 89.0934C80.3355 91.6024 85.3002 90.8119 89.0415 87.2494C92.8611 83.6143 94.2502 78.662 91.4771 75.7716Z" fill="white"/>
</mask>
<g mask="url(#mask0_1432_15706)">
<path d="M91.4775 75.7716C89.8525 74.079 87.5369 74.1607 85.4715 74.9522C84.419 75.3554 83.4335 75.913 82.4878 76.5144C81.9203 76.8748 80.7905 78.1881 80.098 78.0457C79.62 77.9481 79.5458 77.1755 79.3994 76.8071C78.115 73.5742 75.3489 70.5743 73.132 67.9169C70.6446 64.937 67.9893 62.0974 65.3443 59.2538C60.8311 54.402 56.68 49.0693 53.9098 43.0596C53.0454 43.8193 51.3095 45.3506 50.9516 45.715C47.498 49.2336 43.7354 52.5142 39.6788 55.3548C37.7975 56.6721 35.8389 57.8987 33.7521 58.8804C31.8952 59.7546 29.8745 60.4794 27.7898 60.4993C27.7766 60.4993 27.7674 60.4934 27.7542 60.4924C27.2803 61.9699 26.9091 63.4943 26.6549 65.0604C23.6295 83.6811 33.388 96.509 50.9627 99.2112C61.3365 100.806 71.3259 96.6514 77.8089 89.0934C80.336 91.6024 85.3006 90.8119 89.042 87.2494C92.8616 83.6143 94.2507 78.662 91.4775 75.7716Z" fill="#CD5428" stroke="#CD5428" stroke-width="0.8842" stroke-miterlimit="10"/>
</g>
<mask id="mask1_1432_15706" style="mask-type:luminance" maskUnits="userSpaceOnUse" x="26" y="43" width="67" height="57">
<path d="M91.4771 75.7716C89.852 74.079 87.5364 74.1607 85.471 74.9522C84.4185 75.3554 83.4331 75.913 82.4873 76.5144C81.9198 76.8748 80.7901 78.1881 80.0975 78.0457C79.6196 77.9481 79.5453 77.1755 79.3989 76.8071C78.1145 73.5742 75.3484 70.5743 73.1315 67.9169C70.6441 64.937 67.9888 62.0974 65.3438 59.2538C60.8306 54.402 56.6795 49.0693 53.9093 43.0596C53.0449 43.8193 51.309 45.3506 50.9511 45.715C47.4975 49.2336 43.7349 52.5142 39.6783 55.3548C37.797 56.6721 35.8384 57.8987 33.7516 58.8804C31.8947 59.7546 29.874 60.4794 27.7893 60.4993C27.7761 60.4993 27.7669 60.4934 27.7537 60.4924C27.2798 61.9699 26.9086 63.4943 26.6544 65.0604C23.629 83.6811 33.3875 96.509 50.9623 99.2112C61.336 100.806 71.3254 96.6514 77.8084 89.0934C80.3355 91.6024 85.3002 90.8119 89.0415 87.2494C92.8611 83.6143 94.2502 78.662 91.4771 75.7716Z" fill="white"/>
</mask>
<g mask="url(#mask1_1432_15706)">
<path opacity="0.49" d="M69.8339 89.6617C68.2973 93.9141 63.5309 96.1414 59.1876 94.6369C54.8443 93.1325 52.5694 88.4659 54.1059 84.2135C55.6425 79.9611 60.409 77.7338 64.7523 79.2382C69.0956 80.7427 71.3705 85.4093 69.8339 89.6617Z" fill="#8B2A0C" stroke="#8B2A0C" stroke-width="1.0645" stroke-miterlimit="10"/>
</g>
<mask id="mask2_1432_15706" style="mask-type:luminance" maskUnits="userSpaceOnUse" x="26" y="43" width="67" height="57">
<path d="M91.4771 75.7716C89.852 74.079 87.5364 74.1607 85.471 74.9522C84.4185 75.3554 83.4331 75.913 82.4873 76.5144C81.9198 76.8748 80.7901 78.1881 80.0975 78.0457C79.6196 77.9481 79.5453 77.1755 79.3989 76.8071C78.1145 73.5742 75.3484 70.5743 73.1315 67.9169C70.6441 64.937 67.9888 62.0974 65.3438 59.2538C60.8306 54.402 56.6795 49.0693 53.9093 43.0596C53.0449 43.8193 51.309 45.3506 50.9511 45.715C47.4975 49.2336 43.7349 52.5142 39.6783 55.3548C37.797 56.6721 35.8384 57.8987 33.7516 58.8804C31.8947 59.7546 29.874 60.4794 27.7893 60.4993C27.7761 60.4993 27.7669 60.4934 27.7537 60.4924C27.2798 61.9699 26.9086 63.4943 26.6544 65.0604C23.629 83.6811 33.3875 96.509 50.9623 99.2112C61.336 100.806 71.3254 96.6514 77.8084 89.0934C80.3355 91.6024 85.3002 90.8119 89.0415 87.2494C92.8611 83.6143 94.2502 78.662 91.4771 75.7716Z" fill="white"/>
</mask>
<g mask="url(#mask2_1432_15706)">
<path opacity="0.49" d="M36.7162 82.9988C35.3413 86.8042 31.0753 88.7985 27.1875 87.4514C23.3008 86.1053 21.2639 81.9285 22.6398 78.1222C24.0147 74.3168 28.2807 72.3225 32.1685 73.6696C36.0552 75.0157 38.0911 79.1925 36.7162 82.9988Z" fill="#8B2A0C" stroke="#8B2A0C" stroke-width="0.9527" stroke-miterlimit="10"/>
</g>
<mask id="mask3_1432_15706" style="mask-type:luminance" maskUnits="userSpaceOnUse" x="26" y="43" width="67" height="57">
<path d="M91.4771 75.7716C89.852 74.079 87.5364 74.1607 85.471 74.9522C84.4185 75.3554 83.4331 75.913 82.4873 76.5144C81.9198 76.8748 80.7901 78.1881 80.0975 78.0457C79.6196 77.9481 79.5453 77.1755 79.3989 76.8071C78.1145 73.5742 75.3484 70.5743 73.1315 67.9169C70.6441 64.937 67.9888 62.0974 65.3438 59.2538C60.8306 54.402 56.6795 49.0693 53.9093 43.0596C53.0449 43.8193 51.309 45.3506 50.9511 45.715C47.4975 49.2336 43.7349 52.5142 39.6783 55.3548C37.797 56.6721 35.8384 57.8987 33.7516 58.8804C31.8947 59.7546 29.874 60.4794 27.7893 60.4993C27.7761 60.4993 27.7669 60.4934 27.7537 60.4924C27.2798 61.9699 26.9086 63.4943 26.6544 65.0604C23.629 83.6811 33.3875 96.509 50.9623 99.2112C61.336 100.806 71.3254 96.6514 77.8084 89.0934C80.3355 91.6024 85.3002 90.8119 89.0415 87.2494C92.8611 83.6143 94.2502 78.662 91.4771 75.7716Z" fill="white"/>
</mask>
<g mask="url(#mask3_1432_15706)">
<path d="M84.1976 93.3285L82.6051 90.935L80.8926 93.0159L81.2963 89.7183L79.4292 88.5703L81.7804 88.4628L82.9112 86.0862L83.6149 88.5992L86.0108 89.0632L84.1224 90.0817L84.1976 93.3285Z" fill="white" stroke="white" stroke-width="0.2243" stroke-miterlimit="10" stroke-linecap="round"/>
<path d="M82.5425 79.2523C83.7699 78.169 85.1885 77.2281 86.8838 76.795C87.7207 76.5839 88.6929 76.5382 89.5939 76.9384C90.4868 77.3626 91.1244 78.1431 91.3512 79.1119C91.5363 80.0896 91.221 80.9907 90.8376 81.7514C90.4258 82.512 89.9234 83.1921 89.358 83.8064C88.2363 85.041 86.9295 86.0715 85.5221 86.9297C86.6743 85.7668 87.7644 84.5651 88.7295 83.3076C89.1932 82.6674 89.6437 82.0222 89.9539 81.3332C90.2702 80.6582 90.4776 79.9323 90.3363 79.3081C90.2244 78.7067 89.7434 78.0844 89.1637 77.7977C88.5709 77.4791 87.8041 77.4631 87.0445 77.5676C85.513 77.8215 83.9916 78.4886 82.5425 79.2523Z" fill="#8B2A0C"/>
<path d="M77.7461 89.1638C78.1254 88.663 78.4112 88.1054 78.6827 87.5489C78.9491 86.9883 79.1861 86.4128 79.3884 85.8264C79.8186 84.6615 80.1308 83.4578 80.443 82.248C80.3678 82.8673 80.2671 83.4846 80.1247 84.095C79.9783 84.7033 79.8064 85.3067 79.5969 85.8981C79.1566 87.067 78.6237 88.2448 77.7461 89.1638Z" fill="#8B2A0C"/>
<path d="M53.8254 41.8734C52.7016 42.3712 51.642 43.1379 51.161 44.2879C50.7583 45.2497 50.799 46.4644 51.5372 47.2669C52.1759 47.9608 53.3952 48.2804 54.1101 47.5108C54.6572 46.9214 54.6694 45.8919 53.9067 45.4727C52.9335 44.938 51.5373 45.4149 50.7715 46.09C49.9386 46.8248 49.5735 48.0086 49.8166 49.0759C50.0362 50.0417 50.9261 50.9547 52.0081 50.6103C52.8857 50.3315 53.1816 49.1178 52.2664 48.6837C51.219 48.1868 50.0149 48.9724 49.5807 49.9043C49 51.1479 49.6498 52.5199 50.4888 53.4747C50.7685 53.7933 51.2373 53.3304 50.9596 53.0137C50.3576 52.3287 49.8349 51.3719 50.0871 50.441C50.1969 50.0367 50.4664 49.6674 50.8223 49.4344C51.0573 49.2811 52.2705 48.8728 52.1667 49.6285C52.0854 50.2199 51.2108 50.0347 50.9301 49.7828C50.5681 49.4573 50.4237 48.9425 50.4084 48.4756C50.379 47.5665 50.8681 46.6983 51.6766 46.2503C52.1952 45.9626 54.0013 45.5314 53.8366 46.6306C53.6728 47.7258 52.2969 47.2708 51.8728 46.6227C50.7115 44.8444 52.661 43.1011 54.164 42.435C54.5515 42.2637 54.2138 41.7022 53.8254 41.8734Z" fill="#1A0000"/>
<path d="M42.4951 74.8463C42.7677 74.0627 43.2558 73.3229 43.9626 72.7863C44.6551 72.2426 45.611 71.937 46.5252 72.0515C46.9757 72.1013 47.4334 72.2267 47.8452 72.4517C48.2449 72.6967 48.5937 73.0232 48.8235 73.4135C49.2984 74.1881 49.3757 75.0882 49.2313 75.9007C49.1012 75.0882 48.8276 74.3086 48.3629 73.7192C47.8981 73.1258 47.2127 72.8092 46.452 72.7465C45.7015 72.6429 44.95 72.849 44.2788 73.2333C43.6107 73.6296 43.0087 74.1911 42.4951 74.8463Z" fill="#8B2A0C"/>
<g opacity="0.53">
<path d="M42.541 74.8551C42.541 74.8551 44.1285 71.91 47.0206 72.6269C49.504 73.2422 49.2315 76.1574 49.2315 76.1574" fill="#8B2A0C"/>
<path d="M42.541 74.8552C42.843 74.0826 43.3607 73.3618 44.0868 72.851C44.7996 72.3342 45.7668 72.0634 46.6759 72.2118C47.1244 72.2785 47.5759 72.4199 47.9796 72.6608C48.3701 72.9197 48.7057 73.2602 48.9203 73.6575C49.3657 74.449 49.4074 75.3521 49.2315 76.1576C49.1328 75.3411 48.8898 74.5516 48.4474 73.9462C48.006 73.3359 47.3328 72.9944 46.5752 72.9028C45.8298 72.7713 45.0701 72.9495 44.3847 73.309C43.7024 73.6813 43.079 74.22 42.541 74.8552Z" fill="#8B2A0C"/>
</g>
<path d="M27.8696 66.7778C27.6062 71.0253 30.9347 74.6724 35.3034 74.9223C39.6722 75.1722 43.4267 71.9323 43.6891 67.6849C43.9525 63.4375 40.624 59.7904 36.2553 59.5405C31.8875 59.2896 28.133 62.5304 27.8696 66.7778Z" fill="white"/>
<path d="M31.7191 65.3232C31.1272 68.5442 33.0899 71.6187 36.1041 72.1912C39.1183 72.7637 42.041 70.6161 42.6339 67.3962C43.2267 64.1762 41.263 61.1007 38.2488 60.5282C35.2346 59.9557 32.3109 62.1023 31.7191 65.3232Z" fill="#280707" stroke="#280707" stroke-width="0.8912" stroke-miterlimit="10"/>
<path d="M43.8738 66.1137C43.4589 65.2654 42.9952 64.448 42.4338 63.7132C41.8908 62.9705 41.2989 62.2735 40.6084 61.705C39.9057 61.1544 39.1501 60.7103 38.3498 60.3957C37.5301 60.1319 36.6851 59.9586 35.8095 59.9805C34.0299 59.9756 32.2807 60.4644 30.9017 61.5019C29.4699 62.5015 28.5241 64.1463 27.9648 65.8608L27.8713 66.1486L27.6506 66.0659C27.1279 65.8708 26.6093 65.6627 26.0957 65.4357L26.1191 65.3541L27.7299 65.7842L27.6689 65.824C28.0075 63.9671 28.9269 62.173 30.4218 60.9463C31.9055 59.7157 33.8804 59.1193 35.8095 59.1472C36.7817 59.1432 37.7467 59.3344 38.6508 59.6809C39.5396 60.0632 40.3542 60.5969 41.0559 61.252C42.4267 62.5941 43.3958 64.2877 43.9582 66.0948L43.8738 66.1137Z" fill="black"/>
<path d="M27.943 64.7116L26.4521 63.5298L28.3325 63.8972L27.943 64.7116Z" fill="black"/>
<path d="M28.6885 62.9883L27.4448 61.6372L29.198 62.2396L28.6885 62.9883Z" fill="black"/>
<path d="M41.4722 72.9548C40.5041 73.7294 39.3662 74.3089 38.154 74.6833C36.9428 75.0616 35.633 75.203 34.3445 75.0397C33.6957 74.973 33.0764 74.7619 32.4622 74.5568C31.8886 74.2562 31.2886 74.0033 30.8066 73.5741C30.2697 73.2207 29.87 72.7229 29.447 72.2649C29.0595 71.777 28.7473 71.2343 28.4341 70.7136C29.2944 71.6017 30.1364 72.473 31.1656 73.0763C32.1561 73.7225 33.2818 74.1357 34.4503 74.2661C35.6147 74.4274 36.8157 74.3368 37.9943 74.0958C39.1699 73.837 40.3434 73.4706 41.4722 72.9548Z" fill="black"/>
<path d="M70.7539 74.3008C69.6353 78.6966 64.9319 81.3868 60.2479 80.3106C55.5639 79.2333 52.6727 74.7966 53.7904 70.4009C54.909 66.0051 59.6123 63.3148 64.2974 64.3911C68.9814 65.4674 71.8715 69.904 70.7539 74.3008Z" fill="white"/>
<path d="M70.7332 72.2946C70.3071 75.6908 67.3 78.1759 64.0153 77.8464C60.7306 77.5168 58.413 74.496 58.8391 71.0999C59.2652 67.7037 62.2723 65.2186 65.557 65.5481C68.8417 65.8787 71.1593 68.8985 70.7332 72.2946Z" fill="#280707" stroke="#280707" stroke-width="0.945" stroke-miterlimit="10"/>
<path d="M54.1348 69.0209C55.0703 67.2028 56.551 65.6376 58.4354 64.5673C59.3791 64.0296 60.452 63.6931 61.5615 63.5547C62.672 63.4611 63.8119 63.5209 64.8807 63.8245C66.9888 64.3682 68.9526 65.6755 70.1953 67.5055C70.8136 68.4235 71.1359 69.4888 71.3108 70.5293C71.4898 71.5807 71.4481 72.6311 71.1888 73.6636L70.9325 73.3569C71.5295 73.4286 72.1264 73.5142 72.7223 73.6208L72.7203 73.7104L70.9244 73.6695L70.8675 73.6685L70.8746 73.6098C71.1146 71.6513 70.6966 69.5714 69.5454 67.9376C68.3922 66.2997 66.5729 65.2015 64.6316 64.6669C63.6655 64.3672 62.6445 64.2945 61.6377 64.3532C60.634 64.4657 59.6516 64.7396 58.7364 65.1687C56.9273 66.0648 55.3764 67.4487 54.212 69.0696L54.1348 69.0209Z" fill="black"/>
<path d="M70.9175 71.4941L72.9676 71.6973L71.0517 72.439L70.9175 71.4941Z" fill="black"/>
<path d="M70.563 69.5785L72.5542 69.5088L70.8345 70.4945L70.563 69.5785Z" fill="black"/>
<path d="M54.4893 76.6228C54.9967 77.0469 55.5042 77.4572 56.0554 77.8076C56.5821 78.185 57.1384 78.5195 57.7099 78.8132C58.8529 79.3967 60.056 79.8477 61.3028 80.0299C62.5444 80.248 63.8268 80.1673 65.0542 79.8288C66.3101 79.548 67.445 78.9048 68.6216 78.2845C68.1274 78.7137 67.6291 79.1667 67.0718 79.5381C66.4861 79.8646 65.9105 80.233 65.2525 80.4352C64.6241 80.7269 63.9285 80.7946 63.2471 80.924C62.5556 80.9449 61.856 80.9728 61.1716 80.8463C59.8038 80.6253 58.5011 80.1056 57.3764 79.3559C56.2537 78.6111 55.2428 77.7081 54.4893 76.6228Z" fill="black"/>
<path opacity="0.49" d="M50.1926 79.0312C49.9688 80.4151 48.5136 82.8973 45.2757 82.4662C43.0364 82.1685 41.5811 79.6395 41.8049 78.2556C41.8049 78.2556 43.9608 77.8135 46.2285 77.9489C47.8048 78.0435 50.1926 79.0312 50.1926 79.0312Z" fill="#8B2A0C"/>
<path d="M40.3506 76.999C41.1865 77.702 42.0672 78.3073 42.9875 78.7972C43.9129 79.2751 44.8922 79.6206 45.8949 79.7141C46.8915 79.8217 47.9217 79.7142 48.8878 79.3428C49.3952 79.2163 49.8376 78.9246 50.3298 78.7175C50.7996 78.4686 51.2369 78.1589 51.7322 77.9011C51.3752 78.3063 51.004 78.7185 50.5861 79.0829C50.1284 79.3925 49.7074 79.7858 49.1705 79.9909C48.1668 80.5375 46.9536 80.7247 45.7963 80.6122C44.6329 80.4848 43.5305 80.0407 42.6102 79.3945C41.6899 78.7484 40.8957 77.9449 40.3506 76.999Z" fill="#3B130E"/>
<path d="M30.4913 57.2095C30.7028 56.1899 31.2896 55.254 32.0797 54.5332C32.8577 53.7894 33.8421 53.2687 34.8702 52.9291C35.9146 52.6374 36.9966 52.5219 38.0502 52.6265C38.5759 52.6593 39.0884 52.7997 39.5939 52.9063C40.0871 53.0964 40.5772 53.2498 41.0389 53.4897L41.0491 53.4947C41.0715 53.5066 41.0796 53.5335 41.0684 53.5544C41.0593 53.5714 41.0399 53.5803 41.0216 53.5773L39.5471 53.3792C39.0518 53.3672 38.5566 53.3135 38.0624 53.3354C37.0729 53.3603 36.0885 53.5066 35.1468 53.7904C33.2787 54.3609 31.5428 55.5527 30.5757 57.2483C30.5635 57.2702 30.535 57.2782 30.5136 57.2652C30.4953 57.2553 30.4872 57.2353 30.4913 57.2174V57.2095Z" fill="#2E2E2E"/>
<path d="M72.2087 63.0062C71.6422 62.1708 70.9792 61.4918 70.3131 60.8745C69.6287 60.2721 68.9046 59.7504 68.1155 59.3163C67.7168 59.1042 67.3202 58.8872 66.8891 58.7239C66.4813 58.5048 66.0277 58.3943 65.5925 58.2052L62.7796 57.2752L62.7644 57.2703C62.741 57.2623 62.7288 57.2374 62.7359 57.2145C62.743 57.1956 62.7613 57.1836 62.7806 57.1846L64.2755 57.2713C64.7677 57.3539 65.2681 57.3967 65.7542 57.5132C66.7314 57.7282 67.6813 58.0628 68.568 58.5307C70.2958 59.5194 71.7317 61.0826 72.2971 62.9863C72.3043 63.0092 72.29 63.0331 72.2666 63.04C72.2473 63.045 72.228 63.038 72.2178 63.0221L72.2087 63.0062Z" fill="#2E2E2E"/>
</g>
<path d="M19.8622 152.619C19.8622 152.619 26.4784 109.319 41.9196 121.631L42.5023 152.619L35.4051 150.892L30.9692 160.668L15.0918 158.219C15.0918 158.219 16.7453 156.395 19.8622 152.619Z" fill="#9E332D" stroke="#9E332D" stroke-width="0.7319" stroke-miterlimit="10"/>
<path opacity="0.49" d="M40.8965 124.349C40.5365 125.714 38.2789 126.328 35.8525 125.722C33.4261 125.116 31.7512 123.517 32.1112 122.152C32.4712 120.787 34.7288 120.172 37.1552 120.779C39.5806 121.385 41.2555 122.984 40.8965 124.349Z" fill="#8B2A0C" stroke="#8B2A0C" stroke-width="0.4387" stroke-miterlimit="10"/>
<path d="M21.1549 145.961C20.2803 149.873 19.8603 152.619 19.8603 152.619C16.7434 156.394 15.0898 158.217 15.0898 158.217L30.9673 160.666L35.1011 151.556C30.5209 149.534 25.8674 147.672 21.1549 145.961Z" fill="white" stroke="white" stroke-width="0.7319" stroke-miterlimit="10"/>
<path d="M26.2853 153.701C25.0762 153.405 23.8691 153.101 22.6752 152.75C21.7935 152.49 20.9077 152.017 19.9935 151.812C19.905 152.33 19.8603 152.618 19.8603 152.618C16.7434 156.394 15.0898 158.217 15.0898 158.217L30.9673 160.666L33.2788 155.572C30.949 154.941 28.6334 154.275 26.2853 153.701Z" fill="black" stroke="black" stroke-width="0.7319" stroke-miterlimit="10"/>
<path d="M38.542 127.407C37.1691 135.253 36.3189 143.212 36.5376 151.167L42.5009 152.619L41.9182 121.63C41.2318 121.082 40.5626 120.648 39.9087 120.31C39.4236 122.67 38.9569 125.034 38.542 127.407Z" fill="#7A5FFF" stroke="#7A5FFF" stroke-width="0.6888" stroke-miterlimit="10"/>
<path d="M46.3392 103.927C46.3392 103.927 41.0674 102.614 41.3115 124.703C41.5556 146.794 41.3034 154.316 41.3034 154.316C41.3034 154.316 34.7258 156.704 36.0671 157.062C37.4085 157.42 48.9945 155.988 48.9945 155.988C48.9945 155.988 52.9524 116.107 46.3392 103.927Z" fill="#B44A24" stroke="#B44A24" stroke-width="0.7324" stroke-miterlimit="10"/>
<path d="M49.5942 120.734C49.6755 120.717 49.7559 120.694 49.8382 120.676C49.3684 113.808 48.3372 107.604 46.34 103.927C46.34 103.927 41.7271 102.781 41.3315 120.721C44.0091 121.414 46.8881 121.298 49.5942 120.734Z" fill="white" stroke="white" stroke-width="0.7324" stroke-miterlimit="10"/>
<mask id="mask4_1432_15706" style="mask-type:luminance" maskUnits="userSpaceOnUse" x="46" y="101" width="40" height="58">
<path d="M49.858 103.005C49.858 103.005 51.1709 108.256 56.6563 107.997C62.1416 107.739 62.7579 101.276 62.7579 101.276C62.7579 101.276 67.2782 99.643 71.1496 104.663C75.0211 109.682 77.1709 124.947 77.1709 124.947C77.1709 124.947 98.247 150.951 73.2995 157.794C73.2995 157.794 59.7508 160.215 52.0089 154.846L46.2021 103.912C46.2021 103.912 47.1621 103.005 49.858 103.005Z" fill="white"/>
</mask>
<g mask="url(#mask4_1432_15706)">
<path d="M49.8576 103.005C49.8576 103.005 51.1704 108.256 56.6558 107.997C62.1411 107.739 62.7574 101.276 62.7574 101.276C62.7574 101.276 67.2777 99.643 71.1492 104.663C75.0206 109.682 77.1705 124.947 77.1705 124.947C77.1705 124.947 98.2465 150.951 73.299 157.794C73.299 157.794 59.7503 160.215 52.0084 154.846L46.2017 103.912C46.2017 103.912 47.1617 103.005 49.8576 103.005Z" fill="#7A5FFF" stroke="#7A5FFF" stroke-width="0.6888" stroke-miterlimit="10"/>
</g>
<mask id="mask5_1432_15706" style="mask-type:luminance" maskUnits="userSpaceOnUse" x="46" y="101" width="40" height="58">
<path d="M49.858 103.005C49.858 103.005 51.1709 108.256 56.6563 107.997C62.1416 107.739 62.7579 101.276 62.7579 101.276C62.7579 101.276 67.2782 99.643 71.1496 104.663C75.0211 109.682 77.1709 124.947 77.1709 124.947C77.1709 124.947 98.247 150.951 73.2995 157.794C73.2995 157.794 59.7508 160.215 52.0089 154.846L46.2021 103.912C46.2021 103.912 47.1621 103.005 49.858 103.005Z" fill="white"/>
</mask>
<g mask="url(#mask5_1432_15706)">
<path d="M52.506 126.995L49.3637 118.73C49.3362 118.657 49.2559 118.605 49.1847 118.614L42.4556 119.429C42.3194 119.446 42.2055 119.265 42.3021 119.186L48.1444 114.39C48.1718 114.368 48.1841 114.332 48.1779 114.292L47.2037 107.723C47.1844 107.593 47.3481 107.556 47.4427 107.668L51.8308 112.873C51.8786 112.93 51.9548 112.954 52.0118 112.93L58.1134 110.33C58.2283 110.282 58.3768 110.428 58.3219 110.535L55.388 116.273C55.3616 116.324 55.3829 116.395 55.4368 116.443L61.0605 121.356C61.1734 121.455 61.1164 121.608 60.9792 121.574L53.8616 119.868C53.7904 119.851 53.7294 119.886 53.7213 119.95L52.7735 127.024C52.7572 127.155 52.5589 127.133 52.506 126.995Z" fill="#FFD44D"/>
</g>
<mask id="mask6_1432_15706" style="mask-type:luminance" maskUnits="userSpaceOnUse" x="46" y="101" width="40" height="58">
<path d="M49.858 103.005C49.858 103.005 51.1709 108.256 56.6563 107.997C62.1416 107.739 62.7579 101.276 62.7579 101.276C62.7579 101.276 67.2782 99.643 71.1496 104.663C75.0211 109.682 77.1709 124.947 77.1709 124.947C77.1709 124.947 98.247 150.951 73.2995 157.794C73.2995 157.794 59.7508 160.215 52.0089 154.846L46.2021 103.912C46.2021 103.912 47.1621 103.005 49.858 103.005Z" fill="white"/>
</mask>
<g mask="url(#mask6_1432_15706)">
<path d="M76.4272 142.701L76.9947 133.917C76.9997 133.839 76.9479 133.76 76.8787 133.739L70.3846 131.738C70.2524 131.697 70.2239 131.487 70.3449 131.455L77.6852 129.481C77.7197 129.472 77.7451 129.444 77.7563 129.406L79.6011 123.045C79.6377 122.919 79.8024 122.952 79.8421 123.092L81.6888 129.605C81.7092 129.676 81.7692 129.729 81.8302 129.73L88.4942 129.856C88.6203 129.859 88.6956 130.052 88.6 130.127L83.5275 134.141C83.4827 134.177 83.4715 134.249 83.5021 134.314L86.6007 141.066C86.6627 141.202 86.5478 141.317 86.4349 141.231L80.6353 136.784C80.5773 136.739 80.5072 136.747 80.4726 136.802L76.6611 142.838C76.5909 142.949 76.4181 142.847 76.4272 142.701Z" fill="#FFD44D"/>
</g>
<mask id="mask7_1432_15706" style="mask-type:luminance" maskUnits="userSpaceOnUse" x="46" y="101" width="40" height="58">
<path d="M49.858 103.005C49.858 103.005 51.1709 108.256 56.6563 107.997C62.1416 107.739 62.7579 101.276 62.7579 101.276C62.7579 101.276 67.2782 99.643 71.1496 104.663C75.0211 109.682 77.1709 124.947 77.1709 124.947C77.1709 124.947 98.247 150.951 73.2995 157.794C73.2995 157.794 59.7508 160.215 52.0089 154.846L46.2021 103.912C46.2021 103.912 47.1621 103.005 49.858 103.005Z" fill="white"/>
</mask>
<g mask="url(#mask7_1432_15706)">
<path d="M52.2917 159.351L47.8487 151.683C47.81 151.616 47.7226 151.578 47.6524 151.598L41.1531 153.476C41.0209 153.513 40.8796 153.354 40.962 153.26L45.9378 147.589C45.9612 147.562 45.9673 147.526 45.9551 147.488L43.9253 141.15C43.8857 141.026 44.0402 140.963 44.1511 141.059L49.3242 145.503C49.3812 145.552 49.4605 145.563 49.5114 145.531L55.1015 141.99C55.2072 141.923 55.377 142.044 55.3404 142.159L53.3838 148.297C53.3666 148.352 53.3981 148.418 53.4591 148.457L59.8028 152.416C59.9309 152.496 59.8994 152.655 59.758 152.645L52.4656 152.094C52.3923 152.088 52.3384 152.132 52.3405 152.197L52.5591 159.339C52.5662 159.469 52.3659 159.479 52.2917 159.351Z" fill="#FFD44D"/>
</g>
<mask id="mask8_1432_15706" style="mask-type:luminance" maskUnits="userSpaceOnUse" x="46" y="101" width="40" height="58">
<path d="M49.858 103.005C49.858 103.005 51.1709 108.256 56.6563 107.997C62.1416 107.739 62.7579 101.276 62.7579 101.276C62.7579 101.276 67.2782 99.643 71.1496 104.663C75.0211 109.682 77.1709 124.947 77.1709 124.947C77.1709 124.947 98.247 150.951 73.2995 157.794C73.2995 157.794 59.7508 160.215 52.0089 154.846L46.2021 103.912C46.2021 103.912 47.1621 103.005 49.858 103.005Z" fill="white"/>
</mask>
<g mask="url(#mask8_1432_15706)">
<path d="M66.0267 111.568L66.2331 108.377C66.2352 108.349 66.2158 108.32 66.1904 108.312L63.8311 107.585C63.7833 107.571 63.7731 107.495 63.8169 107.483L66.4833 106.766C66.4955 106.763 66.5046 106.753 66.5087 106.739L67.1789 104.428C67.1921 104.382 67.2521 104.394 67.2663 104.445L67.9375 106.811C67.9446 106.837 67.967 106.856 67.9894 106.857L70.4097 106.902C70.4554 106.903 70.4829 106.973 70.4483 107.001L68.6056 108.46C68.5894 108.473 68.5853 108.498 68.5965 108.522L69.7222 110.975C69.7446 111.024 69.7029 111.066 69.6622 111.034L67.5552 109.418C67.5338 109.402 67.5084 109.405 67.4962 109.424L66.1111 111.617C66.0857 111.659 66.0236 111.622 66.0267 111.568Z" fill="#FFD44D"/>
</g>
<mask id="mask9_1432_15706" style="mask-type:luminance" maskUnits="userSpaceOnUse" x="46" y="101" width="40" height="58">
<path d="M49.858 103.005C49.858 103.005 51.1709 108.256 56.6563 107.997C62.1416 107.739 62.7579 101.276 62.7579 101.276C62.7579 101.276 67.2782 99.643 71.1496 104.663C75.0211 109.682 77.1709 124.947 77.1709 124.947C77.1709 124.947 98.247 150.951 73.2995 157.794C73.2995 157.794 59.7508 160.215 52.0089 154.846L46.2021 103.912C46.2021 103.912 47.1621 103.005 49.858 103.005Z" fill="white"/>
</mask>
<g mask="url(#mask9_1432_15706)">
<path d="M61.5568 137.224L60.8216 134.102C60.8155 134.074 60.789 134.052 60.7626 134.052L58.2976 134.029C58.2477 134.028 58.2152 133.958 58.2538 133.934L60.5908 132.484C60.602 132.477 60.6081 132.465 60.6081 132.451L60.5734 130.042C60.5724 129.994 60.6335 129.989 60.6619 130.033L61.9931 132.112C62.0074 132.135 62.0338 132.147 62.0551 132.141L64.3799 131.493C64.4236 131.481 64.4704 131.54 64.4449 131.576L63.1107 133.502C63.0985 133.519 63.1026 133.546 63.1199 133.565L64.9107 135.597C64.9463 135.638 64.9188 135.689 64.871 135.671L62.3877 134.722C62.3623 134.713 62.3389 134.723 62.3328 134.745L61.6504 137.245C61.6392 137.293 61.569 137.276 61.5568 137.224Z" fill="#FFD44D"/>
</g>
<mask id="mask10_1432_15706" style="mask-type:luminance" maskUnits="userSpaceOnUse" x="46" y="101" width="40" height="58">
<path d="M49.858 103.005C49.858 103.005 51.1709 108.256 56.6563 107.997C62.1416 107.739 62.7579 101.276 62.7579 101.276C62.7579 101.276 67.2782 99.643 71.1496 104.663C75.0211 109.682 77.1709 124.947 77.1709 124.947C77.1709 124.947 98.247 150.951 73.2995 157.794C73.2995 157.794 59.7508 160.215 52.0089 154.846L46.2021 103.912C46.2021 103.912 47.1621 103.005 49.858 103.005Z" fill="white"/>
</mask>
<g mask="url(#mask10_1432_15706)">
<path d="M71.6038 159.226L71.8102 156.035C71.8123 156.008 71.7929 155.979 71.7685 155.971L69.4092 155.244C69.3614 155.229 69.3513 155.153 69.395 155.141L72.0614 154.424C72.0736 154.421 72.0838 154.412 72.0879 154.398L72.758 152.087C72.7712 152.041 72.8312 152.053 72.8455 152.104L73.5166 154.469C73.5238 154.495 73.5461 154.514 73.5675 154.515L75.9878 154.561C76.0336 154.562 76.061 154.632 76.0264 154.659L74.1837 156.118C74.1675 156.131 74.1634 156.157 74.1746 156.181L75.3004 158.633C75.3227 158.683 75.281 158.725 75.2403 158.693L73.1332 157.077C73.1119 157.061 73.0865 157.063 73.0743 157.083L71.6902 159.275C71.6628 159.316 71.5997 159.28 71.6038 159.226Z" fill="#FFD44D"/>
</g>
<path d="M54.8145 124.349C54.8145 124.349 56.2127 109.423 62.7578 101.276C62.7578 101.276 68.5818 99.4597 72.2356 106.383C72.7543 107.367 72.7075 108.551 72.079 109.472L61.3147 125.258L54.8145 124.349Z" fill="#9E332D" stroke="#9E332D" stroke-width="0.7319" stroke-miterlimit="10"/>
<path d="M63.4509 115.345C64.8716 115.653 66.3939 115.69 67.8736 115.638L72.0786 109.472C72.7071 108.551 72.7538 107.368 72.2352 106.383C68.5814 99.4597 62.7573 101.276 62.7573 101.276C60.2608 104.383 58.5157 108.475 57.3086 112.35C59.1767 113.672 61.1211 114.841 63.4509 115.345Z" fill="white" stroke="white" stroke-width="0.7324" stroke-miterlimit="10"/>
<path d="M41.4757 155.591C41.4757 155.591 46.2197 112.707 62.2771 116.83C62.2771 116.83 68.2272 118.809 74.9654 133.818C74.9654 133.818 73.7858 147.012 54.4955 156.235L48.9593 162.602L41.314 162.147L41.4757 155.591Z" fill="#CD5428" stroke="#CD5428" stroke-width="0.9305" stroke-miterlimit="10"/>
<path d="M57.3453 149.98C57.2812 149.989 57.211 149.985 57.1337 149.957C52.4945 148.327 47.062 148.828 42.2356 148.304C41.477 152.53 41.0732 155.453 41.0732 155.453L41.3122 162.147L48.9576 162.602L54.4938 156.235C54.7053 156.134 54.9016 156.03 55.109 155.928C55.3846 155.103 55.6612 154.278 56.0049 153.474C56.4961 152.327 57.0687 151.214 57.4805 150.036C57.4358 150.018 57.391 149.998 57.3453 149.98Z" fill="white"/>
<path d="M54.6973 156.703C55.5474 154.553 56.42 152.41 57.32 150.281L60.0575 143.905L62.8938 137.572C63.8517 135.466 64.8372 133.372 65.846 131.288C64.9958 133.439 64.1243 135.581 63.2233 137.711L60.4857 144.085L57.6484 150.418C56.6915 152.524 55.7051 154.619 54.6973 156.703Z" fill="#8B2A0C"/>
<path d="M41.5753 155.436C41.5448 155.436 41.5235 155.425 41.496 155.42C41.4838 155.529 41.4767 155.591 41.4767 155.591L41.314 162.148L51.7121 162.971L54.3409 156.414C50.2874 155.178 45.7305 155.434 41.5753 155.436Z" fill="black" stroke="black" stroke-width="0.9305" stroke-miterlimit="10"/>
<path d="M41.314 159.435C41.314 159.435 36.6646 162.675 36.9737 162.603C37.2819 162.53 48.9594 162.603 48.9594 162.603" fill="black"/>
<path d="M41.314 159.435C41.314 159.435 36.6646 162.675 36.9737 162.603C37.2819 162.53 48.9594 162.603 48.9594 162.603" stroke="black" stroke-width="0.9305" stroke-miterlimit="10"/>
<path opacity="0.49" d="M62.667 122.182C62.5998 123.59 60.5182 124.643 58.0165 124.534C55.5148 124.426 53.542 123.196 53.6091 121.788C53.6762 120.381 55.7589 119.327 58.2595 119.436C60.7612 119.543 62.7341 120.773 62.667 122.182Z" fill="#8B2A0C" stroke="#8B2A0C" stroke-width="0.4387" stroke-miterlimit="10"/>
<path d="M90 47.0646C90 68.1392 107.453 85.2471 128.999 85.2471C150.524 85.2471 167.998 68.1596 167.998 47.0646C167.998 25.99 150.545 8.88208 128.999 8.88208C107.453 8.88208 90 25.99 90 47.0646Z" fill="#7A5FFF"/>
<path d="M105.52 25.8949L103.704 29.3669V31.4709H102.976V29.3669L101.152 25.8949H101.96L103.336 28.7189L104.712 25.8949H105.52ZM108.2 31.5429C107.789 31.5429 107.416 31.4496 107.08 31.2629C106.749 31.0763 106.488 30.8123 106.296 30.4709C106.109 30.1243 106.016 29.7243 106.016 29.2709C106.016 28.8229 106.112 28.4283 106.304 28.0869C106.501 27.7403 106.768 27.4763 107.104 27.2949C107.44 27.1083 107.816 27.0149 108.232 27.0149C108.648 27.0149 109.024 27.1083 109.36 27.2949C109.696 27.4763 109.96 27.7376 110.152 28.0789C110.349 28.4203 110.448 28.8176 110.448 29.2709C110.448 29.7243 110.347 30.1243 110.144 30.4709C109.947 30.8123 109.677 31.0763 109.336 31.2629C108.995 31.4496 108.616 31.5429 108.2 31.5429ZM108.2 30.9029C108.461 30.9029 108.707 30.8416 108.936 30.7189C109.165 30.5963 109.349 30.4123 109.488 30.1669C109.632 29.9216 109.704 29.6229 109.704 29.2709C109.704 28.9189 109.635 28.6203 109.496 28.3749C109.357 28.1296 109.176 27.9483 108.952 27.8309C108.728 27.7083 108.485 27.6469 108.224 27.6469C107.957 27.6469 107.712 27.7083 107.488 27.8309C107.269 27.9483 107.093 28.1296 106.96 28.3749C106.827 28.6203 106.76 28.9189 106.76 29.2709C106.76 29.6283 106.824 29.9296 106.952 30.1749C107.085 30.4203 107.261 30.6043 107.48 30.7269C107.699 30.8443 107.939 30.9029 108.2 30.9029ZM115.293 27.0869V31.4709H114.565V30.8229C114.426 31.0469 114.232 31.2229 113.981 31.3509C113.736 31.4736 113.464 31.5349 113.165 31.5349C112.824 31.5349 112.517 31.4656 112.245 31.3269C111.973 31.1829 111.757 30.9696 111.597 30.6869C111.442 30.4043 111.365 30.0603 111.365 29.6549V27.0869H112.085V29.5589C112.085 29.9909 112.194 30.3243 112.413 30.5589C112.632 30.7883 112.93 30.9029 113.309 30.9029C113.698 30.9029 114.005 30.7829 114.229 30.5429C114.453 30.3029 114.565 29.9536 114.565 29.4949V27.0869H115.293ZM120.207 31.5429C119.871 31.5429 119.57 31.4869 119.303 31.3749C119.036 31.2576 118.826 31.0976 118.671 30.8949C118.516 30.6869 118.431 30.4496 118.415 30.1829H119.167C119.188 30.4016 119.29 30.5803 119.471 30.7189C119.658 30.8576 119.9 30.9269 120.199 30.9269C120.476 30.9269 120.695 30.8656 120.855 30.7429C121.015 30.6203 121.095 30.4656 121.095 30.2789C121.095 30.0869 121.01 29.9456 120.839 29.8549C120.668 29.7589 120.404 29.6656 120.047 29.5749C119.722 29.4896 119.455 29.4043 119.247 29.3189C119.044 29.2283 118.868 29.0976 118.719 28.9269C118.575 28.7509 118.503 28.5216 118.503 28.2389C118.503 28.0149 118.57 27.8096 118.703 27.6229C118.836 27.4363 119.026 27.2896 119.271 27.1829C119.516 27.0709 119.796 27.0149 120.111 27.0149C120.596 27.0149 120.988 27.1376 121.287 27.3829C121.586 27.6283 121.746 27.9643 121.767 28.3909H121.039C121.023 28.1616 120.93 27.9776 120.759 27.8389C120.594 27.7003 120.37 27.6309 120.087 27.6309C119.826 27.6309 119.618 27.6869 119.463 27.7989C119.308 27.9109 119.231 28.0576 119.231 28.2389C119.231 28.3829 119.276 28.5029 119.367 28.5989C119.463 28.6896 119.58 28.7643 119.719 28.8229C119.863 28.8763 120.06 28.9376 120.311 29.0069C120.626 29.0923 120.882 29.1776 121.079 29.2629C121.276 29.3429 121.444 29.4656 121.583 29.6309C121.727 29.7963 121.802 30.0123 121.807 30.2789C121.807 30.5189 121.74 30.7349 121.607 30.9269C121.474 31.1189 121.284 31.2709 121.039 31.3829C120.799 31.4896 120.522 31.5429 120.207 31.5429ZM122.563 29.2629C122.563 28.8149 122.653 28.4229 122.835 28.0869C123.016 27.7456 123.264 27.4816 123.579 27.2949C123.899 27.1083 124.253 27.0149 124.643 27.0149C125.027 27.0149 125.36 27.0976 125.643 27.2629C125.925 27.4283 126.136 27.6363 126.275 27.8869V27.0869H127.011V31.4709H126.275V30.6549C126.131 30.9109 125.915 31.1243 125.627 31.2949C125.344 31.4603 125.013 31.5429 124.635 31.5429C124.245 31.5429 123.893 31.4469 123.579 31.2549C123.264 31.0629 123.016 30.7936 122.835 30.4469C122.653 30.1003 122.563 29.7056 122.563 29.2629ZM126.275 29.2709C126.275 28.9403 126.208 28.6523 126.075 28.4069C125.941 28.1616 125.76 27.9749 125.531 27.8469C125.307 27.7136 125.059 27.6469 124.787 27.6469C124.515 27.6469 124.267 27.7109 124.043 27.8389C123.819 27.9669 123.64 28.1536 123.507 28.3989C123.373 28.6443 123.307 28.9323 123.307 29.2629C123.307 29.5989 123.373 29.8923 123.507 30.1429C123.64 30.3883 123.819 30.5776 124.043 30.7109C124.267 30.8389 124.515 30.9029 124.787 30.9029C125.059 30.9029 125.307 30.8389 125.531 30.7109C125.76 30.5776 125.941 30.3883 126.075 30.1429C126.208 29.8923 126.275 29.6016 126.275 29.2709ZM128.617 26.3749C128.478 26.3749 128.361 26.3269 128.265 26.2309C128.169 26.1349 128.121 26.0176 128.121 25.8789C128.121 25.7403 128.169 25.6229 128.265 25.5269C128.361 25.4309 128.478 25.3829 128.617 25.3829C128.75 25.3829 128.862 25.4309 128.953 25.5269C129.049 25.6229 129.097 25.7403 129.097 25.8789C129.097 26.0176 129.049 26.1349 128.953 26.2309C128.862 26.3269 128.75 26.3749 128.617 26.3749ZM128.969 27.0869V31.4709H128.241V27.0869H128.969ZM129.938 29.2629C129.938 28.8149 130.028 28.4229 130.21 28.0869C130.391 27.7456 130.639 27.4816 130.954 27.2949C131.274 27.1083 131.631 27.0149 132.026 27.0149C132.367 27.0149 132.684 27.0949 132.978 27.2549C133.271 27.4096 133.495 27.6149 133.65 27.8709V25.5509H134.386V31.4709H133.65V30.6469C133.506 30.9083 133.292 31.1243 133.01 31.2949C132.727 31.4603 132.396 31.5429 132.018 31.5429C131.628 31.5429 131.274 31.4469 130.954 31.2549C130.639 31.0629 130.391 30.7936 130.21 30.4469C130.028 30.1003 129.938 29.7056 129.938 29.2629ZM133.65 29.2709C133.65 28.9403 133.583 28.6523 133.45 28.4069C133.316 28.1616 133.135 27.9749 132.906 27.8469C132.682 27.7136 132.434 27.6469 132.162 27.6469C131.89 27.6469 131.642 27.7109 131.418 27.8389C131.194 27.9669 131.015 28.1536 130.882 28.3989C130.748 28.6443 130.682 28.9323 130.682 29.2629C130.682 29.5989 130.748 29.8923 130.882 30.1429C131.015 30.3883 131.194 30.5776 131.418 30.7109C131.642 30.8389 131.89 30.9029 132.162 30.9029C132.434 30.9029 132.682 30.8389 132.906 30.7109C133.135 30.5776 133.316 30.3883 133.45 30.1429C133.583 29.8923 133.65 29.6016 133.65 29.2709ZM141.525 27.0869L138.885 33.5349H138.133L138.997 31.4229L137.229 27.0869H138.037L139.413 30.6389L140.773 27.0869H141.525ZM144.169 31.5429C143.758 31.5429 143.385 31.4496 143.049 31.2629C142.718 31.0763 142.457 30.8123 142.265 30.4709C142.078 30.1243 141.985 29.7243 141.985 29.2709C141.985 28.8229 142.081 28.4283 142.273 28.0869C142.47 27.7403 142.737 27.4763 143.073 27.2949C143.409 27.1083 143.785 27.0149 144.201 27.0149C144.617 27.0149 144.993 27.1083 145.329 27.2949C145.665 27.4763 145.929 27.7376 146.121 28.0789C146.318 28.4203 146.417 28.8176 146.417 29.2709C146.417 29.7243 146.315 30.1243 146.113 30.4709C145.915 30.8123 145.646 31.0763 145.305 31.2629C144.963 31.4496 144.585 31.5429 144.169 31.5429ZM144.169 30.9029C144.43 30.9029 144.675 30.8416 144.905 30.7189C145.134 30.5963 145.318 30.4123 145.457 30.1669C145.601 29.9216 145.673 29.6229 145.673 29.2709C145.673 28.9189 145.603 28.6203 145.465 28.3749C145.326 28.1296 145.145 27.9483 144.921 27.8309C144.697 27.7083 144.454 27.6469 144.193 27.6469C143.926 27.6469 143.681 27.7083 143.457 27.8309C143.238 27.9483 143.062 28.1296 142.929 28.3749C142.795 28.6203 142.729 28.9189 142.729 29.2709C142.729 29.6283 142.793 29.9296 142.921 30.1749C143.054 30.4203 143.23 30.6043 143.449 30.7269C143.667 30.8443 143.907 30.9029 144.169 30.9029ZM151.262 27.0869V31.4709H150.534V30.8229C150.395 31.0469 150.2 31.2229 149.95 31.3509C149.704 31.4736 149.432 31.5349 149.134 31.5349C148.792 31.5349 148.486 31.4656 148.214 31.3269C147.942 31.1829 147.726 30.9696 147.566 30.6869C147.411 30.4043 147.334 30.0603 147.334 29.6549V27.0869H148.054V29.5589C148.054 29.9909 148.163 30.3243 148.382 30.5589C148.6 30.7883 148.899 30.9029 149.278 30.9029C149.667 30.9029 149.974 30.7829 150.198 30.5429C150.422 30.3029 150.534 29.9536 150.534 29.4949V27.0869H151.262ZM107.456 37.0869L106.088 41.4709H105.336L104.28 37.9909L103.224 41.4709H102.472L101.096 37.0869H101.84L102.848 40.7669L103.936 37.0869H104.68L105.744 40.7749L106.736 37.0869H107.456ZM107.907 39.2629C107.907 38.8149 107.997 38.4229 108.179 38.0869C108.36 37.7456 108.608 37.4816 108.923 37.2949C109.243 37.1083 109.597 37.0149 109.987 37.0149C110.371 37.0149 110.704 37.0976 110.987 37.2629C111.269 37.4283 111.48 37.6363 111.619 37.8869V37.0869H112.355V41.4709H111.619V40.6549C111.475 40.9109 111.259 41.1243 110.971 41.2949C110.688 41.4603 110.357 41.5429 109.979 41.5429C109.589 41.5429 109.237 41.4469 108.923 41.2549C108.608 41.0629 108.36 40.7936 108.179 40.4469C107.997 40.1003 107.907 39.7056 107.907 39.2629ZM111.619 39.2709C111.619 38.9403 111.552 38.6523 111.419 38.4069C111.285 38.1616 111.104 37.9749 110.875 37.8469C110.651 37.7136 110.403 37.6469 110.131 37.6469C109.859 37.6469 109.611 37.7109 109.387 37.8389C109.163 37.9669 108.984 38.1536 108.851 38.3989C108.717 38.6443 108.651 38.9323 108.651 39.2629C108.651 39.5989 108.717 39.8923 108.851 40.1429C108.984 40.3883 109.163 40.5776 109.387 40.7109C109.611 40.8389 109.859 40.9029 110.131 40.9029C110.403 40.9029 110.651 40.8389 110.875 40.7109C111.104 40.5776 111.285 40.3883 111.419 40.1429C111.552 39.8923 111.619 39.6016 111.619 39.2709ZM115.721 37.0069C116.254 37.0069 116.686 37.1696 117.017 37.4949C117.347 37.8149 117.513 38.2789 117.513 38.8869V41.4709H116.793V38.9909C116.793 38.5536 116.683 38.2203 116.465 37.9909C116.246 37.7563 115.947 37.6389 115.569 37.6389C115.185 37.6389 114.878 37.7589 114.649 37.9989C114.425 38.2389 114.313 38.5883 114.313 39.0469V41.4709H113.585V37.0869H114.313V37.7109C114.457 37.4869 114.651 37.3136 114.897 37.1909C115.147 37.0683 115.422 37.0069 115.721 37.0069ZM119.59 37.6869V40.2709C119.59 40.4843 119.635 40.6363 119.726 40.7269C119.817 40.8123 119.974 40.8549 120.198 40.8549H120.734V41.4709H120.078C119.673 41.4709 119.369 41.3776 119.166 41.1909C118.963 41.0043 118.862 40.6976 118.862 40.2709V37.6869H118.294V37.0869H118.862V35.9829H119.59V37.0869H120.734V37.6869H119.59ZM124.637 37.6869V40.2709C124.637 40.4843 124.682 40.6363 124.773 40.7269C124.863 40.8123 125.021 40.8549 125.245 40.8549H125.781V41.4709H125.125C124.719 41.4709 124.415 41.3776 124.213 41.1909C124.01 41.0043 123.909 40.6976 123.909 40.2709V37.6869H123.341V37.0869H123.909V35.9829H124.637V37.0869H125.781V37.6869H124.637ZM128.575 41.5429C128.164 41.5429 127.791 41.4496 127.455 41.2629C127.124 41.0763 126.863 40.8123 126.671 40.4709C126.484 40.1243 126.391 39.7243 126.391 39.2709C126.391 38.8229 126.487 38.4283 126.679 38.0869C126.876 37.7403 127.143 37.4763 127.479 37.2949C127.815 37.1083 128.191 37.0149 128.607 37.0149C129.023 37.0149 129.399 37.1083 129.735 37.2949C130.071 37.4763 130.335 37.7376 130.527 38.0789C130.724 38.4203 130.823 38.8176 130.823 39.2709C130.823 39.7243 130.722 40.1243 130.519 40.4709C130.322 40.8123 130.052 41.0763 129.711 41.2629C129.37 41.4496 128.991 41.5429 128.575 41.5429ZM128.575 40.9029C128.836 40.9029 129.082 40.8416 129.311 40.7189C129.54 40.5963 129.724 40.4123 129.863 40.1669C130.007 39.9216 130.079 39.6229 130.079 39.2709C130.079 38.9189 130.01 38.6203 129.871 38.3749C129.732 38.1296 129.551 37.9483 129.327 37.8309C129.103 37.7083 128.86 37.6469 128.599 37.6469C128.332 37.6469 128.087 37.7083 127.863 37.8309C127.644 37.9483 127.468 38.1296 127.335 38.3749C127.202 38.6203 127.135 38.9189 127.135 39.2709C127.135 39.6283 127.199 39.9296 127.327 40.1749C127.46 40.4203 127.636 40.6043 127.855 40.7269C128.074 40.8443 128.314 40.9029 128.575 40.9029ZM134.641 37.8949C134.785 37.6443 134.998 37.4363 135.281 37.2709C135.569 37.1003 135.902 37.0149 136.281 37.0149C136.67 37.0149 137.022 37.1083 137.337 37.2949C137.657 37.4816 137.908 37.7456 138.089 38.0869C138.27 38.4229 138.361 38.8149 138.361 39.2629C138.361 39.7056 138.27 40.1003 138.089 40.4469C137.908 40.7936 137.657 41.0629 137.337 41.2549C137.022 41.4469 136.67 41.5429 136.281 41.5429C135.908 41.5429 135.577 41.4603 135.289 41.2949C135.006 41.1243 134.79 40.9136 134.641 40.6629V43.5509H133.913V37.0869H134.641V37.8949ZM137.617 39.2629C137.617 38.9323 137.55 38.6443 137.417 38.3989C137.284 38.1536 137.102 37.9669 136.873 37.8389C136.649 37.7109 136.401 37.6469 136.129 37.6469C135.862 37.6469 135.614 37.7136 135.385 37.8469C135.161 37.9749 134.98 38.1643 134.841 38.4149C134.708 38.6603 134.641 38.9456 134.641 39.2709C134.641 39.6016 134.708 39.8923 134.841 40.1429C134.98 40.3883 135.161 40.5776 135.385 40.7109C135.614 40.8389 135.862 40.9029 136.129 40.9029C136.401 40.9029 136.649 40.8389 136.873 40.7109C137.102 40.5776 137.284 40.3883 137.417 40.1429C137.55 39.8923 137.617 39.5989 137.617 39.2629ZM139.047 39.2629C139.047 38.8149 139.138 38.4229 139.319 38.0869C139.5 37.7456 139.748 37.4816 140.063 37.2949C140.383 37.1083 140.738 37.0149 141.127 37.0149C141.511 37.0149 141.844 37.0976 142.127 37.2629C142.41 37.4283 142.62 37.6363 142.759 37.8869V37.0869H143.495V41.4709H142.759V40.6549C142.615 40.9109 142.399 41.1243 142.111 41.2949C141.828 41.4603 141.498 41.5429 141.119 41.5429C140.73 41.5429 140.378 41.4469 140.063 41.2549C139.748 41.0629 139.5 40.7936 139.319 40.4469C139.138 40.1003 139.047 39.7056 139.047 39.2629ZM142.759 39.2709C142.759 38.9403 142.692 38.6523 142.559 38.4069C142.426 38.1616 142.244 37.9749 142.015 37.8469C141.791 37.7136 141.543 37.6469 141.271 37.6469C140.999 37.6469 140.751 37.7109 140.527 37.8389C140.303 37.9669 140.124 38.1536 139.991 38.3989C139.858 38.6443 139.791 38.9323 139.791 39.2629C139.791 39.5989 139.858 39.8923 139.991 40.1429C140.124 40.3883 140.303 40.5776 140.527 40.7109C140.751 40.8389 140.999 40.9029 141.271 40.9029C141.543 40.9029 141.791 40.8389 142.015 40.7109C142.244 40.5776 142.426 40.3883 142.559 40.1429C142.692 39.8923 142.759 39.6016 142.759 39.2709ZM146.277 41.5429C145.941 41.5429 145.64 41.4869 145.373 41.3749C145.107 41.2576 144.896 41.0976 144.741 40.8949C144.587 40.6869 144.501 40.4496 144.485 40.1829H145.237C145.259 40.4016 145.36 40.5803 145.541 40.7189C145.728 40.8576 145.971 40.9269 146.269 40.9269C146.547 40.9269 146.765 40.8656 146.925 40.7429C147.085 40.6203 147.165 40.4656 147.165 40.2789C147.165 40.0869 147.08 39.9456 146.909 39.8549C146.739 39.7589 146.475 39.6656 146.117 39.5749C145.792 39.4896 145.525 39.4043 145.317 39.3189C145.115 39.2283 144.939 39.0976 144.789 38.9269C144.645 38.7509 144.573 38.5216 144.573 38.2389C144.573 38.0149 144.64 37.8096 144.773 37.6229C144.907 37.4363 145.096 37.2896 145.341 37.1829C145.587 37.0709 145.867 37.0149 146.181 37.0149C146.667 37.0149 147.059 37.1376 147.357 37.3829C147.656 37.6283 147.816 37.9643 147.837 38.3909H147.109C147.093 38.1616 147 37.9776 146.829 37.8389C146.664 37.7003 146.44 37.6309 146.157 37.6309C145.896 37.6309 145.688 37.6869 145.533 37.7989C145.379 37.9109 145.301 38.0576 145.301 38.2389C145.301 38.3829 145.347 38.5029 145.437 38.5989C145.533 38.6896 145.651 38.7643 145.789 38.8229C145.933 38.8763 146.131 38.9376 146.381 39.0069C146.696 39.0923 146.952 39.1776 147.149 39.2629C147.347 39.3429 147.515 39.4656 147.653 39.6309C147.797 39.7963 147.872 40.0123 147.877 40.2789C147.877 40.5189 147.811 40.7349 147.677 40.9269C147.544 41.1189 147.355 41.2709 147.109 41.3829C146.869 41.4896 146.592 41.5429 146.277 41.5429ZM150.457 41.5429C150.121 41.5429 149.82 41.4869 149.553 41.3749C149.286 41.2576 149.076 41.0976 148.921 40.8949C148.766 40.6869 148.681 40.4496 148.665 40.1829H149.417C149.438 40.4016 149.54 40.5803 149.721 40.7189C149.908 40.8576 150.15 40.9269 150.449 40.9269C150.726 40.9269 150.945 40.8656 151.105 40.7429C151.265 40.6203 151.345 40.4656 151.345 40.2789C151.345 40.0869 151.26 39.9456 151.089 39.8549C150.918 39.7589 150.654 39.6656 150.297 39.5749C149.972 39.4896 149.705 39.4043 149.497 39.3189C149.294 39.2283 149.118 39.0976 148.969 38.9269C148.825 38.7509 148.753 38.5216 148.753 38.2389C148.753 38.0149 148.82 37.8096 148.953 37.6229C149.086 37.4363 149.276 37.2896 149.521 37.1829C149.766 37.0709 150.046 37.0149 150.361 37.0149C150.846 37.0149 151.238 37.1376 151.537 37.3829C151.836 37.6283 151.996 37.9643 152.017 38.3909H151.289C151.273 38.1616 151.18 37.9776 151.009 37.8389C150.844 37.7003 150.62 37.6309 150.337 37.6309C150.076 37.6309 149.868 37.6869 149.713 37.7989C149.558 37.9109 149.481 38.0576 149.481 38.2389C149.481 38.3829 149.526 38.5029 149.617 38.5989C149.713 38.6896 149.83 38.7643 149.969 38.8229C150.113 38.8763 150.31 38.9376 150.561 39.0069C150.876 39.0923 151.132 39.1776 151.329 39.2629C151.526 39.3429 151.694 39.4656 151.833 39.6309C151.977 39.7963 152.052 40.0123 152.057 40.2789C152.057 40.5189 151.99 40.7349 151.857 40.9269C151.724 41.1189 151.534 41.2709 151.289 41.3829C151.049 41.4896 150.772 41.5429 150.457 41.5429ZM153.317 41.5189C153.178 41.5189 153.061 41.4709 152.965 41.3749C152.869 41.2789 152.821 41.1616 152.821 41.0229C152.821 40.8843 152.869 40.7669 152.965 40.6709C153.061 40.5749 153.178 40.5269 153.317 40.5269C153.45 40.5269 153.562 40.5749 153.653 40.6709C153.749 40.7669 153.797 40.8843 153.797 41.0229C153.797 41.1616 153.749 41.2789 153.653 41.3749C153.562 41.4709 153.45 41.5189 153.317 41.5189ZM102.344 45.8949V51.4709H101.616V45.8949H102.344ZM103.697 45.8949H104.505L103.737 47.7109H103.225L103.697 45.8949ZM110.607 47.0069C110.948 47.0069 111.252 47.0789 111.519 47.2229C111.785 47.3616 111.996 47.5723 112.151 47.8549C112.305 48.1376 112.383 48.4816 112.383 48.8869V51.4709H111.663V48.9909C111.663 48.5536 111.553 48.2203 111.335 47.9909C111.121 47.7563 110.831 47.6389 110.463 47.6389C110.084 47.6389 109.783 47.7616 109.559 48.0069C109.335 48.2469 109.223 48.5963 109.223 49.0549V51.4709H108.503V48.9909C108.503 48.5536 108.393 48.2203 108.175 47.9909C107.961 47.7563 107.671 47.6389 107.303 47.6389C106.924 47.6389 106.623 47.7616 106.399 48.0069C106.175 48.2469 106.063 48.5963 106.063 49.0549V51.4709H105.335V47.0869H106.063V47.7189C106.207 47.4896 106.399 47.3136 106.639 47.1909C106.884 47.0683 107.153 47.0069 107.447 47.0069C107.815 47.0069 108.14 47.0896 108.423 47.2549C108.705 47.4203 108.916 47.6629 109.055 47.9829C109.177 47.6736 109.38 47.4336 109.663 47.2629C109.945 47.0923 110.26 47.0069 110.607 47.0069ZM116.102 46.3749C115.963 46.3749 115.846 46.3269 115.75 46.2309C115.659 46.1349 115.614 46.0176 115.614 45.8789C115.614 45.7403 115.659 45.6229 115.75 45.5269C115.846 45.4309 115.963 45.3829 116.102 45.3829C116.24 45.3829 116.355 45.4309 116.446 45.5269C116.542 45.6229 116.59 45.7403 116.59 45.8789C116.59 46.0176 116.542 46.1349 116.446 46.2309C116.355 46.3269 116.24 46.3749 116.102 46.3749ZM116.462 52.4229C116.462 52.8123 116.363 53.0976 116.166 53.2789C115.968 53.4603 115.68 53.5509 115.302 53.5509H114.878V52.9349H115.182C115.384 52.9349 115.526 52.8949 115.606 52.8149C115.691 52.7349 115.734 52.5989 115.734 52.4069V47.0869H116.462V52.4229ZM121.582 47.0869V51.4709H120.854V50.8229C120.715 51.0469 120.521 51.2229 120.27 51.3509C120.025 51.4736 119.753 51.5349 119.454 51.5349C119.113 51.5349 118.806 51.4656 118.534 51.3269C118.262 51.1829 118.046 50.9696 117.886 50.6869C117.731 50.4043 117.654 50.0603 117.654 49.6549V47.0869H118.374V49.5589C118.374 49.9909 118.483 50.3243 118.702 50.5589C118.921 50.7883 119.219 50.9029 119.598 50.9029C119.987 50.9029 120.294 50.7829 120.518 50.5429C120.742 50.3029 120.854 49.9536 120.854 49.4949V47.0869H121.582ZM124.363 51.5429C124.027 51.5429 123.726 51.4869 123.459 51.3749C123.193 51.2576 122.982 51.0976 122.827 50.8949C122.673 50.6869 122.587 50.4496 122.571 50.1829H123.323C123.345 50.4016 123.446 50.5803 123.627 50.7189C123.814 50.8576 124.057 50.9269 124.355 50.9269C124.633 50.9269 124.851 50.8656 125.011 50.7429C125.171 50.6203 125.251 50.4656 125.251 50.2789C125.251 50.0869 125.166 49.9456 124.995 49.8549C124.825 49.7589 124.561 49.6656 124.203 49.5749C123.878 49.4896 123.611 49.4043 123.403 49.3189C123.201 49.2283 123.025 49.0976 122.875 48.9269C122.731 48.7509 122.659 48.5216 122.659 48.2389C122.659 48.0149 122.726 47.8096 122.859 47.6229C122.993 47.4363 123.182 47.2896 123.427 47.1829C123.673 47.0709 123.953 47.0149 124.267 47.0149C124.753 47.0149 125.145 47.1376 125.443 47.3829C125.742 47.6283 125.902 47.9643 125.923 48.3909H125.195C125.179 48.1616 125.086 47.9776 124.915 47.8389C124.75 47.7003 124.526 47.6309 124.243 47.6309C123.982 47.6309 123.774 47.6869 123.619 47.7989C123.465 47.9109 123.387 48.0576 123.387 48.2389C123.387 48.3829 123.433 48.5029 123.523 48.5989C123.619 48.6896 123.737 48.7643 123.875 48.8229C124.019 48.8763 124.217 48.9376 124.467 49.0069C124.782 49.0923 125.038 49.1776 125.235 49.2629C125.433 49.3429 125.601 49.4656 125.739 49.6309C125.883 49.7963 125.958 50.0123 125.963 50.2789C125.963 50.5189 125.897 50.7349 125.763 50.9269C125.63 51.1189 125.441 51.2709 125.195 51.3829C124.955 51.4896 124.678 51.5429 124.363 51.5429ZM127.879 47.6869V50.2709C127.879 50.4843 127.924 50.6363 128.015 50.7269C128.106 50.8123 128.263 50.8549 128.487 50.8549H129.023V51.4709H128.367C127.962 51.4709 127.658 51.3776 127.455 51.1909C127.252 51.0043 127.151 50.6976 127.151 50.2709V47.6869H126.583V47.0869H127.151V45.9829H127.879V47.0869H129.023V47.6869H127.879ZM134.214 47.0069C134.545 47.0069 134.843 47.0789 135.11 47.2229C135.377 47.3616 135.585 47.5723 135.734 47.8549C135.889 48.1376 135.966 48.4816 135.966 48.8869V51.4709H135.246V48.9909C135.246 48.5536 135.137 48.2203 134.918 47.9909C134.699 47.7563 134.401 47.6389 134.022 47.6389C133.638 47.6389 133.331 47.7589 133.102 47.9989C132.878 48.2389 132.766 48.5883 132.766 49.0469V51.4709H132.038V45.5509H132.766V47.7109C132.91 47.4869 133.107 47.3136 133.358 47.1909C133.614 47.0683 133.899 47.0069 134.214 47.0069ZM141.155 49.1109C141.155 49.2496 141.147 49.3963 141.131 49.5509H137.627C137.654 49.9829 137.8 50.3216 138.067 50.5669C138.339 50.8069 138.667 50.9269 139.051 50.9269C139.366 50.9269 139.627 50.8549 139.835 50.7109C140.048 50.5616 140.198 50.3643 140.283 50.1189H141.067C140.95 50.5403 140.715 50.8843 140.363 51.1509C140.011 51.4123 139.574 51.5429 139.051 51.5429C138.635 51.5429 138.262 51.4496 137.931 51.2629C137.606 51.0763 137.35 50.8123 137.163 50.4709C136.976 50.1243 136.883 49.7243 136.883 49.2709C136.883 48.8176 136.974 48.4203 137.155 48.0789C137.336 47.7376 137.59 47.4763 137.915 47.2949C138.246 47.1083 138.624 47.0149 139.051 47.0149C139.467 47.0149 139.835 47.1056 140.155 47.2869C140.475 47.4683 140.72 47.7189 140.891 48.0389C141.067 48.3536 141.155 48.7109 141.155 49.1109ZM140.403 48.9589C140.403 48.6816 140.342 48.4443 140.219 48.2469C140.096 48.0443 139.928 47.8923 139.715 47.7909C139.507 47.6843 139.275 47.6309 139.019 47.6309C138.651 47.6309 138.336 47.7483 138.075 47.9829C137.819 48.2176 137.672 48.5429 137.635 48.9589H140.403ZM142.844 45.5509V51.4709H142.116V45.5509H142.844ZM144.813 47.8949C144.957 47.6443 145.17 47.4363 145.453 47.2709C145.741 47.1003 146.074 47.0149 146.453 47.0149C146.842 47.0149 147.194 47.1083 147.509 47.2949C147.829 47.4816 148.079 47.7456 148.261 48.0869C148.442 48.4229 148.533 48.8149 148.533 49.2629C148.533 49.7056 148.442 50.1003 148.261 50.4469C148.079 50.7936 147.829 51.0629 147.509 51.2549C147.194 51.4469 146.842 51.5429 146.453 51.5429C146.079 51.5429 145.749 51.4603 145.461 51.2949C145.178 51.1243 144.962 50.9136 144.813 50.6629V53.5509H144.085V47.0869H144.813V47.8949ZM147.789 49.2629C147.789 48.9323 147.722 48.6443 147.589 48.3989C147.455 48.1536 147.274 47.9669 147.045 47.8389C146.821 47.7109 146.573 47.6469 146.301 47.6469C146.034 47.6469 145.786 47.7136 145.557 47.8469C145.333 47.9749 145.151 48.1643 145.013 48.4149C144.879 48.6603 144.813 48.9456 144.813 49.2709C144.813 49.6016 144.879 49.8923 145.013 50.1429C145.151 50.3883 145.333 50.5776 145.557 50.7109C145.786 50.8389 146.034 50.9029 146.301 50.9029C146.573 50.9029 146.821 50.8389 147.045 50.7109C147.274 50.5776 147.455 50.3883 147.589 50.1429C147.722 49.8923 147.789 49.5989 147.789 49.2629ZM149.867 46.3749C149.728 46.3749 149.611 46.3269 149.515 46.2309C149.419 46.1349 149.371 46.0176 149.371 45.8789C149.371 45.7403 149.419 45.6229 149.515 45.5269C149.611 45.4309 149.728 45.3829 149.867 45.3829C150 45.3829 150.112 45.4309 150.203 45.5269C150.299 45.6229 150.347 45.7403 150.347 45.8789C150.347 46.0176 150.299 46.1349 150.203 46.2309C150.112 46.3269 150 46.3749 149.867 46.3749ZM150.219 47.0869V51.4709H149.491V47.0869H150.219ZM153.596 47.0069C154.129 47.0069 154.561 47.1696 154.892 47.4949C155.222 47.8149 155.388 48.2789 155.388 48.8869V51.4709H154.668V48.9909C154.668 48.5536 154.558 48.2203 154.34 47.9909C154.121 47.7563 153.822 47.6389 153.444 47.6389C153.06 47.6389 152.753 47.7589 152.524 47.9989C152.3 48.2389 152.188 48.5883 152.188 49.0469V51.4709H151.46V47.0869H152.188V47.7109C152.332 47.4869 152.526 47.3136 152.772 47.1909C153.022 47.0683 153.297 47.0069 153.596 47.0069ZM158.385 47.0149C158.764 47.0149 159.094 47.0976 159.377 47.2629C159.665 47.4283 159.878 47.6363 160.017 47.8869V47.0869H160.753V51.5669C160.753 51.9669 160.668 52.3216 160.497 52.6309C160.326 52.9456 160.081 53.1909 159.761 53.3669C159.446 53.5429 159.078 53.6309 158.657 53.6309C158.081 53.6309 157.601 53.4949 157.217 53.2229C156.833 52.9509 156.606 52.5803 156.537 52.1109H157.257C157.337 52.3776 157.502 52.5909 157.753 52.7509C158.004 52.9163 158.305 52.9989 158.657 52.9989C159.057 52.9989 159.382 52.8736 159.633 52.6229C159.889 52.3723 160.017 52.0203 160.017 51.5669V50.6469C159.873 50.9029 159.66 51.1163 159.377 51.2869C159.094 51.4576 158.764 51.5429 158.385 51.5429C157.996 51.5429 157.641 51.4469 157.321 51.2549C157.006 51.0629 156.758 50.7936 156.577 50.4469C156.396 50.1003 156.305 49.7056 156.305 49.2629C156.305 48.8149 156.396 48.4229 156.577 48.0869C156.758 47.7456 157.006 47.4816 157.321 47.2949C157.641 47.1083 157.996 47.0149 158.385 47.0149ZM160.017 49.2709C160.017 48.9403 159.95 48.6523 159.817 48.4069C159.684 48.1616 159.502 47.9749 159.273 47.8469C159.049 47.7136 158.801 47.6469 158.529 47.6469C158.257 47.6469 158.009 47.7109 157.785 47.8389C157.561 47.9669 157.382 48.1536 157.249 48.3989C157.116 48.6443 157.049 48.9323 157.049 49.2629C157.049 49.5989 157.116 49.8923 157.249 50.1429C157.382 50.3883 157.561 50.5776 157.785 50.7109C158.009 50.8389 158.257 50.9029 158.529 50.9029C158.801 50.9029 159.049 50.8389 159.273 50.7109C159.502 50.5776 159.684 50.3883 159.817 50.1429C159.95 49.8923 160.017 49.6016 160.017 49.2709ZM105.392 57.0869L102.752 63.5349H102L102.864 61.4229L101.096 57.0869H101.904L103.28 60.6389L104.64 57.0869H105.392ZM108.036 61.5429C107.625 61.5429 107.252 61.4496 106.916 61.2629C106.585 61.0763 106.324 60.8123 106.132 60.4709C105.945 60.1243 105.852 59.7243 105.852 59.2709C105.852 58.8229 105.948 58.4283 106.14 58.0869C106.337 57.7403 106.604 57.4763 106.94 57.2949C107.276 57.1083 107.652 57.0149 108.068 57.0149C108.484 57.0149 108.86 57.1083 109.196 57.2949C109.532 57.4763 109.796 57.7376 109.988 58.0789C110.185 58.4203 110.284 58.8176 110.284 59.2709C110.284 59.7243 110.182 60.1243 109.98 60.4709C109.782 60.8123 109.513 61.0763 109.172 61.2629C108.83 61.4496 108.452 61.5429 108.036 61.5429ZM108.036 60.9029C108.297 60.9029 108.542 60.8416 108.772 60.7189C109.001 60.5963 109.185 60.4123 109.324 60.1669C109.468 59.9216 109.54 59.6229 109.54 59.2709C109.54 58.9189 109.47 58.6203 109.332 58.3749C109.193 58.1296 109.012 57.9483 108.788 57.8309C108.564 57.7083 108.321 57.6469 108.06 57.6469C107.793 57.6469 107.548 57.7083 107.324 57.8309C107.105 57.9483 106.929 58.1296 106.796 58.3749C106.662 58.6203 106.596 58.9189 106.596 59.2709C106.596 59.6283 106.66 59.9296 106.788 60.1749C106.921 60.4203 107.097 60.6043 107.316 60.7269C107.534 60.8443 107.774 60.9029 108.036 60.9029ZM115.129 57.0869V61.4709H114.401V60.8229C114.262 61.0469 114.068 61.2229 113.817 61.3509C113.572 61.4736 113.3 61.5349 113.001 61.5349C112.66 61.5349 112.353 61.4656 112.081 61.3269C111.809 61.1829 111.593 60.9696 111.433 60.6869C111.278 60.4043 111.201 60.0603 111.201 59.6549V57.0869H111.921V59.5589C111.921 59.9909 112.03 60.3243 112.249 60.5589C112.468 60.7883 112.766 60.9029 113.145 60.9029C113.534 60.9029 113.841 60.7829 114.065 60.5429C114.289 60.3029 114.401 59.9536 114.401 59.4949V57.0869H115.129ZM120.627 57.0069C121.16 57.0069 121.592 57.1696 121.923 57.4949C122.254 57.8149 122.419 58.2789 122.419 58.8869V61.4709H121.699V58.9909C121.699 58.5536 121.59 58.2203 121.371 57.9909C121.152 57.7563 120.854 57.6389 120.475 57.6389C120.091 57.6389 119.784 57.7589 119.555 57.9989C119.331 58.2389 119.219 58.5883 119.219 59.0469V61.4709H118.491V57.0869H119.219V57.7109C119.363 57.4869 119.558 57.3136 119.803 57.1909C120.054 57.0683 120.328 57.0069 120.627 57.0069ZM125.52 61.5429C125.11 61.5429 124.736 61.4496 124.4 61.2629C124.07 61.0763 123.808 60.8123 123.616 60.4709C123.43 60.1243 123.336 59.7243 123.336 59.2709C123.336 58.8229 123.432 58.4283 123.624 58.0869C123.822 57.7403 124.088 57.4763 124.424 57.2949C124.76 57.1083 125.136 57.0149 125.552 57.0149C125.968 57.0149 126.344 57.1083 126.68 57.2949C127.016 57.4763 127.28 57.7376 127.472 58.0789C127.67 58.4203 127.768 58.8176 127.768 59.2709C127.768 59.7243 127.667 60.1243 127.464 60.4709C127.267 60.8123 126.998 61.0763 126.656 61.2629C126.315 61.4496 125.936 61.5429 125.52 61.5429ZM125.52 60.9029C125.782 60.9029 126.027 60.8416 126.256 60.7189C126.486 60.5963 126.67 60.4123 126.808 60.1669C126.952 59.9216 127.024 59.6229 127.024 59.2709C127.024 58.9189 126.955 58.6203 126.816 58.3749C126.678 58.1296 126.496 57.9483 126.272 57.8309C126.048 57.7083 125.806 57.6469 125.544 57.6469C125.278 57.6469 125.032 57.7083 124.808 57.8309C124.59 57.9483 124.414 58.1296 124.28 58.3749C124.147 58.6203 124.08 58.9189 124.08 59.2709C124.08 59.6283 124.144 59.9296 124.272 60.1749C124.406 60.4203 124.582 60.6043 124.8 60.7269C125.019 60.8443 125.259 60.9029 125.52 60.9029ZM129.613 57.6869V60.2709C129.613 60.4843 129.659 60.6363 129.749 60.7269C129.84 60.8123 129.997 60.8549 130.221 60.8549H130.757V61.4709H130.101C129.696 61.4709 129.392 61.3776 129.189 61.1909C128.987 61.0043 128.885 60.6976 128.885 60.2709V57.6869H128.317V57.0869H128.885V55.9829H129.613V57.0869H130.757V57.6869H129.613ZM134.5 57.8949C134.644 57.6443 134.858 57.4363 135.14 57.2709C135.428 57.1003 135.762 57.0149 136.14 57.0149C136.53 57.0149 136.882 57.1083 137.196 57.2949C137.516 57.4816 137.767 57.7456 137.948 58.0869C138.13 58.4229 138.22 58.8149 138.22 59.2629C138.22 59.7056 138.13 60.1003 137.948 60.4469C137.767 60.7936 137.516 61.0629 137.196 61.2549C136.882 61.4469 136.53 61.5429 136.14 61.5429C135.767 61.5429 135.436 61.4603 135.148 61.2949C134.866 61.1243 134.65 60.9136 134.5 60.6629V63.5509H133.772V57.0869H134.5V57.8949ZM137.476 59.2629C137.476 58.9323 137.41 58.6443 137.276 58.3989C137.143 58.1536 136.962 57.9669 136.732 57.8389C136.508 57.7109 136.26 57.6469 135.988 57.6469C135.722 57.6469 135.474 57.7136 135.244 57.8469C135.02 57.9749 134.839 58.1643 134.7 58.4149C134.567 58.6603 134.5 58.9456 134.5 59.2709C134.5 59.6016 134.567 59.8923 134.7 60.1429C134.839 60.3883 135.02 60.5776 135.244 60.7109C135.474 60.8389 135.722 60.9029 135.988 60.9029C136.26 60.9029 136.508 60.8389 136.732 60.7109C136.962 60.5776 137.143 60.3883 137.276 60.1429C137.41 59.8923 137.476 59.5989 137.476 59.2629ZM138.907 59.2629C138.907 58.8149 138.997 58.4229 139.179 58.0869C139.36 57.7456 139.608 57.4816 139.923 57.2949C140.243 57.1083 140.597 57.0149 140.987 57.0149C141.371 57.0149 141.704 57.0976 141.987 57.2629C142.269 57.4283 142.48 57.6363 142.619 57.8869V57.0869H143.355V61.4709H142.619V60.6549C142.475 60.9109 142.259 61.1243 141.971 61.2949C141.688 61.4603 141.357 61.5429 140.979 61.5429C140.589 61.5429 140.237 61.4469 139.923 61.2549C139.608 61.0629 139.36 60.7936 139.179 60.4469C138.997 60.1003 138.907 59.7056 138.907 59.2629ZM142.619 59.2709C142.619 58.9403 142.552 58.6523 142.419 58.4069C142.285 58.1616 142.104 57.9749 141.875 57.8469C141.651 57.7136 141.403 57.6469 141.131 57.6469C140.859 57.6469 140.611 57.7109 140.387 57.8389C140.163 57.9669 139.984 58.1536 139.851 58.3989C139.717 58.6443 139.651 58.9323 139.651 59.2629C139.651 59.5989 139.717 59.8923 139.851 60.1429C139.984 60.3883 140.163 60.5776 140.387 60.7109C140.611 60.8389 140.859 60.9029 141.131 60.9029C141.403 60.9029 141.651 60.8389 141.875 60.7109C142.104 60.5776 142.285 60.3883 142.419 60.1429C142.552 59.8923 142.619 59.6016 142.619 59.2709ZM146.721 57.0069C147.254 57.0069 147.686 57.1696 148.017 57.4949C148.347 57.8149 148.513 58.2789 148.513 58.8869V61.4709H147.793V58.9909C147.793 58.5536 147.683 58.2203 147.465 57.9909C147.246 57.7563 146.947 57.6389 146.569 57.6389C146.185 57.6389 145.878 57.7589 145.649 57.9989C145.425 58.2389 145.313 58.5883 145.313 59.0469V61.4709H144.585V57.0869H145.313V57.7109C145.457 57.4869 145.651 57.3136 145.897 57.1909C146.147 57.0683 146.422 57.0069 146.721 57.0069ZM150.078 56.3749C149.939 56.3749 149.822 56.3269 149.726 56.2309C149.63 56.1349 149.582 56.0176 149.582 55.8789C149.582 55.7403 149.63 55.6229 149.726 55.5269C149.822 55.4309 149.939 55.3829 150.078 55.3829C150.211 55.3829 150.323 55.4309 150.414 55.5269C150.51 55.6229 150.558 55.7403 150.558 55.8789C150.558 56.0176 150.51 56.1349 150.414 56.2309C150.323 56.3269 150.211 56.3749 150.078 56.3749ZM150.43 57.0869V61.4709H149.702V57.0869H150.43ZM151.399 59.2709C151.399 58.8176 151.489 58.4229 151.671 58.0869C151.852 57.7456 152.103 57.4816 152.423 57.2949C152.748 57.1083 153.119 57.0149 153.535 57.0149C154.073 57.0149 154.516 57.1456 154.863 57.4069C155.215 57.6683 155.447 58.0309 155.559 58.4949H154.775C154.7 58.2283 154.553 58.0176 154.335 57.8629C154.121 57.7083 153.855 57.6309 153.535 57.6309C153.119 57.6309 152.783 57.7749 152.527 58.0629C152.271 58.3456 152.143 58.7483 152.143 59.2709C152.143 59.7989 152.271 60.2069 152.527 60.4949C152.783 60.7829 153.119 60.9269 153.535 60.9269C153.855 60.9269 154.121 60.8523 154.335 60.7029C154.548 60.5536 154.695 60.3403 154.775 60.0629H155.559C155.441 60.5109 155.207 60.8709 154.855 61.1429C154.503 61.4096 154.063 61.5429 153.535 61.5429C153.119 61.5429 152.748 61.4496 152.423 61.2629C152.103 61.0763 151.852 60.8123 151.671 60.4709C151.489 60.1296 151.399 59.7296 151.399 59.2709ZM102.344 65.5509V71.4709H101.616V65.5509H102.344ZM103.313 69.2629C103.313 68.8149 103.403 68.4229 103.585 68.0869C103.766 67.7456 104.014 67.4816 104.329 67.2949C104.649 67.1083 105.003 67.0149 105.393 67.0149C105.777 67.0149 106.11 67.0976 106.393 67.2629C106.675 67.4283 106.886 67.6363 107.025 67.8869V67.0869H107.761V71.4709H107.025V70.6549C106.881 70.9109 106.665 71.1243 106.377 71.2949C106.094 71.4603 105.763 71.5429 105.385 71.5429C104.995 71.5429 104.643 71.4469 104.329 71.2549C104.014 71.0629 103.766 70.7936 103.585 70.4469C103.403 70.1003 103.313 69.7056 103.313 69.2629ZM107.025 69.2709C107.025 68.9403 106.958 68.6523 106.825 68.4069C106.691 68.1616 106.51 67.9749 106.281 67.8469C106.057 67.7136 105.809 67.6469 105.537 67.6469C105.265 67.6469 105.017 67.7109 104.793 67.8389C104.569 67.9669 104.39 68.1536 104.257 68.3989C104.123 68.6443 104.057 68.9323 104.057 69.2629C104.057 69.5989 104.123 69.8923 104.257 70.1429C104.39 70.3883 104.569 70.5776 104.793 70.7109C105.017 70.8389 105.265 70.9029 105.537 70.9029C105.809 70.9029 106.057 70.8389 106.281 70.7109C106.51 70.5776 106.691 70.3883 106.825 70.1429C106.958 69.8923 107.025 69.6016 107.025 69.2709ZM109.879 67.6869V70.2709C109.879 70.4843 109.924 70.6363 110.015 70.7269C110.106 70.8123 110.263 70.8549 110.487 70.8549H111.023V71.4709H110.367C109.962 71.4709 109.658 71.3776 109.455 71.1909C109.252 71.0043 109.151 70.6976 109.151 70.2709V67.6869H108.583V67.0869H109.151V65.9829H109.879V67.0869H111.023V67.6869H109.879ZM115.905 69.1109C115.905 69.2496 115.897 69.3963 115.881 69.5509H112.377C112.404 69.9829 112.55 70.3216 112.817 70.5669C113.089 70.8069 113.417 70.9269 113.801 70.9269C114.116 70.9269 114.377 70.8549 114.585 70.7109C114.798 70.5616 114.948 70.3643 115.033 70.1189H115.817C115.7 70.5403 115.465 70.8843 115.113 71.1509C114.761 71.4123 114.324 71.5429 113.801 71.5429C113.385 71.5429 113.012 71.4496 112.681 71.2629C112.356 71.0763 112.1 70.8123 111.913 70.4709C111.726 70.1243 111.633 69.7243 111.633 69.2709C111.633 68.8176 111.724 68.4203 111.905 68.0789C112.086 67.7376 112.34 67.4763 112.665 67.2949C112.996 67.1083 113.374 67.0149 113.801 67.0149C114.217 67.0149 114.585 67.1056 114.905 67.2869C115.225 67.4683 115.47 67.7189 115.641 68.0389C115.817 68.3536 115.905 68.7109 115.905 69.1109ZM115.153 68.9589C115.153 68.6816 115.092 68.4443 114.969 68.2469C114.846 68.0443 114.678 67.8923 114.465 67.7909C114.257 67.6843 114.025 67.6309 113.769 67.6309C113.401 67.6309 113.086 67.7483 112.825 67.9829C112.569 68.2176 112.422 68.5429 112.385 68.9589H115.153ZM117.594 67.7989C117.722 67.5483 117.903 67.3536 118.138 67.2149C118.378 67.0763 118.669 67.0069 119.01 67.0069V67.7589H118.818C118.002 67.7589 117.594 68.2016 117.594 69.0869V71.4709H116.866V67.0869H117.594V67.7989ZM120.082 71.5189C119.944 71.5189 119.826 71.4709 119.73 71.3749C119.634 71.2789 119.586 71.1616 119.586 71.0229C119.586 70.8843 119.634 70.7669 119.73 70.6709C119.826 70.5749 119.944 70.5269 120.082 70.5269C120.216 70.5269 120.328 70.5749 120.418 70.6709C120.514 70.7669 120.562 70.8843 120.562 71.0229C120.562 71.1616 120.514 71.2789 120.418 71.3749C120.328 71.4709 120.216 71.5189 120.082 71.5189Z" fill="white"/>
<path d="M116.53 81.3337L104.737 83.7711L109.845 73.8267L116.53 81.3337Z" fill="#7A5FFF"/>
</svg>
