<svg width="29" height="29" viewBox="0 0 29 29" fill="none" xmlns="http://www.w3.org/2000/svg">
<ellipse cx="14.5014" cy="14.5" rx="14.5014" ry="14.5" fill="#ECEAF8"/>
<path d="M14.6978 21.8908C18.6036 21.8908 21.7812 18.6263 21.7812 14.6137C21.7812 10.6011 18.6036 7.33655 14.6978 7.33655C10.7921 7.33655 7.6145 10.6011 7.6145 14.6137C7.6145 18.6263 10.7921 21.8908 14.6978 21.8908ZM17.172 12.4305C17.3133 12.4268 17.4538 12.4522 17.5853 12.5052C17.7169 12.5582 17.8367 12.6377 17.9379 12.739C18.039 12.8403 18.1194 12.9614 18.1743 13.0952C18.2291 13.2289 18.2574 13.3726 18.2573 13.5178C18.2573 13.6629 18.2289 13.8066 18.174 13.9403C18.119 14.074 18.0386 14.195 17.9374 14.2963C17.8362 14.3976 17.7162 14.477 17.5847 14.5299C17.4531 14.5827 17.3126 14.608 17.1713 14.6042C16.8955 14.5968 16.6334 14.479 16.4409 14.2759C16.2484 14.0728 16.1407 13.8005 16.1408 13.517C16.1409 13.2336 16.2488 12.9613 16.4414 12.7584C16.634 12.5554 16.8962 12.4378 17.172 12.4305ZM14.1255 17.4656C14.5033 17.5435 14.8924 17.5435 15.2702 17.4656C15.4494 17.4278 15.6279 17.3703 15.8014 17.296C15.9672 17.2233 16.1301 17.133 16.2824 17.0282C16.4297 16.9249 16.5707 16.8056 16.701 16.6724C16.8306 16.5399 16.9468 16.3951 17.0474 16.2416L18.2218 17.0544C17.9165 17.5194 17.5272 17.9198 17.075 18.2341C16.6143 18.5534 16.0972 18.7769 15.5528 18.8919C14.9884 19.0084 14.4071 19.0081 13.8429 18.8912C13.2983 18.7779 12.7812 18.5545 12.3214 18.2341C11.8692 17.919 11.4795 17.5184 11.1732 17.0537L12.3476 16.2409C12.4489 16.3944 12.565 16.5392 12.6933 16.6702C13.0843 17.074 13.5824 17.3506 14.1255 17.4656ZM12.2187 12.4305C12.3582 12.4306 12.4964 12.4589 12.6254 12.5138C12.7543 12.5687 12.8715 12.6492 12.9701 12.7506C13.0688 12.8521 13.147 12.9725 13.2004 13.105C13.2538 13.2374 13.2812 13.3794 13.2812 13.5228C13.2811 13.6662 13.2536 13.8082 13.2001 13.9407C13.1467 14.0731 13.0683 14.1935 12.9696 14.2949C12.8709 14.3962 12.7537 14.4766 12.6247 14.5314C12.4958 14.5863 12.3575 14.6145 12.218 14.6144C11.9361 14.6143 11.6658 14.4992 11.4665 14.2943C11.2673 14.0895 11.1554 13.8117 11.1555 13.5221C11.1556 13.2325 11.2676 12.9548 11.467 12.7501C11.6664 12.5454 11.9368 12.4304 12.2187 12.4305Z" fill="#344BFD"/>
</svg>
