<svg width="34" height="30" viewBox="0 0 34 30" fill="none" xmlns="http://www.w3.org/2000/svg">
<g clip-path="url(#clip0_1432_17922)">
<g clip-path="url(#clip1_1432_17922)">
<path d="M18.5678 1.05469C18.2572 0.410156 17.601 0 16.8803 0C16.1596 0 15.5092 0.410156 15.1928 1.05469L11.4252 8.80664L3.01112 10.0488C2.30799 10.1543 1.72206 10.6465 1.50526 11.3203C1.28846 11.9941 1.46424 12.7383 1.96815 13.2363L8.07362 19.2773L6.63221 27.8145C6.51503 28.5176 6.80799 29.2324 7.38807 29.6484C7.96815 30.0645 8.73573 30.1172 9.36854 29.7832L16.8861 25.7695L24.4037 29.7832C25.0365 30.1172 25.8041 30.0703 26.3842 29.6484C26.9642 29.2266 27.2572 28.5176 27.14 27.8145L25.6928 19.2773L31.7982 13.2363C32.3021 12.7383 32.4838 11.9941 32.2611 11.3203C32.0385 10.6465 31.4584 10.1543 30.7553 10.0488L22.3353 8.80664L18.5678 1.05469Z" fill="#FFD44D"/>
</g>
</g>
<defs>
<clipPath id="clip0_1432_17922">
<rect width="33.75" height="30" fill="white"/>
</clipPath>
<clipPath id="clip1_1432_17922">
<path d="M0 0H33.75V30H0V0Z" fill="white"/>
</clipPath>
</defs>
</svg>
