<svg width="104" height="104" viewBox="0 0 104 104" fill="none" xmlns="http://www.w3.org/2000/svg">
<path d="M19.3971 14.5739C11.5017 21.4518 5.98364 30.6505 3.63233 40.8542C1.28102 51.0579 2.21689 61.7438 6.30607 71.3834L14.7316 67.8093C11.3964 59.9471 10.6331 51.2316 12.5509 42.9094C14.4686 34.5872 18.9692 27.0846 25.4088 21.475L19.3971 14.5739Z" fill="#FFE688"/>
<path d="M6.10609 70.9051C10.0944 80.5869 17.0424 88.7594 25.9563 94.2535C34.8702 99.7477 45.2933 102.282 55.7347 101.494L55.046 92.3679C46.5299 93.0105 38.0287 90.9434 30.7585 86.4623C23.4882 81.9812 17.8213 75.3157 14.5685 67.4191L6.10609 70.9051Z" fill="#FFD44D"/>
<path d="M55.7827 101.491C64.6676 100.811 73.2058 97.7529 80.5011 92.6362C87.7965 87.5194 93.5798 80.5331 97.244 72.4105C100.908 64.2879 102.318 55.3287 101.326 46.4733C100.334 37.6179 96.9762 29.1928 91.6052 22.0826L84.3023 27.5991C88.6829 33.3983 91.4216 40.2698 92.2308 47.4923C93.04 54.7149 91.89 62.0221 88.9014 68.6469C85.9128 75.2718 81.1959 80.9699 75.2457 85.1432C69.2956 89.3165 62.3317 91.811 55.0851 92.3649L55.7827 101.491Z" fill="#FFD44D"/>
<path d="M96.5325 25.1513C91.8807 17.4356 85.304 11.0609 77.447 6.65193C69.59 2.24298 60.7223 -0.0489408 51.713 0.000792255C42.7036 0.0505253 33.8617 2.4402 26.0539 6.93562C18.246 11.431 11.7401 17.878 7.17378 25.6445L19.245 32.7418C22.5817 27.0667 27.3356 22.3559 33.0409 19.071C38.7462 15.7862 45.207 14.04 51.7903 14.0037C58.3735 13.9673 64.8532 15.642 70.5944 18.8637C76.3356 22.0854 81.1412 26.7434 84.5404 32.3814L96.5325 25.1513Z" fill="url(#paint0_linear_1432_23041)"/>
<path d="M46.5744 58.0354C45.5436 58.0314 44.6567 57.7777 43.9137 57.2744C43.1746 56.771 42.6053 56.0419 42.2058 55.0871C41.8103 54.1323 41.6145 52.9837 41.6185 51.6414C41.6185 50.303 41.8163 49.1625 42.2118 48.2196C42.6113 47.2768 43.1806 46.5597 43.9197 46.0683C44.6627 45.5729 45.5476 45.3252 46.5744 45.3252C47.6011 45.3252 48.484 45.5729 49.2231 46.0683C49.9661 46.5637 50.5374 47.2828 50.9369 48.2256C51.3364 49.1645 51.5342 50.303 51.5302 51.6414C51.5302 52.9877 51.3304 54.1383 50.9309 55.0931C50.5354 56.0479 49.9681 56.777 49.229 57.2804C48.49 57.7837 47.6051 58.0354 46.5744 58.0354ZM46.5744 55.8841C47.2775 55.8841 47.8388 55.5305 48.2583 54.8234C48.6777 54.1163 48.8855 53.0556 48.8815 51.6414C48.8815 50.7105 48.7856 49.9355 48.5938 49.3163C48.4061 48.697 48.1384 48.2316 47.7908 47.92C47.4473 47.6084 47.0418 47.4526 46.5744 47.4526C45.8752 47.4526 45.3159 47.8021 44.8964 48.5013C44.477 49.2004 44.2652 50.2471 44.2612 51.6414C44.2612 52.5842 44.3551 53.3712 44.5429 54.0024C44.7346 54.6296 45.0043 55.1011 45.3519 55.4167C45.6994 55.7283 46.1069 55.8841 46.5744 55.8841ZM57.8628 57.9335C57.0159 57.9335 56.2608 57.7777 55.5976 57.4661C54.9384 57.1545 54.4151 56.725 54.0276 56.1777C53.6401 55.6304 53.4383 55.0032 53.4223 54.2961H55.9392C55.9672 54.7715 56.1669 55.157 56.5385 55.4526C56.91 55.7483 57.3514 55.8961 57.8628 55.8961C58.2703 55.8961 58.6298 55.8062 58.9415 55.6264C59.2571 55.4426 59.5028 55.189 59.6785 54.8654C59.8583 54.5378 59.9482 54.1622 59.9482 53.7388C59.9482 53.3073 59.8563 52.9278 59.6726 52.6002C59.4928 52.2726 59.2431 52.0169 58.9235 51.8331C58.6039 51.6494 58.2383 51.5555 57.8268 51.5515C57.4673 51.5515 57.1177 51.6254 56.7782 51.7732C56.4426 51.921 56.1809 52.1228 55.9931 52.3785L53.686 51.965L54.2673 45.493H61.7699V47.6144H56.4066L56.089 50.6886H56.1609C56.3767 50.3849 56.7022 50.1332 57.1377 49.9335C57.5732 49.7337 58.0606 49.6339 58.5999 49.6339C59.339 49.6339 59.9981 49.8077 60.5774 50.1552C61.1567 50.5028 61.6141 50.9802 61.9497 51.5874C62.2853 52.1907 62.4511 52.8858 62.4471 53.6728C62.4511 54.4998 62.2593 55.2349 61.8718 55.8781C61.4883 56.5173 60.951 57.0207 60.2598 57.3882C59.5727 57.7518 58.7737 57.9335 57.8628 57.9335Z" fill="#404040"/>
<defs>
<linearGradient id="paint0_linear_1432_23041" x1="52" y1="0" x2="52" y2="23.6417" gradientUnits="userSpaceOnUse">
<stop stop-color="#F99D07"/>
<stop offset="1" stop-color="#FFBF20"/>
</linearGradient>
</defs>
</svg>
