<svg width="111" height="113" viewBox="0 0 111 113" fill="none" xmlns="http://www.w3.org/2000/svg">
<path d="M100.134 54.5062C98.7188 42.7754 93.0247 31.9794 84.1428 24.1868C75.2609 16.3942 63.8158 12.153 52.0006 12.276C40.1854 12.399 28.8312 16.8775 20.1134 24.8534C11.3956 32.8292 5.92751 43.7414 4.75682 55.4991L9.53115 55.9745C10.5848 45.3926 15.5061 35.5716 23.3521 28.3933C31.198 21.2151 41.4169 17.1844 52.0506 17.0737C62.6842 16.963 72.9848 20.78 80.9785 27.7934C88.9723 34.8067 94.0969 44.5231 95.3706 55.0808L100.134 54.5062Z" fill="#E9EDF0"/>
<path d="M0.266949 54.9675C1.27466 45.0082 5.1086 35.5446 11.3168 27.6922C17.5251 19.8397 25.8488 13.9258 35.3069 10.6475L39.9371 24.0057C33.0259 26.4012 26.9437 30.7225 22.4073 36.4604C17.8708 42.1983 15.0693 49.1134 14.333 56.3908L0.266949 54.9675Z" fill="#3A5AFE"/>
<line x1="31.6724" y1="0.0917646" x2="43.3566" y2="33.9669" stroke="#3A5AFE" stroke-width="0.5625"/>
<path d="M41.778 50.4704V48.4269L46.9016 40.355H48.6634V43.1834H47.6207L44.3907 48.2951V48.391H51.6717V50.4704H41.778ZM47.6687 52.6277V49.8471L47.7166 48.9423V40.355H50.1496V52.6277H47.6687ZM58.2125 52.8973C57.1818 52.8934 56.2949 52.6397 55.5518 52.1363C54.8128 51.6329 54.2435 50.9038 53.844 49.949C53.4485 48.9942 53.2527 47.8456 53.2567 46.5033C53.2567 45.165 53.4545 44.0244 53.85 43.0816C54.2495 42.1387 54.8188 41.4216 55.5578 40.9302C56.3009 40.4349 57.1858 40.1872 58.2125 40.1872C59.2393 40.1872 60.1222 40.4349 60.8612 40.9302C61.6043 41.4256 62.1756 42.1447 62.5751 43.0876C62.9746 44.0264 63.1724 45.165 63.1684 46.5033C63.1684 47.8496 62.9686 49.0002 62.5691 49.955C62.1736 50.9098 61.6063 51.6389 60.8672 52.1423C60.1282 52.6457 59.2433 52.8973 58.2125 52.8973ZM58.2125 50.746C58.9157 50.746 59.477 50.3925 59.8964 49.6853C60.3159 48.9782 60.5237 47.9175 60.5197 46.5033C60.5197 45.5725 60.4238 44.7974 60.232 44.1782C60.0443 43.559 59.7766 43.0935 59.429 42.7819C59.0854 42.4703 58.68 42.3145 58.2125 42.3145C57.5134 42.3145 56.9541 42.6641 56.5346 43.3632C56.1151 44.0623 55.9034 45.109 55.8994 46.5033C55.8994 47.4461 55.9933 48.2332 56.1811 48.8644C56.3728 49.4916 56.6425 49.963 56.9901 50.2786C57.3376 50.5902 57.7451 50.746 58.2125 50.746Z" fill="#404040"/>
</svg>
